<svg width="336" height="38" viewBox="0 0 336 38" fill="none" xmlns="http://www.w3.org/2000/svg">
<path d="M3.88636 4.13636C3.85227 3.84848 3.71402 3.625 3.47159 3.46591C3.22917 3.30682 2.93182 3.22727 2.57955 3.22727C2.32197 3.22727 2.09659 3.26894 1.90341 3.35227C1.71212 3.43561 1.5625 3.55019 1.45455 3.69602C1.34848 3.84186 1.29545 4.00758 1.29545 4.19318C1.29545 4.34848 1.33239 4.48201 1.40625 4.59375C1.48201 4.7036 1.5786 4.79545 1.69602 4.86932C1.81345 4.94129 1.93655 5.00095 2.06534 5.0483C2.19413 5.09375 2.3125 5.13068 2.42045 5.15909L3.01136 5.31818C3.16288 5.35795 3.33144 5.41288 3.51705 5.48295C3.70455 5.55303 3.88352 5.64867 4.05398 5.76989C4.22633 5.8892 4.36837 6.04261 4.48011 6.23011C4.59186 6.41761 4.64773 6.64773 4.64773 6.92045C4.64773 7.23485 4.56534 7.51894 4.40057 7.77273C4.23769 8.02652 3.99905 8.22822 3.68466 8.37784C3.37216 8.52746 2.99242 8.60227 2.54545 8.60227C2.12879 8.60227 1.76799 8.53504 1.46307 8.40057C1.16004 8.2661 0.921402 8.0786 0.747159 7.83807C0.574811 7.59754 0.477273 7.31818 0.454545 7H1.18182C1.20076 7.2197 1.27462 7.40152 1.40341 7.54545C1.53409 7.6875 1.69886 7.79356 1.89773 7.86364C2.09848 7.93182 2.31439 7.96591 2.54545 7.96591C2.81439 7.96591 3.05587 7.92235 3.26989 7.83523C3.4839 7.74621 3.65341 7.62311 3.77841 7.46591C3.90341 7.30682 3.96591 7.12121 3.96591 6.90909C3.96591 6.71591 3.91193 6.55871 3.80398 6.4375C3.69602 6.31629 3.55398 6.2178 3.37784 6.14205C3.2017 6.06629 3.01136 6 2.80682 5.94318L2.09091 5.73864C1.63636 5.60795 1.27652 5.4214 1.01136 5.17898C0.746212 4.93655 0.613636 4.61932 0.613636 4.22727C0.613636 3.90151 0.701705 3.61742 0.877841 3.375C1.05587 3.13068 1.29451 2.94129 1.59375 2.80682C1.89489 2.67045 2.23106 2.60227 2.60227 2.60227C2.97727 2.60227 3.31061 2.66951 3.60227 2.80398C3.89394 2.93655 4.125 3.11837 4.29545 3.34943C4.4678 3.58049 4.55871 3.8428 4.56818 4.13636H3.88636ZM7.61293 4.13636V4.70455H5.35156V4.13636H7.61293ZM6.01065 3.09091H6.68111V7.25C6.68111 7.43939 6.70857 7.58144 6.76349 7.67614C6.82031 7.76894 6.89228 7.83144 6.9794 7.86364C7.06842 7.89394 7.16217 7.90909 7.26065 7.90909C7.33452 7.90909 7.39512 7.9053 7.44247 7.89773C7.48982 7.88826 7.5277 7.88068 7.55611 7.875L7.69247 8.47727C7.64702 8.49432 7.58357 8.51136 7.50213 8.52841C7.42069 8.54735 7.31747 8.55682 7.19247 8.55682C7.00308 8.55682 6.81747 8.5161 6.63565 8.43466C6.45573 8.35322 6.30611 8.22917 6.18679 8.0625C6.06937 7.89583 6.01065 7.68561 6.01065 7.43182V3.09091ZM9.90554 8.60227C9.62902 8.60227 9.37808 8.55019 9.1527 8.44602C8.92732 8.33996 8.74834 8.1875 8.61577 7.98864C8.48319 7.78788 8.4169 7.54545 8.4169 7.26136C8.4169 7.01136 8.46615 6.80871 8.56463 6.65341C8.66312 6.49621 8.79474 6.37311 8.95952 6.28409C9.12429 6.19508 9.30611 6.12879 9.50497 6.08523C9.70573 6.03977 9.90743 6.00379 10.1101 5.97727C10.3752 5.94318 10.5902 5.91761 10.755 5.90057C10.9216 5.88163 11.0429 5.85038 11.1186 5.80682C11.1963 5.76326 11.2351 5.6875 11.2351 5.57955V5.55682C11.2351 5.27652 11.1584 5.05871 11.005 4.90341C10.8535 4.74811 10.6233 4.67045 10.3146 4.67045C9.99455 4.67045 9.74361 4.74053 9.56179 4.88068C9.37997 5.02083 9.25213 5.17045 9.17827 5.32955L8.5419 5.10227C8.65554 4.83712 8.80705 4.63068 8.99645 4.48295C9.18774 4.33333 9.39607 4.22917 9.62145 4.17045C9.84872 4.10985 10.0722 4.07955 10.2919 4.07955C10.4321 4.07955 10.593 4.09659 10.7749 4.13068C10.9586 4.16288 11.1357 4.23011 11.3061 4.33239C11.4785 4.43466 11.6214 4.58902 11.7351 4.79545C11.8487 5.00189 11.9055 5.27841 11.9055 5.625V8.5H11.2351V7.90909H11.201C11.1555 8.00379 11.0798 8.10511 10.9737 8.21307C10.8677 8.32102 10.7266 8.41288 10.5504 8.48864C10.3743 8.56439 10.1593 8.60227 9.90554 8.60227ZM10.0078 8C10.273 8 10.4964 7.94792 10.6783 7.84375C10.862 7.73958 11.0002 7.60511 11.093 7.44034C11.1877 7.27557 11.2351 7.10227 11.2351 6.92045V6.30682C11.2067 6.34091 11.1442 6.37216 11.0476 6.40057C10.9529 6.42708 10.843 6.45076 10.718 6.47159C10.5949 6.49053 10.4747 6.50758 10.3572 6.52273C10.2417 6.53598 10.148 6.54735 10.076 6.55682C9.90175 6.57955 9.73887 6.61648 9.58736 6.66761C9.43774 6.71686 9.31652 6.79167 9.22372 6.89205C9.13281 6.99053 9.08736 7.125 9.08736 7.29545C9.08736 7.52841 9.17353 7.70455 9.34588 7.82386C9.52012 7.94129 9.74077 8 10.0078 8ZM13.1293 8.5V4.13636H13.777V4.79545H13.8224C13.902 4.57955 14.0459 4.40436 14.2543 4.26989C14.4626 4.13542 14.6974 4.06818 14.9588 4.06818C15.008 4.06818 15.0696 4.06913 15.1435 4.07102C15.2173 4.07292 15.2732 4.07576 15.3111 4.07955V4.76136C15.2884 4.75568 15.2363 4.74716 15.1548 4.7358C15.0753 4.72254 14.991 4.71591 14.902 4.71591C14.6899 4.71591 14.5005 4.76042 14.3338 4.84943C14.169 4.93655 14.0384 5.05777 13.9418 5.21307C13.8471 5.36648 13.7997 5.54167 13.7997 5.73864V8.5H13.1293ZM18.277 4.13636V4.70455H16.0156V4.13636H18.277ZM16.6747 3.09091H17.3452V7.25C17.3452 7.43939 17.3726 7.58144 17.4276 7.67614C17.4844 7.76894 17.5563 7.83144 17.6435 7.86364C17.7325 7.89394 17.8262 7.90909 17.9247 7.90909C17.9986 7.90909 18.0592 7.9053 18.1065 7.89773C18.1539 7.88826 18.1918 7.88068 18.2202 7.875L18.3565 8.47727C18.3111 8.49432 18.2476 8.51136 18.1662 8.52841C18.0848 8.54735 17.9815 8.55682 17.8565 8.55682C17.6671 8.55682 17.4815 8.5161 17.2997 8.43466C17.1198 8.35322 16.9702 8.22917 16.8509 8.0625C16.7334 7.89583 16.6747 7.68561 16.6747 7.43182V3.09091ZM23.4787 4.13636V4.70455H21.1264V4.13636H23.4787ZM21.831 8.5V3.53409C21.831 3.28409 21.8897 3.07576 22.0071 2.90909C22.1245 2.74242 22.277 2.61742 22.4645 2.53409C22.652 2.45076 22.8499 2.40909 23.0582 2.40909C23.223 2.40909 23.3575 2.42235 23.4616 2.44886C23.5658 2.47538 23.6435 2.5 23.6946 2.52273L23.5014 3.10227C23.4673 3.09091 23.42 3.0767 23.3594 3.05966C23.3007 3.04261 23.223 3.03409 23.1264 3.03409C22.9048 3.03409 22.7448 3.08996 22.6463 3.2017C22.5497 3.31345 22.5014 3.47727 22.5014 3.69318V8.5H21.831ZM24.4183 8.5V4.13636H25.0661V4.79545H25.1115C25.1911 4.57955 25.335 4.40436 25.5433 4.26989C25.7517 4.13542 25.9865 4.06818 26.2479 4.06818C26.2971 4.06818 26.3587 4.06913 26.4325 4.07102C26.5064 4.07292 26.5623 4.07576 26.6001 4.07955V4.76136C26.5774 4.75568 26.5253 4.74716 26.4439 4.7358C26.3643 4.72254 26.2801 4.71591 26.1911 4.71591C25.9789 4.71591 25.7895 4.76042 25.6229 4.84943C25.4581 4.93655 25.3274 5.05777 25.2308 5.21307C25.1361 5.36648 25.0888 5.54167 25.0888 5.73864V8.5H24.4183ZM29.0348 8.59091C28.6409 8.59091 28.2952 8.49716 27.9979 8.30966C27.7024 8.12216 27.4714 7.85985 27.3047 7.52273C27.1399 7.18561 27.0575 6.79167 27.0575 6.34091C27.0575 5.88636 27.1399 5.48958 27.3047 5.15057C27.4714 4.81155 27.7024 4.5483 27.9979 4.3608C28.2952 4.1733 28.6409 4.07955 29.0348 4.07955C29.4287 4.07955 29.7734 4.1733 30.0689 4.3608C30.3662 4.5483 30.5973 4.81155 30.7621 5.15057C30.9287 5.48958 31.0121 5.88636 31.0121 6.34091C31.0121 6.79167 30.9287 7.18561 30.7621 7.52273C30.5973 7.85985 30.3662 8.12216 30.0689 8.30966C29.7734 8.49716 29.4287 8.59091 29.0348 8.59091ZM29.0348 7.98864C29.334 7.98864 29.5803 7.91193 29.7734 7.75852C29.9666 7.60511 30.1096 7.40341 30.2024 7.15341C30.2952 6.90341 30.3416 6.63258 30.3416 6.34091C30.3416 6.04924 30.2952 5.77746 30.2024 5.52557C30.1096 5.27367 29.9666 5.07008 29.7734 4.91477C29.5803 4.75947 29.334 4.68182 29.0348 4.68182C28.7356 4.68182 28.4893 4.75947 28.2962 4.91477C28.103 5.07008 27.96 5.27367 27.8672 5.52557C27.7744 5.77746 27.728 6.04924 27.728 6.34091C27.728 6.63258 27.7744 6.90341 27.8672 7.15341C27.96 7.40341 28.103 7.60511 28.2962 7.75852C28.4893 7.91193 28.7356 7.98864 29.0348 7.98864ZM32.0355 8.5V4.13636H32.6832V4.81818H32.7401C32.831 4.58523 32.9777 4.40436 33.1804 4.27557C33.383 4.14489 33.6264 4.07955 33.9105 4.07955C34.1984 4.07955 34.438 4.14489 34.6293 4.27557C34.8224 4.40436 34.973 4.58523 35.081 4.81818H35.1264C35.2382 4.5928 35.4058 4.41383 35.6293 4.28125C35.8527 4.14678 36.1207 4.07955 36.4332 4.07955C36.8234 4.07955 37.1425 4.2017 37.3906 4.44602C37.6387 4.68845 37.7628 5.06629 37.7628 5.57955V8.5H37.0923V5.57955C37.0923 5.25758 37.0043 5.02746 36.8281 4.8892C36.652 4.75095 36.4446 4.68182 36.206 4.68182C35.8991 4.68182 35.6615 4.77462 35.4929 4.96023C35.3243 5.14394 35.2401 5.37689 35.2401 5.65909V8.5H34.5582V5.51136C34.5582 5.26326 34.4777 5.06345 34.3168 4.91193C34.1558 4.75852 33.9484 4.68182 33.6946 4.68182C33.5204 4.68182 33.3575 4.72822 33.206 4.82102C33.0563 4.91383 32.9351 5.04261 32.8423 5.20739C32.7514 5.37027 32.706 5.55871 32.706 5.77273V8.5H32.0355Z" fill="#313041"/>
<path d="M0.616 18.5V12.54H1.56V18.5H0.616ZM2.79569 18.5V12.54H4.74769C5.36635 12.54 5.90235 12.6653 6.35569 12.916C6.81435 13.1613 7.16902 13.508 7.41969 13.956C7.67035 14.404 7.79569 14.924 7.79569 15.516C7.79569 16.1027 7.67035 16.6227 7.41969 17.076C7.16902 17.524 6.81435 17.8733 6.35569 18.124C5.90235 18.3747 5.36635 18.5 4.74769 18.5H2.79569ZM3.73969 17.66H4.76369C5.18502 17.66 5.55035 17.572 5.85969 17.396C6.17435 17.22 6.41702 16.972 6.58769 16.652C6.75835 16.332 6.84369 15.9533 6.84369 15.516C6.84369 15.0787 6.75569 14.7027 6.57969 14.388C6.40902 14.068 6.16902 13.82 5.85969 13.644C5.55035 13.468 5.18502 13.38 4.76369 13.38H3.73969V17.66ZM8.72538 18.5V12.54H10.8934C11.2934 12.54 11.6454 12.6147 11.9494 12.764C12.2534 12.908 12.4907 13.1213 12.6614 13.404C12.8374 13.6813 12.9254 14.0147 12.9254 14.404C12.9254 14.8147 12.8214 15.1667 12.6134 15.46C12.4107 15.7533 12.136 15.9667 11.7894 16.1L13.1654 18.5H12.0934L10.6294 15.9L11.2454 16.26H9.66938V18.5H8.72538ZM9.66938 15.42H10.9094C11.128 15.42 11.3174 15.3773 11.4774 15.292C11.6374 15.2067 11.76 15.0893 11.8454 14.94C11.936 14.7853 11.9814 14.604 11.9814 14.396C11.9814 14.188 11.936 14.0093 11.8454 13.86C11.76 13.7053 11.6374 13.588 11.4774 13.508C11.3174 13.4227 11.128 13.38 10.9094 13.38H9.66938V15.42ZM17.1502 18.596C16.7609 18.596 16.4142 18.5107 16.1102 18.34C15.8062 18.1693 15.5662 17.9347 15.3902 17.636C15.2195 17.3373 15.1342 16.9987 15.1342 16.62C15.1342 16.4227 15.1555 16.2253 15.1982 16.028C15.2409 15.8307 15.3155 15.6253 15.4222 15.412C15.5342 15.1987 15.6835 14.9693 15.8702 14.724L17.5342 12.54H18.6622L16.6222 15.18L16.4622 15.076C16.5369 14.9907 16.6169 14.924 16.7022 14.876C16.7929 14.828 16.8862 14.7933 16.9822 14.772C17.0835 14.7507 17.1902 14.74 17.3022 14.74C17.6595 14.74 17.9795 14.8227 18.2622 14.988C18.5449 15.1533 18.7662 15.3773 18.9262 15.66C19.0915 15.9427 19.1742 16.268 19.1742 16.636C19.1742 17.0093 19.0862 17.3453 18.9102 17.644C18.7342 17.9373 18.4942 18.1693 18.1902 18.34C17.8915 18.5107 17.5449 18.596 17.1502 18.596ZM17.1502 17.756C17.3582 17.756 17.5422 17.708 17.7022 17.612C17.8622 17.516 17.9902 17.3853 18.0862 17.22C18.1822 17.0493 18.2302 16.8573 18.2302 16.644C18.2302 16.4253 18.1822 16.2333 18.0862 16.068C17.9955 15.9027 17.8675 15.7747 17.7022 15.684C17.5422 15.588 17.3582 15.54 17.1502 15.54C16.9475 15.54 16.7635 15.588 16.5982 15.684C16.4382 15.7747 16.3102 15.9027 16.2142 16.068C16.1182 16.2333 16.0702 16.4253 16.0702 16.644C16.0702 16.8573 16.1182 17.0493 16.2142 17.22C16.3102 17.3853 16.4382 17.516 16.5982 17.612C16.7635 17.708 16.9475 17.756 17.1502 17.756ZM20.3069 19.676V19.236C20.4829 19.1933 20.6189 19.1107 20.7149 18.988C20.8109 18.8707 20.8695 18.708 20.8909 18.5H20.4669V17.46H21.3869V18.14C21.3869 18.5667 21.2962 18.9107 21.1149 19.172C20.9335 19.4333 20.6642 19.6013 20.3069 19.676ZM23.0599 18.5L25.0999 15.86L25.2599 15.964C25.1852 16.044 25.1025 16.108 25.0119 16.156C24.9265 16.204 24.8332 16.2387 24.7319 16.26C24.6359 16.2813 24.5319 16.292 24.4199 16.292C24.0625 16.292 23.7425 16.212 23.4599 16.052C23.1772 15.8867 22.9532 15.6627 22.7879 15.38C22.6279 15.092 22.5479 14.7667 22.5479 14.404C22.5479 14.0253 22.6359 13.6893 22.8119 13.396C22.9879 13.1027 23.2279 12.8707 23.5319 12.7C23.8359 12.5293 24.1825 12.444 24.5719 12.444C24.9665 12.444 25.3132 12.5293 25.6119 12.7C25.9159 12.8707 26.1532 13.1053 26.3239 13.404C26.4999 13.6973 26.5879 14.0333 26.5879 14.412C26.5879 14.6147 26.5665 14.8147 26.5239 15.012C26.4812 15.2093 26.4065 15.4147 26.2999 15.628C26.1932 15.836 26.0439 16.0653 25.8519 16.316L24.1879 18.5H23.0599ZM24.5719 15.5C24.7799 15.5 24.9639 15.452 25.1239 15.356C25.2839 15.26 25.4119 15.1293 25.5079 14.964C25.6039 14.7987 25.6519 14.6093 25.6519 14.396C25.6519 14.1773 25.6039 13.9853 25.5079 13.82C25.4119 13.6493 25.2812 13.5187 25.1159 13.428C24.9559 13.332 24.7745 13.284 24.5719 13.284C24.3692 13.284 24.1852 13.332 24.0199 13.428C23.8599 13.5187 23.7319 13.6493 23.6359 13.82C23.5399 13.9853 23.4919 14.1773 23.4919 14.396C23.4919 14.6093 23.5372 14.7987 23.6279 14.964C23.7239 15.1293 23.8545 15.26 24.0199 15.356C24.1852 15.452 24.3692 15.5 24.5719 15.5ZM27.8646 18.5L29.9046 15.86L30.0646 15.964C29.9899 16.044 29.9072 16.108 29.8166 16.156C29.7312 16.204 29.6379 16.2387 29.5366 16.26C29.4406 16.2813 29.3366 16.292 29.2246 16.292C28.8672 16.292 28.5472 16.212 28.2646 16.052C27.9819 15.8867 27.7579 15.6627 27.5926 15.38C27.4326 15.092 27.3526 14.7667 27.3526 14.404C27.3526 14.0253 27.4406 13.6893 27.6166 13.396C27.7926 13.1027 28.0326 12.8707 28.3366 12.7C28.6406 12.5293 28.9872 12.444 29.3766 12.444C29.7712 12.444 30.1179 12.5293 30.4166 12.7C30.7206 12.8707 30.9579 13.1053 31.1286 13.404C31.3046 13.6973 31.3926 14.0333 31.3926 14.412C31.3926 14.6147 31.3712 14.8147 31.3286 15.012C31.2859 15.2093 31.2112 15.4147 31.1046 15.628C30.9979 15.836 30.8486 16.0653 30.6566 16.316L28.9926 18.5H27.8646ZM29.3766 15.5C29.5846 15.5 29.7686 15.452 29.9286 15.356C30.0886 15.26 30.2166 15.1293 30.3126 14.964C30.4086 14.7987 30.4566 14.6093 30.4566 14.396C30.4566 14.1773 30.4086 13.9853 30.3126 13.82C30.2166 13.6493 30.0859 13.5187 29.9206 13.428C29.7606 13.332 29.5792 13.284 29.3766 13.284C29.1739 13.284 28.9899 13.332 28.8246 13.428C28.6646 13.5187 28.5366 13.6493 28.4406 13.82C28.3446 13.9853 28.2966 14.1773 28.2966 14.396C28.2966 14.6093 28.3419 14.7987 28.4326 14.964C28.5286 15.1293 28.6592 15.26 28.8246 15.356C28.9899 15.452 29.1739 15.5 29.3766 15.5ZM32.6693 18.5L34.7093 15.86L34.8693 15.964C34.7946 16.044 34.7119 16.108 34.6213 16.156C34.5359 16.204 34.4426 16.2387 34.3413 16.26C34.2453 16.2813 34.1413 16.292 34.0293 16.292C33.6719 16.292 33.3519 16.212 33.0693 16.052C32.7866 15.8867 32.5626 15.6627 32.3973 15.38C32.2373 15.092 32.1573 14.7667 32.1573 14.404C32.1573 14.0253 32.2453 13.6893 32.4213 13.396C32.5973 13.1027 32.8373 12.8707 33.1413 12.7C33.4453 12.5293 33.7919 12.444 34.1813 12.444C34.5759 12.444 34.9226 12.5293 35.2213 12.7C35.5253 12.8707 35.7626 13.1053 35.9333 13.404C36.1093 13.6973 36.1973 14.0333 36.1973 14.412C36.1973 14.6147 36.1759 14.8147 36.1333 15.012C36.0906 15.2093 36.0159 15.4147 35.9093 15.628C35.8026 15.836 35.6533 16.0653 35.4613 16.316L33.7973 18.5H32.6693ZM34.1813 15.5C34.3893 15.5 34.5733 15.452 34.7333 15.356C34.8933 15.26 35.0213 15.1293 35.1173 14.964C35.2133 14.7987 35.2613 14.6093 35.2613 14.396C35.2613 14.1773 35.2133 13.9853 35.1173 13.82C35.0213 13.6493 34.8906 13.5187 34.7253 13.428C34.5653 13.332 34.3839 13.284 34.1813 13.284C33.9786 13.284 33.7946 13.332 33.6293 13.428C33.4693 13.5187 33.3413 13.6493 33.2453 13.82C33.1493 13.9853 33.1013 14.1773 33.1013 14.396C33.1013 14.6093 33.1466 14.7987 33.2373 14.964C33.3333 15.1293 33.4639 15.26 33.6293 15.356C33.7946 15.452 33.9786 15.5 34.1813 15.5ZM37.1116 19.676V19.236C37.2876 19.1933 37.4236 19.1107 37.5196 18.988C37.6156 18.8707 37.6742 18.708 37.6956 18.5H37.2716V17.46H38.1916V18.14C38.1916 18.5667 38.1009 18.9107 37.9196 19.172C37.7382 19.4333 37.4689 19.6013 37.1116 19.676ZM39.8646 18.5L41.9046 15.86L42.0646 15.964C41.9899 16.044 41.9072 16.108 41.8166 16.156C41.7312 16.204 41.6379 16.2387 41.5366 16.26C41.4406 16.2813 41.3366 16.292 41.2246 16.292C40.8672 16.292 40.5472 16.212 40.2646 16.052C39.9819 15.8867 39.7579 15.6627 39.5926 15.38C39.4326 15.092 39.3526 14.7667 39.3526 14.404C39.3526 14.0253 39.4406 13.6893 39.6166 13.396C39.7926 13.1027 40.0326 12.8707 40.3366 12.7C40.6406 12.5293 40.9872 12.444 41.3766 12.444C41.7712 12.444 42.1179 12.5293 42.4166 12.7C42.7206 12.8707 42.9579 13.1053 43.1286 13.404C43.3046 13.6973 43.3926 14.0333 43.3926 14.412C43.3926 14.6147 43.3712 14.8147 43.3286 15.012C43.2859 15.2093 43.2112 15.4147 43.1046 15.628C42.9979 15.836 42.8486 16.0653 42.6566 16.316L40.9926 18.5H39.8646ZM41.3766 15.5C41.5846 15.5 41.7686 15.452 41.9286 15.356C42.0886 15.26 42.2166 15.1293 42.3126 14.964C42.4086 14.7987 42.4566 14.6093 42.4566 14.396C42.4566 14.1773 42.4086 13.9853 42.3126 13.82C42.2166 13.6493 42.0859 13.5187 41.9206 13.428C41.7606 13.332 41.5792 13.284 41.3766 13.284C41.1739 13.284 40.9899 13.332 40.8246 13.428C40.6646 13.5187 40.5366 13.6493 40.4406 13.82C40.3446 13.9853 40.2966 14.1773 40.2966 14.396C40.2966 14.6093 40.3419 14.7987 40.4326 14.964C40.5286 15.1293 40.6592 15.26 40.8246 15.356C40.9899 15.452 41.1739 15.5 41.3766 15.5ZM44.6693 18.5L46.7093 15.86L46.8693 15.964C46.7946 16.044 46.7119 16.108 46.6213 16.156C46.5359 16.204 46.4426 16.2387 46.3413 16.26C46.2453 16.2813 46.1413 16.292 46.0293 16.292C45.6719 16.292 45.3519 16.212 45.0693 16.052C44.7866 15.8867 44.5626 15.6627 44.3973 15.38C44.2373 15.092 44.1573 14.7667 44.1573 14.404C44.1573 14.0253 44.2453 13.6893 44.4213 13.396C44.5973 13.1027 44.8373 12.8707 45.1413 12.7C45.4453 12.5293 45.7919 12.444 46.1813 12.444C46.5759 12.444 46.9226 12.5293 47.2213 12.7C47.5253 12.8707 47.7626 13.1053 47.9333 13.404C48.1093 13.6973 48.1973 14.0333 48.1973 14.412C48.1973 14.6147 48.1759 14.8147 48.1333 15.012C48.0906 15.2093 48.0159 15.4147 47.9093 15.628C47.8026 15.836 47.6533 16.0653 47.4613 16.316L45.7973 18.5H44.6693ZM46.1813 15.5C46.3893 15.5 46.5733 15.452 46.7333 15.356C46.8933 15.26 47.0213 15.1293 47.1173 14.964C47.2133 14.7987 47.2613 14.6093 47.2613 14.396C47.2613 14.1773 47.2133 13.9853 47.1173 13.82C47.0213 13.6493 46.8906 13.5187 46.7253 13.428C46.5653 13.332 46.3839 13.284 46.1813 13.284C45.9786 13.284 45.7946 13.332 45.6293 13.428C45.4693 13.5187 45.3413 13.6493 45.2453 13.82C45.1493 13.9853 45.1013 14.1773 45.1013 14.396C45.1013 14.6093 45.1466 14.7987 45.2373 14.964C45.3333 15.1293 45.4639 15.26 45.6293 15.356C45.7946 15.452 45.9786 15.5 46.1813 15.5ZM49.4739 18.5L51.5139 15.86L51.6739 15.964C51.5993 16.044 51.5166 16.108 51.4259 16.156C51.3406 16.204 51.2473 16.2387 51.1459 16.26C51.0499 16.2813 50.9459 16.292 50.8339 16.292C50.4766 16.292 50.1566 16.212 49.8739 16.052C49.5913 15.8867 49.3673 15.6627 49.2019 15.38C49.0419 15.092 48.9619 14.7667 48.9619 14.404C48.9619 14.0253 49.0499 13.6893 49.2259 13.396C49.4019 13.1027 49.6419 12.8707 49.9459 12.7C50.2499 12.5293 50.5966 12.444 50.9859 12.444C51.3806 12.444 51.7273 12.5293 52.0259 12.7C52.3299 12.8707 52.5673 13.1053 52.7379 13.404C52.9139 13.6973 53.0019 14.0333 53.0019 14.412C53.0019 14.6147 52.9806 14.8147 52.9379 15.012C52.8953 15.2093 52.8206 15.4147 52.7139 15.628C52.6073 15.836 52.4579 16.0653 52.2659 16.316L50.6019 18.5H49.4739ZM50.9859 15.5C51.1939 15.5 51.3779 15.452 51.5379 15.356C51.6979 15.26 51.8259 15.1293 51.9219 14.964C52.0179 14.7987 52.0659 14.6093 52.0659 14.396C52.0659 14.1773 52.0179 13.9853 51.9219 13.82C51.8259 13.6493 51.6953 13.5187 51.5299 13.428C51.3699 13.332 51.1886 13.284 50.9859 13.284C50.7833 13.284 50.5993 13.332 50.4339 13.428C50.2739 13.5187 50.1459 13.6493 50.0499 13.82C49.9539 13.9853 49.9059 14.1773 49.9059 14.396C49.9059 14.6093 49.9513 14.7987 50.0419 14.964C50.1379 15.1293 50.2686 15.26 50.4339 15.356C50.5993 15.452 50.7833 15.5 50.9859 15.5Z" fill="#B8B8B8"/>
<path d="M0 15.9H14.7437V16.22H0V15.9ZM14.7422 15.9H19.5502V16.22H14.7422V15.9ZM19.5469 15.9H26.9799V16.22H19.5469V15.9ZM26.9766 15.9H31.7846V16.22H26.9766V15.9ZM31.7812 15.9H36.5892V16.22H31.7812V15.9ZM36.3516 15.9H43.7846V16.22H36.3516V15.9ZM43.7812 15.9H48.5892V16.22H43.7812V15.9ZM48.5859 15.9H53.3939V16.22H48.5859V15.9Z" fill="#B8B8B8"/>
<path d="M1.008 35.5V25.07H2.912V35.5H1.008ZM4.91816 35.5V25.07H8.32016C9.42149 25.07 10.3782 25.294 11.1902 25.742C12.0115 26.1807 12.6462 26.792 13.0942 27.576C13.5422 28.3507 13.7662 29.2513 13.7662 30.278C13.7662 31.2953 13.5422 32.2007 13.0942 32.994C12.6462 33.778 12.0115 34.394 11.1902 34.842C10.3782 35.2807 9.42149 35.5 8.32016 35.5H4.91816ZM6.82216 33.82H8.36216C9.07149 33.82 9.68282 33.6753 10.1962 33.386C10.7188 33.0873 11.1248 32.6767 11.4142 32.154C11.7035 31.622 11.8482 30.9967 11.8482 30.278C11.8482 29.55 11.7035 28.9247 11.4142 28.402C11.1248 27.8793 10.7188 27.4733 10.1962 27.184C9.68282 26.8947 9.07149 26.75 8.36216 26.75H6.82216V33.82ZM15.2814 35.5V25.07H19.1594C19.8688 25.07 20.4941 25.2007 21.0354 25.462C21.5861 25.714 22.0154 26.0873 22.3234 26.582C22.6314 27.0673 22.7854 27.66 22.7854 28.36C22.7854 29.0787 22.6128 29.69 22.2674 30.194C21.9314 30.698 21.4741 31.0713 20.8954 31.314L23.2894 35.5H21.1334L18.5714 30.922L19.8034 31.65H17.1854V35.5H15.2814ZM17.1854 29.97H19.1874C19.5328 29.97 19.8314 29.9047 20.0834 29.774C20.3354 29.634 20.5314 29.4427 20.6714 29.2C20.8114 28.9573 20.8814 28.6773 20.8814 28.36C20.8814 28.0333 20.8114 27.7533 20.6714 27.52C20.5314 27.2773 20.3354 27.0907 20.0834 26.96C19.8314 26.82 19.5328 26.75 19.1874 26.75H17.1854V29.97ZM30.1756 35.668C29.6249 35.668 29.0976 35.5653 28.5936 35.36C28.0989 35.1547 27.6696 34.8653 27.3056 34.492C26.9509 34.1093 26.7082 33.6567 26.5776 33.134L28.2296 32.546C28.3882 33.022 28.6449 33.3767 28.9996 33.61C29.3542 33.834 29.7462 33.946 30.1756 33.946C30.5302 33.946 30.8429 33.8713 31.1136 33.722C31.3936 33.5633 31.6082 33.3487 31.7576 33.078C31.9069 32.798 31.9816 32.476 31.9816 32.112C31.9816 31.748 31.9022 31.4307 31.7436 31.16C31.5942 30.8893 31.3842 30.6793 31.1136 30.53C30.8429 30.3713 30.5302 30.292 30.1756 30.292C29.8116 30.292 29.4802 30.3713 29.1816 30.53C28.8922 30.6887 28.6822 30.9173 28.5516 31.216L26.9976 30.866L27.8236 25.07H33.5076V26.68H28.5796L29.2936 25.854L28.7056 30.222L28.1596 29.774C28.4209 29.3913 28.7382 29.1113 29.1116 28.934C29.4942 28.7567 29.9562 28.668 30.4976 28.668C31.1882 28.668 31.7856 28.8173 32.2896 29.116C32.8029 29.4147 33.1996 29.8207 33.4796 30.334C33.7596 30.8473 33.8996 31.44 33.8996 32.112C33.8996 32.784 33.7362 33.3907 33.4096 33.932C33.0829 34.4733 32.6396 34.898 32.0796 35.206C31.5196 35.514 30.8849 35.668 30.1756 35.668ZM36.0729 37.684V36.774C36.3809 36.6993 36.6282 36.5547 36.8149 36.34C37.0109 36.1347 37.1322 35.8547 37.1789 35.5H36.3529V33.54H38.2009V34.744C38.2009 35.5653 38.0189 36.2233 37.6549 36.718C37.3002 37.2127 36.7729 37.5347 36.0729 37.684ZM40.2788 35.5V34.058L43.1068 31.104C43.6668 30.516 44.0961 30.0493 44.3948 29.704C44.7028 29.3493 44.9174 29.046 45.0388 28.794C45.1601 28.542 45.2208 28.2853 45.2208 28.024C45.2208 27.5853 45.0808 27.24 44.8008 26.988C44.5301 26.736 44.1801 26.61 43.7508 26.61C43.3028 26.61 42.9154 26.7407 42.5888 27.002C42.2621 27.254 42.0241 27.6273 41.8748 28.122L40.2088 27.604C40.3208 27.0533 40.5494 26.5773 40.8948 26.176C41.2401 25.7653 41.6601 25.4527 42.1548 25.238C42.6588 25.014 43.1908 24.902 43.7508 24.902C44.4228 24.902 45.0108 25.0233 45.5148 25.266C46.0281 25.5087 46.4248 25.8493 46.7048 26.288C46.9941 26.7267 47.1388 27.24 47.1388 27.828C47.1388 28.2013 47.0688 28.57 46.9288 28.934C46.7888 29.298 46.5788 29.6713 46.2988 30.054C46.0188 30.4273 45.6548 30.8473 45.2068 31.314L42.7568 33.89H47.2788V35.5H40.2788ZM52.9443 35.668C52.1136 35.668 51.3856 35.444 50.7603 34.996C50.1349 34.548 49.6449 33.918 49.2903 33.106C48.9449 32.294 48.7723 31.3513 48.7723 30.278C48.7723 29.1953 48.9449 28.2527 49.2903 27.45C49.6356 26.6473 50.1209 26.022 50.7463 25.574C51.3716 25.126 52.0996 24.902 52.9303 24.902C53.7796 24.902 54.5123 25.126 55.1283 25.574C55.7536 26.022 56.2436 26.652 56.5983 27.464C56.9529 28.2667 57.1303 29.2047 57.1303 30.278C57.1303 31.3513 56.9529 32.294 56.5983 33.106C56.2529 33.9087 55.7676 34.5387 55.1423 34.996C54.5169 35.444 53.7843 35.668 52.9443 35.668ZM52.9583 33.932C53.4343 33.932 53.8403 33.7873 54.1763 33.498C54.5123 33.1993 54.7689 32.7793 54.9463 32.238C55.1329 31.6873 55.2263 31.034 55.2263 30.278C55.2263 29.522 55.1329 28.8733 54.9463 28.332C54.7689 27.7813 54.5076 27.3613 54.1623 27.072C53.8263 26.7827 53.4156 26.638 52.9303 26.638C52.4636 26.638 52.0623 26.7827 51.7263 27.072C51.3903 27.3613 51.1289 27.7813 50.9423 28.332C50.7649 28.8733 50.6763 29.522 50.6763 30.278C50.6763 31.0247 50.7649 31.6733 50.9423 32.224C51.1289 32.7653 51.3903 33.1853 51.7263 33.484C52.0716 33.7827 52.4823 33.932 52.9583 33.932ZM62.8564 35.668C62.0257 35.668 61.2977 35.444 60.6724 34.996C60.0471 34.548 59.5571 33.918 59.2024 33.106C58.8571 32.294 58.6844 31.3513 58.6844 30.278C58.6844 29.1953 58.8571 28.2527 59.2024 27.45C59.5477 26.6473 60.0331 26.022 60.6584 25.574C61.2837 25.126 62.0117 24.902 62.8424 24.902C63.6917 24.902 64.4244 25.126 65.0404 25.574C65.6657 26.022 66.1557 26.652 66.5104 27.464C66.8651 28.2667 67.0424 29.2047 67.0424 30.278C67.0424 31.3513 66.8651 32.294 66.5104 33.106C66.1651 33.9087 65.6797 34.5387 65.0544 34.996C64.4291 35.444 63.6964 35.668 62.8564 35.668ZM62.8704 33.932C63.3464 33.932 63.7524 33.7873 64.0884 33.498C64.4244 33.1993 64.6811 32.7793 64.8584 32.238C65.0451 31.6873 65.1384 31.034 65.1384 30.278C65.1384 29.522 65.0451 28.8733 64.8584 28.332C64.6811 27.7813 64.4197 27.3613 64.0744 27.072C63.7384 26.7827 63.3277 26.638 62.8424 26.638C62.3757 26.638 61.9744 26.7827 61.6384 27.072C61.3024 27.3613 61.0411 27.7813 60.8544 28.332C60.6771 28.8733 60.5884 29.522 60.5884 30.278C60.5884 31.0247 60.6771 31.6733 60.8544 32.224C61.0411 32.7653 61.3024 33.1853 61.6384 33.484C61.9837 33.7827 62.3944 33.932 62.8704 33.932ZM69.2545 37.684V36.774C69.5625 36.6993 69.8098 36.5547 69.9965 36.34C70.1925 36.1347 70.3138 35.8547 70.3605 35.5H69.5345V33.54H71.3825V34.744C71.3825 35.5653 71.2005 36.2233 70.8365 36.718C70.4818 37.2127 69.9545 37.5347 69.2545 37.684ZM77.7724 35.668C76.9417 35.668 76.2137 35.444 75.5884 34.996C74.9631 34.548 74.4731 33.918 74.1184 33.106C73.7731 32.294 73.6004 31.3513 73.6004 30.278C73.6004 29.1953 73.7731 28.2527 74.1184 27.45C74.4637 26.6473 74.9491 26.022 75.5744 25.574C76.1997 25.126 76.9277 24.902 77.7584 24.902C78.6077 24.902 79.3404 25.126 79.9564 25.574C80.5817 26.022 81.0717 26.652 81.4264 27.464C81.7811 28.2667 81.9584 29.2047 81.9584 30.278C81.9584 31.3513 81.7811 32.294 81.4264 33.106C81.0811 33.9087 80.5957 34.5387 79.9704 34.996C79.3451 35.444 78.6124 35.668 77.7724 35.668ZM77.7864 33.932C78.2624 33.932 78.6684 33.7873 79.0044 33.498C79.3404 33.1993 79.5971 32.7793 79.7744 32.238C79.9611 31.6873 80.0544 31.034 80.0544 30.278C80.0544 29.522 79.9611 28.8733 79.7744 28.332C79.5971 27.7813 79.3357 27.3613 78.9904 27.072C78.6544 26.7827 78.2437 26.638 77.7584 26.638C77.2917 26.638 76.8904 26.7827 76.5544 27.072C76.2184 27.3613 75.9571 27.7813 75.7704 28.332C75.5931 28.8733 75.5044 29.522 75.5044 30.278C75.5044 31.0247 75.5931 31.6733 75.7704 32.224C75.9571 32.7653 76.2184 33.1853 76.5544 33.484C76.8997 33.7827 77.3104 33.932 77.7864 33.932ZM87.6845 35.668C86.8538 35.668 86.1258 35.444 85.5005 34.996C84.8752 34.548 84.3852 33.918 84.0305 33.106C83.6852 32.294 83.5125 31.3513 83.5125 30.278C83.5125 29.1953 83.6852 28.2527 84.0305 27.45C84.3758 26.6473 84.8612 26.022 85.4865 25.574C86.1118 25.126 86.8398 24.902 87.6705 24.902C88.5198 24.902 89.2525 25.126 89.8685 25.574C90.4938 26.022 90.9838 26.652 91.3385 27.464C91.6932 28.2667 91.8705 29.2047 91.8705 30.278C91.8705 31.3513 91.6932 32.294 91.3385 33.106C90.9932 33.9087 90.5078 34.5387 89.8825 34.996C89.2572 35.444 88.5245 35.668 87.6845 35.668ZM87.6985 33.932C88.1745 33.932 88.5805 33.7873 88.9165 33.498C89.2525 33.1993 89.5092 32.7793 89.6865 32.238C89.8732 31.6873 89.9665 31.034 89.9665 30.278C89.9665 29.522 89.8732 28.8733 89.6865 28.332C89.5092 27.7813 89.2478 27.3613 88.9025 27.072C88.5665 26.7827 88.1558 26.638 87.6705 26.638C87.2038 26.638 86.8025 26.7827 86.4665 27.072C86.1305 27.3613 85.8692 27.7813 85.6825 28.332C85.5052 28.8733 85.4165 29.522 85.4165 30.278C85.4165 31.0247 85.5052 31.6733 85.6825 32.224C85.8692 32.7653 86.1305 33.1853 86.4665 33.484C86.8118 33.7827 87.2225 33.932 87.6985 33.932ZM97.5966 35.668C96.766 35.668 96.038 35.444 95.4126 34.996C94.7873 34.548 94.2973 33.918 93.9426 33.106C93.5973 32.294 93.4246 31.3513 93.4246 30.278C93.4246 29.1953 93.5973 28.2527 93.9426 27.45C94.288 26.6473 94.7733 26.022 95.3986 25.574C96.024 25.126 96.752 24.902 97.5826 24.902C98.432 24.902 99.1646 25.126 99.7806 25.574C100.406 26.022 100.896 26.652 101.251 27.464C101.605 28.2667 101.783 29.2047 101.783 30.278C101.783 31.3513 101.605 32.294 101.251 33.106C100.905 33.9087 100.42 34.5387 99.7946 34.996C99.1693 35.444 98.4366 35.668 97.5966 35.668ZM97.6106 33.932C98.0866 33.932 98.4926 33.7873 98.8286 33.498C99.1646 33.1993 99.4213 32.7793 99.5986 32.238C99.7853 31.6873 99.8786 31.034 99.8786 30.278C99.8786 29.522 99.7853 28.8733 99.5986 28.332C99.4213 27.7813 99.16 27.3613 98.8146 27.072C98.4786 26.7827 98.068 26.638 97.5826 26.638C97.116 26.638 96.7146 26.7827 96.3786 27.072C96.0426 27.3613 95.7813 27.7813 95.5946 28.332C95.4173 28.8733 95.3286 29.522 95.3286 30.278C95.3286 31.0247 95.4173 31.6733 95.5946 32.224C95.7813 32.7653 96.0426 33.1853 96.3786 33.484C96.724 33.7827 97.1346 33.932 97.6106 33.932Z" fill="#E8604C"/>
<rect x="226.5" y="11.5" width="109" height="26" rx="13" fill="#E8604C"/>
<path d="M320 19.5C317.24 19.5 315 21.74 315 24.5C315 27.26 317.24 29.5 320 29.5C322.76 29.5 325 27.26 325 24.5C325 21.74 322.76 19.5 320 19.5ZM322.625 24.665C322.625 24.87 322.455 25.04 322.25 25.04C322.045 25.04 321.875 24.87 321.875 24.665V23.155L318.015 27.015C317.94 27.09 317.845 27.125 317.75 27.125C317.655 27.125 317.56 27.09 317.485 27.015C317.34 26.87 317.34 26.63 317.485 26.485L321.345 22.625H319.835C319.63 22.625 319.46 22.455 319.46 22.25C319.46 22.045 319.63 21.875 319.835 21.875H322.25C322.455 21.875 322.625 22.045 322.625 22.25V24.665Z" fill="white"/>
<path d="M237.28 24.7C237.28 24.1507 237.403 23.66 237.648 23.228C237.899 22.7907 238.237 22.452 238.664 22.212C239.096 21.9667 239.579 21.844 240.112 21.844C240.736 21.844 241.283 22.004 241.752 22.324C242.221 22.644 242.549 23.0867 242.736 23.652H241.448C241.32 23.3853 241.139 23.1853 240.904 23.052C240.675 22.9187 240.408 22.852 240.104 22.852C239.779 22.852 239.488 22.9293 239.232 23.084C238.981 23.2333 238.784 23.4467 238.64 23.724C238.501 24.0013 238.432 24.3267 238.432 24.7C238.432 25.068 238.501 25.3933 238.64 25.676C238.784 25.9533 238.981 26.1693 239.232 26.324C239.488 26.4733 239.779 26.548 240.104 26.548C240.408 26.548 240.675 26.4813 240.904 26.348C241.139 26.2093 241.32 26.0067 241.448 25.74H242.736C242.549 26.3107 242.221 26.756 241.752 27.076C241.288 27.3907 240.741 27.548 240.112 27.548C239.579 27.548 239.096 27.428 238.664 27.188C238.237 26.9427 237.899 26.604 237.648 26.172C237.403 25.74 237.28 25.2493 237.28 24.7ZM246.189 23.004C246.525 23.004 246.823 23.0787 247.085 23.228C247.346 23.372 247.549 23.588 247.693 23.876C247.842 24.1587 247.917 24.5 247.917 24.9V27.5H246.797V25.052C246.797 24.7 246.709 24.4307 246.533 24.244C246.357 24.052 246.117 23.956 245.813 23.956C245.503 23.956 245.258 24.052 245.077 24.244C244.901 24.4307 244.813 24.7 244.813 25.052V27.5H243.693V21.58H244.813V23.62C244.957 23.428 245.149 23.2787 245.389 23.172C245.629 23.06 245.895 23.004 246.189 23.004ZM253.102 25.188C253.102 25.348 253.091 25.492 253.07 25.62H249.83C249.856 25.94 249.968 26.1907 250.166 26.372C250.363 26.5533 250.606 26.644 250.894 26.644C251.31 26.644 251.606 26.4653 251.782 26.108H252.99C252.862 26.5347 252.616 26.8867 252.254 27.164C251.891 27.436 251.446 27.572 250.918 27.572C250.491 27.572 250.107 27.4787 249.766 27.292C249.43 27.1 249.166 26.8307 248.974 26.484C248.787 26.1373 248.694 25.7373 248.694 25.284C248.694 24.8253 248.787 24.4227 248.974 24.076C249.16 23.7293 249.422 23.4627 249.758 23.276C250.094 23.0893 250.48 22.996 250.918 22.996C251.339 22.996 251.715 23.0867 252.046 23.268C252.382 23.4493 252.64 23.708 252.822 24.044C253.008 24.3747 253.102 24.756 253.102 25.188ZM251.942 24.868C251.936 24.58 251.832 24.3507 251.63 24.18C251.427 24.004 251.179 23.916 250.886 23.916C250.608 23.916 250.374 24.0013 250.182 24.172C249.995 24.3373 249.88 24.5693 249.838 24.868H251.942ZM253.631 25.284C253.631 24.8253 253.725 24.4253 253.911 24.084C254.098 23.7373 254.357 23.4707 254.687 23.284C255.018 23.092 255.397 22.996 255.823 22.996C256.373 22.996 256.826 23.1347 257.183 23.412C257.546 23.684 257.789 24.068 257.911 24.564H256.703C256.639 24.372 256.53 24.2227 256.375 24.116C256.226 24.004 256.039 23.948 255.815 23.948C255.495 23.948 255.242 24.0653 255.055 24.3C254.869 24.5293 254.775 24.8573 254.775 25.284C254.775 25.7053 254.869 26.0333 255.055 26.268C255.242 26.4973 255.495 26.612 255.815 26.612C256.269 26.612 256.565 26.4093 256.703 26.004H257.911C257.789 26.484 257.546 26.8653 257.183 27.148C256.821 27.4307 256.367 27.572 255.823 27.572C255.397 27.572 255.018 27.4787 254.687 27.292C254.357 27.1 254.098 26.8333 253.911 26.492C253.725 26.1453 253.631 25.7427 253.631 25.284ZM261.356 27.5L259.852 25.612V27.5H258.732V21.58H259.852V24.948L261.34 23.068H262.796L260.844 25.292L262.812 27.5H261.356ZM268.734 26.436H266.51L266.142 27.5H264.966L266.974 21.908H268.278L270.286 27.5H269.102L268.734 26.436ZM268.43 25.54L267.622 23.204L266.814 25.54H268.43ZM272.884 26.468L274.004 23.068H275.196L273.556 27.5H272.196L270.564 23.068H271.764L272.884 26.468ZM275.537 25.268C275.537 24.82 275.625 24.4227 275.801 24.076C275.983 23.7293 276.225 23.4627 276.529 23.276C276.839 23.0893 277.183 22.996 277.561 22.996C277.892 22.996 278.18 23.0627 278.425 23.196C278.676 23.3293 278.876 23.4973 279.025 23.7V23.068H280.153V27.5H279.025V26.852C278.881 27.06 278.681 27.2333 278.425 27.372C278.175 27.5053 277.884 27.572 277.553 27.572C277.18 27.572 276.839 27.476 276.529 27.284C276.225 27.092 275.983 26.8227 275.801 26.476C275.625 26.124 275.537 25.7213 275.537 25.268ZM279.025 25.284C279.025 25.012 278.972 24.78 278.865 24.588C278.759 24.3907 278.615 24.2413 278.433 24.14C278.252 24.0333 278.057 23.98 277.849 23.98C277.641 23.98 277.449 24.0307 277.273 24.132C277.097 24.2333 276.953 24.3827 276.841 24.58C276.735 24.772 276.681 25.0013 276.681 25.268C276.681 25.5347 276.735 25.7693 276.841 25.972C276.953 26.1693 277.097 26.3213 277.273 26.428C277.455 26.5347 277.647 26.588 277.849 26.588C278.057 26.588 278.252 26.5373 278.433 26.436C278.615 26.3293 278.759 26.18 278.865 25.988C278.972 25.7907 279.025 25.556 279.025 25.284ZM281.815 22.54C281.618 22.54 281.453 22.4787 281.319 22.356C281.191 22.228 281.127 22.0707 281.127 21.884C281.127 21.6973 281.191 21.5427 281.319 21.42C281.453 21.292 281.618 21.228 281.815 21.228C282.013 21.228 282.175 21.292 282.303 21.42C282.437 21.5427 282.503 21.6973 282.503 21.884C282.503 22.0707 282.437 22.228 282.303 22.356C282.175 22.4787 282.013 22.54 281.815 22.54ZM282.367 23.068V27.5H281.247V23.068H282.367ZM284.594 21.58V27.5H283.474V21.58H284.594ZM285.412 25.268C285.412 24.82 285.5 24.4227 285.676 24.076C285.858 23.7293 286.1 23.4627 286.404 23.276C286.714 23.0893 287.058 22.996 287.436 22.996C287.767 22.996 288.055 23.0627 288.3 23.196C288.551 23.3293 288.751 23.4973 288.9 23.7V23.068H290.028V27.5H288.9V26.852C288.756 27.06 288.556 27.2333 288.3 27.372C288.05 27.5053 287.759 27.572 287.428 27.572C287.055 27.572 286.714 27.476 286.404 27.284C286.1 27.092 285.858 26.8227 285.676 26.476C285.5 26.124 285.412 25.7213 285.412 25.268ZM288.9 25.284C288.9 25.012 288.847 24.78 288.74 24.588C288.634 24.3907 288.49 24.2413 288.308 24.14C288.127 24.0333 287.932 23.98 287.724 23.98C287.516 23.98 287.324 24.0307 287.148 24.132C286.972 24.2333 286.828 24.3827 286.716 24.58C286.61 24.772 286.556 25.0013 286.556 25.268C286.556 25.5347 286.61 25.7693 286.716 25.972C286.828 26.1693 286.972 26.3213 287.148 26.428C287.33 26.5347 287.522 26.588 287.724 26.588C287.932 26.588 288.127 26.5373 288.308 26.436C288.49 26.3293 288.634 26.18 288.74 25.988C288.847 25.7907 288.9 25.556 288.9 25.284ZM292.242 23.716C292.386 23.5027 292.584 23.3293 292.834 23.196C293.09 23.0627 293.381 22.996 293.706 22.996C294.085 22.996 294.426 23.0893 294.73 23.276C295.04 23.4627 295.282 23.7293 295.458 24.076C295.64 24.4173 295.73 24.8147 295.73 25.268C295.73 25.7213 295.64 26.124 295.458 26.476C295.282 26.8227 295.04 27.092 294.73 27.284C294.426 27.476 294.085 27.572 293.706 27.572C293.376 27.572 293.085 27.508 292.834 27.38C292.589 27.2467 292.392 27.076 292.242 26.868V27.5H291.122V21.58H292.242V23.716ZM294.586 25.268C294.586 25.0013 294.53 24.772 294.418 24.58C294.312 24.3827 294.168 24.2333 293.986 24.132C293.81 24.0307 293.618 23.98 293.41 23.98C293.208 23.98 293.016 24.0333 292.834 24.14C292.658 24.2413 292.514 24.3907 292.402 24.588C292.296 24.7853 292.242 25.0173 292.242 25.284C292.242 25.5507 292.296 25.7827 292.402 25.98C292.514 26.1773 292.658 26.3293 292.834 26.436C293.016 26.5373 293.208 26.588 293.41 26.588C293.618 26.588 293.81 26.5347 293.986 26.428C294.168 26.3213 294.312 26.1693 294.418 25.972C294.53 25.7747 294.586 25.54 294.586 25.268ZM297.112 22.54C296.915 22.54 296.75 22.4787 296.616 22.356C296.488 22.228 296.424 22.0707 296.424 21.884C296.424 21.6973 296.488 21.5427 296.616 21.42C296.75 21.292 296.915 21.228 297.112 21.228C297.31 21.228 297.472 21.292 297.6 21.42C297.734 21.5427 297.8 21.6973 297.8 21.884C297.8 22.0707 297.734 22.228 297.6 22.356C297.472 22.4787 297.31 22.54 297.112 22.54ZM297.664 23.068V27.5H296.544V23.068H297.664ZM299.891 21.58V27.5H298.771V21.58H299.891ZM302.301 23.988V26.132C302.301 26.2813 302.336 26.3907 302.405 26.46C302.48 26.524 302.603 26.556 302.773 26.556H303.293V27.5H302.589C301.645 27.5 301.173 27.0413 301.173 26.124V23.988H300.645V23.068H301.173V21.972H302.301V23.068H303.293V23.988H302.301ZM308.339 23.068L305.595 29.596H304.403L305.363 27.388L303.587 23.068H304.843L305.987 26.164L307.147 23.068H308.339Z" fill="white"/>
</svg>
