<svg width="179" height="52" viewBox="0 0 179 52" fill="none" xmlns="http://www.w3.org/2000/svg">
<rect width="179" height="52" rx="26" fill="#E8604C"/>
<path d="M63.7475 26.4C63.7475 25.3013 63.9928 24.32 64.4835 23.456C64.9848 22.5813 65.6622 21.904 66.5155 21.424C67.3795 20.9333 68.3448 20.688 69.4115 20.688C70.6595 20.688 71.7528 21.008 72.6915 21.648C73.6302 22.288 74.2862 23.1733 74.6595 24.304H72.0835C71.8275 23.7707 71.4648 23.3707 70.9955 23.104C70.5368 22.8373 70.0035 22.704 69.3955 22.704C68.7448 22.704 68.1635 22.8587 67.6515 23.168C67.1502 23.4667 66.7555 23.8933 66.4675 24.448C66.1902 25.0027 66.0515 25.6533 66.0515 26.4C66.0515 27.136 66.1902 27.7867 66.4675 28.352C66.7555 28.9067 67.1502 29.3387 67.6515 29.648C68.1635 29.9467 68.7448 30.096 69.3955 30.096C70.0035 30.096 70.5368 29.9627 70.9955 29.696C71.4648 29.4187 71.8275 29.0133 72.0835 28.48H74.6595C74.2862 29.6213 73.6302 30.512 72.6915 31.152C71.7635 31.7813 70.6702 32.096 69.4115 32.096C68.3448 32.096 67.3795 31.856 66.5155 31.376C65.6622 30.8853 64.9848 30.208 64.4835 29.344C63.9928 28.48 63.7475 27.4987 63.7475 26.4ZM80.5088 32.144C79.6554 32.144 78.8874 31.9573 78.2048 31.584C77.5221 31.2 76.9834 30.6613 76.5888 29.968C76.2048 29.2747 76.0128 28.4747 76.0128 27.568C76.0128 26.6613 76.2101 25.8613 76.6048 25.168C77.0101 24.4747 77.5594 23.9413 78.2528 23.568C78.9461 23.184 79.7194 22.992 80.5728 22.992C81.4261 22.992 82.1994 23.184 82.8928 23.568C83.5861 23.9413 84.1301 24.4747 84.5248 25.168C84.9301 25.8613 85.1328 26.6613 85.1328 27.568C85.1328 28.4747 84.9248 29.2747 84.5087 29.968C84.1034 30.6613 83.5488 31.2 82.8448 31.584C82.1514 31.9573 81.3728 32.144 80.5088 32.144ZM80.5088 30.192C80.9141 30.192 81.2928 30.096 81.6448 29.904C82.0074 29.7013 82.2954 29.4027 82.5088 29.008C82.7221 28.6133 82.8288 28.1333 82.8288 27.568C82.8288 26.7253 82.6048 26.08 82.1568 25.632C81.7194 25.1733 81.1808 24.944 80.5408 24.944C79.9008 24.944 79.3621 25.1733 78.9248 25.632C78.4981 26.08 78.2848 26.7253 78.2848 27.568C78.2848 28.4107 78.4928 29.0613 78.9088 29.52C79.3354 29.968 79.8688 30.192 80.5088 30.192ZM91.6879 23.008C92.7439 23.008 93.5972 23.344 94.2479 24.016C94.8985 24.6773 95.2239 25.6053 95.2239 26.8V32H92.9839V27.104C92.9839 26.4 92.8079 25.8613 92.4559 25.488C92.1039 25.104 91.6239 24.912 91.0159 24.912C90.3972 24.912 89.9065 25.104 89.5439 25.488C89.1919 25.8613 89.0159 26.4 89.0159 27.104V32H86.7759V23.136H89.0159V24.24C89.3145 23.856 89.6932 23.5573 90.1519 23.344C90.6212 23.12 91.1332 23.008 91.6879 23.008ZM99.962 24.976V29.264C99.962 29.5627 100.031 29.7813 100.17 29.92C100.319 30.048 100.565 30.112 100.906 30.112H101.946V32H100.538C98.65 32 97.706 31.0827 97.706 29.248V24.976H96.65V23.136H97.706V20.944H99.962V23.136H101.946V24.976H99.962ZM102.981 27.536C102.981 26.64 103.157 25.8453 103.509 25.152C103.872 24.4587 104.357 23.9253 104.965 23.552C105.584 23.1787 106.272 22.992 107.029 22.992C107.69 22.992 108.266 23.1253 108.757 23.392C109.258 23.6587 109.658 23.9947 109.957 24.4V23.136H112.213V32H109.957V30.704C109.669 31.12 109.269 31.4667 108.757 31.744C108.256 32.0107 107.674 32.144 107.013 32.144C106.266 32.144 105.584 31.952 104.965 31.568C104.357 31.184 103.872 30.6453 103.509 29.952C103.157 29.248 102.981 28.4427 102.981 27.536ZM109.957 27.568C109.957 27.024 109.85 26.56 109.637 26.176C109.424 25.7813 109.136 25.4827 108.773 25.28C108.41 25.0667 108.021 24.96 107.605 24.96C107.189 24.96 106.805 25.0613 106.453 25.264C106.101 25.4667 105.813 25.7653 105.589 26.16C105.376 26.544 105.269 27.0027 105.269 27.536C105.269 28.0693 105.376 28.5387 105.589 28.944C105.813 29.3387 106.101 29.6427 106.453 29.856C106.816 30.0693 107.2 30.176 107.605 30.176C108.021 30.176 108.41 30.0747 108.773 29.872C109.136 29.6587 109.424 29.36 109.637 28.976C109.85 28.5813 109.957 28.112 109.957 27.568ZM113.825 27.568C113.825 26.6507 114.012 25.8507 114.385 25.168C114.758 24.4747 115.276 23.9413 115.937 23.568C116.598 23.184 117.356 22.992 118.209 22.992C119.308 22.992 120.214 23.2693 120.929 23.824C121.654 24.368 122.14 25.136 122.385 26.128H119.969C119.841 25.744 119.622 25.4453 119.313 25.232C119.014 25.008 118.641 24.896 118.193 24.896C117.553 24.896 117.046 25.1307 116.673 25.6C116.3 26.0587 116.113 26.7147 116.113 27.568C116.113 28.4107 116.3 29.0667 116.673 29.536C117.046 29.9947 117.553 30.224 118.193 30.224C119.1 30.224 119.692 29.8187 119.969 29.008H122.385C122.14 29.968 121.654 30.7307 120.929 31.296C120.204 31.8613 119.297 32.144 118.209 32.144C117.356 32.144 116.598 31.9573 115.937 31.584C115.276 31.2 114.758 30.6667 114.385 29.984C114.012 29.2907 113.825 28.4853 113.825 27.568ZM126.634 24.976V29.264C126.634 29.5627 126.703 29.7813 126.842 29.92C126.991 30.048 127.237 30.112 127.578 30.112H128.618V32H127.21C125.322 32 124.378 31.0827 124.378 29.248V24.976H123.322V23.136H124.378V20.944H126.634V23.136H128.618V24.976H126.634ZM136.25 20.832V27.744C136.25 28.5013 136.447 29.0827 136.842 29.488C137.236 29.8827 137.791 30.08 138.506 30.08C139.231 30.08 139.791 29.8827 140.186 29.488C140.58 29.0827 140.778 28.5013 140.778 27.744V20.832H143.034V27.728C143.034 28.6773 142.826 29.4827 142.41 30.144C142.004 30.7947 141.455 31.2853 140.762 31.616C140.079 31.9467 139.316 32.112 138.474 32.112C137.642 32.112 136.884 31.9467 136.202 31.616C135.53 31.2853 134.996 30.7947 134.602 30.144C134.207 29.4827 134.01 28.6773 134.01 27.728V20.832H136.25ZM148.59 32.144C147.864 32.144 147.214 32.016 146.638 31.76C146.062 31.4933 145.603 31.136 145.262 30.688C144.931 30.24 144.75 29.744 144.718 29.2H146.974C147.016 29.5413 147.182 29.824 147.47 30.048C147.768 30.272 148.136 30.384 148.574 30.384C149 30.384 149.331 30.2987 149.566 30.128C149.811 29.9573 149.934 29.7387 149.934 29.472C149.934 29.184 149.784 28.9707 149.486 28.832C149.198 28.6827 148.734 28.5227 148.094 28.352C147.432 28.192 146.888 28.0267 146.462 27.856C146.046 27.6853 145.683 27.424 145.374 27.072C145.075 26.72 144.926 26.2453 144.926 25.648C144.926 25.1573 145.064 24.7093 145.342 24.304C145.63 23.8987 146.035 23.5787 146.558 23.344C147.091 23.1093 147.715 22.992 148.43 22.992C149.486 22.992 150.328 23.2587 150.958 23.792C151.587 24.3147 151.934 25.024 151.998 25.92H149.854C149.822 25.568 149.672 25.2907 149.406 25.088C149.15 24.8747 148.803 24.768 148.366 24.768C147.96 24.768 147.646 24.8427 147.422 24.992C147.208 25.1413 147.102 25.3493 147.102 25.616C147.102 25.9147 147.251 26.144 147.55 26.304C147.848 26.4533 148.312 26.608 148.942 26.768C149.582 26.928 150.11 27.0933 150.526 27.264C150.942 27.4347 151.299 27.7013 151.598 28.064C151.907 28.416 152.067 28.8853 152.078 29.472C152.078 29.984 151.934 30.4427 151.646 30.848C151.368 31.2533 150.963 31.5733 150.43 31.808C149.907 32.032 149.294 32.144 148.59 32.144Z" fill="white"/>
<path d="M43 17.5H33C30 17.5 28 19 28 22.5V29.5C28 33 30 34.5 33 34.5H43C46 34.5 48 33 48 29.5V22.5C48 19 46 17.5 43 17.5ZM43.47 23.59L40.34 26.09C39.68 26.62 38.84 26.88 38 26.88C37.16 26.88 36.31 26.62 35.66 26.09L32.53 23.59C32.21 23.33 32.16 22.85 32.41 22.53C32.67 22.21 33.14 22.15 33.46 22.41L36.59 24.91C37.35 25.52 38.64 25.52 39.4 24.91L42.53 22.41C42.85 22.15 43.33 22.2 43.58 22.53C43.84 22.85 43.79 23.33 43.47 23.59Z" fill="white"/>
</svg>
