<svg width="179" height="52" viewBox="0 0 179 52" fill="none" xmlns="http://www.w3.org/2000/svg">
<rect width="179" height="52" rx="26" fill="#E8604C"/>
<path d="M63.7752 32L59.7112 27.024V32H57.4712V20.832H59.7112V25.84L63.7752 20.832H66.4792L61.8712 26.368L66.6072 32H63.7752ZM72.0166 32.144C71.1632 32.144 70.3952 31.9573 69.7126 31.584C69.0299 31.2 68.4912 30.6613 68.0966 29.968C67.7126 29.2747 67.5206 28.4747 67.5206 27.568C67.5206 26.6613 67.7179 25.8613 68.1126 25.168C68.5179 24.4747 69.0672 23.9413 69.7606 23.568C70.4539 23.184 71.2272 22.992 72.0806 22.992C72.9339 22.992 73.7072 23.184 74.4006 23.568C75.0939 23.9413 75.6379 24.4747 76.0326 25.168C76.4379 25.8613 76.6406 26.6613 76.6406 27.568C76.6406 28.4747 76.4326 29.2747 76.0166 29.968C75.6112 30.6613 75.0566 31.2 74.3526 31.584C73.6592 31.9573 72.8806 32.144 72.0166 32.144ZM72.0166 30.192C72.4219 30.192 72.8006 30.096 73.1526 29.904C73.5152 29.7013 73.8032 29.4027 74.0166 29.008C74.2299 28.6133 74.3366 28.1333 74.3366 27.568C74.3366 26.7253 74.1126 26.08 73.6646 25.632C73.2272 25.1733 72.6886 24.944 72.0486 24.944C71.4086 24.944 70.8699 25.1733 70.4326 25.632C70.0059 26.08 69.7926 26.7253 69.7926 27.568C69.7926 28.4107 70.0006 29.0613 70.4166 29.52C70.8432 29.968 71.3766 30.192 72.0166 30.192ZM83.1957 23.008C84.2517 23.008 85.105 23.344 85.7557 24.016C86.4064 24.6773 86.7317 25.6053 86.7317 26.8V32H84.4917V27.104C84.4917 26.4 84.3157 25.8613 83.9637 25.488C83.6117 25.104 83.1317 24.912 82.5237 24.912C81.905 24.912 81.4144 25.104 81.0517 25.488C80.6997 25.8613 80.5237 26.4 80.5237 27.104V32H78.2837V23.136H80.5237V24.24C80.8224 23.856 81.201 23.5573 81.6597 23.344C82.129 23.12 82.641 23.008 83.1957 23.008ZM91.4698 24.976V29.264C91.4698 29.5627 91.5391 29.7813 91.6778 29.92C91.8271 30.048 92.0725 30.112 92.4138 30.112H93.4538V32H92.0458C90.1578 32 89.2138 31.0827 89.2138 29.248V24.976H88.1578V23.136H89.2138V20.944H91.4698V23.136H93.4538V24.976H91.4698ZM94.4889 27.536C94.4889 26.64 94.6649 25.8453 95.0169 25.152C95.3796 24.4587 95.8649 23.9253 96.4729 23.552C97.0916 23.1787 97.7796 22.992 98.5369 22.992C99.1983 22.992 99.7743 23.1253 100.265 23.392C100.766 23.6587 101.166 23.9947 101.465 24.4V23.136H103.721V32H101.465V30.704C101.177 31.12 100.777 31.4667 100.265 31.744C99.7636 32.0107 99.1823 32.144 98.5209 32.144C97.7743 32.144 97.0916 31.952 96.4729 31.568C95.8649 31.184 95.3796 30.6453 95.0169 29.952C94.6649 29.248 94.4889 28.4427 94.4889 27.536ZM101.465 27.568C101.465 27.024 101.358 26.56 101.145 26.176C100.932 25.7813 100.644 25.4827 100.281 25.28C99.9183 25.0667 99.5289 24.96 99.1129 24.96C98.6969 24.96 98.3129 25.0613 97.9609 25.264C97.6089 25.4667 97.3209 25.7653 97.0969 26.16C96.8836 26.544 96.7769 27.0027 96.7769 27.536C96.7769 28.0693 96.8836 28.5387 97.0969 28.944C97.3209 29.3387 97.6089 29.6427 97.9609 29.856C98.3236 30.0693 98.7076 30.176 99.1129 30.176C99.5289 30.176 99.9183 30.0747 100.281 29.872C100.644 29.6587 100.932 29.36 101.145 28.976C101.358 28.5813 101.465 28.112 101.465 27.568ZM111.157 32L108.149 28.224V32H105.909V20.16H108.149V26.896L111.125 23.136H114.037L110.133 27.584L114.069 32H111.157ZM125.369 32L121.305 27.024V32H119.065V20.832H121.305V25.84L125.369 20.832H128.073L123.465 26.368L128.201 32H125.369ZM129.098 27.536C129.098 26.64 129.274 25.8453 129.626 25.152C129.989 24.4587 130.474 23.9253 131.082 23.552C131.701 23.1787 132.389 22.992 133.146 22.992C133.808 22.992 134.384 23.1253 134.874 23.392C135.376 23.6587 135.776 23.9947 136.074 24.4V23.136H138.33V32H136.074V30.704C135.786 31.12 135.386 31.4667 134.874 31.744C134.373 32.0107 133.792 32.144 133.13 32.144C132.384 32.144 131.701 31.952 131.082 31.568C130.474 31.184 129.989 30.6453 129.626 29.952C129.274 29.248 129.098 28.4427 129.098 27.536ZM136.074 27.568C136.074 27.024 135.968 26.56 135.754 26.176C135.541 25.7813 135.253 25.4827 134.89 25.28C134.528 25.0667 134.138 24.96 133.722 24.96C133.306 24.96 132.922 25.0613 132.57 25.264C132.218 25.4667 131.93 25.7653 131.706 26.16C131.493 26.544 131.386 27.0027 131.386 27.536C131.386 28.0693 131.493 28.5387 131.706 28.944C131.93 29.3387 132.218 29.6427 132.57 29.856C132.933 30.0693 133.317 30.176 133.722 30.176C134.138 30.176 134.528 30.0747 134.89 29.872C135.253 29.6587 135.541 29.36 135.754 28.976C135.968 28.5813 136.074 28.112 136.074 27.568ZM151.526 23.008C152.614 23.008 153.489 23.344 154.15 24.016C154.822 24.6773 155.158 25.6053 155.158 26.8V32H152.918V27.104C152.918 26.4107 152.742 25.8827 152.39 25.52C152.038 25.1467 151.558 24.96 150.95 24.96C150.342 24.96 149.857 25.1467 149.494 25.52C149.142 25.8827 148.966 26.4107 148.966 27.104V32H146.726V27.104C146.726 26.4107 146.55 25.8827 146.198 25.52C145.846 25.1467 145.366 24.96 144.758 24.96C144.139 24.96 143.649 25.1467 143.286 25.52C142.934 25.8827 142.758 26.4107 142.758 27.104V32H140.518V23.136H142.758V24.208C143.046 23.8347 143.414 23.5413 143.862 23.328C144.321 23.1147 144.822 23.008 145.366 23.008C146.059 23.008 146.678 23.1573 147.222 23.456C147.766 23.744 148.187 24.16 148.486 24.704C148.774 24.192 149.19 23.7813 149.734 23.472C150.289 23.1627 150.886 23.008 151.526 23.008ZM158.42 22.08C158.025 22.08 157.694 21.9573 157.428 21.712C157.172 21.456 157.044 21.1413 157.044 20.768C157.044 20.3947 157.172 20.0853 157.428 19.84C157.694 19.584 158.025 19.456 158.42 19.456C158.814 19.456 159.14 19.584 159.396 19.84C159.662 20.0853 159.796 20.3947 159.796 20.768C159.796 21.1413 159.662 21.456 159.396 21.712C159.14 21.9573 158.814 22.08 158.42 22.08ZM159.524 23.136V32H157.284V23.136H159.524Z" fill="white"/>
<path d="M38 17.5H28C25 17.5 23 19 23 22.5V29.5C23 33 25 34.5 28 34.5H38C41 34.5 43 33 43 29.5V22.5C43 19 41 17.5 38 17.5ZM38.47 23.59L35.34 26.09C34.68 26.62 33.84 26.88 33 26.88C32.16 26.88 31.31 26.62 30.66 26.09L27.53 23.59C27.21 23.33 27.16 22.85 27.41 22.53C27.67 22.21 28.14 22.15 28.46 22.41L31.59 24.91C32.35 25.52 33.64 25.52 34.4 24.91L37.53 22.41C37.85 22.15 38.33 22.2 38.58 22.53C38.84 22.85 38.79 23.33 38.47 23.59Z" fill="white"/>
</svg>
