<svg width="30" height="57" viewBox="0 0 30 57" fill="none" xmlns="http://www.w3.org/2000/svg">
<g clip-path="url(#clip0_161_2262)">
<path d="M15 5.625C15.2486 5.625 15.4871 5.72377 15.6629 5.89959C15.8387 6.0754 15.9375 6.31386 15.9375 6.5625V10.3125C15.9375 10.5611 15.8387 10.7996 15.6629 10.9754C15.4871 11.1512 15.2486 11.25 15 11.25C14.7514 11.25 14.5129 11.1512 14.3371 10.9754C14.1613 10.7996 14.0625 10.5611 14.0625 10.3125V6.5625C14.0625 6.31386 14.1613 6.0754 14.3371 5.89959C14.5129 5.72377 14.7514 5.625 15 5.625ZM22.5 20.625C22.5 22.6141 21.7098 24.5218 20.3033 25.9283C18.8968 27.3348 16.9891 28.125 15 28.125C13.0109 28.125 11.1032 27.3348 9.6967 25.9283C8.29018 24.5218 7.5 22.6141 7.5 20.625V9.375C7.5 7.38588 8.29018 5.47822 9.6967 4.0717C11.1032 2.66518 13.0109 1.875 15 1.875C16.9891 1.875 18.8968 2.66518 20.3033 4.0717C21.7098 5.47822 22.5 7.38588 22.5 9.375V20.625ZM15 0C12.5136 0 10.129 0.98772 8.37087 2.74587C6.61272 4.50403 5.625 6.8886 5.625 9.375V20.625C5.625 23.1114 6.61272 25.496 8.37087 27.2541C10.129 29.0123 12.5136 30 15 30C17.4864 30 19.871 29.0123 21.6291 27.2541C23.3873 25.496 24.375 23.1114 24.375 20.625V9.375C24.375 6.8886 23.3873 4.50403 21.6291 2.74587C19.871 0.98772 17.4864 0 15 0Z" fill="white"/>
</g>
<path fill-rule="evenodd" clip-rule="evenodd" d="M7.05764 45.3074C7.1157 45.2492 7.18467 45.203 7.2606 45.1715C7.33653 45.14 7.41793 45.1238 7.50014 45.1238C7.58235 45.1238 7.66375 45.14 7.73968 45.1715C7.81561 45.203 7.88458 45.2492 7.94264 45.3074L15.0001 52.3661L22.0576 45.3074C22.175 45.19 22.3342 45.1241 22.5001 45.1241C22.6661 45.1241 22.8253 45.19 22.9426 45.3074C23.06 45.4248 23.1259 45.5839 23.1259 45.7499C23.1259 45.9159 23.06 46.075 22.9426 46.1924L15.4426 53.6924C15.3846 53.7506 15.3156 53.7968 15.2397 53.8283C15.1638 53.8598 15.0823 53.876 15.0001 53.876C14.9179 53.876 14.8365 53.8598 14.7606 53.8283C14.6847 53.7968 14.6157 53.7506 14.5576 53.6924L7.05764 46.1924C6.99944 46.1343 6.95326 46.0654 6.92175 45.9894C6.89024 45.9135 6.87402 45.8321 6.87402 45.7499C6.87402 45.6677 6.89024 45.5863 6.92175 45.5104C6.95326 45.4344 6.99944 45.3655 7.05764 45.3074Z" fill="white"/>
<path fill-rule="evenodd" clip-rule="evenodd" d="M7.05764 40.3074C7.1157 40.2492 7.18467 40.203 7.2606 40.1715C7.33653 40.14 7.41793 40.1238 7.50014 40.1238C7.58235 40.1238 7.66375 40.14 7.73968 40.1715C7.81561 40.203 7.88458 40.2492 7.94264 40.3074L15.0001 47.3661L22.0576 40.3074C22.1158 40.2493 22.1847 40.2032 22.2607 40.1717C22.3366 40.1403 22.418 40.1241 22.5001 40.1241C22.5823 40.1241 22.6637 40.1403 22.7396 40.1717C22.8155 40.2032 22.8845 40.2493 22.9426 40.3074C23.0007 40.3655 23.0468 40.4345 23.0783 40.5104C23.1097 40.5863 23.1259 40.6677 23.1259 40.7499C23.1259 40.8321 23.1097 40.9135 23.0783 40.9894C23.0468 41.0653 23.0007 41.1343 22.9426 41.1924L15.4426 48.6924C15.3846 48.7506 15.3156 48.7968 15.2397 48.8283C15.1638 48.8598 15.0823 48.876 15.0001 48.876C14.9179 48.876 14.8365 48.8598 14.7606 48.8283C14.6847 48.7968 14.6157 48.7506 14.5576 48.6924L7.05764 41.1924C6.99944 41.1343 6.95326 41.0654 6.92175 40.9894C6.89024 40.9135 6.87402 40.8321 6.87402 40.7499C6.87402 40.6677 6.89024 40.5863 6.92175 40.5104C6.95326 40.4344 6.99944 40.3655 7.05764 40.3074Z" fill="white"/>
<defs>
<clipPath id="clip0_161_2262">
<rect width="30" height="30" fill="white"/>
</clipPath>
</defs>
</svg>
