<svg width="322" height="27" viewBox="0 0 322 27" fill="none" xmlns="http://www.w3.org/2000/svg">
<path d="M32.69 9.55762V5.67541H31.4912V4.93002H34.7212V5.67541H33.541V9.55762H32.69ZM35.8232 9.63216C35.5872 9.63216 35.3822 9.59282 35.2083 9.51414C35.0344 9.43546 34.8998 9.32365 34.8045 9.17871C34.7093 9.02964 34.6617 8.85778 34.6617 8.66316C34.6617 8.47681 34.7031 8.31117 34.7859 8.16623C34.8687 8.01716 34.9971 7.89292 35.171 7.79354C35.345 7.69416 35.5644 7.62376 35.8295 7.58235L36.9351 7.40221V8.02337L35.9847 8.18487C35.8232 8.21385 35.7032 8.26562 35.6245 8.34016C35.5458 8.41469 35.5065 8.51201 35.5065 8.6321C35.5065 8.74805 35.5499 8.84122 35.6369 8.91162C35.728 8.97787 35.8398 9.011 35.9723 9.011C36.1421 9.011 36.2912 8.9758 36.4195 8.90541C36.5521 8.83087 36.6535 8.72941 36.7239 8.60104C36.7985 8.47267 36.8357 8.33187 36.8357 8.17866V7.30904C36.8357 7.1641 36.7777 7.04401 36.6618 6.94877C36.55 6.84939 36.4009 6.79969 36.2146 6.79969C36.0406 6.79969 35.8854 6.84732 35.7487 6.94256C35.6162 7.03366 35.5189 7.15582 35.4568 7.30904L34.7921 6.98604C34.8584 6.80798 34.9619 6.65476 35.1027 6.52639C35.2476 6.39387 35.4174 6.29035 35.612 6.21581C35.8067 6.14127 36.0179 6.104 36.2456 6.104C36.5231 6.104 36.7674 6.15576 36.9786 6.25929C37.1898 6.35867 37.3534 6.49947 37.4693 6.68167C37.5894 6.85974 37.6494 7.06886 37.6494 7.30904V9.55762H36.8792V8.97994L37.0531 8.96752C36.9662 9.11246 36.8626 9.23462 36.7425 9.334C36.6225 9.42925 36.4858 9.50378 36.3326 9.55762C36.1794 9.60731 36.0096 9.63216 35.8232 9.63216ZM38.4015 9.55762V4.85548H39.2152V6.84317L39.1034 6.72516C39.1821 6.52225 39.3105 6.36903 39.4885 6.2655C39.6707 6.15783 39.8819 6.104 40.1221 6.104C40.3706 6.104 40.59 6.15783 40.7805 6.2655C40.9752 6.37317 41.1263 6.52432 41.234 6.71894C41.3416 6.90943 41.3955 7.13098 41.3955 7.38358V9.55762H40.5818V7.57614C40.5818 7.42706 40.5528 7.29869 40.4948 7.19102C40.4368 7.08335 40.3561 7.00053 40.2526 6.94256C40.1532 6.88044 40.0351 6.84939 39.8985 6.84939C39.766 6.84939 39.648 6.88044 39.5444 6.94256C39.4409 7.00053 39.3602 7.08335 39.3022 7.19102C39.2442 7.29869 39.2152 7.42706 39.2152 7.57614V9.55762H38.4015ZM43.2886 9.63216C43.0277 9.63216 42.7999 9.57418 42.6053 9.45823C42.4148 9.34228 42.2678 9.18078 42.1643 8.97373C42.0649 8.76668 42.0152 8.52443 42.0152 8.24698V6.17854H42.8289V8.17866C42.8289 8.31945 42.8559 8.44368 42.9097 8.55135C42.9677 8.65487 43.0484 8.73769 43.1519 8.79981C43.2596 8.85778 43.3797 8.88677 43.5122 8.88677C43.6447 8.88677 43.7627 8.85778 43.8663 8.79981C43.9698 8.73769 44.0505 8.6528 44.1085 8.54514C44.1665 8.43747 44.1955 8.3091 44.1955 8.16002V6.17854H45.0092V9.55762H44.239V8.89298L44.3073 9.011C44.2286 9.21805 44.0982 9.37334 43.916 9.47687C43.7379 9.58039 43.5288 9.63216 43.2886 9.63216ZM45.7656 9.55762V6.17854H46.5296V6.84317L46.4675 6.72516C46.5462 6.52225 46.6745 6.36903 46.8526 6.2655C47.0348 6.15783 47.246 6.104 47.4862 6.104C47.7346 6.104 47.9541 6.15783 48.1446 6.2655C48.3392 6.37317 48.4904 6.52432 48.598 6.71894C48.7057 6.90943 48.7595 7.13098 48.7595 7.38358V9.55762H47.9458V7.57614C47.9458 7.42706 47.9168 7.29869 47.8589 7.19102C47.8009 7.08335 47.7201 7.00053 47.6166 6.94256C47.5172 6.88044 47.3992 6.84939 47.2626 6.84939C47.1301 6.84939 47.012 6.88044 46.9085 6.94256C46.805 7.00053 46.7242 7.08335 46.6663 7.19102C46.6083 7.29869 46.5793 7.42706 46.5793 7.57614V9.55762H45.7656ZM31.8701 17.5576V12.93H33.5969C33.9116 12.93 34.1891 12.988 34.4292 13.1039C34.6736 13.2158 34.864 13.3814 35.0007 13.6009C35.1374 13.8162 35.2057 14.0792 35.2057 14.3897C35.2057 14.6962 35.1353 14.9591 34.9945 15.1786C34.8578 15.3939 34.6694 15.5596 34.4292 15.6755C34.1891 15.7915 33.9116 15.8494 33.5969 15.8494H32.7149V17.5576H31.8701ZM32.7149 15.1041H33.6093C33.7625 15.1041 33.895 15.0751 34.0069 15.0171C34.1187 14.955 34.2056 14.8701 34.2677 14.7624C34.3299 14.6548 34.3609 14.5305 34.3609 14.3897C34.3609 14.2448 34.3299 14.1206 34.2677 14.017C34.2056 13.9094 34.1187 13.8266 34.0069 13.7686C33.895 13.7065 33.7625 13.6754 33.6093 13.6754H32.7149V15.1041ZM37.3108 17.6322C36.963 17.6322 36.6586 17.5535 36.3977 17.3961C36.1368 17.2388 35.9339 17.0255 35.789 16.7563C35.644 16.4872 35.5716 16.189 35.5716 15.8619C35.5716 15.5223 35.644 15.2221 35.789 14.9612C35.9381 14.6962 36.1389 14.487 36.3915 14.3338C36.6482 14.1806 36.934 14.104 37.2487 14.104C37.5137 14.104 37.7456 14.1475 37.9444 14.2344C38.1473 14.3214 38.3191 14.4415 38.4599 14.5947C38.6007 14.7479 38.7084 14.9239 38.7829 15.1227C38.8575 15.3173 38.8947 15.5285 38.8947 15.7563C38.8947 15.8142 38.8906 15.8743 38.8823 15.9364C38.8782 15.9985 38.8678 16.0524 38.8513 16.0979H36.2424V15.4768H38.3916L38.0065 15.7687C38.0438 15.5782 38.0334 15.4084 37.9754 15.2593C37.9216 15.1103 37.8305 14.9923 37.7021 14.9053C37.5779 14.8183 37.4268 14.7748 37.2487 14.7748C37.0789 14.7748 36.9278 14.8183 36.7953 14.9053C36.6627 14.9881 36.5613 15.1123 36.4909 15.278C36.4246 15.4395 36.3998 15.6362 36.4163 15.8681C36.3998 16.0751 36.4267 16.2594 36.4971 16.4209C36.5716 16.5783 36.6793 16.7004 36.8201 16.7874C36.965 16.8743 37.1307 16.9178 37.317 16.9178C37.5034 16.9178 37.6607 16.8785 37.7891 16.7998C37.9216 16.7211 38.0251 16.6155 38.0997 16.483L38.7581 16.806C38.6918 16.9675 38.5883 17.1104 38.4475 17.2346C38.3067 17.3588 38.139 17.4562 37.9444 17.5266C37.7539 17.597 37.5427 17.6322 37.3108 17.6322ZM39.5116 17.5576V14.1785H40.2756V14.8432L40.2135 14.7252C40.2922 14.5222 40.4205 14.369 40.5986 14.2655C40.7808 14.1578 40.992 14.104 41.2322 14.104C41.4806 14.104 41.7001 14.1578 41.8906 14.2655C42.0852 14.3732 42.2364 14.5243 42.344 14.7189C42.4517 14.9094 42.5055 15.131 42.5055 15.3836V17.5576H41.6918V15.5761C41.6918 15.4271 41.6628 15.2987 41.6049 15.191C41.5469 15.0834 41.4661 15.0005 41.3626 14.9426C41.2632 14.8804 41.1452 14.8494 41.0086 14.8494C40.8761 14.8494 40.758 14.8804 40.6545 14.9426C40.551 15.0005 40.4702 15.0834 40.4123 15.191C40.3543 15.2987 40.3253 15.4271 40.3253 15.5761V17.5576H39.5116ZM44.8335 18.9242C44.5809 18.9242 44.3469 18.8827 44.1316 18.7999C43.9162 18.7171 43.7299 18.6012 43.5725 18.4521C43.4193 18.3071 43.3075 18.1353 43.2371 17.9365L43.9949 17.6508C44.0446 17.8081 44.1419 17.9345 44.2869 18.0297C44.4359 18.1291 44.6181 18.1788 44.8335 18.1788C44.9991 18.1788 45.144 18.1477 45.2683 18.0856C45.3966 18.0235 45.496 17.9324 45.5664 17.8123C45.6368 17.6963 45.672 17.5555 45.672 17.3899V16.6197L45.8273 16.806C45.7114 17.0089 45.5561 17.1621 45.3614 17.2657C45.1668 17.3692 44.9453 17.421 44.6968 17.421C44.3821 17.421 44.1005 17.3485 43.852 17.2036C43.6036 17.0586 43.409 16.8599 43.2682 16.6073C43.1274 16.3546 43.057 16.071 43.057 15.7563C43.057 15.4374 43.1274 15.1538 43.2682 14.9053C43.409 14.6568 43.6015 14.4622 43.8458 14.3214C44.0902 14.1765 44.3676 14.104 44.6782 14.104C44.9308 14.104 45.1523 14.1578 45.3428 14.2655C45.5374 14.369 45.6989 14.5202 45.8273 14.7189L45.7155 14.9239V14.1785H46.4857V17.3899C46.4857 17.6839 46.4133 17.9469 46.2683 18.1788C46.1275 18.4107 45.9329 18.5929 45.6844 18.7254C45.4401 18.8579 45.1565 18.9242 44.8335 18.9242ZM44.7962 16.6694C44.9701 16.6694 45.1213 16.6321 45.2496 16.5576C45.3822 16.4789 45.4857 16.3712 45.5602 16.2346C45.6348 16.0979 45.672 15.9405 45.672 15.7625C45.672 15.5886 45.6327 15.4333 45.554 15.2966C45.4795 15.1558 45.3759 15.0461 45.2434 14.9674C45.1151 14.8887 44.966 14.8494 44.7962 14.8494C44.6264 14.8494 44.4732 14.8887 44.3365 14.9674C44.1999 15.0461 44.0922 15.1558 44.0135 15.2966C43.939 15.4333 43.9017 15.5886 43.9017 15.7625C43.9017 15.9364 43.939 16.0917 44.0135 16.2283C44.0922 16.365 44.1978 16.4727 44.3303 16.5513C44.467 16.63 44.6223 16.6694 44.7962 16.6694ZM48.2706 17.6322C48.0345 17.6322 47.8296 17.5928 47.6556 17.5141C47.4817 17.4355 47.3471 17.3236 47.2519 17.1787C47.1566 17.0296 47.109 16.8578 47.109 16.6632C47.109 16.4768 47.1504 16.3112 47.2333 16.1662C47.3161 16.0172 47.4444 15.8929 47.6184 15.7935C47.7923 15.6942 48.0118 15.6238 48.2768 15.5823L49.3824 15.4022V16.0234L48.4321 16.1849C48.2706 16.2139 48.1505 16.2656 48.0718 16.3402C47.9931 16.4147 47.9538 16.512 47.9538 16.6321C47.9538 16.748 47.9973 16.8412 48.0842 16.9116C48.1753 16.9779 48.2871 17.011 48.4197 17.011C48.5894 17.011 48.7385 16.9758 48.8669 16.9054C48.9994 16.8309 49.1009 16.7294 49.1713 16.601C49.2458 16.4727 49.2831 16.3319 49.2831 16.1787V15.309C49.2831 15.1641 49.2251 15.044 49.1091 14.9488C48.9973 14.8494 48.8483 14.7997 48.6619 14.7997C48.488 14.7997 48.3327 14.8473 48.196 14.9426C48.0635 15.0337 47.9662 15.1558 47.9041 15.309L47.2395 14.986C47.3057 14.808 47.4092 14.6548 47.55 14.5264C47.695 14.3939 47.8648 14.2903 48.0594 14.2158C48.254 14.1413 48.4652 14.104 48.693 14.104C48.9704 14.104 49.2147 14.1558 49.4259 14.2593C49.6371 14.3587 49.8007 14.4995 49.9166 14.6817C50.0367 14.8597 50.0968 15.0689 50.0968 15.309V17.5576H49.3265V16.9799L49.5005 16.9675C49.4135 17.1125 49.31 17.2346 49.1899 17.334C49.0698 17.4292 48.9331 17.5038 48.7799 17.5576C48.6267 17.6073 48.4569 17.6322 48.2706 17.6322ZM50.8489 17.5576V12.8555H51.6626V17.5576H50.8489ZM53.4388 17.6322C53.2027 17.6322 52.9978 17.5928 52.8238 17.5141C52.6499 17.4355 52.5153 17.3236 52.4201 17.1787C52.3248 17.0296 52.2772 16.8578 52.2772 16.6632C52.2772 16.4768 52.3186 16.3112 52.4014 16.1662C52.4843 16.0172 52.6126 15.8929 52.7866 15.7935C52.9605 15.6942 53.18 15.6238 53.445 15.5823L54.5506 15.4022V16.0234L53.6003 16.1849C53.4388 16.2139 53.3187 16.2656 53.24 16.3402C53.1613 16.4147 53.122 16.512 53.122 16.6321C53.122 16.748 53.1655 16.8412 53.2524 16.9116C53.3435 16.9779 53.4553 17.011 53.5879 17.011C53.7576 17.011 53.9067 16.9758 54.0351 16.9054C54.1676 16.8309 54.2691 16.7294 54.3394 16.601C54.414 16.4727 54.4513 16.3319 54.4513 16.1787V15.309C54.4513 15.1641 54.3933 15.044 54.2773 14.9488C54.1655 14.8494 54.0164 14.7997 53.8301 14.7997C53.6562 14.7997 53.5009 14.8473 53.3642 14.9426C53.2317 15.0337 53.1344 15.1558 53.0723 15.309L52.4077 14.986C52.4739 14.808 52.5774 14.6548 52.7182 14.5264C52.8632 14.3939 53.033 14.2903 53.2276 14.2158C53.4222 14.1413 53.6334 14.104 53.8612 14.104C54.1386 14.104 54.3829 14.1558 54.5941 14.2593C54.8053 14.3587 54.9689 14.4995 55.0848 14.6817C55.2049 14.8597 55.265 15.0689 55.265 15.309V17.5576H54.4947V16.9799L54.6687 16.9675C54.5817 17.1125 54.4782 17.2346 54.3581 17.334C54.238 17.4292 54.1013 17.5038 53.9481 17.5576C53.7949 17.6073 53.6251 17.6322 53.4388 17.6322ZM56.017 17.5576V14.1785H56.7811V14.9612L56.6941 14.8308C56.7562 14.5864 56.8805 14.4042 57.0668 14.2841C57.2531 14.164 57.4726 14.104 57.7252 14.104C58.0027 14.104 58.247 14.1765 58.4582 14.3214C58.6694 14.4663 58.806 14.6568 58.8681 14.8929L58.6383 14.9115C58.7418 14.6423 58.8971 14.4415 59.1042 14.309C59.3112 14.1723 59.5493 14.104 59.8185 14.104C60.0587 14.104 60.272 14.1578 60.4583 14.2655C60.6488 14.3732 60.7979 14.5243 60.9055 14.7189C61.0132 14.9094 61.067 15.131 61.067 15.3836V17.5576H60.2533V15.5761C60.2533 15.4271 60.2264 15.2987 60.1726 15.191C60.1187 15.0834 60.0442 15.0005 59.949 14.9426C59.8537 14.8804 59.7378 14.8494 59.6011 14.8494C59.4727 14.8494 59.3589 14.8804 59.2595 14.9426C59.1601 15.0005 59.0835 15.0834 59.0296 15.191C58.9758 15.2987 58.9489 15.4271 58.9489 15.5761V17.5576H58.1352V15.5761C58.1352 15.4271 58.1083 15.2987 58.0544 15.191C58.0006 15.0834 57.924 15.0005 57.8246 14.9426C57.7294 14.8804 57.6155 14.8494 57.483 14.8494C57.3546 14.8494 57.2407 14.8804 57.1413 14.9426C57.042 15.0005 56.9653 15.0834 56.9115 15.191C56.8577 15.2987 56.8308 15.4271 56.8308 15.5761V17.5576H56.017ZM62.7803 17.6322C62.5443 17.6322 62.3393 17.5928 62.1654 17.5141C61.9915 17.4355 61.8569 17.3236 61.7617 17.1787C61.6664 17.0296 61.6188 16.8578 61.6188 16.6632C61.6188 16.4768 61.6602 16.3112 61.743 16.1662C61.8258 16.0172 61.9542 15.8929 62.1281 15.7935C62.3021 15.6942 62.5215 15.6238 62.7866 15.5823L63.8922 15.4022V16.0234L62.9418 16.1849C62.7803 16.2139 62.6603 16.2656 62.5816 16.3402C62.5029 16.4147 62.4636 16.512 62.4636 16.6321C62.4636 16.748 62.507 16.8412 62.594 16.9116C62.6851 16.9779 62.7969 17.011 62.9294 17.011C63.0992 17.011 63.2483 16.9758 63.3767 16.9054C63.5092 16.8309 63.6106 16.7294 63.681 16.601C63.7556 16.4727 63.7928 16.3319 63.7928 16.1787V15.309C63.7928 15.1641 63.7349 15.044 63.6189 14.9488C63.5071 14.8494 63.358 14.7997 63.1717 14.7997C62.9978 14.7997 62.8425 14.8473 62.7058 14.9426C62.5733 15.0337 62.476 15.1558 62.4139 15.309L61.7492 14.986C61.8155 14.808 61.919 14.6548 62.0598 14.5264C62.2047 14.3939 62.3745 14.2903 62.5692 14.2158C62.7638 14.1413 62.975 14.104 63.2027 14.104C63.4802 14.104 63.7245 14.1558 63.9357 14.2593C64.1469 14.3587 64.3105 14.4995 64.4264 14.6817C64.5465 14.8597 64.6065 15.0689 64.6065 15.309V17.5576H63.8363V16.9799L64.0102 16.9675C63.9233 17.1125 63.8197 17.2346 63.6997 17.334C63.5796 17.4292 63.4429 17.5038 63.2897 17.5576C63.1365 17.6073 62.9667 17.6322 62.7803 17.6322ZM65.3586 17.5576V14.1785H66.1226V14.8432L66.0605 14.7252C66.1392 14.5222 66.2676 14.369 66.4456 14.2655C66.6278 14.1578 66.839 14.104 67.0792 14.104C67.3277 14.104 67.5472 14.1578 67.7376 14.2655C67.9323 14.3732 68.0834 14.5243 68.1911 14.7189C68.2987 14.9094 68.3526 15.131 68.3526 15.3836V17.5576H67.5389V15.5761C67.5389 15.4271 67.5099 15.2987 67.4519 15.191C67.3939 15.0834 67.3132 15.0005 67.2097 14.9426C67.1103 14.8804 66.9923 14.8494 66.8556 14.8494C66.7231 14.8494 66.6051 14.8804 66.5015 14.9426C66.398 15.0005 66.3173 15.0834 66.2593 15.191C66.2013 15.2987 66.1723 15.4271 66.1723 15.5761V17.5576H65.3586Z" fill="white"/>
<path d="M22.3537 16V13.3605H16.737V12.1174L22.323 4.56711H23.7656V12.1174H25.2541V13.3605H23.7656V16H22.3537ZM17.8726 12.6545L17.6578 12.1174H22.3537V5.8255L22.7988 5.94827L17.8726 12.6545Z" fill="white"/>
<path d="M10.4439 5.6085L7.34573 4.44809C7.02465 4.3298 6.50078 4.3298 6.1797 4.44809L3.08154 5.6085C2.48444 5.83382 2 6.53231 2 7.16884V11.7316C2 12.1879 2.29855 12.7906 2.6647 13.061L5.76285 15.3761C6.30926 15.7873 7.20491 15.7873 7.75131 15.3761L10.8495 13.061C11.2156 12.785 11.5142 12.1879 11.5142 11.7316V7.16884C11.5198 6.53231 11.0354 5.83382 10.4439 5.6085ZM8.72019 8.76298L6.29799 11.1852C6.2135 11.2697 6.10647 11.3091 5.99944 11.3091C5.89241 11.3091 5.78539 11.2697 5.70089 11.1852L4.79961 10.2726C4.63625 10.1093 4.63625 9.83889 4.79961 9.67553C4.96297 9.51217 5.23335 9.51217 5.39671 9.67553L6.00507 10.2839L8.12872 8.16025C8.29208 7.99689 8.56246 7.99689 8.72582 8.16025C8.88918 8.32361 8.88918 8.59962 8.72019 8.76298Z" fill="#E8604C"/>
<path d="M165.967 9.55762V4.93002H167.476C167.965 4.93002 168.389 5.02941 168.75 5.22817C169.114 5.4228 169.396 5.69404 169.594 6.04189C169.793 6.38559 169.892 6.7852 169.892 7.24071C169.892 7.69209 169.793 8.09376 169.594 8.44575C169.396 8.7936 169.114 9.06691 168.75 9.26567C168.389 9.4603 167.965 9.55762 167.476 9.55762H165.967ZM166.812 8.81223H167.495C167.81 8.81223 168.081 8.74805 168.309 8.61967C168.54 8.48716 168.721 8.30496 168.849 8.07306C168.977 7.83702 169.041 7.55957 169.041 7.24071C169.041 6.91771 168.977 6.64026 168.849 6.40837C168.721 6.17647 168.54 5.99634 168.309 5.86796C168.081 5.73959 167.81 5.67541 167.495 5.67541H166.812V8.81223ZM172.099 9.63216C171.751 9.63216 171.447 9.55348 171.186 9.39612C170.925 9.23876 170.722 9.0255 170.577 8.75633C170.432 8.48716 170.36 8.18901 170.36 7.86187C170.36 7.5223 170.432 7.22208 170.577 6.96119C170.726 6.69617 170.927 6.48705 171.18 6.33383C171.436 6.18061 171.722 6.104 172.037 6.104C172.302 6.104 172.534 6.14748 172.733 6.23444C172.935 6.32141 173.107 6.4415 173.248 6.59471C173.389 6.74793 173.497 6.92392 173.571 7.12269C173.646 7.31732 173.683 7.52851 173.683 7.75627C173.683 7.81425 173.679 7.87429 173.671 7.93641C173.666 7.99852 173.656 8.05235 173.639 8.09791H171.031V7.47675H173.18L172.795 7.76869C172.832 7.57821 172.822 7.40842 172.764 7.25935C172.71 7.11027 172.619 6.99225 172.49 6.90529C172.366 6.81833 172.215 6.77485 172.037 6.77485C171.867 6.77485 171.716 6.81833 171.583 6.90529C171.451 6.98811 171.349 7.11234 171.279 7.27798C171.213 7.43948 171.188 7.63618 171.205 7.86808C171.188 8.07513 171.215 8.25941 171.285 8.42091C171.36 8.57826 171.467 8.70042 171.608 8.78739C171.753 8.87435 171.919 8.91783 172.105 8.91783C172.292 8.91783 172.449 8.87849 172.577 8.79981C172.71 8.72113 172.813 8.61553 172.888 8.48302L173.546 8.80602C173.48 8.96752 173.377 9.11039 173.236 9.23462C173.095 9.35885 172.927 9.45616 172.733 9.52656C172.542 9.59696 172.331 9.63216 172.099 9.63216ZM175.586 9.63216C175.225 9.63216 174.911 9.54726 174.641 9.37748C174.376 9.20356 174.194 8.96959 174.095 8.67558L174.704 8.38364C174.79 8.57412 174.911 8.7232 175.064 8.83087C175.221 8.93853 175.395 8.99237 175.586 8.99237C175.735 8.99237 175.853 8.95924 175.94 8.89298C176.027 8.82673 176.07 8.73976 176.07 8.6321C176.07 8.56584 176.051 8.51201 176.014 8.4706C175.981 8.42505 175.933 8.38778 175.871 8.35879C175.813 8.32566 175.749 8.29875 175.679 8.27804L175.126 8.12275C174.84 8.03993 174.623 7.91363 174.474 7.74385C174.329 7.57407 174.256 7.37323 174.256 7.14133C174.256 6.93428 174.308 6.75414 174.412 6.60092C174.519 6.44357 174.666 6.32141 174.853 6.23444C175.043 6.14748 175.261 6.104 175.505 6.104C175.824 6.104 176.105 6.18061 176.35 6.33383C176.594 6.48705 176.768 6.70238 176.871 6.97983L176.25 7.27177C176.192 7.11855 176.095 6.99639 175.958 6.90529C175.822 6.81419 175.668 6.76864 175.499 6.76864C175.362 6.76864 175.254 6.79969 175.176 6.86181C175.097 6.92392 175.058 7.00467 175.058 7.10406C175.058 7.16617 175.074 7.22001 175.107 7.26556C175.14 7.31111 175.186 7.34838 175.244 7.37737C175.306 7.40635 175.376 7.43327 175.455 7.45812L175.996 7.61962C176.273 7.70244 176.486 7.82667 176.635 7.99231C176.789 8.15795 176.865 8.36086 176.865 8.60104C176.865 8.80395 176.811 8.98409 176.704 9.14144C176.596 9.29466 176.447 9.41475 176.256 9.50171C176.066 9.58867 175.842 9.63216 175.586 9.63216ZM179.031 9.59489C178.65 9.59489 178.354 9.49136 178.143 9.28431C177.936 9.07312 177.832 8.77703 177.832 8.39606V6.90529H177.248V6.17854H177.31C177.476 6.17854 177.604 6.13506 177.695 6.0481C177.787 5.96114 177.832 5.83484 177.832 5.66919V5.40831H178.646V6.17854H179.422V6.90529H178.646V8.35258C178.646 8.46439 178.664 8.55963 178.702 8.63831C178.743 8.71699 178.805 8.77703 178.888 8.81844C178.975 8.85985 179.085 8.88056 179.217 8.88056C179.246 8.88056 179.279 8.87849 179.317 8.87435C179.358 8.87021 179.397 8.86607 179.435 8.86192V9.55762C179.377 9.5659 179.31 9.57418 179.236 9.58246C179.161 9.59075 179.093 9.59489 179.031 9.59489ZM180.056 9.55762V6.17854H180.87V9.55762H180.056ZM180.056 5.79964V4.93002H180.87V5.79964H180.056ZM181.621 9.55762V6.17854H182.385V6.84317L182.323 6.72516C182.402 6.52225 182.53 6.36903 182.708 6.2655C182.891 6.15783 183.102 6.104 183.342 6.104C183.59 6.104 183.81 6.15783 184 6.2655C184.195 6.37317 184.346 6.52432 184.454 6.71894C184.562 6.90943 184.615 7.13098 184.615 7.38358V9.55762H183.802V7.57614C183.802 7.42706 183.773 7.29869 183.715 7.19102C183.657 7.08335 183.576 7.00053 183.472 6.94256C183.373 6.88044 183.255 6.84939 183.118 6.84939C182.986 6.84939 182.868 6.88044 182.764 6.94256C182.661 7.00053 182.58 7.08335 182.522 7.19102C182.464 7.29869 182.435 7.42706 182.435 7.57614V9.55762H181.621ZM186.328 9.63216C186.092 9.63216 185.887 9.59282 185.713 9.51414C185.539 9.43546 185.405 9.32365 185.31 9.17871C185.214 9.02964 185.167 8.85778 185.167 8.66316C185.167 8.47681 185.208 8.31117 185.291 8.16623C185.374 8.01716 185.502 7.89292 185.676 7.79354C185.85 7.69416 186.07 7.62376 186.335 7.58235L187.44 7.40221V8.02337L186.49 8.18487C186.328 8.21385 186.208 8.26562 186.13 8.34016C186.051 8.41469 186.012 8.51201 186.012 8.6321C186.012 8.74805 186.055 8.84122 186.142 8.91162C186.233 8.97787 186.345 9.011 186.477 9.011C186.647 9.011 186.796 8.9758 186.925 8.90541C187.057 8.83087 187.159 8.72941 187.229 8.60104C187.304 8.47267 187.341 8.33187 187.341 8.17866V7.30904C187.341 7.1641 187.283 7.04401 187.167 6.94877C187.055 6.84939 186.906 6.79969 186.72 6.79969C186.546 6.79969 186.39 6.84732 186.254 6.94256C186.121 7.03366 186.024 7.15582 185.962 7.30904L185.297 6.98604C185.363 6.80798 185.467 6.65476 185.608 6.52639C185.753 6.39387 185.923 6.29035 186.117 6.21581C186.312 6.14127 186.523 6.104 186.751 6.104C187.028 6.104 187.272 6.15576 187.484 6.25929C187.695 6.35867 187.858 6.49947 187.974 6.68167C188.094 6.85974 188.155 7.06886 188.155 7.30904V9.55762H187.384V8.97994L187.558 8.96752C187.471 9.11246 187.368 9.23462 187.248 9.334C187.128 9.42925 186.991 9.50378 186.838 9.55762C186.684 9.60731 186.515 9.63216 186.328 9.63216ZM190.192 9.63216C189.832 9.63216 189.517 9.54726 189.248 9.37748C188.983 9.20356 188.801 8.96959 188.702 8.67558L189.31 8.38364C189.397 8.57412 189.517 8.7232 189.671 8.83087C189.828 8.93853 190.002 8.99237 190.192 8.99237C190.341 8.99237 190.459 8.95924 190.546 8.89298C190.633 8.82673 190.677 8.73976 190.677 8.6321C190.677 8.56584 190.658 8.51201 190.621 8.4706C190.588 8.42505 190.54 8.38778 190.478 8.35879C190.42 8.32566 190.356 8.29875 190.286 8.27804L189.733 8.12275C189.447 8.03993 189.23 7.91363 189.081 7.74385C188.936 7.57407 188.863 7.37323 188.863 7.14133C188.863 6.93428 188.915 6.75414 189.018 6.60092C189.126 6.44357 189.273 6.32141 189.459 6.23444C189.65 6.14748 189.867 6.104 190.112 6.104C190.431 6.104 190.712 6.18061 190.956 6.33383C191.201 6.48705 191.375 6.70238 191.478 6.97983L190.857 7.27177C190.799 7.11855 190.702 6.99639 190.565 6.90529C190.428 6.81419 190.275 6.76864 190.105 6.76864C189.969 6.76864 189.861 6.79969 189.782 6.86181C189.704 6.92392 189.664 7.00467 189.664 7.10406C189.664 7.16617 189.681 7.22001 189.714 7.26556C189.747 7.31111 189.793 7.34838 189.851 7.37737C189.913 7.40635 189.983 7.43327 190.062 7.45812L190.602 7.61962C190.88 7.70244 191.093 7.82667 191.242 7.99231C191.395 8.15795 191.472 8.36086 191.472 8.60104C191.472 8.80395 191.418 8.98409 191.31 9.14144C191.203 9.29466 191.054 9.41475 190.863 9.50171C190.673 9.58867 190.449 9.63216 190.192 9.63216ZM192.097 9.55762V6.17854H192.911V9.55762H192.097ZM192.097 5.79964V4.93002H192.911V5.79964H192.097ZM166.787 17.5576V13.6754H165.588V12.93H168.818V13.6754H167.638V17.5576H166.787ZM170.431 17.6322C170.083 17.6322 169.779 17.5535 169.518 17.3961C169.257 17.2388 169.054 17.0255 168.909 16.7563C168.764 16.4872 168.692 16.189 168.692 15.8619C168.692 15.5223 168.764 15.2221 168.909 14.9612C169.058 14.6962 169.259 14.487 169.512 14.3338C169.768 14.1806 170.054 14.104 170.369 14.104C170.634 14.104 170.866 14.1475 171.064 14.2344C171.267 14.3214 171.439 14.4415 171.58 14.5947C171.721 14.7479 171.828 14.9239 171.903 15.1227C171.978 15.3173 172.015 15.5285 172.015 15.7563C172.015 15.8142 172.011 15.8743 172.002 15.9364C171.998 15.9985 171.988 16.0524 171.971 16.0979H169.362V15.4768H171.512L171.127 15.7687C171.164 15.5782 171.153 15.4084 171.096 15.2593C171.042 15.1103 170.951 14.9923 170.822 14.9053C170.698 14.8183 170.547 14.7748 170.369 14.7748C170.199 14.7748 170.048 14.8183 169.915 14.9053C169.783 14.9881 169.681 15.1123 169.611 15.278C169.545 15.4395 169.52 15.6362 169.536 15.8681C169.52 16.0751 169.547 16.2594 169.617 16.4209C169.692 16.5783 169.799 16.7004 169.94 16.7874C170.085 16.8743 170.251 16.9178 170.437 16.9178C170.623 16.9178 170.781 16.8785 170.909 16.7998C171.042 16.7211 171.145 16.6155 171.22 16.483L171.878 16.806C171.812 16.9675 171.708 17.1104 171.568 17.2346C171.427 17.3588 171.259 17.4562 171.064 17.5266C170.874 17.597 170.663 17.6322 170.431 17.6322ZM172.632 17.5576V14.1785H173.396V14.9301L173.334 14.8183C173.412 14.5657 173.534 14.3897 173.7 14.2903C173.87 14.191 174.073 14.1413 174.309 14.1413H174.508V14.8618H174.216C173.984 14.8618 173.797 14.9343 173.657 15.0792C173.516 15.22 173.445 15.4188 173.445 15.6755V17.5576H172.632ZM176.8 17.6322C176.555 17.6322 176.33 17.5845 176.123 17.4893C175.92 17.3899 175.758 17.2491 175.638 17.0669L175.719 16.9054V17.5576H174.955V12.8555H175.769V14.8494L175.644 14.6817C175.76 14.4995 175.918 14.3587 176.116 14.2593C176.315 14.1558 176.545 14.104 176.806 14.104C177.125 14.104 177.413 14.1827 177.669 14.34C177.926 14.4974 178.129 14.7086 178.278 14.9736C178.431 15.2386 178.508 15.5368 178.508 15.8681C178.508 16.1952 178.433 16.4934 178.284 16.7625C178.135 17.0317 177.932 17.245 177.676 17.4023C177.419 17.5555 177.127 17.6322 176.8 17.6322ZM176.707 16.8868C176.893 16.8868 177.059 16.8433 177.203 16.7563C177.348 16.6694 177.46 16.5493 177.539 16.3961C177.622 16.2428 177.663 16.0668 177.663 15.8681C177.663 15.6693 177.622 15.4954 177.539 15.3463C177.46 15.1931 177.348 15.073 177.203 14.986C177.059 14.8949 176.893 14.8494 176.707 14.8494C176.528 14.8494 176.367 14.8929 176.222 14.9798C176.081 15.0668 175.969 15.189 175.887 15.3463C175.808 15.4995 175.769 15.6735 175.769 15.8681C175.769 16.0668 175.808 16.2428 175.887 16.3961C175.969 16.5493 176.081 16.6694 176.222 16.7563C176.367 16.8433 176.528 16.8868 176.707 16.8868ZM180.153 17.6322C179.917 17.6322 179.712 17.5928 179.538 17.5141C179.364 17.4355 179.23 17.3236 179.134 17.1787C179.039 17.0296 178.992 16.8578 178.992 16.6632C178.992 16.4768 179.033 16.3112 179.116 16.1662C179.199 16.0172 179.327 15.8929 179.501 15.7935C179.675 15.6942 179.894 15.6238 180.159 15.5823L181.265 15.4022V16.0234L180.315 16.1849C180.153 16.2139 180.033 16.2656 179.954 16.3402C179.876 16.4147 179.836 16.512 179.836 16.6321C179.836 16.748 179.88 16.8412 179.967 16.9116C180.058 16.9779 180.17 17.011 180.302 17.011C180.472 17.011 180.621 16.9758 180.749 16.9054C180.882 16.8309 180.983 16.7294 181.054 16.601C181.128 16.4727 181.166 16.3319 181.166 16.1787V15.309C181.166 15.1641 181.108 15.044 180.992 14.9488C180.88 14.8494 180.731 14.7997 180.545 14.7997C180.371 14.7997 180.215 14.8473 180.079 14.9426C179.946 15.0337 179.849 15.1558 179.787 15.309L179.122 14.986C179.188 14.808 179.292 14.6548 179.433 14.5264C179.578 14.3939 179.747 14.2903 179.942 14.2158C180.137 14.1413 180.348 14.104 180.576 14.104C180.853 14.104 181.097 14.1558 181.309 14.2593C181.52 14.3587 181.683 14.4995 181.799 14.6817C181.919 14.8597 181.979 15.0689 181.979 15.309V17.5576H181.209V16.9799L181.383 16.9675C181.296 17.1125 181.193 17.2346 181.072 17.334C180.952 17.4292 180.816 17.5038 180.663 17.5576C180.509 17.6073 180.34 17.6322 180.153 17.6322ZM182.731 17.5576V14.1785H183.545V17.5576H182.731ZM182.731 13.7996V12.93H183.545V13.7996H182.731ZM184.296 17.5576V12.8555H185.11V15.9364L184.8 15.8432L186.39 14.1785H187.402L186.154 15.5389L187.427 17.5576H186.495L185.39 15.806L185.874 15.7066L184.856 16.7998L185.11 16.3029V17.5576H184.296Z" fill="white"/>
<path d="M133.83 16V14.9565L136.991 11.5343C137.615 10.8693 138.111 10.3219 138.48 9.89223C138.858 9.46254 139.134 9.07888 139.308 8.74127C139.482 8.40365 139.569 8.04558 139.569 7.66704C139.569 7.04296 139.385 6.56212 139.017 6.2245C138.648 5.88688 138.162 5.71808 137.559 5.71808C136.945 5.71808 136.423 5.89712 135.993 6.25519C135.564 6.60304 135.267 7.09923 135.103 7.74377L133.738 7.39081C133.871 6.77696 134.116 6.24496 134.474 5.79481C134.832 5.34465 135.277 4.99681 135.809 4.75127C136.341 4.50573 136.924 4.38296 137.559 4.38296C138.254 4.38296 138.863 4.52108 139.385 4.79731C139.917 5.06331 140.331 5.43673 140.628 5.91758C140.935 6.39842 141.088 6.956 141.088 7.59031C141.088 8.00977 141.001 8.419 140.828 8.818C140.654 9.217 140.398 9.64158 140.06 10.0917C139.723 10.5317 139.283 11.0432 138.74 11.6263L135.917 14.6956H141.334V16H133.83ZM146.792 16.1842C146.198 16.1842 145.641 16.0818 145.119 15.8772C144.597 15.6624 144.142 15.3606 143.753 14.9718C143.374 14.5728 143.098 14.1073 142.924 13.5753L144.152 13.0535C144.367 13.6162 144.715 14.0562 145.196 14.3733C145.687 14.6802 146.219 14.8337 146.792 14.8337C147.262 14.8337 147.676 14.7314 148.035 14.5268C148.403 14.3119 148.689 14.0203 148.894 13.652C149.099 13.2735 149.201 12.854 149.201 12.3937C149.201 11.9128 149.093 11.4882 148.879 11.1199C148.674 10.7516 148.393 10.4652 148.035 10.2605C147.676 10.0457 147.267 9.93827 146.807 9.93827C146.336 9.93827 145.907 10.0457 145.518 10.2605C145.129 10.4754 144.848 10.7465 144.674 11.0739L143.461 10.813L144.336 4.56711H150.26V5.87154H144.904L145.487 5.28838L144.812 10.1378L144.29 9.83085C144.628 9.40115 145.022 9.09423 145.472 8.91008C145.932 8.71569 146.428 8.6185 146.96 8.6185C147.707 8.6185 148.362 8.78731 148.925 9.12492C149.487 9.46254 149.927 9.91269 150.244 10.4754C150.562 11.0381 150.72 11.6775 150.72 12.3937C150.72 13.1098 150.546 13.7543 150.198 14.3273C149.861 14.9002 149.395 15.3555 148.802 15.6931C148.219 16.0205 147.549 16.1842 146.792 16.1842ZM155.772 16V12.8233H152.596V11.4882H155.772V8.32692H157.107V11.4882H160.269V12.8233H157.107V16H155.772Z" fill="white"/>
<path d="M125.916 5.4502H121.45C119.511 5.4502 118.354 6.60649 118.354 8.54607V13.006C118.354 14.951 119.511 16.1072 121.45 16.1072H125.91C127.85 16.1072 129.006 14.951 129.006 13.0114V8.54607C129.012 6.60649 127.855 5.4502 125.916 5.4502ZM127.152 11.4128C127.152 11.7325 126.907 11.8924 126.614 11.7645L124.829 10.9972C124.621 10.9119 124.456 11.0185 124.456 11.2423V12.2281C124.456 12.3133 124.504 12.4359 124.568 12.4998L125.441 13.379C125.532 13.4696 125.575 13.6508 125.532 13.7734L125.362 14.2849C125.287 14.5087 125.031 14.6153 124.823 14.5087L123.933 13.752C123.795 13.6401 123.571 13.6401 123.438 13.752L122.543 14.5087C122.33 14.6153 122.079 14.5087 122.005 14.2796L121.834 13.768C121.791 13.6455 121.834 13.4643 121.925 13.3737L122.814 12.4998C122.873 12.4412 122.926 12.3187 122.926 12.2281V11.2423C122.926 11.0185 122.756 10.9066 122.553 10.9972L120.768 11.7645C120.47 11.8924 120.23 11.7325 120.23 11.4128V10.9173C120.23 10.6615 120.427 10.3631 120.662 10.2619L122.761 9.356C122.846 9.31871 122.921 9.20681 122.921 9.11089V8.00789C122.921 7.64555 123.182 7.21394 123.507 7.05408C123.624 6.99547 123.758 6.99547 123.875 7.05408C124.195 7.21927 124.461 7.64555 124.461 8.00789V9.11089C124.461 9.20681 124.53 9.31871 124.621 9.356L126.72 10.2619C126.96 10.3631 127.152 10.6615 127.152 10.9173V11.4128Z" fill="#E8604C"/>
<path d="M290.197 9.55762V4.93002H291.924C292.239 4.93002 292.516 4.988 292.756 5.10394C293.001 5.21575 293.191 5.38139 293.328 5.60087C293.465 5.8162 293.533 6.07916 293.533 6.38973C293.533 6.69617 293.462 6.95912 293.322 7.1786C293.185 7.39393 292.997 7.55957 292.756 7.67552C292.516 7.79147 292.239 7.84944 291.924 7.84944H291.042V9.55762H290.197ZM291.042 7.10406H291.936C292.09 7.10406 292.222 7.07507 292.334 7.0171C292.446 6.95498 292.533 6.87009 292.595 6.76242C292.657 6.65476 292.688 6.53053 292.688 6.38973C292.688 6.2448 292.657 6.12057 292.595 6.01704C292.533 5.90937 292.446 5.82655 292.334 5.76858C292.222 5.70646 292.09 5.67541 291.936 5.67541H291.042V7.10406ZM295.638 9.63216C295.29 9.63216 294.986 9.55348 294.725 9.39612C294.464 9.23876 294.261 9.0255 294.116 8.75633C293.971 8.48716 293.899 8.18901 293.899 7.86187C293.899 7.5223 293.971 7.22208 294.116 6.96119C294.265 6.69617 294.466 6.48705 294.719 6.33383C294.975 6.18061 295.261 6.104 295.576 6.104C295.841 6.104 296.073 6.14748 296.272 6.23444C296.474 6.32141 296.646 6.4415 296.787 6.59471C296.928 6.74793 297.036 6.92392 297.11 7.12269C297.185 7.31732 297.222 7.52851 297.222 7.75627C297.222 7.81425 297.218 7.87429 297.209 7.93641C297.205 7.99852 297.195 8.05235 297.178 8.09791H294.57V7.47675H296.719L296.334 7.76869C296.371 7.57821 296.361 7.40842 296.303 7.25935C296.249 7.11027 296.158 6.99225 296.029 6.90529C295.905 6.81833 295.754 6.77485 295.576 6.77485C295.406 6.77485 295.255 6.81833 295.122 6.90529C294.99 6.98811 294.888 7.11234 294.818 7.27798C294.752 7.43948 294.727 7.63618 294.743 7.86808C294.727 8.07513 294.754 8.25941 294.824 8.42091C294.899 8.57826 295.006 8.70042 295.147 8.78739C295.292 8.87435 295.458 8.91783 295.644 8.91783C295.831 8.91783 295.988 8.87849 296.116 8.79981C296.249 8.72113 296.352 8.61553 296.427 8.48302L297.085 8.80602C297.019 8.96752 296.915 9.11039 296.775 9.23462C296.634 9.35885 296.466 9.45616 296.272 9.52656C296.081 9.59696 295.87 9.63216 295.638 9.63216ZM297.839 9.55762V4.85548H298.652V9.55762H297.839ZM300.429 9.63216C300.193 9.63216 299.988 9.59282 299.814 9.51414C299.64 9.43546 299.505 9.32365 299.41 9.17871C299.315 9.02964 299.267 8.85778 299.267 8.66316C299.267 8.47681 299.309 8.31117 299.391 8.16623C299.474 8.01716 299.603 7.89292 299.776 7.79354C299.95 7.69416 300.17 7.62376 300.435 7.58235L301.541 7.40221V8.02337L300.59 8.18487C300.429 8.21385 300.309 8.26562 300.23 8.34016C300.151 8.41469 300.112 8.51201 300.112 8.6321C300.112 8.74805 300.155 8.84122 300.242 8.91162C300.333 8.97787 300.445 9.011 300.578 9.011C300.748 9.011 300.897 8.9758 301.025 8.90541C301.157 8.83087 301.259 8.72941 301.329 8.60104C301.404 8.47267 301.441 8.33187 301.441 8.17866V7.30904C301.441 7.1641 301.383 7.04401 301.267 6.94877C301.155 6.84939 301.006 6.79969 300.82 6.79969C300.646 6.79969 300.491 6.84732 300.354 6.94256C300.222 7.03366 300.124 7.15582 300.062 7.30904L299.398 6.98604C299.464 6.80798 299.567 6.65476 299.708 6.52639C299.853 6.39387 300.023 6.29035 300.217 6.21581C300.412 6.14127 300.623 6.104 300.851 6.104C301.128 6.104 301.373 6.15576 301.584 6.25929C301.795 6.35867 301.959 6.49947 302.075 6.68167C302.195 6.85974 302.255 7.06886 302.255 7.30904V9.55762H301.485V8.97994L301.659 8.96752C301.572 9.11246 301.468 9.23462 301.348 9.334C301.228 9.42925 301.091 9.50378 300.938 9.55762C300.785 9.60731 300.615 9.63216 300.429 9.63216ZM303.007 9.55762V6.17854H303.771V6.84317L303.709 6.72516C303.788 6.52225 303.916 6.36903 304.094 6.2655C304.276 6.15783 304.487 6.104 304.728 6.104C304.976 6.104 305.195 6.15783 305.386 6.2655C305.581 6.37317 305.732 6.52432 305.839 6.71894C305.947 6.90943 306.001 7.13098 306.001 7.38358V9.55762H305.187V7.57614C305.187 7.42706 305.158 7.29869 305.1 7.19102C305.042 7.08335 304.961 7.00053 304.858 6.94256C304.759 6.88044 304.641 6.84939 304.504 6.84939C304.371 6.84939 304.253 6.88044 304.15 6.94256C304.046 7.00053 303.966 7.08335 303.908 7.19102C303.85 7.29869 303.821 7.42706 303.821 7.57614V9.55762H303.007ZM308.329 10.9242C308.076 10.9242 307.842 10.8827 307.627 10.7999C307.412 10.7171 307.225 10.6012 307.068 10.4521C306.915 10.3071 306.803 10.1353 306.732 9.93652L307.49 9.65079C307.54 9.80815 307.637 9.93445 307.782 10.0297C307.931 10.1291 308.113 10.1788 308.329 10.1788C308.494 10.1788 308.639 10.1477 308.764 10.0856C308.892 10.0235 308.991 9.93238 309.062 9.81229C309.132 9.69634 309.167 9.55555 309.167 9.38991V8.61967L309.323 8.80602C309.207 9.00893 309.051 9.16215 308.857 9.26567C308.662 9.3692 308.441 9.42096 308.192 9.42096C307.877 9.42096 307.596 9.3485 307.347 9.20356C307.099 9.05862 306.904 8.85985 306.764 8.60725C306.623 8.35465 306.552 8.07099 306.552 7.75627C306.552 7.43741 306.623 7.15375 306.764 6.90529C306.904 6.65683 307.097 6.4622 307.341 6.32141C307.585 6.17647 307.863 6.104 308.174 6.104C308.426 6.104 308.648 6.15783 308.838 6.2655C309.033 6.36903 309.194 6.52017 309.323 6.71894L309.211 6.92392V6.17854H309.981V9.38991C309.981 9.68392 309.909 9.94687 309.764 10.1788C309.623 10.4107 309.428 10.5929 309.18 10.7254C308.935 10.8579 308.652 10.9242 308.329 10.9242ZM308.292 8.66937C308.465 8.66937 308.617 8.6321 308.745 8.55756C308.877 8.47888 308.981 8.37121 309.056 8.23456C309.13 8.09791 309.167 7.94055 309.167 7.76248C309.167 7.58856 309.128 7.43327 309.049 7.29662C308.975 7.15582 308.871 7.04609 308.739 6.96741C308.61 6.88873 308.461 6.84939 308.292 6.84939C308.122 6.84939 307.969 6.88873 307.832 6.96741C307.695 7.04609 307.588 7.15582 307.509 7.29662C307.434 7.43327 307.397 7.58856 307.397 7.76248C307.397 7.93641 307.434 8.09169 307.509 8.22835C307.588 8.365 307.693 8.47267 307.826 8.55135C307.962 8.63003 308.118 8.66937 308.292 8.66937ZM312.381 10.9242C312.128 10.9242 311.894 10.8827 311.679 10.7999C311.464 10.7171 311.277 10.6012 311.12 10.4521C310.967 10.3071 310.855 10.1353 310.785 9.93652L311.542 9.65079C311.592 9.80815 311.689 9.93445 311.834 10.0297C311.983 10.1291 312.166 10.1788 312.381 10.1788C312.547 10.1788 312.691 10.1477 312.816 10.0856C312.944 10.0235 313.043 9.93238 313.114 9.81229C313.184 9.69634 313.219 9.55555 313.219 9.38991V8.61967L313.375 8.80602C313.259 9.00893 313.103 9.16215 312.909 9.26567C312.714 9.3692 312.493 9.42096 312.244 9.42096C311.929 9.42096 311.648 9.3485 311.399 9.20356C311.151 9.05862 310.956 8.85985 310.816 8.60725C310.675 8.35465 310.604 8.07099 310.604 7.75627C310.604 7.43741 310.675 7.15375 310.816 6.90529C310.956 6.65683 311.149 6.4622 311.393 6.32141C311.638 6.17647 311.915 6.104 312.226 6.104C312.478 6.104 312.7 6.15783 312.89 6.2655C313.085 6.36903 313.246 6.52017 313.375 6.71894L313.263 6.92392V6.17854H314.033V9.38991C314.033 9.68392 313.961 9.94687 313.816 10.1788C313.675 10.4107 313.48 10.5929 313.232 10.7254C312.988 10.8579 312.704 10.9242 312.381 10.9242ZM312.344 8.66937C312.518 8.66937 312.669 8.6321 312.797 8.55756C312.93 8.47888 313.033 8.37121 313.108 8.23456C313.182 8.09791 313.219 7.94055 313.219 7.76248C313.219 7.58856 313.18 7.43327 313.101 7.29662C313.027 7.15582 312.923 7.04609 312.791 6.96741C312.662 6.88873 312.513 6.84939 312.344 6.84939C312.174 6.84939 312.021 6.88873 311.884 6.96741C311.747 7.04609 311.64 7.15582 311.561 7.29662C311.486 7.43327 311.449 7.58856 311.449 7.76248C311.449 7.93641 311.486 8.09169 311.561 8.22835C311.64 8.365 311.745 8.47267 311.878 8.55135C312.014 8.63003 312.17 8.66937 312.344 8.66937ZM315.818 9.63216C315.582 9.63216 315.377 9.59282 315.203 9.51414C315.029 9.43546 314.895 9.32365 314.799 9.17871C314.704 9.02964 314.656 8.85778 314.656 8.66316C314.656 8.47681 314.698 8.31117 314.781 8.16623C314.863 8.01716 314.992 7.89292 315.166 7.79354C315.34 7.69416 315.559 7.62376 315.824 7.58235L316.93 7.40221V8.02337L315.979 8.18487C315.818 8.21385 315.698 8.26562 315.619 8.34016C315.541 8.41469 315.501 8.51201 315.501 8.6321C315.501 8.74805 315.545 8.84122 315.632 8.91162C315.723 8.97787 315.835 9.011 315.967 9.011C316.137 9.011 316.286 8.9758 316.414 8.90541C316.547 8.83087 316.648 8.72941 316.719 8.60104C316.793 8.47267 316.83 8.33187 316.83 8.17866V7.30904C316.83 7.1641 316.772 7.04401 316.657 6.94877C316.545 6.84939 316.396 6.79969 316.209 6.79969C316.035 6.79969 315.88 6.84732 315.743 6.94256C315.611 7.03366 315.514 7.15582 315.452 7.30904L314.787 6.98604C314.853 6.80798 314.957 6.65476 315.097 6.52639C315.242 6.39387 315.412 6.29035 315.607 6.21581C315.801 6.14127 316.013 6.104 316.24 6.104C316.518 6.104 316.762 6.15576 316.973 6.25929C317.185 6.35867 317.348 6.49947 317.464 6.68167C317.584 6.85974 317.644 7.06886 317.644 7.30904V9.55762H316.874V8.97994L317.048 8.96752C316.961 9.11246 316.857 9.23462 316.737 9.334C316.617 9.42925 316.481 9.50378 316.327 9.55762C316.174 9.60731 316.004 9.63216 315.818 9.63216ZM318.396 9.55762V6.17854H319.16V6.84317L319.098 6.72516C319.177 6.52225 319.305 6.36903 319.483 6.2655C319.665 6.15783 319.877 6.104 320.117 6.104C320.365 6.104 320.585 6.15783 320.775 6.2655C320.97 6.37317 321.121 6.52432 321.229 6.71894C321.336 6.90943 321.39 7.13098 321.39 7.38358V9.55762H320.577V7.57614C320.577 7.42706 320.548 7.29869 320.49 7.19102C320.432 7.08335 320.351 7.00053 320.247 6.94256C320.148 6.88044 320.03 6.84939 319.893 6.84939C319.761 6.84939 319.643 6.88044 319.539 6.94256C319.436 7.00053 319.355 7.08335 319.297 7.19102C319.239 7.29869 319.21 7.42706 319.21 7.57614V9.55762H318.396ZM290.197 17.5576V12.93H292.148C292.454 12.93 292.715 12.9839 292.93 13.0915C293.15 13.195 293.317 13.3441 293.433 13.5388C293.554 13.7292 293.614 13.9611 293.614 14.2344C293.614 14.4456 293.556 14.6444 293.44 14.8308C293.328 15.013 293.148 15.1641 292.899 15.2842V14.8929C293.127 14.9798 293.307 15.0875 293.44 15.2159C293.572 15.3442 293.665 15.4871 293.719 15.6445C293.773 15.8018 293.8 15.9675 293.8 16.1414C293.8 16.5845 293.653 16.9323 293.359 17.1849C293.069 17.4334 292.665 17.5576 292.148 17.5576H290.197ZM291.042 16.8122H292.235C292.454 16.8122 292.628 16.7522 292.756 16.6321C292.889 16.5079 292.955 16.3443 292.955 16.1414C292.955 15.9385 292.889 15.7749 292.756 15.6507C292.628 15.5264 292.454 15.4643 292.235 15.4643H291.042V16.8122ZM291.042 14.7252H292.191C292.365 14.7252 292.504 14.6755 292.607 14.5761C292.711 14.4726 292.763 14.34 292.763 14.1785C292.763 14.017 292.711 13.8887 292.607 13.7934C292.504 13.6982 292.365 13.6506 292.191 13.6506H291.042V14.7252ZM295.449 17.6322C295.212 17.6322 295.007 17.5928 294.834 17.5141C294.66 17.4355 294.525 17.3236 294.43 17.1787C294.335 17.0296 294.287 16.8578 294.287 16.6632C294.287 16.4768 294.328 16.3112 294.411 16.1662C294.494 16.0172 294.622 15.8929 294.796 15.7935C294.97 15.6942 295.19 15.6238 295.455 15.5823L296.56 15.4022V16.0234L295.61 16.1849C295.449 16.2139 295.328 16.2656 295.25 16.3402C295.171 16.4147 295.132 16.512 295.132 16.6321C295.132 16.748 295.175 16.8412 295.262 16.9116C295.353 16.9779 295.465 17.011 295.598 17.011C295.767 17.011 295.916 16.9758 296.045 16.9054C296.177 16.8309 296.279 16.7294 296.349 16.601C296.424 16.4727 296.461 16.3319 296.461 16.1787V15.309C296.461 15.1641 296.403 15.044 296.287 14.9488C296.175 14.8494 296.026 14.7997 295.84 14.7997C295.666 14.7997 295.511 14.8473 295.374 14.9426C295.241 15.0337 295.144 15.1558 295.082 15.309L294.417 14.986C294.484 14.808 294.587 14.6548 294.728 14.5264C294.873 14.3939 295.043 14.2903 295.237 14.2158C295.432 14.1413 295.643 14.104 295.871 14.104C296.148 14.104 296.393 14.1558 296.604 14.2593C296.815 14.3587 296.979 14.4995 297.095 14.6817C297.215 14.8597 297.275 15.0689 297.275 15.309V17.5576H296.504V16.9799L296.678 16.9675C296.591 17.1125 296.488 17.2346 296.368 17.334C296.248 17.4292 296.111 17.5038 295.958 17.5576C295.805 17.6073 295.635 17.6322 295.449 17.6322ZM298.027 17.5576V12.8555H298.84V14.8432L298.729 14.7252C298.807 14.5222 298.936 14.369 299.114 14.2655C299.296 14.1578 299.507 14.104 299.747 14.104C299.996 14.104 300.215 14.1578 300.406 14.2655C300.6 14.3732 300.752 14.5243 300.859 14.7189C300.967 14.9094 301.021 15.131 301.021 15.3836V17.5576H300.207V15.5761C300.207 15.4271 300.178 15.2987 300.12 15.191C300.062 15.0834 299.981 15.0005 299.878 14.9426C299.778 14.8804 299.66 14.8494 299.524 14.8494C299.391 14.8494 299.273 14.8804 299.17 14.9426C299.066 15.0005 298.985 15.0834 298.927 15.191C298.869 15.2987 298.84 15.4271 298.84 15.5761V17.5576H298.027ZM302.734 17.6322C302.498 17.6322 302.293 17.5928 302.119 17.5141C301.945 17.4355 301.81 17.3236 301.715 17.1787C301.62 17.0296 301.572 16.8578 301.572 16.6632C301.572 16.4768 301.614 16.3112 301.696 16.1662C301.779 16.0172 301.908 15.8929 302.082 15.7935C302.255 15.6942 302.475 15.6238 302.74 15.5823L303.846 15.4022V16.0234L302.895 16.1849C302.734 16.2139 302.614 16.2656 302.535 16.3402C302.456 16.4147 302.417 16.512 302.417 16.6321C302.417 16.748 302.46 16.8412 302.547 16.9116C302.638 16.9779 302.75 17.011 302.883 17.011C303.053 17.011 303.202 16.9758 303.33 16.9054C303.463 16.8309 303.564 16.7294 303.634 16.601C303.709 16.4727 303.746 16.3319 303.746 16.1787V15.309C303.746 15.1641 303.688 15.044 303.572 14.9488C303.46 14.8494 303.311 14.7997 303.125 14.7997C302.951 14.7997 302.796 14.8473 302.659 14.9426C302.527 15.0337 302.429 15.1558 302.367 15.309L301.703 14.986C301.769 14.808 301.872 14.6548 302.013 14.5264C302.158 14.3939 302.328 14.2903 302.523 14.2158C302.717 14.1413 302.928 14.104 303.156 14.104C303.434 14.104 303.678 14.1558 303.889 14.2593C304.1 14.3587 304.264 14.4995 304.38 14.6817C304.5 14.8597 304.56 15.0689 304.56 15.309V17.5576H303.79V16.9799L303.964 16.9675C303.877 17.1125 303.773 17.2346 303.653 17.334C303.533 17.4292 303.396 17.5038 303.243 17.5576C303.09 17.6073 302.92 17.6322 302.734 17.6322ZM306.952 18.9242C306.699 18.9242 306.465 18.8827 306.25 18.7999C306.035 18.7171 305.848 18.6012 305.691 18.4521C305.538 18.3071 305.426 18.1353 305.355 17.9365L306.113 17.6508C306.163 17.8081 306.26 17.9345 306.405 18.0297C306.554 18.1291 306.737 18.1788 306.952 18.1788C307.117 18.1788 307.262 18.1477 307.387 18.0856C307.515 18.0235 307.614 17.9324 307.685 17.8123C307.755 17.6963 307.79 17.5555 307.79 17.3899V16.6197L307.946 16.806C307.83 17.0089 307.674 17.1621 307.48 17.2657C307.285 17.3692 307.064 17.421 306.815 17.421C306.5 17.421 306.219 17.3485 305.97 17.2036C305.722 17.0586 305.527 16.8599 305.387 16.6073C305.246 16.3546 305.175 16.071 305.175 15.7563C305.175 15.4374 305.246 15.1538 305.387 14.9053C305.527 14.6568 305.72 14.4622 305.964 14.3214C306.209 14.1765 306.486 14.104 306.797 14.104C307.049 14.104 307.271 14.1578 307.461 14.2655C307.656 14.369 307.817 14.5202 307.946 14.7189L307.834 14.9239V14.1785H308.604V17.3899C308.604 17.6839 308.532 17.9469 308.387 18.1788C308.246 18.4107 308.051 18.5929 307.803 18.7254C307.558 18.8579 307.275 18.9242 306.952 18.9242ZM306.915 16.6694C307.088 16.6694 307.24 16.6321 307.368 16.5576C307.501 16.4789 307.604 16.3712 307.679 16.2346C307.753 16.0979 307.79 15.9405 307.79 15.7625C307.79 15.5886 307.751 15.4333 307.672 15.2966C307.598 15.1558 307.494 15.0461 307.362 14.9674C307.233 14.8887 307.084 14.8494 306.915 14.8494C306.745 14.8494 306.592 14.8887 306.455 14.9674C306.318 15.0461 306.211 15.1558 306.132 15.2966C306.057 15.4333 306.02 15.5886 306.02 15.7625C306.02 15.9364 306.057 16.0917 306.132 16.2283C306.211 16.365 306.316 16.4727 306.449 16.5513C306.585 16.63 306.741 16.6694 306.915 16.6694ZM309.364 17.5576V14.1785H310.178V17.5576H309.364ZM309.364 13.7996V12.93H310.178V13.7996H309.364ZM311.954 17.6322C311.718 17.6322 311.513 17.5928 311.339 17.5141C311.165 17.4355 311.031 17.3236 310.935 17.1787C310.84 17.0296 310.792 16.8578 310.792 16.6632C310.792 16.4768 310.834 16.3112 310.917 16.1662C310.999 16.0172 311.128 15.8929 311.302 15.7935C311.476 15.6942 311.695 15.6238 311.96 15.5823L313.066 15.4022V16.0234L312.115 16.1849C311.954 16.2139 311.834 16.2656 311.755 16.3402C311.677 16.4147 311.637 16.512 311.637 16.6321C311.637 16.748 311.681 16.8412 311.768 16.9116C311.859 16.9779 311.971 17.011 312.103 17.011C312.273 17.011 312.422 16.9758 312.55 16.9054C312.683 16.8309 312.784 16.7294 312.855 16.601C312.929 16.4727 312.966 16.3319 312.966 16.1787V15.309C312.966 15.1641 312.908 15.044 312.793 14.9488C312.681 14.8494 312.532 14.7997 312.345 14.7997C312.171 14.7997 312.016 14.8473 311.879 14.9426C311.747 15.0337 311.65 15.1558 311.587 15.309L310.923 14.986C310.989 14.808 311.093 14.6548 311.233 14.5264C311.378 14.3939 311.548 14.2903 311.743 14.2158C311.937 14.1413 312.149 14.104 312.376 14.104C312.654 14.104 312.898 14.1558 313.109 14.2593C313.321 14.3587 313.484 14.4995 313.6 14.6817C313.72 14.8597 313.78 15.0689 313.78 15.309V17.5576H313.01V16.9799L313.184 16.9675C313.097 17.1125 312.993 17.2346 312.873 17.334C312.753 17.4292 312.617 17.5038 312.463 17.5576C312.31 17.6073 312.14 17.6322 311.954 17.6322Z" fill="white"/>
<path d="M259.195 16L263.139 10.859L263.415 10.8897C263.262 11.0943 263.093 11.258 262.909 11.3808C262.724 11.4933 262.52 11.5752 262.295 11.6263C262.08 11.6775 261.845 11.7031 261.589 11.7031C260.914 11.7031 260.305 11.5496 259.763 11.2427C259.231 10.9255 258.806 10.4958 258.489 9.95362C258.182 9.40115 258.028 8.77196 258.028 8.06604C258.028 7.36012 258.192 6.73092 258.52 6.17846C258.847 5.626 259.297 5.19119 259.87 4.87404C260.443 4.54665 261.087 4.38296 261.804 4.38296C262.54 4.38296 263.19 4.54665 263.753 4.87404C264.326 5.19119 264.776 5.63623 265.103 6.20915C265.43 6.77185 265.594 7.4215 265.594 8.15812C265.594 8.55712 265.548 8.951 265.456 9.33977C265.364 9.72854 265.216 10.1224 265.011 10.5214C264.817 10.9204 264.556 11.3348 264.228 11.7645L261.006 16H259.195ZM261.804 10.3833C262.244 10.3833 262.632 10.2861 262.97 10.0917C263.318 9.88712 263.589 9.61088 263.783 9.26304C263.978 8.90496 264.075 8.50596 264.075 8.06604C264.075 7.60565 263.973 7.20154 263.768 6.85369C263.574 6.50585 263.308 6.22962 262.97 6.025C262.632 5.82038 262.244 5.71808 261.804 5.71808C261.374 5.71808 260.99 5.82038 260.653 6.025C260.315 6.22962 260.044 6.50585 259.839 6.85369C259.645 7.20154 259.548 7.60565 259.548 8.06604C259.548 8.50596 259.645 8.90496 259.839 9.26304C260.034 9.61088 260.3 9.88712 260.637 10.0917C260.985 10.2861 261.374 10.3833 261.804 10.3833ZM267.246 16V14.9565L270.407 11.5343C271.031 10.8693 271.527 10.3219 271.896 9.89223C272.274 9.46254 272.551 9.07888 272.724 8.74127C272.898 8.40365 272.985 8.04558 272.985 7.66704C272.985 7.04296 272.801 6.56212 272.433 6.2245C272.065 5.88688 271.579 5.71808 270.975 5.71808C270.361 5.71808 269.839 5.89712 269.41 6.25519C268.98 6.60304 268.683 7.09923 268.52 7.74377L267.154 7.39081C267.287 6.77696 267.532 6.24496 267.89 5.79481C268.248 5.34465 268.694 4.99681 269.226 4.75127C269.758 4.50573 270.341 4.38296 270.975 4.38296C271.671 4.38296 272.279 4.52108 272.801 4.79731C273.333 5.06331 273.748 5.43673 274.044 5.91758C274.351 6.39842 274.505 6.956 274.505 7.59031C274.505 8.00977 274.418 8.419 274.244 8.818C274.07 9.217 273.814 9.64158 273.476 10.0917C273.139 10.5317 272.699 11.0432 272.157 11.6263L269.333 14.6956H274.75V16H267.246ZM281.175 16.1842C280.264 16.1842 279.466 15.9386 278.781 15.4475C278.105 14.9462 277.578 14.2557 277.2 13.3758C276.821 12.4857 276.632 11.4524 276.632 10.2759C276.632 9.09935 276.821 8.07115 277.2 7.19131C277.578 6.30123 278.105 5.61065 278.781 5.11958C279.456 4.6285 280.249 4.38296 281.159 4.38296C282.07 4.38296 282.863 4.6285 283.538 5.11958C284.213 5.61065 284.74 6.30123 285.119 7.19131C285.507 8.07115 285.702 9.09935 285.702 10.2759C285.702 11.4524 285.512 12.4857 285.134 13.3758C284.755 14.2659 284.223 14.9565 283.538 15.4475C282.863 15.9386 282.075 16.1842 281.175 16.1842ZM281.175 14.7877C281.788 14.7877 282.32 14.6035 282.771 14.2352C283.221 13.8567 283.569 13.3298 283.814 12.6545C284.07 11.9793 284.198 11.1864 284.198 10.2759C284.198 9.36535 284.07 8.57246 283.814 7.89723C283.569 7.222 283.216 6.70023 282.755 6.33192C282.305 5.96362 281.773 5.77946 281.159 5.77946C280.545 5.77946 280.013 5.96362 279.563 6.33192C279.113 6.70023 278.76 7.222 278.504 7.89723C278.259 8.57246 278.136 9.36535 278.136 10.2759C278.136 11.1762 278.259 11.964 278.504 12.6392C278.76 13.3144 279.113 13.8413 279.563 14.2198C280.024 14.5984 280.561 14.7877 281.175 14.7877Z" fill="white"/>
<path d="M249.296 5.48047H244.703C242.708 5.48047 241.519 6.6698 241.519 8.6648V13.2522C241.519 15.2527 242.708 16.442 244.703 16.442H249.29C251.285 16.442 252.475 15.2527 252.475 13.2577V8.6648C252.48 6.6698 251.291 5.48047 249.296 5.48047ZM243.968 8.61547C244.127 8.45653 244.39 8.45653 244.549 8.61547C244.939 9.0046 245.574 9.0046 245.963 8.61547C246.122 8.45653 246.385 8.45653 246.544 8.61547C246.703 8.77441 246.703 9.03749 246.544 9.19643C246.188 9.55268 245.722 9.72807 245.256 9.72807C244.791 9.72807 244.325 9.55268 243.968 9.19643C243.81 9.03201 243.81 8.77441 243.968 8.61547ZM246.999 14.6772C245.525 14.6772 244.325 13.4769 244.325 12.0026C244.325 11.6189 244.637 11.301 245.021 11.301H248.967C249.351 11.301 249.663 11.6135 249.663 12.0026C249.674 13.4769 248.474 14.6772 246.999 14.6772ZM250.03 9.19643C249.674 9.55268 249.208 9.72807 248.742 9.72807C248.276 9.72807 247.81 9.55268 247.454 9.19643C247.295 9.03749 247.295 8.77441 247.454 8.61547C247.613 8.45653 247.876 8.45653 248.035 8.61547C248.424 9.0046 249.06 9.0046 249.449 8.61547C249.608 8.45653 249.871 8.45653 250.03 8.61547C250.189 8.77441 250.189 9.03201 250.03 9.19643Z" fill="#E8604C"/>
</svg>
