<svg width="874" height="52" viewBox="0 0 874 52" fill="none" xmlns="http://www.w3.org/2000/svg">
<path d="M90.624 24V18.118L86.187 11.335H87.7L91.576 17.234H91.032L94.891 11.335H96.404L91.984 18.118V24H90.624ZM100.355 24.204C99.5054 24.204 98.7348 24 98.0434 23.592C97.3634 23.1727 96.8251 22.6003 96.4284 21.875C96.0318 21.1497 95.8334 20.328 95.8334 19.41C95.8334 18.492 96.0261 17.6817 96.4114 16.979C96.7968 16.265 97.3181 15.704 97.9754 15.296C98.6441 14.888 99.3921 14.684 100.219 14.684C100.877 14.684 101.46 14.8087 101.97 15.058C102.492 15.296 102.934 15.6247 103.296 16.044C103.659 16.452 103.937 16.9167 104.129 17.438C104.322 17.948 104.418 18.475 104.418 19.019C104.418 19.1323 104.413 19.2627 104.401 19.41C104.39 19.546 104.373 19.6877 104.35 19.835H96.6494V18.645H103.619L103.007 19.155C103.109 18.5317 103.036 17.9763 102.786 17.489C102.548 16.9903 102.203 16.5993 101.749 16.316C101.296 16.0213 100.786 15.874 100.219 15.874C99.6528 15.874 99.1258 16.0213 98.6384 16.316C98.1624 16.6107 97.7884 17.0243 97.5164 17.557C97.2444 18.0783 97.1368 18.7017 97.1934 19.427C97.1368 20.1523 97.2501 20.787 97.5334 21.331C97.8281 21.8637 98.2248 22.2773 98.7234 22.572C99.2334 22.8667 99.7774 23.014 100.355 23.014C101.024 23.014 101.585 22.8553 102.038 22.538C102.492 22.2207 102.86 21.824 103.143 21.348L104.231 21.926C104.05 22.334 103.772 22.7137 103.398 23.065C103.024 23.405 102.577 23.6827 102.055 23.898C101.545 24.102 100.979 24.204 100.355 24.204ZM109.135 24.204C108.557 24.204 108.042 24.0963 107.588 23.881C107.135 23.6543 106.778 23.3483 106.517 22.963C106.257 22.5777 106.126 22.1357 106.126 21.637C106.126 21.161 106.228 20.7303 106.432 20.345C106.636 19.9483 106.954 19.614 107.384 19.342C107.815 19.07 108.365 18.8773 109.033 18.764L112.603 18.169V19.325L109.339 19.869C108.682 19.9823 108.206 20.192 107.911 20.498C107.628 20.804 107.486 21.1667 107.486 21.586C107.486 21.994 107.645 22.3397 107.962 22.623C108.291 22.9063 108.71 23.048 109.22 23.048C109.844 23.048 110.388 22.9177 110.852 22.657C111.317 22.385 111.68 22.0223 111.94 21.569C112.201 21.1157 112.331 20.6113 112.331 20.056V17.744C112.331 17.2 112.133 16.758 111.736 16.418C111.34 16.078 110.824 15.908 110.189 15.908C109.634 15.908 109.147 16.0497 108.727 16.333C108.308 16.605 107.996 16.962 107.792 17.404L106.636 16.775C106.806 16.3897 107.073 16.0383 107.435 15.721C107.809 15.4037 108.234 15.1543 108.71 14.973C109.186 14.7803 109.679 14.684 110.189 14.684C110.858 14.684 111.447 14.8143 111.957 15.075C112.479 15.3357 112.881 15.6983 113.164 16.163C113.459 16.6163 113.606 17.1433 113.606 17.744V24H112.331V22.181L112.518 22.368C112.36 22.708 112.11 23.0197 111.77 23.303C111.442 23.575 111.051 23.796 110.597 23.966C110.155 24.1247 109.668 24.204 109.135 24.204ZM116.229 24V14.888H117.504V16.384L117.334 16.163C117.549 15.7323 117.872 15.3923 118.303 15.143C118.745 14.8937 119.278 14.769 119.901 14.769H120.479V16.044H119.68C119.023 16.044 118.496 16.248 118.099 16.656C117.702 17.064 117.504 17.642 117.504 18.39V24H116.229ZM125.135 24.204C124.262 24.204 123.497 23.983 122.84 23.541C122.183 23.099 121.707 22.4983 121.412 21.739L122.483 21.229C122.744 21.7843 123.106 22.2263 123.571 22.555C124.047 22.8837 124.568 23.048 125.135 23.048C125.679 23.048 126.138 22.9177 126.512 22.657C126.886 22.385 127.073 22.0337 127.073 21.603C127.073 21.2857 126.982 21.0363 126.801 20.855C126.62 20.6623 126.41 20.515 126.172 20.413C125.934 20.311 125.724 20.2373 125.543 20.192L124.234 19.818C123.395 19.58 122.789 19.2457 122.415 18.815C122.041 18.3843 121.854 17.8857 121.854 17.319C121.854 16.7863 121.99 16.3217 122.262 15.925C122.534 15.5283 122.902 15.2223 123.367 15.007C123.832 14.7917 124.347 14.684 124.914 14.684C125.685 14.684 126.382 14.888 127.005 15.296C127.64 15.6927 128.087 16.248 128.348 16.962L127.26 17.472C127.033 16.962 126.705 16.5653 126.274 16.282C125.855 15.9873 125.384 15.84 124.863 15.84C124.353 15.84 123.945 15.9703 123.639 16.231C123.333 16.4917 123.18 16.8203 123.18 17.217C123.18 17.523 123.259 17.7667 123.418 17.948C123.577 18.1293 123.758 18.2653 123.962 18.356C124.177 18.4467 124.364 18.5147 124.523 18.56L126.036 19.002C126.773 19.2173 127.345 19.5517 127.753 20.005C128.172 20.4583 128.382 20.991 128.382 21.603C128.382 22.1017 128.24 22.5493 127.957 22.946C127.685 23.3427 127.305 23.6543 126.818 23.881C126.331 24.0963 125.77 24.204 125.135 24.204ZM137.778 24.204C136.917 24.204 136.135 24 135.432 23.592C134.729 23.1727 134.168 22.606 133.749 21.892C133.341 21.1667 133.137 20.345 133.137 19.427C133.137 18.5203 133.341 17.71 133.749 16.996C134.157 16.282 134.707 15.721 135.398 15.313C136.101 14.8937 136.894 14.684 137.778 14.684C138.662 14.684 139.45 14.888 140.141 15.296C140.844 15.704 141.393 16.265 141.79 16.979C142.198 17.693 142.402 18.509 142.402 19.427C142.402 20.3563 142.192 21.1837 141.773 21.909C141.354 22.623 140.793 23.184 140.09 23.592C139.399 24 138.628 24.204 137.778 24.204ZM137.778 22.929C138.39 22.929 138.94 22.776 139.427 22.47C139.926 22.164 140.317 21.7447 140.6 21.212C140.895 20.6793 141.042 20.0843 141.042 19.427C141.042 18.7697 140.895 18.1803 140.6 17.659C140.317 17.1377 139.926 16.724 139.427 16.418C138.94 16.112 138.39 15.959 137.778 15.959C137.166 15.959 136.611 16.112 136.112 16.418C135.625 16.724 135.234 17.1377 134.939 17.659C134.644 18.1803 134.497 18.7697 134.497 19.427C134.497 20.0843 134.644 20.6793 134.939 21.212C135.234 21.7447 135.625 22.164 136.112 22.47C136.611 22.776 137.166 22.929 137.778 22.929ZM145.254 24V16.163H143.435V14.888H145.254V14.072C145.254 13.4373 145.395 12.9047 145.679 12.474C145.962 12.032 146.336 11.6977 146.801 11.471C147.265 11.2443 147.764 11.131 148.297 11.131C148.41 11.131 148.54 11.1423 148.688 11.165C148.835 11.1763 148.954 11.1933 149.045 11.216V12.372C148.965 12.3493 148.858 12.338 148.722 12.338C148.586 12.3267 148.489 12.321 148.433 12.321C147.889 12.321 147.435 12.4513 147.073 12.712C146.71 12.9727 146.529 13.426 146.529 14.072V14.888H148.756V16.163H146.529V24H145.254ZM87.496 45V32.335H95.656V33.61H88.856V38.013H95.316V39.288H88.856V43.725H95.656V45H87.496ZM96.5962 45L99.7922 40.444L96.6132 35.888H98.1772L100.999 39.985H100.132L102.937 35.888H104.501L101.322 40.444L104.501 45H102.937L100.132 40.903H100.999L98.1772 45H96.5962ZM106.002 48.4V35.888H107.277V37.928L107.073 37.571C107.436 36.993 107.918 36.534 108.518 36.194C109.13 35.854 109.827 35.684 110.609 35.684C111.471 35.684 112.236 35.8937 112.904 36.313C113.584 36.721 114.117 37.282 114.502 37.996C114.899 38.71 115.097 39.526 115.097 40.444C115.097 41.3507 114.899 42.1667 114.502 42.892C114.117 43.606 113.584 44.1727 112.904 44.592C112.236 45 111.471 45.204 110.609 45.204C109.827 45.204 109.119 45.0283 108.484 44.677C107.861 44.3143 107.391 43.8043 107.073 43.147L107.277 42.96V48.4H106.002ZM110.541 43.929C111.153 43.929 111.697 43.776 112.173 43.47C112.661 43.164 113.04 42.7503 113.312 42.229C113.596 41.6963 113.737 41.1013 113.737 40.444C113.737 39.7753 113.596 39.1803 113.312 38.659C113.04 38.1377 112.661 37.724 112.173 37.418C111.697 37.112 111.153 36.959 110.541 36.959C109.929 36.959 109.374 37.112 108.875 37.418C108.388 37.724 107.997 38.1433 107.702 38.676C107.419 39.1973 107.277 39.7867 107.277 40.444C107.277 41.1013 107.419 41.6963 107.702 42.229C107.997 42.7503 108.388 43.164 108.875 43.47C109.374 43.776 109.929 43.929 110.541 43.929ZM121.489 45.204C120.639 45.204 119.869 45 119.177 44.592C118.497 44.1727 117.959 43.6003 117.562 42.875C117.166 42.1497 116.967 41.328 116.967 40.41C116.967 39.492 117.16 38.6817 117.545 37.979C117.931 37.265 118.452 36.704 119.109 36.296C119.778 35.888 120.526 35.684 121.353 35.684C122.011 35.684 122.594 35.8087 123.104 36.058C123.626 36.296 124.068 36.6247 124.43 37.044C124.793 37.452 125.071 37.9167 125.263 38.438C125.456 38.948 125.552 39.475 125.552 40.019C125.552 40.1323 125.547 40.2627 125.535 40.41C125.524 40.546 125.507 40.6877 125.484 40.835H117.783V39.645H124.753L124.141 40.155C124.243 39.5317 124.17 38.9763 123.92 38.489C123.682 37.9903 123.337 37.5993 122.883 37.316C122.43 37.0213 121.92 36.874 121.353 36.874C120.787 36.874 120.26 37.0213 119.772 37.316C119.296 37.6107 118.922 38.0243 118.65 38.557C118.378 39.0783 118.271 39.7017 118.327 40.427C118.271 41.1523 118.384 41.787 118.667 42.331C118.962 42.8637 119.359 43.2773 119.857 43.572C120.367 43.8667 120.911 44.014 121.489 44.014C122.158 44.014 122.719 43.8553 123.172 43.538C123.626 43.2207 123.994 42.824 124.277 42.348L125.365 42.926C125.184 43.334 124.906 43.7137 124.532 44.065C124.158 44.405 123.711 44.6827 123.189 44.898C122.679 45.102 122.113 45.204 121.489 45.204ZM127.8 45V35.888H129.075V37.384L128.905 37.163C129.121 36.7323 129.444 36.3923 129.874 36.143C130.316 35.8937 130.849 35.769 131.472 35.769H132.05V37.044H131.251C130.594 37.044 130.067 37.248 129.67 37.656C129.274 38.064 129.075 38.642 129.075 39.39V45H127.8ZM133.544 45V35.888H134.819V45H133.544ZM133.544 34.205V32.335H134.819V34.205H133.544ZM141.577 45.204C140.727 45.204 139.956 45 139.265 44.592C138.585 44.1727 138.047 43.6003 137.65 42.875C137.253 42.1497 137.055 41.328 137.055 40.41C137.055 39.492 137.248 38.6817 137.633 37.979C138.018 37.265 138.54 36.704 139.197 36.296C139.866 35.888 140.614 35.684 141.441 35.684C142.098 35.684 142.682 35.8087 143.192 36.058C143.713 36.296 144.155 36.6247 144.518 37.044C144.881 37.452 145.158 37.9167 145.351 38.438C145.544 38.948 145.64 39.475 145.64 40.019C145.64 40.1323 145.634 40.2627 145.623 40.41C145.612 40.546 145.595 40.6877 145.572 40.835H137.871V39.645H144.841L144.229 40.155C144.331 39.5317 144.257 38.9763 144.008 38.489C143.77 37.9903 143.424 37.5993 142.971 37.316C142.518 37.0213 142.008 36.874 141.441 36.874C140.874 36.874 140.347 37.0213 139.86 37.316C139.384 37.6107 139.01 38.0243 138.738 38.557C138.466 39.0783 138.358 39.7017 138.415 40.427C138.358 41.1523 138.472 41.787 138.755 42.331C139.05 42.8637 139.446 43.2773 139.945 43.572C140.455 43.8667 140.999 44.014 141.577 44.014C142.246 44.014 142.807 43.8553 143.26 43.538C143.713 43.2207 144.082 42.824 144.365 42.348L145.453 42.926C145.272 43.334 144.994 43.7137 144.62 44.065C144.246 44.405 143.798 44.6827 143.277 44.898C142.767 45.102 142.2 45.204 141.577 45.204ZM147.888 45V35.888H149.163V37.656L148.874 37.588C149.101 36.9987 149.469 36.534 149.979 36.194C150.5 35.854 151.101 35.684 151.781 35.684C152.427 35.684 153.005 35.8313 153.515 36.126C154.036 36.4207 154.444 36.8287 154.739 37.35C155.045 37.86 155.198 38.438 155.198 39.084V45H153.923V39.577C153.923 39.0217 153.821 38.5513 153.617 38.166C153.424 37.7807 153.147 37.486 152.784 37.282C152.433 37.0667 152.025 36.959 151.56 36.959C151.095 36.959 150.682 37.0667 150.319 37.282C149.956 37.486 149.673 37.7863 149.469 38.183C149.265 38.5683 149.163 39.033 149.163 39.577V45H147.888ZM161.798 45.204C160.903 45.204 160.115 44.9943 159.435 44.575C158.755 44.1557 158.223 43.589 157.837 42.875C157.452 42.1497 157.259 41.3337 157.259 40.427C157.259 39.5203 157.452 38.71 157.837 37.996C158.223 37.282 158.755 36.721 159.435 36.313C160.115 35.8937 160.903 35.684 161.798 35.684C162.365 35.684 162.898 35.786 163.396 35.99C163.895 36.194 164.337 36.4717 164.722 36.823C165.108 37.163 165.397 37.5597 165.589 38.013L164.433 38.608C164.207 38.1207 163.861 37.724 163.396 37.418C162.932 37.112 162.399 36.959 161.798 36.959C161.198 36.959 160.654 37.112 160.166 37.418C159.69 37.7127 159.311 38.1263 159.027 38.659C158.755 39.1803 158.619 39.7753 158.619 40.444C158.619 41.1013 158.755 41.6963 159.027 42.229C159.311 42.7503 159.69 43.164 160.166 43.47C160.654 43.776 161.198 43.929 161.798 43.929C162.399 43.929 162.926 43.776 163.379 43.47C163.844 43.164 164.195 42.756 164.433 42.246L165.589 42.875C165.397 43.317 165.108 43.7137 164.722 44.065C164.337 44.4163 163.895 44.694 163.396 44.898C162.898 45.102 162.365 45.204 161.798 45.204ZM171.975 45.204C171.125 45.204 170.354 45 169.663 44.592C168.983 44.1727 168.444 43.6003 168.048 42.875C167.651 42.1497 167.453 41.328 167.453 40.41C167.453 39.492 167.645 38.6817 168.031 37.979C168.416 37.265 168.937 36.704 169.595 36.296C170.263 35.888 171.011 35.684 171.839 35.684C172.496 35.684 173.08 35.8087 173.59 36.058C174.111 36.296 174.553 36.6247 174.916 37.044C175.278 37.452 175.556 37.9167 175.749 38.438C175.941 38.948 176.038 39.475 176.038 40.019C176.038 40.1323 176.032 40.2627 176.021 40.41C176.009 40.546 175.992 40.6877 175.97 40.835H168.269V39.645H175.239L174.627 40.155C174.729 39.5317 174.655 38.9763 174.406 38.489C174.168 37.9903 173.822 37.5993 173.369 37.316C172.915 37.0213 172.405 36.874 171.839 36.874C171.272 36.874 170.745 37.0213 170.258 37.316C169.782 37.6107 169.408 38.0243 169.136 38.557C168.864 39.0783 168.756 39.7017 168.813 40.427C168.756 41.1523 168.869 41.787 169.153 42.331C169.447 42.8637 169.844 43.2773 170.343 43.572C170.853 43.8667 171.397 44.014 171.975 44.014C172.643 44.014 173.204 43.8553 173.658 43.538C174.111 43.2207 174.479 42.824 174.763 42.348L175.851 42.926C175.669 43.334 175.392 43.7137 175.018 44.065C174.644 44.405 174.196 44.6827 173.675 44.898C173.165 45.102 172.598 45.204 171.975 45.204Z" fill="white"/>
<path d="M61.178 44V36.776H45.806V33.374L61.094 12.71H65.042V33.374H69.116V36.776H65.042V44H61.178ZM48.914 34.844L48.326 33.374H61.178V16.154L62.396 16.49L48.914 34.844Z" fill="white"/>
<path d="M28.5832 15.351L20.1041 12.1752C19.2253 11.8514 17.7916 11.8514 16.9128 12.1752L8.43363 15.351C6.79947 15.9677 5.47363 17.8793 5.47363 19.6214V32.1089C5.47363 33.3577 6.29072 35.0073 7.2928 35.7473L15.772 42.0835C17.2674 43.2089 19.7186 43.2089 21.2141 42.0835L29.6932 35.7473C30.6953 34.9918 31.5124 33.3577 31.5124 32.1089V19.6214C31.5278 17.8793 30.202 15.9677 28.5832 15.351ZM23.8657 23.9843L17.2366 30.6135C17.0053 30.8448 16.7124 30.9527 16.4195 30.9527C16.1266 30.9527 15.8336 30.8448 15.6024 30.6135L13.1357 28.116C12.6886 27.6689 12.6886 26.9289 13.1357 26.4818C13.5828 26.0348 14.3228 26.0348 14.7699 26.4818L16.4349 28.1468L22.247 22.3348C22.6941 21.8877 23.4341 21.8877 23.8811 22.3348C24.3282 22.7818 24.3282 23.5373 23.8657 23.9843Z" fill="#E8604C"/>
<path d="M454.496 24V11.335H459.817C460.531 11.335 461.149 11.471 461.67 11.743C462.203 12.0037 462.611 12.372 462.894 12.848C463.189 13.324 463.336 13.8793 463.336 14.514C463.336 15.1713 463.172 15.755 462.843 16.265C462.526 16.7637 462.067 17.1433 461.466 17.404L461.449 16.996C461.948 17.1773 462.373 17.4323 462.724 17.761C463.087 18.0897 463.364 18.475 463.557 18.917C463.75 19.3477 463.846 19.8123 463.846 20.311C463.846 21.4443 463.483 22.3453 462.758 23.014C462.044 23.6713 461.069 24 459.834 24H454.496ZM455.856 22.725H459.834C460.639 22.725 461.279 22.5153 461.755 22.096C462.242 21.6653 462.486 21.076 462.486 20.328C462.486 19.5913 462.242 19.0077 461.755 18.577C461.279 18.135 460.639 17.914 459.834 17.914H455.856V22.725ZM455.856 16.69H459.715C460.395 16.69 460.939 16.4917 461.347 16.095C461.766 15.6983 461.976 15.1883 461.976 14.565C461.976 13.9303 461.766 13.4487 461.347 13.12C460.939 12.78 460.395 12.61 459.715 12.61H455.856V16.69ZM470.244 24.204C469.394 24.204 468.623 24 467.932 23.592C467.252 23.1727 466.714 22.6003 466.317 21.875C465.92 21.1497 465.722 20.328 465.722 19.41C465.722 18.492 465.915 17.6817 466.3 16.979C466.685 16.265 467.207 15.704 467.864 15.296C468.533 14.888 469.281 14.684 470.108 14.684C470.765 14.684 471.349 14.8087 471.859 15.058C472.38 15.296 472.822 15.6247 473.185 16.044C473.548 16.452 473.825 16.9167 474.018 17.438C474.211 17.948 474.307 18.475 474.307 19.019C474.307 19.1323 474.301 19.2627 474.29 19.41C474.279 19.546 474.262 19.6877 474.239 19.835H466.538V18.645H473.508L472.896 19.155C472.998 18.5317 472.924 17.9763 472.675 17.489C472.437 16.9903 472.091 16.5993 471.638 16.316C471.185 16.0213 470.675 15.874 470.108 15.874C469.541 15.874 469.014 16.0213 468.527 16.316C468.051 16.6107 467.677 17.0243 467.405 17.557C467.133 18.0783 467.025 18.7017 467.082 19.427C467.025 20.1523 467.139 20.787 467.422 21.331C467.717 21.8637 468.113 22.2773 468.612 22.572C469.122 22.8667 469.666 23.014 470.244 23.014C470.913 23.014 471.474 22.8553 471.927 22.538C472.38 22.2207 472.749 21.824 473.032 21.348L474.12 21.926C473.939 22.334 473.661 22.7137 473.287 23.065C472.913 23.405 472.465 23.6827 471.944 23.898C471.434 24.102 470.867 24.204 470.244 24.204ZM479.717 24.204C478.844 24.204 478.079 23.983 477.422 23.541C476.765 23.099 476.289 22.4983 475.994 21.739L477.065 21.229C477.326 21.7843 477.688 22.2263 478.153 22.555C478.629 22.8837 479.15 23.048 479.717 23.048C480.261 23.048 480.72 22.9177 481.094 22.657C481.468 22.385 481.655 22.0337 481.655 21.603C481.655 21.2857 481.564 21.0363 481.383 20.855C481.202 20.6623 480.992 20.515 480.754 20.413C480.516 20.311 480.306 20.2373 480.125 20.192L478.816 19.818C477.977 19.58 477.371 19.2457 476.997 18.815C476.623 18.3843 476.436 17.8857 476.436 17.319C476.436 16.7863 476.572 16.3217 476.844 15.925C477.116 15.5283 477.484 15.2223 477.949 15.007C478.414 14.7917 478.929 14.684 479.496 14.684C480.267 14.684 480.964 14.888 481.587 15.296C482.222 15.6927 482.669 16.248 482.93 16.962L481.842 17.472C481.615 16.962 481.287 16.5653 480.856 16.282C480.437 15.9873 479.966 15.84 479.445 15.84C478.935 15.84 478.527 15.9703 478.221 16.231C477.915 16.4917 477.762 16.8203 477.762 17.217C477.762 17.523 477.841 17.7667 478 17.948C478.159 18.1293 478.34 18.2653 478.544 18.356C478.759 18.4467 478.946 18.5147 479.105 18.56L480.618 19.002C481.355 19.2173 481.927 19.5517 482.335 20.005C482.754 20.4583 482.964 20.991 482.964 21.603C482.964 22.1017 482.822 22.5493 482.539 22.946C482.267 23.3427 481.887 23.6543 481.4 23.881C480.913 24.0963 480.352 24.204 479.717 24.204ZM488.69 24.102C487.874 24.102 487.245 23.864 486.803 23.388C486.361 22.912 486.14 22.232 486.14 21.348V16.163H484.457V14.888H484.882C485.267 14.888 485.573 14.7633 485.8 14.514C486.026 14.2533 486.14 13.9303 486.14 13.545V12.78H487.415V14.888H489.421V16.163H487.415V21.348C487.415 21.654 487.46 21.926 487.551 22.164C487.641 22.3907 487.794 22.572 488.01 22.708C488.236 22.844 488.537 22.912 488.911 22.912C489.001 22.912 489.109 22.9063 489.234 22.895C489.358 22.8837 489.466 22.8723 489.557 22.861V24C489.421 24.034 489.268 24.0567 489.098 24.068C488.928 24.0907 488.792 24.102 488.69 24.102ZM454.496 45V32.335H458.661C459.919 32.335 461.013 32.5957 461.942 33.117C462.871 33.627 463.591 34.358 464.101 35.31C464.611 36.2507 464.866 37.367 464.866 38.659C464.866 39.9397 464.611 41.056 464.101 42.008C463.591 42.96 462.871 43.6967 461.942 44.218C461.013 44.7393 459.919 45 458.661 45H454.496ZM455.856 43.725H458.661C459.636 43.725 460.48 43.521 461.194 43.113C461.908 42.6937 462.458 42.1043 462.843 41.345C463.24 40.5857 463.438 39.6903 463.438 38.659C463.438 37.6277 463.24 36.738 462.843 35.99C462.446 35.2307 461.891 34.647 461.177 34.239C460.463 33.8197 459.624 33.61 458.661 33.61H455.856V43.725ZM471.074 45.204C470.224 45.204 469.454 45 468.762 44.592C468.082 44.1727 467.544 43.6003 467.147 42.875C466.751 42.1497 466.552 41.328 466.552 40.41C466.552 39.492 466.745 38.6817 467.13 37.979C467.516 37.265 468.037 36.704 468.694 36.296C469.363 35.888 470.111 35.684 470.938 35.684C471.596 35.684 472.179 35.8087 472.689 36.058C473.211 36.296 473.653 36.6247 474.015 37.044C474.378 37.452 474.656 37.9167 474.848 38.438C475.041 38.948 475.137 39.475 475.137 40.019C475.137 40.1323 475.132 40.2627 475.12 40.41C475.109 40.546 475.092 40.6877 475.069 40.835H467.368V39.645H474.338L473.726 40.155C473.828 39.5317 473.755 38.9763 473.505 38.489C473.267 37.9903 472.922 37.5993 472.468 37.316C472.015 37.0213 471.505 36.874 470.938 36.874C470.372 36.874 469.845 37.0213 469.357 37.316C468.881 37.6107 468.507 38.0243 468.235 38.557C467.963 39.0783 467.856 39.7017 467.912 40.427C467.856 41.1523 467.969 41.787 468.252 42.331C468.547 42.8637 468.944 43.2773 469.442 43.572C469.952 43.8667 470.496 44.014 471.074 44.014C471.743 44.014 472.304 43.8553 472.757 43.538C473.211 43.2207 473.579 42.824 473.862 42.348L474.95 42.926C474.769 43.334 474.491 43.7137 474.117 44.065C473.743 44.405 473.296 44.6827 472.774 44.898C472.264 45.102 471.698 45.204 471.074 45.204ZM480.547 45.204C479.675 45.204 478.91 44.983 478.252 44.541C477.595 44.099 477.119 43.4983 476.824 42.739L477.895 42.229C478.156 42.7843 478.519 43.2263 478.983 43.555C479.459 43.8837 479.981 44.048 480.547 44.048C481.091 44.048 481.55 43.9177 481.924 43.657C482.298 43.385 482.485 43.0337 482.485 42.603C482.485 42.2857 482.395 42.0363 482.213 41.855C482.032 41.6623 481.822 41.515 481.584 41.413C481.346 41.311 481.137 41.2373 480.955 41.192L479.646 40.818C478.808 40.58 478.201 40.2457 477.827 39.815C477.453 39.3843 477.266 38.8857 477.266 38.319C477.266 37.7863 477.402 37.3217 477.674 36.925C477.946 36.5283 478.315 36.2223 478.779 36.007C479.244 35.7917 479.76 35.684 480.326 35.684C481.097 35.684 481.794 35.888 482.417 36.296C483.052 36.6927 483.5 37.248 483.76 37.962L482.672 38.472C482.446 37.962 482.117 37.5653 481.686 37.282C481.267 36.9873 480.797 36.84 480.275 36.84C479.765 36.84 479.357 36.9703 479.051 37.231C478.745 37.4917 478.592 37.8203 478.592 38.217C478.592 38.523 478.672 38.7667 478.83 38.948C478.989 39.1293 479.17 39.2653 479.374 39.356C479.59 39.4467 479.777 39.5147 479.935 39.56L481.448 40.002C482.185 40.2173 482.757 40.5517 483.165 41.005C483.585 41.4583 483.794 41.991 483.794 42.603C483.794 43.1017 483.653 43.5493 483.369 43.946C483.097 44.3427 482.718 44.6543 482.23 44.881C481.743 45.0963 481.182 45.204 480.547 45.204ZM489.52 45.102C488.704 45.102 488.075 44.864 487.633 44.388C487.191 43.912 486.97 43.232 486.97 42.348V37.163H485.287V35.888H485.712C486.097 35.888 486.403 35.7633 486.63 35.514C486.856 35.2533 486.97 34.9303 486.97 34.545V33.78H488.245V35.888H490.251V37.163H488.245V42.348C488.245 42.654 488.29 42.926 488.381 43.164C488.471 43.3907 488.624 43.572 488.84 43.708C489.066 43.844 489.367 43.912 489.741 43.912C489.831 43.912 489.939 43.9063 490.064 43.895C490.188 43.8837 490.296 43.8723 490.387 43.861V45C490.251 45.034 490.098 45.0567 489.928 45.068C489.758 45.0907 489.622 45.102 489.52 45.102ZM492.625 45V35.888H493.9V45H492.625ZM492.625 34.205V32.335H493.9V34.205H492.625ZM496.51 45V35.888H497.785V37.656L497.496 37.588C497.723 36.9987 498.091 36.534 498.601 36.194C499.123 35.854 499.723 35.684 500.403 35.684C501.049 35.684 501.627 35.8313 502.137 36.126C502.659 36.4207 503.067 36.8287 503.361 37.35C503.667 37.86 503.82 38.438 503.82 39.084V45H502.545V39.577C502.545 39.0217 502.443 38.5513 502.239 38.166C502.047 37.7807 501.769 37.486 501.406 37.282C501.055 37.0667 500.647 36.959 500.182 36.959C499.718 36.959 499.304 37.0667 498.941 37.282C498.579 37.486 498.295 37.7863 498.091 38.183C497.887 38.5683 497.785 39.033 497.785 39.577V45H496.51ZM508.89 45.204C508.312 45.204 507.797 45.0963 507.343 44.881C506.89 44.6543 506.533 44.3483 506.272 43.963C506.012 43.5777 505.881 43.1357 505.881 42.637C505.881 42.161 505.983 41.7303 506.187 41.345C506.391 40.9483 506.709 40.614 507.139 40.342C507.57 40.07 508.12 39.8773 508.788 39.764L512.358 39.169V40.325L509.094 40.869C508.437 40.9823 507.961 41.192 507.666 41.498C507.383 41.804 507.241 42.1667 507.241 42.586C507.241 42.994 507.4 43.3397 507.717 43.623C508.046 43.9063 508.465 44.048 508.975 44.048C509.599 44.048 510.143 43.9177 510.607 43.657C511.072 43.385 511.435 43.0223 511.695 42.569C511.956 42.1157 512.086 41.6113 512.086 41.056V38.744C512.086 38.2 511.888 37.758 511.491 37.418C511.095 37.078 510.579 36.908 509.944 36.908C509.389 36.908 508.902 37.0497 508.482 37.333C508.063 37.605 507.751 37.962 507.547 38.404L506.391 37.775C506.561 37.3897 506.828 37.0383 507.19 36.721C507.564 36.4037 507.989 36.1543 508.465 35.973C508.941 35.7803 509.434 35.684 509.944 35.684C510.613 35.684 511.202 35.8143 511.712 36.075C512.234 36.3357 512.636 36.6983 512.919 37.163C513.214 37.6163 513.361 38.1433 513.361 38.744V45H512.086V43.181L512.273 43.368C512.115 43.708 511.865 44.0197 511.525 44.303C511.197 44.575 510.806 44.796 510.352 44.966C509.91 45.1247 509.423 45.204 508.89 45.204ZM519.303 45.102C518.487 45.102 517.858 44.864 517.416 44.388C516.974 43.912 516.753 43.232 516.753 42.348V37.163H515.07V35.888H515.495C515.88 35.888 516.186 35.7633 516.413 35.514C516.639 35.2533 516.753 34.9303 516.753 34.545V33.78H518.028V35.888H520.034V37.163H518.028V42.348C518.028 42.654 518.073 42.926 518.164 43.164C518.254 43.3907 518.407 43.572 518.623 43.708C518.849 43.844 519.15 43.912 519.524 43.912C519.614 43.912 519.722 43.9063 519.847 43.895C519.971 43.8837 520.079 43.8723 520.17 43.861V45C520.034 45.034 519.881 45.0567 519.711 45.068C519.541 45.0907 519.405 45.102 519.303 45.102ZM522.409 45V35.888H523.684V45H522.409ZM522.409 34.205V32.335H523.684V34.205H522.409ZM530.56 45.204C529.699 45.204 528.917 45 528.214 44.592C527.512 44.1727 526.951 43.606 526.531 42.892C526.123 42.1667 525.919 41.345 525.919 40.427C525.919 39.5203 526.123 38.71 526.531 37.996C526.939 37.282 527.489 36.721 528.18 36.313C528.883 35.8937 529.676 35.684 530.56 35.684C531.444 35.684 532.232 35.888 532.923 36.296C533.626 36.704 534.176 37.265 534.572 37.979C534.98 38.693 535.184 39.509 535.184 40.427C535.184 41.3563 534.975 42.1837 534.555 42.909C534.136 43.623 533.575 44.184 532.872 44.592C532.181 45 531.41 45.204 530.56 45.204ZM530.56 43.929C531.172 43.929 531.722 43.776 532.209 43.47C532.708 43.164 533.099 42.7447 533.382 42.212C533.677 41.6793 533.824 41.0843 533.824 40.427C533.824 39.7697 533.677 39.1803 533.382 38.659C533.099 38.1377 532.708 37.724 532.209 37.418C531.722 37.112 531.172 36.959 530.56 36.959C529.948 36.959 529.393 37.112 528.894 37.418C528.407 37.724 528.016 38.1377 527.721 38.659C527.427 39.1803 527.279 39.7697 527.279 40.427C527.279 41.0843 527.427 41.6793 527.721 42.212C528.016 42.7447 528.407 43.164 528.894 43.47C529.393 43.776 529.948 43.929 530.56 43.929ZM537.433 45V35.888H538.708V37.656L538.419 37.588C538.646 36.9987 539.014 36.534 539.524 36.194C540.045 35.854 540.646 35.684 541.326 35.684C541.972 35.684 542.55 35.8313 543.06 36.126C543.581 36.4207 543.989 36.8287 544.284 37.35C544.59 37.86 544.743 38.438 544.743 39.084V45H543.468V39.577C543.468 39.0217 543.366 38.5513 543.162 38.166C542.969 37.7807 542.692 37.486 542.329 37.282C541.978 37.0667 541.57 36.959 541.105 36.959C540.64 36.959 540.227 37.0667 539.864 37.282C539.501 37.486 539.218 37.7863 539.014 38.183C538.81 38.5683 538.708 39.033 538.708 39.577V45H537.433Z" fill="white"/>
<path d="M366.268 44V41.144L374.92 31.778C376.628 29.958 377.986 28.46 378.994 27.284C380.03 26.108 380.786 25.058 381.262 24.134C381.738 23.21 381.976 22.23 381.976 21.194C381.976 19.486 381.472 18.17 380.464 17.246C379.456 16.322 378.126 15.86 376.474 15.86C374.794 15.86 373.366 16.35 372.19 17.33C371.014 18.282 370.202 19.64 369.754 21.404L366.016 20.438C366.38 18.758 367.052 17.302 368.032 16.07C369.012 14.838 370.23 13.886 371.686 13.214C373.142 12.542 374.738 12.206 376.474 12.206C378.378 12.206 380.044 12.584 381.472 13.34C382.928 14.068 384.062 15.09 384.874 16.406C385.714 17.722 386.134 19.248 386.134 20.984C386.134 22.132 385.896 23.252 385.42 24.344C384.944 25.436 384.244 26.598 383.32 27.83C382.396 29.034 381.192 30.434 379.708 32.03L371.98 40.43H386.806V44H366.268ZM401.743 44.504C400.119 44.504 398.593 44.224 397.165 43.664C395.737 43.076 394.491 42.25 393.427 41.186C392.391 40.094 391.635 38.82 391.159 37.364L394.519 35.936C395.107 37.476 396.059 38.68 397.375 39.548C398.719 40.388 400.175 40.808 401.743 40.808C403.031 40.808 404.165 40.528 405.145 39.968C406.153 39.38 406.937 38.582 407.497 37.574C408.057 36.538 408.337 35.39 408.337 34.13C408.337 32.814 408.043 31.652 407.455 30.644C406.895 29.636 406.125 28.852 405.145 28.292C404.165 27.704 403.045 27.41 401.785 27.41C400.497 27.41 399.321 27.704 398.257 28.292C397.193 28.88 396.423 29.622 395.947 30.518L392.629 29.804L395.023 12.71H411.235V16.28H396.577L398.173 14.684L396.325 27.956L394.897 27.116C395.821 25.94 396.899 25.1 398.131 24.596C399.391 24.064 400.749 23.798 402.205 23.798C404.249 23.798 406.041 24.26 407.581 25.184C409.121 26.108 410.325 27.34 411.193 28.88C412.061 30.42 412.495 32.17 412.495 34.13C412.495 36.09 412.019 37.854 411.067 39.422C410.143 40.99 408.869 42.236 407.245 43.16C405.649 44.056 403.815 44.504 401.743 44.504ZM426.321 44V35.306H417.627V31.652H426.321V23H429.975V31.652H438.627V35.306H429.975V44H426.321Z" fill="white"/>
<path d="M344.61 14.9167H332.389C327.081 14.9167 323.917 18.0813 323.917 23.3897V35.5959C323.917 40.9188 327.081 44.0834 332.389 44.0834H344.596C349.904 44.0834 353.069 40.9188 353.069 35.6105V23.3897C353.083 18.0813 349.919 14.9167 344.61 14.9167ZM347.994 31.2355C347.994 32.1105 347.323 32.548 346.521 32.198L341.635 30.098C341.067 29.8647 340.614 30.1563 340.614 30.7688V33.4668C340.614 33.7001 340.746 34.0355 340.921 34.2105L343.312 36.6167C343.56 36.8647 343.677 37.3605 343.56 37.6959L343.094 39.0959C342.889 39.7084 342.189 40.0001 341.621 39.7084L339.185 37.6376C338.806 37.3313 338.194 37.3313 337.829 37.6376L335.379 39.7084C334.796 40.0001 334.11 39.7084 333.906 39.0813L333.439 37.6813C333.323 37.3459 333.439 36.8501 333.687 36.6022L336.123 34.2105C336.283 34.0501 336.429 33.7147 336.429 33.4668V30.7688C336.429 30.1563 335.962 29.8501 335.408 30.098L330.523 32.198C329.706 32.548 329.05 32.1105 329.05 31.2355V29.8792C329.05 29.1792 329.589 28.3626 330.231 28.0855L335.977 25.6063C336.21 25.5042 336.414 25.198 336.414 24.9355V21.9167C336.414 20.9251 337.129 19.7438 338.019 19.3063C338.339 19.1459 338.704 19.1459 339.025 19.3063C339.9 19.7584 340.629 20.9251 340.629 21.9167V24.9355C340.629 25.198 340.819 25.5042 341.067 25.6063L346.812 28.0855C347.469 28.3626 347.994 29.1792 347.994 29.8792V31.2355Z" fill="#E8604C"/>
<path d="M794.496 24V11.335H795.856V17.03H802.656V11.335H804.016V24H802.656V18.305H795.856V24H794.496ZM809.462 24.204C808.884 24.204 808.368 24.0963 807.915 23.881C807.461 23.6543 807.104 23.3483 806.844 22.963C806.583 22.5777 806.453 22.1357 806.453 21.637C806.453 21.161 806.555 20.7303 806.759 20.345C806.963 19.9483 807.28 19.614 807.711 19.342C808.141 19.07 808.691 18.8773 809.36 18.764L812.93 18.169V19.325L809.666 19.869C809.008 19.9823 808.532 20.192 808.238 20.498C807.954 20.804 807.813 21.1667 807.813 21.586C807.813 21.994 807.971 22.3397 808.289 22.623C808.617 22.9063 809.037 23.048 809.547 23.048C810.17 23.048 810.714 22.9177 811.179 22.657C811.643 22.385 812.006 22.0223 812.267 21.569C812.527 21.1157 812.658 20.6113 812.658 20.056V17.744C812.658 17.2 812.459 16.758 812.063 16.418C811.666 16.078 811.15 15.908 810.516 15.908C809.96 15.908 809.473 16.0497 809.054 16.333C808.634 16.605 808.323 16.962 808.119 17.404L806.963 16.775C807.133 16.3897 807.399 16.0383 807.762 15.721C808.136 15.4037 808.561 15.1543 809.037 14.973C809.513 14.7803 810.006 14.684 810.516 14.684C811.184 14.684 811.774 14.8143 812.284 15.075C812.805 15.3357 813.207 15.6983 813.491 16.163C813.785 16.6163 813.933 17.1433 813.933 17.744V24H812.658V22.181L812.845 22.368C812.686 22.708 812.437 23.0197 812.097 23.303C811.768 23.575 811.377 23.796 810.924 23.966C810.482 24.1247 809.994 24.204 809.462 24.204ZM816.555 27.4V14.888H817.83V16.928L817.626 16.571C817.989 15.993 818.47 15.534 819.071 15.194C819.683 14.854 820.38 14.684 821.162 14.684C822.023 14.684 822.788 14.8937 823.457 15.313C824.137 15.721 824.67 16.282 825.055 16.996C825.452 17.71 825.65 18.526 825.65 19.444C825.65 20.3507 825.452 21.1667 825.055 21.892C824.67 22.606 824.137 23.1727 823.457 23.592C822.788 24 822.023 24.204 821.162 24.204C820.38 24.204 819.672 24.0283 819.037 23.677C818.414 23.3143 817.943 22.8043 817.626 22.147L817.83 21.96V27.4H816.555ZM821.094 22.929C821.706 22.929 822.25 22.776 822.726 22.47C823.213 22.164 823.593 21.7503 823.865 21.229C824.148 20.6963 824.29 20.1013 824.29 19.444C824.29 18.7753 824.148 18.1803 823.865 17.659C823.593 17.1377 823.213 16.724 822.726 16.418C822.25 16.112 821.706 15.959 821.094 15.959C820.482 15.959 819.927 16.112 819.428 16.418C818.941 16.724 818.55 17.1433 818.255 17.676C817.972 18.1973 817.83 18.7867 817.83 19.444C817.83 20.1013 817.972 20.6963 818.255 21.229C818.55 21.7503 818.941 22.164 819.428 22.47C819.927 22.776 820.482 22.929 821.094 22.929ZM827.894 27.4V14.888H829.169V16.928L828.965 16.571C829.328 15.993 829.809 15.534 830.41 15.194C831.022 14.854 831.719 14.684 832.501 14.684C833.362 14.684 834.127 14.8937 834.796 15.313C835.476 15.721 836.009 16.282 836.394 16.996C836.791 17.71 836.989 18.526 836.989 19.444C836.989 20.3507 836.791 21.1667 836.394 21.892C836.009 22.606 835.476 23.1727 834.796 23.592C834.127 24 833.362 24.204 832.501 24.204C831.719 24.204 831.011 24.0283 830.376 23.677C829.753 23.3143 829.282 22.8043 828.965 22.147L829.169 21.96V27.4H827.894ZM832.433 22.929C833.045 22.929 833.589 22.776 834.065 22.47C834.552 22.164 834.932 21.7503 835.204 21.229C835.487 20.6963 835.629 20.1013 835.629 19.444C835.629 18.7753 835.487 18.1803 835.204 17.659C834.932 17.1377 834.552 16.724 834.065 16.418C833.589 16.112 833.045 15.959 832.433 15.959C831.821 15.959 831.266 16.112 830.767 16.418C830.28 16.724 829.889 17.1433 829.594 17.676C829.311 18.1973 829.169 18.7867 829.169 19.444C829.169 20.1013 829.311 20.6963 829.594 21.229C829.889 21.7503 830.28 22.164 830.767 22.47C831.266 22.776 831.821 22.929 832.433 22.929ZM839.254 27.74C839.072 27.74 838.885 27.723 838.693 27.689C838.511 27.6663 838.33 27.621 838.149 27.553V26.363C838.262 26.3743 838.404 26.3913 838.574 26.414C838.755 26.448 838.936 26.465 839.118 26.465C839.673 26.465 840.098 26.346 840.393 26.108C840.687 25.8813 840.976 25.4393 841.26 24.782L841.838 23.422L841.804 24.544L837.945 14.888H839.322L842.484 22.861H842.127L845.272 14.888H846.683L842.518 25.156C842.336 25.598 842.104 26.0173 841.821 26.414C841.549 26.8107 841.203 27.128 840.784 27.366C840.364 27.6153 839.854 27.74 839.254 27.74ZM800.276 45.204C799.381 45.204 798.559 45.0453 797.811 44.728C797.063 44.3993 796.411 43.946 795.856 43.368C795.312 42.7787 794.887 42.0873 794.581 41.294C794.275 40.5007 794.122 39.628 794.122 38.676C794.122 37.724 794.275 36.8513 794.581 36.058C794.887 35.2647 795.312 34.5733 795.856 33.984C796.411 33.3947 797.063 32.9413 797.811 32.624C798.559 32.2953 799.381 32.131 800.276 32.131C801.137 32.131 801.908 32.284 802.588 32.59C803.279 32.896 803.857 33.2927 804.322 33.78C804.798 34.256 805.138 34.7603 805.342 35.293L804.067 35.854C803.75 35.1173 803.262 34.528 802.605 34.086C801.959 33.6327 801.183 33.406 800.276 33.406C799.347 33.406 798.519 33.627 797.794 34.069C797.069 34.511 796.502 35.1287 796.094 35.922C795.686 36.704 795.482 37.622 795.482 38.676C795.482 39.7187 795.686 40.6367 796.094 41.43C796.502 42.2233 797.069 42.841 797.794 43.283C798.519 43.7137 799.347 43.929 800.276 43.929C801.183 43.929 801.959 43.708 802.605 43.266C803.262 42.824 803.75 42.2347 804.067 41.498L805.342 42.059C805.138 42.5803 804.798 43.0847 804.322 43.572C803.857 44.048 803.279 44.439 802.588 44.745C801.908 45.051 801.137 45.204 800.276 45.204ZM810.82 45.204C810.186 45.204 809.608 45.0567 809.086 44.762C808.565 44.456 808.151 44.0367 807.845 43.504C807.551 42.96 807.403 42.3367 807.403 41.634V35.888H808.678V41.481C808.678 41.9683 808.775 42.399 808.967 42.773C809.171 43.1357 809.449 43.419 809.8 43.623C810.163 43.827 810.577 43.929 811.041 43.929C811.506 43.929 811.92 43.827 812.282 43.623C812.645 43.4077 812.928 43.1073 813.132 42.722C813.336 42.3253 813.438 41.855 813.438 41.311V35.888H814.713V45H813.438V43.232L813.727 43.3C813.512 43.8893 813.144 44.354 812.622 44.694C812.101 45.034 811.5 45.204 810.82 45.204ZM820.497 45.204C819.625 45.204 818.86 44.983 818.202 44.541C817.545 44.099 817.069 43.4983 816.774 42.739L817.845 42.229C818.106 42.7843 818.469 43.2263 818.933 43.555C819.409 43.8837 819.931 44.048 820.497 44.048C821.041 44.048 821.5 43.9177 821.874 43.657C822.248 43.385 822.435 43.0337 822.435 42.603C822.435 42.2857 822.345 42.0363 822.163 41.855C821.982 41.6623 821.772 41.515 821.534 41.413C821.296 41.311 821.087 41.2373 820.905 41.192L819.596 40.818C818.758 40.58 818.151 40.2457 817.777 39.815C817.403 39.3843 817.216 38.8857 817.216 38.319C817.216 37.7863 817.352 37.3217 817.624 36.925C817.896 36.5283 818.265 36.2223 818.729 36.007C819.194 35.7917 819.71 35.684 820.276 35.684C821.047 35.684 821.744 35.888 822.367 36.296C823.002 36.6927 823.45 37.248 823.71 37.962L822.622 38.472C822.396 37.962 822.067 37.5653 821.636 37.282C821.217 36.9873 820.747 36.84 820.225 36.84C819.715 36.84 819.307 36.9703 819.001 37.231C818.695 37.4917 818.542 37.8203 818.542 38.217C818.542 38.523 818.622 38.7667 818.78 38.948C818.939 39.1293 819.12 39.2653 819.324 39.356C819.54 39.4467 819.727 39.5147 819.885 39.56L821.398 40.002C822.135 40.2173 822.707 40.5517 823.115 41.005C823.535 41.4583 823.744 41.991 823.744 42.603C823.744 43.1017 823.603 43.5493 823.319 43.946C823.047 44.3427 822.668 44.6543 822.18 44.881C821.693 45.0963 821.132 45.204 820.497 45.204ZM829.47 45.102C828.654 45.102 828.025 44.864 827.583 44.388C827.141 43.912 826.92 43.232 826.92 42.348V37.163H825.237V35.888H825.662C826.047 35.888 826.353 35.7633 826.58 35.514C826.806 35.2533 826.92 34.9303 826.92 34.545V33.78H828.195V35.888H830.201V37.163H828.195V42.348C828.195 42.654 828.24 42.926 828.331 43.164C828.421 43.3907 828.574 43.572 828.79 43.708C829.016 43.844 829.317 43.912 829.691 43.912C829.781 43.912 829.889 43.9063 830.014 43.895C830.138 43.8837 830.246 43.8723 830.337 43.861V45C830.201 45.034 830.048 45.0567 829.878 45.068C829.708 45.0907 829.572 45.102 829.47 45.102ZM836.511 45.204C835.649 45.204 834.867 45 834.165 44.592C833.462 44.1727 832.901 43.606 832.482 42.892C832.074 42.1667 831.87 41.345 831.87 40.427C831.87 39.5203 832.074 38.71 832.482 37.996C832.89 37.282 833.439 36.721 834.131 36.313C834.833 35.8937 835.627 35.684 836.511 35.684C837.395 35.684 838.182 35.888 838.874 36.296C839.576 36.704 840.126 37.265 840.523 37.979C840.931 38.693 841.135 39.509 841.135 40.427C841.135 41.3563 840.925 42.1837 840.506 42.909C840.086 43.623 839.525 44.184 838.823 44.592C838.131 45 837.361 45.204 836.511 45.204ZM836.511 43.929C837.123 43.929 837.672 43.776 838.16 43.47C838.658 43.164 839.049 42.7447 839.333 42.212C839.627 41.6793 839.775 41.0843 839.775 40.427C839.775 39.7697 839.627 39.1803 839.333 38.659C839.049 38.1377 838.658 37.724 838.16 37.418C837.672 37.112 837.123 36.959 836.511 36.959C835.899 36.959 835.343 37.112 834.845 37.418C834.357 37.724 833.966 38.1377 833.672 38.659C833.377 39.1803 833.23 39.7697 833.23 40.427C833.23 41.0843 833.377 41.6793 833.672 42.212C833.966 42.7447 834.357 43.164 834.845 43.47C835.343 43.776 835.899 43.929 836.511 43.929ZM843.383 45V35.888H844.658V37.622L844.454 37.367C844.704 36.8343 845.072 36.4207 845.559 36.126C846.058 35.8313 846.602 35.684 847.191 35.684C847.894 35.684 848.529 35.8823 849.095 36.279C849.662 36.6757 850.064 37.1913 850.302 37.826L849.945 37.843C850.172 37.1403 850.563 36.6077 851.118 36.245C851.685 35.871 852.308 35.684 852.988 35.684C853.6 35.684 854.161 35.8313 854.671 36.126C855.193 36.4207 855.606 36.8287 855.912 37.35C856.23 37.86 856.388 38.438 856.388 39.084V45H855.113V39.577C855.113 39.0217 855.011 38.5513 854.807 38.166C854.615 37.7807 854.348 37.486 854.008 37.282C853.668 37.0667 853.277 36.959 852.835 36.959C852.405 36.959 852.014 37.0667 851.662 37.282C851.311 37.486 851.033 37.7863 850.829 38.183C850.625 38.5683 850.523 39.033 850.523 39.577V45H849.248V39.577C849.248 39.0217 849.146 38.5513 848.942 38.166C848.75 37.7807 848.483 37.486 848.143 37.282C847.803 37.0667 847.412 36.959 846.97 36.959C846.528 36.959 846.132 37.0667 845.78 37.282C845.44 37.486 845.168 37.7863 844.964 38.183C844.76 38.5683 844.658 39.033 844.658 39.577V45H843.383ZM862.971 45.204C862.121 45.204 861.35 45 860.659 44.592C859.979 44.1727 859.44 43.6003 859.044 42.875C858.647 42.1497 858.449 41.328 858.449 40.41C858.449 39.492 858.641 38.6817 859.027 37.979C859.412 37.265 859.933 36.704 860.591 36.296C861.259 35.888 862.007 35.684 862.835 35.684C863.492 35.684 864.076 35.8087 864.586 36.058C865.107 36.296 865.549 36.6247 865.912 37.044C866.274 37.452 866.552 37.9167 866.745 38.438C866.937 38.948 867.034 39.475 867.034 40.019C867.034 40.1323 867.028 40.2627 867.017 40.41C867.005 40.546 866.988 40.6877 866.966 40.835H859.265V39.645H866.235L865.623 40.155C865.725 39.5317 865.651 38.9763 865.402 38.489C865.164 37.9903 864.818 37.5993 864.365 37.316C863.911 37.0213 863.401 36.874 862.835 36.874C862.268 36.874 861.741 37.0213 861.254 37.316C860.778 37.6107 860.404 38.0243 860.132 38.557C859.86 39.0783 859.752 39.7017 859.809 40.427C859.752 41.1523 859.865 41.787 860.149 42.331C860.443 42.8637 860.84 43.2773 861.339 43.572C861.849 43.8667 862.393 44.014 862.971 44.014C863.639 44.014 864.2 43.8553 864.654 43.538C865.107 43.2207 865.475 42.824 865.759 42.348L866.847 42.926C866.665 43.334 866.388 43.7137 866.014 44.065C865.64 44.405 865.192 44.6827 864.671 44.898C864.161 45.102 863.594 45.204 862.971 45.204ZM869.282 45V35.888H870.557V37.384L870.387 37.163C870.602 36.7323 870.925 36.3923 871.356 36.143C871.798 35.8937 872.33 35.769 872.954 35.769H873.532V37.044H872.733C872.075 37.044 871.548 37.248 871.152 37.656C870.755 38.064 870.557 38.642 870.557 39.39V45H869.282Z" fill="white"/>
<path d="M709.376 44L720.17 29.93L720.926 30.014C720.506 30.574 720.044 31.022 719.54 31.358C719.036 31.666 718.476 31.89 717.86 32.03C717.272 32.17 716.628 32.24 715.928 32.24C714.08 32.24 712.414 31.82 710.93 30.98C709.474 30.112 708.312 28.936 707.444 27.452C706.604 25.94 706.184 24.218 706.184 22.286C706.184 20.354 706.632 18.632 707.528 17.12C708.424 15.608 709.656 14.418 711.224 13.55C712.792 12.654 714.556 12.206 716.516 12.206C718.532 12.206 720.31 12.654 721.85 13.55C723.418 14.418 724.65 15.636 725.546 17.204C726.442 18.744 726.89 20.522 726.89 22.538C726.89 23.63 726.764 24.708 726.512 25.772C726.26 26.836 725.854 27.914 725.294 29.006C724.762 30.098 724.048 31.232 723.152 32.408L714.332 44H709.376ZM716.516 28.628C717.72 28.628 718.784 28.362 719.708 27.83C720.66 27.27 721.402 26.514 721.934 25.562C722.466 24.582 722.732 23.49 722.732 22.286C722.732 21.026 722.452 19.92 721.892 18.968C721.36 18.016 720.632 17.26 719.708 16.7C718.784 16.14 717.72 15.86 716.516 15.86C715.34 15.86 714.29 16.14 713.366 16.7C712.442 17.26 711.7 18.016 711.14 18.968C710.608 19.92 710.342 21.026 710.342 22.286C710.342 23.49 710.608 24.582 711.14 25.562C711.672 26.514 712.4 27.27 713.324 27.83C714.276 28.362 715.34 28.628 716.516 28.628ZM731.411 44V41.144L740.063 31.778C741.771 29.958 743.129 28.46 744.137 27.284C745.173 26.108 745.929 25.058 746.405 24.134C746.881 23.21 747.119 22.23 747.119 21.194C747.119 19.486 746.615 18.17 745.607 17.246C744.599 16.322 743.269 15.86 741.617 15.86C739.937 15.86 738.509 16.35 737.333 17.33C736.157 18.282 735.345 19.64 734.897 21.404L731.159 20.438C731.523 18.758 732.195 17.302 733.175 16.07C734.155 14.838 735.373 13.886 736.829 13.214C738.285 12.542 739.881 12.206 741.617 12.206C743.521 12.206 745.187 12.584 746.615 13.34C748.071 14.068 749.205 15.09 750.017 16.406C750.857 17.722 751.277 19.248 751.277 20.984C751.277 22.132 751.039 23.252 750.563 24.344C750.087 25.436 749.387 26.598 748.463 27.83C747.539 29.034 746.335 30.434 744.851 32.03L737.123 40.43H751.949V44H731.411ZM769.531 44.504C767.039 44.504 764.855 43.832 762.979 42.488C761.131 41.116 759.689 39.226 758.653 36.818C757.617 34.382 757.099 31.554 757.099 28.334C757.099 25.114 757.617 22.3 758.653 19.892C759.689 17.456 761.131 15.566 762.979 14.222C764.827 12.878 766.997 12.206 769.489 12.206C771.981 12.206 774.151 12.878 775.999 14.222C777.847 15.566 779.289 17.456 780.325 19.892C781.389 22.3 781.921 25.114 781.921 28.334C781.921 31.554 781.403 34.382 780.367 36.818C779.331 39.254 777.875 41.144 775.999 42.488C774.151 43.832 771.995 44.504 769.531 44.504ZM769.531 40.682C771.211 40.682 772.667 40.178 773.899 39.17C775.131 38.134 776.083 36.692 776.755 34.844C777.455 32.996 777.805 30.826 777.805 28.334C777.805 25.842 777.455 23.672 776.755 21.824C776.083 19.976 775.117 18.548 773.857 17.54C772.625 16.532 771.169 16.028 769.489 16.028C767.809 16.028 766.353 16.532 765.121 17.54C763.889 18.548 762.923 19.976 762.223 21.824C761.551 23.672 761.215 25.842 761.215 28.334C761.215 30.798 761.551 32.954 762.223 34.802C762.923 36.65 763.889 38.092 765.121 39.128C766.381 40.164 767.851 40.682 769.531 40.682Z" fill="white"/>
<path d="M682.285 15H669.715C664.255 15 661 18.255 661 23.715V36.27C661 41.745 664.255 45 669.715 45H682.27C687.73 45 690.985 41.745 690.985 36.285V23.715C691 18.255 687.745 15 682.285 15ZM667.705 23.58C668.14 23.145 668.86 23.145 669.295 23.58C670.36 24.645 672.1 24.645 673.165 23.58C673.6 23.145 674.32 23.145 674.755 23.58C675.19 24.015 675.19 24.735 674.755 25.17C673.78 26.145 672.505 26.625 671.23 26.625C669.955 26.625 668.68 26.145 667.705 25.17C667.27 24.72 667.27 24.015 667.705 23.58ZM676 40.17C671.965 40.17 668.68 36.885 668.68 32.85C668.68 31.8 669.535 30.93 670.585 30.93H681.385C682.435 30.93 683.29 31.785 683.29 32.85C683.32 36.885 680.035 40.17 676 40.17ZM684.295 25.17C683.32 26.145 682.045 26.625 680.77 26.625C679.495 26.625 678.22 26.145 677.245 25.17C676.81 24.735 676.81 24.015 677.245 23.58C677.68 23.145 678.4 23.145 678.835 23.58C679.9 24.645 681.64 24.645 682.705 23.58C683.14 23.145 683.86 23.145 684.295 23.58C684.73 24.015 684.73 24.72 684.295 25.17Z" fill="#E8604C"/>
</svg>
