<svg width="880" height="70" viewBox="0 0 880 70" fill="none" xmlns="http://www.w3.org/2000/svg">
<path d="M89.689 24V12.61H86.187V11.335H94.517V12.61H91.049V24H89.689ZM97.6305 24.204C97.0525 24.204 96.5369 24.0963 96.0835 23.881C95.6302 23.6543 95.2732 23.3483 95.0125 22.963C94.7519 22.5777 94.6215 22.1357 94.6215 21.637C94.6215 21.161 94.7235 20.7303 94.9275 20.345C95.1315 19.9483 95.4489 19.614 95.8795 19.342C96.3102 19.07 96.8599 18.8773 97.5285 18.764L101.099 18.169V19.325L97.8345 19.869C97.1772 19.9823 96.7012 20.192 96.4065 20.498C96.1232 20.804 95.9815 21.1667 95.9815 21.586C95.9815 21.994 96.1402 22.3397 96.4575 22.623C96.7862 22.9063 97.2055 23.048 97.7155 23.048C98.3389 23.048 98.8829 22.9177 99.3475 22.657C99.8122 22.385 100.175 22.0223 100.436 21.569C100.696 21.1157 100.827 20.6113 100.827 20.056V17.744C100.827 17.2 100.628 16.758 100.232 16.418C99.8349 16.078 99.3192 15.908 98.6845 15.908C98.1292 15.908 97.6419 16.0497 97.2225 16.333C96.8032 16.605 96.4915 16.962 96.2875 17.404L95.1315 16.775C95.3015 16.3897 95.5679 16.0383 95.9305 15.721C96.3045 15.4037 96.7295 15.1543 97.2055 14.973C97.6815 14.7803 98.1745 14.684 98.6845 14.684C99.3532 14.684 99.9425 14.8143 100.453 15.075C100.974 15.3357 101.376 15.6983 101.66 16.163C101.954 16.6163 102.102 17.1433 102.102 17.744V24H100.827V22.181L101.014 22.368C100.855 22.708 100.606 23.0197 100.266 23.303C99.9369 23.575 99.5459 23.796 99.0925 23.966C98.6505 24.1247 98.1632 24.204 97.6305 24.204ZM104.724 24V11.131H105.999V16.656L105.71 16.588C105.937 15.9987 106.305 15.534 106.815 15.194C107.336 14.854 107.937 14.684 108.617 14.684C109.263 14.684 109.841 14.8313 110.351 15.126C110.872 15.4207 111.28 15.8287 111.575 16.35C111.881 16.86 112.034 17.438 112.034 18.084V24H110.759V18.577C110.759 18.0217 110.657 17.5513 110.453 17.166C110.249 16.7807 109.966 16.486 109.603 16.282C109.252 16.0667 108.849 15.959 108.396 15.959C107.943 15.959 107.535 16.0667 107.172 16.282C106.809 16.486 106.52 16.7863 106.305 17.183C106.101 17.5683 105.999 18.033 105.999 18.577V24H104.724ZM117.699 24.204C117.064 24.204 116.486 24.0567 115.965 23.762C115.444 23.456 115.03 23.0367 114.724 22.504C114.429 21.96 114.282 21.3367 114.282 20.634V14.888H115.557V20.481C115.557 20.9683 115.653 21.399 115.846 21.773C116.05 22.1357 116.328 22.419 116.679 22.623C117.042 22.827 117.455 22.929 117.92 22.929C118.385 22.929 118.798 22.827 119.161 22.623C119.524 22.4077 119.807 22.1073 120.011 21.722C120.215 21.3253 120.317 20.855 120.317 20.311V14.888H121.592V24H120.317V22.232L120.606 22.3C120.391 22.8893 120.022 23.354 119.501 23.694C118.98 24.034 118.379 24.204 117.699 24.204ZM124.214 24V14.888H125.489V16.656L125.2 16.588C125.427 15.9987 125.795 15.534 126.305 15.194C126.827 14.854 127.427 14.684 128.107 14.684C128.753 14.684 129.331 14.8313 129.841 15.126C130.363 15.4207 130.771 15.8287 131.065 16.35C131.371 16.86 131.524 17.438 131.524 18.084V24H130.249V18.577C130.249 18.0217 130.147 17.5513 129.943 17.166C129.751 16.7807 129.473 16.486 129.11 16.282C128.759 16.0667 128.351 15.959 127.886 15.959C127.422 15.959 127.008 16.0667 126.645 16.282C126.283 16.486 125.999 16.7863 125.795 17.183C125.591 17.5683 125.489 18.033 125.489 18.577V24H124.214ZM87.496 45V32.335H91.848C92.6753 32.335 93.4007 32.4993 94.024 32.828C94.6473 33.1453 95.129 33.5987 95.469 34.188C95.8203 34.766 95.996 35.4403 95.996 36.211C95.996 36.9817 95.8203 37.656 95.469 38.234C95.129 38.812 94.6473 39.2653 94.024 39.594C93.412 39.9113 92.6867 40.07 91.848 40.07H88.856V45H87.496ZM88.856 38.795H91.916C92.46 38.795 92.936 38.693 93.344 38.489C93.752 38.2737 94.0693 37.9733 94.296 37.588C94.5227 37.1913 94.636 36.7267 94.636 36.194C94.636 35.6613 94.5227 35.2023 94.296 34.817C94.0693 34.4317 93.752 34.137 93.344 33.933C92.936 33.7177 92.46 33.61 91.916 33.61H88.856V38.795ZM102.049 45.204C101.199 45.204 100.428 45 99.7368 44.592C99.0568 44.1727 98.5185 43.6003 98.1218 42.875C97.7251 42.1497 97.5268 41.328 97.5268 40.41C97.5268 39.492 97.7195 38.6817 98.1048 37.979C98.4901 37.265 99.0115 36.704 99.6688 36.296C100.337 35.888 101.085 35.684 101.913 35.684C102.57 35.684 103.154 35.8087 103.664 36.058C104.185 36.296 104.627 36.6247 104.99 37.044C105.352 37.452 105.63 37.9167 105.823 38.438C106.015 38.948 106.112 39.475 106.112 40.019C106.112 40.1323 106.106 40.2627 106.095 40.41C106.083 40.546 106.066 40.6877 106.044 40.835H98.3428V39.645H105.313L104.701 40.155C104.803 39.5317 104.729 38.9763 104.48 38.489C104.242 37.9903 103.896 37.5993 103.443 37.316C102.989 37.0213 102.479 36.874 101.913 36.874C101.346 36.874 100.819 37.0213 100.332 37.316C99.8558 37.6107 99.4818 38.0243 99.2098 38.557C98.9378 39.0783 98.8301 39.7017 98.8868 40.427C98.8301 41.1523 98.9435 41.787 99.2268 42.331C99.5215 42.8637 99.9181 43.2773 100.417 43.572C100.927 43.8667 101.471 44.014 102.049 44.014C102.717 44.014 103.278 43.8553 103.732 43.538C104.185 43.2207 104.553 42.824 104.837 42.348L105.925 42.926C105.743 43.334 105.466 43.7137 105.092 44.065C104.718 44.405 104.27 44.6827 103.749 44.898C103.239 45.102 102.672 45.204 102.049 45.204ZM108.36 45V35.888H109.635V37.656L109.346 37.588C109.572 36.9987 109.941 36.534 110.451 36.194C110.972 35.854 111.573 35.684 112.253 35.684C112.899 35.684 113.477 35.8313 113.987 36.126C114.508 36.4207 114.916 36.8287 115.211 37.35C115.517 37.86 115.67 38.438 115.67 39.084V45H114.395V39.577C114.395 39.0217 114.293 38.5513 114.089 38.166C113.896 37.7807 113.618 37.486 113.256 37.282C112.904 37.0667 112.496 36.959 112.032 36.959C111.567 36.959 111.153 37.0667 110.791 37.282C110.428 37.486 110.145 37.7863 109.941 38.183C109.737 38.5683 109.635 39.033 109.635 39.577V45H108.36ZM122.423 48.74C121.8 48.74 121.222 48.6437 120.689 48.451C120.168 48.2583 119.714 47.992 119.329 47.652C118.955 47.3233 118.666 46.938 118.462 46.496L119.635 45.867C119.816 46.2977 120.139 46.6717 120.604 46.989C121.069 47.3063 121.664 47.465 122.389 47.465C122.944 47.465 123.454 47.3573 123.919 47.142C124.384 46.9267 124.758 46.6093 125.041 46.19C125.324 45.7707 125.466 45.255 125.466 44.643V42.62L125.67 42.807C125.353 43.4643 124.882 43.9743 124.259 44.337C123.636 44.6883 122.956 44.864 122.219 44.864C121.369 44.864 120.604 44.66 119.924 44.252C119.244 43.844 118.706 43.2943 118.309 42.603C117.924 41.9003 117.731 41.124 117.731 40.274C117.731 39.4127 117.924 38.6363 118.309 37.945C118.706 37.2537 119.238 36.704 119.907 36.296C120.587 35.888 121.358 35.684 122.219 35.684C122.956 35.684 123.624 35.854 124.225 36.194C124.837 36.534 125.319 36.993 125.67 37.571L125.466 37.928V35.888H126.741V44.643C126.741 45.425 126.554 46.122 126.18 46.734C125.817 47.3573 125.307 47.8447 124.65 48.196C124.004 48.5587 123.262 48.74 122.423 48.74ZM122.287 43.589C122.876 43.589 123.409 43.4417 123.885 43.147C124.361 42.841 124.741 42.4387 125.024 41.94C125.319 41.43 125.466 40.8747 125.466 40.274C125.466 39.6733 125.319 39.1237 125.024 38.625C124.741 38.115 124.361 37.7127 123.885 37.418C123.409 37.112 122.876 36.959 122.287 36.959C121.686 36.959 121.142 37.112 120.655 37.418C120.168 37.7127 119.782 38.1093 119.499 38.608C119.227 39.1067 119.091 39.662 119.091 40.274C119.091 40.8747 119.227 41.43 119.499 41.94C119.782 42.4387 120.162 42.841 120.638 43.147C121.125 43.4417 121.675 43.589 122.287 43.589ZM131.996 45.204C131.418 45.204 130.902 45.0963 130.449 44.881C129.995 44.6543 129.638 44.3483 129.378 43.963C129.117 43.5777 128.987 43.1357 128.987 42.637C128.987 42.161 129.089 41.7303 129.293 41.345C129.497 40.9483 129.814 40.614 130.245 40.342C130.675 40.07 131.225 39.8773 131.894 39.764L135.464 39.169V40.325L132.2 40.869C131.542 40.9823 131.066 41.192 130.772 41.498C130.488 41.804 130.347 42.1667 130.347 42.586C130.347 42.994 130.505 43.3397 130.823 43.623C131.151 43.9063 131.571 44.048 132.081 44.048C132.704 44.048 133.248 43.9177 133.713 43.657C134.177 43.385 134.54 43.0223 134.801 42.569C135.061 42.1157 135.192 41.6113 135.192 41.056V38.744C135.192 38.2 134.993 37.758 134.597 37.418C134.2 37.078 133.684 36.908 133.05 36.908C132.494 36.908 132.007 37.0497 131.588 37.333C131.168 37.605 130.857 37.962 130.653 38.404L129.497 37.775C129.667 37.3897 129.933 37.0383 130.296 36.721C130.67 36.4037 131.095 36.1543 131.571 35.973C132.047 35.7803 132.54 35.684 133.05 35.684C133.718 35.684 134.308 35.8143 134.818 36.075C135.339 36.3357 135.741 36.6983 136.025 37.163C136.319 37.6163 136.467 38.1433 136.467 38.744V45H135.192V43.181L135.379 43.368C135.22 43.708 134.971 44.0197 134.631 44.303C134.302 44.575 133.911 44.796 133.458 44.966C133.016 45.1247 132.528 45.204 131.996 45.204ZM139.089 45V32.131H140.364V45H139.089ZM145.609 45.204C145.031 45.204 144.515 45.0963 144.062 44.881C143.609 44.6543 143.252 44.3483 142.991 43.963C142.73 43.5777 142.6 43.1357 142.6 42.637C142.6 42.161 142.702 41.7303 142.906 41.345C143.11 40.9483 143.427 40.614 143.858 40.342C144.289 40.07 144.838 39.8773 145.507 39.764L149.077 39.169V40.325L145.813 40.869C145.156 40.9823 144.68 41.192 144.385 41.498C144.102 41.804 143.96 42.1667 143.96 42.586C143.96 42.994 144.119 43.3397 144.436 43.623C144.765 43.9063 145.184 44.048 145.694 44.048C146.317 44.048 146.861 43.9177 147.326 43.657C147.791 43.385 148.153 43.0223 148.414 42.569C148.675 42.1157 148.805 41.6113 148.805 41.056V38.744C148.805 38.2 148.607 37.758 148.21 37.418C147.813 37.078 147.298 36.908 146.663 36.908C146.108 36.908 145.62 37.0497 145.201 37.333C144.782 37.605 144.47 37.962 144.266 38.404L143.11 37.775C143.28 37.3897 143.546 37.0383 143.909 36.721C144.283 36.4037 144.708 36.1543 145.184 35.973C145.66 35.7803 146.153 35.684 146.663 35.684C147.332 35.684 147.921 35.8143 148.431 36.075C148.952 36.3357 149.355 36.6983 149.638 37.163C149.933 37.6163 150.08 38.1433 150.08 38.744V45H148.805V43.181L148.992 43.368C148.833 43.708 148.584 44.0197 148.244 44.303C147.915 44.575 147.524 44.796 147.071 44.966C146.629 45.1247 146.142 45.204 145.609 45.204ZM152.703 45V35.888H153.978V37.622L153.774 37.367C154.023 36.8343 154.391 36.4207 154.879 36.126C155.377 35.8313 155.921 35.684 156.511 35.684C157.213 35.684 157.848 35.8823 158.415 36.279C158.981 36.6757 159.384 37.1913 159.622 37.826L159.265 37.843C159.491 37.1403 159.882 36.6077 160.438 36.245C161.004 35.871 161.628 35.684 162.308 35.684C162.92 35.684 163.481 35.8313 163.991 36.126C164.512 36.4207 164.926 36.8287 165.232 37.35C165.549 37.86 165.708 38.438 165.708 39.084V45H164.433V39.577C164.433 39.0217 164.331 38.5513 164.127 38.166C163.934 37.7807 163.668 37.486 163.328 37.282C162.988 37.0667 162.597 36.959 162.155 36.959C161.724 36.959 161.333 37.0667 160.982 37.282C160.63 37.486 160.353 37.7863 160.149 38.183C159.945 38.5683 159.843 39.033 159.843 39.577V45H158.568V39.577C158.568 39.0217 158.466 38.5513 158.262 38.166C158.069 37.7807 157.803 37.486 157.463 37.282C157.123 37.0667 156.732 36.959 156.29 36.959C155.848 36.959 155.451 37.0667 155.1 37.282C154.76 37.486 154.488 37.7863 154.284 38.183C154.08 38.5683 153.978 39.033 153.978 39.577V45H152.703ZM170.777 45.204C170.199 45.204 169.683 45.0963 169.23 44.881C168.777 44.6543 168.42 44.3483 168.159 43.963C167.898 43.5777 167.768 43.1357 167.768 42.637C167.768 42.161 167.87 41.7303 168.074 41.345C168.278 40.9483 168.595 40.614 169.026 40.342C169.457 40.07 170.006 39.8773 170.675 39.764L174.245 39.169V40.325L170.981 40.869C170.324 40.9823 169.848 41.192 169.553 41.498C169.27 41.804 169.128 42.1667 169.128 42.586C169.128 42.994 169.287 43.3397 169.604 43.623C169.933 43.9063 170.352 44.048 170.862 44.048C171.485 44.048 172.029 43.9177 172.494 43.657C172.959 43.385 173.321 43.0223 173.582 42.569C173.843 42.1157 173.973 41.6113 173.973 41.056V38.744C173.973 38.2 173.775 37.758 173.378 37.418C172.981 37.078 172.466 36.908 171.831 36.908C171.276 36.908 170.788 37.0497 170.369 37.333C169.95 37.605 169.638 37.962 169.434 38.404L168.278 37.775C168.448 37.3897 168.714 37.0383 169.077 36.721C169.451 36.4037 169.876 36.1543 170.352 35.973C170.828 35.7803 171.321 35.684 171.831 35.684C172.5 35.684 173.089 35.8143 173.599 36.075C174.12 36.3357 174.523 36.6983 174.806 37.163C175.101 37.6163 175.248 38.1433 175.248 38.744V45H173.973V43.181L174.16 43.368C174.001 43.708 173.752 44.0197 173.412 44.303C173.083 44.575 172.692 44.796 172.239 44.966C171.797 45.1247 171.31 45.204 170.777 45.204ZM177.871 45V35.888H179.146V37.656L178.857 37.588C179.083 36.9987 179.452 36.534 179.962 36.194C180.483 35.854 181.084 35.684 181.764 35.684C182.41 35.684 182.988 35.8313 183.498 36.126C184.019 36.4207 184.427 36.8287 184.722 37.35C185.028 37.86 185.181 38.438 185.181 39.084V45H183.906V39.577C183.906 39.0217 183.804 38.5513 183.6 38.166C183.407 37.7807 183.129 37.486 182.767 37.282C182.415 37.0667 182.007 36.959 181.543 36.959C181.078 36.959 180.664 37.0667 180.302 37.282C179.939 37.486 179.656 37.7863 179.452 38.183C179.248 38.5683 179.146 39.033 179.146 39.577V45H177.871Z" fill="white"/>
<path d="M61.178 44V36.776H45.806V33.374L61.094 12.71H65.042V33.374H69.116V36.776H65.042V44H61.178ZM48.914 34.844L48.326 33.374H61.178V16.154L62.396 16.49L48.914 34.844Z" fill="white"/>
<path d="M28.5832 15.3513L20.1041 12.1754C19.2253 11.8517 17.7916 11.8517 16.9128 12.1754L8.43363 15.3513C6.79947 15.9679 5.47363 17.8796 5.47363 19.6217V32.1092C5.47363 33.3579 6.29072 35.0075 7.2928 35.7475L15.772 42.0838C17.2674 43.2092 19.7186 43.2092 21.2141 42.0838L29.6932 35.7475C30.6953 34.9921 31.5124 33.3579 31.5124 32.1092V19.6217C31.5278 17.8796 30.202 15.9679 28.5832 15.3513ZM23.8657 23.9846L17.2366 30.6138C17.0053 30.845 16.7124 30.9529 16.4195 30.9529C16.1266 30.9529 15.8336 30.845 15.6024 30.6138L13.1357 28.1163C12.6886 27.6692 12.6886 26.9292 13.1357 26.4821C13.5828 26.035 14.3228 26.035 14.7699 26.4821L16.4349 28.1471L22.247 22.335C22.6941 21.8879 23.4341 21.8879 23.8811 22.335C24.3282 22.7821 24.3282 23.5375 23.8657 23.9846Z" fill="#E8604C"/>
<path d="M454.496 24V11.335H458.661C459.919 11.335 461.013 11.5957 461.942 12.117C462.871 12.627 463.591 13.358 464.101 14.31C464.611 15.2507 464.866 16.367 464.866 17.659C464.866 18.9397 464.611 20.056 464.101 21.008C463.591 21.96 462.871 22.6967 461.942 23.218C461.013 23.7393 459.919 24 458.661 24H454.496ZM455.856 22.725H458.661C459.636 22.725 460.48 22.521 461.194 22.113C461.908 21.6937 462.458 21.1043 462.843 20.345C463.24 19.5857 463.438 18.6903 463.438 17.659C463.438 16.6277 463.24 15.738 462.843 14.99C462.446 14.2307 461.891 13.647 461.177 13.239C460.463 12.8197 459.624 12.61 458.661 12.61H455.856V22.725ZM471.074 24.204C470.224 24.204 469.454 24 468.762 23.592C468.082 23.1727 467.544 22.6003 467.147 21.875C466.751 21.1497 466.552 20.328 466.552 19.41C466.552 18.492 466.745 17.6817 467.13 16.979C467.516 16.265 468.037 15.704 468.694 15.296C469.363 14.888 470.111 14.684 470.938 14.684C471.596 14.684 472.179 14.8087 472.689 15.058C473.211 15.296 473.653 15.6247 474.015 16.044C474.378 16.452 474.656 16.9167 474.848 17.438C475.041 17.948 475.137 18.475 475.137 19.019C475.137 19.1323 475.132 19.2627 475.12 19.41C475.109 19.546 475.092 19.6877 475.069 19.835H467.368V18.645H474.338L473.726 19.155C473.828 18.5317 473.755 17.9763 473.505 17.489C473.267 16.9903 472.922 16.5993 472.468 16.316C472.015 16.0213 471.505 15.874 470.938 15.874C470.372 15.874 469.845 16.0213 469.357 16.316C468.881 16.6107 468.507 17.0243 468.235 17.557C467.963 18.0783 467.856 18.7017 467.912 19.427C467.856 20.1523 467.969 20.787 468.252 21.331C468.547 21.8637 468.944 22.2773 469.442 22.572C469.952 22.8667 470.496 23.014 471.074 23.014C471.743 23.014 472.304 22.8553 472.757 22.538C473.211 22.2207 473.579 21.824 473.862 21.348L474.95 21.926C474.769 22.334 474.491 22.7137 474.117 23.065C473.743 23.405 473.296 23.6827 472.774 23.898C472.264 24.102 471.698 24.204 471.074 24.204ZM480.547 24.204C479.675 24.204 478.91 23.983 478.252 23.541C477.595 23.099 477.119 22.4983 476.824 21.739L477.895 21.229C478.156 21.7843 478.519 22.2263 478.983 22.555C479.459 22.8837 479.981 23.048 480.547 23.048C481.091 23.048 481.55 22.9177 481.924 22.657C482.298 22.385 482.485 22.0337 482.485 21.603C482.485 21.2857 482.395 21.0363 482.213 20.855C482.032 20.6623 481.822 20.515 481.584 20.413C481.346 20.311 481.137 20.2373 480.955 20.192L479.646 19.818C478.808 19.58 478.201 19.2457 477.827 18.815C477.453 18.3843 477.266 17.8857 477.266 17.319C477.266 16.7863 477.402 16.3217 477.674 15.925C477.946 15.5283 478.315 15.2223 478.779 15.007C479.244 14.7917 479.76 14.684 480.326 14.684C481.097 14.684 481.794 14.888 482.417 15.296C483.052 15.6927 483.5 16.248 483.76 16.962L482.672 17.472C482.446 16.962 482.117 16.5653 481.686 16.282C481.267 15.9873 480.797 15.84 480.275 15.84C479.765 15.84 479.357 15.9703 479.051 16.231C478.745 16.4917 478.592 16.8203 478.592 17.217C478.592 17.523 478.672 17.7667 478.83 17.948C478.989 18.1293 479.17 18.2653 479.374 18.356C479.59 18.4467 479.777 18.5147 479.935 18.56L481.448 19.002C482.185 19.2173 482.757 19.5517 483.165 20.005C483.585 20.4583 483.794 20.991 483.794 21.603C483.794 22.1017 483.653 22.5493 483.369 22.946C483.097 23.3427 482.718 23.6543 482.23 23.881C481.743 24.0963 481.182 24.204 480.547 24.204ZM489.52 24.102C488.704 24.102 488.075 23.864 487.633 23.388C487.191 22.912 486.97 22.232 486.97 21.348V16.163H485.287V14.888H485.712C486.097 14.888 486.403 14.7633 486.63 14.514C486.856 14.2533 486.97 13.9303 486.97 13.545V12.78H488.245V14.888H490.251V16.163H488.245V21.348C488.245 21.654 488.29 21.926 488.381 22.164C488.471 22.3907 488.624 22.572 488.84 22.708C489.066 22.844 489.367 22.912 489.741 22.912C489.831 22.912 489.939 22.9063 490.064 22.895C490.188 22.8837 490.296 22.8723 490.387 22.861V24C490.251 24.034 490.098 24.0567 489.928 24.068C489.758 24.0907 489.622 24.102 489.52 24.102ZM492.625 24V14.888H493.9V24H492.625ZM492.625 13.205V11.335H493.9V13.205H492.625ZM496.51 24V14.888H497.785V16.656L497.496 16.588C497.723 15.9987 498.091 15.534 498.601 15.194C499.123 14.854 499.723 14.684 500.403 14.684C501.049 14.684 501.627 14.8313 502.137 15.126C502.659 15.4207 503.067 15.8287 503.361 16.35C503.667 16.86 503.82 17.438 503.82 18.084V24H502.545V18.577C502.545 18.0217 502.443 17.5513 502.239 17.166C502.047 16.7807 501.769 16.486 501.406 16.282C501.055 16.0667 500.647 15.959 500.182 15.959C499.718 15.959 499.304 16.0667 498.941 16.282C498.579 16.486 498.295 16.7863 498.091 17.183C497.887 17.5683 497.785 18.033 497.785 18.577V24H496.51ZM508.89 24.204C508.312 24.204 507.797 24.0963 507.343 23.881C506.89 23.6543 506.533 23.3483 506.272 22.963C506.012 22.5777 505.881 22.1357 505.881 21.637C505.881 21.161 505.983 20.7303 506.187 20.345C506.391 19.9483 506.709 19.614 507.139 19.342C507.57 19.07 508.12 18.8773 508.788 18.764L512.358 18.169V19.325L509.094 19.869C508.437 19.9823 507.961 20.192 507.666 20.498C507.383 20.804 507.241 21.1667 507.241 21.586C507.241 21.994 507.4 22.3397 507.717 22.623C508.046 22.9063 508.465 23.048 508.975 23.048C509.599 23.048 510.143 22.9177 510.607 22.657C511.072 22.385 511.435 22.0223 511.695 21.569C511.956 21.1157 512.086 20.6113 512.086 20.056V17.744C512.086 17.2 511.888 16.758 511.491 16.418C511.095 16.078 510.579 15.908 509.944 15.908C509.389 15.908 508.902 16.0497 508.482 16.333C508.063 16.605 507.751 16.962 507.547 17.404L506.391 16.775C506.561 16.3897 506.828 16.0383 507.19 15.721C507.564 15.4037 507.989 15.1543 508.465 14.973C508.941 14.7803 509.434 14.684 509.944 14.684C510.613 14.684 511.202 14.8143 511.712 15.075C512.234 15.3357 512.636 15.6983 512.919 16.163C513.214 16.6163 513.361 17.1433 513.361 17.744V24H512.086V22.181L512.273 22.368C512.115 22.708 511.865 23.0197 511.525 23.303C511.197 23.575 510.806 23.796 510.352 23.966C509.91 24.1247 509.423 24.204 508.89 24.204ZM519.146 24.204C518.273 24.204 517.508 23.983 516.851 23.541C516.193 23.099 515.717 22.4983 515.423 21.739L516.494 21.229C516.754 21.7843 517.117 22.2263 517.582 22.555C518.058 22.8837 518.579 23.048 519.146 23.048C519.69 23.048 520.149 22.9177 520.523 22.657C520.897 22.385 521.084 22.0337 521.084 21.603C521.084 21.2857 520.993 21.0363 520.812 20.855C520.63 20.6623 520.421 20.515 520.183 20.413C519.945 20.311 519.735 20.2373 519.554 20.192L518.245 19.818C517.406 19.58 516.8 19.2457 516.426 18.815C516.052 18.3843 515.865 17.8857 515.865 17.319C515.865 16.7863 516.001 16.3217 516.273 15.925C516.545 15.5283 516.913 15.2223 517.378 15.007C517.842 14.7917 518.358 14.684 518.925 14.684C519.695 14.684 520.392 14.888 521.016 15.296C521.65 15.6927 522.098 16.248 522.359 16.962L521.271 17.472C521.044 16.962 520.715 16.5653 520.285 16.282C519.865 15.9873 519.395 15.84 518.874 15.84C518.364 15.84 517.956 15.9703 517.65 16.231C517.344 16.4917 517.191 16.8203 517.191 17.217C517.191 17.523 517.27 17.7667 517.429 17.948C517.587 18.1293 517.769 18.2653 517.973 18.356C518.188 18.4467 518.375 18.5147 518.534 18.56L520.047 19.002C520.783 19.2173 521.356 19.5517 521.764 20.005C522.183 20.4583 522.393 20.991 522.393 21.603C522.393 22.1017 522.251 22.5493 521.968 22.946C521.696 23.3427 521.316 23.6543 520.829 23.881C520.341 24.0963 519.78 24.204 519.146 24.204ZM524.633 24V14.888H525.908V24H524.633ZM524.633 13.205V11.335H525.908V13.205H524.633ZM456.689 45V33.61H453.187V32.335H461.517V33.61H458.049V45H456.689ZM465.961 45.204C465.111 45.204 464.34 45 463.649 44.592C462.969 44.1727 462.431 43.6003 462.034 42.875C461.637 42.1497 461.439 41.328 461.439 40.41C461.439 39.492 461.632 38.6817 462.017 37.979C462.402 37.265 462.924 36.704 463.581 36.296C464.25 35.888 464.998 35.684 465.825 35.684C466.482 35.684 467.066 35.8087 467.576 36.058C468.097 36.296 468.539 36.6247 468.902 37.044C469.265 37.452 469.542 37.9167 469.735 38.438C469.928 38.948 470.024 39.475 470.024 40.019C470.024 40.1323 470.018 40.2627 470.007 40.41C469.996 40.546 469.979 40.6877 469.956 40.835H462.255V39.645H469.225L468.613 40.155C468.715 39.5317 468.641 38.9763 468.392 38.489C468.154 37.9903 467.808 37.5993 467.355 37.316C466.902 37.0213 466.392 36.874 465.825 36.874C465.258 36.874 464.731 37.0213 464.244 37.316C463.768 37.6107 463.394 38.0243 463.122 38.557C462.85 39.0783 462.742 39.7017 462.799 40.427C462.742 41.1523 462.856 41.787 463.139 42.331C463.434 42.8637 463.83 43.2773 464.329 43.572C464.839 43.8667 465.383 44.014 465.961 44.014C466.63 44.014 467.191 43.8553 467.644 43.538C468.097 43.2207 468.466 42.824 468.749 42.348L469.837 42.926C469.656 43.334 469.378 43.7137 469.004 44.065C468.63 44.405 468.182 44.6827 467.661 44.898C467.151 45.102 466.584 45.204 465.961 45.204ZM472.272 45V35.888H473.547V37.384L473.377 37.163C473.592 36.7323 473.915 36.3923 474.346 36.143C474.788 35.8937 475.321 35.769 475.944 35.769H476.522V37.044H475.723C475.066 37.044 474.539 37.248 474.142 37.656C473.745 38.064 473.547 38.642 473.547 39.39V45H472.272ZM482.623 45.204C481.841 45.204 481.133 45.0283 480.498 44.677C479.875 44.3143 479.404 43.8043 479.087 43.147L479.291 42.96V45H478.016V32.131H479.291V37.928L479.087 37.571C479.45 36.993 479.931 36.534 480.532 36.194C481.144 35.854 481.841 35.684 482.623 35.684C483.484 35.684 484.249 35.8937 484.918 36.313C485.598 36.721 486.131 37.282 486.516 37.996C486.913 38.71 487.111 39.526 487.111 40.444C487.111 41.3507 486.913 42.1667 486.516 42.892C486.131 43.606 485.598 44.1727 484.918 44.592C484.249 45 483.484 45.204 482.623 45.204ZM482.555 43.929C483.167 43.929 483.711 43.776 484.187 43.47C484.674 43.164 485.054 42.7503 485.326 42.229C485.609 41.6963 485.751 41.1013 485.751 40.444C485.751 39.7753 485.609 39.1803 485.326 38.659C485.054 38.1377 484.674 37.724 484.187 37.418C483.711 37.112 483.167 36.959 482.555 36.959C481.943 36.959 481.388 37.112 480.889 37.418C480.402 37.724 480.011 38.1433 479.716 38.676C479.433 39.1973 479.291 39.7867 479.291 40.444C479.291 41.1013 479.433 41.6963 479.716 42.229C480.011 42.7503 480.402 43.164 480.889 43.47C481.388 43.776 481.943 43.929 482.555 43.929ZM491.99 45.204C491.412 45.204 490.896 45.0963 490.443 44.881C489.99 44.6543 489.633 44.3483 489.372 43.963C489.111 43.5777 488.981 43.1357 488.981 42.637C488.981 42.161 489.083 41.7303 489.287 41.345C489.491 40.9483 489.808 40.614 490.239 40.342C490.67 40.07 491.219 39.8773 491.888 39.764L495.458 39.169V40.325L492.194 40.869C491.537 40.9823 491.061 41.192 490.766 41.498C490.483 41.804 490.341 42.1667 490.341 42.586C490.341 42.994 490.5 43.3397 490.817 43.623C491.146 43.9063 491.565 44.048 492.075 44.048C492.698 44.048 493.242 43.9177 493.707 43.657C494.172 43.385 494.534 43.0223 494.795 42.569C495.056 42.1157 495.186 41.6113 495.186 41.056V38.744C495.186 38.2 494.988 37.758 494.591 37.418C494.194 37.078 493.679 36.908 493.044 36.908C492.489 36.908 492.001 37.0497 491.582 37.333C491.163 37.605 490.851 37.962 490.647 38.404L489.491 37.775C489.661 37.3897 489.927 37.0383 490.29 36.721C490.664 36.4037 491.089 36.1543 491.565 35.973C492.041 35.7803 492.534 35.684 493.044 35.684C493.713 35.684 494.302 35.8143 494.812 36.075C495.333 36.3357 495.736 36.6983 496.019 37.163C496.314 37.6163 496.461 38.1433 496.461 38.744V45H495.186V43.181L495.373 43.368C495.214 43.708 494.965 44.0197 494.625 44.303C494.296 44.575 493.905 44.796 493.452 44.966C493.01 45.1247 492.523 45.204 491.99 45.204ZM499.083 45V35.888H500.358V45H499.083ZM499.083 34.205V32.335H500.358V34.205H499.083ZM502.968 45V32.131H504.243V41.141L503.699 41.056L508.816 35.888H510.465L506.895 39.543L510.788 45H509.258L505.603 39.951L506.419 40.019L503.818 42.705L504.243 41.651V45H502.968Z" fill="white"/>
<path d="M366.268 44V41.144L374.92 31.778C376.628 29.958 377.986 28.46 378.994 27.284C380.03 26.108 380.786 25.058 381.262 24.134C381.738 23.21 381.976 22.23 381.976 21.194C381.976 19.486 381.472 18.17 380.464 17.246C379.456 16.322 378.126 15.86 376.474 15.86C374.794 15.86 373.366 16.35 372.19 17.33C371.014 18.282 370.202 19.64 369.754 21.404L366.016 20.438C366.38 18.758 367.052 17.302 368.032 16.07C369.012 14.838 370.23 13.886 371.686 13.214C373.142 12.542 374.738 12.206 376.474 12.206C378.378 12.206 380.044 12.584 381.472 13.34C382.928 14.068 384.062 15.09 384.874 16.406C385.714 17.722 386.134 19.248 386.134 20.984C386.134 22.132 385.896 23.252 385.42 24.344C384.944 25.436 384.244 26.598 383.32 27.83C382.396 29.034 381.192 30.434 379.708 32.03L371.98 40.43H386.806V44H366.268ZM401.743 44.504C400.119 44.504 398.593 44.224 397.165 43.664C395.737 43.076 394.491 42.25 393.427 41.186C392.391 40.094 391.635 38.82 391.159 37.364L394.519 35.936C395.107 37.476 396.059 38.68 397.375 39.548C398.719 40.388 400.175 40.808 401.743 40.808C403.031 40.808 404.165 40.528 405.145 39.968C406.153 39.38 406.937 38.582 407.497 37.574C408.057 36.538 408.337 35.39 408.337 34.13C408.337 32.814 408.043 31.652 407.455 30.644C406.895 29.636 406.125 28.852 405.145 28.292C404.165 27.704 403.045 27.41 401.785 27.41C400.497 27.41 399.321 27.704 398.257 28.292C397.193 28.88 396.423 29.622 395.947 30.518L392.629 29.804L395.023 12.71H411.235V16.28H396.577L398.173 14.684L396.325 27.956L394.897 27.116C395.821 25.94 396.899 25.1 398.131 24.596C399.391 24.064 400.749 23.798 402.205 23.798C404.249 23.798 406.041 24.26 407.581 25.184C409.121 26.108 410.325 27.34 411.193 28.88C412.061 30.42 412.495 32.17 412.495 34.13C412.495 36.09 412.019 37.854 411.067 39.422C410.143 40.99 408.869 42.236 407.245 43.16C405.649 44.056 403.815 44.504 401.743 44.504ZM426.321 44V35.306H417.627V31.652H426.321V23H429.975V31.652H438.627V35.306H429.975V44H426.321Z" fill="white"/>
<path d="M344.611 14.917H332.39C327.082 14.917 323.917 18.0816 323.917 23.3899V35.5962C323.917 40.9191 327.082 44.0837 332.39 44.0837H344.596C349.904 44.0837 353.069 40.9191 353.069 35.6107V23.3899C353.084 18.0816 349.919 14.917 344.611 14.917ZM347.994 31.2357C347.994 32.1107 347.323 32.5482 346.521 32.1982L341.636 30.0982C341.067 29.8649 340.615 30.1566 340.615 30.7691V33.467C340.615 33.7003 340.746 34.0357 340.921 34.2107L343.313 36.617C343.561 36.8649 343.677 37.3607 343.561 37.6962L343.094 39.0962C342.89 39.7087 342.19 40.0003 341.621 39.7087L339.186 37.6378C338.807 37.3316 338.194 37.3316 337.829 37.6378L335.379 39.7087C334.796 40.0003 334.111 39.7087 333.907 39.0816L333.44 37.6816C333.323 37.3462 333.44 36.8503 333.688 36.6024L336.123 34.2107C336.284 34.0503 336.429 33.7149 336.429 33.467V30.7691C336.429 30.1566 335.963 29.8503 335.409 30.0982L330.523 32.1982C329.707 32.5482 329.05 32.1107 329.05 31.2357V29.8795C329.05 29.1795 329.59 28.3628 330.232 28.0857L335.977 25.6066C336.211 25.5045 336.415 25.1982 336.415 24.9357V21.917C336.415 20.9253 337.129 19.7441 338.019 19.3066C338.34 19.1462 338.704 19.1462 339.025 19.3066C339.9 19.7587 340.629 20.9253 340.629 21.917V24.9357C340.629 25.1982 340.819 25.5045 341.067 25.6066L346.813 28.0857C347.469 28.3628 347.994 29.1795 347.994 29.8795V31.2357Z" fill="#E8604C"/>
<path d="M794.496 24V11.335H798.848C799.675 11.335 800.401 11.4993 801.024 11.828C801.647 12.1453 802.129 12.5987 802.469 13.188C802.82 13.766 802.996 14.4403 802.996 15.211C802.996 15.9817 802.82 16.656 802.469 17.234C802.129 17.812 801.647 18.2653 801.024 18.594C800.412 18.9113 799.687 19.07 798.848 19.07H795.856V24H794.496ZM795.856 17.795H798.916C799.46 17.795 799.936 17.693 800.344 17.489C800.752 17.2737 801.069 16.9733 801.296 16.588C801.523 16.1913 801.636 15.7267 801.636 15.194C801.636 14.6613 801.523 14.2023 801.296 13.817C801.069 13.4317 800.752 13.137 800.344 12.933C799.936 12.7177 799.46 12.61 798.916 12.61H795.856V17.795ZM809.049 24.204C808.199 24.204 807.428 24 806.737 23.592C806.057 23.1727 805.518 22.6003 805.122 21.875C804.725 21.1497 804.527 20.328 804.527 19.41C804.527 18.492 804.719 17.6817 805.105 16.979C805.49 16.265 806.011 15.704 806.669 15.296C807.337 14.888 808.085 14.684 808.913 14.684C809.57 14.684 810.154 14.8087 810.664 15.058C811.185 15.296 811.627 15.6247 811.99 16.044C812.352 16.452 812.63 16.9167 812.823 17.438C813.015 17.948 813.112 18.475 813.112 19.019C813.112 19.1323 813.106 19.2627 813.095 19.41C813.083 19.546 813.066 19.6877 813.044 19.835H805.343V18.645H812.313L811.701 19.155C811.803 18.5317 811.729 17.9763 811.48 17.489C811.242 16.9903 810.896 16.5993 810.443 16.316C809.989 16.0213 809.479 15.874 808.913 15.874C808.346 15.874 807.819 16.0213 807.332 16.316C806.856 16.6107 806.482 17.0243 806.21 17.557C805.938 18.0783 805.83 18.7017 805.887 19.427C805.83 20.1523 805.943 20.787 806.227 21.331C806.521 21.8637 806.918 22.2773 807.417 22.572C807.927 22.8667 808.471 23.014 809.049 23.014C809.717 23.014 810.278 22.8553 810.732 22.538C811.185 22.2207 811.553 21.824 811.837 21.348L812.925 21.926C812.743 22.334 812.466 22.7137 812.092 23.065C811.718 23.405 811.27 23.6827 810.749 23.898C810.239 24.102 809.672 24.204 809.049 24.204ZM815.36 24V11.131H816.635V24H815.36ZM821.88 24.204C821.302 24.204 820.786 24.0963 820.333 23.881C819.879 23.6543 819.522 23.3483 819.262 22.963C819.001 22.5777 818.871 22.1357 818.871 21.637C818.871 21.161 818.973 20.7303 819.177 20.345C819.381 19.9483 819.698 19.614 820.129 19.342C820.559 19.07 821.109 18.8773 821.778 18.764L825.348 18.169V19.325L822.084 19.869C821.426 19.9823 820.95 20.192 820.656 20.498C820.372 20.804 820.231 21.1667 820.231 21.586C820.231 21.994 820.389 22.3397 820.707 22.623C821.035 22.9063 821.455 23.048 821.965 23.048C822.588 23.048 823.132 22.9177 823.597 22.657C824.061 22.385 824.424 22.0223 824.685 21.569C824.945 21.1157 825.076 20.6113 825.076 20.056V17.744C825.076 17.2 824.877 16.758 824.481 16.418C824.084 16.078 823.568 15.908 822.934 15.908C822.378 15.908 821.891 16.0497 821.472 16.333C821.052 16.605 820.741 16.962 820.537 17.404L819.381 16.775C819.551 16.3897 819.817 16.0383 820.18 15.721C820.554 15.4037 820.979 15.1543 821.455 14.973C821.931 14.7803 822.424 14.684 822.934 14.684C823.602 14.684 824.192 14.8143 824.702 15.075C825.223 15.3357 825.625 15.6983 825.909 16.163C826.203 16.6163 826.351 17.1433 826.351 17.744V24H825.076V22.181L825.263 22.368C825.104 22.708 824.855 23.0197 824.515 23.303C824.186 23.575 823.795 23.796 823.342 23.966C822.9 24.1247 822.412 24.204 821.88 24.204ZM828.973 24V14.888H830.248V16.656L829.959 16.588C830.186 15.9987 830.554 15.534 831.064 15.194C831.585 14.854 832.186 14.684 832.866 14.684C833.512 14.684 834.09 14.8313 834.6 15.126C835.121 15.4207 835.529 15.8287 835.824 16.35C836.13 16.86 836.283 17.438 836.283 18.084V24H835.008V18.577C835.008 18.0217 834.906 17.5513 834.702 17.166C834.509 16.7807 834.232 16.486 833.869 16.282C833.518 16.0667 833.11 15.959 832.645 15.959C832.18 15.959 831.767 16.0667 831.404 16.282C831.041 16.486 830.758 16.7863 830.554 17.183C830.35 17.5683 830.248 18.033 830.248 18.577V24H828.973ZM843.036 27.74C842.413 27.74 841.835 27.6437 841.302 27.451C840.781 27.2583 840.328 26.992 839.942 26.652C839.568 26.3233 839.279 25.938 839.075 25.496L840.248 24.867C840.43 25.2977 840.753 25.6717 841.217 25.989C841.682 26.3063 842.277 26.465 843.002 26.465C843.558 26.465 844.068 26.3573 844.532 26.142C844.997 25.9267 845.371 25.6093 845.654 25.19C845.938 24.7707 846.079 24.255 846.079 23.643V21.62L846.283 21.807C845.966 22.4643 845.496 22.9743 844.872 23.337C844.249 23.6883 843.569 23.864 842.832 23.864C841.982 23.864 841.217 23.66 840.537 23.252C839.857 22.844 839.319 22.2943 838.922 21.603C838.537 20.9003 838.344 20.124 838.344 19.274C838.344 18.4127 838.537 17.6363 838.922 16.945C839.319 16.2537 839.852 15.704 840.52 15.296C841.2 14.888 841.971 14.684 842.832 14.684C843.569 14.684 844.238 14.854 844.838 15.194C845.45 15.534 845.932 15.993 846.283 16.571L846.079 16.928V14.888H847.354V23.643C847.354 24.425 847.167 25.122 846.793 25.734C846.431 26.3573 845.921 26.8447 845.263 27.196C844.617 27.5587 843.875 27.74 843.036 27.74ZM842.9 22.589C843.49 22.589 844.022 22.4417 844.498 22.147C844.974 21.841 845.354 21.4387 845.637 20.94C845.932 20.43 846.079 19.8747 846.079 19.274C846.079 18.6733 845.932 18.1237 845.637 17.625C845.354 17.115 844.974 16.7127 844.498 16.418C844.022 16.112 843.49 15.959 842.9 15.959C842.3 15.959 841.756 16.112 841.268 16.418C840.781 16.7127 840.396 17.1093 840.112 17.608C839.84 18.1067 839.704 18.662 839.704 19.274C839.704 19.8747 839.84 20.43 840.112 20.94C840.396 21.4387 840.775 21.841 841.251 22.147C841.739 22.4417 842.288 22.589 842.9 22.589ZM854.292 27.74C853.669 27.74 853.091 27.6437 852.558 27.451C852.037 27.2583 851.583 26.992 851.198 26.652C850.824 26.3233 850.535 25.938 850.331 25.496L851.504 24.867C851.685 25.2977 852.008 25.6717 852.473 25.989C852.938 26.3063 853.533 26.465 854.258 26.465C854.813 26.465 855.323 26.3573 855.788 26.142C856.253 25.9267 856.627 25.6093 856.91 25.19C857.193 24.7707 857.335 24.255 857.335 23.643V21.62L857.539 21.807C857.222 22.4643 856.751 22.9743 856.128 23.337C855.505 23.6883 854.825 23.864 854.088 23.864C853.238 23.864 852.473 23.66 851.793 23.252C851.113 22.844 850.575 22.2943 850.178 21.603C849.793 20.9003 849.6 20.124 849.6 19.274C849.6 18.4127 849.793 17.6363 850.178 16.945C850.575 16.2537 851.107 15.704 851.776 15.296C852.456 14.888 853.227 14.684 854.088 14.684C854.825 14.684 855.493 14.854 856.094 15.194C856.706 15.534 857.188 15.993 857.539 16.571L857.335 16.928V14.888H858.61V23.643C858.61 24.425 858.423 25.122 858.049 25.734C857.686 26.3573 857.176 26.8447 856.519 27.196C855.873 27.5587 855.131 27.74 854.292 27.74ZM854.156 22.589C854.745 22.589 855.278 22.4417 855.754 22.147C856.23 21.841 856.61 21.4387 856.893 20.94C857.188 20.43 857.335 19.8747 857.335 19.274C857.335 18.6733 857.188 18.1237 856.893 17.625C856.61 17.115 856.23 16.7127 855.754 16.418C855.278 16.112 854.745 15.959 854.156 15.959C853.555 15.959 853.011 16.112 852.524 16.418C852.037 16.7127 851.651 17.1093 851.368 17.608C851.096 18.1067 850.96 18.662 850.96 19.274C850.96 19.8747 851.096 20.43 851.368 20.94C851.651 21.4387 852.031 21.841 852.507 22.147C852.994 22.4417 853.544 22.589 854.156 22.589ZM863.865 24.204C863.287 24.204 862.771 24.0963 862.318 23.881C861.865 23.6543 861.508 23.3483 861.247 22.963C860.986 22.5777 860.856 22.1357 860.856 21.637C860.856 21.161 860.958 20.7303 861.162 20.345C861.366 19.9483 861.683 19.614 862.114 19.342C862.545 19.07 863.094 18.8773 863.763 18.764L867.333 18.169V19.325L864.069 19.869C863.412 19.9823 862.936 20.192 862.641 20.498C862.358 20.804 862.216 21.1667 862.216 21.586C862.216 21.994 862.375 22.3397 862.692 22.623C863.021 22.9063 863.44 23.048 863.95 23.048C864.573 23.048 865.117 22.9177 865.582 22.657C866.047 22.385 866.409 22.0223 866.67 21.569C866.931 21.1157 867.061 20.6113 867.061 20.056V17.744C867.061 17.2 866.863 16.758 866.466 16.418C866.069 16.078 865.554 15.908 864.919 15.908C864.364 15.908 863.876 16.0497 863.457 16.333C863.038 16.605 862.726 16.962 862.522 17.404L861.366 16.775C861.536 16.3897 861.802 16.0383 862.165 15.721C862.539 15.4037 862.964 15.1543 863.44 14.973C863.916 14.7803 864.409 14.684 864.919 14.684C865.588 14.684 866.177 14.8143 866.687 15.075C867.208 15.3357 867.611 15.6983 867.894 16.163C868.189 16.6163 868.336 17.1433 868.336 17.744V24H867.061V22.181L867.248 22.368C867.089 22.708 866.84 23.0197 866.5 23.303C866.171 23.575 865.78 23.796 865.327 23.966C864.885 24.1247 864.398 24.204 863.865 24.204ZM870.958 24V14.888H872.233V16.656L871.944 16.588C872.171 15.9987 872.539 15.534 873.049 15.194C873.571 14.854 874.171 14.684 874.851 14.684C875.497 14.684 876.075 14.8313 876.585 15.126C877.107 15.4207 877.515 15.8287 877.809 16.35C878.115 16.86 878.268 17.438 878.268 18.084V24H876.993V18.577C876.993 18.0217 876.891 17.5513 876.687 17.166C876.495 16.7807 876.217 16.486 875.854 16.282C875.503 16.0667 875.095 15.959 874.63 15.959C874.166 15.959 873.752 16.0667 873.389 16.282C873.027 16.486 872.743 16.7863 872.539 17.183C872.335 17.5683 872.233 18.033 872.233 18.577V24H870.958ZM794.496 45V32.335H799.817C800.531 32.335 801.149 32.471 801.67 32.743C802.203 33.0037 802.611 33.372 802.894 33.848C803.189 34.324 803.336 34.8793 803.336 35.514C803.336 36.1713 803.172 36.755 802.843 37.265C802.526 37.7637 802.067 38.1433 801.466 38.404L801.449 37.996C801.948 38.1773 802.373 38.4323 802.724 38.761C803.087 39.0897 803.364 39.475 803.557 39.917C803.75 40.3477 803.846 40.8123 803.846 41.311C803.846 42.4443 803.483 43.3453 802.758 44.014C802.044 44.6713 801.069 45 799.834 45H794.496ZM795.856 43.725H799.834C800.639 43.725 801.279 43.5153 801.755 43.096C802.242 42.6653 802.486 42.076 802.486 41.328C802.486 40.5913 802.242 40.0077 801.755 39.577C801.279 39.135 800.639 38.914 799.834 38.914H795.856V43.725ZM795.856 37.69H799.715C800.395 37.69 800.939 37.4917 801.347 37.095C801.766 36.6983 801.976 36.1883 801.976 35.565C801.976 34.9303 801.766 34.4487 801.347 34.12C800.939 33.78 800.395 33.61 799.715 33.61H795.856V37.69ZM808.731 45.204C808.153 45.204 807.637 45.0963 807.184 44.881C806.731 44.6543 806.374 44.3483 806.113 43.963C805.852 43.5777 805.722 43.1357 805.722 42.637C805.722 42.161 805.824 41.7303 806.028 41.345C806.232 40.9483 806.549 40.614 806.98 40.342C807.411 40.07 807.96 39.8773 808.629 39.764L812.199 39.169V40.325L808.935 40.869C808.278 40.9823 807.802 41.192 807.507 41.498C807.224 41.804 807.082 42.1667 807.082 42.586C807.082 42.994 807.241 43.3397 807.558 43.623C807.887 43.9063 808.306 44.048 808.816 44.048C809.439 44.048 809.983 43.9177 810.448 43.657C810.913 43.385 811.275 43.0223 811.536 42.569C811.797 42.1157 811.927 41.6113 811.927 41.056V38.744C811.927 38.2 811.729 37.758 811.332 37.418C810.935 37.078 810.42 36.908 809.785 36.908C809.23 36.908 808.742 37.0497 808.323 37.333C807.904 37.605 807.592 37.962 807.388 38.404L806.232 37.775C806.402 37.3897 806.668 37.0383 807.031 36.721C807.405 36.4037 807.83 36.1543 808.306 35.973C808.782 35.7803 809.275 35.684 809.785 35.684C810.454 35.684 811.043 35.8143 811.553 36.075C812.074 36.3357 812.477 36.6983 812.76 37.163C813.055 37.6163 813.202 38.1433 813.202 38.744V45H811.927V43.181L812.114 43.368C811.955 43.708 811.706 44.0197 811.366 44.303C811.037 44.575 810.646 44.796 810.193 44.966C809.751 45.1247 809.264 45.204 808.731 45.204ZM815.825 45V32.131H817.1V37.656L816.811 37.588C817.037 36.9987 817.406 36.534 817.916 36.194C818.437 35.854 819.038 35.684 819.718 35.684C820.364 35.684 820.942 35.8313 821.452 36.126C821.973 36.4207 822.381 36.8287 822.676 37.35C822.982 37.86 823.135 38.438 823.135 39.084V45H821.86V39.577C821.86 39.0217 821.758 38.5513 821.554 38.166C821.35 37.7807 821.066 37.486 820.704 37.282C820.352 37.0667 819.95 36.959 819.497 36.959C819.043 36.959 818.635 37.0667 818.273 37.282C817.91 37.486 817.621 37.7863 817.406 38.183C817.202 38.5683 817.1 39.033 817.1 39.577V45H815.825ZM828.205 45.204C827.627 45.204 827.111 45.0963 826.658 44.881C826.204 44.6543 825.847 44.3483 825.587 43.963C825.326 43.5777 825.196 43.1357 825.196 42.637C825.196 42.161 825.298 41.7303 825.502 41.345C825.706 40.9483 826.023 40.614 826.454 40.342C826.884 40.07 827.434 39.8773 828.103 39.764L831.673 39.169V40.325L828.409 40.869C827.751 40.9823 827.275 41.192 826.981 41.498C826.697 41.804 826.556 42.1667 826.556 42.586C826.556 42.994 826.714 43.3397 827.032 43.623C827.36 43.9063 827.78 44.048 828.29 44.048C828.913 44.048 829.457 43.9177 829.922 43.657C830.386 43.385 830.749 43.0223 831.01 42.569C831.27 42.1157 831.401 41.6113 831.401 41.056V38.744C831.401 38.2 831.202 37.758 830.806 37.418C830.409 37.078 829.893 36.908 829.259 36.908C828.703 36.908 828.216 37.0497 827.797 37.333C827.377 37.605 827.066 37.962 826.862 38.404L825.706 37.775C825.876 37.3897 826.142 37.0383 826.505 36.721C826.879 36.4037 827.304 36.1543 827.78 35.973C828.256 35.7803 828.749 35.684 829.259 35.684C829.927 35.684 830.517 35.8143 831.027 36.075C831.548 36.3357 831.95 36.6983 832.234 37.163C832.528 37.6163 832.676 38.1433 832.676 38.744V45H831.401V43.181L831.588 43.368C831.429 43.708 831.18 44.0197 830.84 44.303C830.511 44.575 830.12 44.796 829.667 44.966C829.225 45.1247 828.737 45.204 828.205 45.204ZM839.616 48.74C838.993 48.74 838.415 48.6437 837.882 48.451C837.361 48.2583 836.908 47.992 836.522 47.652C836.148 47.3233 835.859 46.938 835.655 46.496L836.828 45.867C837.01 46.2977 837.333 46.6717 837.797 46.989C838.262 47.3063 838.857 47.465 839.582 47.465C840.138 47.465 840.648 47.3573 841.112 47.142C841.577 46.9267 841.951 46.6093 842.234 46.19C842.518 45.7707 842.659 45.255 842.659 44.643V42.62L842.863 42.807C842.546 43.4643 842.076 43.9743 841.452 44.337C840.829 44.6883 840.149 44.864 839.412 44.864C838.562 44.864 837.797 44.66 837.117 44.252C836.437 43.844 835.899 43.2943 835.502 42.603C835.117 41.9003 834.924 41.124 834.924 40.274C834.924 39.4127 835.117 38.6363 835.502 37.945C835.899 37.2537 836.432 36.704 837.1 36.296C837.78 35.888 838.551 35.684 839.412 35.684C840.149 35.684 840.818 35.854 841.418 36.194C842.03 36.534 842.512 36.993 842.863 37.571L842.659 37.928V35.888H843.934V44.643C843.934 45.425 843.747 46.122 843.373 46.734C843.011 47.3573 842.501 47.8447 841.843 48.196C841.197 48.5587 840.455 48.74 839.616 48.74ZM839.48 43.589C840.07 43.589 840.602 43.4417 841.078 43.147C841.554 42.841 841.934 42.4387 842.217 41.94C842.512 41.43 842.659 40.8747 842.659 40.274C842.659 39.6733 842.512 39.1237 842.217 38.625C841.934 38.115 841.554 37.7127 841.078 37.418C840.602 37.112 840.07 36.959 839.48 36.959C838.88 36.959 838.336 37.112 837.848 37.418C837.361 37.7127 836.976 38.1093 836.692 38.608C836.42 39.1067 836.284 39.662 836.284 40.274C836.284 40.8747 836.42 41.43 836.692 41.94C836.976 42.4387 837.355 42.841 837.831 43.147C838.319 43.4417 838.868 43.589 839.48 43.589ZM846.554 45V35.888H847.829V45H846.554ZM846.554 34.205V32.335H847.829V34.205H846.554ZM853.074 45.204C852.496 45.204 851.98 45.0963 851.527 44.881C851.074 44.6543 850.717 44.3483 850.456 43.963C850.195 43.5777 850.065 43.1357 850.065 42.637C850.065 42.161 850.167 41.7303 850.371 41.345C850.575 40.9483 850.892 40.614 851.323 40.342C851.754 40.07 852.303 39.8773 852.972 39.764L856.542 39.169V40.325L853.278 40.869C852.621 40.9823 852.145 41.192 851.85 41.498C851.567 41.804 851.425 42.1667 851.425 42.586C851.425 42.994 851.584 43.3397 851.901 43.623C852.23 43.9063 852.649 44.048 853.159 44.048C853.782 44.048 854.326 43.9177 854.791 43.657C855.256 43.385 855.618 43.0223 855.879 42.569C856.14 42.1157 856.27 41.6113 856.27 41.056V38.744C856.27 38.2 856.072 37.758 855.675 37.418C855.278 37.078 854.763 36.908 854.128 36.908C853.573 36.908 853.085 37.0497 852.666 37.333C852.247 37.605 851.935 37.962 851.731 38.404L850.575 37.775C850.745 37.3897 851.011 37.0383 851.374 36.721C851.748 36.4037 852.173 36.1543 852.649 35.973C853.125 35.7803 853.618 35.684 854.128 35.684C854.797 35.684 855.386 35.8143 855.896 36.075C856.417 36.3357 856.82 36.6983 857.103 37.163C857.398 37.6163 857.545 38.1433 857.545 38.744V45H856.27V43.181L856.457 43.368C856.298 43.708 856.049 44.0197 855.709 44.303C855.38 44.575 854.989 44.796 854.536 44.966C854.094 45.1247 853.607 45.204 853.074 45.204Z" fill="white"/>
<path d="M709.376 44L720.17 29.93L720.926 30.014C720.506 30.574 720.044 31.022 719.54 31.358C719.036 31.666 718.476 31.89 717.86 32.03C717.272 32.17 716.628 32.24 715.928 32.24C714.08 32.24 712.414 31.82 710.93 30.98C709.474 30.112 708.312 28.936 707.444 27.452C706.604 25.94 706.184 24.218 706.184 22.286C706.184 20.354 706.632 18.632 707.528 17.12C708.424 15.608 709.656 14.418 711.224 13.55C712.792 12.654 714.556 12.206 716.516 12.206C718.532 12.206 720.31 12.654 721.85 13.55C723.418 14.418 724.65 15.636 725.546 17.204C726.442 18.744 726.89 20.522 726.89 22.538C726.89 23.63 726.764 24.708 726.512 25.772C726.26 26.836 725.854 27.914 725.294 29.006C724.762 30.098 724.048 31.232 723.152 32.408L714.332 44H709.376ZM716.516 28.628C717.72 28.628 718.784 28.362 719.708 27.83C720.66 27.27 721.402 26.514 721.934 25.562C722.466 24.582 722.732 23.49 722.732 22.286C722.732 21.026 722.452 19.92 721.892 18.968C721.36 18.016 720.632 17.26 719.708 16.7C718.784 16.14 717.72 15.86 716.516 15.86C715.34 15.86 714.29 16.14 713.366 16.7C712.442 17.26 711.7 18.016 711.14 18.968C710.608 19.92 710.342 21.026 710.342 22.286C710.342 23.49 710.608 24.582 711.14 25.562C711.672 26.514 712.4 27.27 713.324 27.83C714.276 28.362 715.34 28.628 716.516 28.628ZM731.411 44V41.144L740.063 31.778C741.771 29.958 743.129 28.46 744.137 27.284C745.173 26.108 745.929 25.058 746.405 24.134C746.881 23.21 747.119 22.23 747.119 21.194C747.119 19.486 746.615 18.17 745.607 17.246C744.599 16.322 743.269 15.86 741.617 15.86C739.937 15.86 738.509 16.35 737.333 17.33C736.157 18.282 735.345 19.64 734.897 21.404L731.159 20.438C731.523 18.758 732.195 17.302 733.175 16.07C734.155 14.838 735.373 13.886 736.829 13.214C738.285 12.542 739.881 12.206 741.617 12.206C743.521 12.206 745.187 12.584 746.615 13.34C748.071 14.068 749.205 15.09 750.017 16.406C750.857 17.722 751.277 19.248 751.277 20.984C751.277 22.132 751.039 23.252 750.563 24.344C750.087 25.436 749.387 26.598 748.463 27.83C747.539 29.034 746.335 30.434 744.851 32.03L737.123 40.43H751.949V44H731.411ZM769.531 44.504C767.039 44.504 764.855 43.832 762.979 42.488C761.131 41.116 759.689 39.226 758.653 36.818C757.617 34.382 757.099 31.554 757.099 28.334C757.099 25.114 757.617 22.3 758.653 19.892C759.689 17.456 761.131 15.566 762.979 14.222C764.827 12.878 766.997 12.206 769.489 12.206C771.981 12.206 774.151 12.878 775.999 14.222C777.847 15.566 779.289 17.456 780.325 19.892C781.389 22.3 781.921 25.114 781.921 28.334C781.921 31.554 781.403 34.382 780.367 36.818C779.331 39.254 777.875 41.144 775.999 42.488C774.151 43.832 771.995 44.504 769.531 44.504ZM769.531 40.682C771.211 40.682 772.667 40.178 773.899 39.17C775.131 38.134 776.083 36.692 776.755 34.844C777.455 32.996 777.805 30.826 777.805 28.334C777.805 25.842 777.455 23.672 776.755 21.824C776.083 19.976 775.117 18.548 773.857 17.54C772.625 16.532 771.169 16.028 769.489 16.028C767.809 16.028 766.353 16.532 765.121 17.54C763.889 18.548 762.923 19.976 762.223 21.824C761.551 23.672 761.215 25.842 761.215 28.334C761.215 30.798 761.551 32.954 762.223 34.802C762.923 36.65 763.889 38.092 765.121 39.128C766.381 40.164 767.851 40.682 769.531 40.682Z" fill="white"/>
<path d="M682.285 15H669.715C664.255 15 661 18.255 661 23.715V36.27C661 41.745 664.255 45 669.715 45H682.27C687.73 45 690.985 41.745 690.985 36.285V23.715C691 18.255 687.745 15 682.285 15ZM667.705 23.58C668.14 23.145 668.86 23.145 669.295 23.58C670.36 24.645 672.1 24.645 673.165 23.58C673.6 23.145 674.32 23.145 674.755 23.58C675.19 24.015 675.19 24.735 674.755 25.17C673.78 26.145 672.505 26.625 671.23 26.625C669.955 26.625 668.68 26.145 667.705 25.17C667.27 24.72 667.27 24.015 667.705 23.58ZM676 40.17C671.965 40.17 668.68 36.885 668.68 32.85C668.68 31.8 669.535 30.93 670.585 30.93H681.385C682.435 30.93 683.29 31.785 683.29 32.85C683.32 36.885 680.035 40.17 676 40.17ZM684.295 25.17C683.32 26.145 682.045 26.625 680.77 26.625C679.495 26.625 678.22 26.145 677.245 25.17C676.81 24.735 676.81 24.015 677.245 23.58C677.68 23.145 678.4 23.145 678.835 23.58C679.9 24.645 681.64 24.645 682.705 23.58C683.14 23.145 683.86 23.145 684.295 23.58C684.73 24.015 684.73 24.72 684.295 25.17Z" fill="#E8604C"/>
</svg>
