<svg width="551" height="329" viewBox="0 0 551 329" fill="none" xmlns="http://www.w3.org/2000/svg">
<g filter="url(#filter0_d_128_2883)">
<rect x="4" y="4" width="543" height="321" rx="18.4135" fill="white"/>
</g>
<path d="M41.2196 175.308L34.9455 157.932H37.3945L42.7123 173.209H42.2225L47.5403 157.932H49.9893L43.7386 175.308H41.2196ZM51.925 175.308V162.736H54.0941V175.308H51.925ZM51.925 160.73V157.932H54.0941V160.73H51.925ZM61.9613 175.588C60.7018 175.588 59.6056 175.277 58.6727 174.655C57.7397 174.033 57.0789 173.193 56.6902 172.136L58.4161 171.296C58.7737 172.042 59.2635 172.633 59.8855 173.069C60.5075 173.504 61.1994 173.722 61.9613 173.722C62.6455 173.722 63.213 173.558 63.6639 173.232C64.1149 172.905 64.3403 172.478 64.3403 171.949C64.3403 171.576 64.2315 171.28 64.0138 171.063C63.8117 170.83 63.5629 170.651 63.2674 170.526C62.972 170.386 62.6999 170.285 62.4511 170.223L60.5619 169.687C59.4268 169.36 58.5949 168.894 58.0663 168.287C57.5531 167.681 57.2966 166.973 57.2966 166.165C57.2966 165.418 57.4832 164.773 57.8563 164.229C58.2451 163.669 58.766 163.234 59.419 162.923C60.0876 162.612 60.834 162.456 61.6581 162.456C62.7621 162.456 63.7495 162.736 64.6202 163.296C65.5065 163.856 66.1363 164.641 66.5094 165.652L64.7368 166.468C64.457 165.815 64.0371 165.302 63.4774 164.929C62.9176 164.54 62.2878 164.346 61.5881 164.346C60.9506 164.346 60.4453 164.509 60.0721 164.835C59.6989 165.146 59.5123 165.543 59.5123 166.025C59.5123 166.382 59.6056 166.678 59.7922 166.911C59.9788 167.129 60.2043 167.3 60.4686 167.424C60.7329 167.533 60.9895 167.626 61.2383 167.704L63.2908 168.311C64.317 168.606 65.11 169.065 65.6698 169.687C66.2451 170.309 66.5328 171.055 66.5328 171.926C66.5328 172.625 66.3384 173.255 65.9497 173.815C65.5609 174.375 65.0245 174.81 64.3403 175.121C63.6562 175.432 62.8632 175.588 61.9613 175.588ZM73.0574 175.588C72.2333 175.588 71.5025 175.44 70.865 175.144C70.243 174.833 69.7532 174.414 69.3956 173.885C69.0379 173.341 68.8591 172.719 68.8591 172.019C68.8591 171.35 68.9991 170.752 69.2789 170.223C69.5744 169.679 70.0253 169.22 70.6317 168.847C71.2537 168.474 72.0311 168.209 72.9641 168.054L77.6288 167.284V169.104L73.4539 169.803C72.6453 169.943 72.0545 170.2 71.6813 170.573C71.3237 170.946 71.1448 171.405 71.1448 171.949C71.1448 172.462 71.347 172.89 71.7513 173.232C72.1711 173.574 72.692 173.745 73.314 173.745C74.107 173.745 74.7911 173.582 75.3664 173.255C75.9573 172.913 76.416 172.454 76.7425 171.879C77.0846 171.304 77.2557 170.666 77.2557 169.967V166.771C77.2557 166.087 76.9991 165.535 76.486 165.115C75.9884 164.68 75.3276 164.462 74.5035 164.462C73.7882 164.462 73.1507 164.649 72.5909 165.022C72.0467 165.38 71.6424 165.862 71.3781 166.468L69.4889 165.488C69.7221 164.913 70.0953 164.4 70.6084 163.949C71.1215 163.483 71.7202 163.117 72.4043 162.853C73.0885 162.588 73.8038 162.456 74.5501 162.456C75.5142 162.456 76.3616 162.643 77.0924 163.016C77.8232 163.374 78.3907 163.879 78.795 164.532C79.2149 165.17 79.4248 165.916 79.4248 166.771V175.308H77.3023V172.929L77.6988 173.069C77.4345 173.566 77.0768 174.002 76.6259 174.375C76.175 174.748 75.6463 175.043 75.0399 175.261C74.4335 175.479 73.7727 175.588 73.0574 175.588ZM87.076 175.308V157.932H92.767C94.5241 157.932 96.0557 158.289 97.3618 159.004C98.6679 159.72 99.6786 160.73 100.394 162.036C101.109 163.327 101.467 164.851 101.467 166.608C101.467 168.349 101.109 169.873 100.394 171.179C99.6786 172.486 98.6679 173.504 97.3618 174.235C96.0557 174.95 94.5241 175.308 92.767 175.308H87.076ZM89.3618 173.209H92.7904C94.0809 173.209 95.1927 172.936 96.1256 172.392C97.0741 171.848 97.805 171.086 98.3181 170.106C98.8312 169.111 99.0878 167.945 99.0878 166.608C99.0878 165.255 98.8234 164.089 98.2948 163.109C97.7816 162.13 97.0508 161.376 96.1023 160.847C95.1694 160.303 94.0654 160.031 92.7904 160.031H89.3618V173.209ZM110.078 175.588C108.865 175.588 107.769 175.308 106.79 174.748C105.81 174.173 105.032 173.387 104.457 172.392C103.882 171.397 103.594 170.27 103.594 169.01C103.594 167.751 103.874 166.631 104.434 165.652C105.009 164.672 105.787 163.895 106.766 163.319C107.746 162.744 108.85 162.456 110.078 162.456C111.291 162.456 112.387 162.744 113.367 163.319C114.346 163.879 115.116 164.649 115.676 165.628C116.251 166.608 116.539 167.735 116.539 169.01C116.539 170.285 116.243 171.42 115.653 172.416C115.062 173.395 114.276 174.173 113.297 174.748C112.333 175.308 111.26 175.588 110.078 175.588ZM110.078 173.488C110.856 173.488 111.555 173.294 112.177 172.905C112.815 172.517 113.312 171.98 113.67 171.296C114.043 170.612 114.23 169.85 114.23 169.01C114.23 168.155 114.043 167.401 113.67 166.748C113.312 166.079 112.815 165.551 112.177 165.162C111.555 164.758 110.856 164.555 110.078 164.555C109.285 164.555 108.57 164.758 107.932 165.162C107.31 165.551 106.813 166.079 106.44 166.748C106.066 167.401 105.88 168.155 105.88 169.01C105.88 169.85 106.066 170.612 106.44 171.296C106.813 171.98 107.31 172.517 107.932 172.905C108.57 173.294 109.285 173.488 110.078 173.488ZM125.199 175.588C123.97 175.588 122.874 175.3 121.91 174.725C120.962 174.149 120.215 173.364 119.671 172.369C119.127 171.374 118.855 170.254 118.855 169.01C118.855 167.751 119.127 166.631 119.671 165.652C120.215 164.672 120.962 163.895 121.91 163.319C122.874 162.744 123.97 162.456 125.199 162.456C126.023 162.456 126.793 162.604 127.508 162.899C128.223 163.195 128.853 163.591 129.397 164.089C129.941 164.587 130.338 165.17 130.587 165.838L128.651 166.771C128.355 166.118 127.904 165.589 127.298 165.185C126.692 164.765 125.992 164.555 125.199 164.555C124.437 164.555 123.745 164.75 123.123 165.139C122.517 165.527 122.035 166.056 121.677 166.725C121.319 167.393 121.141 168.163 121.141 169.034C121.141 169.873 121.319 170.635 121.677 171.319C122.035 171.988 122.517 172.517 123.123 172.905C123.745 173.294 124.437 173.488 125.199 173.488C125.992 173.488 126.692 173.286 127.298 172.882C127.904 172.462 128.355 171.91 128.651 171.226L130.587 172.206C130.338 172.859 129.941 173.442 129.397 173.955C128.853 174.452 128.223 174.849 127.508 175.144C126.793 175.44 126.023 175.588 125.199 175.588ZM137.876 175.588C136.974 175.588 136.158 175.378 135.427 174.958C134.712 174.538 134.152 173.955 133.748 173.209C133.359 172.447 133.165 171.576 133.165 170.596V162.736H135.334V170.363C135.334 170.985 135.458 171.529 135.707 171.996C135.971 172.462 136.329 172.828 136.78 173.092C137.246 173.356 137.775 173.488 138.366 173.488C138.957 173.488 139.478 173.356 139.929 173.092C140.395 172.828 140.753 172.447 141.002 171.949C141.266 171.451 141.398 170.861 141.398 170.176V162.736H143.591V175.308H141.468V172.859L141.818 173.069C141.522 173.862 141.017 174.484 140.302 174.934C139.602 175.37 138.794 175.588 137.876 175.588ZM146.951 175.308V162.736H149.073V165.302L148.77 164.905C149.081 164.112 149.579 163.506 150.263 163.086C150.947 162.666 151.717 162.456 152.572 162.456C153.552 162.456 154.43 162.728 155.208 163.273C156.001 163.817 156.545 164.532 156.84 165.418L156.234 165.442C156.56 164.462 157.112 163.724 157.89 163.226C158.667 162.713 159.53 162.456 160.479 162.456C161.349 162.456 162.135 162.658 162.834 163.063C163.55 163.467 164.117 164.027 164.537 164.742C164.957 165.457 165.167 166.266 165.167 167.168V175.308H162.974V167.867C162.974 167.168 162.85 166.577 162.601 166.095C162.352 165.613 162.01 165.24 161.575 164.975C161.155 164.695 160.658 164.555 160.082 164.555C159.522 164.555 159.017 164.695 158.566 164.975C158.131 165.24 157.781 165.621 157.517 166.118C157.268 166.6 157.143 167.183 157.143 167.867V175.308H154.951V167.867C154.951 167.168 154.827 166.577 154.578 166.095C154.329 165.613 153.987 165.24 153.552 164.975C153.132 164.695 152.634 164.555 152.059 164.555C151.499 164.555 150.994 164.695 150.543 164.975C150.107 165.24 149.758 165.621 149.493 166.118C149.244 166.6 149.12 167.183 149.12 167.867V175.308H146.951ZM174.032 175.588C172.819 175.588 171.738 175.3 170.79 174.725C169.841 174.149 169.095 173.364 168.551 172.369C168.006 171.358 167.734 170.231 167.734 168.987C167.734 167.727 167.999 166.608 168.527 165.628C169.072 164.649 169.802 163.879 170.72 163.319C171.653 162.744 172.695 162.456 173.845 162.456C174.778 162.456 175.602 162.627 176.318 162.969C177.048 163.296 177.663 163.747 178.16 164.322C178.673 164.882 179.062 165.527 179.326 166.258C179.606 166.973 179.746 167.72 179.746 168.497C179.746 168.668 179.731 168.863 179.699 169.08C179.684 169.282 179.661 169.477 179.629 169.663H169.32V167.797H178.37L177.344 168.637C177.484 167.829 177.406 167.106 177.111 166.468C176.815 165.83 176.38 165.325 175.804 164.952C175.229 164.579 174.576 164.392 173.845 164.392C173.114 164.392 172.446 164.579 171.839 164.952C171.233 165.325 170.759 165.862 170.417 166.561C170.09 167.245 169.958 168.062 170.02 169.01C169.958 169.928 170.098 170.736 170.44 171.436C170.798 172.12 171.295 172.657 171.933 173.045C172.586 173.418 173.293 173.605 174.055 173.605C174.895 173.605 175.602 173.411 176.178 173.022C176.753 172.633 177.219 172.136 177.577 171.529L179.396 172.462C179.147 173.038 178.759 173.566 178.23 174.048C177.717 174.515 177.103 174.888 176.387 175.168C175.688 175.448 174.903 175.588 174.032 175.588ZM182.574 175.308V162.736H184.697V165.185L184.347 164.975C184.658 164.182 185.155 163.568 185.84 163.133C186.539 162.682 187.356 162.456 188.289 162.456C189.19 162.456 189.991 162.658 190.691 163.063C191.406 163.467 191.966 164.027 192.37 164.742C192.79 165.457 193 166.266 193 167.168V175.308H190.808V167.867C190.808 167.168 190.683 166.577 190.434 166.095C190.186 165.613 189.828 165.24 189.361 164.975C188.911 164.695 188.39 164.555 187.799 164.555C187.208 164.555 186.679 164.695 186.213 164.975C185.762 165.24 185.404 165.621 185.14 166.118C184.876 166.6 184.743 167.183 184.743 167.867V175.308H182.574ZM201.212 175.448C199.983 175.448 199.035 175.098 198.366 174.398C197.713 173.698 197.387 172.711 197.387 171.436V164.812H195.101V162.736H195.567C196.127 162.736 196.57 162.565 196.897 162.223C197.223 161.881 197.387 161.43 197.387 160.87V159.844H199.556V162.736H202.378V164.812H199.556V171.366C199.556 171.786 199.618 172.151 199.742 172.462C199.882 172.773 200.108 173.022 200.419 173.209C200.73 173.38 201.142 173.465 201.655 173.465C201.764 173.465 201.896 173.457 202.051 173.442C202.222 173.426 202.378 173.411 202.518 173.395V175.308C202.316 175.354 202.09 175.385 201.841 175.401C201.593 175.432 201.383 175.448 201.212 175.448ZM209.853 175.588C208.593 175.588 207.497 175.277 206.564 174.655C205.631 174.033 204.97 173.193 204.582 172.136L206.308 171.296C206.665 172.042 207.155 172.633 207.777 173.069C208.399 173.504 209.091 173.722 209.853 173.722C210.537 173.722 211.105 173.558 211.555 173.232C212.006 172.905 212.232 172.478 212.232 171.949C212.232 171.576 212.123 171.28 211.905 171.063C211.703 170.83 211.454 170.651 211.159 170.526C210.864 170.386 210.591 170.285 210.343 170.223L208.453 169.687C207.318 169.36 206.486 168.894 205.958 168.287C205.445 167.681 205.188 166.973 205.188 166.165C205.188 165.418 205.375 164.773 205.748 164.229C206.137 163.669 206.657 163.234 207.311 162.923C207.979 162.612 208.726 162.456 209.55 162.456C210.654 162.456 211.641 162.736 212.512 163.296C213.398 163.856 214.028 164.641 214.401 165.652L212.628 166.468C212.348 165.815 211.929 165.302 211.369 164.929C210.809 164.54 210.179 164.346 209.48 164.346C208.842 164.346 208.337 164.509 207.964 164.835C207.59 165.146 207.404 165.543 207.404 166.025C207.404 166.382 207.497 166.678 207.684 166.911C207.87 167.129 208.096 167.3 208.36 167.424C208.624 167.533 208.881 167.626 209.13 167.704L211.182 168.311C212.209 168.606 213.002 169.065 213.561 169.687C214.137 170.309 214.424 171.055 214.424 171.926C214.424 172.625 214.23 173.255 213.841 173.815C213.452 174.375 212.916 174.81 212.232 175.121C211.548 175.432 210.755 175.588 209.853 175.588Z" fill="#313041"/>
<path fill-rule="evenodd" clip-rule="evenodd" d="M46.3224 54.868H85.6287V44.2047C85.6287 42.5291 84.4235 41.4749 82.8031 41.857L46.025 50.5187C44.2684 50.9321 42.7852 52.8554 42.7852 54.7197V56.2122C43.7288 55.3771 44.9662 54.868 46.3224 54.868ZM72.6407 84.8083C72.1915 87.6154 71.4144 90.138 70.3243 91.8348C74.123 90.8709 77.2726 88.2589 78.9621 84.8083H72.6407ZM63.3171 84.8083H70.8279C70.0343 89.5138 68.3651 92.2409 67.0725 92.2409C65.7799 92.2409 64.1107 89.5138 63.3171 84.8083ZM63.8207 91.8348C62.7306 90.138 61.9536 87.6154 61.5043 84.8083H55.1811C56.8724 88.2599 60.022 90.8709 63.8207 91.8348ZM72.8783 75.0123C73.1572 77.639 73.1572 80.3771 72.8783 83.0047H79.6867C80.5116 80.4065 80.5116 77.6114 79.6867 75.0123H72.8783ZM63.0703 75.0123C62.7905 77.5828 62.7905 80.4332 63.0703 83.0047H71.0756C71.3546 80.4443 71.3536 77.5727 71.0756 75.0123H63.0703ZM61.0568 79.0089C61.0568 77.6758 61.1268 76.3261 61.2658 75.0132H54.4593C53.6334 77.6095 53.6334 80.4093 54.4593 83.0056H61.2667C61.1268 81.6909 61.0568 80.3421 61.0568 79.0089ZM70.3243 66.1821C71.4144 67.8789 72.1915 70.4016 72.6407 73.2087H78.963C77.2726 69.758 74.123 67.1461 70.3243 66.1821ZM67.0725 65.777C68.3651 65.777 70.0334 68.505 70.8279 73.2096H63.3171C64.1107 68.5041 65.7799 65.777 67.0725 65.777ZM61.5043 73.2087C61.9536 70.4016 62.7306 67.8789 63.8207 66.1821C60.022 67.1461 56.8724 69.7571 55.182 73.2087H61.5043ZM87.8236 56.6716C89.7726 56.6716 91.3599 58.2579 91.3599 60.2088V117.607C91.3599 119.557 89.7726 121.144 87.8236 121.144H46.3224C44.3724 121.144 42.7852 119.557 42.7852 117.607V60.2088C42.7852 58.2579 44.3724 56.6716 46.3224 56.6716H87.8236ZM52.0361 79.0089C52.0361 70.7183 58.7828 63.9734 67.0725 63.9734C75.3623 63.9734 82.108 70.7183 82.108 79.0089C82.108 87.2996 75.3623 94.0454 67.0725 94.0454C58.7828 94.0454 52.0361 87.2996 52.0361 79.0089ZM54.6407 106.948C53.4539 106.948 53.4539 108.751 54.6407 108.751H79.5034C80.6902 108.751 80.6902 106.948 79.5034 106.948H54.6407ZM79.5044 112.238H54.6407C53.4539 112.238 53.453 114.041 54.6407 114.041H79.5034C80.6911 114.041 80.6911 112.238 79.5044 112.238ZM59.1501 101.657C59.1501 102.155 59.5543 102.559 60.0515 102.559H74.0926C75.2794 102.559 75.2794 100.755 74.0926 100.755H60.0524C59.5543 100.754 59.1501 101.158 59.1501 101.657Z" fill="#E8604C"/>
<path d="M35.1309 192.546V191.368H42.349L37.4142 201.68H36.1031L40.4782 192.546H35.1309ZM46.9184 198.733V197.629H49.8645V198.733H46.9184ZM55.5324 193.401V192.105L59.0678 191.221V201.68H57.8157V192.723L55.5324 193.401ZM61.2803 199.617L66.9958 191.368H67.5114V201.68H66.2593V199.087V198.925V194.152L63.3426 198.512H66.7749H67.0253H69.1318V199.617H61.2803ZM84.3459 198.954L87.0269 191.368H88.4264L84.3754 202.195L81.2819 194.182L78.1885 202.195L74.1375 191.368H75.5369L78.2769 198.954L81.2819 190.852L84.3459 198.954ZM90.2763 196.524C90.2763 197.3 90.4433 197.992 90.7772 198.601C91.1209 199.21 91.5874 199.691 92.1766 200.044C92.7658 200.398 93.4336 200.575 94.18 200.575C94.9362 200.575 95.604 200.398 96.1834 200.044C96.7726 199.691 97.2342 199.21 97.5681 198.601C97.9118 197.992 98.0836 197.3 98.0836 196.524C98.0836 195.748 97.9118 195.056 97.5681 194.447C97.2342 193.838 96.7726 193.357 96.1834 193.003C95.604 192.65 94.9362 192.473 94.18 192.473C93.4336 192.473 92.7658 192.65 92.1766 193.003C91.5874 193.357 91.1209 193.838 90.7772 194.447C90.4433 195.056 90.2763 195.748 90.2763 196.524ZM88.9506 196.524C88.9506 195.768 89.0782 195.07 89.3336 194.432C89.5987 193.784 89.967 193.224 90.4384 192.753C90.9098 192.272 91.4646 191.898 92.1029 191.633C92.7413 191.358 93.4336 191.221 94.18 191.221C94.9362 191.221 95.6285 191.358 96.257 191.633C96.8954 191.898 97.4502 192.272 97.9216 192.753C98.393 193.224 98.7563 193.784 99.0117 194.432C99.2768 195.07 99.4094 195.768 99.4094 196.524C99.4094 197.27 99.2768 197.967 99.0117 198.616C98.7563 199.264 98.393 199.828 97.9216 200.31C97.4502 200.781 96.8954 201.154 96.257 201.429C95.6285 201.694 94.9362 201.827 94.18 201.827C93.4336 201.827 92.7413 201.694 92.1029 201.429C91.4646 201.154 90.9098 200.781 90.4384 200.31C89.967 199.828 89.5987 199.264 89.3336 198.616C89.0782 197.967 88.9506 197.27 88.9506 196.524ZM103.019 196.597H104.418L108.101 201.68H106.554L103.019 196.597ZM101.178 191.368H102.43V201.68H101.178V191.368ZM101.87 192.473V191.368H103.977C104.644 191.368 105.238 191.496 105.759 191.751C106.289 191.997 106.707 192.35 107.011 192.812C107.325 193.273 107.482 193.823 107.482 194.461C107.482 195.09 107.325 195.64 107.011 196.111C106.707 196.573 106.289 196.931 105.759 197.187C105.238 197.432 104.644 197.555 103.977 197.555H101.87V196.45H103.977C104.418 196.45 104.806 196.372 105.14 196.214C105.484 196.057 105.749 195.831 105.936 195.537C106.132 195.242 106.23 194.884 106.23 194.461C106.23 194.039 106.132 193.681 105.936 193.386C105.749 193.092 105.484 192.866 105.14 192.709C104.806 192.551 104.418 192.473 103.977 192.473H101.87ZM109.421 191.368H110.673V201.68H109.421V191.368ZM114.724 191.368H116.27L111.807 196.2L116.491 201.68H114.945L110.29 196.229L114.724 191.368ZM117.75 191.368H119.002V201.68H117.75V191.368ZM129.168 191.368H130.42V202.195L122.613 194.005V201.68H121.361V190.852L129.168 199.043V191.368ZM137.57 197.629V196.45H142.358C142.358 197.167 142.25 197.85 142.034 198.498C141.818 199.136 141.498 199.706 141.076 200.206C140.654 200.707 140.133 201.105 139.515 201.4C138.906 201.684 138.208 201.827 137.423 201.827C136.676 201.827 135.984 201.699 135.346 201.444C134.707 201.179 134.153 200.81 133.681 200.339C133.21 199.858 132.842 199.293 132.576 198.645C132.321 197.997 132.193 197.29 132.193 196.524C132.193 195.758 132.321 195.051 132.576 194.403C132.842 193.754 133.21 193.195 133.681 192.723C134.153 192.242 134.707 191.874 135.346 191.618C135.984 191.353 136.676 191.221 137.423 191.221C138.061 191.221 138.646 191.304 139.176 191.471C139.716 191.638 140.197 191.884 140.619 192.208C141.052 192.532 141.415 192.934 141.71 193.416L140.826 194.226C140.502 193.676 140.05 193.249 139.47 192.944C138.891 192.63 138.208 192.473 137.423 192.473C136.696 192.473 136.038 192.645 135.449 192.988C134.86 193.332 134.388 193.808 134.035 194.417C133.691 195.016 133.519 195.719 133.519 196.524C133.519 197.319 133.691 198.021 134.035 198.63C134.388 199.239 134.86 199.715 135.449 200.059C136.038 200.403 136.696 200.575 137.423 200.575C137.934 200.575 138.39 200.501 138.793 200.354C139.205 200.197 139.559 199.981 139.853 199.706C140.148 199.431 140.389 199.116 140.575 198.763C140.772 198.409 140.914 198.031 141.002 197.629H137.57ZM148.621 191.368H149.873V201.68H148.621V191.368ZM151.715 201.68H149.313V200.427H151.715C152.294 200.427 152.824 200.339 153.305 200.162C153.787 199.976 154.199 199.715 154.543 199.382C154.887 199.038 155.152 198.625 155.338 198.144C155.525 197.663 155.618 197.123 155.618 196.524C155.618 195.925 155.525 195.385 155.338 194.903C155.152 194.422 154.887 194.015 154.543 193.681C154.199 193.337 153.787 193.077 153.305 192.9C152.824 192.713 152.294 192.62 151.715 192.62H149.313V191.368H151.715C152.716 191.368 153.605 191.584 154.381 192.016C155.157 192.448 155.766 193.052 156.207 193.828C156.649 194.594 156.87 195.493 156.87 196.524C156.87 197.555 156.649 198.458 156.207 199.234C155.766 200 155.157 200.599 154.381 201.031C153.605 201.464 152.716 201.68 151.715 201.68ZM159.174 198.586L159.616 197.408H164.183L164.625 198.586H159.174ZM161.87 193.695L160.132 197.791L160.014 198.056L158.482 201.68H157.083L161.87 190.852L166.658 201.68H165.258L163.756 198.144L163.638 197.85L161.87 193.695ZM172.489 191.368H173.888L170.456 197.231V201.68H169.204V197.246L165.772 191.368H167.171L169.822 196.141L172.489 191.368ZM175.517 198.557C175.752 198.969 175.998 199.332 176.253 199.647C176.518 199.961 176.813 200.206 177.137 200.383C177.461 200.56 177.829 200.648 178.242 200.648C178.792 200.648 179.234 200.496 179.568 200.192C179.901 199.887 180.068 199.499 180.068 199.028C180.068 198.566 179.96 198.198 179.744 197.923C179.528 197.648 179.244 197.427 178.89 197.26C178.546 197.084 178.178 196.926 177.785 196.789C177.53 196.701 177.245 196.588 176.931 196.45C176.617 196.303 176.317 196.121 176.032 195.905C175.747 195.679 175.512 195.404 175.325 195.08C175.148 194.756 175.06 194.358 175.06 193.887C175.06 193.376 175.188 192.92 175.443 192.517C175.698 192.114 176.052 191.8 176.504 191.574C176.955 191.339 177.471 191.221 178.05 191.221C178.61 191.221 179.096 191.329 179.509 191.545C179.931 191.751 180.289 192.021 180.584 192.355C180.879 192.679 181.109 193.023 181.276 193.386L180.201 194.005C180.073 193.75 179.911 193.499 179.715 193.254C179.518 193.008 179.278 192.807 178.993 192.65C178.718 192.492 178.379 192.414 177.977 192.414C177.417 192.414 177.009 192.551 176.754 192.826C176.499 193.092 176.371 193.391 176.371 193.725C176.371 194.01 176.445 194.275 176.592 194.52C176.739 194.756 176.985 194.982 177.329 195.198C177.682 195.404 178.158 195.61 178.757 195.817C179.032 195.915 179.322 196.043 179.627 196.2C179.931 196.357 180.211 196.558 180.466 196.804C180.731 197.039 180.947 197.329 181.114 197.673C181.281 198.007 181.365 198.409 181.365 198.881C181.365 199.332 181.276 199.74 181.1 200.103C180.933 200.467 180.697 200.776 180.393 201.031C180.098 201.287 179.759 201.483 179.376 201.621C179.003 201.758 178.61 201.827 178.198 201.827C177.638 201.827 177.117 201.709 176.636 201.473C176.165 201.228 175.747 200.909 175.384 200.516C175.031 200.113 174.741 199.686 174.515 199.234L175.517 198.557Z" fill="#666666"/>
<path d="M41.8451 241.975C41.7823 241.445 41.5278 241.033 41.0814 240.74C40.635 240.447 40.0875 240.301 39.4388 240.301C38.9645 240.301 38.5495 240.377 38.1938 240.531C37.8416 240.684 37.5661 240.895 37.3673 241.164C37.172 241.432 37.0743 241.738 37.0743 242.079C37.0743 242.365 37.1423 242.611 37.2784 242.817C37.4179 243.019 37.5957 243.188 37.8119 243.324C38.0281 243.457 38.2548 243.567 38.492 243.654C38.7291 243.738 38.9471 243.806 39.1459 243.858L40.2339 244.151C40.5129 244.224 40.8233 244.325 41.1651 244.454C41.5103 244.583 41.8399 244.759 42.1537 244.983C42.4711 245.202 42.7326 245.485 42.9384 245.83C43.1442 246.175 43.247 246.599 43.247 247.101C43.247 247.68 43.0953 248.203 42.7919 248.67C42.492 249.138 42.0526 249.509 41.4737 249.785C40.8983 250.06 40.1991 250.198 39.376 250.198C38.6088 250.198 37.9445 250.074 37.383 249.827C36.825 249.579 36.3856 249.234 36.0647 248.791C35.7474 248.348 35.5678 247.834 35.5259 247.248H36.8651C36.9 247.652 37.036 247.987 37.2731 248.252C37.5138 248.514 37.8172 248.709 38.1833 248.838C38.553 248.963 38.9506 249.026 39.376 249.026C39.8712 249.026 40.3159 248.946 40.71 248.786C41.104 248.622 41.4162 248.395 41.6463 248.106C41.8765 247.813 41.9916 247.471 41.9916 247.08C41.9916 246.725 41.8922 246.435 41.6934 246.212C41.4946 245.989 41.2331 245.807 40.9087 245.668C40.5844 245.528 40.2339 245.406 39.8573 245.302L38.5391 244.925C37.7021 244.684 37.0395 244.341 36.5512 243.894C36.063 243.448 35.8189 242.864 35.8189 242.142C35.8189 241.542 35.981 241.019 36.3054 240.573C36.6332 240.123 37.0726 239.774 37.6236 239.527C38.1781 239.275 38.7971 239.15 39.4807 239.15C40.1712 239.15 40.7849 239.274 41.322 239.521C41.8591 239.765 42.2845 240.1 42.5984 240.526C42.9157 240.951 43.0831 241.434 43.1006 241.975H41.8451ZM48.707 241.975V243.021H44.543V241.975H48.707ZM45.7567 240.05H46.9912V247.708C46.9912 248.057 47.0418 248.318 47.1429 248.493C47.2475 248.664 47.38 248.779 47.5405 248.838C47.7044 248.894 47.877 248.922 48.0583 248.922C48.1944 248.922 48.3059 248.915 48.3931 248.901C48.4803 248.883 48.5501 248.869 48.6024 248.859L48.8535 249.968C48.7698 249.999 48.6529 250.031 48.503 250.062C48.353 250.097 48.163 250.114 47.9328 250.114C47.5841 250.114 47.2423 250.039 46.9075 249.889C46.5762 249.739 46.3007 249.511 46.081 249.204C45.8648 248.897 45.7567 248.51 45.7567 248.043V240.05ZM52.9285 250.198C52.4193 250.198 51.9573 250.102 51.5423 249.91C51.1273 249.715 50.7977 249.434 50.5536 249.068C50.3095 248.698 50.1874 248.252 50.1874 247.729C50.1874 247.269 50.2781 246.895 50.4594 246.609C50.6408 246.32 50.8831 246.093 51.1865 245.929C51.4899 245.765 51.8247 245.643 52.1909 245.563C52.5606 245.48 52.932 245.413 53.3051 245.364C53.7934 245.302 54.1892 245.255 54.4926 245.223C54.7995 245.188 55.0227 245.131 55.1622 245.051C55.3052 244.97 55.3766 244.831 55.3766 244.632V244.59C55.3766 244.074 55.2354 243.673 54.9529 243.387C54.6739 243.101 54.2502 242.958 53.6818 242.958C53.0924 242.958 52.6303 243.087 52.2955 243.345C51.9607 243.603 51.7253 243.879 51.5893 244.172L50.4176 243.753C50.6268 243.265 50.9058 242.885 51.2545 242.613C51.6068 242.337 51.9904 242.146 52.4054 242.037C52.8239 241.926 53.2354 241.87 53.6399 241.87C53.898 241.87 54.1944 241.901 54.5292 241.964C54.8675 242.024 55.1936 242.147 55.5074 242.336C55.8248 242.524 56.0881 242.808 56.2973 243.188C56.5066 243.568 56.6112 244.078 56.6112 244.716V250.01H55.3766V248.922H55.3139C55.2302 249.096 55.0907 249.283 54.8954 249.481C54.7001 249.68 54.4403 249.849 54.116 249.989C53.7916 250.128 53.3958 250.198 52.9285 250.198ZM53.1168 249.089C53.605 249.089 54.0166 248.993 54.3514 248.801C54.6896 248.609 54.9442 248.362 55.1151 248.058C55.2895 247.755 55.3766 247.436 55.3766 247.101V245.971C55.3243 246.034 55.2093 246.092 55.0314 246.144C54.857 246.193 54.6548 246.236 54.4246 246.275C54.1979 246.31 53.9765 246.341 53.7602 246.369C53.5475 246.393 53.3749 246.414 53.2424 246.432C52.9215 246.473 52.6216 246.541 52.3426 246.636C52.0671 246.726 51.8439 246.864 51.673 247.049C51.5056 247.23 51.4219 247.478 51.4219 247.792C51.4219 248.221 51.5806 248.545 51.898 248.765C52.2188 248.981 52.6251 249.089 53.1168 249.089ZM58.8645 250.01V241.975H60.0572V243.188H60.1409C60.2873 242.791 60.5524 242.468 60.936 242.221C61.3196 241.973 61.752 241.849 62.2333 241.849C62.324 241.849 62.4373 241.851 62.5733 241.854C62.7093 241.858 62.8122 241.863 62.882 241.87V243.126C62.8401 243.115 62.7442 243.099 62.5943 243.078C62.4478 243.054 62.2926 243.042 62.1287 243.042C61.7381 243.042 61.3894 243.124 61.0825 243.288C60.7791 243.448 60.5384 243.671 60.3606 243.957C60.1862 244.24 60.099 244.562 60.099 244.925V250.01H58.8645ZM68.3432 241.975V243.021H64.1793V241.975H68.3432ZM65.3929 240.05H66.6274V247.708C66.6274 248.057 66.678 248.318 66.7791 248.493C66.8838 248.664 67.0163 248.779 67.1767 248.838C67.3406 248.894 67.5132 248.922 67.6946 248.922C67.8306 248.922 67.9422 248.915 68.0294 248.901C68.1166 248.883 68.1863 248.869 68.2386 248.859L68.4897 249.968C68.406 249.999 68.2892 250.031 68.1392 250.062C67.9893 250.097 67.7992 250.114 67.569 250.114C67.2203 250.114 66.8785 250.039 66.5437 249.889C66.2124 249.739 65.9369 249.511 65.7172 249.204C65.501 248.897 65.3929 248.51 65.3929 248.043V240.05ZM77.9214 241.975V243.021H73.59V241.975H77.9214ZM74.8873 250.01V240.866C74.8873 240.405 74.9954 240.022 75.2117 239.715C75.4279 239.408 75.7086 239.178 76.0539 239.024C76.3991 238.871 76.7636 238.794 77.1472 238.794C77.4506 238.794 77.6982 238.819 77.89 238.867C78.0818 238.916 78.2248 238.962 78.3189 239.003L77.9632 240.071C77.9004 240.05 77.8133 240.023 77.7017 239.992C77.5936 239.961 77.4506 239.945 77.2727 239.945C76.8647 239.945 76.57 240.048 76.3887 240.254C76.2108 240.459 76.1219 240.761 76.1219 241.159V250.01H74.8873ZM79.6516 250.01V241.975H80.8442V243.188H80.9279C81.0744 242.791 81.3395 242.468 81.7231 242.221C82.1067 241.973 82.5391 241.849 83.0204 241.849C83.1111 241.849 83.2244 241.851 83.3604 241.854C83.4964 241.858 83.5993 241.863 83.669 241.87V243.126C83.6272 243.115 83.5313 243.099 83.3813 243.078C83.2349 243.054 83.0797 243.042 82.9158 243.042C82.5252 243.042 82.1764 243.124 81.8695 243.288C81.5661 243.448 81.3255 243.671 81.1476 243.957C80.9733 244.24 80.8861 244.562 80.8861 244.925V250.01H79.6516ZM88.1521 250.177C87.4267 250.177 86.7903 250.004 86.2427 249.659C85.6987 249.314 85.2732 248.831 84.9663 248.21C84.6629 247.589 84.5112 246.864 84.5112 246.034C84.5112 245.197 84.6629 244.466 84.9663 243.842C85.2732 243.218 85.6987 242.733 86.2427 242.388C86.7903 242.043 87.4267 241.87 88.1521 241.87C88.8775 241.87 89.5122 242.043 90.0562 242.388C90.6037 242.733 91.0292 243.218 91.3326 243.842C91.6395 244.466 91.7929 245.197 91.7929 246.034C91.7929 246.864 91.6395 247.589 91.3326 248.21C91.0292 248.831 90.6037 249.314 90.0562 249.659C89.5122 250.004 88.8775 250.177 88.1521 250.177ZM88.1521 249.068C88.7031 249.068 89.1565 248.927 89.5122 248.644C89.8679 248.362 90.1312 247.99 90.3021 247.53C90.473 247.07 90.5584 246.571 90.5584 246.034C90.5584 245.497 90.473 244.997 90.3021 244.533C90.1312 244.069 89.8679 243.694 89.5122 243.408C89.1565 243.122 88.7031 242.979 88.1521 242.979C87.6011 242.979 87.1477 243.122 86.792 243.408C86.4363 243.694 86.173 244.069 86.0021 244.533C85.8312 244.997 85.7458 245.497 85.7458 246.034C85.7458 246.571 85.8312 247.07 86.0021 247.53C86.173 247.99 86.4363 248.362 86.792 248.644C87.1477 248.927 87.6011 249.068 88.1521 249.068ZM93.6774 250.01V241.975H94.8701V243.23H94.9747C95.1421 242.801 95.4124 242.468 95.7856 242.231C96.1587 241.99 96.6069 241.87 97.13 241.87C97.66 241.87 98.1012 241.99 98.4534 242.231C98.8091 242.468 99.0864 242.801 99.2852 243.23H99.3689C99.5746 242.815 99.8833 242.486 100.295 242.241C100.706 241.994 101.2 241.87 101.775 241.87C102.494 241.87 103.081 242.095 103.538 242.545C103.995 242.991 104.223 243.687 104.223 244.632V250.01H102.989V244.632C102.989 244.039 102.827 243.615 102.502 243.361C102.178 243.106 101.796 242.979 101.357 242.979C100.792 242.979 100.354 243.15 100.044 243.492C99.7333 243.83 99.5781 244.259 99.5781 244.779V250.01H98.3227V244.507C98.3227 244.05 98.1744 243.682 97.878 243.403C97.5816 243.12 97.1997 242.979 96.7324 242.979C96.4116 242.979 96.1116 243.064 95.8326 243.235C95.5571 243.406 95.334 243.643 95.1631 243.947C94.9957 244.247 94.912 244.594 94.912 244.988V250.01H93.6774Z" fill="#666666"/>
<path d="M36.1031 275.01V260.377H38.7743V275.01H36.1031ZM41.5888 275.01V260.377H46.3616C47.9067 260.377 49.2488 260.691 50.388 261.32C51.5403 261.935 52.4306 262.793 53.0592 263.893C53.6877 264.98 54.0019 266.243 54.0019 267.684C54.0019 269.111 53.6877 270.381 53.0592 271.494C52.4306 272.594 51.5403 273.458 50.388 274.087C49.2488 274.702 47.9067 275.01 46.3616 275.01H41.5888ZM44.26 272.653H46.4205C47.4156 272.653 48.2733 272.45 48.9935 272.044C49.7267 271.625 50.2963 271.049 50.7022 270.315C51.1081 269.569 51.3111 268.692 51.3111 267.684C51.3111 266.662 51.1081 265.785 50.7022 265.052C50.2963 264.318 49.7267 263.749 48.9935 263.343C48.2733 262.937 47.4156 262.734 46.4205 262.734H44.26V272.653ZM56.1278 275.01V260.377H61.5683C62.5635 260.377 63.4408 260.56 64.2002 260.927C64.9728 261.281 65.5751 261.804 66.0072 262.498C66.4393 263.179 66.6554 264.011 66.6554 264.993C66.6554 266.001 66.4131 266.859 65.9286 267.566C65.4572 268.273 64.8156 268.797 64.0038 269.137L67.3624 275.01H64.3377L60.7434 268.587L62.4718 269.608H58.7989V275.01H56.1278ZM58.7989 267.251H61.6076C62.0921 267.251 62.5111 267.16 62.8646 266.976C63.2182 266.78 63.4931 266.512 63.6896 266.171C63.886 265.831 63.9842 265.438 63.9842 264.993C63.9842 264.534 63.886 264.142 63.6896 263.814C63.4931 263.474 63.2182 263.212 62.8646 263.029C62.5111 262.832 62.0921 262.734 61.6076 262.734H58.7989V267.251ZM74.5877 275.01V262.655H71.7594V260.377H77.2589V275.01H74.5877ZM81.1345 278.074V276.797C81.5666 276.692 81.9136 276.489 82.1754 276.188C82.4504 275.9 82.6206 275.507 82.6861 275.01H81.5273V272.26H84.1199V273.949C84.1199 275.101 83.8646 276.024 83.3539 276.718C82.8563 277.412 82.1165 277.864 81.1345 278.074ZM91.8864 275.245C91.0877 275.245 90.3282 275.101 89.608 274.813C88.901 274.512 88.2921 274.093 87.7814 273.556C87.2839 273.006 86.9434 272.358 86.7601 271.612L89.0974 270.787C89.3331 271.455 89.6931 271.965 90.1776 272.319C90.6621 272.659 91.2317 272.829 91.8864 272.829C92.4102 272.829 92.8619 272.731 93.2416 272.535C93.6344 272.338 93.9422 272.057 94.1648 271.69C94.3874 271.311 94.4987 270.865 94.4987 270.355C94.4987 269.844 94.3874 269.412 94.1648 269.058C93.9553 268.692 93.6541 268.41 93.2613 268.214C92.8684 268.017 92.4036 267.919 91.8668 267.919C91.618 267.919 91.3561 267.945 91.0811 267.998C90.8192 268.05 90.5835 268.129 90.374 268.233L89.7652 266.957L93.5559 262.636H87.585V260.377H96.561V262.479L92.7506 266.937L92.7899 265.935C93.6672 265.949 94.4332 266.138 95.0879 266.505C95.7426 266.872 96.2533 267.376 96.6199 268.017C96.9865 268.659 97.1698 269.412 97.1698 270.276C97.1698 271.219 96.9407 272.07 96.4824 272.829C96.0241 273.576 95.3956 274.165 94.5969 274.597C93.7981 275.029 92.8946 275.245 91.8864 275.245ZM105.092 275.245C103.926 275.245 102.905 274.931 102.028 274.303C101.15 273.674 100.463 272.79 99.9653 271.651C99.4808 270.512 99.2386 269.189 99.2386 267.684C99.2386 266.165 99.4808 264.842 99.9653 263.716C100.45 262.59 101.131 261.713 102.008 261.084C102.885 260.456 103.907 260.141 105.072 260.141C106.264 260.141 107.291 260.456 108.156 261.084C109.033 261.713 109.72 262.597 110.218 263.736C110.715 264.862 110.964 266.178 110.964 267.684C110.964 269.189 110.715 270.512 110.218 271.651C109.733 272.777 109.053 273.661 108.175 274.303C107.298 274.931 106.27 275.245 105.092 275.245ZM105.111 272.81C105.779 272.81 106.349 272.607 106.82 272.201C107.291 271.782 107.651 271.193 107.9 270.433C108.162 269.661 108.293 268.744 108.293 267.684C108.293 266.623 108.162 265.713 107.9 264.953C107.651 264.181 107.285 263.592 106.8 263.186C106.329 262.78 105.753 262.577 105.072 262.577C104.417 262.577 103.854 262.78 103.383 263.186C102.911 263.592 102.545 264.181 102.283 264.953C102.034 265.713 101.91 266.623 101.91 267.684C101.91 268.731 102.034 269.641 102.283 270.414C102.545 271.173 102.911 271.762 103.383 272.181C103.867 272.6 104.443 272.81 105.111 272.81ZM118.998 275.245C117.832 275.245 116.811 274.931 115.934 274.303C115.056 273.674 114.369 272.79 113.871 271.651C113.387 270.512 113.145 269.189 113.145 267.684C113.145 266.165 113.387 264.842 113.871 263.716C114.356 262.59 115.037 261.713 115.914 261.084C116.791 260.456 117.813 260.141 118.978 260.141C120.17 260.141 121.197 260.456 122.062 261.084C122.939 261.713 123.626 262.597 124.124 263.736C124.621 264.862 124.87 266.178 124.87 267.684C124.87 269.189 124.621 270.512 124.124 271.651C123.639 272.777 122.959 273.661 122.081 274.303C121.204 274.931 120.176 275.245 118.998 275.245ZM119.017 272.81C119.685 272.81 120.255 272.607 120.726 272.201C121.197 271.782 121.557 271.193 121.806 270.433C122.068 269.661 122.199 268.744 122.199 267.684C122.199 266.623 122.068 265.713 121.806 264.953C121.557 264.181 121.191 263.592 120.706 263.186C120.235 262.78 119.659 262.577 118.978 262.577C118.323 262.577 117.76 262.78 117.289 263.186C116.817 263.592 116.451 264.181 116.189 264.953C115.94 265.713 115.816 266.623 115.816 267.684C115.816 268.731 115.94 269.641 116.189 270.414C116.451 271.173 116.817 271.762 117.289 272.181C117.773 272.6 118.349 272.81 119.017 272.81ZM127.974 278.074V276.797C128.406 276.692 128.753 276.489 129.015 276.188C129.29 275.9 129.46 275.507 129.525 275.01H128.367V272.26H130.959V273.949C130.959 275.101 130.704 276.024 130.193 276.718C129.696 277.412 128.956 277.864 127.974 278.074ZM139.924 275.245C138.758 275.245 137.737 274.931 136.86 274.303C135.982 273.674 135.295 272.79 134.797 271.651C134.313 270.512 134.071 269.189 134.071 267.684C134.071 266.165 134.313 264.842 134.797 263.716C135.282 262.59 135.963 261.713 136.84 261.084C137.717 260.456 138.739 260.141 139.904 260.141C141.096 260.141 142.124 260.456 142.988 261.084C143.865 261.713 144.552 262.597 145.05 263.736C145.548 264.862 145.796 266.178 145.796 267.684C145.796 269.189 145.548 270.512 145.05 271.651C144.566 272.777 143.885 273.661 143.007 274.303C142.13 274.931 141.102 275.245 139.924 275.245ZM139.943 272.81C140.611 272.81 141.181 272.607 141.652 272.201C142.124 271.782 142.484 271.193 142.732 270.433C142.994 269.661 143.125 268.744 143.125 267.684C143.125 266.623 142.994 265.713 142.732 264.953C142.484 264.181 142.117 263.592 141.633 263.186C141.161 262.78 140.585 262.577 139.904 262.577C139.249 262.577 138.686 262.78 138.215 263.186C137.744 263.592 137.377 264.181 137.115 264.953C136.866 265.713 136.742 266.623 136.742 267.684C136.742 268.731 136.866 269.641 137.115 270.414C137.377 271.173 137.744 271.762 138.215 272.181C138.699 272.6 139.276 272.81 139.943 272.81ZM153.83 275.245C152.664 275.245 151.643 274.931 150.766 274.303C149.888 273.674 149.201 272.79 148.703 271.651C148.219 270.512 147.977 269.189 147.977 267.684C147.977 266.165 148.219 264.842 148.703 263.716C149.188 262.59 149.869 261.713 150.746 261.084C151.623 260.456 152.645 260.141 153.81 260.141C155.002 260.141 156.03 260.456 156.894 261.084C157.771 261.713 158.458 262.597 158.956 263.736C159.454 264.862 159.702 266.178 159.702 267.684C159.702 269.189 159.454 270.512 158.956 271.651C158.472 272.777 157.791 273.661 156.913 274.303C156.036 274.931 155.008 275.245 153.83 275.245ZM153.849 272.81C154.517 272.81 155.087 272.607 155.558 272.201C156.03 271.782 156.39 271.193 156.638 270.433C156.9 269.661 157.031 268.744 157.031 267.684C157.031 266.623 156.9 265.713 156.638 264.953C156.39 264.181 156.023 263.592 155.539 263.186C155.067 262.78 154.491 262.577 153.81 262.577C153.155 262.577 152.592 262.78 152.121 263.186C151.65 263.592 151.283 264.181 151.021 264.953C150.772 265.713 150.648 266.623 150.648 267.684C150.648 268.731 150.772 269.641 151.021 270.414C151.283 271.173 151.65 271.762 152.121 272.181C152.605 272.6 153.182 272.81 153.849 272.81ZM167.736 275.245C166.57 275.245 165.549 274.931 164.672 274.303C163.794 273.674 163.107 272.79 162.609 271.651C162.125 270.512 161.883 269.189 161.883 267.684C161.883 266.165 162.125 264.842 162.609 263.716C163.094 262.59 163.775 261.713 164.652 261.084C165.529 260.456 166.551 260.141 167.716 260.141C168.908 260.141 169.936 260.456 170.8 261.084C171.677 261.713 172.364 262.597 172.862 263.736C173.36 264.862 173.608 266.178 173.608 267.684C173.608 269.189 173.36 270.512 172.862 271.651C172.378 272.777 171.697 273.661 170.819 274.303C169.942 274.931 168.914 275.245 167.736 275.245ZM167.755 272.81C168.423 272.81 168.993 272.607 169.464 272.201C169.936 271.782 170.296 271.193 170.544 270.433C170.806 269.661 170.937 268.744 170.937 267.684C170.937 266.623 170.806 265.713 170.544 264.953C170.296 264.181 169.929 263.592 169.445 263.186C168.973 262.78 168.397 262.577 167.716 262.577C167.061 262.577 166.498 262.78 166.027 263.186C165.556 263.592 165.189 264.181 164.927 264.953C164.678 265.713 164.554 266.623 164.554 267.684C164.554 268.731 164.678 269.641 164.927 270.414C165.189 271.173 165.556 271.762 166.027 272.181C166.511 272.6 167.088 272.81 167.755 272.81Z" fill="#E8604C"/>
<rect x="268" y="233" width="249.196" height="47.875" rx="23.9375" fill="#E8604C"/>
<path d="M473.31 247.117C468.228 247.117 464.103 251.242 464.103 256.324C464.103 261.406 468.228 265.531 473.31 265.531C478.392 265.531 482.516 261.406 482.516 256.324C482.516 251.242 478.392 247.117 473.31 247.117ZM478.143 256.628C478.143 257.005 477.83 257.318 477.453 257.318C477.075 257.318 476.762 257.005 476.762 256.628V253.847L469.655 260.955C469.517 261.093 469.342 261.157 469.167 261.157C468.992 261.157 468.817 261.093 468.679 260.955C468.412 260.688 468.412 260.246 468.679 259.979L475.786 252.871H473.006C472.628 252.871 472.315 252.558 472.315 252.181C472.315 251.803 472.628 251.49 473.006 251.49H477.453C477.83 251.49 478.143 251.803 478.143 252.181V256.628Z" fill="white"/>
<path d="M306.236 261.276L303.967 257.269H302.995V261.276H300.933V250.994H304.792C305.588 250.994 306.265 251.136 306.825 251.421C307.385 251.696 307.802 252.074 308.077 252.555C308.362 253.027 308.505 253.557 308.505 254.146C308.505 254.824 308.308 255.437 307.915 255.987C307.522 256.528 306.938 256.901 306.162 257.107L308.622 261.276H306.236ZM302.995 255.722H304.719C305.279 255.722 305.696 255.59 305.971 255.325C306.246 255.05 306.383 254.671 306.383 254.19C306.383 253.719 306.246 253.356 305.971 253.1C305.696 252.835 305.279 252.702 304.719 252.702H302.995V255.722ZM317.956 257.019C317.956 257.313 317.937 257.578 317.897 257.814H311.931C311.98 258.403 312.187 258.865 312.55 259.199C312.913 259.533 313.36 259.7 313.89 259.7C314.656 259.7 315.202 259.371 315.526 258.713H317.75C317.514 259.498 317.063 260.146 316.395 260.657C315.727 261.158 314.907 261.408 313.935 261.408C313.149 261.408 312.442 261.236 311.813 260.893C311.195 260.539 310.709 260.043 310.355 259.405C310.011 258.767 309.84 258.03 309.84 257.195C309.84 256.351 310.011 255.609 310.355 254.971C310.699 254.333 311.18 253.842 311.799 253.498C312.417 253.154 313.129 252.982 313.935 252.982C314.71 252.982 315.403 253.149 316.012 253.483C316.63 253.817 317.107 254.293 317.441 254.912C317.784 255.521 317.956 256.223 317.956 257.019ZM315.82 256.429C315.81 255.899 315.619 255.477 315.246 255.162C314.873 254.838 314.416 254.676 313.876 254.676C313.365 254.676 312.933 254.833 312.579 255.148C312.236 255.452 312.025 255.879 311.946 256.429H315.82ZM318.931 257.181C318.931 256.365 319.098 255.644 319.432 255.015C319.776 254.377 320.237 253.881 320.817 253.527C321.396 253.174 322.034 252.997 322.732 252.997C323.311 252.997 323.822 253.11 324.264 253.336C324.715 253.552 325.079 253.832 325.354 254.176V253.115H327.431V265.165H325.354V260.156C325.079 260.51 324.711 260.804 324.249 261.04C323.787 261.276 323.267 261.394 322.688 261.394C322 261.394 321.367 261.217 320.787 260.863C320.218 260.5 319.766 259.999 319.432 259.361C319.098 258.722 318.931 257.996 318.931 257.181ZM325.354 257.195C325.354 256.694 325.251 256.262 325.044 255.899C324.838 255.536 324.568 255.261 324.234 255.074C323.91 254.888 323.562 254.794 323.188 254.794C322.825 254.794 322.476 254.888 322.142 255.074C321.818 255.261 321.553 255.536 321.347 255.899C321.141 256.253 321.038 256.68 321.038 257.181C321.038 257.681 321.141 258.118 321.347 258.492C321.553 258.855 321.818 259.13 322.142 259.317C322.476 259.503 322.825 259.596 323.188 259.596C323.562 259.596 323.91 259.503 324.234 259.317C324.568 259.13 324.838 258.855 325.044 258.492C325.251 258.128 325.354 257.696 325.354 257.195ZM337.149 253.115V261.276H335.072V260.245C334.807 260.598 334.458 260.878 334.026 261.084C333.604 261.281 333.142 261.379 332.642 261.379C332.003 261.379 331.439 261.246 330.948 260.981C330.457 260.706 330.069 260.308 329.784 259.788C329.509 259.258 329.371 258.629 329.371 257.902V253.115H331.434V257.608C331.434 258.256 331.596 258.757 331.92 259.11C332.244 259.454 332.686 259.626 333.246 259.626C333.815 259.626 334.262 259.454 334.586 259.11C334.91 258.757 335.072 258.256 335.072 257.608V253.115H337.149ZM346.77 257.019C346.77 257.313 346.751 257.578 346.711 257.814H340.745C340.795 258.403 341.001 258.865 341.364 259.199C341.728 259.533 342.174 259.7 342.705 259.7C343.471 259.7 344.016 259.371 344.34 258.713H346.564C346.328 259.498 345.877 260.146 345.209 260.657C344.541 261.158 343.721 261.408 342.749 261.408C341.963 261.408 341.256 261.236 340.628 260.893C340.009 260.539 339.523 260.043 339.169 259.405C338.826 258.767 338.654 258.03 338.654 257.195C338.654 256.351 338.826 255.609 339.169 254.971C339.513 254.333 339.994 253.842 340.613 253.498C341.232 253.154 341.944 252.982 342.749 252.982C343.525 252.982 344.217 253.149 344.826 253.483C345.445 253.817 345.921 254.293 346.255 254.912C346.599 255.521 346.77 256.223 346.77 257.019ZM344.634 256.429C344.625 255.899 344.433 255.477 344.06 255.162C343.687 254.838 343.23 254.676 342.69 254.676C342.179 254.676 341.747 254.833 341.394 255.148C341.05 255.452 340.839 255.879 340.76 256.429H344.634ZM351.399 261.408C350.731 261.408 350.132 261.29 349.601 261.055C349.071 260.809 348.649 260.48 348.335 260.068C348.03 259.655 347.863 259.199 347.834 258.698H349.911C349.95 259.012 350.102 259.272 350.367 259.479C350.642 259.685 350.981 259.788 351.384 259.788C351.777 259.788 352.081 259.709 352.297 259.552C352.523 259.395 352.636 259.194 352.636 258.948C352.636 258.683 352.498 258.487 352.224 258.359C351.958 258.222 351.531 258.074 350.942 257.917C350.333 257.77 349.832 257.618 349.439 257.46C349.056 257.303 348.722 257.063 348.438 256.739C348.163 256.415 348.025 255.978 348.025 255.428C348.025 254.976 348.153 254.563 348.408 254.19C348.673 253.817 349.047 253.522 349.528 253.306C350.019 253.09 350.593 252.982 351.251 252.982C352.224 252.982 352.999 253.228 353.579 253.719C354.158 254.2 354.477 254.853 354.536 255.678H352.562C352.533 255.354 352.395 255.099 352.15 254.912C351.914 254.716 351.595 254.617 351.192 254.617C350.819 254.617 350.529 254.686 350.323 254.824C350.127 254.961 350.029 255.153 350.029 255.398C350.029 255.673 350.166 255.884 350.441 256.032C350.716 256.169 351.143 256.311 351.723 256.459C352.312 256.606 352.798 256.758 353.181 256.915C353.564 257.073 353.893 257.318 354.168 257.652C354.453 257.976 354.6 258.408 354.61 258.948C354.61 259.42 354.477 259.842 354.212 260.215C353.957 260.588 353.584 260.883 353.093 261.099C352.611 261.305 352.047 261.408 351.399 261.408ZM358.704 254.809V258.757C358.704 259.032 358.768 259.233 358.895 259.361C359.033 259.479 359.259 259.538 359.573 259.538H360.531V261.276H359.234C357.496 261.276 356.627 260.431 356.627 258.742V254.809H355.655V253.115H356.627V251.097H358.704V253.115H360.531V254.809H358.704ZM371.829 259.317H367.734L367.056 261.276H364.89L368.588 250.979H370.989L374.686 261.276H372.506L371.829 259.317ZM371.269 257.667L369.781 253.365L368.293 257.667H371.269ZM378.131 254.293C378.396 253.92 378.759 253.611 379.221 253.365C379.692 253.11 380.227 252.982 380.827 252.982C381.524 252.982 382.152 253.154 382.712 253.498C383.282 253.842 383.728 254.333 384.053 254.971C384.386 255.599 384.553 256.331 384.553 257.166C384.553 258.001 384.386 258.742 384.053 259.39C383.728 260.029 383.282 260.524 382.712 260.878C382.152 261.232 381.524 261.408 380.827 261.408C380.227 261.408 379.697 261.286 379.236 261.04C378.784 260.795 378.416 260.485 378.131 260.112V265.165H376.068V253.115H378.131V254.293ZM382.447 257.166C382.447 256.675 382.344 256.253 382.138 255.899C381.941 255.536 381.676 255.261 381.342 255.074C381.018 254.888 380.664 254.794 380.281 254.794C379.908 254.794 379.555 254.892 379.221 255.089C378.897 255.275 378.632 255.55 378.425 255.914C378.229 256.277 378.131 256.704 378.131 257.195C378.131 257.686 378.229 258.114 378.425 258.477C378.632 258.84 378.897 259.12 379.221 259.317C379.555 259.503 379.908 259.596 380.281 259.596C380.664 259.596 381.018 259.498 381.342 259.302C381.676 259.105 381.941 258.826 382.138 258.462C382.344 258.099 382.447 257.667 382.447 257.166ZM388.114 254.293C388.379 253.92 388.743 253.611 389.204 253.365C389.676 253.11 390.211 252.982 390.81 252.982C391.507 252.982 392.136 253.154 392.696 253.498C393.265 253.842 393.712 254.333 394.036 254.971C394.37 255.599 394.537 256.331 394.537 257.166C394.537 258.001 394.37 258.742 394.036 259.39C393.712 260.029 393.265 260.524 392.696 260.878C392.136 261.232 391.507 261.408 390.81 261.408C390.211 261.408 389.681 261.286 389.219 261.04C388.767 260.795 388.399 260.485 388.114 260.112V265.165H386.052V253.115H388.114V254.293ZM392.43 257.166C392.43 256.675 392.327 256.253 392.121 255.899C391.925 255.536 391.66 255.261 391.326 255.074C391.002 254.888 390.648 254.794 390.265 254.794C389.892 254.794 389.538 254.892 389.204 255.089C388.88 255.275 388.615 255.55 388.409 255.914C388.213 256.277 388.114 256.704 388.114 257.195C388.114 257.686 388.213 258.114 388.409 258.477C388.615 258.84 388.88 259.12 389.204 259.317C389.538 259.503 389.892 259.596 390.265 259.596C390.648 259.596 391.002 259.498 391.326 259.302C391.66 259.105 391.925 258.826 392.121 258.462C392.327 258.099 392.43 257.667 392.43 257.166ZM398.098 250.375V261.276H396.036V250.375H398.098ZM401.181 252.143C400.818 252.143 400.514 252.03 400.268 251.804C400.032 251.568 399.914 251.278 399.914 250.935C399.914 250.591 400.032 250.306 400.268 250.08C400.514 249.845 400.818 249.727 401.181 249.727C401.545 249.727 401.844 249.845 402.08 250.08C402.325 250.306 402.448 250.591 402.448 250.935C402.448 251.278 402.325 251.568 402.08 251.804C401.844 252.03 401.545 252.143 401.181 252.143ZM402.198 253.115V261.276H400.135V253.115H402.198ZM403.705 257.195C403.705 256.351 403.877 255.614 404.221 254.986C404.564 254.347 405.041 253.856 405.649 253.513C406.258 253.159 406.956 252.982 407.741 252.982C408.753 252.982 409.588 253.238 410.245 253.748C410.913 254.249 411.36 254.956 411.586 255.87H409.362C409.244 255.516 409.042 255.241 408.758 255.045C408.483 254.838 408.139 254.735 407.727 254.735C407.137 254.735 406.671 254.951 406.327 255.383C405.983 255.806 405.812 256.41 405.812 257.195C405.812 257.971 405.983 258.575 406.327 259.007C406.671 259.43 407.137 259.641 407.727 259.641C408.561 259.641 409.106 259.267 409.362 258.521H411.586C411.36 259.405 410.913 260.107 410.245 260.628C409.578 261.148 408.743 261.408 407.741 261.408C406.956 261.408 406.258 261.236 405.649 260.893C405.041 260.539 404.564 260.048 404.221 259.42C403.877 258.781 403.705 258.04 403.705 257.195ZM412.566 257.166C412.566 256.341 412.729 255.609 413.053 254.971C413.387 254.333 413.833 253.842 414.393 253.498C414.963 253.154 415.596 252.982 416.293 252.982C416.902 252.982 417.433 253.105 417.884 253.351C418.346 253.596 418.714 253.905 418.989 254.279V253.115H421.066V261.276H418.989V260.083C418.724 260.466 418.356 260.785 417.884 261.04C417.423 261.286 416.888 261.408 416.279 261.408C415.591 261.408 414.963 261.232 414.393 260.878C413.833 260.524 413.387 260.029 413.053 259.39C412.729 258.742 412.566 258.001 412.566 257.166ZM418.989 257.195C418.989 256.694 418.891 256.267 418.694 255.914C418.498 255.55 418.233 255.275 417.899 255.089C417.565 254.892 417.207 254.794 416.824 254.794C416.441 254.794 416.087 254.888 415.763 255.074C415.439 255.261 415.174 255.536 414.968 255.899C414.771 256.253 414.673 256.675 414.673 257.166C414.673 257.657 414.771 258.089 414.968 258.462C415.174 258.826 415.439 259.105 415.763 259.302C416.097 259.498 416.451 259.596 416.824 259.596C417.207 259.596 417.565 259.503 417.899 259.317C418.233 259.12 418.498 258.845 418.694 258.492C418.891 258.128 418.989 257.696 418.989 257.195ZM425.481 254.809V258.757C425.481 259.032 425.545 259.233 425.673 259.361C425.81 259.479 426.036 259.538 426.351 259.538H427.308V261.276H426.012C424.274 261.276 423.404 260.431 423.404 258.742V254.809H422.432V253.115H423.404V251.097H425.481V253.115H427.308V254.809H425.481ZM429.837 252.143C429.474 252.143 429.169 252.03 428.924 251.804C428.688 251.568 428.57 251.278 428.57 250.935C428.57 250.591 428.688 250.306 428.924 250.08C429.169 249.845 429.474 249.727 429.837 249.727C430.201 249.727 430.5 249.845 430.736 250.08C430.981 250.306 431.104 250.591 431.104 250.935C431.104 251.278 430.981 251.568 430.736 251.804C430.5 252.03 430.201 252.143 429.837 252.143ZM430.854 253.115V261.276H428.791V253.115H430.854ZM436.515 261.408C435.729 261.408 435.022 261.236 434.394 260.893C433.765 260.539 433.269 260.043 432.906 259.405C432.552 258.767 432.376 258.03 432.376 257.195C432.376 256.361 432.557 255.624 432.921 254.986C433.294 254.347 433.8 253.856 434.438 253.513C435.076 253.159 435.788 252.982 436.574 252.982C437.36 252.982 438.072 253.159 438.71 253.513C439.348 253.856 439.849 254.347 440.212 254.986C440.586 255.624 440.772 256.361 440.772 257.195C440.772 258.03 440.581 258.767 440.198 259.405C439.825 260.043 439.314 260.539 438.666 260.893C438.027 261.236 437.311 261.408 436.515 261.408ZM436.515 259.611C436.888 259.611 437.237 259.523 437.561 259.346C437.895 259.159 438.16 258.884 438.356 258.521C438.553 258.158 438.651 257.716 438.651 257.195C438.651 256.42 438.445 255.825 438.032 255.413C437.63 254.991 437.134 254.779 436.545 254.779C435.955 254.779 435.459 254.991 435.057 255.413C434.664 255.825 434.467 256.42 434.467 257.195C434.467 257.971 434.659 258.57 435.042 258.992C435.435 259.405 435.926 259.611 436.515 259.611ZM446.807 252.997C447.78 252.997 448.565 253.306 449.164 253.925C449.763 254.534 450.063 255.388 450.063 256.488V261.276H448.001V256.768C448.001 256.12 447.839 255.624 447.514 255.28C447.19 254.927 446.748 254.75 446.189 254.75C445.619 254.75 445.167 254.927 444.833 255.28C444.509 255.624 444.347 256.12 444.347 256.768V261.276H442.285V253.115H444.347V254.131C444.622 253.778 444.971 253.503 445.393 253.306C445.825 253.1 446.297 252.997 446.807 252.997Z" fill="white"/>
<defs>
<filter id="filter0_d_128_2883" x="0.317307" y="0.317307" width="550.365" height="328.365" filterUnits="userSpaceOnUse" color-interpolation-filters="sRGB">
<feFlood flood-opacity="0" result="BackgroundImageFix"/>
<feColorMatrix in="SourceAlpha" type="matrix" values="0 0 0 0 0 0 0 0 0 0 0 0 0 0 0 0 0 0 127 0" result="hardAlpha"/>
<feOffset/>
<feGaussianBlur stdDeviation="1.84135"/>
<feComposite in2="hardAlpha" operator="out"/>
<feColorMatrix type="matrix" values="0 0 0 0 0.909804 0 0 0 0 0.376471 0 0 0 0 0.298039 0 0 0 0.34 0"/>
<feBlend mode="normal" in2="BackgroundImageFix" result="effect1_dropShadow_128_2883"/>
<feBlend mode="normal" in="SourceGraphic" in2="effect1_dropShadow_128_2883" result="shape"/>
</filter>
</defs>
</svg>
