<svg width="186" height="52" viewBox="0 0 186 52" fill="none" xmlns="http://www.w3.org/2000/svg">
<rect width="186" height="52" rx="26" fill="white"/>
<path d="M150 16C144.48 16 140 20.48 140 26C140 31.52 144.48 36 150 36C155.52 36 160 31.52 160 26C160 20.48 155.52 16 150 16ZM155.25 26.33C155.25 26.74 154.91 27.08 154.5 27.08C154.09 27.08 153.75 26.74 153.75 26.33V23.31L146.03 31.03C145.88 31.18 145.69 31.25 145.5 31.25C145.31 31.25 145.12 31.18 144.97 31.03C144.68 30.74 144.68 30.26 144.97 29.97L152.69 22.25H149.67C149.26 22.25 148.92 21.91 148.92 21.5C148.92 21.09 149.26 20.75 149.67 20.75H154.5C154.91 20.75 155.25 21.09 155.25 21.5V26.33Z" fill="#313041"/>
<path d="M47.7838 26.272C48.4131 26.3893 48.9304 26.704 49.3358 27.216C49.7411 27.728 49.9438 28.3147 49.9438 28.976C49.9438 29.5733 49.7944 30.1013 49.4958 30.56C49.2078 31.008 48.7864 31.36 48.2318 31.616C47.6771 31.872 47.0211 32 46.2638 32H41.4478V20.832H46.0558C46.8131 20.832 47.4638 20.9547 48.0078 21.2C48.5624 21.4453 48.9784 21.7867 49.2558 22.224C49.5438 22.6613 49.6878 23.1573 49.6878 23.712C49.6878 24.3627 49.5118 24.9067 49.1597 25.344C48.8184 25.7813 48.3598 26.0907 47.7838 26.272ZM43.6878 25.44H45.7358C46.2691 25.44 46.6798 25.3227 46.9678 25.088C47.2558 24.8427 47.3998 24.496 47.3998 24.048C47.3998 23.6 47.2558 23.2533 46.9678 23.008C46.6798 22.7627 46.2691 22.64 45.7358 22.64H43.6878V25.44ZM45.9438 30.176C46.4878 30.176 46.9091 30.048 47.2078 29.792C47.5171 29.536 47.6718 29.1733 47.6718 28.704C47.6718 28.224 47.5118 27.8507 47.1918 27.584C46.8718 27.3067 46.4398 27.168 45.8958 27.168H43.6878V30.176H45.9438ZM55.665 32.144C54.8117 32.144 54.0437 31.9573 53.361 31.584C52.6783 31.2 52.1397 30.6613 51.745 29.968C51.361 29.2747 51.169 28.4747 51.169 27.568C51.169 26.6613 51.3663 25.8613 51.761 25.168C52.1663 24.4747 52.7157 23.9413 53.409 23.568C54.1023 23.184 54.8757 22.992 55.729 22.992C56.5823 22.992 57.3557 23.184 58.049 23.568C58.7423 23.9413 59.2863 24.4747 59.681 25.168C60.0863 25.8613 60.289 26.6613 60.289 27.568C60.289 28.4747 60.081 29.2747 59.665 29.968C59.2597 30.6613 58.705 31.2 58.001 31.584C57.3077 31.9573 56.529 32.144 55.665 32.144ZM55.665 30.192C56.0703 30.192 56.449 30.096 56.801 29.904C57.1637 29.7013 57.4517 29.4027 57.665 29.008C57.8783 28.6133 57.985 28.1333 57.985 27.568C57.985 26.7253 57.761 26.08 57.313 25.632C56.8757 25.1733 56.337 24.944 55.697 24.944C55.057 24.944 54.5183 25.1733 54.081 25.632C53.6543 26.08 53.441 26.7253 53.441 27.568C53.441 28.4107 53.649 29.0613 54.065 29.52C54.4917 29.968 55.025 30.192 55.665 30.192ZM65.8681 32.144C65.0148 32.144 64.2468 31.9573 63.5641 31.584C62.8815 31.2 62.3428 30.6613 61.9481 29.968C61.5641 29.2747 61.3721 28.4747 61.3721 27.568C61.3721 26.6613 61.5695 25.8613 61.9641 25.168C62.3695 24.4747 62.9188 23.9413 63.6121 23.568C64.3055 23.184 65.0788 22.992 65.9321 22.992C66.7855 22.992 67.5588 23.184 68.2521 23.568C68.9455 23.9413 69.4895 24.4747 69.8841 25.168C70.2895 25.8613 70.4921 26.6613 70.4921 27.568C70.4921 28.4747 70.2841 29.2747 69.8681 29.968C69.4628 30.6613 68.9081 31.2 68.2041 31.584C67.5108 31.9573 66.7321 32.144 65.8681 32.144ZM65.8681 30.192C66.2735 30.192 66.6521 30.096 67.0041 29.904C67.3668 29.7013 67.6548 29.4027 67.8681 29.008C68.0815 28.6133 68.1881 28.1333 68.1881 27.568C68.1881 26.7253 67.9641 26.08 67.5161 25.632C67.0788 25.1733 66.5401 24.944 65.9001 24.944C65.2601 24.944 64.7215 25.1733 64.2841 25.632C63.8575 26.08 63.6441 26.7253 63.6441 27.568C63.6441 28.4107 63.8521 29.0613 64.2681 29.52C64.6948 29.968 65.2281 30.192 65.8681 30.192ZM77.3833 32L74.3753 28.224V32H72.1353V20.16H74.3753V26.896L77.3513 23.136H80.2633L76.3593 27.584L80.2953 32H77.3833ZM94.8435 32H92.6035L87.5315 24.336V32H85.2915V20.816H87.5315L92.6035 28.496V20.816H94.8435V32ZM100.993 32.144C100.14 32.144 99.3718 31.9573 98.6891 31.584C98.0065 31.2 97.4678 30.6613 97.0731 29.968C96.6891 29.2747 96.4971 28.4747 96.4971 27.568C96.4971 26.6613 96.6945 25.8613 97.0891 25.168C97.4945 24.4747 98.0438 23.9413 98.7371 23.568C99.4305 23.184 100.204 22.992 101.057 22.992C101.91 22.992 102.684 23.184 103.377 23.568C104.07 23.9413 104.614 24.4747 105.009 25.168C105.414 25.8613 105.617 26.6613 105.617 27.568C105.617 28.4747 105.409 29.2747 104.993 29.968C104.588 30.6613 104.033 31.2 103.329 31.584C102.636 31.9573 101.857 32.144 100.993 32.144ZM100.993 30.192C101.398 30.192 101.777 30.096 102.129 29.904C102.492 29.7013 102.78 29.4027 102.993 29.008C103.206 28.6133 103.313 28.1333 103.313 27.568C103.313 26.7253 103.089 26.08 102.641 25.632C102.204 25.1733 101.665 24.944 101.025 24.944C100.385 24.944 99.8465 25.1733 99.4091 25.632C98.9825 26.08 98.7691 26.7253 98.7691 27.568C98.7691 28.4107 98.9771 29.0613 99.3931 29.52C99.8198 29.968 100.353 30.192 100.993 30.192ZM119.548 23.136L116.956 32H114.54L112.924 25.808L111.308 32H108.876L106.268 23.136H108.54L110.108 29.888L111.804 23.136H114.172L115.836 29.872L117.404 23.136H119.548Z" fill="#313041"/>
</svg>
