<svg width="235" height="52" viewBox="0 0 235 52" fill="none" xmlns="http://www.w3.org/2000/svg">
<rect width="235" height="52" rx="26" fill="#E8604C"/>
<path d="M40.7866 26.4C40.7866 25.3013 41.0319 24.32 41.5226 23.456C42.0239 22.5813 42.7012 21.904 43.5546 21.424C44.4186 20.9333 45.3839 20.688 46.4506 20.688C47.6986 20.688 48.7919 21.008 49.7306 21.648C50.6692 22.288 51.3252 23.1733 51.6986 24.304H49.1226C48.8666 23.7707 48.5039 23.3707 48.0346 23.104C47.5759 22.8373 47.0426 22.704 46.4346 22.704C45.7839 22.704 45.2026 22.8587 44.6906 23.168C44.1892 23.4667 43.7946 23.8933 43.5066 24.448C43.2292 25.0027 43.0906 25.6533 43.0906 26.4C43.0906 27.136 43.2292 27.7867 43.5066 28.352C43.7946 28.9067 44.1892 29.3387 44.6906 29.648C45.2026 29.9467 45.7839 30.096 46.4346 30.096C47.0426 30.096 47.5759 29.9627 48.0346 29.696C48.5039 29.4187 48.8666 29.0133 49.1226 28.48H51.6986C51.3252 29.6213 50.6692 30.512 49.7306 31.152C48.8026 31.7813 47.7092 32.096 46.4506 32.096C45.3839 32.096 44.4186 31.856 43.5546 31.376C42.7012 30.8853 42.0239 30.208 41.5226 29.344C41.0319 28.48 40.7866 27.4987 40.7866 26.4ZM58.6038 23.008C59.2758 23.008 59.8731 23.1573 60.3958 23.456C60.9185 23.744 61.3238 24.176 61.6118 24.752C61.9105 25.3173 62.0598 26 62.0598 26.8V32H59.8198V27.104C59.8198 26.4 59.6438 25.8613 59.2918 25.488C58.9398 25.104 58.4598 24.912 57.8518 24.912C57.2331 24.912 56.7425 25.104 56.3798 25.488C56.0278 25.8613 55.8518 26.4 55.8518 27.104V32H53.6118V20.16H55.8518V24.24C56.1398 23.856 56.5238 23.5573 57.0038 23.344C57.4838 23.12 58.0171 23.008 58.6038 23.008ZM63.6139 27.536C63.6139 26.64 63.7899 25.8453 64.1419 25.152C64.5046 24.4587 64.9899 23.9253 65.5979 23.552C66.2166 23.1787 66.9046 22.992 67.6619 22.992C68.3233 22.992 68.8993 23.1253 69.3899 23.392C69.8913 23.6587 70.2913 23.9947 70.5899 24.4V23.136H72.8459V32H70.5899V30.704C70.3019 31.12 69.9019 31.4667 69.3899 31.744C68.8886 32.0107 68.3073 32.144 67.6459 32.144C66.8993 32.144 66.2166 31.952 65.5979 31.568C64.9899 31.184 64.5046 30.6453 64.1419 29.952C63.7899 29.248 63.6139 28.4427 63.6139 27.536ZM70.5899 27.568C70.5899 27.024 70.4833 26.56 70.2699 26.176C70.0566 25.7813 69.7686 25.4827 69.4059 25.28C69.0433 25.0667 68.6539 24.96 68.2379 24.96C67.8219 24.96 67.4379 25.0613 67.0859 25.264C66.7339 25.4667 66.4459 25.7653 66.2219 26.16C66.0086 26.544 65.9019 27.0027 65.9019 27.536C65.9019 28.0693 66.0086 28.5387 66.2219 28.944C66.4459 29.3387 66.7339 29.6427 67.0859 29.856C67.4486 30.0693 67.8326 30.176 68.2379 30.176C68.6539 30.176 69.0433 30.0747 69.4059 29.872C69.7686 29.6587 70.0566 29.36 70.2699 28.976C70.4833 28.5813 70.5899 28.112 70.5899 27.568ZM77.6417 24.976V29.264C77.6417 29.5627 77.711 29.7813 77.8497 29.92C77.999 30.048 78.2444 30.112 78.5857 30.112H79.6257V32H78.2177C76.3297 32 75.3857 31.0827 75.3857 29.248V24.976H74.3297V23.136H75.3857V20.944H77.6417V23.136H79.6257V24.976H77.6417ZM90.2333 32.112C89.188 32.112 88.228 31.8667 87.3533 31.376C86.4786 30.8853 85.7853 30.208 85.2733 29.344C84.7613 28.4693 84.5053 27.4827 84.5053 26.384C84.5053 25.296 84.7613 24.32 85.2733 23.456C85.7853 22.5813 86.4786 21.8987 87.3533 21.408C88.228 20.9173 89.188 20.672 90.2333 20.672C91.2893 20.672 92.2493 20.9173 93.1133 21.408C93.988 21.8987 94.676 22.5813 95.1773 23.456C95.6893 24.32 95.9453 25.296 95.9453 26.384C95.9453 27.4827 95.6893 28.4693 95.1773 29.344C94.676 30.208 93.988 30.8853 93.1133 31.376C92.2386 31.8667 91.2786 32.112 90.2333 32.112ZM90.2333 30.112C90.9053 30.112 91.4973 29.9627 92.0093 29.664C92.5213 29.3547 92.9213 28.9173 93.2093 28.352C93.4973 27.7867 93.6413 27.1307 93.6413 26.384C93.6413 25.6373 93.4973 24.9867 93.2093 24.432C92.9213 23.8667 92.5213 23.4347 92.0093 23.136C91.4973 22.8373 90.9053 22.688 90.2333 22.688C89.5613 22.688 88.964 22.8373 88.4413 23.136C87.9293 23.4347 87.5293 23.8667 87.2413 24.432C86.9533 24.9867 86.8093 25.6373 86.8093 26.384C86.8093 27.1307 86.9533 27.7867 87.2413 28.352C87.5293 28.9173 87.9293 29.3547 88.4413 29.664C88.964 29.9627 89.5613 30.112 90.2333 30.112ZM102.524 23.008C103.58 23.008 104.433 23.344 105.084 24.016C105.734 24.6773 106.06 25.6053 106.06 26.8V32H103.82V27.104C103.82 26.4 103.644 25.8613 103.292 25.488C102.94 25.104 102.46 24.912 101.852 24.912C101.233 24.912 100.742 25.104 100.38 25.488C100.028 25.8613 99.8518 26.4 99.8518 27.104V32H97.6118V23.136H99.8518V24.24C100.15 23.856 100.529 23.5573 100.988 23.344C101.457 23.12 101.969 23.008 102.524 23.008ZM126.93 20.832L123.81 32H121.17L119.074 24.048L116.882 32L114.258 32.016L111.25 20.832H113.65L115.618 29.504L117.89 20.832H120.386L122.53 29.456L124.514 20.832H126.93ZM133.385 23.008C134.057 23.008 134.654 23.1573 135.177 23.456C135.7 23.744 136.105 24.176 136.393 24.752C136.692 25.3173 136.841 26 136.841 26.8V32H134.601V27.104C134.601 26.4 134.425 25.8613 134.073 25.488C133.721 25.104 133.241 24.912 132.633 24.912C132.014 24.912 131.524 25.104 131.161 25.488C130.809 25.8613 130.633 26.4 130.633 27.104V32H128.393V20.16H130.633V24.24C130.921 23.856 131.305 23.5573 131.785 23.344C132.265 23.12 132.798 23.008 133.385 23.008ZM138.395 27.536C138.395 26.64 138.571 25.8453 138.923 25.152C139.286 24.4587 139.771 23.9253 140.379 23.552C140.998 23.1787 141.686 22.992 142.443 22.992C143.105 22.992 143.681 23.1253 144.171 23.392C144.673 23.6587 145.073 23.9947 145.371 24.4V23.136H147.627V32H145.371V30.704C145.083 31.12 144.683 31.4667 144.171 31.744C143.67 32.0107 143.089 32.144 142.427 32.144C141.681 32.144 140.998 31.952 140.379 31.568C139.771 31.184 139.286 30.6453 138.923 29.952C138.571 29.248 138.395 28.4427 138.395 27.536ZM145.371 27.568C145.371 27.024 145.265 26.56 145.051 26.176C144.838 25.7813 144.55 25.4827 144.187 25.28C143.825 25.0667 143.435 24.96 143.019 24.96C142.603 24.96 142.219 25.0613 141.867 25.264C141.515 25.4667 141.227 25.7653 141.003 26.16C140.79 26.544 140.683 27.0027 140.683 27.536C140.683 28.0693 140.79 28.5387 141.003 28.944C141.227 29.3387 141.515 29.6427 141.867 29.856C142.23 30.0693 142.614 30.176 143.019 30.176C143.435 30.176 143.825 30.0747 144.187 29.872C144.55 29.6587 144.838 29.36 145.051 28.976C145.265 28.5813 145.371 28.112 145.371 27.568ZM152.423 24.976V29.264C152.423 29.5627 152.492 29.7813 152.631 29.92C152.78 30.048 153.026 30.112 153.367 30.112H154.407V32H152.999C151.111 32 150.167 31.0827 150.167 29.248V24.976H149.111V23.136H150.167V20.944H152.423V23.136H154.407V24.976H152.423ZM159.41 32.144C158.685 32.144 158.034 32.016 157.458 31.76C156.882 31.4933 156.423 31.136 156.082 30.688C155.751 30.24 155.57 29.744 155.538 29.2H157.794C157.837 29.5413 158.002 29.824 158.29 30.048C158.589 30.272 158.957 30.384 159.394 30.384C159.821 30.384 160.151 30.2987 160.386 30.128C160.631 29.9573 160.754 29.7387 160.754 29.472C160.754 29.184 160.605 28.9707 160.306 28.832C160.018 28.6827 159.554 28.5227 158.914 28.352C158.253 28.192 157.709 28.0267 157.282 27.856C156.866 27.6853 156.503 27.424 156.194 27.072C155.895 26.72 155.746 26.2453 155.746 25.648C155.746 25.1573 155.885 24.7093 156.162 24.304C156.45 23.8987 156.855 23.5787 157.378 23.344C157.911 23.1093 158.535 22.992 159.25 22.992C160.306 22.992 161.149 23.2587 161.778 23.792C162.407 24.3147 162.754 25.024 162.818 25.92H160.674C160.642 25.568 160.493 25.2907 160.226 25.088C159.97 24.8747 159.623 24.768 159.186 24.768C158.781 24.768 158.466 24.8427 158.242 24.992C158.029 25.1413 157.922 25.3493 157.922 25.616C157.922 25.9147 158.071 26.144 158.37 26.304C158.669 26.4533 159.133 26.608 159.762 26.768C160.402 26.928 160.93 27.0933 161.346 27.264C161.762 27.4347 162.119 27.7013 162.418 28.064C162.727 28.416 162.887 28.8853 162.898 29.472C162.898 29.984 162.754 30.4427 162.466 30.848C162.189 31.2533 161.783 31.5733 161.25 31.808C160.727 32.032 160.114 32.144 159.41 32.144ZM171.585 29.872H167.137L166.401 32H164.049L168.065 20.816H170.673L174.689 32H172.321L171.585 29.872ZM170.977 28.08L169.361 23.408L167.745 28.08H170.977ZM178.43 24.416C178.718 24.0107 179.113 23.6747 179.614 23.408C180.126 23.1307 180.707 22.992 181.358 22.992C182.115 22.992 182.798 23.1787 183.406 23.552C184.025 23.9253 184.51 24.4587 184.862 25.152C185.225 25.8347 185.406 26.6293 185.406 27.536C185.406 28.4427 185.225 29.248 184.862 29.952C184.51 30.6453 184.025 31.184 183.406 31.568C182.798 31.952 182.115 32.144 181.358 32.144C180.707 32.144 180.131 32.0107 179.63 31.744C179.139 31.4773 178.739 31.1413 178.43 30.736V36.224H176.19V23.136H178.43V24.416ZM183.118 27.536C183.118 27.0027 183.006 26.544 182.782 26.16C182.569 25.7653 182.281 25.4667 181.918 25.264C181.566 25.0613 181.182 24.96 180.766 24.96C180.361 24.96 179.977 25.0667 179.614 25.28C179.262 25.4827 178.974 25.7813 178.75 26.176C178.537 26.5707 178.43 27.0347 178.43 27.568C178.43 28.1013 178.537 28.5653 178.75 28.96C178.974 29.3547 179.262 29.6587 179.614 29.872C179.977 30.0747 180.361 30.176 180.766 30.176C181.182 30.176 181.566 30.0693 181.918 29.856C182.281 29.6427 182.569 29.3387 182.782 28.944C183.006 28.5493 183.118 28.08 183.118 27.536ZM189.274 24.416C189.562 24.0107 189.956 23.6747 190.458 23.408C190.97 23.1307 191.551 22.992 192.202 22.992C192.959 22.992 193.642 23.1787 194.25 23.552C194.868 23.9253 195.354 24.4587 195.706 25.152C196.068 25.8347 196.25 26.6293 196.25 27.536C196.25 28.4427 196.068 29.248 195.706 29.952C195.354 30.6453 194.868 31.184 194.25 31.568C193.642 31.952 192.959 32.144 192.202 32.144C191.551 32.144 190.975 32.0107 190.474 31.744C189.983 31.4773 189.583 31.1413 189.274 30.736V36.224H187.034V23.136H189.274V24.416ZM193.962 27.536C193.962 27.0027 193.85 26.544 193.626 26.16C193.412 25.7653 193.124 25.4667 192.762 25.264C192.41 25.0613 192.026 24.96 191.61 24.96C191.204 24.96 190.82 25.0667 190.458 25.28C190.106 25.4827 189.818 25.7813 189.594 26.176C189.38 26.5707 189.274 27.0347 189.274 27.568C189.274 28.1013 189.38 28.5653 189.594 28.96C189.818 29.3547 190.106 29.6587 190.458 29.872C190.82 30.0747 191.204 30.176 191.61 30.176C192.026 30.176 192.41 30.0693 192.762 29.856C193.124 29.6427 193.412 29.3387 193.626 28.944C193.85 28.5493 193.962 28.08 193.962 27.536Z" fill="white"/>
</svg>
