<svg width="21" height="20" viewBox="0 0 21 20" fill="none" xmlns="http://www.w3.org/2000/svg">
<path fill-rule="evenodd" clip-rule="evenodd" d="M2.53127 5.80764C2.58933 5.74944 2.6583 5.70326 2.73423 5.67175C2.81016 5.64024 2.89156 5.62402 2.97377 5.62402C3.05598 5.62402 3.13738 5.64024 3.21332 5.67175C3.28925 5.70326 3.35822 5.74944 3.41627 5.80764L10.4738 12.8664L17.5313 5.80764C17.5894 5.74953 17.6584 5.70343 17.7343 5.67199C17.8102 5.64054 17.8916 5.62435 17.9738 5.62435C18.056 5.62435 18.1373 5.64054 18.2133 5.67199C18.2892 5.70343 18.3582 5.74953 18.4163 5.80764C18.4744 5.86575 18.5205 5.93474 18.5519 6.01066C18.5834 6.08659 18.5996 6.16796 18.5996 6.25014C18.5996 6.33232 18.5834 6.4137 18.5519 6.48962C18.5205 6.56554 18.4744 6.63453 18.4163 6.69264L10.9163 14.1926C10.8582 14.2508 10.7892 14.297 10.7133 14.3285C10.6374 14.36 10.556 14.3763 10.4738 14.3763C10.3916 14.3763 10.3102 14.36 10.2342 14.3285C10.1583 14.297 10.0893 14.2508 10.0313 14.1926L2.53127 6.69264C2.47307 6.63458 2.42689 6.56561 2.39538 6.48968C2.36387 6.41375 2.34766 6.33235 2.34766 6.25014C2.34766 6.16793 2.36387 6.08653 2.39538 6.0106C2.42689 5.93467 2.47307 5.8657 2.53127 5.80764Z" fill="#979797"/>
</svg>
