<svg width="168" height="26" viewBox="0 0 168 26" fill="none" xmlns="http://www.w3.org/2000/svg">
<path d="M42.606 19.216C41.55 19.216 40.62 18.928 39.816 18.352C39.024 17.764 38.406 16.954 37.962 15.922C37.518 14.878 37.296 13.666 37.296 12.286C37.296 10.906 37.518 9.7 37.962 8.668C38.406 7.624 39.024 6.814 39.816 6.238C40.608 5.662 41.532 5.374 42.588 5.374C43.644 5.374 44.568 5.662 45.36 6.238C46.152 6.814 46.77 7.624 47.214 8.668C47.658 9.7 47.88 10.906 47.88 12.286C47.88 13.666 47.658 14.878 47.214 15.922C46.782 16.966 46.17 17.776 45.378 18.352C44.586 18.928 43.662 19.216 42.606 19.216ZM42.606 17.866C43.374 17.866 44.046 17.632 44.622 17.164C45.198 16.696 45.648 16.048 45.972 15.22C46.296 14.38 46.458 13.402 46.458 12.286C46.458 11.17 46.296 10.198 45.972 9.37C45.648 8.53 45.198 7.882 44.622 7.426C44.046 6.958 43.368 6.724 42.588 6.724C41.82 6.724 41.148 6.958 40.572 7.426C39.996 7.882 39.546 8.53 39.222 9.37C38.898 10.198 38.736 11.17 38.736 12.286C38.736 13.39 38.898 14.362 39.222 15.202C39.546 16.042 39.996 16.696 40.572 17.164C41.16 17.632 41.838 17.866 42.606 17.866ZM54.8356 19.216C53.9716 19.216 53.1976 19.042 52.5136 18.694C51.8416 18.334 51.3076 17.848 50.9116 17.236C50.5276 16.612 50.3356 15.91 50.3356 15.13C50.3356 14.278 50.5756 13.516 51.0556 12.844C51.5476 12.172 52.2076 11.704 53.0356 11.44V11.818C52.3996 11.542 51.9076 11.134 51.5596 10.594C51.2116 10.042 51.0376 9.454 51.0376 8.83C51.0376 8.17 51.2056 7.582 51.5416 7.066C51.8776 6.55 52.3276 6.142 52.8916 5.842C53.4676 5.53 54.1156 5.374 54.8356 5.374C55.5676 5.374 56.2156 5.524 56.7796 5.824C57.3436 6.112 57.7876 6.52 58.1116 7.048C58.4476 7.564 58.6156 8.158 58.6156 8.83C58.6156 9.502 58.4356 10.102 58.0756 10.63C57.7156 11.146 57.2416 11.542 56.6536 11.818L56.6356 11.44C57.4636 11.704 58.1176 12.172 58.5976 12.844C59.0896 13.516 59.3356 14.278 59.3356 15.13C59.3356 15.91 59.1376 16.612 58.7416 17.236C58.3576 17.848 57.8236 18.334 57.1396 18.694C56.4676 19.042 55.6996 19.216 54.8356 19.216ZM54.8356 17.956C55.4476 17.956 55.9816 17.842 56.4376 17.614C56.8936 17.374 57.2476 17.044 57.4996 16.624C57.7636 16.192 57.8956 15.694 57.8956 15.13C57.8956 14.566 57.7636 14.074 57.4996 13.654C57.2476 13.222 56.8936 12.892 56.4376 12.664C55.9816 12.424 55.4476 12.304 54.8356 12.304C54.2236 12.304 53.6836 12.424 53.2156 12.664C52.7596 12.892 52.4056 13.222 52.1536 13.654C51.9016 14.074 51.7756 14.566 51.7756 15.13C51.7756 15.694 51.9016 16.192 52.1536 16.624C52.4056 17.044 52.7596 17.374 53.2156 17.614C53.6836 17.842 54.2236 17.956 54.8356 17.956ZM54.8356 11.044C55.2796 11.044 55.6756 10.954 56.0236 10.774C56.3716 10.582 56.6476 10.324 56.8516 10C57.0676 9.664 57.1756 9.274 57.1756 8.83C57.1756 8.386 57.0676 8.002 56.8516 7.678C56.6476 7.354 56.3716 7.102 56.0236 6.922C55.6756 6.73 55.2796 6.634 54.8356 6.634C54.3916 6.634 53.9896 6.73 53.6296 6.922C53.2816 7.102 52.9996 7.354 52.7836 7.678C52.5796 8.002 52.4776 8.386 52.4776 8.83C52.4776 9.274 52.5796 9.664 52.7836 10C52.9996 10.324 53.2816 10.582 53.6296 10.774C53.9896 10.954 54.3916 11.044 54.8356 11.044ZM61.5303 19V18.1L65.2743 13.978C66.0063 13.174 66.6003 12.508 67.0563 11.98C67.5243 11.452 67.8723 10.972 68.1003 10.54C68.3283 10.108 68.4423 9.64 68.4423 9.136C68.4423 8.332 68.2083 7.714 67.7403 7.282C67.2723 6.85 66.6483 6.634 65.8683 6.634C65.0643 6.634 64.3863 6.862 63.8343 7.318C63.2943 7.774 62.9283 8.41 62.7363 9.226L61.4223 8.938C61.5783 8.206 61.8603 7.576 62.2683 7.048C62.6763 6.52 63.1863 6.112 63.7983 5.824C64.4103 5.524 65.0943 5.374 65.8503 5.374C66.6543 5.374 67.3563 5.536 67.9563 5.86C68.5563 6.184 69.0243 6.628 69.3603 7.192C69.7083 7.756 69.8823 8.404 69.8823 9.136C69.8823 9.64 69.7743 10.126 69.5583 10.594C69.3543 11.062 69.0423 11.566 68.6223 12.106C68.2023 12.646 67.6623 13.276 67.0023 13.996L63.6003 17.74H70.2423V19H61.5303ZM74.5373 19V6.85H72.0173V5.59H75.9773V19H74.5373ZM79.003 19V18.1L82.747 13.978C83.479 13.174 84.073 12.508 84.529 11.98C84.997 11.452 85.345 10.972 85.573 10.54C85.801 10.108 85.915 9.64 85.915 9.136C85.915 8.332 85.681 7.714 85.213 7.282C84.745 6.85 84.121 6.634 83.341 6.634C82.537 6.634 81.859 6.862 81.307 7.318C80.767 7.774 80.401 8.41 80.209 9.226L78.895 8.938C79.051 8.206 79.333 7.576 79.741 7.048C80.149 6.52 80.659 6.112 81.271 5.824C81.883 5.524 82.567 5.374 83.323 5.374C84.127 5.374 84.829 5.536 85.429 5.86C86.029 6.184 86.497 6.628 86.833 7.192C87.181 7.756 87.355 8.404 87.355 9.136C87.355 9.64 87.247 10.126 87.031 10.594C86.827 11.062 86.515 11.566 86.095 12.106C85.675 12.646 85.135 13.276 84.475 13.996L81.073 17.74H87.715V19H79.003ZM95.358 19.216C94.302 19.216 93.372 18.928 92.568 18.352C91.776 17.764 91.158 16.954 90.714 15.922C90.27 14.878 90.048 13.666 90.048 12.286C90.048 10.906 90.27 9.7 90.714 8.668C91.158 7.624 91.776 6.814 92.568 6.238C93.36 5.662 94.284 5.374 95.34 5.374C96.396 5.374 97.32 5.662 98.112 6.238C98.904 6.814 99.522 7.624 99.966 8.668C100.41 9.7 100.632 10.906 100.632 12.286C100.632 13.666 100.41 14.878 99.966 15.922C99.534 16.966 98.922 17.776 98.13 18.352C97.338 18.928 96.414 19.216 95.358 19.216ZM95.358 17.866C96.126 17.866 96.798 17.632 97.374 17.164C97.95 16.696 98.4 16.048 98.724 15.22C99.048 14.38 99.21 13.402 99.21 12.286C99.21 11.17 99.048 10.198 98.724 9.37C98.4 8.53 97.95 7.882 97.374 7.426C96.798 6.958 96.12 6.724 95.34 6.724C94.572 6.724 93.9 6.958 93.324 7.426C92.748 7.882 92.298 8.53 91.974 9.37C91.65 10.198 91.488 11.17 91.488 12.286C91.488 13.39 91.65 14.362 91.974 15.202C92.298 16.042 92.748 16.696 93.324 17.164C93.912 17.632 94.59 17.866 95.358 17.866ZM107.588 19.216C106.724 19.216 105.95 19.042 105.266 18.694C104.594 18.334 104.06 17.848 103.664 17.236C103.28 16.612 103.088 15.91 103.088 15.13C103.088 14.278 103.328 13.516 103.808 12.844C104.3 12.172 104.96 11.704 105.788 11.44V11.818C105.152 11.542 104.66 11.134 104.312 10.594C103.964 10.042 103.79 9.454 103.79 8.83C103.79 8.17 103.958 7.582 104.294 7.066C104.63 6.55 105.08 6.142 105.644 5.842C106.22 5.53 106.868 5.374 107.588 5.374C108.32 5.374 108.968 5.524 109.532 5.824C110.096 6.112 110.54 6.52 110.864 7.048C111.2 7.564 111.368 8.158 111.368 8.83C111.368 9.502 111.188 10.102 110.828 10.63C110.468 11.146 109.994 11.542 109.406 11.818L109.388 11.44C110.216 11.704 110.87 12.172 111.35 12.844C111.842 13.516 112.088 14.278 112.088 15.13C112.088 15.91 111.89 16.612 111.494 17.236C111.11 17.848 110.576 18.334 109.892 18.694C109.22 19.042 108.452 19.216 107.588 19.216ZM107.588 17.956C108.2 17.956 108.734 17.842 109.19 17.614C109.646 17.374 110 17.044 110.252 16.624C110.516 16.192 110.648 15.694 110.648 15.13C110.648 14.566 110.516 14.074 110.252 13.654C110 13.222 109.646 12.892 109.19 12.664C108.734 12.424 108.2 12.304 107.588 12.304C106.976 12.304 106.436 12.424 105.968 12.664C105.512 12.892 105.158 13.222 104.906 13.654C104.654 14.074 104.528 14.566 104.528 15.13C104.528 15.694 104.654 16.192 104.906 16.624C105.158 17.044 105.512 17.374 105.968 17.614C106.436 17.842 106.976 17.956 107.588 17.956ZM107.588 11.044C108.032 11.044 108.428 10.954 108.776 10.774C109.124 10.582 109.4 10.324 109.604 10C109.82 9.664 109.928 9.274 109.928 8.83C109.928 8.386 109.82 8.002 109.604 7.678C109.4 7.354 109.124 7.102 108.776 6.922C108.428 6.73 108.032 6.634 107.588 6.634C107.144 6.634 106.742 6.73 106.382 6.922C106.034 7.102 105.752 7.354 105.536 7.678C105.332 8.002 105.23 8.386 105.23 8.83C105.23 9.274 105.332 9.664 105.536 10C105.752 10.324 106.034 10.582 106.382 10.774C106.742 10.954 107.144 11.044 107.588 11.044ZM114.282 19V18.1L118.026 13.978C118.758 13.174 119.352 12.508 119.808 11.98C120.276 11.452 120.624 10.972 120.852 10.54C121.08 10.108 121.194 9.64 121.194 9.136C121.194 8.332 120.96 7.714 120.492 7.282C120.024 6.85 119.4 6.634 118.62 6.634C117.816 6.634 117.138 6.862 116.586 7.318C116.046 7.774 115.68 8.41 115.488 9.226L114.174 8.938C114.33 8.206 114.612 7.576 115.02 7.048C115.428 6.52 115.938 6.112 116.55 5.824C117.162 5.524 117.846 5.374 118.602 5.374C119.406 5.374 120.108 5.536 120.708 5.86C121.308 6.184 121.776 6.628 122.112 7.192C122.46 7.756 122.634 8.404 122.634 9.136C122.634 9.64 122.526 10.126 122.31 10.594C122.106 11.062 121.794 11.566 121.374 12.106C120.954 12.646 120.414 13.276 119.754 13.996L116.352 17.74H122.994V19H114.282ZM129.431 19.216C128.591 19.216 127.847 19.03 127.199 18.658C126.551 18.274 126.041 17.752 125.669 17.092C125.297 16.42 125.111 15.652 125.111 14.788C125.111 14.308 125.165 13.834 125.273 13.366C125.393 12.898 125.567 12.436 125.795 11.98C126.035 11.524 126.323 11.068 126.659 10.612L130.439 5.59H132.167L127.505 11.692L127.235 11.854C127.415 11.554 127.625 11.326 127.865 11.17C128.105 11.002 128.369 10.882 128.657 10.81C128.957 10.738 129.275 10.702 129.611 10.702C130.391 10.702 131.093 10.888 131.717 11.26C132.341 11.62 132.833 12.118 133.193 12.754C133.565 13.39 133.751 14.128 133.751 14.968C133.751 15.772 133.559 16.498 133.175 17.146C132.803 17.782 132.293 18.286 131.645 18.658C130.997 19.03 130.259 19.216 129.431 19.216ZM129.431 17.956C129.983 17.956 130.475 17.83 130.907 17.578C131.339 17.314 131.681 16.954 131.933 16.498C132.185 16.042 132.311 15.532 132.311 14.968C132.311 14.392 132.185 13.882 131.933 13.438C131.693 12.994 131.357 12.646 130.925 12.394C130.493 12.13 129.995 11.998 129.431 11.998C128.879 11.998 128.381 12.13 127.937 12.394C127.505 12.646 127.163 12.994 126.911 13.438C126.671 13.882 126.551 14.392 126.551 14.968C126.551 15.532 126.677 16.042 126.929 16.498C127.181 16.954 127.523 17.314 127.955 17.578C128.387 17.83 128.879 17.956 129.431 17.956ZM140.171 19.216C139.331 19.216 138.587 19.03 137.939 18.658C137.291 18.274 136.781 17.752 136.409 17.092C136.037 16.42 135.851 15.652 135.851 14.788C135.851 14.308 135.905 13.834 136.013 13.366C136.133 12.898 136.307 12.436 136.535 11.98C136.775 11.524 137.063 11.068 137.399 10.612L141.179 5.59H142.907L138.245 11.692L137.975 11.854C138.155 11.554 138.365 11.326 138.605 11.17C138.845 11.002 139.109 10.882 139.397 10.81C139.697 10.738 140.015 10.702 140.351 10.702C141.131 10.702 141.833 10.888 142.457 11.26C143.081 11.62 143.573 12.118 143.933 12.754C144.305 13.39 144.491 14.128 144.491 14.968C144.491 15.772 144.299 16.498 143.915 17.146C143.543 17.782 143.033 18.286 142.385 18.658C141.737 19.03 140.999 19.216 140.171 19.216ZM140.171 17.956C140.723 17.956 141.215 17.83 141.647 17.578C142.079 17.314 142.421 16.954 142.673 16.498C142.925 16.042 143.051 15.532 143.051 14.968C143.051 14.392 142.925 13.882 142.673 13.438C142.433 12.994 142.097 12.646 141.665 12.394C141.233 12.13 140.735 11.998 140.171 11.998C139.619 11.998 139.121 12.13 138.677 12.394C138.245 12.646 137.903 12.994 137.651 13.438C137.411 13.882 137.291 14.392 137.291 14.968C137.291 15.532 137.417 16.042 137.669 16.498C137.921 16.954 138.263 17.314 138.695 17.578C139.127 17.83 139.619 17.956 140.171 17.956ZM150.912 19.216C150.072 19.216 149.328 19.03 148.68 18.658C148.032 18.274 147.522 17.752 147.15 17.092C146.778 16.42 146.592 15.652 146.592 14.788C146.592 14.308 146.646 13.834 146.754 13.366C146.874 12.898 147.048 12.436 147.276 11.98C147.516 11.524 147.804 11.068 148.14 10.612L151.92 5.59H153.648L148.986 11.692L148.716 11.854C148.896 11.554 149.106 11.326 149.346 11.17C149.586 11.002 149.85 10.882 150.138 10.81C150.438 10.738 150.756 10.702 151.092 10.702C151.872 10.702 152.574 10.888 153.198 11.26C153.822 11.62 154.314 12.118 154.674 12.754C155.046 13.39 155.232 14.128 155.232 14.968C155.232 15.772 155.04 16.498 154.656 17.146C154.284 17.782 153.774 18.286 153.126 18.658C152.478 19.03 151.74 19.216 150.912 19.216ZM150.912 17.956C151.464 17.956 151.956 17.83 152.388 17.578C152.82 17.314 153.162 16.954 153.414 16.498C153.666 16.042 153.792 15.532 153.792 14.968C153.792 14.392 153.666 13.882 153.414 13.438C153.174 12.994 152.838 12.646 152.406 12.394C151.974 12.13 151.476 11.998 150.912 11.998C150.36 11.998 149.862 12.13 149.418 12.394C148.986 12.646 148.644 12.994 148.392 13.438C148.152 13.882 148.032 14.392 148.032 14.968C148.032 15.532 148.158 16.042 148.41 16.498C148.662 16.954 149.004 17.314 149.436 17.578C149.868 17.83 150.36 17.956 150.912 17.956ZM157.296 19V18.1L161.04 13.978C161.772 13.174 162.366 12.508 162.822 11.98C163.29 11.452 163.638 10.972 163.866 10.54C164.094 10.108 164.208 9.64 164.208 9.136C164.208 8.332 163.974 7.714 163.506 7.282C163.038 6.85 162.414 6.634 161.634 6.634C160.83 6.634 160.152 6.862 159.6 7.318C159.06 7.774 158.694 8.41 158.502 9.226L157.188 8.938C157.344 8.206 157.626 7.576 158.034 7.048C158.442 6.52 158.952 6.112 159.564 5.824C160.176 5.524 160.86 5.374 161.616 5.374C162.42 5.374 163.122 5.536 163.722 5.86C164.322 6.184 164.79 6.628 165.126 7.192C165.474 7.756 165.648 8.404 165.648 9.136C165.648 9.64 165.54 10.126 165.324 10.594C165.12 11.062 164.808 11.566 164.388 12.106C163.968 12.646 163.428 13.276 162.768 13.996L159.366 17.74H166.008V19H157.296Z" fill="white"/>
<path d="M11.05 16.95L9.2 18.8C8.81 19.19 8.19 19.19 7.79 18.81C7.68 18.7 7.57 18.6 7.46 18.49C6.43 17.45 5.5 16.36 4.67 15.22C3.85 14.08 3.19 12.94 2.71 11.81C2.24 10.67 2 9.58 2 8.54C2 7.86 2.12 7.21 2.36 6.61C2.6 6 2.98 5.44 3.51 4.94C4.15 4.31 4.85 4 5.59 4C5.87 4 6.15 4.06 6.4 4.18C6.66 4.3 6.89 4.48 7.07 4.74L9.39 8.01C9.57 8.26 9.7 8.49 9.79 8.71C9.88 8.92 9.93 9.13 9.93 9.32C9.93 9.56 9.86 9.8 9.72 10.03C9.59 10.26 9.4 10.5 9.16 10.74L8.4 11.53C8.29 11.64 8.24 11.77 8.24 11.93C8.24 12.01 8.25 12.08 8.27 12.16C8.3 12.24 8.33 12.3 8.35 12.36C8.53 12.69 8.84 13.12 9.28 13.64C9.73 14.16 10.21 14.69 10.73 15.22C10.83 15.32 10.94 15.42 11.04 15.52C11.44 15.91 11.45 16.55 11.05 16.95Z" fill="white"/>
<path d="M21.9696 20.33C21.9696 20.61 21.9196 20.9 21.8196 21.18C21.7896 21.26 21.7596 21.34 21.7196 21.42C21.5496 21.78 21.3296 22.12 21.0396 22.44C20.5496 22.98 20.0096 23.37 19.3996 23.62C19.3896 23.62 19.3796 23.63 19.3696 23.63C18.7796 23.87 18.1396 24 17.4496 24C16.4296 24 15.3396 23.76 14.1896 23.27C13.0396 22.78 11.8896 22.12 10.7496 21.29C10.3596 21 9.96961 20.71 9.59961 20.4L12.8696 17.13C13.1496 17.34 13.3996 17.5 13.6096 17.61C13.6596 17.63 13.7196 17.66 13.7896 17.69C13.8696 17.72 13.9496 17.73 14.0396 17.73C14.2096 17.73 14.3396 17.67 14.4496 17.56L15.2096 16.81C15.4596 16.56 15.6996 16.37 15.9296 16.25C16.1596 16.11 16.3896 16.04 16.6396 16.04C16.8296 16.04 17.0296 16.08 17.2496 16.17C17.4696 16.26 17.6996 16.39 17.9496 16.56L21.2596 18.91C21.5196 19.09 21.6996 19.3 21.8096 19.55C21.9096 19.8 21.9696 20.05 21.9696 20.33Z" fill="white"/>
</svg>
