<svg width="348" height="391" viewBox="0 0 348 391" fill="none" xmlns="http://www.w3.org/2000/svg">
<g filter="url(#filter0_d_317_3976)">
<rect x="4" y="4" width="340.035" height="383" rx="18.4135" fill="white"/>
</g>
<path d="M36.6248 175.308V157.932H42.759C43.9096 157.932 44.9203 158.149 45.7911 158.585C46.6618 159.02 47.3382 159.642 47.8202 160.45C48.3178 161.259 48.5666 162.208 48.5666 163.296C48.5666 164.384 48.3178 165.333 47.8202 166.141C47.3382 166.934 46.6618 167.556 45.7911 168.007C44.9359 168.443 43.9252 168.66 42.759 168.66H38.9106V175.308H36.6248ZM38.9106 166.561H42.8289C43.5287 166.561 44.1351 166.429 44.6482 166.165C45.1613 165.9 45.5578 165.519 45.8377 165.022C46.1176 164.524 46.2575 163.949 46.2575 163.296C46.2575 162.627 46.1176 162.052 45.8377 161.57C45.5578 161.072 45.1613 160.691 44.6482 160.427C44.1351 160.163 43.5287 160.031 42.8289 160.031H38.9106V166.561ZM54.2208 175.588C53.3967 175.588 52.6658 175.44 52.0283 175.144C51.4064 174.833 50.9166 174.414 50.5589 173.885C50.2013 173.341 50.0225 172.719 50.0225 172.019C50.0225 171.35 50.1624 170.752 50.4423 170.223C50.7377 169.679 51.1887 169.22 51.7951 168.847C52.4171 168.474 53.1945 168.209 54.1275 168.054L58.7922 167.284V169.104L54.6173 169.803C53.8087 169.943 53.2178 170.2 52.8447 170.573C52.487 170.946 52.3082 171.405 52.3082 171.949C52.3082 172.462 52.5104 172.89 52.9146 173.232C53.3345 173.574 53.8554 173.745 54.4773 173.745C55.2703 173.745 55.9545 173.582 56.5298 173.255C57.1207 172.913 57.5794 172.454 57.9059 171.879C58.248 171.304 58.419 170.666 58.419 169.967V166.771C58.419 166.087 58.1625 165.535 57.6493 165.115C57.1518 164.68 56.4909 164.462 55.6668 164.462C54.9516 164.462 54.3141 164.649 53.7543 165.022C53.2101 165.38 52.8058 165.862 52.5415 166.468L50.6522 165.488C50.8855 164.913 51.2586 164.4 51.7718 163.949C52.2849 163.483 52.8835 163.117 53.5677 162.853C54.2519 162.588 54.9671 162.456 55.7135 162.456C56.6775 162.456 57.525 162.643 58.2558 163.016C58.9866 163.374 59.5541 163.879 59.9584 164.532C60.3782 165.17 60.5881 165.916 60.5881 166.771V175.308H58.4657V172.929L58.8622 173.069C58.5978 173.566 58.2402 174.002 57.7893 174.375C57.3384 174.748 56.8097 175.043 56.2033 175.261C55.5969 175.479 54.936 175.588 54.2208 175.588ZM68.4528 175.588C67.1933 175.588 66.0971 175.277 65.1641 174.655C64.2312 174.033 63.5703 173.193 63.1816 172.136L64.9076 171.296C65.2652 172.042 65.755 172.633 66.377 173.069C66.9989 173.504 67.6909 173.722 68.4528 173.722C69.1369 173.722 69.7045 173.558 70.1554 173.232C70.6063 172.905 70.8318 172.478 70.8318 171.949C70.8318 171.576 70.723 171.28 70.5053 171.063C70.3031 170.83 70.0543 170.651 69.7589 170.526C69.4635 170.386 69.1914 170.285 68.9426 170.223L67.0534 169.687C65.9183 169.36 65.0864 168.894 64.5577 168.287C64.0446 167.681 63.788 166.973 63.788 166.165C63.788 165.418 63.9746 164.773 64.3478 164.229C64.7365 163.669 65.2574 163.234 65.9105 162.923C66.5791 162.612 67.3255 162.456 68.1496 162.456C69.2536 162.456 70.2409 162.736 71.1117 163.296C71.998 163.856 72.6277 164.641 73.0009 165.652L71.2283 166.468C70.9484 165.815 70.5286 165.302 69.9688 164.929C69.4091 164.54 68.7793 164.346 68.0796 164.346C67.4421 164.346 66.9367 164.509 66.5636 164.835C66.1904 165.146 66.0038 165.543 66.0038 166.025C66.0038 166.382 66.0971 166.678 66.2837 166.911C66.4703 167.129 66.6957 167.3 66.9601 167.424C67.2244 167.533 67.481 167.626 67.7297 167.704L69.7822 168.311C70.8085 168.606 71.6015 169.065 72.1613 169.687C72.7366 170.309 73.0242 171.055 73.0242 171.926C73.0242 172.625 72.8299 173.255 72.4411 173.815C72.0524 174.375 71.516 174.81 70.8318 175.121C70.1476 175.432 69.3546 175.588 68.4528 175.588ZM80.3652 175.588C79.1057 175.588 78.0095 175.277 77.0765 174.655C76.1436 174.033 75.4828 173.193 75.094 172.136L76.82 171.296C77.1776 172.042 77.6674 172.633 78.2894 173.069C78.9113 173.504 79.6033 173.722 80.3652 173.722C81.0494 173.722 81.6169 173.558 82.0678 173.232C82.5187 172.905 82.7442 172.478 82.7442 171.949C82.7442 171.576 82.6354 171.28 82.4177 171.063C82.2155 170.83 81.9668 170.651 81.6713 170.526C81.3759 170.386 81.1038 170.285 80.855 170.223L78.9658 169.687C77.8307 169.36 76.9988 168.894 76.4701 168.287C75.957 167.681 75.7004 166.973 75.7004 166.165C75.7004 165.418 75.887 164.773 76.2602 164.229C76.6489 163.669 77.1698 163.234 77.8229 162.923C78.4915 162.612 79.2379 162.456 80.062 162.456C81.166 162.456 82.1533 162.736 83.0241 163.296C83.9104 163.856 84.5401 164.641 84.9133 165.652L83.1407 166.468C82.8608 165.815 82.441 165.302 81.8812 164.929C81.3215 164.54 80.6917 164.346 79.992 164.346C79.3545 164.346 78.8491 164.509 78.476 164.835C78.1028 165.146 77.9162 165.543 77.9162 166.025C77.9162 166.382 78.0095 166.678 78.1961 166.911C78.3827 167.129 78.6081 167.3 78.8725 167.424C79.1368 167.533 79.3934 167.626 79.6422 167.704L81.6946 168.311C82.7209 168.606 83.5139 169.065 84.0737 169.687C84.649 170.309 84.9366 171.055 84.9366 171.926C84.9366 172.625 84.7423 173.255 84.3535 173.815C83.9648 174.375 83.4284 174.81 82.7442 175.121C82.06 175.432 81.267 175.588 80.3652 175.588ZM87.7761 179.972V162.736H89.8986V165.442L89.6187 164.905C90.0852 164.159 90.7227 163.568 91.5312 163.133C92.3398 162.682 93.265 162.456 94.3068 162.456C95.4885 162.456 96.5458 162.744 97.4788 163.319C98.4273 163.895 99.1736 164.68 99.7179 165.675C100.262 166.655 100.534 167.774 100.534 169.034C100.534 170.262 100.262 171.374 99.7179 172.369C99.1736 173.364 98.4273 174.149 97.4788 174.725C96.5458 175.3 95.4807 175.588 94.2834 175.588C93.2727 175.588 92.3476 175.362 91.5079 174.911C90.6838 174.46 90.0463 173.823 89.5954 172.999L89.9452 172.625V179.972H87.7761ZM94.1202 173.488C94.9132 173.488 95.6207 173.294 96.2426 172.905C96.8646 172.517 97.3466 171.988 97.6887 171.319C98.0463 170.635 98.2251 169.873 98.2251 169.034C98.2251 168.163 98.0463 167.401 97.6887 166.748C97.3466 166.079 96.8646 165.551 96.2426 165.162C95.6207 164.758 94.9132 164.555 94.1202 164.555C93.3272 164.555 92.6119 164.75 91.9744 165.139C91.3524 165.527 90.8548 166.064 90.4817 166.748C90.124 167.416 89.9452 168.178 89.9452 169.034C89.9452 169.873 90.124 170.635 90.4817 171.319C90.8548 171.988 91.3524 172.517 91.9744 172.905C92.6119 173.294 93.3272 173.488 94.1202 173.488ZM109.349 175.588C108.136 175.588 107.04 175.308 106.061 174.748C105.081 174.173 104.304 173.387 103.728 172.392C103.153 171.397 102.865 170.27 102.865 169.01C102.865 167.751 103.145 166.631 103.705 165.652C104.28 164.672 105.058 163.895 106.037 163.319C107.017 162.744 108.121 162.456 109.349 162.456C110.562 162.456 111.658 162.744 112.638 163.319C113.618 163.879 114.387 164.649 114.947 165.628C115.522 166.608 115.81 167.735 115.81 169.01C115.81 170.285 115.515 171.42 114.924 172.416C114.333 173.395 113.548 174.173 112.568 174.748C111.604 175.308 110.531 175.588 109.349 175.588ZM109.349 173.488C110.127 173.488 110.826 173.294 111.448 172.905C112.086 172.517 112.584 171.98 112.941 171.296C113.314 170.612 113.501 169.85 113.501 169.01C113.501 168.155 113.314 167.401 112.941 166.748C112.584 166.079 112.086 165.551 111.448 165.162C110.826 164.758 110.127 164.555 109.349 164.555C108.556 164.555 107.841 164.758 107.204 165.162C106.582 165.551 106.084 166.079 105.711 166.748C105.338 167.401 105.151 168.155 105.151 169.01C105.151 169.85 105.338 170.612 105.711 171.296C106.084 171.98 106.582 172.517 107.204 172.905C107.841 173.294 108.556 173.488 109.349 173.488ZM118.639 175.308V162.736H120.762V165.045L120.528 164.719C120.824 164.003 121.275 163.475 121.881 163.133C122.487 162.775 123.226 162.596 124.097 162.596H124.866V164.649H123.77C122.884 164.649 122.169 164.929 121.624 165.488C121.08 166.033 120.808 166.81 120.808 167.821V175.308H118.639ZM132.015 175.448C130.787 175.448 129.838 175.098 129.17 174.398C128.516 173.698 128.19 172.711 128.19 171.436V164.812H125.904V162.736H126.371C126.93 162.736 127.374 162.565 127.7 162.223C128.027 161.881 128.19 161.43 128.19 160.87V159.844H130.359V162.736H133.181V164.812H130.359V171.366C130.359 171.786 130.421 172.151 130.546 172.462C130.686 172.773 130.911 173.022 131.222 173.209C131.533 173.38 131.945 173.465 132.458 173.465C132.567 173.465 132.699 173.457 132.855 173.442C133.026 173.426 133.181 173.411 133.321 173.395V175.308C133.119 175.354 132.894 175.385 132.645 175.401C132.396 175.432 132.186 175.448 132.015 175.448ZM140.443 175.308V157.932H146.134C147.891 157.932 149.422 158.289 150.728 159.004C152.035 159.72 153.045 160.73 153.761 162.036C154.476 163.327 154.833 164.851 154.833 166.608C154.833 168.349 154.476 169.873 153.761 171.179C153.045 172.486 152.035 173.504 150.728 174.235C149.422 174.95 147.891 175.308 146.134 175.308H140.443ZM142.728 173.209H146.157C147.448 173.209 148.559 172.936 149.492 172.392C150.441 171.848 151.172 171.086 151.685 170.106C152.198 169.111 152.454 167.945 152.454 166.608C152.454 165.255 152.19 164.089 151.661 163.109C151.148 162.13 150.417 161.376 149.469 160.847C148.536 160.303 147.432 160.031 146.157 160.031H142.728V173.209ZM163.445 175.588C162.232 175.588 161.136 175.308 160.156 174.748C159.177 174.173 158.399 173.387 157.824 172.392C157.248 171.397 156.961 170.27 156.961 169.01C156.961 167.751 157.241 166.631 157.8 165.652C158.376 164.672 159.153 163.895 160.133 163.319C161.112 162.744 162.216 162.456 163.445 162.456C164.658 162.456 165.754 162.744 166.733 163.319C167.713 163.879 168.483 164.649 169.043 165.628C169.618 166.608 169.905 167.735 169.905 169.01C169.905 170.285 169.61 171.42 169.019 172.416C168.428 173.395 167.643 174.173 166.663 174.748C165.699 175.308 164.627 175.588 163.445 175.588ZM163.445 173.488C164.222 173.488 164.922 173.294 165.544 172.905C166.181 172.517 166.679 171.98 167.037 171.296C167.41 170.612 167.596 169.85 167.596 169.01C167.596 168.155 167.41 167.401 167.037 166.748C166.679 166.079 166.181 165.551 165.544 165.162C164.922 164.758 164.222 164.555 163.445 164.555C162.652 164.555 161.937 164.758 161.299 165.162C160.677 165.551 160.179 166.079 159.806 166.748C159.433 167.401 159.247 168.155 159.247 169.01C159.247 169.85 159.433 170.612 159.806 171.296C160.179 171.98 160.677 172.517 161.299 172.905C161.937 173.294 162.652 173.488 163.445 173.488ZM178.566 175.588C177.337 175.588 176.241 175.3 175.277 174.725C174.328 174.149 173.582 173.364 173.038 172.369C172.494 171.374 172.221 170.254 172.221 169.01C172.221 167.751 172.494 166.631 173.038 165.652C173.582 164.672 174.328 163.895 175.277 163.319C176.241 162.744 177.337 162.456 178.566 162.456C179.39 162.456 180.159 162.604 180.875 162.899C181.59 163.195 182.22 163.591 182.764 164.089C183.308 164.587 183.705 165.17 183.953 165.838L182.017 166.771C181.722 166.118 181.271 165.589 180.665 165.185C180.058 164.765 179.359 164.555 178.566 164.555C177.804 164.555 177.112 164.75 176.49 165.139C175.883 165.527 175.401 166.056 175.044 166.725C174.686 167.393 174.507 168.163 174.507 169.034C174.507 169.873 174.686 170.635 175.044 171.319C175.401 171.988 175.883 172.517 176.49 172.905C177.112 173.294 177.804 173.488 178.566 173.488C179.359 173.488 180.058 173.286 180.665 172.882C181.271 172.462 181.722 171.91 182.017 171.226L183.953 172.206C183.705 172.859 183.308 173.442 182.764 173.955C182.22 174.452 181.59 174.849 180.875 175.144C180.159 175.44 179.39 175.588 178.566 175.588ZM191.243 175.588C190.341 175.588 189.525 175.378 188.794 174.958C188.079 174.538 187.519 173.955 187.115 173.209C186.726 172.447 186.531 171.576 186.531 170.596V162.736H188.701V170.363C188.701 170.985 188.825 171.529 189.074 171.996C189.338 172.462 189.696 172.828 190.147 173.092C190.613 173.356 191.142 173.488 191.733 173.488C192.324 173.488 192.844 173.356 193.295 173.092C193.762 172.828 194.119 172.447 194.368 171.949C194.633 171.451 194.765 170.861 194.765 170.176V162.736H196.957V175.308H194.835V172.859L195.185 173.069C194.889 173.862 194.384 174.484 193.669 174.934C192.969 175.37 192.16 175.588 191.243 175.588ZM200.318 175.308V162.736H202.44V165.302L202.137 164.905C202.448 164.112 202.945 163.506 203.63 163.086C204.314 162.666 205.083 162.456 205.939 162.456C206.918 162.456 207.797 162.728 208.574 163.273C209.367 163.817 209.911 164.532 210.207 165.418L209.6 165.442C209.927 164.462 210.479 163.724 211.256 163.226C212.034 162.713 212.897 162.456 213.845 162.456C214.716 162.456 215.501 162.658 216.201 163.063C216.916 163.467 217.484 164.027 217.904 164.742C218.324 165.457 218.533 166.266 218.533 167.168V175.308H216.341V167.867C216.341 167.168 216.217 166.577 215.968 166.095C215.719 165.613 215.377 165.24 214.942 164.975C214.522 164.695 214.024 164.555 213.449 164.555C212.889 164.555 212.384 164.695 211.933 164.975C211.497 165.24 211.148 165.621 210.883 166.118C210.634 166.6 210.51 167.183 210.51 167.867V175.308H208.318V167.867C208.318 167.168 208.193 166.577 207.944 166.095C207.696 165.613 207.354 165.24 206.918 164.975C206.498 164.695 206.001 164.555 205.426 164.555C204.866 164.555 204.36 164.695 203.909 164.975C203.474 165.24 203.124 165.621 202.86 166.118C202.611 166.6 202.487 167.183 202.487 167.867V175.308H200.318ZM227.398 175.588C226.186 175.588 225.105 175.3 224.156 174.725C223.208 174.149 222.462 173.364 221.917 172.369C221.373 171.358 221.101 170.231 221.101 168.987C221.101 167.727 221.365 166.608 221.894 165.628C222.438 164.649 223.169 163.879 224.086 163.319C225.019 162.744 226.061 162.456 227.212 162.456C228.145 162.456 228.969 162.627 229.684 162.969C230.415 163.296 231.029 163.747 231.527 164.322C232.04 164.882 232.429 165.527 232.693 166.258C232.973 166.973 233.113 167.72 233.113 168.497C233.113 168.668 233.097 168.863 233.066 169.08C233.051 169.282 233.027 169.477 232.996 169.663H222.687V167.797H231.737L230.71 168.637C230.85 167.829 230.773 167.106 230.477 166.468C230.182 165.83 229.746 165.325 229.171 164.952C228.596 164.579 227.943 164.392 227.212 164.392C226.481 164.392 225.812 164.579 225.206 164.952C224.6 165.325 224.125 165.862 223.783 166.561C223.457 167.245 223.325 168.062 223.387 169.01C223.325 169.928 223.465 170.736 223.807 171.436C224.164 172.12 224.662 172.657 225.299 173.045C225.952 173.418 226.66 173.605 227.422 173.605C228.261 173.605 228.969 173.411 229.544 173.022C230.12 172.633 230.586 172.136 230.944 171.529L232.763 172.462C232.514 173.038 232.125 173.566 231.597 174.048C231.084 174.515 230.469 174.888 229.754 175.168C229.054 175.448 228.269 175.588 227.398 175.588ZM235.941 175.308V162.736H238.063V165.185L237.714 164.975C238.025 164.182 238.522 163.568 239.206 163.133C239.906 162.682 240.722 162.456 241.655 162.456C242.557 162.456 243.358 162.658 244.058 163.063C244.773 163.467 245.333 164.027 245.737 164.742C246.157 165.457 246.367 166.266 246.367 167.168V175.308H244.174V167.867C244.174 167.168 244.05 166.577 243.801 166.095C243.552 165.613 243.195 165.24 242.728 164.975C242.277 164.695 241.756 164.555 241.165 164.555C240.575 164.555 240.046 164.695 239.579 164.975C239.129 165.24 238.771 165.621 238.507 166.118C238.242 166.6 238.11 167.183 238.11 167.867V175.308H235.941ZM254.578 175.448C253.35 175.448 252.402 175.098 251.733 174.398C251.08 173.698 250.753 172.711 250.753 171.436V164.812H248.468V162.736H248.934C249.494 162.736 249.937 162.565 250.264 162.223C250.59 161.881 250.753 161.43 250.753 160.87V159.844H252.922V162.736H255.745V164.812H252.922V171.366C252.922 171.786 252.985 172.151 253.109 172.462C253.249 172.773 253.474 173.022 253.785 173.209C254.096 173.38 254.508 173.465 255.022 173.465C255.13 173.465 255.263 173.457 255.418 173.442C255.589 173.426 255.745 173.411 255.885 173.395V175.308C255.682 175.354 255.457 175.385 255.208 175.401C254.959 175.432 254.749 175.448 254.578 175.448ZM263.219 175.588C261.96 175.588 260.864 175.277 259.931 174.655C258.998 174.033 258.337 173.193 257.948 172.136L259.674 171.296C260.032 172.042 260.522 172.633 261.144 173.069C261.766 173.504 262.458 173.722 263.219 173.722C263.904 173.722 264.471 173.558 264.922 173.232C265.373 172.905 265.599 172.478 265.599 171.949C265.599 171.576 265.49 171.28 265.272 171.063C265.07 170.83 264.821 170.651 264.526 170.526C264.23 170.386 263.958 170.285 263.709 170.223L261.82 169.687C260.685 169.36 259.853 168.894 259.324 168.287C258.811 167.681 258.555 166.973 258.555 166.165C258.555 165.418 258.741 164.773 259.115 164.229C259.503 163.669 260.024 163.234 260.677 162.923C261.346 162.612 262.092 162.456 262.916 162.456C264.02 162.456 265.008 162.736 265.878 163.296C266.765 163.856 267.394 164.641 267.768 165.652L265.995 166.468C265.715 165.815 265.295 165.302 264.736 164.929C264.176 164.54 263.546 164.346 262.846 164.346C262.209 164.346 261.703 164.509 261.33 164.835C260.957 165.146 260.771 165.543 260.771 166.025C260.771 166.382 260.864 166.678 261.05 166.911C261.237 167.129 261.462 167.3 261.727 167.424C261.991 167.533 262.248 167.626 262.496 167.704L264.549 168.311C265.575 168.606 266.368 169.065 266.928 169.687C267.503 170.309 267.791 171.055 267.791 171.926C267.791 172.625 267.597 173.255 267.208 173.815C266.819 174.375 266.283 174.81 265.599 175.121C264.914 175.432 264.121 175.588 263.219 175.588Z" fill="#313041"/>
<path fill-rule="evenodd" clip-rule="evenodd" d="M46.3224 54.868H85.6287V44.2047C85.6287 42.5291 84.4235 41.4749 82.8031 41.857L46.025 50.5187C44.2684 50.9321 42.7852 52.8554 42.7852 54.7197V56.2122C43.7288 55.3771 44.9662 54.868 46.3224 54.868ZM72.6407 84.8083C72.1915 87.6154 71.4144 90.138 70.3243 91.8348C74.123 90.8709 77.2726 88.2589 78.9621 84.8083H72.6407ZM63.3171 84.8083H70.8279C70.0343 89.5138 68.3651 92.2409 67.0725 92.2409C65.7799 92.2409 64.1107 89.5138 63.3171 84.8083ZM63.8207 91.8348C62.7306 90.138 61.9536 87.6154 61.5043 84.8083H55.1811C56.8724 88.2599 60.022 90.8709 63.8207 91.8348ZM72.8783 75.0123C73.1572 77.639 73.1572 80.3771 72.8783 83.0047H79.6867C80.5116 80.4065 80.5116 77.6114 79.6867 75.0123H72.8783ZM63.0703 75.0123C62.7905 77.5828 62.7905 80.4332 63.0703 83.0047H71.0756C71.3546 80.4443 71.3536 77.5727 71.0756 75.0123H63.0703ZM61.0568 79.0089C61.0568 77.6758 61.1268 76.3261 61.2658 75.0132H54.4593C53.6334 77.6095 53.6334 80.4093 54.4593 83.0056H61.2667C61.1268 81.6909 61.0568 80.3421 61.0568 79.0089ZM70.3243 66.1821C71.4144 67.8789 72.1915 70.4016 72.6407 73.2087H78.963C77.2726 69.758 74.123 67.1461 70.3243 66.1821ZM67.0725 65.777C68.3651 65.777 70.0334 68.505 70.8279 73.2096H63.3171C64.1107 68.5041 65.7799 65.777 67.0725 65.777ZM61.5043 73.2087C61.9536 70.4016 62.7306 67.8789 63.8207 66.1821C60.022 67.1461 56.8724 69.7571 55.182 73.2087H61.5043ZM87.8236 56.6716C89.7726 56.6716 91.3599 58.2579 91.3599 60.2088V117.607C91.3599 119.557 89.7726 121.144 87.8236 121.144H46.3224C44.3724 121.144 42.7852 119.557 42.7852 117.607V60.2088C42.7852 58.2579 44.3724 56.6716 46.3224 56.6716H87.8236ZM52.0361 79.0089C52.0361 70.7183 58.7828 63.9734 67.0725 63.9734C75.3623 63.9734 82.108 70.7183 82.108 79.0089C82.108 87.2996 75.3623 94.0454 67.0725 94.0454C58.7828 94.0454 52.0361 87.2996 52.0361 79.0089ZM54.6407 106.948C53.4539 106.948 53.4539 108.751 54.6407 108.751H79.5034C80.6902 108.751 80.6902 106.948 79.5034 106.948H54.6407ZM79.5044 112.238H54.6407C53.4539 112.238 53.453 114.041 54.6407 114.041H79.5034C80.6911 114.041 80.6911 112.238 79.5044 112.238ZM59.1501 101.657C59.1501 102.155 59.5543 102.559 60.0515 102.559H74.0926C75.2794 102.559 75.2794 100.755 74.0926 100.755H60.0524C59.5543 100.754 59.1501 101.158 59.1501 101.657Z" fill="#313041"/>
<path d="M36.6187 198.291C36.6187 198.763 36.7169 199.18 36.9133 199.544C37.1195 199.897 37.3945 200.177 37.7382 200.383C38.0918 200.589 38.4895 200.693 38.9314 200.693C39.3733 200.693 39.7662 200.589 40.1099 200.383C40.4634 200.177 40.7384 199.897 40.9348 199.544C41.141 199.18 41.2442 198.763 41.2442 198.291C41.2442 197.82 41.141 197.403 40.9348 197.039C40.7384 196.666 40.4634 196.376 40.1099 196.17C39.7662 195.964 39.3733 195.861 38.9314 195.861C38.4895 195.861 38.0918 195.964 37.7382 196.17C37.3945 196.376 37.1195 196.666 36.9133 197.039C36.7169 197.403 36.6187 197.82 36.6187 198.291ZM39.5501 191.368H41.1263L37.9003 195.625L37.8119 195.552C38.0083 195.306 38.2342 195.144 38.4895 195.065C38.7547 194.987 39.0542 194.948 39.3881 194.948C39.8104 194.948 40.2032 195.031 40.5665 195.198C40.9397 195.365 41.2638 195.601 41.5388 195.905C41.8236 196.21 42.0445 196.568 42.2017 196.98C42.3588 197.383 42.4374 197.82 42.4374 198.291C42.4374 198.999 42.2802 199.617 41.966 200.148C41.6615 200.678 41.2442 201.09 40.7138 201.385C40.1934 201.68 39.5992 201.827 38.9314 201.827C38.2735 201.827 37.6793 201.68 37.149 201.385C36.6187 201.09 36.1964 200.678 35.8822 200.148C35.5777 199.617 35.4255 198.999 35.4255 198.291C35.4255 197.869 35.4844 197.476 35.6023 197.113C35.7201 196.75 35.8772 196.431 36.0737 196.156L39.5501 191.368ZM47.6664 198.733V197.629H50.6126V198.733H47.6664ZM55.5439 192.546V191.368H62.762L57.8272 201.68H56.5162L60.8912 192.546H55.5439ZM77.6135 198.954L80.2945 191.368H81.6939L77.643 202.195L74.5495 194.182L71.456 202.195L67.4051 191.368H68.8045L71.5444 198.954L74.5495 190.852L77.6135 198.954ZM83.5439 196.524C83.5439 197.3 83.7109 197.992 84.0448 198.601C84.3885 199.21 84.8549 199.691 85.4442 200.044C86.0334 200.398 86.7012 200.575 87.4476 200.575C88.2037 200.575 88.8715 200.398 89.4509 200.044C90.0402 199.691 90.5017 199.21 90.8356 198.601C91.1794 197.992 91.3512 197.3 91.3512 196.524C91.3512 195.748 91.1794 195.056 90.8356 194.447C90.5017 193.838 90.0402 193.357 89.4509 193.003C88.8715 192.65 88.2037 192.473 87.4476 192.473C86.7012 192.473 86.0334 192.65 85.4442 193.003C84.8549 193.357 84.3885 193.838 84.0448 194.447C83.7109 195.056 83.5439 195.748 83.5439 196.524ZM82.2181 196.524C82.2181 195.768 82.3458 195.07 82.6011 194.432C82.8663 193.784 83.2346 193.224 83.7059 192.753C84.1773 192.272 84.7322 191.898 85.3705 191.633C86.0089 191.358 86.7012 191.221 87.4476 191.221C88.2037 191.221 88.8961 191.358 89.5246 191.633C90.1629 191.898 90.7178 192.272 91.1892 192.753C91.6606 193.224 92.0239 193.784 92.2793 194.432C92.5444 195.07 92.677 195.768 92.677 196.524C92.677 197.27 92.5444 197.967 92.2793 198.616C92.0239 199.264 91.6606 199.828 91.1892 200.31C90.7178 200.781 90.1629 201.154 89.5246 201.429C88.8961 201.694 88.2037 201.827 87.4476 201.827C86.7012 201.827 86.0089 201.694 85.3705 201.429C84.7322 201.154 84.1773 200.781 83.7059 200.31C83.2346 199.828 82.8663 199.264 82.6011 198.616C82.3458 197.967 82.2181 197.27 82.2181 196.524ZM96.2866 196.597H97.686L101.369 201.68H99.822L96.2866 196.597ZM94.4453 191.368H95.6974V201.68H94.4453V191.368ZM95.1376 192.473V191.368H97.2441C97.9119 191.368 98.506 191.496 99.0265 191.751C99.5568 191.997 99.9742 192.35 100.279 192.812C100.593 193.273 100.75 193.823 100.75 194.461C100.75 195.09 100.593 195.64 100.279 196.111C99.9742 196.573 99.5568 196.931 99.0265 197.187C98.506 197.432 97.9119 197.555 97.2441 197.555H95.1376V196.45H97.2441C97.686 196.45 98.0739 196.372 98.4078 196.214C98.7515 196.057 99.0167 195.831 99.2033 195.537C99.3997 195.242 99.4979 194.884 99.4979 194.461C99.4979 194.039 99.3997 193.681 99.2033 193.386C99.0167 193.092 98.7515 192.866 98.4078 192.709C98.0739 192.551 97.686 192.473 97.2441 192.473H95.1376ZM102.688 191.368H103.94V201.68H102.688V191.368ZM107.991 191.368H109.538L105.075 196.2L109.759 201.68H108.212L103.557 196.229L107.991 191.368ZM111.017 191.368H112.269V201.68H111.017V191.368ZM122.435 191.368H123.688V202.195L115.88 194.005V201.68H114.628V190.852L122.435 199.043V191.368ZM130.838 197.629V196.45H135.625C135.625 197.167 135.517 197.85 135.301 198.498C135.085 199.136 134.766 199.706 134.344 200.206C133.921 200.707 133.401 201.105 132.782 201.4C132.173 201.684 131.476 201.827 130.69 201.827C129.944 201.827 129.252 201.699 128.613 201.444C127.975 201.179 127.42 200.81 126.949 200.339C126.477 199.858 126.109 199.293 125.844 198.645C125.589 197.997 125.461 197.29 125.461 196.524C125.461 195.758 125.589 195.051 125.844 194.403C126.109 193.754 126.477 193.195 126.949 192.723C127.42 192.242 127.975 191.874 128.613 191.618C129.252 191.353 129.944 191.221 130.69 191.221C131.329 191.221 131.913 191.304 132.443 191.471C132.984 191.638 133.465 191.884 133.887 192.208C134.319 192.532 134.682 192.934 134.977 193.416L134.093 194.226C133.769 193.676 133.317 193.249 132.738 192.944C132.159 192.63 131.476 192.473 130.69 192.473C129.964 192.473 129.306 192.645 128.717 192.988C128.127 193.332 127.656 193.808 127.302 194.417C126.959 195.016 126.787 195.719 126.787 196.524C126.787 197.319 126.959 198.021 127.302 198.63C127.656 199.239 128.127 199.715 128.717 200.059C129.306 200.403 129.964 200.575 130.69 200.575C131.201 200.575 131.658 200.501 132.06 200.354C132.473 200.197 132.826 199.981 133.121 199.706C133.416 199.431 133.656 199.116 133.843 198.763C134.039 198.409 134.182 198.031 134.27 197.629H130.838ZM141.889 191.368H143.141V201.68H141.889V191.368ZM144.982 201.68H142.581V200.427H144.982C145.562 200.427 146.092 200.339 146.573 200.162C147.054 199.976 147.467 199.715 147.81 199.382C148.154 199.038 148.419 198.625 148.606 198.144C148.793 197.663 148.886 197.123 148.886 196.524C148.886 195.925 148.793 195.385 148.606 194.903C148.419 194.422 148.154 194.015 147.81 193.681C147.467 193.337 147.054 193.077 146.573 192.9C146.092 192.713 145.562 192.62 144.982 192.62H142.581V191.368H144.982C145.984 191.368 146.873 191.584 147.648 192.016C148.424 192.448 149.033 193.052 149.475 193.828C149.917 194.594 150.138 195.493 150.138 196.524C150.138 197.555 149.917 198.458 149.475 199.234C149.033 200 148.424 200.599 147.648 201.031C146.873 201.464 145.984 201.68 144.982 201.68ZM152.442 198.586L152.884 197.408H157.45L157.892 198.586H152.442ZM155.138 193.695L153.4 197.791L153.282 198.056L151.75 201.68H150.35L155.138 190.852L159.925 201.68H158.526L157.023 198.144L156.905 197.85L155.138 193.695ZM165.756 191.368H167.156L163.723 197.231V201.68H162.471V197.246L159.039 191.368H160.439L163.09 196.141L165.756 191.368ZM168.784 198.557C169.02 198.969 169.265 199.332 169.521 199.647C169.786 199.961 170.081 200.206 170.405 200.383C170.729 200.56 171.097 200.648 171.509 200.648C172.059 200.648 172.501 200.496 172.835 200.192C173.169 199.887 173.336 199.499 173.336 199.028C173.336 198.566 173.228 198.198 173.012 197.923C172.796 197.648 172.511 197.427 172.158 197.26C171.814 197.084 171.446 196.926 171.053 196.789C170.797 196.701 170.513 196.588 170.198 196.45C169.884 196.303 169.585 196.121 169.3 195.905C169.015 195.679 168.779 195.404 168.593 195.08C168.416 194.756 168.328 194.358 168.328 193.887C168.328 193.376 168.455 192.92 168.711 192.517C168.966 192.114 169.319 191.8 169.771 191.574C170.223 191.339 170.738 191.221 171.318 191.221C171.878 191.221 172.364 191.329 172.776 191.545C173.199 191.751 173.557 192.021 173.852 192.355C174.146 192.679 174.377 193.023 174.544 193.386L173.469 194.005C173.341 193.75 173.179 193.499 172.982 193.254C172.786 193.008 172.545 192.807 172.261 192.65C171.986 192.492 171.647 192.414 171.244 192.414C170.684 192.414 170.277 192.551 170.022 192.826C169.766 193.092 169.639 193.391 169.639 193.725C169.639 194.01 169.712 194.275 169.86 194.52C170.007 194.756 170.252 194.982 170.596 195.198C170.95 195.404 171.426 195.61 172.025 195.817C172.3 195.915 172.59 196.043 172.894 196.2C173.199 196.357 173.478 196.558 173.734 196.804C173.999 197.039 174.215 197.329 174.382 197.673C174.549 198.007 174.632 198.409 174.632 198.881C174.632 199.332 174.544 199.74 174.367 200.103C174.2 200.467 173.965 200.776 173.66 201.031C173.365 201.287 173.027 201.483 172.644 201.621C172.27 201.758 171.878 201.827 171.465 201.827C170.905 201.827 170.385 201.709 169.904 201.473C169.432 201.228 169.015 200.909 168.652 200.516C168.298 200.113 168.008 199.686 167.783 199.234L168.784 198.557Z" fill="#666666"/>
<path d="M41.8451 241.975C41.7823 241.445 41.5278 241.033 41.0814 240.74C40.635 240.447 40.0875 240.301 39.4388 240.301C38.9645 240.301 38.5495 240.377 38.1938 240.531C37.8416 240.684 37.5661 240.895 37.3673 241.164C37.172 241.432 37.0743 241.738 37.0743 242.079C37.0743 242.365 37.1423 242.611 37.2784 242.817C37.4179 243.019 37.5957 243.188 37.8119 243.324C38.0281 243.457 38.2548 243.567 38.492 243.654C38.7291 243.738 38.9471 243.806 39.1459 243.858L40.2339 244.151C40.5129 244.224 40.8233 244.325 41.1651 244.454C41.5103 244.583 41.8399 244.759 42.1537 244.983C42.4711 245.202 42.7326 245.485 42.9384 245.83C43.1442 246.175 43.247 246.599 43.247 247.101C43.247 247.68 43.0953 248.203 42.7919 248.67C42.492 249.138 42.0526 249.509 41.4737 249.785C40.8983 250.06 40.1991 250.198 39.376 250.198C38.6088 250.198 37.9445 250.074 37.383 249.827C36.825 249.579 36.3856 249.234 36.0647 248.791C35.7474 248.348 35.5678 247.834 35.5259 247.248H36.8651C36.9 247.652 37.036 247.987 37.2731 248.252C37.5138 248.514 37.8172 248.709 38.1833 248.838C38.553 248.963 38.9506 249.026 39.376 249.026C39.8712 249.026 40.3159 248.946 40.71 248.786C41.104 248.622 41.4162 248.395 41.6463 248.106C41.8765 247.813 41.9916 247.471 41.9916 247.08C41.9916 246.725 41.8922 246.435 41.6934 246.212C41.4946 245.989 41.2331 245.807 40.9087 245.668C40.5844 245.528 40.2339 245.406 39.8573 245.302L38.5391 244.925C37.7021 244.684 37.0395 244.341 36.5512 243.894C36.063 243.448 35.8189 242.864 35.8189 242.142C35.8189 241.542 35.981 241.019 36.3054 240.573C36.6332 240.123 37.0726 239.774 37.6236 239.527C38.1781 239.275 38.7971 239.15 39.4807 239.15C40.1712 239.15 40.7849 239.274 41.322 239.521C41.8591 239.765 42.2845 240.1 42.5984 240.526C42.9157 240.951 43.0831 241.434 43.1006 241.975H41.8451ZM48.707 241.975V243.021H44.543V241.975H48.707ZM45.7567 240.05H46.9912V247.708C46.9912 248.057 47.0418 248.318 47.1429 248.493C47.2475 248.664 47.38 248.779 47.5405 248.838C47.7044 248.894 47.877 248.922 48.0583 248.922C48.1944 248.922 48.3059 248.915 48.3931 248.901C48.4803 248.883 48.5501 248.869 48.6024 248.859L48.8535 249.968C48.7698 249.999 48.6529 250.031 48.503 250.062C48.353 250.097 48.163 250.114 47.9328 250.114C47.5841 250.114 47.2423 250.039 46.9075 249.889C46.5762 249.739 46.3007 249.511 46.081 249.204C45.8648 248.897 45.7567 248.51 45.7567 248.043V240.05ZM52.9285 250.198C52.4193 250.198 51.9573 250.102 51.5423 249.91C51.1273 249.715 50.7977 249.434 50.5536 249.068C50.3095 248.698 50.1874 248.252 50.1874 247.729C50.1874 247.269 50.2781 246.895 50.4594 246.609C50.6408 246.32 50.8831 246.093 51.1865 245.929C51.4899 245.765 51.8247 245.643 52.1909 245.563C52.5606 245.48 52.932 245.413 53.3051 245.364C53.7934 245.302 54.1892 245.255 54.4926 245.223C54.7995 245.188 55.0227 245.131 55.1622 245.051C55.3052 244.97 55.3766 244.831 55.3766 244.632V244.59C55.3766 244.074 55.2354 243.673 54.9529 243.387C54.6739 243.101 54.2502 242.958 53.6818 242.958C53.0924 242.958 52.6303 243.087 52.2955 243.345C51.9607 243.603 51.7253 243.879 51.5893 244.172L50.4176 243.753C50.6268 243.265 50.9058 242.885 51.2545 242.613C51.6068 242.337 51.9904 242.146 52.4054 242.037C52.8239 241.926 53.2354 241.87 53.6399 241.87C53.898 241.87 54.1944 241.901 54.5292 241.964C54.8675 242.024 55.1936 242.147 55.5074 242.336C55.8248 242.524 56.0881 242.808 56.2973 243.188C56.5066 243.568 56.6112 244.078 56.6112 244.716V250.01H55.3766V248.922H55.3139C55.2302 249.096 55.0907 249.283 54.8954 249.481C54.7001 249.68 54.4403 249.849 54.116 249.989C53.7916 250.128 53.3958 250.198 52.9285 250.198ZM53.1168 249.089C53.605 249.089 54.0166 248.993 54.3514 248.801C54.6896 248.609 54.9442 248.362 55.1151 248.058C55.2895 247.755 55.3766 247.436 55.3766 247.101V245.971C55.3243 246.034 55.2093 246.092 55.0314 246.144C54.857 246.193 54.6548 246.236 54.4246 246.275C54.1979 246.31 53.9765 246.341 53.7602 246.369C53.5475 246.393 53.3749 246.414 53.2424 246.432C52.9215 246.473 52.6216 246.541 52.3426 246.636C52.0671 246.726 51.8439 246.864 51.673 247.049C51.5056 247.23 51.4219 247.478 51.4219 247.792C51.4219 248.221 51.5806 248.545 51.898 248.765C52.2188 248.981 52.6251 249.089 53.1168 249.089ZM58.8645 250.01V241.975H60.0572V243.188H60.1409C60.2873 242.791 60.5524 242.468 60.936 242.221C61.3196 241.973 61.752 241.849 62.2333 241.849C62.324 241.849 62.4373 241.851 62.5733 241.854C62.7093 241.858 62.8122 241.863 62.882 241.87V243.126C62.8401 243.115 62.7442 243.099 62.5943 243.078C62.4478 243.054 62.2926 243.042 62.1287 243.042C61.7381 243.042 61.3894 243.124 61.0825 243.288C60.7791 243.448 60.5384 243.671 60.3606 243.957C60.1862 244.24 60.099 244.562 60.099 244.925V250.01H58.8645ZM68.3432 241.975V243.021H64.1793V241.975H68.3432ZM65.3929 240.05H66.6274V247.708C66.6274 248.057 66.678 248.318 66.7791 248.493C66.8838 248.664 67.0163 248.779 67.1767 248.838C67.3406 248.894 67.5132 248.922 67.6946 248.922C67.8306 248.922 67.9422 248.915 68.0294 248.901C68.1166 248.883 68.1863 248.869 68.2386 248.859L68.4897 249.968C68.406 249.999 68.2892 250.031 68.1392 250.062C67.9893 250.097 67.7992 250.114 67.569 250.114C67.2203 250.114 66.8785 250.039 66.5437 249.889C66.2124 249.739 65.9369 249.511 65.7172 249.204C65.501 248.897 65.3929 248.51 65.3929 248.043V240.05ZM77.9214 241.975V243.021H73.59V241.975H77.9214ZM74.8873 250.01V240.866C74.8873 240.405 74.9954 240.022 75.2117 239.715C75.4279 239.408 75.7086 239.178 76.0539 239.024C76.3991 238.871 76.7636 238.794 77.1472 238.794C77.4506 238.794 77.6982 238.819 77.89 238.867C78.0818 238.916 78.2248 238.962 78.3189 239.003L77.9632 240.071C77.9004 240.05 77.8133 240.023 77.7017 239.992C77.5936 239.961 77.4506 239.945 77.2727 239.945C76.8647 239.945 76.57 240.048 76.3887 240.254C76.2108 240.459 76.1219 240.761 76.1219 241.159V250.01H74.8873ZM79.6516 250.01V241.975H80.8442V243.188H80.9279C81.0744 242.791 81.3395 242.468 81.7231 242.221C82.1067 241.973 82.5391 241.849 83.0204 241.849C83.1111 241.849 83.2244 241.851 83.3604 241.854C83.4964 241.858 83.5993 241.863 83.669 241.87V243.126C83.6272 243.115 83.5313 243.099 83.3813 243.078C83.2349 243.054 83.0797 243.042 82.9158 243.042C82.5252 243.042 82.1764 243.124 81.8695 243.288C81.5661 243.448 81.3255 243.671 81.1476 243.957C80.9733 244.24 80.8861 244.562 80.8861 244.925V250.01H79.6516ZM88.1521 250.177C87.4267 250.177 86.7903 250.004 86.2427 249.659C85.6987 249.314 85.2732 248.831 84.9663 248.21C84.6629 247.589 84.5112 246.864 84.5112 246.034C84.5112 245.197 84.6629 244.466 84.9663 243.842C85.2732 243.218 85.6987 242.733 86.2427 242.388C86.7903 242.043 87.4267 241.87 88.1521 241.87C88.8775 241.87 89.5122 242.043 90.0562 242.388C90.6037 242.733 91.0292 243.218 91.3326 243.842C91.6395 244.466 91.7929 245.197 91.7929 246.034C91.7929 246.864 91.6395 247.589 91.3326 248.21C91.0292 248.831 90.6037 249.314 90.0562 249.659C89.5122 250.004 88.8775 250.177 88.1521 250.177ZM88.1521 249.068C88.7031 249.068 89.1565 248.927 89.5122 248.644C89.8679 248.362 90.1312 247.99 90.3021 247.53C90.473 247.07 90.5584 246.571 90.5584 246.034C90.5584 245.497 90.473 244.997 90.3021 244.533C90.1312 244.069 89.8679 243.694 89.5122 243.408C89.1565 243.122 88.7031 242.979 88.1521 242.979C87.6011 242.979 87.1477 243.122 86.792 243.408C86.4363 243.694 86.173 244.069 86.0021 244.533C85.8312 244.997 85.7458 245.497 85.7458 246.034C85.7458 246.571 85.8312 247.07 86.0021 247.53C86.173 247.99 86.4363 248.362 86.792 248.644C87.1477 248.927 87.6011 249.068 88.1521 249.068ZM93.6774 250.01V241.975H94.8701V243.23H94.9747C95.1421 242.801 95.4124 242.468 95.7856 242.231C96.1587 241.99 96.6069 241.87 97.13 241.87C97.66 241.87 98.1012 241.99 98.4534 242.231C98.8091 242.468 99.0864 242.801 99.2852 243.23H99.3689C99.5746 242.815 99.8833 242.486 100.295 242.241C100.706 241.994 101.2 241.87 101.775 241.87C102.494 241.87 103.081 242.095 103.538 242.545C103.995 242.991 104.223 243.687 104.223 244.632V250.01H102.989V244.632C102.989 244.039 102.827 243.615 102.502 243.361C102.178 243.106 101.796 242.979 101.357 242.979C100.792 242.979 100.354 243.15 100.044 243.492C99.7333 243.83 99.5781 244.259 99.5781 244.779V250.01H98.3227V244.507C98.3227 244.05 98.1744 243.682 97.878 243.403C97.5816 243.12 97.1997 242.979 96.7324 242.979C96.4116 242.979 96.1116 243.064 95.8326 243.235C95.5571 243.406 95.334 243.643 95.1631 243.947C94.9957 244.247 94.912 244.594 94.912 244.988V250.01H93.6774Z" fill="#666666"/>
<path d="M36.1031 275.01V260.377H38.7743V275.01H36.1031ZM41.5888 275.01V260.377H46.3616C47.9067 260.377 49.2488 260.691 50.388 261.32C51.5403 261.935 52.4306 262.793 53.0592 263.893C53.6877 264.98 54.0019 266.243 54.0019 267.684C54.0019 269.111 53.6877 270.381 53.0592 271.494C52.4306 272.594 51.5403 273.458 50.388 274.087C49.2488 274.702 47.9067 275.01 46.3616 275.01H41.5888ZM44.26 272.653H46.4205C47.4156 272.653 48.2733 272.45 48.9935 272.044C49.7267 271.625 50.2963 271.049 50.7022 270.315C51.1081 269.569 51.3111 268.692 51.3111 267.684C51.3111 266.662 51.1081 265.785 50.7022 265.052C50.2963 264.318 49.7267 263.749 48.9935 263.343C48.2733 262.937 47.4156 262.734 46.4205 262.734H44.26V272.653ZM56.1278 275.01V260.377H61.5683C62.5635 260.377 63.4408 260.56 64.2002 260.927C64.9728 261.281 65.5751 261.804 66.0072 262.498C66.4393 263.179 66.6554 264.011 66.6554 264.993C66.6554 266.001 66.4131 266.859 65.9286 267.566C65.4572 268.273 64.8156 268.797 64.0038 269.137L67.3624 275.01H64.3377L60.7434 268.587L62.4718 269.608H58.7989V275.01H56.1278ZM58.7989 267.251H61.6076C62.0921 267.251 62.5111 267.16 62.8646 266.976C63.2182 266.78 63.4931 266.512 63.6896 266.171C63.886 265.831 63.9842 265.438 63.9842 264.993C63.9842 264.534 63.886 264.142 63.6896 263.814C63.4931 263.474 63.2182 263.212 62.8646 263.029C62.5111 262.832 62.0921 262.734 61.6076 262.734H58.7989V267.251ZM76.9446 275.245C76.1459 275.245 75.3865 275.101 74.6663 274.813C73.9592 274.512 73.3503 274.093 72.8397 273.556C72.3421 273.006 72.0016 272.358 71.8183 271.612L74.1556 270.787C74.3913 271.455 74.7514 271.965 75.2359 272.319C75.7203 272.659 76.2899 272.829 76.9446 272.829C77.4684 272.829 77.9201 272.731 78.2999 272.535C78.6927 272.338 79.0004 272.057 79.223 271.69C79.4456 271.311 79.5569 270.865 79.5569 270.355C79.5569 269.844 79.4456 269.412 79.223 269.058C79.0135 268.692 78.7123 268.41 78.3195 268.214C77.9267 268.017 77.4619 267.919 76.925 267.919C76.6762 267.919 76.4143 267.945 76.1394 267.998C75.8775 268.05 75.6418 268.129 75.4323 268.233L74.8234 266.957L78.6141 262.636H72.6433V260.377H81.6192V262.479L77.8088 266.937L77.8481 265.935C78.7254 265.949 79.4914 266.138 80.1461 266.505C80.8008 266.872 81.3115 267.376 81.6781 268.017C82.0448 268.659 82.2281 269.412 82.2281 270.276C82.2281 271.219 81.9989 272.07 81.5406 272.829C81.0824 273.576 80.4538 274.165 79.6551 274.597C78.8564 275.029 77.9529 275.245 76.9446 275.245ZM89.0303 275.245C88.2578 275.245 87.518 275.101 86.8109 274.813C86.1169 274.525 85.5146 274.119 85.0039 273.595C84.5063 273.059 84.1659 272.424 83.9826 271.69L86.3002 270.865C86.5228 271.533 86.8829 272.031 87.3805 272.358C87.878 272.672 88.428 272.829 89.0303 272.829C89.5279 272.829 89.9665 272.725 90.3463 272.515C90.7391 272.293 91.0402 271.991 91.2498 271.612C91.4593 271.219 91.564 270.767 91.564 270.257C91.564 269.746 91.4527 269.301 91.2301 268.921C91.0206 268.541 90.726 268.247 90.3463 268.037C89.9665 267.814 89.5279 267.703 89.0303 267.703C88.5196 267.703 88.0548 267.814 87.6358 268.037C87.2299 268.26 86.9353 268.58 86.752 268.999L84.5718 268.508L85.7306 260.377H93.7049V262.636H86.7912L87.7929 261.477L86.968 267.605L86.202 266.976C86.5686 266.44 87.0138 266.047 87.5376 265.798C88.0745 265.549 88.7226 265.425 89.4821 265.425C90.451 265.425 91.289 265.634 91.9961 266.053C92.7163 266.472 93.2728 267.042 93.6656 267.762C94.0584 268.482 94.2548 269.314 94.2548 270.257C94.2548 271.199 94.0257 272.05 93.5674 272.81C93.1091 273.569 92.4871 274.165 91.7015 274.597C90.9159 275.029 90.0255 275.245 89.0303 275.245ZM102.234 275.245C101.068 275.245 100.047 274.931 99.1697 274.303C98.2924 273.674 97.605 272.79 97.1074 271.651C96.6229 270.512 96.3807 269.189 96.3807 267.684C96.3807 266.165 96.6229 264.842 97.1074 263.716C97.5919 262.59 98.2728 261.713 99.1501 261.084C100.027 260.456 101.049 260.141 102.214 260.141C103.406 260.141 104.433 260.456 105.298 261.084C106.175 261.713 106.862 262.597 107.36 263.736C107.858 264.862 108.106 266.178 108.106 267.684C108.106 269.189 107.858 270.512 107.36 271.651C106.876 272.777 106.195 273.661 105.317 274.303C104.44 274.931 103.412 275.245 102.234 275.245ZM102.253 272.81C102.921 272.81 103.491 272.607 103.962 272.201C104.433 271.782 104.794 271.193 105.042 270.433C105.304 269.661 105.435 268.744 105.435 267.684C105.435 266.623 105.304 265.713 105.042 264.953C104.794 264.181 104.427 263.592 103.942 263.186C103.471 262.78 102.895 262.577 102.214 262.577C101.559 262.577 100.996 262.78 100.525 263.186C100.054 263.592 99.6869 264.181 99.425 264.953C99.1762 265.713 99.0518 266.623 99.0518 267.684C99.0518 268.731 99.1762 269.641 99.425 270.414C99.6869 271.173 100.054 271.762 100.525 272.181C101.009 272.6 101.586 272.81 102.253 272.81ZM111.21 278.074V276.797C111.642 276.692 111.989 276.489 112.251 276.188C112.526 275.9 112.696 275.507 112.761 275.01H111.603V272.26H114.195V273.949C114.195 275.101 113.94 276.024 113.429 276.718C112.932 277.412 112.192 277.864 111.21 278.074ZM123.16 275.245C121.994 275.245 120.973 274.931 120.096 274.303C119.219 273.674 118.531 272.79 118.034 271.651C117.549 270.512 117.307 269.189 117.307 267.684C117.307 266.165 117.549 264.842 118.034 263.716C118.518 262.59 119.199 261.713 120.076 261.084C120.953 260.456 121.975 260.141 123.14 260.141C124.332 260.141 125.36 260.456 126.224 261.084C127.101 261.713 127.789 262.597 128.286 263.736C128.784 264.862 129.032 266.178 129.032 267.684C129.032 269.189 128.784 270.512 128.286 271.651C127.802 272.777 127.121 273.661 126.243 274.303C125.366 274.931 124.338 275.245 123.16 275.245ZM123.179 272.81C123.847 272.81 124.417 272.607 124.888 272.201C125.36 271.782 125.72 271.193 125.968 270.433C126.23 269.661 126.361 268.744 126.361 267.684C126.361 266.623 126.23 265.713 125.968 264.953C125.72 264.181 125.353 263.592 124.869 263.186C124.397 262.78 123.821 262.577 123.14 262.577C122.485 262.577 121.922 262.78 121.451 263.186C120.98 263.592 120.613 264.181 120.351 264.953C120.102 265.713 119.978 266.623 119.978 267.684C119.978 268.731 120.102 269.641 120.351 270.414C120.613 271.173 120.98 271.762 121.451 272.181C121.936 272.6 122.512 272.81 123.179 272.81ZM137.066 275.245C135.9 275.245 134.879 274.931 134.002 274.303C133.125 273.674 132.437 272.79 131.94 271.651C131.455 270.512 131.213 269.189 131.213 267.684C131.213 266.165 131.455 264.842 131.94 263.716C132.424 262.59 133.105 261.713 133.982 261.084C134.859 260.456 135.881 260.141 137.046 260.141C138.238 260.141 139.266 260.456 140.13 261.084C141.007 261.713 141.695 262.597 142.192 263.736C142.69 264.862 142.938 266.178 142.938 267.684C142.938 269.189 142.69 270.512 142.192 271.651C141.708 272.777 141.027 273.661 140.149 274.303C139.272 274.931 138.244 275.245 137.066 275.245ZM137.085 272.81C137.753 272.81 138.323 272.607 138.794 272.201C139.266 271.782 139.626 271.193 139.874 270.433C140.136 269.661 140.267 268.744 140.267 267.684C140.267 266.623 140.136 265.713 139.874 264.953C139.626 264.181 139.259 263.592 138.775 263.186C138.303 262.78 137.727 262.577 137.046 262.577C136.391 262.577 135.828 262.78 135.357 263.186C134.886 263.592 134.519 264.181 134.257 264.953C134.008 265.713 133.884 266.623 133.884 267.684C133.884 268.731 134.008 269.641 134.257 270.414C134.519 271.173 134.886 271.762 135.357 272.181C135.842 272.6 136.418 272.81 137.085 272.81ZM150.972 275.245C149.806 275.245 148.785 274.931 147.908 274.303C147.031 273.674 146.343 272.79 145.846 271.651C145.361 270.512 145.119 269.189 145.119 267.684C145.119 266.165 145.361 264.842 145.846 263.716C146.33 262.59 147.011 261.713 147.888 261.084C148.765 260.456 149.787 260.141 150.952 260.141C152.144 260.141 153.172 260.456 154.036 261.084C154.913 261.713 155.601 262.597 156.098 263.736C156.596 264.862 156.844 266.178 156.844 267.684C156.844 269.189 156.596 270.512 156.098 271.651C155.614 272.777 154.933 273.661 154.055 274.303C153.178 274.931 152.15 275.245 150.972 275.245ZM150.991 272.81C151.659 272.81 152.229 272.607 152.7 272.201C153.172 271.782 153.532 271.193 153.78 270.433C154.042 269.661 154.173 268.744 154.173 267.684C154.173 266.623 154.042 265.713 153.78 264.953C153.532 264.181 153.165 263.592 152.681 263.186C152.209 262.78 151.633 262.577 150.952 262.577C150.297 262.577 149.734 262.78 149.263 263.186C148.792 263.592 148.425 264.181 148.163 264.953C147.914 265.713 147.79 266.623 147.79 267.684C147.79 268.731 147.914 269.641 148.163 270.414C148.425 271.173 148.792 271.762 149.263 272.181C149.748 272.6 150.324 272.81 150.991 272.81Z" fill="#313041"/>
<rect x="49.4199" y="315.801" width="249.196" height="47.875" rx="23.9375" fill="#313041"/>
<path d="M254.73 329.918C249.648 329.918 245.523 334.043 245.523 339.125C245.523 344.207 249.648 348.332 254.73 348.332C259.812 348.332 263.937 344.207 263.937 339.125C263.937 334.043 259.812 329.918 254.73 329.918ZM259.564 339.429C259.564 339.806 259.251 340.119 258.873 340.119C258.496 340.119 258.183 339.806 258.183 339.429V336.648L251.075 343.756C250.937 343.894 250.762 343.958 250.587 343.958C250.412 343.958 250.237 343.894 250.099 343.756C249.832 343.489 249.832 343.047 250.099 342.78L257.207 335.672H254.426C254.049 335.672 253.736 335.359 253.736 334.982C253.736 334.604 254.049 334.291 254.426 334.291H258.873C259.251 334.291 259.564 334.604 259.564 334.982V339.429Z" fill="white"/>
<path d="M87.6559 344.077L85.3874 340.07H84.4152V344.077H82.3528V333.795H86.2123C87.0078 333.795 87.6854 333.937 88.2452 334.222C88.8049 334.497 89.2223 334.875 89.4973 335.356C89.7821 335.828 89.9245 336.358 89.9245 336.947C89.9245 337.625 89.7281 338.239 89.3352 338.789C88.9424 339.329 88.3581 339.702 87.5823 339.908L90.0423 344.077H87.6559ZM84.4152 338.523H86.1387C86.6984 338.523 87.1158 338.391 87.3908 338.126C87.6657 337.851 87.8032 337.473 87.8032 336.991C87.8032 336.52 87.6657 336.157 87.3908 335.901C87.1158 335.636 86.6984 335.504 86.1387 335.504H84.4152V338.523ZM99.3761 339.82C99.3761 340.114 99.3565 340.379 99.3172 340.615H93.3512C93.4003 341.204 93.6065 341.666 93.9699 342C94.3333 342.334 94.7801 342.501 95.3104 342.501C96.0764 342.501 96.6214 342.172 96.9455 341.514H99.1699C98.9342 342.299 98.4824 342.948 97.8146 343.458C97.1468 343.959 96.3268 344.209 95.3546 344.209C94.569 344.209 93.8619 344.038 93.2334 343.694C92.6147 343.34 92.1286 342.844 91.775 342.206C91.4313 341.568 91.2594 340.831 91.2594 339.996C91.2594 339.152 91.4313 338.41 91.775 337.772C92.1187 337.134 92.5999 336.643 93.2186 336.299C93.8373 335.955 94.5493 335.783 95.3546 335.783C96.1304 335.783 96.8228 335.95 97.4316 336.284C98.0503 336.618 98.5266 337.095 98.8605 337.713C99.2042 338.322 99.3761 339.024 99.3761 339.82ZM97.2401 339.23C97.2303 338.7 97.0388 338.278 96.6656 337.964C96.2925 337.64 95.8358 337.478 95.2957 337.478C94.785 337.478 94.3529 337.635 93.9994 337.949C93.6556 338.253 93.4445 338.681 93.3659 339.23H97.2401ZM100.351 339.982C100.351 339.167 100.518 338.445 100.852 337.816C101.196 337.178 101.657 336.682 102.237 336.329C102.816 335.975 103.454 335.798 104.152 335.798C104.731 335.798 105.242 335.911 105.684 336.137C106.135 336.353 106.499 336.633 106.774 336.977V335.916H108.851V347.966H106.774V342.957C106.499 343.311 106.13 343.606 105.669 343.841C105.207 344.077 104.687 344.195 104.107 344.195C103.42 344.195 102.787 344.018 102.207 343.664C101.638 343.301 101.186 342.8 100.852 342.162C100.518 341.524 100.351 340.797 100.351 339.982ZM106.774 339.996C106.774 339.496 106.671 339.064 106.464 338.7C106.258 338.337 105.988 338.062 105.654 337.875C105.33 337.689 104.981 337.595 104.608 337.595C104.245 337.595 103.896 337.689 103.562 337.875C103.238 338.062 102.973 338.337 102.767 338.7C102.561 339.054 102.458 339.481 102.458 339.982C102.458 340.483 102.561 340.92 102.767 341.293C102.973 341.656 103.238 341.931 103.562 342.118C103.896 342.304 104.245 342.398 104.608 342.398C104.981 342.398 105.33 342.304 105.654 342.118C105.988 341.931 106.258 341.656 106.464 341.293C106.671 340.929 106.774 340.497 106.774 339.996ZM118.569 335.916V344.077H116.492V343.046C116.227 343.399 115.878 343.679 115.446 343.885C115.024 344.082 114.562 344.18 114.062 344.18C113.423 344.18 112.859 344.047 112.367 343.782C111.876 343.507 111.489 343.11 111.204 342.589C110.929 342.059 110.791 341.43 110.791 340.704V335.916H112.854V340.409C112.854 341.057 113.016 341.558 113.34 341.911C113.664 342.255 114.106 342.427 114.665 342.427C115.235 342.427 115.682 342.255 116.006 341.911C116.33 341.558 116.492 341.057 116.492 340.409V335.916H118.569ZM128.19 339.82C128.19 340.114 128.171 340.379 128.131 340.615H122.165C122.215 341.204 122.421 341.666 122.784 342C123.147 342.334 123.594 342.501 124.125 342.501C124.891 342.501 125.436 342.172 125.76 341.514H127.984C127.748 342.299 127.297 342.948 126.629 343.458C125.961 343.959 125.141 344.209 124.169 344.209C123.383 344.209 122.676 344.038 122.048 343.694C121.429 343.34 120.943 342.844 120.589 342.206C120.245 341.568 120.074 340.831 120.074 339.996C120.074 339.152 120.245 338.41 120.589 337.772C120.933 337.134 121.414 336.643 122.033 336.299C122.652 335.955 123.364 335.783 124.169 335.783C124.945 335.783 125.637 335.95 126.246 336.284C126.865 336.618 127.341 337.095 127.675 337.713C128.018 338.322 128.19 339.024 128.19 339.82ZM126.054 339.23C126.045 338.7 125.853 338.278 125.48 337.964C125.107 337.64 124.65 337.478 124.11 337.478C123.599 337.478 123.167 337.635 122.814 337.949C122.47 338.253 122.259 338.681 122.18 339.23H126.054ZM132.819 344.209C132.151 344.209 131.552 344.092 131.021 343.856C130.491 343.61 130.069 343.281 129.755 342.869C129.45 342.457 129.283 342 129.254 341.499H131.331C131.37 341.813 131.522 342.074 131.787 342.28C132.062 342.486 132.401 342.589 132.804 342.589C133.197 342.589 133.501 342.511 133.717 342.353C133.943 342.196 134.056 341.995 134.056 341.749C134.056 341.484 133.918 341.288 133.643 341.16C133.378 341.023 132.951 340.875 132.362 340.718C131.753 340.571 131.252 340.419 130.859 340.262C130.476 340.105 130.142 339.864 129.858 339.54C129.583 339.216 129.445 338.779 129.445 338.229C129.445 337.777 129.573 337.365 129.828 336.991C130.093 336.618 130.466 336.324 130.948 336.108C131.439 335.892 132.013 335.783 132.671 335.783C133.643 335.783 134.419 336.029 134.999 336.52C135.578 337.001 135.897 337.654 135.956 338.479H133.982C133.953 338.155 133.815 337.9 133.57 337.713C133.334 337.517 133.015 337.419 132.612 337.419C132.239 337.419 131.949 337.487 131.743 337.625C131.547 337.762 131.449 337.954 131.449 338.199C131.449 338.474 131.586 338.685 131.861 338.833C132.136 338.97 132.563 339.113 133.143 339.26C133.732 339.407 134.218 339.559 134.601 339.717C134.984 339.874 135.313 340.119 135.588 340.453C135.873 340.777 136.02 341.209 136.03 341.749C136.03 342.221 135.897 342.643 135.632 343.016C135.377 343.389 135.004 343.684 134.513 343.9C134.031 344.106 133.467 344.209 132.819 344.209ZM140.124 337.61V341.558C140.124 341.833 140.188 342.034 140.315 342.162C140.453 342.28 140.679 342.339 140.993 342.339H141.95V344.077H140.654C138.916 344.077 138.047 343.232 138.047 341.543V337.61H137.075V335.916H138.047V333.898H140.124V335.916H141.95V337.61H140.124ZM153.249 342.118H149.153L148.476 344.077H146.31L150.008 333.78H152.409L156.106 344.077H153.926L153.249 342.118ZM152.689 340.468L151.201 336.166L149.713 340.468H152.689ZM159.551 337.095C159.816 336.721 160.179 336.412 160.641 336.166C161.112 335.911 161.647 335.783 162.246 335.783C162.944 335.783 163.572 335.955 164.132 336.299C164.702 336.643 165.148 337.134 165.472 337.772C165.806 338.401 165.973 339.132 165.973 339.967C165.973 340.802 165.806 341.543 165.472 342.191C165.148 342.83 164.702 343.326 164.132 343.679C163.572 344.033 162.944 344.209 162.246 344.209C161.647 344.209 161.117 344.087 160.656 343.841C160.204 343.596 159.836 343.286 159.551 342.913V347.966H157.488V335.916H159.551V337.095ZM163.867 339.967C163.867 339.476 163.764 339.054 163.557 338.7C163.361 338.337 163.096 338.062 162.762 337.875C162.438 337.689 162.084 337.595 161.701 337.595C161.328 337.595 160.975 337.694 160.641 337.89C160.317 338.077 160.052 338.352 159.845 338.715C159.649 339.078 159.551 339.505 159.551 339.996C159.551 340.488 159.649 340.915 159.845 341.278C160.052 341.641 160.317 341.921 160.641 342.118C160.975 342.304 161.328 342.398 161.701 342.398C162.084 342.398 162.438 342.299 162.762 342.103C163.096 341.907 163.361 341.627 163.557 341.263C163.764 340.9 163.867 340.468 163.867 339.967ZM169.534 337.095C169.799 336.721 170.163 336.412 170.624 336.166C171.096 335.911 171.631 335.783 172.23 335.783C172.927 335.783 173.556 335.955 174.116 336.299C174.685 336.643 175.132 337.134 175.456 337.772C175.79 338.401 175.957 339.132 175.957 339.967C175.957 340.802 175.79 341.543 175.456 342.191C175.132 342.83 174.685 343.326 174.116 343.679C173.556 344.033 172.927 344.209 172.23 344.209C171.631 344.209 171.101 344.087 170.639 343.841C170.187 343.596 169.819 343.286 169.534 342.913V347.966H167.472V335.916H169.534V337.095ZM173.85 339.967C173.85 339.476 173.747 339.054 173.541 338.7C173.345 338.337 173.079 338.062 172.746 337.875C172.421 337.689 172.068 337.595 171.685 337.595C171.312 337.595 170.958 337.694 170.624 337.89C170.3 338.077 170.035 338.352 169.829 338.715C169.632 339.078 169.534 339.505 169.534 339.996C169.534 340.488 169.632 340.915 169.829 341.278C170.035 341.641 170.3 341.921 170.624 342.118C170.958 342.304 171.312 342.398 171.685 342.398C172.068 342.398 172.421 342.299 172.746 342.103C173.079 341.907 173.345 341.627 173.541 341.263C173.747 340.9 173.85 340.468 173.85 339.967ZM179.518 333.176V344.077H177.456V333.176H179.518ZM182.601 334.944C182.238 334.944 181.933 334.831 181.688 334.605C181.452 334.369 181.334 334.08 181.334 333.736C181.334 333.392 181.452 333.107 181.688 332.882C181.933 332.646 182.238 332.528 182.601 332.528C182.965 332.528 183.264 332.646 183.5 332.882C183.745 333.107 183.868 333.392 183.868 333.736C183.868 334.08 183.745 334.369 183.5 334.605C183.264 334.831 182.965 334.944 182.601 334.944ZM183.618 335.916V344.077H181.555V335.916H183.618ZM185.125 339.996C185.125 339.152 185.297 338.415 185.641 337.787C185.984 337.149 186.461 336.658 187.069 336.314C187.678 335.96 188.376 335.783 189.161 335.783C190.173 335.783 191.007 336.039 191.665 336.549C192.333 337.05 192.78 337.757 193.006 338.671H190.782C190.664 338.317 190.462 338.042 190.178 337.846C189.903 337.64 189.559 337.536 189.146 337.536C188.557 337.536 188.091 337.752 187.747 338.185C187.403 338.607 187.231 339.211 187.231 339.996C187.231 340.772 187.403 341.376 187.747 341.808C188.091 342.231 188.557 342.442 189.146 342.442C189.981 342.442 190.526 342.069 190.782 341.322H193.006C192.78 342.206 192.333 342.908 191.665 343.429C190.998 343.949 190.163 344.209 189.161 344.209C188.376 344.209 187.678 344.038 187.069 343.694C186.461 343.34 185.984 342.849 185.641 342.221C185.297 341.582 185.125 340.841 185.125 339.996ZM193.986 339.967C193.986 339.142 194.148 338.41 194.473 337.772C194.806 337.134 195.253 336.643 195.813 336.299C196.383 335.955 197.016 335.783 197.713 335.783C198.322 335.783 198.852 335.906 199.304 336.152C199.766 336.397 200.134 336.707 200.409 337.08V335.916H202.486V344.077H200.409V342.884C200.144 343.267 199.776 343.586 199.304 343.841C198.843 344.087 198.307 344.209 197.699 344.209C197.011 344.209 196.383 344.033 195.813 343.679C195.253 343.326 194.806 342.83 194.473 342.191C194.148 341.543 193.986 340.802 193.986 339.967ZM200.409 339.996C200.409 339.496 200.311 339.068 200.114 338.715C199.918 338.352 199.653 338.077 199.319 337.89C198.985 337.694 198.627 337.595 198.244 337.595C197.861 337.595 197.507 337.689 197.183 337.875C196.859 338.062 196.594 338.337 196.388 338.7C196.191 339.054 196.093 339.476 196.093 339.967C196.093 340.458 196.191 340.89 196.388 341.263C196.594 341.627 196.859 341.907 197.183 342.103C197.517 342.299 197.87 342.398 198.244 342.398C198.627 342.398 198.985 342.304 199.319 342.118C199.653 341.921 199.918 341.646 200.114 341.293C200.311 340.929 200.409 340.497 200.409 339.996ZM206.901 337.61V341.558C206.901 341.833 206.965 342.034 207.093 342.162C207.23 342.28 207.456 342.339 207.771 342.339H208.728V344.077H207.432C205.693 344.077 204.824 343.232 204.824 341.543V337.61H203.852V335.916H204.824V333.898H206.901V335.916H208.728V337.61H206.901ZM211.257 334.944C210.894 334.944 210.589 334.831 210.344 334.605C210.108 334.369 209.99 334.08 209.99 333.736C209.99 333.392 210.108 333.107 210.344 332.882C210.589 332.646 210.894 332.528 211.257 332.528C211.621 332.528 211.92 332.646 212.156 332.882C212.401 333.107 212.524 333.392 212.524 333.736C212.524 334.08 212.401 334.369 212.156 334.605C211.92 334.831 211.621 334.944 211.257 334.944ZM212.274 335.916V344.077H210.211V335.916H212.274ZM217.935 344.209C217.149 344.209 216.442 344.038 215.814 343.694C215.185 343.34 214.689 342.844 214.326 342.206C213.972 341.568 213.796 340.831 213.796 339.996C213.796 339.162 213.977 338.425 214.341 337.787C214.714 337.149 215.22 336.658 215.858 336.314C216.496 335.96 217.208 335.783 217.994 335.783C218.78 335.783 219.492 335.96 220.13 336.314C220.768 336.658 221.269 337.149 221.632 337.787C222.006 338.425 222.192 339.162 222.192 339.996C222.192 340.831 222.001 341.568 221.618 342.206C221.244 342.844 220.734 343.34 220.086 343.694C219.447 344.038 218.73 344.209 217.935 344.209ZM217.935 342.412C218.308 342.412 218.657 342.324 218.981 342.147C219.315 341.961 219.58 341.686 219.776 341.322C219.973 340.959 220.071 340.517 220.071 339.996C220.071 339.221 219.865 338.627 219.452 338.214C219.05 337.792 218.554 337.581 217.964 337.581C217.375 337.581 216.879 337.792 216.477 338.214C216.084 338.627 215.887 339.221 215.887 339.996C215.887 340.772 216.079 341.371 216.462 341.794C216.855 342.206 217.346 342.412 217.935 342.412ZM228.227 335.798C229.2 335.798 229.985 336.108 230.584 336.726C231.183 337.335 231.483 338.19 231.483 339.289V344.077H229.42V339.569C229.42 338.921 229.258 338.425 228.934 338.081C228.61 337.728 228.168 337.551 227.609 337.551C227.039 337.551 226.587 337.728 226.253 338.081C225.929 338.425 225.767 338.921 225.767 339.569V344.077H223.705V335.916H225.767V336.932C226.042 336.579 226.391 336.304 226.813 336.108C227.245 335.901 227.717 335.798 228.227 335.798Z" fill="white"/>
<defs>
<filter id="filter0_d_317_3976" x="0.317307" y="0.317307" width="347.401" height="390.365" filterUnits="userSpaceOnUse" color-interpolation-filters="sRGB">
<feFlood flood-opacity="0" result="BackgroundImageFix"/>
<feColorMatrix in="SourceAlpha" type="matrix" values="0 0 0 0 0 0 0 0 0 0 0 0 0 0 0 0 0 0 127 0" result="hardAlpha"/>
<feOffset/>
<feGaussianBlur stdDeviation="1.84135"/>
<feComposite in2="hardAlpha" operator="out"/>
<feColorMatrix type="matrix" values="0 0 0 0 0.192157 0 0 0 0 0.188235 0 0 0 0 0.254902 0 0 0 0.34 0"/>
<feBlend mode="normal" in2="BackgroundImageFix" result="effect1_dropShadow_317_3976"/>
<feBlend mode="normal" in="SourceGraphic" in2="effect1_dropShadow_317_3976" result="shape"/>
</filter>
</defs>
</svg>
