<svg width="348" height="391" viewBox="0 0 348 391" fill="none" xmlns="http://www.w3.org/2000/svg">
<g filter="url(#filter0_d_317_3938)">
<rect x="4" y="4" width="340.035" height="383" rx="18.4135" fill="white"/>
</g>
<path d="M36.6253 175.308V157.932H42.3163C44.0734 157.932 45.605 158.289 46.9111 159.004C48.2172 159.72 49.2279 160.73 49.9432 162.036C50.6584 163.327 51.0161 164.851 51.0161 166.608C51.0161 168.349 50.6584 169.873 49.9432 171.179C49.2279 172.486 48.2172 173.504 46.9111 174.235C45.605 174.95 44.0734 175.308 42.3163 175.308H36.6253ZM38.911 173.209H42.3396C43.6302 173.209 44.742 172.936 45.6749 172.392C46.6234 171.848 47.3542 171.086 47.8674 170.106C48.3805 169.111 48.637 167.945 48.637 166.608C48.637 165.255 48.3727 164.089 47.844 163.109C47.3309 162.13 46.6001 161.376 45.6516 160.847C44.7187 160.303 43.6147 160.031 42.3396 160.031H38.911V173.209ZM59.6274 175.588C58.4146 175.588 57.3184 175.308 56.3388 174.748C55.3592 174.173 54.5817 173.387 54.0064 172.392C53.4311 171.397 53.1434 170.27 53.1434 169.01C53.1434 167.751 53.4233 166.631 53.9831 165.652C54.5584 164.672 55.3359 163.895 56.3155 163.319C57.2951 162.744 58.399 162.456 59.6274 162.456C60.8403 162.456 61.9365 162.744 62.9161 163.319C63.8957 163.879 64.6654 164.649 65.2251 165.628C65.8004 166.608 66.0881 167.735 66.0881 169.01C66.0881 170.285 65.7927 171.42 65.2018 172.416C64.6109 173.395 63.8257 174.173 62.8461 174.748C61.8821 175.308 60.8092 175.588 59.6274 175.588ZM59.6274 173.488C60.4049 173.488 61.1046 173.294 61.7266 172.905C62.3641 172.517 62.8617 171.98 63.2193 171.296C63.5925 170.612 63.7791 169.85 63.7791 169.01C63.7791 168.155 63.5925 167.401 63.2193 166.748C62.8617 166.079 62.3641 165.551 61.7266 165.162C61.1046 164.758 60.4049 164.555 59.6274 164.555C58.8344 164.555 58.1192 164.758 57.4816 165.162C56.8597 165.551 56.3621 166.079 55.9889 166.748C55.6157 167.401 55.4292 168.155 55.4292 169.01C55.4292 169.85 55.6157 170.612 55.9889 171.296C56.3621 171.98 56.8597 172.517 57.4816 172.905C58.1192 173.294 58.8344 173.488 59.6274 173.488ZM68.9172 175.308V157.652H71.0863V169.757L70.2 169.547L76.8706 162.736H79.6461L74.8181 167.797L79.9726 175.308H77.407L72.6956 168.497L74.0484 168.427L70.3866 172.252L71.0863 170.666V175.308H68.9172ZM86.3777 175.588C85.4759 175.588 84.6595 175.378 83.9287 174.958C83.2135 174.538 82.6537 173.955 82.2494 173.209C81.8607 172.447 81.6663 171.576 81.6663 170.596V162.736H83.8354V170.363C83.8354 170.985 83.9598 171.529 84.2086 171.996C84.473 172.462 84.8306 172.828 85.2815 173.092C85.748 173.356 86.2767 173.488 86.8675 173.488C87.4584 173.488 87.9793 173.356 88.4302 173.092C88.8967 172.828 89.2543 172.447 89.5031 171.949C89.7674 171.451 89.8996 170.861 89.8996 170.176V162.736H92.092V175.308H89.9696V172.859L90.3194 173.069C90.024 173.862 89.5187 174.484 88.8034 174.934C88.1037 175.37 87.2951 175.588 86.3777 175.588ZM95.4525 175.308V162.736H97.5749V165.302L97.2717 164.905C97.5827 164.112 98.0803 163.506 98.7644 163.086C99.4486 162.666 100.218 162.456 101.073 162.456C102.053 162.456 102.932 162.728 103.709 163.273C104.502 163.817 105.046 164.532 105.342 165.418L104.735 165.442C105.062 164.462 105.614 163.724 106.391 163.226C107.169 162.713 108.032 162.456 108.98 162.456C109.851 162.456 110.636 162.658 111.336 163.063C112.051 163.467 112.619 164.027 113.039 164.742C113.458 165.457 113.668 166.266 113.668 167.168V175.308H111.476V167.867C111.476 167.168 111.351 166.577 111.103 166.095C110.854 165.613 110.512 165.24 110.076 164.975C109.657 164.695 109.159 164.555 108.584 164.555C108.024 164.555 107.519 164.695 107.068 164.975C106.632 165.24 106.282 165.621 106.018 166.118C105.769 166.6 105.645 167.183 105.645 167.867V175.308H103.453V167.867C103.453 167.168 103.328 166.577 103.079 166.095C102.831 165.613 102.488 165.24 102.053 164.975C101.633 164.695 101.136 164.555 100.56 164.555C100.001 164.555 99.4953 164.695 99.0443 164.975C98.609 165.24 98.2591 165.621 97.9948 166.118C97.746 166.6 97.6216 167.183 97.6216 167.867V175.308H95.4525ZM122.533 175.588C121.32 175.588 120.24 175.3 119.291 174.725C118.343 174.149 117.596 173.364 117.052 172.369C116.508 171.358 116.236 170.231 116.236 168.987C116.236 167.727 116.5 166.608 117.029 165.628C117.573 164.649 118.304 163.879 119.221 163.319C120.154 162.744 121.196 162.456 122.347 162.456C123.28 162.456 124.104 162.627 124.819 162.969C125.55 163.296 126.164 163.747 126.662 164.322C127.175 164.882 127.563 165.527 127.828 166.258C128.108 166.973 128.248 167.72 128.248 168.497C128.248 168.668 128.232 168.863 128.201 169.08C128.185 169.282 128.162 169.477 128.131 169.663H117.822V167.797H126.872L125.845 168.637C125.985 167.829 125.907 167.106 125.612 166.468C125.317 165.83 124.881 165.325 124.306 164.952C123.731 164.579 123.078 164.392 122.347 164.392C121.616 164.392 120.947 164.579 120.341 164.952C119.734 165.325 119.26 165.862 118.918 166.561C118.592 167.245 118.459 168.062 118.522 169.01C118.459 169.928 118.599 170.736 118.941 171.436C119.299 172.12 119.797 172.657 120.434 173.045C121.087 173.418 121.795 173.605 122.557 173.605C123.396 173.605 124.104 173.411 124.679 173.022C125.254 172.633 125.721 172.136 126.079 171.529L127.898 172.462C127.649 173.038 127.26 173.566 126.732 174.048C126.218 174.515 125.604 174.888 124.889 175.168C124.189 175.448 123.404 175.588 122.533 175.588ZM131.076 175.308V162.736H133.198V165.185L132.848 164.975C133.159 164.182 133.657 163.568 134.341 163.133C135.041 162.682 135.857 162.456 136.79 162.456C137.692 162.456 138.493 162.658 139.192 163.063C139.908 163.467 140.467 164.027 140.872 164.742C141.292 165.457 141.502 166.266 141.502 167.168V175.308H139.309V167.867C139.309 167.168 139.185 166.577 138.936 166.095C138.687 165.613 138.329 165.24 137.863 164.975C137.412 164.695 136.891 164.555 136.3 164.555C135.709 164.555 135.181 164.695 134.714 164.975C134.263 165.24 133.906 165.621 133.641 166.118C133.377 166.6 133.245 167.183 133.245 167.867V175.308H131.076ZM148.893 175.308V157.932H155.028C156.178 157.932 157.189 158.149 158.06 158.585C158.93 159.02 159.607 159.642 160.089 160.45C160.586 161.259 160.835 162.208 160.835 163.296C160.835 164.384 160.586 165.333 160.089 166.141C159.607 166.934 158.93 167.556 158.06 168.007C157.205 168.443 156.194 168.66 155.028 168.66H151.179V175.308H148.893ZM151.179 166.561H155.098C155.797 166.561 156.404 166.429 156.917 166.165C157.43 165.9 157.826 165.519 158.106 165.022C158.386 164.524 158.526 163.949 158.526 163.296C158.526 162.627 158.386 162.052 158.106 161.57C157.826 161.072 157.43 160.691 156.917 160.427C156.404 160.163 155.797 160.031 155.098 160.031H151.179V166.561ZM166.489 175.588C165.665 175.588 164.935 175.44 164.297 175.144C163.675 174.833 163.185 174.414 162.828 173.885C162.47 173.341 162.291 172.719 162.291 172.019C162.291 171.35 162.431 170.752 162.711 170.223C163.006 169.679 163.457 169.22 164.064 168.847C164.686 168.474 165.463 168.209 166.396 168.054L171.061 167.284V169.104L166.886 169.803C166.077 169.943 165.487 170.2 165.113 170.573C164.756 170.946 164.577 171.405 164.577 171.949C164.577 172.462 164.779 172.89 165.183 173.232C165.603 173.574 166.124 173.745 166.746 173.745C167.539 173.745 168.223 173.582 168.798 173.255C169.389 172.913 169.848 172.454 170.175 171.879C170.517 171.304 170.688 170.666 170.688 169.967V166.771C170.688 166.087 170.431 165.535 169.918 165.115C169.42 164.68 168.76 164.462 167.935 164.462C167.22 164.462 166.583 164.649 166.023 165.022C165.479 165.38 165.074 165.862 164.81 166.468L162.921 165.488C163.154 164.913 163.527 164.4 164.04 163.949C164.554 163.483 165.152 163.117 165.836 162.853C166.521 162.588 167.236 162.456 167.982 162.456C168.946 162.456 169.794 162.643 170.524 163.016C171.255 163.374 171.823 163.879 172.227 164.532C172.647 165.17 172.857 165.916 172.857 166.771V175.308H170.734V172.929L171.131 173.069C170.867 173.566 170.509 174.002 170.058 174.375C169.607 174.748 169.078 175.043 168.472 175.261C167.866 175.479 167.205 175.588 166.489 175.588ZM180.721 175.588C179.462 175.588 178.366 175.277 177.433 174.655C176.5 174.033 175.839 173.193 175.45 172.136L177.176 171.296C177.534 172.042 178.024 172.633 178.646 173.069C179.268 173.504 179.96 173.722 180.721 173.722C181.406 173.722 181.973 173.558 182.424 173.232C182.875 172.905 183.1 172.478 183.1 171.949C183.1 171.576 182.992 171.28 182.774 171.063C182.572 170.83 182.323 170.651 182.028 170.526C181.732 170.386 181.46 170.285 181.211 170.223L179.322 169.687C178.187 169.36 177.355 168.894 176.826 168.287C176.313 167.681 176.057 166.973 176.057 166.165C176.057 165.418 176.243 164.773 176.616 164.229C177.005 163.669 177.526 163.234 178.179 162.923C178.848 162.612 179.594 162.456 180.418 162.456C181.522 162.456 182.51 162.736 183.38 163.296C184.267 163.856 184.896 164.641 185.27 165.652L183.497 166.468C183.217 165.815 182.797 165.302 182.237 164.929C181.678 164.54 181.048 164.346 180.348 164.346C179.711 164.346 179.205 164.509 178.832 164.835C178.459 165.146 178.272 165.543 178.272 166.025C178.272 166.382 178.366 166.678 178.552 166.911C178.739 167.129 178.964 167.3 179.229 167.424C179.493 167.533 179.75 167.626 179.998 167.704L182.051 168.311C183.077 168.606 183.87 169.065 184.43 169.687C185.005 170.309 185.293 171.055 185.293 171.926C185.293 172.625 185.099 173.255 184.71 173.815C184.321 174.375 183.785 174.81 183.1 175.121C182.416 175.432 181.623 175.588 180.721 175.588ZM188.132 179.972V162.736H190.255V165.442L189.975 164.905C190.441 164.159 191.079 163.568 191.887 163.133C192.696 162.682 193.621 162.456 194.663 162.456C195.845 162.456 196.902 162.744 197.835 163.319C198.784 163.895 199.53 164.68 200.074 165.675C200.618 166.655 200.89 167.774 200.89 169.034C200.89 170.262 200.618 171.374 200.074 172.369C199.53 173.364 198.784 174.149 197.835 174.725C196.902 175.3 195.837 175.588 194.64 175.588C193.629 175.588 192.704 175.362 191.864 174.911C191.04 174.46 190.403 173.823 189.952 172.999L190.301 172.625V179.972H188.132ZM194.476 173.488C195.269 173.488 195.977 173.294 196.599 172.905C197.221 172.517 197.703 171.988 198.045 171.319C198.403 170.635 198.581 169.873 198.581 169.034C198.581 168.163 198.403 167.401 198.045 166.748C197.703 166.079 197.221 165.551 196.599 165.162C195.977 164.758 195.269 164.555 194.476 164.555C193.683 164.555 192.968 164.75 192.331 165.139C191.709 165.527 191.211 166.064 190.838 166.748C190.48 167.416 190.301 168.178 190.301 169.034C190.301 169.873 190.48 170.635 190.838 171.319C191.211 171.988 191.709 172.517 192.331 172.905C192.968 173.294 193.683 173.488 194.476 173.488ZM209.706 175.588C208.493 175.588 207.396 175.308 206.417 174.748C205.437 174.173 204.66 173.387 204.085 172.392C203.509 171.397 203.222 170.27 203.222 169.01C203.222 167.751 203.501 166.631 204.061 165.652C204.637 164.672 205.414 163.895 206.394 163.319C207.373 162.744 208.477 162.456 209.706 162.456C210.918 162.456 212.015 162.744 212.994 163.319C213.974 163.879 214.743 164.649 215.303 165.628C215.879 166.608 216.166 167.735 216.166 169.01C216.166 170.285 215.871 171.42 215.28 172.416C214.689 173.395 213.904 174.173 212.924 174.748C211.96 175.308 210.887 175.588 209.706 175.588ZM209.706 173.488C210.483 173.488 211.183 173.294 211.805 172.905C212.442 172.517 212.94 171.98 213.297 171.296C213.671 170.612 213.857 169.85 213.857 169.01C213.857 168.155 213.671 167.401 213.297 166.748C212.94 166.079 212.442 165.551 211.805 165.162C211.183 164.758 210.483 164.555 209.706 164.555C208.913 164.555 208.197 164.758 207.56 165.162C206.938 165.551 206.44 166.079 206.067 166.748C205.694 167.401 205.507 168.155 205.507 169.01C205.507 169.85 205.694 170.612 206.067 171.296C206.44 171.98 206.938 172.517 207.56 172.905C208.197 173.294 208.913 173.488 209.706 173.488ZM218.995 175.308V162.736H221.118V165.045L220.885 164.719C221.18 164.003 221.631 163.475 222.237 163.133C222.844 162.775 223.582 162.596 224.453 162.596H225.223V164.649H224.127C223.24 164.649 222.525 164.929 221.981 165.488C221.437 166.033 221.164 166.81 221.164 167.821V175.308H218.995Z" fill="#313041"/>
<path fill-rule="evenodd" clip-rule="evenodd" d="M46.3224 54.868H85.6287V44.2047C85.6287 42.5291 84.4235 41.4749 82.8031 41.857L46.025 50.5187C44.2684 50.9321 42.7852 52.8554 42.7852 54.7197V56.2122C43.7288 55.3771 44.9662 54.868 46.3224 54.868ZM72.6407 84.8083C72.1915 87.6154 71.4144 90.138 70.3243 91.8348C74.123 90.8709 77.2726 88.2589 78.9621 84.8083H72.6407ZM63.3171 84.8083H70.8279C70.0343 89.5138 68.3651 92.2409 67.0725 92.2409C65.7799 92.2409 64.1107 89.5138 63.3171 84.8083ZM63.8207 91.8348C62.7306 90.138 61.9536 87.6154 61.5043 84.8083H55.1811C56.8724 88.2599 60.022 90.8709 63.8207 91.8348ZM72.8783 75.0123C73.1572 77.639 73.1572 80.3771 72.8783 83.0047H79.6867C80.5116 80.4065 80.5116 77.6114 79.6867 75.0123H72.8783ZM63.0703 75.0123C62.7905 77.5828 62.7905 80.4332 63.0703 83.0047H71.0756C71.3546 80.4443 71.3536 77.5727 71.0756 75.0123H63.0703ZM61.0568 79.0089C61.0568 77.6758 61.1268 76.3261 61.2658 75.0132H54.4593C53.6334 77.6095 53.6334 80.4093 54.4593 83.0056H61.2667C61.1268 81.6909 61.0568 80.3421 61.0568 79.0089ZM70.3243 66.1821C71.4144 67.8789 72.1915 70.4016 72.6407 73.2087H78.963C77.2726 69.758 74.123 67.1461 70.3243 66.1821ZM67.0725 65.777C68.3651 65.777 70.0334 68.505 70.8279 73.2096H63.3171C64.1107 68.5041 65.7799 65.777 67.0725 65.777ZM61.5043 73.2087C61.9536 70.4016 62.7306 67.8789 63.8207 66.1821C60.022 67.1461 56.8724 69.7571 55.182 73.2087H61.5043ZM87.8236 56.6716C89.7726 56.6716 91.3599 58.2579 91.3599 60.2088V117.607C91.3599 119.557 89.7726 121.144 87.8236 121.144H46.3224C44.3724 121.144 42.7852 119.557 42.7852 117.607V60.2088C42.7852 58.2579 44.3724 56.6716 46.3224 56.6716H87.8236ZM52.0361 79.0089C52.0361 70.7183 58.7828 63.9734 67.0725 63.9734C75.3623 63.9734 82.108 70.7183 82.108 79.0089C82.108 87.2996 75.3623 94.0454 67.0725 94.0454C58.7828 94.0454 52.0361 87.2996 52.0361 79.0089ZM54.6407 106.948C53.4539 106.948 53.4539 108.751 54.6407 108.751H79.5034C80.6902 108.751 80.6902 106.948 79.5034 106.948H54.6407ZM79.5044 112.238H54.6407C53.4539 112.238 53.453 114.041 54.6407 114.041H79.5034C80.6911 114.041 80.6911 112.238 79.5044 112.238ZM59.1501 101.657C59.1501 102.155 59.5543 102.559 60.0515 102.559H74.0926C75.2794 102.559 75.2794 100.755 74.0926 100.755H60.0524C59.5543 100.754 59.1501 101.158 59.1501 101.657Z" fill="#313041"/>
<path d="M36.6192 198.291C36.6192 198.763 36.7174 199.18 36.9138 199.544C37.12 199.897 37.395 200.177 37.7387 200.383C38.0923 200.589 38.49 200.693 38.9319 200.693C39.3738 200.693 39.7667 200.589 40.1104 200.383C40.4639 200.177 40.7389 199.897 40.9353 199.544C41.1415 199.18 41.2446 198.763 41.2446 198.291C41.2446 197.82 41.1415 197.403 40.9353 197.039C40.7389 196.666 40.4639 196.376 40.1104 196.17C39.7667 195.964 39.3738 195.861 38.9319 195.861C38.49 195.861 38.0923 195.964 37.7387 196.17C37.395 196.376 37.12 196.666 36.9138 197.039C36.7174 197.403 36.6192 197.82 36.6192 198.291ZM39.5506 191.368H41.1268L37.9008 195.625L37.8124 195.552C38.0088 195.306 38.2347 195.144 38.49 195.065C38.7551 194.987 39.0547 194.948 39.3886 194.948C39.8109 194.948 40.2037 195.031 40.567 195.198C40.9402 195.365 41.2643 195.601 41.5393 195.905C41.8241 196.21 42.045 196.568 42.2021 196.98C42.3593 197.383 42.4378 197.82 42.4378 198.291C42.4378 198.999 42.2807 199.617 41.9665 200.148C41.662 200.678 41.2446 201.09 40.7143 201.385C40.1939 201.68 39.5997 201.827 38.9319 201.827C38.2739 201.827 37.6798 201.68 37.1495 201.385C36.6192 201.09 36.1969 200.678 35.8826 200.148C35.5782 199.617 35.426 198.999 35.426 198.291C35.426 197.869 35.4849 197.476 35.6028 197.113C35.7206 196.75 35.8777 196.431 36.0741 196.156L39.5506 191.368ZM47.6669 198.733V197.629H50.6131V198.733H47.6669ZM55.5444 192.546V191.368H62.7625L57.8277 201.68H56.5167L60.8917 192.546H55.5444ZM69.1291 196.671V195.493H76.1998V196.671H69.1291ZM75.3602 191.368H76.6123V201.68H75.3602V191.368ZM68.4367 191.368H69.6888V201.68H68.4367V191.368ZM79.9539 198.586L80.3958 197.408H84.9623L85.4043 198.586H79.9539ZM82.6496 193.695L80.9114 197.791L80.7935 198.056L79.2615 201.68H77.8621L82.6496 190.852L87.4371 201.68H86.0377L84.5352 198.144L84.4173 197.85L82.6496 193.695ZM90.5329 196.597H91.9323L95.615 201.68H94.0683L90.5329 196.597ZM88.6915 191.368H89.9437V201.68H88.6915V191.368ZM89.3839 192.473V191.368H91.4904C92.1582 191.368 92.7523 191.496 93.2728 191.751C93.8031 191.997 94.2205 192.35 94.5249 192.812C94.8392 193.273 94.9963 193.823 94.9963 194.461C94.9963 195.09 94.8392 195.64 94.5249 196.111C94.2205 196.573 93.8031 196.931 93.2728 197.187C92.7523 197.432 92.1582 197.555 91.4904 197.555H89.3839V196.45H91.4904C91.9323 196.45 92.3202 196.372 92.6541 196.214C92.9978 196.057 93.263 195.831 93.4496 195.537C93.646 195.242 93.7442 194.884 93.7442 194.461C93.7442 194.039 93.646 193.681 93.4496 193.386C93.263 193.092 92.9978 192.866 92.6541 192.709C92.3202 192.551 91.9323 192.473 91.4904 192.473H89.3839ZM96.9344 191.368H98.1866V201.68H96.9344V191.368ZM104.962 191.368H106.214V201.68H104.962V191.368ZM110.265 191.368H111.811L107.348 196.2L112.032 201.68H110.486L105.831 196.229L110.265 191.368ZM113.983 201.68V200.501H119.183V201.68H113.983ZM113.983 192.546V191.368H119.183V192.546H113.983ZM113.983 196.671V195.493H118.888V196.671H113.983ZM113.291 191.368H114.543V201.68H113.291V191.368ZM123.231 196.597H124.631L128.313 201.68H126.767L123.231 196.597ZM121.39 191.368H122.642V201.68H121.39V191.368ZM122.082 192.473V191.368H124.189C124.856 191.368 125.451 191.496 125.971 191.751C126.501 191.997 126.919 192.35 127.223 192.812C127.537 193.273 127.695 193.823 127.695 194.461C127.695 195.09 127.537 195.64 127.223 196.111C126.919 196.573 126.501 196.931 125.971 197.187C125.451 197.432 124.856 197.555 124.189 197.555H122.082V196.45H124.189C124.631 196.45 125.018 196.372 125.352 196.214C125.696 196.057 125.961 195.831 126.148 195.537C126.344 195.242 126.442 194.884 126.442 194.461C126.442 194.039 126.344 193.681 126.148 193.386C125.961 193.092 125.696 192.866 125.352 192.709C125.018 192.551 124.631 192.473 124.189 192.473H122.082ZM127.467 203.212C127.575 203.379 127.732 203.506 127.939 203.595C128.135 203.693 128.366 203.742 128.631 203.742C128.857 203.742 129.078 203.639 129.294 203.433C129.52 203.236 129.633 202.897 129.633 202.416V191.368H130.811V202.563C130.811 202.966 130.757 203.315 130.649 203.609C130.551 203.904 130.404 204.149 130.207 204.346C130.011 204.542 129.77 204.685 129.485 204.773C129.21 204.871 128.901 204.92 128.557 204.92C128.302 204.92 128.057 204.876 127.821 204.788C127.575 204.709 127.369 204.611 127.202 204.493C127.025 204.385 126.898 204.282 126.819 204.184L127.467 203.212ZM134.159 198.586L134.6 197.408H139.167L139.609 198.586H134.159ZM136.854 193.695L135.116 197.791L134.998 198.056L133.466 201.68H132.067L136.854 190.852L141.642 201.68H140.242L138.74 198.144L138.622 197.85L136.854 193.695Z" fill="#666666"/>
<path d="M35.9868 239.296H37.5352L41.176 248.189H41.3016L44.9424 239.296H46.4908V250.01H45.2772V241.87H45.1726L41.8247 250.01H40.6529L37.305 241.87H37.2004V250.01H35.9868V239.296ZM53.9883 246.725V241.975H55.2228V250.01H53.9883V248.65H53.9046C53.7163 249.058 53.4233 249.405 53.0258 249.691C52.6282 249.973 52.126 250.114 51.5192 250.114C51.017 250.114 50.5706 250.004 50.18 249.785C49.7895 249.562 49.4826 249.227 49.2594 248.78C49.0362 248.33 48.9246 247.764 48.9246 247.08V241.975H50.1591V246.997C50.1591 247.582 50.323 248.05 50.6508 248.398C50.9821 248.747 51.4041 248.922 51.9168 248.922C52.2237 248.922 52.5358 248.843 52.8531 248.686C53.174 248.529 53.4425 248.289 53.6587 247.964C53.8784 247.64 53.9883 247.227 53.9883 246.725ZM58.7185 239.296V250.01H57.484V239.296H58.7185ZM63.3441 250.198C62.8349 250.198 62.3729 250.102 61.9579 249.91C61.5429 249.715 61.2133 249.434 60.9692 249.068C60.7251 248.698 60.603 248.252 60.603 247.729C60.603 247.269 60.6937 246.895 60.875 246.609C61.0564 246.32 61.2987 246.093 61.6021 245.929C61.9055 245.765 62.2403 245.643 62.6065 245.563C62.9762 245.48 63.3476 245.413 63.7207 245.364C64.209 245.302 64.6048 245.255 64.9082 245.223C65.2151 245.188 65.4383 245.131 65.5778 245.051C65.7208 244.97 65.7923 244.831 65.7923 244.632V244.59C65.7923 244.074 65.651 243.673 65.3685 243.387C65.0895 243.101 64.6658 242.958 64.0974 242.958C63.508 242.958 63.0459 243.087 62.7111 243.345C62.3763 243.603 62.1409 243.879 62.0049 244.172L60.8332 243.753C61.0424 243.265 61.3214 242.885 61.6701 242.613C62.0224 242.337 62.406 242.146 62.821 242.037C63.2395 241.926 63.651 241.87 64.0555 241.87C64.3136 241.87 64.61 241.901 64.9448 241.964C65.2831 242.024 65.6092 242.147 65.923 242.336C66.2404 242.524 66.5037 242.808 66.7129 243.188C66.9222 243.568 67.0268 244.078 67.0268 244.716V250.01H65.7923V248.922H65.7295C65.6458 249.096 65.5063 249.283 65.311 249.481C65.1157 249.68 64.8559 249.849 64.5316 249.989C64.2072 250.128 63.8114 250.198 63.3441 250.198ZM63.5324 249.089C64.0207 249.089 64.4322 248.993 64.767 248.801C65.1052 248.609 65.3598 248.362 65.5307 248.058C65.7051 247.755 65.7923 247.436 65.7923 247.101V245.971C65.7399 246.034 65.6249 246.092 65.447 246.144C65.2726 246.193 65.0704 246.236 64.8402 246.275C64.6135 246.31 64.3921 246.341 64.1758 246.369C63.9631 246.393 63.7905 246.414 63.658 246.432C63.3371 246.473 63.0372 246.541 62.7582 246.636C62.4827 246.726 62.2595 246.864 62.0886 247.049C61.9212 247.23 61.8375 247.478 61.8375 247.792C61.8375 248.221 61.9962 248.545 62.3136 248.765C62.6344 248.981 63.0407 249.089 63.5324 249.089ZM69.2801 250.01V241.975H70.5146V250.01H69.2801ZM69.9078 240.636C69.6672 240.636 69.4597 240.554 69.2853 240.39C69.1144 240.226 69.029 240.029 69.029 239.799C69.029 239.568 69.1144 239.371 69.2853 239.207C69.4597 239.044 69.6672 238.962 69.9078 238.962C70.1484 238.962 70.3542 239.044 70.5251 239.207C70.6995 239.371 70.7866 239.568 70.7866 239.799C70.7866 240.029 70.6995 240.226 70.5251 240.39C70.3542 240.554 70.1484 240.636 69.9078 240.636ZM79.9528 250.177C79.2833 250.177 78.6921 250.008 78.1795 249.67C77.6668 249.328 77.2658 248.847 76.9763 248.226C76.6869 247.602 76.5422 246.864 76.5422 246.013C76.5422 245.169 76.6869 244.437 76.9763 243.816C77.2658 243.195 77.6686 242.716 78.1847 242.377C78.7009 242.039 79.2972 241.87 79.9738 241.87C80.4969 241.87 80.9101 241.957 81.2135 242.132C81.5204 242.302 81.7541 242.498 81.9145 242.717C82.0784 242.934 82.2057 243.112 82.2964 243.251H82.401V239.296H83.6355V250.01H82.4428V248.775H82.2964C82.2057 248.922 82.0767 249.106 81.9093 249.33C81.7419 249.549 81.503 249.746 81.1926 249.921C80.8822 250.092 80.469 250.177 79.9528 250.177ZM80.1202 249.068C80.6154 249.068 81.0339 248.939 81.3757 248.681C81.7175 248.419 81.9773 248.058 82.1551 247.598C82.333 247.134 82.4219 246.599 82.4219 245.992C82.4219 245.392 82.3347 244.867 82.1604 244.418C81.986 243.964 81.7279 243.612 81.3862 243.361C81.0444 243.106 80.6224 242.979 80.1202 242.979C79.5971 242.979 79.1612 243.113 78.8125 243.382C78.4672 243.647 78.2074 244.008 78.033 244.465C77.8621 244.918 77.7767 245.427 77.7767 245.992C77.7767 246.564 77.8639 247.084 78.0383 247.551C78.2161 248.015 78.4777 248.385 78.8229 248.66C79.1717 248.932 79.6041 249.068 80.1202 249.068ZM88.4324 250.198C87.9233 250.198 87.4612 250.102 87.0462 249.91C86.6312 249.715 86.3016 249.434 86.0575 249.068C85.8134 248.698 85.6913 248.252 85.6913 247.729C85.6913 247.269 85.782 246.895 85.9634 246.609C86.1447 246.32 86.3871 246.093 86.6905 245.929C86.9939 245.765 87.3287 245.643 87.6949 245.563C88.0645 245.48 88.4359 245.413 88.8091 245.364C89.2973 245.302 89.6931 245.255 89.9965 245.223C90.3034 245.188 90.5266 245.131 90.6661 245.051C90.8091 244.97 90.8806 244.831 90.8806 244.632V244.59C90.8806 244.074 90.7394 243.673 90.4569 243.387C90.1779 243.101 89.7542 242.958 89.1857 242.958C88.5963 242.958 88.1343 243.087 87.7995 243.345C87.4647 243.603 87.2293 243.879 87.0933 244.172L85.9215 243.753C86.1308 243.265 86.4097 242.885 86.7585 242.613C87.1107 242.337 87.4943 242.146 87.9093 242.037C88.3278 241.926 88.7393 241.87 89.1439 241.87C89.4019 241.87 89.6984 241.901 90.0332 241.964C90.3714 242.024 90.6975 242.147 91.0114 242.336C91.3287 242.524 91.592 242.808 91.8013 243.188C92.0105 243.568 92.1151 244.078 92.1151 244.716V250.01H90.8806V248.922H90.8178C90.7341 249.096 90.5946 249.283 90.3993 249.481C90.204 249.68 89.9442 249.849 89.6199 249.989C89.2956 250.128 88.8997 250.198 88.4324 250.198ZM88.6208 249.089C89.109 249.089 89.5205 248.993 89.8553 248.801C90.1936 248.609 90.4482 248.362 90.619 248.058C90.7934 247.755 90.8806 247.436 90.8806 247.101V245.971C90.8283 246.034 90.7132 246.092 90.5353 246.144C90.361 246.193 90.1587 246.236 89.9285 246.275C89.7019 246.31 89.4804 246.341 89.2642 246.369C89.0515 246.393 88.8788 246.414 88.7463 246.432C88.4255 246.473 88.1255 246.541 87.8466 246.636C87.5711 246.726 87.3479 246.864 87.177 247.049C87.0096 247.23 86.9259 247.478 86.9259 247.792C86.9259 248.221 87.0846 248.545 87.4019 248.765C87.7228 248.981 88.129 249.089 88.6208 249.089ZM94.3684 250.01V241.975H95.5611V243.188H95.6448C95.7913 242.791 96.0563 242.468 96.4399 242.221C96.8236 241.973 97.256 241.849 97.7373 241.849C97.8279 241.849 97.9413 241.851 98.0773 241.854C98.2133 241.858 98.3162 241.863 98.3859 241.87V243.126C98.3441 243.115 98.2482 243.099 98.0982 243.078C97.9517 243.054 97.7965 243.042 97.6326 243.042C97.242 243.042 96.8933 243.124 96.5864 243.288C96.283 243.448 96.0424 243.671 95.8645 243.957C95.6902 244.24 95.603 244.562 95.603 244.925V250.01H94.3684ZM99.8493 250.01V241.975H101.084V250.01H99.8493ZM100.477 240.636C100.236 240.636 100.029 240.554 99.8545 240.39C99.6837 240.226 99.5982 240.029 99.5982 239.799C99.5982 239.568 99.6837 239.371 99.8545 239.207C100.029 239.044 100.236 238.962 100.477 238.962C100.718 238.962 100.923 239.044 101.094 239.207C101.269 239.371 101.356 239.568 101.356 239.799C101.356 240.029 101.269 240.226 101.094 240.39C100.923 240.554 100.718 240.636 100.477 240.636Z" fill="#666666"/>
<path d="M36.1036 275.01V260.377H38.7748V275.01H36.1036ZM41.5893 275.01V260.377H46.3621C47.9071 260.377 49.2493 260.691 50.3885 261.32C51.5407 261.935 52.4311 262.793 53.0596 263.893C53.6882 264.98 54.0024 266.243 54.0024 267.684C54.0024 269.111 53.6882 270.381 53.0596 271.494C52.4311 272.594 51.5407 273.458 50.3885 274.087C49.2493 274.702 47.9071 275.01 46.3621 275.01H41.5893ZM44.2605 272.653H46.421C47.4161 272.653 48.2738 272.45 48.994 272.044C49.7272 271.625 50.2968 271.049 50.7027 270.315C51.1086 269.569 51.3116 268.692 51.3116 267.684C51.3116 266.662 51.1086 265.785 50.7027 265.052C50.2968 264.318 49.7272 263.749 48.994 263.343C48.2738 262.937 47.4161 262.734 46.421 262.734H44.2605V272.653ZM56.1282 275.01V260.377H61.5688C62.564 260.377 63.4413 260.56 64.2007 260.927C64.9733 261.281 65.5756 261.804 66.0077 262.498C66.4398 263.179 66.6558 264.011 66.6558 264.993C66.6558 266.001 66.4136 266.859 65.9291 267.566C65.4577 268.273 64.8161 268.797 64.0043 269.137L67.3629 275.01H64.3382L60.7439 268.587L62.4723 269.608H58.7994V275.01H56.1282ZM58.7994 267.251H61.6081C62.0926 267.251 62.5116 267.16 62.8651 266.976C63.2187 266.78 63.4936 266.512 63.69 266.171C63.8865 265.831 63.9847 265.438 63.9847 264.993C63.9847 264.534 63.8865 264.142 63.69 263.814C63.4936 263.474 63.2187 263.212 62.8651 263.029C62.5116 262.832 62.0926 262.734 61.6081 262.734H58.7994V267.251ZM76.9451 275.245C76.1464 275.245 75.3869 275.101 74.6668 274.813C73.9597 274.512 73.3508 274.093 72.8402 273.556C72.3426 273.006 72.0021 272.358 71.8188 271.612L74.1561 270.787C74.3918 271.455 74.7519 271.965 75.2364 272.319C75.7208 272.659 76.2904 272.829 76.9451 272.829C77.4689 272.829 77.9206 272.731 78.3004 272.535C78.6932 272.338 79.0009 272.057 79.2235 271.69C79.4461 271.311 79.5574 270.865 79.5574 270.355C79.5574 269.844 79.4461 269.412 79.2235 269.058C79.014 268.692 78.7128 268.41 78.32 268.214C77.9272 268.017 77.4623 267.919 76.9255 267.919C76.6767 267.919 76.4148 267.945 76.1398 267.998C75.878 268.05 75.6423 268.129 75.4328 268.233L74.8239 266.957L78.6146 262.636H72.6437V260.377H81.6197V262.479L77.8093 266.937L77.8486 265.935C78.7259 265.949 79.4919 266.138 80.1466 266.505C80.8013 266.872 81.312 267.376 81.6786 268.017C82.0452 268.659 82.2286 269.412 82.2286 270.276C82.2286 271.219 81.9994 272.07 81.5411 272.829C81.0828 273.576 80.4543 274.165 79.6556 274.597C78.8569 275.029 77.9534 275.245 76.9451 275.245ZM89.0308 275.245C88.2583 275.245 87.5184 275.101 86.8114 274.813C86.1174 274.525 85.5151 274.119 85.0044 273.595C84.5068 273.059 84.1664 272.424 83.9831 271.69L86.3007 270.865C86.5233 271.533 86.8834 272.031 87.381 272.358C87.8785 272.672 88.4285 272.829 89.0308 272.829C89.5284 272.829 89.967 272.725 90.3468 272.515C90.7396 272.293 91.0407 271.991 91.2502 271.612C91.4597 271.219 91.5645 270.767 91.5645 270.257C91.5645 269.746 91.4532 269.301 91.2306 268.921C91.0211 268.541 90.7265 268.247 90.3468 268.037C89.967 267.814 89.5284 267.703 89.0308 267.703C88.5201 267.703 88.0553 267.814 87.6363 268.037C87.2304 268.26 86.9358 268.58 86.7524 268.999L84.5723 268.508L85.7311 260.377H93.7054V262.636H86.7917L87.7934 261.477L86.9685 267.605L86.2025 266.976C86.5691 266.44 87.0143 266.047 87.5381 265.798C88.0749 265.549 88.7231 265.425 89.4825 265.425C90.4515 265.425 91.2895 265.634 91.9966 266.053C92.7168 266.472 93.2733 267.042 93.6661 267.762C94.0589 268.482 94.2553 269.314 94.2553 270.257C94.2553 271.199 94.0262 272.05 93.5679 272.81C93.1096 273.569 92.4876 274.165 91.702 274.597C90.9163 275.029 90.0259 275.245 89.0308 275.245ZM102.234 275.245C101.069 275.245 100.047 274.931 99.1702 274.303C98.2929 273.674 97.6054 272.79 97.1079 271.651C96.6234 270.512 96.3812 269.189 96.3812 267.684C96.3812 266.165 96.6234 264.842 97.1079 263.716C97.5924 262.59 98.2732 261.713 99.1505 261.084C100.028 260.456 101.049 260.141 102.215 260.141C103.406 260.141 104.434 260.456 105.298 261.084C106.175 261.713 106.863 262.597 107.36 263.736C107.858 264.862 108.107 266.178 108.107 267.684C108.107 269.189 107.858 270.512 107.36 271.651C106.876 272.777 106.195 273.661 105.318 274.303C104.441 274.931 103.413 275.245 102.234 275.245ZM102.254 272.81C102.922 272.81 103.491 272.607 103.963 272.201C104.434 271.782 104.794 271.193 105.043 270.433C105.305 269.661 105.436 268.744 105.436 267.684C105.436 266.623 105.305 265.713 105.043 264.953C104.794 264.181 104.427 263.592 103.943 263.186C103.472 262.78 102.895 262.577 102.215 262.577C101.56 262.577 100.997 262.78 100.525 263.186C100.054 263.592 99.6874 264.181 99.4255 264.953C99.1767 265.713 99.0523 266.623 99.0523 267.684C99.0523 268.731 99.1767 269.641 99.4255 270.414C99.6874 271.173 100.054 271.762 100.525 272.181C101.01 272.6 101.586 272.81 102.254 272.81ZM111.21 278.074V276.797C111.642 276.692 111.989 276.489 112.251 276.188C112.526 275.9 112.696 275.507 112.762 275.01H111.603V272.26H114.196V273.949C114.196 275.101 113.94 276.024 113.43 276.718C112.932 277.412 112.192 277.864 111.21 278.074ZM123.16 275.245C121.995 275.245 120.974 274.931 120.096 274.303C119.219 273.674 118.532 272.79 118.034 271.651C117.55 270.512 117.307 269.189 117.307 267.684C117.307 266.165 117.55 264.842 118.034 263.716C118.518 262.59 119.199 261.713 120.077 261.084C120.954 260.456 121.975 260.141 123.141 260.141C124.332 260.141 125.36 260.456 126.224 261.084C127.102 261.713 127.789 262.597 128.287 263.736C128.784 264.862 129.033 266.178 129.033 267.684C129.033 269.189 128.784 270.512 128.287 271.651C127.802 272.777 127.121 273.661 126.244 274.303C125.367 274.931 124.339 275.245 123.16 275.245ZM123.18 272.81C123.848 272.81 124.417 272.607 124.889 272.201C125.36 271.782 125.72 271.193 125.969 270.433C126.231 269.661 126.362 268.744 126.362 267.684C126.362 266.623 126.231 265.713 125.969 264.953C125.72 264.181 125.354 263.592 124.869 263.186C124.398 262.78 123.822 262.577 123.141 262.577C122.486 262.577 121.923 262.78 121.452 263.186C120.98 263.592 120.614 264.181 120.352 264.953C120.103 265.713 119.978 266.623 119.978 267.684C119.978 268.731 120.103 269.641 120.352 270.414C120.614 271.173 120.98 271.762 121.452 272.181C121.936 272.6 122.512 272.81 123.18 272.81ZM137.066 275.245C135.901 275.245 134.88 274.931 134.002 274.303C133.125 273.674 132.438 272.79 131.94 271.651C131.456 270.512 131.213 269.189 131.213 267.684C131.213 266.165 131.456 264.842 131.94 263.716C132.424 262.59 133.105 261.713 133.983 261.084C134.86 260.456 135.881 260.141 137.047 260.141C138.238 260.141 139.266 260.456 140.13 261.084C141.008 261.713 141.695 262.597 142.193 263.736C142.69 264.862 142.939 266.178 142.939 267.684C142.939 269.189 142.69 270.512 142.193 271.651C141.708 272.777 141.027 273.661 140.15 274.303C139.273 274.931 138.245 275.245 137.066 275.245ZM137.086 272.81C137.754 272.81 138.323 272.607 138.795 272.201C139.266 271.782 139.626 271.193 139.875 270.433C140.137 269.661 140.268 268.744 140.268 267.684C140.268 266.623 140.137 265.713 139.875 264.953C139.626 264.181 139.26 263.592 138.775 263.186C138.304 262.78 137.728 262.577 137.047 262.577C136.392 262.577 135.829 262.78 135.358 263.186C134.886 263.592 134.52 264.181 134.258 264.953C134.009 265.713 133.884 266.623 133.884 267.684C133.884 268.731 134.009 269.641 134.258 270.414C134.52 271.173 134.886 271.762 135.358 272.181C135.842 272.6 136.418 272.81 137.086 272.81ZM150.972 275.245C149.807 275.245 148.786 274.931 147.908 274.303C147.031 273.674 146.344 272.79 145.846 271.651C145.362 270.512 145.119 269.189 145.119 267.684C145.119 266.165 145.362 264.842 145.846 263.716C146.33 262.59 147.011 261.713 147.889 261.084C148.766 260.456 149.787 260.141 150.953 260.141C152.144 260.141 153.172 260.456 154.036 261.084C154.914 261.713 155.601 262.597 156.099 263.736C156.596 264.862 156.845 266.178 156.845 267.684C156.845 269.189 156.596 270.512 156.099 271.651C155.614 272.777 154.933 273.661 154.056 274.303C153.179 274.931 152.151 275.245 150.972 275.245ZM150.992 272.81C151.66 272.81 152.229 272.607 152.701 272.201C153.172 271.782 153.532 271.193 153.781 270.433C154.043 269.661 154.174 268.744 154.174 267.684C154.174 266.623 154.043 265.713 153.781 264.953C153.532 264.181 153.166 263.592 152.681 263.186C152.21 262.78 151.634 262.577 150.953 262.577C150.298 262.577 149.735 262.78 149.264 263.186C148.792 263.592 148.426 264.181 148.164 264.953C147.915 265.713 147.79 266.623 147.79 267.684C147.79 268.731 147.915 269.641 148.164 270.414C148.426 271.173 148.792 271.762 149.264 272.181C149.748 272.6 150.324 272.81 150.992 272.81Z" fill="#313041"/>
<rect x="71" y="316" width="207" height="48" rx="24" fill="#313041"/>
<path d="M246.73 329.918C241.648 329.918 237.523 334.043 237.523 339.125C237.523 344.207 241.648 348.332 246.73 348.332C251.812 348.332 255.937 344.207 255.937 339.125C255.937 334.043 251.812 329.918 246.73 329.918ZM251.564 339.429C251.564 339.806 251.251 340.119 250.873 340.119C250.496 340.119 250.183 339.806 250.183 339.429V336.648L243.075 343.756C242.937 343.894 242.762 343.958 242.587 343.958C242.412 343.958 242.237 343.894 242.099 343.756C241.832 343.489 241.832 343.047 242.099 342.78L249.207 335.672H246.426C246.049 335.672 245.736 335.359 245.736 334.982C245.736 334.604 246.049 334.291 246.426 334.291H250.873C251.251 334.291 251.564 334.604 251.564 334.982V339.429Z" fill="white"/>
<path d="M111.85 336.977C111.85 337.527 111.718 338.042 111.453 338.523C111.197 339.005 110.79 339.393 110.23 339.687C109.68 339.982 108.983 340.129 108.138 340.129H106.415V344.077H104.352V333.795H108.138C108.934 333.795 109.611 333.932 110.171 334.207C110.731 334.482 111.148 334.86 111.423 335.342C111.708 335.823 111.85 336.368 111.85 336.977ZM108.05 338.464C108.619 338.464 109.042 338.337 109.317 338.081C109.592 337.816 109.729 337.448 109.729 336.977C109.729 335.975 109.169 335.474 108.05 335.474H106.415V338.464H108.05ZM120.901 339.82C120.901 340.114 120.881 340.379 120.842 340.615H114.876C114.925 341.204 115.131 341.666 115.495 342C115.858 342.334 116.305 342.501 116.835 342.501C117.601 342.501 118.146 342.172 118.47 341.514H120.695C120.459 342.299 120.007 342.948 119.339 343.458C118.672 343.959 117.852 344.209 116.879 344.209C116.094 344.209 115.387 344.038 114.758 343.694C114.139 343.34 113.653 342.844 113.3 342.206C112.956 341.568 112.784 340.831 112.784 339.996C112.784 339.152 112.956 338.41 113.3 337.772C113.644 337.134 114.125 336.643 114.743 336.299C115.362 335.955 116.074 335.783 116.879 335.783C117.655 335.783 118.348 335.95 118.956 336.284C119.575 336.618 120.051 337.095 120.385 337.713C120.729 338.322 120.901 339.024 120.901 339.82ZM118.765 339.23C118.755 338.7 118.564 338.278 118.19 337.964C117.817 337.64 117.361 337.478 116.82 337.478C116.31 337.478 115.878 337.635 115.524 337.949C115.18 338.253 114.969 338.681 114.891 339.23H118.765ZM125.529 344.209C124.861 344.209 124.262 344.092 123.732 343.856C123.202 343.61 122.779 343.281 122.465 342.869C122.161 342.457 121.994 342 121.964 341.499H124.041C124.081 341.813 124.233 342.074 124.498 342.28C124.773 342.486 125.112 342.589 125.514 342.589C125.907 342.589 126.212 342.511 126.428 342.353C126.654 342.196 126.766 341.995 126.766 341.749C126.766 341.484 126.629 341.288 126.354 341.16C126.089 341.023 125.662 340.875 125.072 340.718C124.464 340.571 123.963 340.419 123.57 340.262C123.187 340.105 122.853 339.864 122.568 339.54C122.293 339.216 122.156 338.779 122.156 338.229C122.156 337.777 122.283 337.365 122.539 336.991C122.804 336.618 123.177 336.324 123.658 336.108C124.149 335.892 124.724 335.783 125.382 335.783C126.354 335.783 127.13 336.029 127.709 336.52C128.289 337.001 128.608 337.654 128.667 338.479H126.693C126.663 338.155 126.526 337.9 126.28 337.713C126.045 337.517 125.726 337.419 125.323 337.419C124.95 337.419 124.66 337.487 124.454 337.625C124.257 337.762 124.159 337.954 124.159 338.199C124.159 338.474 124.297 338.685 124.572 338.833C124.847 338.97 125.274 339.113 125.853 339.26C126.442 339.407 126.929 339.559 127.312 339.717C127.695 339.874 128.024 340.119 128.298 340.453C128.583 340.777 128.731 341.209 128.74 341.749C128.74 342.221 128.608 342.643 128.343 343.016C128.087 343.389 127.714 343.684 127.223 343.9C126.742 344.106 126.177 344.209 125.529 344.209ZM129.903 339.967C129.903 339.142 130.065 338.41 130.389 337.772C130.723 337.134 131.17 336.643 131.73 336.299C132.299 335.955 132.933 335.783 133.63 335.783C134.239 335.783 134.769 335.906 135.221 336.152C135.682 336.397 136.051 336.707 136.326 337.08V335.916H138.403V344.077H136.326V342.884C136.06 343.267 135.692 343.586 135.221 343.841C134.759 344.087 134.224 344.209 133.615 344.209C132.928 344.209 132.299 344.033 131.73 343.679C131.17 343.326 130.723 342.83 130.389 342.191C130.065 341.543 129.903 340.802 129.903 339.967ZM136.326 339.996C136.326 339.496 136.227 339.068 136.031 338.715C135.835 338.352 135.569 338.077 135.236 337.89C134.902 337.694 134.543 337.595 134.16 337.595C133.777 337.595 133.424 337.689 133.1 337.875C132.775 338.062 132.51 338.337 132.304 338.7C132.108 339.054 132.009 339.476 132.009 339.967C132.009 340.458 132.108 340.89 132.304 341.263C132.51 341.627 132.775 341.907 133.1 342.103C133.433 342.299 133.787 342.398 134.16 342.398C134.543 342.398 134.902 342.304 135.236 342.118C135.569 341.921 135.835 341.646 136.031 341.293C136.227 340.929 136.326 340.497 136.326 339.996ZM144.939 335.798C145.911 335.798 146.697 336.108 147.296 336.726C147.895 337.335 148.195 338.19 148.195 339.289V344.077H146.132V339.569C146.132 338.921 145.97 338.425 145.646 338.081C145.322 337.728 144.88 337.551 144.321 337.551C143.751 337.551 143.299 337.728 142.965 338.081C142.641 338.425 142.479 338.921 142.479 339.569V344.077H140.417V335.916H142.479V336.932C142.754 336.579 143.103 336.304 143.525 336.108C143.957 335.901 144.429 335.798 144.939 335.798ZM157.216 344.18C156.499 344.18 155.851 344.057 155.272 343.812C154.702 343.566 154.25 343.213 153.916 342.751C153.582 342.29 153.411 341.745 153.401 341.116H155.61C155.64 341.538 155.787 341.872 156.052 342.118C156.327 342.363 156.7 342.486 157.172 342.486C157.653 342.486 158.031 342.373 158.306 342.147C158.581 341.911 158.719 341.607 158.719 341.234C158.719 340.929 158.625 340.679 158.439 340.483C158.252 340.286 158.016 340.134 157.732 340.026C157.457 339.908 157.074 339.78 156.583 339.643C155.915 339.447 155.37 339.255 154.947 339.068C154.535 338.872 154.177 338.582 153.872 338.199C153.578 337.807 153.43 337.286 153.43 336.638C153.43 336.029 153.582 335.499 153.887 335.047C154.191 334.595 154.619 334.251 155.168 334.016C155.718 333.77 156.347 333.648 157.054 333.648C158.115 333.648 158.974 333.908 159.632 334.428C160.3 334.939 160.668 335.656 160.737 336.579H158.468C158.449 336.225 158.296 335.936 158.011 335.71C157.737 335.474 157.368 335.356 156.907 335.356C156.504 335.356 156.18 335.459 155.934 335.666C155.699 335.872 155.581 336.171 155.581 336.564C155.581 336.839 155.669 337.07 155.846 337.257C156.033 337.433 156.259 337.581 156.524 337.698C156.799 337.807 157.182 337.934 157.673 338.081C158.34 338.278 158.886 338.474 159.308 338.671C159.73 338.867 160.093 339.162 160.398 339.555C160.702 339.947 160.855 340.463 160.855 341.101C160.855 341.651 160.712 342.162 160.427 342.633C160.143 343.105 159.725 343.483 159.175 343.768C158.625 344.043 157.972 344.18 157.216 344.18ZM170.229 339.82C170.229 340.114 170.209 340.379 170.17 340.615H164.204C164.253 341.204 164.459 341.666 164.823 342C165.186 342.334 165.633 342.501 166.163 342.501C166.929 342.501 167.474 342.172 167.798 341.514H170.023C169.787 342.299 169.335 342.948 168.667 343.458C168 343.959 167.18 344.209 166.207 344.209C165.422 344.209 164.715 344.038 164.086 343.694C163.467 343.34 162.981 342.844 162.628 342.206C162.284 341.568 162.112 340.831 162.112 339.996C162.112 339.152 162.284 338.41 162.628 337.772C162.971 337.134 163.453 336.643 164.071 336.299C164.69 335.955 165.402 335.783 166.207 335.783C166.983 335.783 167.675 335.95 168.284 336.284C168.903 336.618 169.379 337.095 169.713 337.713C170.057 338.322 170.229 339.024 170.229 339.82ZM168.093 339.23C168.083 338.7 167.892 338.278 167.518 337.964C167.145 337.64 166.689 337.478 166.148 337.478C165.638 337.478 165.206 337.635 164.852 337.949C164.508 338.253 164.297 338.681 164.219 339.23H168.093ZM176.566 344.077L173.796 340.6V344.077H171.734V333.176H173.796V339.378L176.536 335.916H179.217L175.623 340.011L179.247 344.077H176.566ZM179.806 339.967C179.806 339.142 179.968 338.41 180.292 337.772C180.626 337.134 181.073 336.643 181.633 336.299C182.203 335.955 182.836 335.783 183.533 335.783C184.142 335.783 184.672 335.906 185.124 336.152C185.586 336.397 185.954 336.707 186.229 337.08V335.916H188.306V344.077H186.229V342.884C185.964 343.267 185.596 343.586 185.124 343.841C184.663 344.087 184.127 344.209 183.519 344.209C182.831 344.209 182.203 344.033 181.633 343.679C181.073 343.326 180.626 342.83 180.292 342.191C179.968 341.543 179.806 340.802 179.806 339.967ZM186.229 339.996C186.229 339.496 186.131 339.068 185.934 338.715C185.738 338.352 185.473 338.077 185.139 337.89C184.805 337.694 184.447 337.595 184.064 337.595C183.681 337.595 183.327 337.689 183.003 337.875C182.679 338.062 182.414 338.337 182.207 338.7C182.011 339.054 181.913 339.476 181.913 339.967C181.913 340.458 182.011 340.89 182.207 341.263C182.414 341.627 182.679 341.907 183.003 342.103C183.337 342.299 183.69 342.398 184.064 342.398C184.447 342.398 184.805 342.304 185.139 342.118C185.473 341.921 185.738 341.646 185.934 341.293C186.131 340.929 186.229 340.497 186.229 339.996ZM192.383 337.183C192.648 336.751 192.991 336.412 193.414 336.166C193.846 335.921 194.337 335.798 194.887 335.798V337.964H194.342C193.694 337.964 193.203 338.116 192.869 338.42C192.545 338.725 192.383 339.255 192.383 340.011V344.077H190.32V335.916H192.383V337.183ZM195.746 339.967C195.746 339.142 195.908 338.41 196.232 337.772C196.566 337.134 197.012 336.643 197.572 336.299C198.142 335.955 198.775 335.783 199.472 335.783C200.081 335.783 200.612 335.906 201.063 336.152C201.525 336.397 201.893 336.707 202.168 337.08V335.916H204.245V344.077H202.168V342.884C201.903 343.267 201.535 343.586 201.063 343.841C200.602 344.087 200.067 344.209 199.458 344.209C198.77 344.209 198.142 344.033 197.572 343.679C197.012 343.326 196.566 342.83 196.232 342.191C195.908 341.543 195.746 340.802 195.746 339.967ZM202.168 339.996C202.168 339.496 202.07 339.068 201.874 338.715C201.677 338.352 201.412 338.077 201.078 337.89C200.744 337.694 200.386 337.595 200.003 337.595C199.62 337.595 199.266 337.689 198.942 337.875C198.618 338.062 198.353 338.337 198.147 338.7C197.95 339.054 197.852 339.476 197.852 339.967C197.852 340.458 197.95 340.89 198.147 341.263C198.353 341.627 198.618 341.907 198.942 342.103C199.276 342.299 199.63 342.398 200.003 342.398C200.386 342.398 200.744 342.304 201.078 342.118C201.412 341.921 201.677 341.646 201.874 341.293C202.07 340.929 202.168 340.497 202.168 339.996ZM210.782 335.798C211.754 335.798 212.54 336.108 213.139 336.726C213.738 337.335 214.037 338.19 214.037 339.289V344.077H211.975V339.569C211.975 338.921 211.813 338.425 211.489 338.081C211.165 337.728 210.723 337.551 210.163 337.551C209.593 337.551 209.142 337.728 208.808 338.081C208.484 338.425 208.322 338.921 208.322 339.569V344.077H206.259V335.916H208.322V336.932C208.597 336.579 208.945 336.304 209.368 336.108C209.8 335.901 210.271 335.798 210.782 335.798ZM219.195 335.783C219.804 335.783 220.339 335.906 220.801 336.152C221.262 336.387 221.626 336.697 221.891 337.08V335.916H223.968V344.136C223.968 344.892 223.815 345.565 223.511 346.154C223.207 346.753 222.75 347.224 222.141 347.568C221.532 347.922 220.796 348.098 219.931 348.098C218.773 348.098 217.82 347.828 217.074 347.288C216.337 346.748 215.92 346.012 215.822 345.079H217.869C217.977 345.452 218.208 345.746 218.562 345.962C218.925 346.188 219.362 346.301 219.873 346.301C220.472 346.301 220.958 346.12 221.331 345.756C221.704 345.403 221.891 344.863 221.891 344.136V342.869C221.626 343.252 221.257 343.571 220.786 343.826C220.324 344.082 219.794 344.209 219.195 344.209C218.508 344.209 217.879 344.033 217.309 343.679C216.74 343.326 216.288 342.83 215.954 342.191C215.63 341.543 215.468 340.802 215.468 339.967C215.468 339.142 215.63 338.41 215.954 337.772C216.288 337.134 216.735 336.643 217.295 336.299C217.864 335.955 218.498 335.783 219.195 335.783ZM221.891 339.996C221.891 339.496 221.792 339.068 221.596 338.715C221.4 338.352 221.134 338.077 220.801 337.89C220.467 337.694 220.108 337.595 219.725 337.595C219.342 337.595 218.989 337.689 218.665 337.875C218.341 338.062 218.075 338.337 217.869 338.7C217.673 339.054 217.575 339.476 217.575 339.967C217.575 340.458 217.673 340.89 217.869 341.263C218.075 341.627 218.341 341.907 218.665 342.103C218.999 342.299 219.352 342.398 219.725 342.398C220.108 342.398 220.467 342.304 220.801 342.118C221.134 341.921 221.4 341.646 221.596 341.293C221.792 340.929 221.891 340.497 221.891 339.996Z" fill="white"/>
<defs>
<filter id="filter0_d_317_3938" x="0.317307" y="0.317307" width="347.401" height="390.365" filterUnits="userSpaceOnUse" color-interpolation-filters="sRGB">
<feFlood flood-opacity="0" result="BackgroundImageFix"/>
<feColorMatrix in="SourceAlpha" type="matrix" values="0 0 0 0 0 0 0 0 0 0 0 0 0 0 0 0 0 0 127 0" result="hardAlpha"/>
<feOffset/>
<feGaussianBlur stdDeviation="1.84135"/>
<feComposite in2="hardAlpha" operator="out"/>
<feColorMatrix type="matrix" values="0 0 0 0 0.192157 0 0 0 0 0.188235 0 0 0 0 0.254902 0 0 0 0.34 0"/>
<feBlend mode="normal" in2="BackgroundImageFix" result="effect1_dropShadow_317_3938"/>
<feBlend mode="normal" in="SourceGraphic" in2="effect1_dropShadow_317_3938" result="shape"/>
</filter>
</defs>
</svg>
