<svg width="176" height="22" viewBox="0 0 176 22" fill="none" xmlns="http://www.w3.org/2000/svg">
<g clip-path="url(#clip0_176_2572)">
<path d="M11 0C8.01488 0 7.6395 0.01375 6.46663 0.066C5.29375 0.121 4.49487 0.30525 3.795 0.5775C3.06054 0.852948 2.39544 1.28617 1.84663 1.84663C1.28617 2.39544 0.852948 3.06054 0.5775 3.795C0.30525 4.4935 0.119625 5.29375 0.066 6.4625C0.01375 7.63812 0 8.01213 0 11.0014C0 13.9879 0.01375 14.3619 0.066 15.5347C0.121 16.7063 0.30525 17.5051 0.5775 18.205C0.859375 18.9282 1.23475 19.5415 1.84663 20.1534C2.45713 20.7652 3.07037 21.142 3.79363 21.4225C4.49487 21.6947 5.29238 21.8804 6.46388 21.934C7.63813 21.9862 8.01213 22 11 22C13.9879 22 14.3605 21.9862 15.5347 21.934C16.7049 21.879 17.5065 21.6947 18.2064 21.4225C18.9403 21.1469 19.605 20.7137 20.1534 20.1534C20.7652 19.5415 21.1406 18.9282 21.4225 18.205C21.6934 17.5051 21.879 16.7063 21.934 15.5347C21.9862 14.3619 22 13.9879 22 11C22 8.01213 21.9862 7.63813 21.934 6.46388C21.879 5.29375 21.6934 4.4935 21.4225 3.795C21.1471 3.06054 20.7138 2.39544 20.1534 1.84663C19.6046 1.28617 18.9395 0.852948 18.205 0.5775C17.5037 0.30525 16.7035 0.119625 15.5334 0.066C14.3591 0.01375 13.9865 0 10.9973 0H11ZM10.0141 1.98275H11.0014C13.9384 1.98275 14.2863 1.99238 15.4454 2.046C16.5179 2.09413 17.1009 2.27425 17.4886 2.42412C18.0015 2.6235 18.3686 2.86275 18.7536 3.24775C19.1386 3.63275 19.3765 3.9985 19.5759 4.51275C19.7271 4.89913 19.9059 5.48213 19.954 6.55463C20.0076 7.71375 20.0186 8.06163 20.0186 10.9973C20.0186 13.9329 20.0076 14.2821 19.954 15.4412C19.9059 16.5138 19.7257 17.0954 19.5759 17.4831C19.3983 17.9601 19.117 18.3917 18.7522 18.7467C18.3672 19.1318 18.0015 19.3696 17.4873 19.569C17.1023 19.7203 16.5192 19.899 15.4454 19.9485C14.2863 20.0007 13.9384 20.0131 11.0014 20.0131C8.06438 20.0131 7.71513 20.0007 6.556 19.9485C5.4835 19.899 4.90188 19.7203 4.51412 19.569C4.03677 19.392 3.6047 19.1111 3.24913 18.7467C2.88375 18.3915 2.60195 17.9594 2.42412 17.4818C2.27425 17.0954 2.09413 16.5124 2.046 15.4399C1.99375 14.2808 1.98275 13.9329 1.98275 10.9945C1.98275 8.05612 1.99375 7.711 2.046 6.55187C2.0955 5.47937 2.27425 4.89638 2.4255 4.50863C2.62488 3.99575 2.86412 3.62862 3.24913 3.24362C3.63412 2.85862 3.99988 2.62075 4.51412 2.42138C4.90188 2.27013 5.4835 2.09138 6.556 2.04188C7.57075 1.99513 7.964 1.98138 10.0141 1.98V1.98275ZM16.8726 3.80875C16.6993 3.80875 16.5276 3.84289 16.3675 3.90923C16.2073 3.97557 16.0618 4.0728 15.9392 4.19537C15.8167 4.31794 15.7194 4.46346 15.6531 4.62361C15.5868 4.78376 15.5526 4.95541 15.5526 5.12875C15.5526 5.30209 15.5868 5.47374 15.6531 5.63389C15.7194 5.79404 15.8167 5.93956 15.9392 6.06213C16.0618 6.1847 16.2073 6.28193 16.3675 6.34827C16.5276 6.41461 16.6993 6.44875 16.8726 6.44875C17.2227 6.44875 17.5585 6.30968 17.806 6.06213C18.0536 5.81458 18.1926 5.47884 18.1926 5.12875C18.1926 4.77866 18.0536 4.44292 17.806 4.19537C17.5585 3.94782 17.2227 3.80875 16.8726 3.80875ZM11.0014 5.3515C10.2521 5.33981 9.50798 5.47729 8.81234 5.75594C8.11671 6.0346 7.48346 6.44885 6.94946 6.97458C6.41546 7.50032 5.99138 8.12703 5.70191 8.81823C5.41244 9.50944 5.26336 10.2513 5.26336 11.0007C5.26336 11.7501 5.41244 12.4919 5.70191 13.1831C5.99138 13.8743 6.41546 14.5011 6.94946 15.0268C7.48346 15.5525 8.11671 15.9668 8.81234 16.2454C9.50798 16.5241 10.2521 16.6616 11.0014 16.6499C12.4844 16.6267 13.8988 16.0214 14.9393 14.9645C15.9799 13.9076 16.5631 12.4839 16.5631 11.0007C16.5631 9.51751 15.9799 8.09382 14.9393 7.03691C13.8988 5.97999 12.4844 5.37464 11.0014 5.3515ZM11.0014 7.33288C11.4829 7.33288 11.9598 7.42773 12.4047 7.61202C12.8496 7.79631 13.2539 8.06643 13.5944 8.40695C13.9349 8.74747 14.2051 9.15174 14.3894 9.59665C14.5736 10.0416 14.6685 10.5184 14.6685 11C14.6685 11.4816 14.5736 11.9584 14.3894 12.4033C14.2051 12.8483 13.9349 13.2525 13.5944 13.593C13.2539 13.9336 12.8496 14.2037 12.4047 14.388C11.9598 14.5723 11.4829 14.6671 11.0014 14.6671C10.0288 14.6671 9.09605 14.2808 8.40833 13.593C7.72061 12.9053 7.33425 11.9726 7.33425 11C7.33425 10.0274 7.72061 9.09467 8.40833 8.40695C9.09605 7.71923 10.0288 7.33288 11.0014 7.33288Z" fill="white"/>
</g>
<path d="M43.732 6.456C44.796 6.456 45.7153 6.652 46.49 7.044C47.2647 7.436 47.8527 7.98667 48.254 8.696C48.6647 9.396 48.87 10.2127 48.87 11.146C48.87 11.8927 48.7393 12.6067 48.478 13.288C48.226 13.9693 47.8573 14.5247 47.372 14.954C46.896 15.3833 46.3313 15.598 45.678 15.598C45.202 15.598 44.8287 15.4953 44.558 15.29C44.2873 15.0753 44.1193 14.7767 44.054 14.394C43.7647 14.7673 43.4007 15.0613 42.962 15.276C42.5233 15.4907 42.066 15.598 41.59 15.598C40.8713 15.598 40.3067 15.3833 39.896 14.954C39.4947 14.5153 39.294 13.9227 39.294 13.176C39.294 12.4667 39.4387 11.804 39.728 11.188C40.0267 10.572 40.442 10.082 40.974 9.718C41.506 9.34467 42.1033 9.158 42.766 9.158C43.578 9.158 44.1473 9.43333 44.474 9.984L44.6 9.284H45.986L45.286 13.288C45.258 13.484 45.244 13.6567 45.244 13.806C45.244 14.0487 45.2907 14.2307 45.384 14.352C45.4867 14.4733 45.664 14.534 45.916 14.534C46.2707 14.534 46.574 14.3613 46.826 14.016C47.078 13.6613 47.2647 13.2273 47.386 12.714C47.5167 12.2007 47.582 11.7013 47.582 11.216C47.582 10.0307 47.2367 9.12533 46.546 8.5C45.8553 7.87467 44.852 7.562 43.536 7.562C42.4347 7.562 41.4453 7.82333 40.568 8.346C39.7 8.86867 39.0187 9.58733 38.524 10.502C38.0293 11.4167 37.782 12.434 37.782 13.554C37.782 14.7487 38.1367 15.6587 38.846 16.284C39.5553 16.9093 40.568 17.222 41.884 17.222C42.7707 17.222 43.5453 17.0587 44.208 16.732L44.418 17.796C43.5687 18.16 42.6167 18.342 41.562 18.342C40.5447 18.342 39.6533 18.1507 38.888 17.768C38.1227 17.3853 37.53 16.8393 37.11 16.13C36.69 15.43 36.48 14.6133 36.48 13.68C36.48 12.3453 36.788 11.1273 37.404 10.026C38.0293 8.92467 38.8927 8.05667 39.994 7.422C41.0953 6.778 42.3413 6.456 43.732 6.456ZM42.08 14.366C42.472 14.366 42.8267 14.254 43.144 14.03C43.4707 13.7967 43.7273 13.4933 43.914 13.12C44.1007 12.7373 44.194 12.3313 44.194 11.902C44.194 11.454 44.068 11.09 43.816 10.81C43.5733 10.5207 43.228 10.376 42.78 10.376C42.3787 10.376 42.024 10.502 41.716 10.754C41.4173 10.9967 41.184 11.314 41.016 11.706C40.8573 12.098 40.778 12.5087 40.778 12.938C40.778 13.3767 40.8853 13.7267 41.1 13.988C41.3147 14.24 41.6413 14.366 42.08 14.366ZM52.5015 8.906C52.7348 8.514 53.0428 8.21067 53.4255 7.996C53.8175 7.772 54.2795 7.66 54.8115 7.66V9.312H54.4055C53.7801 9.312 53.3041 9.47067 52.9775 9.788C52.6601 10.1053 52.5015 10.656 52.5015 11.44V15.5H50.9055V7.786H52.5015V8.906ZM65.6165 7.66C66.2232 7.66 66.7645 7.786 67.2405 8.038C67.7258 8.29 68.1038 8.66333 68.3745 9.158C68.6545 9.65267 68.7945 10.25 68.7945 10.95V15.5H67.2125V11.188C67.2125 10.4973 67.0398 9.97 66.6945 9.606C66.3492 9.23267 65.8778 9.046 65.2805 9.046C64.6832 9.046 64.2072 9.23267 63.8525 9.606C63.5072 9.97 63.3345 10.4973 63.3345 11.188V15.5H61.7525V11.188C61.7525 10.4973 61.5798 9.97 61.2345 9.606C60.8892 9.23267 60.4178 9.046 59.8205 9.046C59.2232 9.046 58.7472 9.23267 58.3925 9.606C58.0472 9.97 57.8745 10.4973 57.8745 11.188V15.5H56.2785V7.786H57.8745V8.668C58.1358 8.35067 58.4672 8.10333 58.8685 7.926C59.2698 7.74867 59.6992 7.66 60.1565 7.66C60.7725 7.66 61.3232 7.79067 61.8085 8.052C62.2938 8.31333 62.6672 8.69133 62.9285 9.186C63.1618 8.71933 63.5258 8.35067 64.0205 8.08C64.5152 7.8 65.0472 7.66 65.6165 7.66ZM70.2934 11.608C70.2934 10.8333 70.4521 10.1473 70.7694 9.55C71.0961 8.95267 71.5347 8.49067 72.0854 8.164C72.6454 7.828 73.2614 7.66 73.9334 7.66C74.5401 7.66 75.0674 7.78133 75.5154 8.024C75.9727 8.25733 76.3367 8.55133 76.6074 8.906V7.786H78.2174V15.5H76.6074V14.352C76.3367 14.716 75.9681 15.0193 75.5014 15.262C75.0347 15.5047 74.5027 15.626 73.9054 15.626C73.2427 15.626 72.6361 15.458 72.0854 15.122C71.5347 14.7767 71.0961 14.3007 70.7694 13.694C70.4521 13.078 70.2934 12.3827 70.2934 11.608ZM76.6074 11.636C76.6074 11.104 76.4954 10.642 76.2714 10.25C76.0567 9.858 75.7721 9.55933 75.4174 9.354C75.0627 9.14867 74.6801 9.046 74.2694 9.046C73.8587 9.046 73.4761 9.14867 73.1214 9.354C72.7667 9.55 72.4774 9.844 72.2534 10.236C72.0387 10.6187 71.9314 11.076 71.9314 11.608C71.9314 12.14 72.0387 12.6067 72.2534 13.008C72.4774 13.4093 72.7667 13.7173 73.1214 13.932C73.4854 14.1373 73.8681 14.24 74.2694 14.24C74.6801 14.24 75.0627 14.1373 75.4174 13.932C75.7721 13.7267 76.0567 13.428 76.2714 13.036C76.4954 12.6347 76.6074 12.168 76.6074 11.636ZM82.1757 9.088V13.358C82.1757 13.6473 82.241 13.8573 82.3717 13.988C82.5117 14.1093 82.745 14.17 83.0717 14.17H84.0517V15.5H82.7917C82.073 15.5 81.5223 15.332 81.1397 14.996C80.757 14.66 80.5657 14.114 80.5657 13.358V9.088H79.6557V7.786H80.5657V5.868H82.1757V7.786H84.0517V9.088H82.1757ZM88.8687 15.626C88.1407 15.626 87.4827 15.4627 86.8947 15.136C86.3067 14.8 85.8447 14.3333 85.5087 13.736C85.1727 13.1293 85.0047 12.4293 85.0047 11.636C85.0047 10.852 85.1773 10.1567 85.5227 9.55C85.868 8.94333 86.3393 8.47667 86.9367 8.15C87.534 7.82333 88.2013 7.66 88.9387 7.66C89.676 7.66 90.3433 7.82333 90.9407 8.15C91.538 8.47667 92.0093 8.94333 92.3547 9.55C92.7 10.1567 92.8727 10.852 92.8727 11.636C92.8727 12.42 92.6953 13.1153 92.3407 13.722C91.986 14.3287 91.5007 14.8 90.8847 15.136C90.278 15.4627 89.606 15.626 88.8687 15.626ZM88.8687 14.24C89.2793 14.24 89.662 14.142 90.0167 13.946C90.3807 13.75 90.6747 13.456 90.8987 13.064C91.1227 12.672 91.2347 12.196 91.2347 11.636C91.2347 11.076 91.1273 10.6047 90.9127 10.222C90.698 9.83 90.4133 9.536 90.0587 9.34C89.704 9.144 89.3213 9.046 88.9107 9.046C88.5 9.046 88.1173 9.144 87.7627 9.34C87.4173 9.536 87.142 9.83 86.9367 10.222C86.7313 10.6047 86.6287 11.076 86.6287 11.636C86.6287 12.4667 86.8387 13.1107 87.2587 13.568C87.688 14.016 88.2247 14.24 88.8687 14.24ZM101.436 7.786V15.5H99.8404V14.59C99.5884 14.9073 99.2571 15.1593 98.8464 15.346C98.4451 15.5233 98.0157 15.612 97.5584 15.612C96.9517 15.612 96.4057 15.486 95.9204 15.234C95.4444 14.982 95.0664 14.6087 94.7864 14.114C94.5157 13.6193 94.3804 13.022 94.3804 12.322V7.786H95.9624V12.084C95.9624 12.7747 96.1351 13.3067 96.4804 13.68C96.8257 14.044 97.2971 14.226 97.8944 14.226C98.4917 14.226 98.9631 14.044 99.3084 13.68C99.6631 13.3067 99.8404 12.7747 99.8404 12.084V7.786H101.436ZM105.138 8.906C105.372 8.514 105.68 8.21067 106.062 7.996C106.454 7.772 106.916 7.66 107.448 7.66V9.312H107.042C106.417 9.312 105.941 9.47067 105.614 9.788C105.297 10.1053 105.138 10.656 105.138 11.44V15.5H103.542V7.786H105.138V8.906ZM112.261 15.626C111.533 15.626 110.875 15.4627 110.287 15.136C109.699 14.8 109.237 14.3333 108.901 13.736C108.565 13.1293 108.397 12.4293 108.397 11.636C108.397 10.852 108.57 10.1567 108.915 9.55C109.261 8.94333 109.732 8.47667 110.329 8.15C110.927 7.82333 111.594 7.66 112.331 7.66C113.069 7.66 113.736 7.82333 114.333 8.15C114.931 8.47667 115.402 8.94333 115.747 9.55C116.093 10.1567 116.265 10.852 116.265 11.636C116.265 12.42 116.088 13.1153 115.733 13.722C115.379 14.3287 114.893 14.8 114.277 15.136C113.671 15.4627 112.999 15.626 112.261 15.626ZM112.261 14.24C112.672 14.24 113.055 14.142 113.409 13.946C113.773 13.75 114.067 13.456 114.291 13.064C114.515 12.672 114.627 12.196 114.627 11.636C114.627 11.076 114.52 10.6047 114.305 10.222C114.091 9.83 113.806 9.536 113.451 9.34C113.097 9.144 112.714 9.046 112.303 9.046C111.893 9.046 111.51 9.144 111.155 9.34C110.81 9.536 110.535 9.83 110.329 10.222C110.124 10.6047 110.021 11.076 110.021 11.636C110.021 12.4667 110.231 13.1107 110.651 13.568C111.081 14.016 111.617 14.24 112.261 14.24ZM119.439 8.906C119.672 8.514 119.98 8.21067 120.363 7.996C120.755 7.772 121.217 7.66 121.749 7.66V9.312H121.343C120.718 9.312 120.242 9.47067 119.915 9.788C119.598 10.1053 119.439 10.656 119.439 11.44V15.5H117.843V7.786H119.439V8.906ZM126.324 7.66C126.921 7.66 127.449 7.78133 127.906 8.024C128.373 8.25733 128.737 8.55133 128.998 8.906V7.786H130.608V15.626C130.608 16.3353 130.459 16.9653 130.16 17.516C129.861 18.076 129.427 18.5147 128.858 18.832C128.298 19.1493 127.626 19.308 126.842 19.308C125.797 19.308 124.929 19.0607 124.238 18.566C123.547 18.0807 123.155 17.418 123.062 16.578H124.644C124.765 16.9793 125.022 17.3013 125.414 17.544C125.815 17.796 126.291 17.922 126.842 17.922C127.486 17.922 128.004 17.726 128.396 17.334C128.797 16.942 128.998 16.3727 128.998 15.626V14.338C128.727 14.702 128.359 15.01 127.892 15.262C127.435 15.5047 126.912 15.626 126.324 15.626C125.652 15.626 125.036 15.458 124.476 15.122C123.925 14.7767 123.487 14.3007 123.16 13.694C122.843 13.078 122.684 12.3827 122.684 11.608C122.684 10.8333 122.843 10.1473 123.16 9.55C123.487 8.95267 123.925 8.49067 124.476 8.164C125.036 7.828 125.652 7.66 126.324 7.66ZM128.998 11.636C128.998 11.104 128.886 10.642 128.662 10.25C128.447 9.858 128.163 9.55933 127.808 9.354C127.453 9.14867 127.071 9.046 126.66 9.046C126.249 9.046 125.867 9.14867 125.512 9.354C125.157 9.55 124.868 9.844 124.644 10.236C124.429 10.6187 124.322 11.076 124.322 11.608C124.322 12.14 124.429 12.6067 124.644 13.008C124.868 13.4093 125.157 13.7173 125.512 13.932C125.876 14.1373 126.259 14.24 126.66 14.24C127.071 14.24 127.453 14.1373 127.808 13.932C128.163 13.7267 128.447 13.428 128.662 13.036C128.886 12.6347 128.998 12.168 128.998 11.636ZM132.172 11.608C132.172 10.8333 132.331 10.1473 132.648 9.55C132.975 8.95267 133.414 8.49067 133.964 8.164C134.524 7.828 135.14 7.66 135.812 7.66C136.419 7.66 136.946 7.78133 137.394 8.024C137.852 8.25733 138.216 8.55133 138.486 8.906V7.786H140.096V15.5H138.486V14.352C138.216 14.716 137.847 15.0193 137.38 15.262C136.914 15.5047 136.382 15.626 135.784 15.626C135.122 15.626 134.515 15.458 133.964 15.122C133.414 14.7767 132.975 14.3007 132.648 13.694C132.331 13.078 132.172 12.3827 132.172 11.608ZM138.486 11.636C138.486 11.104 138.374 10.642 138.15 10.25C137.936 9.858 137.651 9.55933 137.296 9.354C136.942 9.14867 136.559 9.046 136.148 9.046C135.738 9.046 135.355 9.14867 135 9.354C134.646 9.55 134.356 9.844 134.132 10.236C133.918 10.6187 133.81 11.076 133.81 11.608C133.81 12.14 133.918 12.6067 134.132 13.008C134.356 13.4093 134.646 13.7173 135 13.932C135.364 14.1373 135.747 14.24 136.148 14.24C136.559 14.24 136.942 14.1373 137.296 13.932C137.651 13.7267 137.936 13.428 138.15 13.036C138.374 12.6347 138.486 12.168 138.486 11.636ZM146.085 7.66C146.691 7.66 147.233 7.786 147.709 8.038C148.194 8.29 148.572 8.66333 148.843 9.158C149.113 9.65267 149.249 10.25 149.249 10.95V15.5H147.667V11.188C147.667 10.4973 147.494 9.97 147.149 9.606C146.803 9.23267 146.332 9.046 145.735 9.046C145.137 9.046 144.661 9.23267 144.307 9.606C143.961 9.97 143.789 10.4973 143.789 11.188V15.5H142.193V7.786H143.789V8.668C144.05 8.35067 144.381 8.10333 144.783 7.926C145.193 7.74867 145.627 7.66 146.085 7.66ZM152.096 6.764C151.807 6.764 151.564 6.666 151.368 6.47C151.172 6.274 151.074 6.03133 151.074 5.742C151.074 5.45267 151.172 5.21 151.368 5.014C151.564 4.818 151.807 4.72 152.096 4.72C152.376 4.72 152.614 4.818 152.81 5.014C153.006 5.21 153.104 5.45267 153.104 5.742C153.104 6.03133 153.006 6.274 152.81 6.47C152.614 6.666 152.376 6.764 152.096 6.764ZM152.88 7.786V15.5H151.284V7.786H152.88ZM156.39 14.198H159.89V15.5H154.542V14.198L158.056 9.088H154.542V7.786H159.89V9.088L156.39 14.198ZM168.636 11.454C168.636 11.7433 168.617 12.0047 168.58 12.238H162.686C162.732 12.854 162.961 13.3487 163.372 13.722C163.782 14.0953 164.286 14.282 164.884 14.282C165.742 14.282 166.349 13.9227 166.704 13.204H168.426C168.192 13.9133 167.768 14.4967 167.152 14.954C166.545 15.402 165.789 15.626 164.884 15.626C164.146 15.626 163.484 15.4627 162.896 15.136C162.317 14.8 161.86 14.3333 161.524 13.736C161.197 13.1293 161.034 12.4293 161.034 11.636C161.034 10.8427 161.192 10.1473 161.51 9.55C161.836 8.94333 162.289 8.47667 162.868 8.15C163.456 7.82333 164.128 7.66 164.884 7.66C165.612 7.66 166.26 7.81867 166.83 8.136C167.399 8.45333 167.842 8.90133 168.16 9.48C168.477 10.0493 168.636 10.7073 168.636 11.454ZM166.97 10.95C166.96 10.362 166.75 9.89067 166.34 9.536C165.929 9.18133 165.42 9.004 164.814 9.004C164.263 9.004 163.792 9.18133 163.4 9.536C163.008 9.88133 162.774 10.3527 162.7 10.95H166.97ZM171.802 8.906C172.036 8.514 172.344 8.21067 172.726 7.996C173.118 7.772 173.58 7.66 174.112 7.66V9.312H173.706C173.081 9.312 172.605 9.47067 172.278 9.788C171.961 10.1053 171.802 10.656 171.802 11.44V15.5H170.206V7.786H171.802V8.906Z" fill="white"/>
<defs>
<clipPath id="clip0_176_2572">
<rect width="22" height="22" fill="white"/>
</clipPath>
</defs>
</svg>
