<svg width="172" height="23" viewBox="0 0 172 23" fill="none" xmlns="http://www.w3.org/2000/svg">
<g clip-path="url(#clip0_176_2576)">
<path d="M12.375 0H15.0975C15.2955 0.983125 15.84 2.22338 16.7956 3.454C17.7306 4.65988 18.9709 5.5 20.625 5.5V8.25C18.2146 8.25 16.4038 7.13075 15.125 5.73513V15.125C15.125 16.4847 14.7218 17.814 13.9664 18.9445C13.2109 20.0751 12.1372 20.9563 10.881 21.4767C9.62471 21.997 8.24238 22.1332 6.90876 21.8679C5.57514 21.6026 4.35013 20.9478 3.38864 19.9864C2.42716 19.0249 1.77238 17.7999 1.5071 16.4662C1.24183 15.1326 1.37798 13.7503 1.89833 12.4941C2.41868 11.2378 3.29987 10.1641 4.43046 9.40865C5.56105 8.65321 6.89026 8.25 8.25 8.25V11C7.43416 11 6.63663 11.2419 5.95828 11.6952C5.27992 12.1484 4.75121 12.7927 4.439 13.5464C4.12679 14.3002 4.0451 15.1296 4.20426 15.9297C4.36343 16.7299 4.7563 17.4649 5.33319 18.0418C5.91008 18.6187 6.64508 19.0116 7.44526 19.1707C8.24543 19.3299 9.07483 19.2482 9.82857 18.936C10.5823 18.6238 11.2266 18.0951 11.6798 17.4167C12.1331 16.7384 12.375 15.9408 12.375 15.125V0Z" fill="white"/>
</g>
<path d="M39.732 7.456C40.796 7.456 41.7153 7.652 42.49 8.044C43.2647 8.436 43.8527 8.98667 44.254 9.696C44.6647 10.396 44.87 11.2127 44.87 12.146C44.87 12.8927 44.7393 13.6067 44.478 14.288C44.226 14.9693 43.8573 15.5247 43.372 15.954C42.896 16.3833 42.3313 16.598 41.678 16.598C41.202 16.598 40.8287 16.4953 40.558 16.29C40.2873 16.0753 40.1193 15.7767 40.054 15.394C39.7647 15.7673 39.4007 16.0613 38.962 16.276C38.5233 16.4907 38.066 16.598 37.59 16.598C36.8713 16.598 36.3067 16.3833 35.896 15.954C35.4947 15.5153 35.294 14.9227 35.294 14.176C35.294 13.4667 35.4387 12.804 35.728 12.188C36.0267 11.572 36.442 11.082 36.974 10.718C37.506 10.3447 38.1033 10.158 38.766 10.158C39.578 10.158 40.1473 10.4333 40.474 10.984L40.6 10.284H41.986L41.286 14.288C41.258 14.484 41.244 14.6567 41.244 14.806C41.244 15.0487 41.2907 15.2307 41.384 15.352C41.4867 15.4733 41.664 15.534 41.916 15.534C42.2707 15.534 42.574 15.3613 42.826 15.016C43.078 14.6613 43.2647 14.2273 43.386 13.714C43.5167 13.2007 43.582 12.7013 43.582 12.216C43.582 11.0307 43.2367 10.1253 42.546 9.5C41.8553 8.87467 40.852 8.562 39.536 8.562C38.4347 8.562 37.4453 8.82333 36.568 9.346C35.7 9.86867 35.0187 10.5873 34.524 11.502C34.0293 12.4167 33.782 13.434 33.782 14.554C33.782 15.7487 34.1367 16.6587 34.846 17.284C35.5553 17.9093 36.568 18.222 37.884 18.222C38.7707 18.222 39.5453 18.0587 40.208 17.732L40.418 18.796C39.5687 19.16 38.6167 19.342 37.562 19.342C36.5447 19.342 35.6533 19.1507 34.888 18.768C34.1227 18.3853 33.53 17.8393 33.11 17.13C32.69 16.43 32.48 15.6133 32.48 14.68C32.48 13.3453 32.788 12.1273 33.404 11.026C34.0293 9.92467 34.8927 9.05667 35.994 8.422C37.0953 7.778 38.3413 7.456 39.732 7.456ZM38.08 15.366C38.472 15.366 38.8267 15.254 39.144 15.03C39.4707 14.7967 39.7273 14.4933 39.914 14.12C40.1007 13.7373 40.194 13.3313 40.194 12.902C40.194 12.454 40.068 12.09 39.816 11.81C39.5733 11.5207 39.228 11.376 38.78 11.376C38.3787 11.376 38.024 11.502 37.716 11.754C37.4173 11.9967 37.184 12.314 37.016 12.706C36.8573 13.098 36.778 13.5087 36.778 13.938C36.778 14.3767 36.8853 14.7267 37.1 14.988C37.3147 15.24 37.6413 15.366 38.08 15.366ZM48.5015 9.906C48.7348 9.514 49.0428 9.21067 49.4255 8.996C49.8175 8.772 50.2795 8.66 50.8115 8.66V10.312H50.4055C49.7801 10.312 49.3041 10.4707 48.9775 10.788C48.6601 11.1053 48.5015 11.656 48.5015 12.44V16.5H46.9055V8.786H48.5015V9.906ZM61.6165 8.66C62.2232 8.66 62.7645 8.786 63.2405 9.038C63.7258 9.29 64.1038 9.66333 64.3745 10.158C64.6545 10.6527 64.7945 11.25 64.7945 11.95V16.5H63.2125V12.188C63.2125 11.4973 63.0398 10.97 62.6945 10.606C62.3492 10.2327 61.8778 10.046 61.2805 10.046C60.6832 10.046 60.2072 10.2327 59.8525 10.606C59.5072 10.97 59.3345 11.4973 59.3345 12.188V16.5H57.7525V12.188C57.7525 11.4973 57.5798 10.97 57.2345 10.606C56.8892 10.2327 56.4178 10.046 55.8205 10.046C55.2232 10.046 54.7472 10.2327 54.3925 10.606C54.0472 10.97 53.8745 11.4973 53.8745 12.188V16.5H52.2785V8.786H53.8745V9.668C54.1358 9.35067 54.4672 9.10333 54.8685 8.926C55.2698 8.74867 55.6992 8.66 56.1565 8.66C56.7725 8.66 57.3232 8.79067 57.8085 9.052C58.2938 9.31333 58.6672 9.69133 58.9285 10.186C59.1618 9.71933 59.5258 9.35067 60.0205 9.08C60.5152 8.8 61.0472 8.66 61.6165 8.66ZM66.2934 12.608C66.2934 11.8333 66.4521 11.1473 66.7694 10.55C67.0961 9.95267 67.5347 9.49067 68.0854 9.164C68.6454 8.828 69.2614 8.66 69.9334 8.66C70.5401 8.66 71.0674 8.78133 71.5154 9.024C71.9727 9.25733 72.3367 9.55133 72.6074 9.906V8.786H74.2174V16.5H72.6074V15.352C72.3367 15.716 71.9681 16.0193 71.5014 16.262C71.0347 16.5047 70.5027 16.626 69.9054 16.626C69.2427 16.626 68.6361 16.458 68.0854 16.122C67.5347 15.7767 67.0961 15.3007 66.7694 14.694C66.4521 14.078 66.2934 13.3827 66.2934 12.608ZM72.6074 12.636C72.6074 12.104 72.4954 11.642 72.2714 11.25C72.0567 10.858 71.7721 10.5593 71.4174 10.354C71.0627 10.1487 70.6801 10.046 70.2694 10.046C69.8587 10.046 69.4761 10.1487 69.1214 10.354C68.7667 10.55 68.4774 10.844 68.2534 11.236C68.0387 11.6187 67.9314 12.076 67.9314 12.608C67.9314 13.14 68.0387 13.6067 68.2534 14.008C68.4774 14.4093 68.7667 14.7173 69.1214 14.932C69.4854 15.1373 69.8681 15.24 70.2694 15.24C70.6801 15.24 71.0627 15.1373 71.4174 14.932C71.7721 14.7267 72.0567 14.428 72.2714 14.036C72.4954 13.6347 72.6074 13.168 72.6074 12.636ZM78.1757 10.088V14.358C78.1757 14.6473 78.241 14.8573 78.3717 14.988C78.5117 15.1093 78.745 15.17 79.0717 15.17H80.0517V16.5H78.7917C78.073 16.5 77.5223 16.332 77.1397 15.996C76.757 15.66 76.5657 15.114 76.5657 14.358V10.088H75.6557V8.786H76.5657V6.868H78.1757V8.786H80.0517V10.088H78.1757ZM84.8687 16.626C84.1407 16.626 83.4827 16.4627 82.8947 16.136C82.3067 15.8 81.8447 15.3333 81.5087 14.736C81.1727 14.1293 81.0047 13.4293 81.0047 12.636C81.0047 11.852 81.1773 11.1567 81.5227 10.55C81.868 9.94333 82.3393 9.47667 82.9367 9.15C83.534 8.82333 84.2013 8.66 84.9387 8.66C85.676 8.66 86.3433 8.82333 86.9407 9.15C87.538 9.47667 88.0093 9.94333 88.3547 10.55C88.7 11.1567 88.8727 11.852 88.8727 12.636C88.8727 13.42 88.6953 14.1153 88.3407 14.722C87.986 15.3287 87.5007 15.8 86.8847 16.136C86.278 16.4627 85.606 16.626 84.8687 16.626ZM84.8687 15.24C85.2793 15.24 85.662 15.142 86.0167 14.946C86.3807 14.75 86.6747 14.456 86.8987 14.064C87.1227 13.672 87.2347 13.196 87.2347 12.636C87.2347 12.076 87.1273 11.6047 86.9127 11.222C86.698 10.83 86.4133 10.536 86.0587 10.34C85.704 10.144 85.3213 10.046 84.9107 10.046C84.5 10.046 84.1173 10.144 83.7627 10.34C83.4173 10.536 83.142 10.83 82.9367 11.222C82.7313 11.6047 82.6287 12.076 82.6287 12.636C82.6287 13.4667 82.8387 14.1107 83.2587 14.568C83.688 15.016 84.2247 15.24 84.8687 15.24ZM97.4364 8.786V16.5H95.8404V15.59C95.5884 15.9073 95.2571 16.1593 94.8464 16.346C94.4451 16.5233 94.0157 16.612 93.5584 16.612C92.9517 16.612 92.4057 16.486 91.9204 16.234C91.4444 15.982 91.0664 15.6087 90.7864 15.114C90.5157 14.6193 90.3804 14.022 90.3804 13.322V8.786H91.9624V13.084C91.9624 13.7747 92.1351 14.3067 92.4804 14.68C92.8257 15.044 93.2971 15.226 93.8944 15.226C94.4917 15.226 94.9631 15.044 95.3084 14.68C95.6631 14.3067 95.8404 13.7747 95.8404 13.084V8.786H97.4364ZM101.138 9.906C101.372 9.514 101.68 9.21067 102.062 8.996C102.454 8.772 102.916 8.66 103.448 8.66V10.312H103.042C102.417 10.312 101.941 10.4707 101.614 10.788C101.297 11.1053 101.138 11.656 101.138 12.44V16.5H99.5422V8.786H101.138V9.906ZM108.261 16.626C107.533 16.626 106.875 16.4627 106.287 16.136C105.699 15.8 105.237 15.3333 104.901 14.736C104.565 14.1293 104.397 13.4293 104.397 12.636C104.397 11.852 104.57 11.1567 104.915 10.55C105.261 9.94333 105.732 9.47667 106.329 9.15C106.927 8.82333 107.594 8.66 108.331 8.66C109.069 8.66 109.736 8.82333 110.333 9.15C110.931 9.47667 111.402 9.94333 111.747 10.55C112.093 11.1567 112.265 11.852 112.265 12.636C112.265 13.42 112.088 14.1153 111.733 14.722C111.379 15.3287 110.893 15.8 110.277 16.136C109.671 16.4627 108.999 16.626 108.261 16.626ZM108.261 15.24C108.672 15.24 109.055 15.142 109.409 14.946C109.773 14.75 110.067 14.456 110.291 14.064C110.515 13.672 110.627 13.196 110.627 12.636C110.627 12.076 110.52 11.6047 110.305 11.222C110.091 10.83 109.806 10.536 109.451 10.34C109.097 10.144 108.714 10.046 108.303 10.046C107.893 10.046 107.51 10.144 107.155 10.34C106.81 10.536 106.535 10.83 106.329 11.222C106.124 11.6047 106.021 12.076 106.021 12.636C106.021 13.4667 106.231 14.1107 106.651 14.568C107.081 15.016 107.617 15.24 108.261 15.24ZM115.439 9.906C115.672 9.514 115.98 9.21067 116.363 8.996C116.755 8.772 117.217 8.66 117.749 8.66V10.312H117.343C116.718 10.312 116.242 10.4707 115.915 10.788C115.598 11.1053 115.439 11.656 115.439 12.44V16.5H113.843V8.786H115.439V9.906ZM122.324 8.66C122.921 8.66 123.449 8.78133 123.906 9.024C124.373 9.25733 124.737 9.55133 124.998 9.906V8.786H126.608V16.626C126.608 17.3353 126.459 17.9653 126.16 18.516C125.861 19.076 125.427 19.5147 124.858 19.832C124.298 20.1493 123.626 20.308 122.842 20.308C121.797 20.308 120.929 20.0607 120.238 19.566C119.547 19.0807 119.155 18.418 119.062 17.578H120.644C120.765 17.9793 121.022 18.3013 121.414 18.544C121.815 18.796 122.291 18.922 122.842 18.922C123.486 18.922 124.004 18.726 124.396 18.334C124.797 17.942 124.998 17.3727 124.998 16.626V15.338C124.727 15.702 124.359 16.01 123.892 16.262C123.435 16.5047 122.912 16.626 122.324 16.626C121.652 16.626 121.036 16.458 120.476 16.122C119.925 15.7767 119.487 15.3007 119.16 14.694C118.843 14.078 118.684 13.3827 118.684 12.608C118.684 11.8333 118.843 11.1473 119.16 10.55C119.487 9.95267 119.925 9.49067 120.476 9.164C121.036 8.828 121.652 8.66 122.324 8.66ZM124.998 12.636C124.998 12.104 124.886 11.642 124.662 11.25C124.447 10.858 124.163 10.5593 123.808 10.354C123.453 10.1487 123.071 10.046 122.66 10.046C122.249 10.046 121.867 10.1487 121.512 10.354C121.157 10.55 120.868 10.844 120.644 11.236C120.429 11.6187 120.322 12.076 120.322 12.608C120.322 13.14 120.429 13.6067 120.644 14.008C120.868 14.4093 121.157 14.7173 121.512 14.932C121.876 15.1373 122.259 15.24 122.66 15.24C123.071 15.24 123.453 15.1373 123.808 14.932C124.163 14.7267 124.447 14.428 124.662 14.036C124.886 13.6347 124.998 13.168 124.998 12.636ZM128.172 12.608C128.172 11.8333 128.331 11.1473 128.648 10.55C128.975 9.95267 129.414 9.49067 129.964 9.164C130.524 8.828 131.14 8.66 131.812 8.66C132.419 8.66 132.946 8.78133 133.394 9.024C133.852 9.25733 134.216 9.55133 134.486 9.906V8.786H136.096V16.5H134.486V15.352C134.216 15.716 133.847 16.0193 133.38 16.262C132.914 16.5047 132.382 16.626 131.784 16.626C131.122 16.626 130.515 16.458 129.964 16.122C129.414 15.7767 128.975 15.3007 128.648 14.694C128.331 14.078 128.172 13.3827 128.172 12.608ZM134.486 12.636C134.486 12.104 134.374 11.642 134.15 11.25C133.936 10.858 133.651 10.5593 133.296 10.354C132.942 10.1487 132.559 10.046 132.148 10.046C131.738 10.046 131.355 10.1487 131 10.354C130.646 10.55 130.356 10.844 130.132 11.236C129.918 11.6187 129.81 12.076 129.81 12.608C129.81 13.14 129.918 13.6067 130.132 14.008C130.356 14.4093 130.646 14.7173 131 14.932C131.364 15.1373 131.747 15.24 132.148 15.24C132.559 15.24 132.942 15.1373 133.296 14.932C133.651 14.7267 133.936 14.428 134.15 14.036C134.374 13.6347 134.486 13.168 134.486 12.636ZM142.085 8.66C142.691 8.66 143.233 8.786 143.709 9.038C144.194 9.29 144.572 9.66333 144.843 10.158C145.113 10.6527 145.249 11.25 145.249 11.95V16.5H143.667V12.188C143.667 11.4973 143.494 10.97 143.149 10.606C142.803 10.2327 142.332 10.046 141.735 10.046C141.137 10.046 140.661 10.2327 140.307 10.606C139.961 10.97 139.789 11.4973 139.789 12.188V16.5H138.193V8.786H139.789V9.668C140.05 9.35067 140.381 9.10333 140.783 8.926C141.193 8.74867 141.627 8.66 142.085 8.66ZM148.096 7.764C147.807 7.764 147.564 7.666 147.368 7.47C147.172 7.274 147.074 7.03133 147.074 6.742C147.074 6.45267 147.172 6.21 147.368 6.014C147.564 5.818 147.807 5.72 148.096 5.72C148.376 5.72 148.614 5.818 148.81 6.014C149.006 6.21 149.104 6.45267 149.104 6.742C149.104 7.03133 149.006 7.274 148.81 7.47C148.614 7.666 148.376 7.764 148.096 7.764ZM148.88 8.786V16.5H147.284V8.786H148.88ZM152.39 15.198H155.89V16.5H150.542V15.198L154.056 10.088H150.542V8.786H155.89V10.088L152.39 15.198ZM164.636 12.454C164.636 12.7433 164.617 13.0047 164.58 13.238H158.686C158.732 13.854 158.961 14.3487 159.372 14.722C159.782 15.0953 160.286 15.282 160.884 15.282C161.742 15.282 162.349 14.9227 162.704 14.204H164.426C164.192 14.9133 163.768 15.4967 163.152 15.954C162.545 16.402 161.789 16.626 160.884 16.626C160.146 16.626 159.484 16.4627 158.896 16.136C158.317 15.8 157.86 15.3333 157.524 14.736C157.197 14.1293 157.034 13.4293 157.034 12.636C157.034 11.8427 157.192 11.1473 157.51 10.55C157.836 9.94333 158.289 9.47667 158.868 9.15C159.456 8.82333 160.128 8.66 160.884 8.66C161.612 8.66 162.26 8.81867 162.83 9.136C163.399 9.45333 163.842 9.90133 164.16 10.48C164.477 11.0493 164.636 11.7073 164.636 12.454ZM162.97 11.95C162.96 11.362 162.75 10.8907 162.34 10.536C161.929 10.1813 161.42 10.004 160.814 10.004C160.263 10.004 159.792 10.1813 159.4 10.536C159.008 10.8813 158.774 11.3527 158.7 11.95H162.97ZM167.802 9.906C168.036 9.514 168.344 9.21067 168.726 8.996C169.118 8.772 169.58 8.66 170.112 8.66V10.312H169.706C169.081 10.312 168.605 10.4707 168.278 10.788C167.961 11.1053 167.802 11.656 167.802 12.44V16.5H166.206V8.786H167.802V9.906Z" fill="white"/>
<defs>
<clipPath id="clip0_176_2576">
<rect width="22" height="22" fill="white"/>
</clipPath>
</defs>
</svg>
