<svg width="1033" height="143" viewBox="0 0 1033 143" fill="none" xmlns="http://www.w3.org/2000/svg">
<circle cx="25" cy="25" r="25" fill="#797979" fill-opacity="0.06"/>
<path d="M22.0927 18.768V16.7926H26.5671V34H24.3775V18.768H22.0927Z" fill="#5DB075"/>
<circle cx="300" cy="25" r="25" fill="#797979" fill-opacity="0.06"/>
<path d="M294.369 32.2626C296.384 30.6442 297.963 29.3193 299.105 28.288C300.248 27.2408 301.208 26.1539 301.985 25.0274C302.778 23.885 303.175 22.7664 303.175 21.6716C303.175 20.6403 302.921 19.8311 302.413 19.244C301.922 18.6411 301.12 18.3396 300.01 18.3396C298.931 18.3396 298.09 18.6807 297.487 19.363C296.9 20.0294 296.582 20.9259 296.535 22.0524H294.44C294.504 20.2753 295.043 18.9029 296.059 17.935C297.074 16.9671 298.383 16.4832 299.986 16.4832C301.62 16.4832 302.913 16.9354 303.865 17.8398C304.833 18.7442 305.317 19.9897 305.317 21.5764C305.317 22.8933 304.92 24.1785 304.127 25.432C303.35 26.6696 302.461 27.7644 301.461 28.7164C300.462 29.6525 299.185 30.7473 297.63 32.0008H305.817V33.8096H294.369V32.2626Z" fill="#5DB075"/>
<circle cx="576" cy="25" r="25" fill="#797979" fill-opacity="0.06"/>
<path d="M570.92 21.1242C571.032 19.6645 571.595 18.5221 572.61 17.697C573.626 16.8719 574.943 16.4594 576.561 16.4594C577.64 16.4594 578.568 16.6577 579.346 17.0544C580.139 17.4352 580.734 17.9588 581.131 18.6252C581.543 19.2916 581.749 20.0453 581.749 20.8862C581.749 21.8699 581.464 22.7188 580.893 23.4328C580.337 24.1468 579.607 24.6069 578.703 24.8132V24.9322C579.734 25.1861 580.552 25.6859 581.154 26.4316C581.757 27.1773 582.059 28.1531 582.059 29.359C582.059 30.2634 581.853 31.0805 581.44 31.8104C581.028 32.5244 580.409 33.0877 579.584 33.5002C578.759 33.9127 577.767 34.119 576.609 34.119C574.927 34.119 573.546 33.6827 572.467 32.81C571.389 31.9215 570.786 30.668 570.659 29.0496H572.753C572.864 30.0016 573.253 30.7791 573.919 31.382C574.586 31.9849 575.474 32.2864 576.585 32.2864C577.696 32.2864 578.536 32.0008 579.108 31.4296C579.695 30.8425 579.988 30.0889 579.988 29.1686C579.988 27.9786 579.592 27.1218 578.798 26.5982C578.005 26.0746 576.807 25.8128 575.204 25.8128H574.657V24.004H575.228C576.688 23.9881 577.791 23.7501 578.536 23.29C579.282 22.814 579.655 22.0841 579.655 21.1004C579.655 20.2595 579.377 19.5851 578.822 19.0774C578.283 18.5697 577.505 18.3158 576.49 18.3158C575.506 18.3158 574.713 18.5697 574.11 19.0774C573.507 19.5851 573.15 20.2674 573.039 21.1242H570.92Z" fill="#5DB075"/>
<circle cx="845" cy="25" r="25" fill="#797979" fill-opacity="0.06"/>
<path d="M838.968 30.1682V28.526L847.322 16.9592H849.916V28.288H852.296V30.1682H849.916V34H847.774V30.1682H838.968ZM847.869 19.2202L841.467 28.288H847.869V19.2202Z" fill="#5DB075"/>
<path d="M6.3732 98.2256C5.48333 98.2256 4.66867 98.0627 3.9292 97.7368C3.18973 97.3984 2.56307 96.9409 2.0492 96.3644C1.53533 95.7879 1.1656 95.1424 0.94 94.428L2.538 93.77C2.8764 94.6724 3.37773 95.368 4.042 95.8568C4.7188 96.3331 5.5084 96.5712 6.4108 96.5712C6.96227 96.5712 7.4448 96.4835 7.8584 96.308C8.272 96.1325 8.5916 95.8881 8.8172 95.5748C9.05533 95.2489 9.1744 94.8729 9.1744 94.4468C9.1744 93.8577 9.0052 93.394 8.6668 93.0556C8.34093 92.7047 7.8584 92.4415 7.2192 92.266L4.6436 91.4764C3.6284 91.1631 2.85133 90.668 2.3124 89.9912C1.77347 89.3144 1.504 88.5373 1.504 87.66C1.504 86.8955 1.68573 86.2249 2.0492 85.6484C2.4252 85.0593 2.93907 84.6019 3.5908 84.276C4.25507 83.9376 5.00707 83.7684 5.8468 83.7684C6.68653 83.7684 7.4448 83.9188 8.1216 84.2196C8.81093 84.5204 9.39373 84.9277 9.87 85.4416C10.3463 85.9429 10.6972 86.5195 10.9228 87.1712L9.3436 87.8292C9.0428 87.0396 8.5916 86.4443 7.99 86.0432C7.3884 85.6296 6.68027 85.4228 5.8656 85.4228C5.36427 85.4228 4.91933 85.5105 4.5308 85.686C4.1548 85.8489 3.86027 86.0933 3.6472 86.4192C3.44667 86.7325 3.3464 87.1085 3.3464 87.5472C3.3464 88.0611 3.50933 88.5185 3.8352 88.9196C4.16107 89.3207 4.65613 89.6277 5.3204 89.8408L7.6704 90.5364C8.77333 90.8748 9.6068 91.3573 10.1708 91.984C10.7348 92.6107 11.0168 93.3877 11.0168 94.3152C11.0168 95.0797 10.8163 95.7565 10.4152 96.3456C10.0267 96.9347 9.48147 97.3984 8.7796 97.7368C8.09027 98.0627 7.28813 98.2256 6.3732 98.2256ZM17.2863 98.2256C16.5594 98.2256 15.9014 98.0564 15.3123 97.718C14.7358 97.3796 14.2846 96.9096 13.9587 96.308C13.6454 95.6939 13.4887 94.992 13.4887 94.2024V87.8668H15.2371V94.0144C15.2371 94.5157 15.3374 94.9544 15.5379 95.3304C15.751 95.7064 16.0392 96.0009 16.4027 96.214C16.7787 96.4271 17.2048 96.5336 17.6811 96.5336C18.1574 96.5336 18.5772 96.4271 18.9407 96.214C19.3167 96.0009 19.605 95.6939 19.8055 95.2928C20.0186 94.8917 20.1251 94.4155 20.1251 93.864V87.8668H21.8923V98H20.1815V96.026L20.4635 96.1952C20.2254 96.8344 19.818 97.3357 19.2415 97.6992C18.6775 98.0501 18.0258 98.2256 17.2863 98.2256ZM30.0342 98.2256C29.2195 98.2256 28.4738 98.0439 27.797 97.6804C27.1327 97.3169 26.6188 96.8031 26.2554 96.1388L26.4998 95.838V98H24.789V83.7684H26.5374V90.0476L26.2742 89.6152C26.6502 89.0136 27.164 88.5373 27.8158 88.1864C28.4675 87.8229 29.2132 87.6412 30.053 87.6412C31.0055 87.6412 31.8578 87.8731 32.6098 88.3368C33.3743 88.8005 33.9759 89.4335 34.4146 90.2356C34.8532 91.0252 35.0726 91.9276 35.0726 92.9428C35.0726 93.9329 34.8532 94.8291 34.4146 95.6312C33.9759 96.4333 33.3743 97.0663 32.6098 97.53C31.8578 97.9937 30.9992 98.2256 30.0342 98.2256ZM29.9026 96.5336C30.5418 96.5336 31.112 96.3769 31.6134 96.0636C32.1147 95.7503 32.5032 95.3241 32.779 94.7852C33.0672 94.2337 33.2114 93.6196 33.2114 92.9428C33.2114 92.2409 33.0672 91.6268 32.779 91.1004C32.5032 90.5615 32.1147 90.1353 31.6134 89.822C31.112 89.4961 30.5418 89.3332 29.9026 89.3332C29.2634 89.3332 28.6868 89.4899 28.173 89.8032C27.6716 90.1165 27.2706 90.5489 26.9698 91.1004C26.6815 91.6393 26.5374 92.2535 26.5374 92.9428C26.5374 93.6196 26.6815 94.2337 26.9698 94.7852C27.2706 95.3241 27.6716 95.7503 28.173 96.0636C28.6868 96.3769 29.2634 96.5336 29.9026 96.5336ZM37.5531 98V87.8668H39.2639V89.9348L39.0195 89.6152C39.2702 88.976 39.6713 88.4872 40.2227 88.1488C40.7742 87.8104 41.3946 87.6412 42.0839 87.6412C42.8735 87.6412 43.5817 87.8605 44.2083 88.2992C44.8475 88.7379 45.2862 89.3144 45.5243 90.0288L45.0355 90.0476C45.2987 89.258 45.7437 88.6627 46.3703 88.2616C46.997 87.848 47.6926 87.6412 48.4571 87.6412C49.159 87.6412 49.7919 87.8041 50.3559 88.13C50.9325 88.4559 51.3899 88.9071 51.7283 89.4836C52.0667 90.0601 52.2359 90.7119 52.2359 91.4388V98H50.4687V92.0028C50.4687 91.4388 50.3685 90.9625 50.1679 90.574C49.9674 90.1855 49.6917 89.8847 49.3407 89.6716C49.0023 89.446 48.6013 89.3332 48.1375 89.3332C47.6863 89.3332 47.279 89.446 46.9155 89.6716C46.5646 89.8847 46.2826 90.1917 46.0695 90.5928C45.869 90.9813 45.7687 91.4513 45.7687 92.0028V98H44.0015V92.0028C44.0015 91.4388 43.9013 90.9625 43.7007 90.574C43.5002 90.1855 43.2245 89.8847 42.8735 89.6716C42.5351 89.446 42.1341 89.3332 41.6703 89.3332C41.2191 89.3332 40.8118 89.446 40.4483 89.6716C40.0974 89.8847 39.8154 90.1917 39.6023 90.5928C39.4018 90.9813 39.3015 91.4513 39.3015 92.0028V98H37.5531ZM54.9072 98V87.8668H56.6556V98H54.9072ZM54.9072 86.25V83.994H56.6556V86.25H54.9072ZM63.6737 98.1128C62.6836 98.1128 61.919 97.8308 61.3801 97.2668C60.8537 96.7028 60.5905 95.9069 60.5905 94.8792V89.54H58.7481V87.8668H59.1241C59.5753 87.8668 59.9325 87.7289 60.1957 87.4532C60.4589 87.1775 60.5905 86.814 60.5905 86.3628V85.5356H62.3389V87.8668H64.6137V89.54H62.3389V94.8228C62.3389 95.1612 62.389 95.4557 62.4893 95.7064C62.6021 95.9571 62.7838 96.1576 63.0345 96.308C63.2852 96.4459 63.6173 96.5148 64.0309 96.5148C64.1186 96.5148 64.2252 96.5085 64.3505 96.496C64.4884 96.4835 64.6137 96.4709 64.7265 96.4584V98C64.5636 98.0376 64.3818 98.0627 64.1813 98.0752C63.9808 98.1003 63.8116 98.1128 63.6737 98.1128ZM74.3396 98V91.5892L69.4892 83.994H71.576L75.6368 90.3672H74.8848L78.9268 83.994H81.0136L76.2008 91.5892V98H74.3396ZM85.7528 98.2256C84.7752 98.2256 83.8916 98 83.102 97.5488C82.3124 97.0851 81.6858 96.4521 81.222 95.65C80.7583 94.8479 80.5264 93.9392 80.5264 92.924C80.5264 91.9088 80.752 91.0064 81.2032 90.2168C81.667 89.4272 82.2936 88.8005 83.0832 88.3368C83.8728 87.8731 84.7627 87.6412 85.7528 87.6412C86.7304 87.6412 87.614 87.8731 88.4036 88.3368C89.1932 88.788 89.8136 89.4084 90.2648 90.198C90.7286 90.9876 90.9604 91.8963 90.9604 92.924C90.9604 93.9517 90.7223 94.8667 90.246 95.6688C89.7698 96.4584 89.1368 97.0851 88.3472 97.5488C87.5702 98 86.7054 98.2256 85.7528 98.2256ZM85.7528 96.5336C86.3795 96.5336 86.9435 96.3769 87.4448 96.0636C87.9587 95.7503 88.3598 95.3179 88.648 94.7664C88.9488 94.2149 89.0992 93.6008 89.0992 92.924C89.0992 92.2347 88.9488 91.6268 88.648 91.1004C88.3598 90.5615 87.9587 90.1353 87.4448 89.822C86.9435 89.4961 86.3795 89.3332 85.7528 89.3332C85.1136 89.3332 84.5371 89.4961 84.0232 89.822C83.5219 90.1353 83.1208 90.5615 82.82 91.1004C82.5192 91.6268 82.3688 92.2347 82.3688 92.924C82.3688 93.6008 82.5192 94.2149 82.82 94.7664C83.1208 95.3179 83.5219 95.7503 84.0232 96.0636C84.5371 96.3769 85.1136 96.5336 85.7528 96.5336ZM97.0196 98.2256C96.2927 98.2256 95.6347 98.0564 95.0456 97.718C94.4691 97.3796 94.0179 96.9096 93.692 96.308C93.3787 95.6939 93.222 94.992 93.222 94.2024V87.8668H94.9704V94.0144C94.9704 94.5157 95.0707 94.9544 95.2712 95.3304C95.4843 95.7064 95.7725 96.0009 96.136 96.214C96.512 96.4271 96.9381 96.5336 97.4144 96.5336C97.8907 96.5336 98.3105 96.4271 98.674 96.214C99.05 96.0009 99.3383 95.6939 99.5388 95.2928C99.7519 94.8917 99.8584 94.4155 99.8584 93.864V87.8668H101.626V98H99.9148V96.026L100.197 96.1952C99.9587 96.8344 99.5513 97.3357 98.9748 97.6992C98.4108 98.0501 97.7591 98.2256 97.0196 98.2256ZM104.522 98V87.8668H106.233V89.728L106.045 89.4648C106.283 88.8883 106.647 88.4621 107.135 88.1864C107.624 87.8981 108.22 87.754 108.921 87.754H109.542V89.4084H108.658C107.944 89.4084 107.367 89.634 106.929 90.0852C106.49 90.5239 106.271 91.1505 106.271 91.9652V98H104.522ZM1.5604 132V117.994H6.5048C7.43227 117.994 8.24693 118.169 8.9488 118.52C9.65067 118.871 10.1959 119.373 10.5844 120.024C10.9855 120.676 11.186 121.441 11.186 122.318C11.186 123.308 10.9353 124.148 10.434 124.837C9.93267 125.527 9.25587 126.022 8.4036 126.322L11.656 132H9.5128L6.0912 125.928L7.3132 126.642H3.4028V132H1.5604ZM3.4028 124.95H6.5612C7.11267 124.95 7.5952 124.843 8.0088 124.63C8.4224 124.417 8.742 124.11 8.9676 123.709C9.20573 123.308 9.3248 122.844 9.3248 122.318C9.3248 121.779 9.20573 121.315 8.9676 120.927C8.742 120.526 8.4224 120.219 8.0088 120.006C7.5952 119.793 7.11267 119.686 6.5612 119.686H3.4028V124.95ZM17.8255 132.226C16.8479 132.226 15.9768 131.994 15.2123 131.53C14.4478 131.066 13.8462 130.433 13.4075 129.631C12.9688 128.817 12.7495 127.908 12.7495 126.905C12.7495 125.89 12.9626 124.988 13.3887 124.198C13.8274 123.408 14.4164 122.788 15.1559 122.337C15.9079 121.873 16.7476 121.641 17.6751 121.641C18.4271 121.641 19.0914 121.779 19.6679 122.055C20.257 122.318 20.752 122.681 21.1531 123.145C21.5667 123.596 21.88 124.117 22.0931 124.706C22.3187 125.282 22.4315 125.884 22.4315 126.51C22.4315 126.648 22.4189 126.805 22.3939 126.98C22.3814 127.143 22.3626 127.3 22.3375 127.45H14.0279V125.946H21.3223L20.4951 126.623C20.6079 125.971 20.5452 125.389 20.3071 124.875C20.069 124.361 19.718 123.954 19.2543 123.653C18.7906 123.352 18.2642 123.202 17.6751 123.202C17.086 123.202 16.5471 123.352 16.0583 123.653C15.5695 123.954 15.1872 124.386 14.9115 124.95C14.6483 125.501 14.5418 126.159 14.5919 126.924C14.5418 127.663 14.6546 128.315 14.9303 128.879C15.2186 129.431 15.6196 129.863 16.1335 130.176C16.6599 130.477 17.2302 130.628 17.8443 130.628C18.5211 130.628 19.0914 130.471 19.5551 130.158C20.0188 129.844 20.3948 129.443 20.6831 128.954L22.1495 129.706C21.949 130.17 21.6356 130.596 21.2095 130.985C20.7959 131.361 20.3008 131.662 19.7243 131.887C19.1603 132.113 18.5274 132.226 17.8255 132.226ZM33.0019 135.76V129.838L33.2839 130.139C32.933 130.803 32.4191 131.317 31.7423 131.68C31.0781 132.044 30.3323 132.226 29.5051 132.226C28.5526 132.226 27.6941 131.994 26.9295 131.53C26.1775 131.066 25.5822 130.433 25.1435 129.631C24.7049 128.829 24.4855 127.933 24.4855 126.943C24.4855 125.928 24.7049 125.025 25.1435 124.236C25.5822 123.433 26.1775 122.801 26.9295 122.337C27.6941 121.873 28.5526 121.641 29.5051 121.641C30.3449 121.641 31.0906 121.823 31.7423 122.186C32.3941 122.537 32.9079 123.014 33.2839 123.615L33.0583 124.048V121.867H34.7691V135.76H33.0019ZM29.6555 130.534C30.2947 130.534 30.865 130.377 31.3663 130.064C31.8677 129.75 32.2625 129.324 32.5507 128.785C32.8515 128.234 33.0019 127.62 33.0019 126.943C33.0019 126.253 32.8515 125.639 32.5507 125.1C32.2625 124.549 31.8677 124.117 31.3663 123.803C30.865 123.49 30.2947 123.333 29.6555 123.333C29.0289 123.333 28.4586 123.496 27.9447 123.822C27.4434 124.135 27.0486 124.561 26.7603 125.1C26.4721 125.627 26.3279 126.241 26.3279 126.943C26.3279 127.62 26.4721 128.234 26.7603 128.785C27.0486 129.324 27.4434 129.75 27.9447 130.064C28.4461 130.377 29.0163 130.534 29.6555 130.534ZM41.2541 132.226C40.5272 132.226 39.8692 132.056 39.2801 131.718C38.7036 131.38 38.2524 130.91 37.9265 130.308C37.6132 129.694 37.4565 128.992 37.4565 128.202V121.867H39.2049V128.014C39.2049 128.516 39.3052 128.954 39.5057 129.33C39.7188 129.706 40.007 130.001 40.3705 130.214C40.7465 130.427 41.1726 130.534 41.6489 130.534C42.1252 130.534 42.545 130.427 42.9085 130.214C43.2845 130.001 43.5728 129.694 43.7733 129.293C43.9864 128.892 44.0929 128.415 44.0929 127.864V121.867H45.8601V132H44.1493V130.026L44.4313 130.195C44.1932 130.834 43.7858 131.336 43.2093 131.699C42.6453 132.05 41.9936 132.226 41.2541 132.226ZM53.4192 132.226C52.4416 132.226 51.5705 131.994 50.806 131.53C50.0414 131.066 49.4398 130.433 49.0012 129.631C48.5625 128.817 48.3432 127.908 48.3432 126.905C48.3432 125.89 48.5562 124.988 48.9824 124.198C49.421 123.408 50.0101 122.788 50.7496 122.337C51.5016 121.873 52.3413 121.641 53.2688 121.641C54.0208 121.641 54.685 121.779 55.2616 122.055C55.8506 122.318 56.3457 122.681 56.7468 123.145C57.1604 123.596 57.4737 124.117 57.6868 124.706C57.9124 125.282 58.0252 125.884 58.0252 126.51C58.0252 126.648 58.0126 126.805 57.9876 126.98C57.975 127.143 57.9562 127.3 57.9312 127.45H49.6216V125.946H56.916L56.0888 126.623C56.2016 125.971 56.1389 125.389 55.9008 124.875C55.6626 124.361 55.3117 123.954 54.848 123.653C54.3842 123.352 53.8578 123.202 53.2688 123.202C52.6797 123.202 52.1408 123.352 51.652 123.653C51.1632 123.954 50.7809 124.386 50.5052 124.95C50.242 125.501 50.1354 126.159 50.1856 126.924C50.1354 127.663 50.2482 128.315 50.524 128.879C50.8122 129.431 51.2133 129.863 51.7272 130.176C52.2536 130.477 52.8238 130.628 53.438 130.628C54.1148 130.628 54.685 130.471 55.1488 130.158C55.6125 129.844 55.9885 129.443 56.2768 128.954L57.7432 129.706C57.5426 130.17 57.2293 130.596 56.8032 130.985C56.3896 131.361 55.8945 131.662 55.318 131.887C54.754 132.113 54.121 132.226 53.4192 132.226ZM64.1212 132.226C63.106 132.226 62.2224 131.975 61.4704 131.474C60.7184 130.972 60.1857 130.295 59.8724 129.443L61.2636 128.766C61.5519 129.368 61.9467 129.844 62.448 130.195C62.9493 130.546 63.5071 130.722 64.1212 130.722C64.6727 130.722 65.1301 130.59 65.4936 130.327C65.8571 130.064 66.0388 129.719 66.0388 129.293C66.0388 128.992 65.9511 128.754 65.7756 128.578C65.6127 128.39 65.4121 128.246 65.174 128.146C64.9359 128.033 64.7165 127.952 64.516 127.902L62.9932 127.469C62.0783 127.206 61.4077 126.83 60.9816 126.341C60.568 125.852 60.3612 125.282 60.3612 124.63C60.3612 124.029 60.5116 123.509 60.8124 123.07C61.1257 122.619 61.5456 122.268 62.072 122.017C62.6109 121.767 63.2125 121.641 63.8768 121.641C64.7667 121.641 65.5625 121.867 66.2644 122.318C66.9788 122.769 67.4864 123.402 67.7872 124.217L66.3584 124.875C66.1328 124.348 65.7944 123.935 65.3432 123.634C64.892 123.321 64.3844 123.164 63.8204 123.164C63.3065 123.164 62.8992 123.296 62.5984 123.559C62.2976 123.809 62.1472 124.129 62.1472 124.518C62.1472 124.806 62.2224 125.044 62.3728 125.232C62.5232 125.407 62.7049 125.545 62.918 125.646C63.1311 125.733 63.3379 125.809 63.5384 125.871L65.1928 126.36C66.02 126.598 66.6592 126.968 67.1104 127.469C67.5741 127.971 67.806 128.572 67.806 129.274C67.806 129.838 67.6493 130.346 67.336 130.797C67.0227 131.248 66.5903 131.599 66.0388 131.85C65.4873 132.1 64.8481 132.226 64.1212 132.226ZM74.4 132.113C73.4098 132.113 72.6453 131.831 72.1064 131.267C71.58 130.703 71.3168 129.907 71.3168 128.879V123.54H69.4744V121.867H69.8504C70.3016 121.867 70.6588 121.729 70.922 121.453C71.1852 121.177 71.3168 120.814 71.3168 120.363V119.536H73.0652V121.867H75.34V123.54H73.0652V128.823C73.0652 129.161 73.1153 129.456 73.2156 129.706C73.3284 129.957 73.5101 130.158 73.7608 130.308C74.0114 130.446 74.3436 130.515 74.7572 130.515C74.8449 130.515 74.9514 130.509 75.0768 130.496C75.2146 130.483 75.34 130.471 75.4528 130.458V132C75.2898 132.038 75.1081 132.063 74.9076 132.075C74.707 132.1 74.5378 132.113 74.4 132.113Z" fill="#2C3E51"/>
<path d="M281.636 98.2256C280.621 98.2256 279.719 98.0125 278.929 97.5864C278.152 97.1603 277.544 96.5775 277.106 95.838C276.679 95.086 276.466 94.2337 276.466 93.2812V83.994H278.328V93.2436C278.328 93.8828 278.465 94.4531 278.741 94.9544C279.029 95.4432 279.418 95.8255 279.907 96.1012C280.408 96.3769 280.985 96.5148 281.636 96.5148C282.288 96.5148 282.858 96.3769 283.347 96.1012C283.849 95.8255 284.237 95.4432 284.513 94.9544C284.801 94.4531 284.945 93.8828 284.945 93.2436V83.994H286.806V93.2812C286.806 94.2337 286.587 95.086 286.148 95.838C285.722 96.5775 285.121 97.1603 284.344 97.5864C283.567 98.0125 282.664 98.2256 281.636 98.2256ZM289.815 101.76V87.8668H291.526V90.0476L291.301 89.6152C291.677 89.0136 292.19 88.5373 292.842 88.1864C293.494 87.8229 294.24 87.6412 295.079 87.6412C296.032 87.6412 296.884 87.8731 297.636 88.3368C298.401 88.8005 299.002 89.4335 299.441 90.2356C299.88 91.0252 300.099 91.9276 300.099 92.9428C300.099 93.9329 299.88 94.8291 299.441 95.6312C299.002 96.4333 298.401 97.0663 297.636 97.53C296.884 97.9937 296.026 98.2256 295.061 98.2256C294.246 98.2256 293.5 98.0439 292.823 97.6804C292.159 97.3169 291.645 96.8031 291.282 96.1388L291.564 95.838V101.76H289.815ZM294.929 96.5336C295.568 96.5336 296.138 96.3769 296.64 96.0636C297.141 95.7503 297.53 95.3241 297.805 94.7852C298.094 94.2337 298.238 93.6196 298.238 92.9428C298.238 92.2409 298.094 91.6268 297.805 91.1004C297.53 90.5615 297.141 90.1353 296.64 89.822C296.138 89.4961 295.568 89.3332 294.929 89.3332C294.29 89.3332 293.713 89.4899 293.199 89.8032C292.698 90.1165 292.297 90.5489 291.996 91.1004C291.708 91.6393 291.564 92.2535 291.564 92.9428C291.564 93.6196 291.708 94.2337 291.996 94.7852C292.297 95.3241 292.698 95.7503 293.199 96.0636C293.713 96.3769 294.29 96.5336 294.929 96.5336ZM302.58 98V83.7684H304.328V98H302.58ZM312.042 98.2256C311.064 98.2256 310.181 98 309.391 97.5488C308.601 97.0851 307.975 96.4521 307.511 95.65C307.047 94.8479 306.815 93.9392 306.815 92.924C306.815 91.9088 307.041 91.0064 307.492 90.2168C307.956 89.4272 308.583 88.8005 309.372 88.3368C310.162 87.8731 311.052 87.6412 312.042 87.6412C313.019 87.6412 313.903 87.8731 314.693 88.3368C315.482 88.788 316.103 89.4084 316.554 90.198C317.017 90.9876 317.249 91.8963 317.249 92.924C317.249 93.9517 317.011 94.8667 316.535 95.6688C316.059 96.4584 315.426 97.0851 314.636 97.5488C313.859 98 312.994 98.2256 312.042 98.2256ZM312.042 96.5336C312.668 96.5336 313.232 96.3769 313.734 96.0636C314.248 95.7503 314.649 95.3179 314.937 94.7664C315.238 94.2149 315.388 93.6008 315.388 92.924C315.388 92.2347 315.238 91.6268 314.937 91.1004C314.649 90.5615 314.248 90.1353 313.734 89.822C313.232 89.4961 312.668 89.3332 312.042 89.3332C311.403 89.3332 310.826 89.4961 310.312 89.822C309.811 90.1353 309.41 90.5615 309.109 91.1004C308.808 91.6268 308.658 92.2347 308.658 92.924C308.658 93.6008 308.808 94.2149 309.109 94.7664C309.41 95.3179 309.811 95.7503 310.312 96.0636C310.826 96.3769 311.403 96.5336 312.042 96.5336ZM322.688 98.2256C322.024 98.2256 321.435 98.1065 320.921 97.8684C320.42 97.6177 320.025 97.2793 319.737 96.8532C319.448 96.4145 319.304 95.9132 319.304 95.3492C319.304 94.8103 319.417 94.3277 319.643 93.9016C319.881 93.4629 320.244 93.0932 320.733 92.7924C321.234 92.4916 321.861 92.2785 322.613 92.1532L326.373 91.5328V92.9992L323.008 93.5632C322.356 93.676 321.88 93.8828 321.579 94.1836C321.291 94.4844 321.147 94.8541 321.147 95.2928C321.147 95.7064 321.309 96.0511 321.635 96.3268C321.974 96.6025 322.394 96.7404 322.895 96.7404C323.534 96.7404 324.086 96.6088 324.549 96.3456C325.026 96.0699 325.395 95.7001 325.659 95.2364C325.934 94.7727 326.072 94.2588 326.072 93.6948V91.1192C326.072 90.5677 325.865 90.1228 325.452 89.7844C325.051 89.4335 324.518 89.258 323.854 89.258C323.277 89.258 322.763 89.4084 322.312 89.7092C321.873 89.9975 321.548 90.386 321.335 90.8748L319.812 90.0852C320 89.6215 320.301 89.2079 320.714 88.8444C321.128 88.4684 321.61 88.1739 322.162 87.9608C322.713 87.7477 323.29 87.6412 323.891 87.6412C324.668 87.6412 325.351 87.7916 325.941 88.0924C326.53 88.3807 326.987 88.788 327.313 89.3144C327.651 89.8283 327.821 90.4299 327.821 91.1192V98H326.11V96.0824L326.429 96.1952C326.216 96.5963 325.928 96.9472 325.565 97.248C325.201 97.5488 324.775 97.7869 324.286 97.9624C323.797 98.1379 323.265 98.2256 322.688 98.2256ZM335.325 98.2256C334.373 98.2256 333.514 97.9937 332.75 97.53C331.998 97.0663 331.402 96.4333 330.964 95.6312C330.525 94.8291 330.306 93.9329 330.306 92.9428C330.306 91.9276 330.525 91.0252 330.964 90.2356C331.402 89.4335 331.998 88.8005 332.75 88.3368C333.514 87.8731 334.373 87.6412 335.325 87.6412C336.165 87.6412 336.911 87.8229 337.563 88.1864C338.214 88.5373 338.728 89.0136 339.104 89.6152L338.822 90.0476V83.7684H340.589V98H338.879V95.838L339.104 96.1388C338.753 96.8031 338.239 97.3169 337.563 97.6804C336.898 98.0439 336.153 98.2256 335.325 98.2256ZM335.476 96.5336C336.115 96.5336 336.685 96.3769 337.187 96.0636C337.688 95.7503 338.083 95.3241 338.371 94.7852C338.672 94.2337 338.822 93.6196 338.822 92.9428C338.822 92.2535 338.672 91.6393 338.371 91.1004C338.083 90.5489 337.688 90.1165 337.187 89.8032C336.685 89.4899 336.115 89.3332 335.476 89.3332C334.849 89.3332 334.279 89.4961 333.765 89.822C333.264 90.1353 332.869 90.5615 332.581 91.1004C332.292 91.6268 332.148 92.2409 332.148 92.9428C332.148 93.6196 332.292 94.2337 332.581 94.7852C332.869 95.3241 333.264 95.7503 333.765 96.0636C334.266 96.3769 334.837 96.5336 335.476 96.5336ZM347.128 98V83.994H352.072C353 83.994 353.814 84.1695 354.516 84.5204C355.218 84.8713 355.763 85.3727 356.152 86.0244C356.553 86.6761 356.754 87.4407 356.754 88.318C356.754 89.3081 356.503 90.1479 356.002 90.8372C355.5 91.5265 354.823 92.0216 353.971 92.3224L357.224 98H355.08L351.659 91.9276L352.881 92.642H348.97V98H347.128ZM348.97 90.95H352.129C352.68 90.95 353.163 90.8435 353.576 90.6304C353.99 90.4173 354.31 90.1103 354.535 89.7092C354.773 89.3081 354.892 88.8444 354.892 88.318C354.892 87.7791 354.773 87.3153 354.535 86.9268C354.31 86.5257 353.99 86.2187 353.576 86.0056C353.163 85.7925 352.68 85.686 352.129 85.686H348.97V90.95ZM363.393 98.2256C362.415 98.2256 361.544 97.9937 360.78 97.53C360.015 97.0663 359.414 96.4333 358.975 95.6312C358.536 94.8165 358.317 93.9079 358.317 92.9052C358.317 91.89 358.53 90.9876 358.956 90.198C359.395 89.4084 359.984 88.788 360.723 88.3368C361.475 87.8731 362.315 87.6412 363.243 87.6412C363.995 87.6412 364.659 87.7791 365.235 88.0548C365.825 88.318 366.32 88.6815 366.721 89.1452C367.134 89.5964 367.448 90.1165 367.661 90.7056C367.886 91.2821 367.999 91.8837 367.999 92.5104C367.999 92.6483 367.987 92.8049 367.961 92.9804C367.949 93.1433 367.93 93.3 367.905 93.4504H359.595V91.9464H366.89L366.063 92.6232C366.175 91.9715 366.113 91.3887 365.875 90.8748C365.637 90.3609 365.286 89.9536 364.822 89.6528C364.358 89.352 363.832 89.2016 363.243 89.2016C362.654 89.2016 362.115 89.352 361.626 89.6528C361.137 89.9536 360.755 90.386 360.479 90.95C360.216 91.5015 360.109 92.1595 360.159 92.924C360.109 93.6635 360.222 94.3152 360.498 94.8792C360.786 95.4307 361.187 95.8631 361.701 96.1764C362.227 96.4772 362.798 96.6276 363.412 96.6276C364.089 96.6276 364.659 96.4709 365.123 96.1576C365.586 95.8443 365.962 95.4432 366.251 94.9544L367.717 95.7064C367.517 96.1701 367.203 96.5963 366.777 96.9848C366.363 97.3608 365.868 97.6616 365.292 97.8872C364.728 98.1128 364.095 98.2256 363.393 98.2256ZM378.569 101.76V95.838L378.851 96.1388C378.501 96.8031 377.987 97.3169 377.31 97.6804C376.646 98.0439 375.9 98.2256 375.073 98.2256C374.12 98.2256 373.262 97.9937 372.497 97.53C371.745 97.0663 371.15 96.4333 370.711 95.6312C370.272 94.8291 370.053 93.9329 370.053 92.9428C370.053 91.9276 370.272 91.0252 370.711 90.2356C371.15 89.4335 371.745 88.8005 372.497 88.3368C373.262 87.8731 374.12 87.6412 375.073 87.6412C375.912 87.6412 376.658 87.8229 377.31 88.1864C377.962 88.5373 378.475 89.0136 378.851 89.6152L378.626 90.0476V87.8668H380.337V101.76H378.569ZM375.223 96.5336C375.862 96.5336 376.433 96.3769 376.934 96.0636C377.435 95.7503 377.83 95.3241 378.118 94.7852C378.419 94.2337 378.569 93.6196 378.569 92.9428C378.569 92.2535 378.419 91.6393 378.118 91.1004C377.83 90.5489 377.435 90.1165 376.934 89.8032C376.433 89.4899 375.862 89.3332 375.223 89.3332C374.596 89.3332 374.026 89.4961 373.512 89.822C373.011 90.1353 372.616 90.5615 372.328 91.1004C372.04 91.6268 371.895 92.2409 371.895 92.9428C371.895 93.6196 372.04 94.2337 372.328 94.7852C372.616 95.3241 373.011 95.7503 373.512 96.0636C374.014 96.3769 374.584 96.5336 375.223 96.5336ZM386.822 98.2256C386.095 98.2256 385.437 98.0564 384.848 97.718C384.271 97.3796 383.82 96.9096 383.494 96.308C383.181 95.6939 383.024 94.992 383.024 94.2024V87.8668H384.772V94.0144C384.772 94.5157 384.873 94.9544 385.073 95.3304C385.286 95.7064 385.575 96.0009 385.938 96.214C386.314 96.4271 386.74 96.5336 387.216 96.5336C387.693 96.5336 388.113 96.4271 388.476 96.214C388.852 96.0009 389.14 95.6939 389.341 95.2928C389.554 94.8917 389.66 94.4155 389.66 93.864V87.8668H391.428V98H389.717V96.026L389.999 96.1952C389.761 96.8344 389.353 97.3357 388.777 97.6992C388.213 98.0501 387.561 98.2256 386.822 98.2256ZM394.324 98V87.8668H396.073V98H394.324ZM394.324 86.25V83.994H396.073V86.25H394.324ZM398.974 98V87.8668H400.684V89.728L400.496 89.4648C400.735 88.8883 401.098 88.4621 401.587 88.1864C402.076 87.8981 402.671 87.754 403.373 87.754H403.993V89.4084H403.11C402.395 89.4084 401.819 89.634 401.38 90.0852C400.941 90.5239 400.722 91.1505 400.722 91.9652V98H398.974ZM410.397 98.2256C409.419 98.2256 408.548 97.9937 407.784 97.53C407.019 97.0663 406.417 96.4333 405.979 95.6312C405.54 94.8165 405.321 93.9079 405.321 92.9052C405.321 91.89 405.534 90.9876 405.96 90.198C406.399 89.4084 406.988 88.788 407.727 88.3368C408.479 87.8731 409.319 87.6412 410.246 87.6412C410.998 87.6412 411.663 87.7791 412.239 88.0548C412.828 88.318 413.323 88.6815 413.724 89.1452C414.138 89.5964 414.451 90.1165 414.664 90.7056C414.89 91.2821 415.003 91.8837 415.003 92.5104C415.003 92.6483 414.99 92.8049 414.965 92.9804C414.953 93.1433 414.934 93.3 414.909 93.4504H406.599V91.9464H413.894L413.066 92.6232C413.179 91.9715 413.116 91.3887 412.878 90.8748C412.64 90.3609 412.289 89.9536 411.826 89.6528C411.362 89.352 410.835 89.2016 410.246 89.2016C409.657 89.2016 409.118 89.352 408.63 89.6528C408.141 89.9536 407.758 90.386 407.483 90.95C407.22 91.5015 407.113 92.1595 407.163 92.924C407.113 93.6635 407.226 94.3152 407.502 94.8792C407.79 95.4307 408.191 95.8631 408.705 96.1764C409.231 96.4772 409.801 96.6276 410.416 96.6276C411.092 96.6276 411.663 96.4709 412.126 96.1576C412.59 95.8443 412.966 95.4432 413.254 94.9544L414.721 95.7064C414.52 96.1701 414.207 96.5963 413.781 96.9848C413.367 97.3608 412.872 97.6616 412.296 97.8872C411.732 98.1128 411.099 98.2256 410.397 98.2256ZM422.076 98.2256C421.124 98.2256 420.265 97.9937 419.501 97.53C418.749 97.0663 418.153 96.4333 417.715 95.6312C417.276 94.8291 417.057 93.9329 417.057 92.9428C417.057 91.9276 417.276 91.0252 417.715 90.2356C418.153 89.4335 418.749 88.8005 419.501 88.3368C420.265 87.8731 421.124 87.6412 422.076 87.6412C422.916 87.6412 423.662 87.8229 424.314 88.1864C424.965 88.5373 425.479 89.0136 425.855 89.6152L425.573 90.0476V83.7684H427.34V98H425.63V95.838L425.855 96.1388C425.504 96.8031 424.99 97.3169 424.314 97.6804C423.649 98.0439 422.904 98.2256 422.076 98.2256ZM422.227 96.5336C422.866 96.5336 423.436 96.3769 423.938 96.0636C424.439 95.7503 424.834 95.3241 425.122 94.7852C425.423 94.2337 425.573 93.6196 425.573 92.9428C425.573 92.2535 425.423 91.6393 425.122 91.1004C424.834 90.5489 424.439 90.1165 423.938 89.8032C423.436 89.4899 422.866 89.3332 422.227 89.3332C421.6 89.3332 421.03 89.4961 420.516 89.822C420.015 90.1353 419.62 90.5615 419.332 91.1004C419.043 91.6268 418.899 92.2409 418.899 92.9428C418.899 93.6196 419.043 94.2337 419.332 94.7852C419.62 95.3241 420.015 95.7503 420.516 96.0636C421.017 96.3769 421.588 96.5336 422.227 96.5336ZM276.56 132V117.994H281.148C282.564 117.994 283.798 118.282 284.851 118.859C285.904 119.435 286.719 120.25 287.295 121.303C287.872 122.343 288.16 123.571 288.16 124.988C288.16 126.391 287.872 127.62 287.295 128.672C286.719 129.725 285.904 130.546 284.851 131.135C283.798 131.712 282.564 132 281.148 132H276.56ZM278.403 130.308H281.166C282.207 130.308 283.103 130.089 283.855 129.65C284.619 129.211 285.208 128.597 285.622 127.808C286.036 127.005 286.242 126.065 286.242 124.988C286.242 123.897 286.029 122.957 285.603 122.168C285.19 121.378 284.601 120.77 283.836 120.344C283.084 119.905 282.194 119.686 281.166 119.686H278.403V130.308ZM295.289 132.226C294.312 132.226 293.428 132 292.638 131.549C291.849 131.085 291.222 130.452 290.758 129.65C290.295 128.848 290.063 127.939 290.063 126.924C290.063 125.909 290.288 125.006 290.74 124.217C291.203 123.427 291.83 122.801 292.62 122.337C293.409 121.873 294.299 121.641 295.289 121.641C296.267 121.641 297.15 121.873 297.94 122.337C298.73 122.788 299.35 123.408 299.801 124.198C300.265 124.988 300.497 125.896 300.497 126.924C300.497 127.952 300.259 128.867 299.782 129.669C299.306 130.458 298.673 131.085 297.884 131.549C297.106 132 296.242 132.226 295.289 132.226ZM295.289 130.534C295.916 130.534 296.48 130.377 296.981 130.064C297.495 129.75 297.896 129.318 298.184 128.766C298.485 128.215 298.636 127.601 298.636 126.924C298.636 126.235 298.485 125.627 298.184 125.1C297.896 124.561 297.495 124.135 296.981 123.822C296.48 123.496 295.916 123.333 295.289 123.333C294.65 123.333 294.073 123.496 293.56 123.822C293.058 124.135 292.657 124.561 292.356 125.1C292.056 125.627 291.905 126.235 291.905 126.924C291.905 127.601 292.056 128.215 292.356 128.766C292.657 129.318 293.058 129.75 293.56 130.064C294.073 130.377 294.65 130.534 295.289 130.534ZM307.665 132.226C306.675 132.226 305.791 131.994 305.014 131.53C304.25 131.066 303.648 130.433 303.21 129.631C302.771 128.829 302.552 127.927 302.552 126.924C302.552 125.909 302.771 125.006 303.21 124.217C303.648 123.427 304.25 122.801 305.014 122.337C305.791 121.873 306.675 121.641 307.665 121.641C308.329 121.641 308.95 121.76 309.526 121.998C310.103 122.237 310.61 122.556 311.049 122.957C311.488 123.358 311.807 123.828 312.008 124.367L310.448 125.119C310.209 124.593 309.846 124.167 309.357 123.841C308.868 123.502 308.304 123.333 307.665 123.333C307.051 123.333 306.493 123.49 305.992 123.803C305.503 124.117 305.115 124.543 304.826 125.082C304.538 125.621 304.394 126.241 304.394 126.943C304.394 127.62 304.538 128.234 304.826 128.785C305.115 129.324 305.503 129.75 305.992 130.064C306.493 130.377 307.051 130.534 307.665 130.534C308.304 130.534 308.868 130.371 309.357 130.045C309.846 129.706 310.209 129.261 310.448 128.71L312.008 129.5C311.807 130.026 311.488 130.496 311.049 130.91C310.61 131.311 310.103 131.63 309.526 131.868C308.95 132.107 308.329 132.226 307.665 132.226ZM318.072 132.226C317.345 132.226 316.687 132.056 316.098 131.718C315.521 131.38 315.07 130.91 314.744 130.308C314.431 129.694 314.274 128.992 314.274 128.202V121.867H316.022V128.014C316.022 128.516 316.123 128.954 316.323 129.33C316.536 129.706 316.825 130.001 317.188 130.214C317.564 130.427 317.99 130.534 318.466 130.534C318.943 130.534 319.363 130.427 319.726 130.214C320.102 130.001 320.39 129.694 320.591 129.293C320.804 128.892 320.91 128.415 320.91 127.864V121.867H322.678V132H320.967V130.026L321.249 130.195C321.011 130.834 320.603 131.336 320.027 131.699C319.463 132.05 318.811 132.226 318.072 132.226ZM325.574 132V121.867H327.285V123.935L327.041 123.615C327.291 122.976 327.692 122.487 328.244 122.149C328.795 121.81 329.416 121.641 330.105 121.641C330.895 121.641 331.603 121.861 332.23 122.299C332.869 122.738 333.307 123.314 333.546 124.029L333.057 124.048C333.32 123.258 333.765 122.663 334.392 122.262C335.018 121.848 335.714 121.641 336.478 121.641C337.18 121.641 337.813 121.804 338.377 122.13C338.954 122.456 339.411 122.907 339.75 123.484C340.088 124.06 340.257 124.712 340.257 125.439V132H338.49V126.003C338.49 125.439 338.39 124.963 338.189 124.574C337.989 124.185 337.713 123.885 337.362 123.672C337.024 123.446 336.622 123.333 336.159 123.333C335.708 123.333 335.3 123.446 334.937 123.672C334.586 123.885 334.304 124.192 334.091 124.593C333.89 124.981 333.79 125.451 333.79 126.003V132H332.023V126.003C332.023 125.439 331.922 124.963 331.722 124.574C331.521 124.185 331.246 123.885 330.895 123.672C330.556 123.446 330.155 123.333 329.692 123.333C329.24 123.333 328.833 123.446 328.47 123.672C328.119 123.885 327.837 124.192 327.624 124.593C327.423 124.981 327.323 125.451 327.323 126.003V132H325.574ZM347.591 132.226C346.613 132.226 345.742 131.994 344.978 131.53C344.213 131.066 343.611 130.433 343.173 129.631C342.734 128.817 342.515 127.908 342.515 126.905C342.515 125.89 342.728 124.988 343.154 124.198C343.593 123.408 344.182 122.788 344.921 122.337C345.673 121.873 346.513 121.641 347.44 121.641C348.192 121.641 348.857 121.779 349.433 122.055C350.022 122.318 350.517 122.681 350.918 123.145C351.332 123.596 351.645 124.117 351.858 124.706C352.084 125.282 352.197 125.884 352.197 126.51C352.197 126.648 352.184 126.805 352.159 126.98C352.147 127.143 352.128 127.3 352.103 127.45H343.793V125.946H351.088L350.26 126.623C350.373 125.971 350.31 125.389 350.072 124.875C349.834 124.361 349.483 123.954 349.02 123.653C348.556 123.352 348.029 123.202 347.44 123.202C346.851 123.202 346.312 123.352 345.824 123.653C345.335 123.954 344.952 124.386 344.677 124.95C344.414 125.501 344.307 126.159 344.357 126.924C344.307 127.663 344.42 128.315 344.696 128.879C344.984 129.431 345.385 129.863 345.899 130.176C346.425 130.477 346.995 130.628 347.61 130.628C348.286 130.628 348.857 130.471 349.32 130.158C349.784 129.844 350.16 129.443 350.448 128.954L351.915 129.706C351.714 130.17 351.401 130.596 350.975 130.985C350.561 131.361 350.066 131.662 349.49 131.887C348.926 132.113 348.293 132.226 347.591 132.226ZM354.664 132V121.867H356.375V123.841L356.093 123.672C356.344 123.032 356.745 122.537 357.296 122.186C357.86 121.823 358.518 121.641 359.27 121.641C359.997 121.641 360.643 121.804 361.207 122.13C361.783 122.456 362.235 122.907 362.56 123.484C362.899 124.06 363.068 124.712 363.068 125.439V132H361.301V126.003C361.301 125.439 361.201 124.963 361 124.574C360.799 124.185 360.511 123.885 360.135 123.672C359.772 123.446 359.352 123.333 358.876 123.333C358.399 123.333 357.973 123.446 357.597 123.672C357.234 123.885 356.945 124.192 356.732 124.593C356.519 124.981 356.413 125.451 356.413 126.003V132H354.664ZM369.875 132.113C368.885 132.113 368.12 131.831 367.581 131.267C367.055 130.703 366.792 129.907 366.792 128.879V123.54H364.949V121.867H365.325C365.777 121.867 366.134 121.729 366.397 121.453C366.66 121.177 366.792 120.814 366.792 120.363V119.536H368.54V121.867H370.815V123.54H368.54V128.823C368.54 129.161 368.59 129.456 368.691 129.706C368.803 129.957 368.985 130.158 369.236 130.308C369.487 130.446 369.819 130.515 370.232 130.515C370.32 130.515 370.427 130.509 370.552 130.496C370.69 130.483 370.815 130.471 370.928 130.458V132C370.765 132.038 370.583 132.063 370.383 132.075C370.182 132.1 370.013 132.113 369.875 132.113ZM377.028 132.226C376.013 132.226 375.129 131.975 374.377 131.474C373.625 130.972 373.093 130.295 372.779 129.443L374.171 128.766C374.459 129.368 374.854 129.844 375.355 130.195C375.856 130.546 376.414 130.722 377.028 130.722C377.58 130.722 378.037 130.59 378.401 130.327C378.764 130.064 378.946 129.719 378.946 129.293C378.946 128.992 378.858 128.754 378.683 128.578C378.52 128.39 378.319 128.246 378.081 128.146C377.843 128.033 377.624 127.952 377.423 127.902L375.9 127.469C374.985 127.206 374.315 126.83 373.889 126.341C373.475 125.852 373.268 125.282 373.268 124.63C373.268 124.029 373.419 123.509 373.719 123.07C374.033 122.619 374.453 122.268 374.979 122.017C375.518 121.767 376.12 121.641 376.784 121.641C377.674 121.641 378.47 121.867 379.171 122.318C379.886 122.769 380.393 123.402 380.694 124.217L379.265 124.875C379.04 124.348 378.701 123.935 378.25 123.634C377.799 123.321 377.291 123.164 376.727 123.164C376.214 123.164 375.806 123.296 375.505 123.559C375.205 123.809 375.054 124.129 375.054 124.518C375.054 124.806 375.129 125.044 375.28 125.232C375.43 125.407 375.612 125.545 375.825 125.646C376.038 125.733 376.245 125.809 376.445 125.871L378.1 126.36C378.927 126.598 379.566 126.968 380.017 127.469C380.481 127.971 380.713 128.572 380.713 129.274C380.713 129.838 380.556 130.346 380.243 130.797C379.93 131.248 379.497 131.599 378.946 131.85C378.394 132.1 377.755 132.226 377.028 132.226Z" fill="#2C3E51"/>
<path d="M559.009 98.2256C558.019 98.2256 557.104 98.0501 556.264 97.6992C555.437 97.3357 554.71 96.8281 554.083 96.1764C553.469 95.5247 552.993 94.7601 552.654 93.8828C552.316 93.0055 552.147 92.0467 552.147 91.0064C552.147 89.9536 552.316 88.9885 552.654 88.1112C552.993 87.2339 553.469 86.4693 554.083 85.8176C554.697 85.1659 555.424 84.6645 556.264 84.3136C557.104 83.9501 558.019 83.7684 559.009 83.7684C559.974 83.7684 560.839 83.9376 561.603 84.276C562.38 84.6144 563.032 85.0531 563.558 85.592C564.097 86.1309 564.48 86.7075 564.705 87.3216L563.013 88.0924C562.687 87.3153 562.18 86.6887 561.49 86.2124C560.801 85.7236 559.974 85.4792 559.009 85.4792C558.031 85.4792 557.16 85.7111 556.396 86.1748C555.644 86.6385 555.055 87.284 554.628 88.1112C554.202 88.9384 553.989 89.9035 553.989 91.0064C553.989 92.0968 554.202 93.0556 554.628 93.8828C555.055 94.71 555.644 95.3555 556.396 95.8192C557.16 96.2829 558.031 96.5148 559.009 96.5148C559.974 96.5148 560.801 96.2767 561.49 95.8004C562.18 95.3116 562.687 94.6787 563.013 93.9016L564.705 94.6724C564.48 95.2865 564.097 95.8631 563.558 96.402C563.032 96.9409 562.38 97.3796 561.603 97.718C560.839 98.0564 559.974 98.2256 559.009 98.2256ZM571.822 98.2256C570.844 98.2256 569.96 98 569.171 97.5488C568.381 97.0851 567.755 96.4521 567.291 95.65C566.827 94.8479 566.595 93.9392 566.595 92.924C566.595 91.9088 566.821 91.0064 567.272 90.2168C567.736 89.4272 568.362 88.8005 569.152 88.3368C569.942 87.8731 570.831 87.6412 571.822 87.6412C572.799 87.6412 573.683 87.8731 574.472 88.3368C575.262 88.788 575.882 89.4084 576.334 90.198C576.797 90.9876 577.029 91.8963 577.029 92.924C577.029 93.9517 576.791 94.8667 576.315 95.6688C575.839 96.4584 575.206 97.0851 574.416 97.5488C573.639 98 572.774 98.2256 571.822 98.2256ZM571.822 96.5336C572.448 96.5336 573.012 96.3769 573.514 96.0636C574.027 95.7503 574.429 95.3179 574.717 94.7664C575.018 94.2149 575.168 93.6008 575.168 92.924C575.168 92.2347 575.018 91.6268 574.717 91.1004C574.429 90.5615 574.027 90.1353 573.514 89.822C573.012 89.4961 572.448 89.3332 571.822 89.3332C571.182 89.3332 570.606 89.4961 570.092 89.822C569.591 90.1353 569.19 90.5615 568.889 91.1004C568.588 91.6268 568.438 92.2347 568.438 92.924C568.438 93.6008 568.588 94.2149 568.889 94.7664C569.19 95.3179 569.591 95.7503 570.092 96.0636C570.606 96.3769 571.182 96.5336 571.822 96.5336ZM579.498 98V87.8668H581.208V89.9348L580.964 89.6152C581.215 88.976 581.616 88.4872 582.167 88.1488C582.719 87.8104 583.339 87.6412 584.028 87.6412C584.818 87.6412 585.526 87.8605 586.153 88.2992C586.792 88.7379 587.231 89.3144 587.469 90.0288L586.98 90.0476C587.243 89.258 587.688 88.6627 588.315 88.2616C588.941 87.848 589.637 87.6412 590.402 87.6412C591.103 87.6412 591.736 87.8041 592.3 88.13C592.877 88.4559 593.334 88.9071 593.673 89.4836C594.011 90.0601 594.18 90.7119 594.18 91.4388V98H592.413V92.0028C592.413 91.4388 592.313 90.9625 592.112 90.574C591.912 90.1855 591.636 89.8847 591.285 89.6716C590.947 89.446 590.546 89.3332 590.082 89.3332C589.631 89.3332 589.223 89.446 588.86 89.6716C588.509 89.8847 588.227 90.1917 588.014 90.5928C587.813 90.9813 587.713 91.4513 587.713 92.0028V98H585.946V92.0028C585.946 91.4388 585.846 90.9625 585.645 90.574C585.445 90.1855 585.169 89.8847 584.818 89.6716C584.48 89.446 584.078 89.3332 583.615 89.3332C583.164 89.3332 582.756 89.446 582.393 89.6716C582.042 89.8847 581.76 90.1917 581.547 90.5928C581.346 90.9813 581.246 91.4513 581.246 92.0028V98H579.498ZM596.852 101.76V87.8668H598.562V90.0476L598.337 89.6152C598.713 89.0136 599.227 88.5373 599.878 88.1864C600.53 87.8229 601.276 87.6412 602.116 87.6412C603.068 87.6412 603.92 87.8731 604.672 88.3368C605.437 88.8005 606.039 89.4335 606.477 90.2356C606.916 91.0252 607.135 91.9276 607.135 92.9428C607.135 93.9329 606.916 94.8291 606.477 95.6312C606.039 96.4333 605.437 97.0663 604.672 97.53C603.92 97.9937 603.062 98.2256 602.097 98.2256C601.282 98.2256 600.536 98.0439 599.86 97.6804C599.195 97.3169 598.681 96.8031 598.318 96.1388L598.6 95.838V101.76H596.852ZM601.965 96.5336C602.604 96.5336 603.175 96.3769 603.676 96.0636C604.177 95.7503 604.566 95.3241 604.842 94.7852C605.13 94.2337 605.274 93.6196 605.274 92.9428C605.274 92.2409 605.13 91.6268 604.842 91.1004C604.566 90.5615 604.177 90.1353 603.676 89.822C603.175 89.4961 602.604 89.3332 601.965 89.3332C601.326 89.3332 600.749 89.4899 600.236 89.8032C599.734 90.1165 599.333 90.5489 599.032 91.1004C598.744 91.6393 598.6 92.2535 598.6 92.9428C598.6 93.6196 598.744 94.2337 599.032 94.7852C599.333 95.3241 599.734 95.7503 600.236 96.0636C600.749 96.3769 601.326 96.5336 601.965 96.5336ZM609.616 98V83.7684H611.364V98H609.616ZM618.927 98.2256C617.95 98.2256 617.079 97.9937 616.314 97.53C615.55 97.0663 614.948 96.4333 614.509 95.6312C614.071 94.8165 613.851 93.9079 613.851 92.9052C613.851 91.89 614.065 90.9876 614.491 90.198C614.929 89.4084 615.518 88.788 616.258 88.3368C617.01 87.8731 617.85 87.6412 618.777 87.6412C619.529 87.6412 620.193 87.7791 620.77 88.0548C621.359 88.318 621.854 88.6815 622.255 89.1452C622.669 89.5964 622.982 90.1165 623.195 90.7056C623.421 91.2821 623.533 91.8837 623.533 92.5104C623.533 92.6483 623.521 92.8049 623.496 92.9804C623.483 93.1433 623.465 93.3 623.439 93.4504H615.13V91.9464H622.424L621.597 92.6232C621.71 91.9715 621.647 91.3887 621.409 90.8748C621.171 90.3609 620.82 89.9536 620.356 89.6528C619.893 89.352 619.366 89.2016 618.777 89.2016C618.188 89.2016 617.649 89.352 617.16 89.6528C616.671 89.9536 616.289 90.386 616.013 90.95C615.75 91.5015 615.644 92.1595 615.694 92.924C615.644 93.6635 615.757 94.3152 616.032 94.8792C616.321 95.4307 616.722 95.8631 617.235 96.1764C617.762 96.4772 618.332 96.6276 618.946 96.6276C619.623 96.6276 620.193 96.4709 620.657 96.1576C621.121 95.8443 621.497 95.4432 621.785 94.9544L623.251 95.7064C623.051 96.1701 622.738 96.5963 622.311 96.9848C621.898 97.3608 621.403 97.6616 620.826 97.8872C620.262 98.1128 619.629 98.2256 618.927 98.2256ZM630.118 98.1128C629.128 98.1128 628.364 97.8308 627.825 97.2668C627.298 96.7028 627.035 95.9069 627.035 94.8792V89.54H625.193V87.8668H625.569C626.02 87.8668 626.377 87.7289 626.64 87.4532C626.904 87.1775 627.035 86.814 627.035 86.3628V85.5356H628.784V87.8668H631.058V89.54H628.784V94.8228C628.784 95.1612 628.834 95.4557 628.934 95.7064C629.047 95.9571 629.228 96.1576 629.479 96.308C629.73 96.4459 630.062 96.5148 630.476 96.5148C630.563 96.5148 630.67 96.5085 630.795 96.496C630.933 96.4835 631.058 96.4709 631.171 96.4584V98C631.008 98.0376 630.826 98.0627 630.626 98.0752C630.425 98.1003 630.256 98.1128 630.118 98.1128ZM638.03 98.2256C637.052 98.2256 636.181 97.9937 635.417 97.53C634.652 97.0663 634.051 96.4333 633.612 95.6312C633.173 94.8165 632.954 93.9079 632.954 92.9052C632.954 91.89 633.167 90.9876 633.593 90.198C634.032 89.4084 634.621 88.788 635.36 88.3368C636.112 87.8731 636.952 87.6412 637.88 87.6412C638.632 87.6412 639.296 87.7791 639.872 88.0548C640.462 88.318 640.957 88.6815 641.358 89.1452C641.771 89.5964 642.085 90.1165 642.298 90.7056C642.523 91.2821 642.636 91.8837 642.636 92.5104C642.636 92.6483 642.624 92.8049 642.598 92.9804C642.586 93.1433 642.567 93.3 642.542 93.4504H634.232V91.9464H641.527L640.7 92.6232C640.812 91.9715 640.75 91.3887 640.512 90.8748C640.274 90.3609 639.923 89.9536 639.459 89.6528C638.995 89.352 638.469 89.2016 637.88 89.2016C637.291 89.2016 636.752 89.352 636.263 89.6528C635.774 89.9536 635.392 90.386 635.116 90.95C634.853 91.5015 634.746 92.1595 634.796 92.924C634.746 93.6635 634.859 94.3152 635.135 94.8792C635.423 95.4307 635.824 95.8631 636.338 96.1764C636.864 96.4772 637.435 96.6276 638.049 96.6276C638.726 96.6276 639.296 96.4709 639.76 96.1576C640.223 95.8443 640.599 95.4432 640.888 94.9544L642.354 95.7064C642.154 96.1701 641.84 96.5963 641.414 96.9848C641 97.3608 640.505 97.6616 639.929 97.8872C639.365 98.1128 638.732 98.2256 638.03 98.2256ZM556.471 132.113C555.481 132.113 554.716 131.831 554.177 131.267C553.651 130.703 553.388 129.907 553.388 128.879V123.54H551.545V121.867H551.921C552.372 121.867 552.73 121.729 552.993 121.453C553.256 121.177 553.388 120.814 553.388 120.363V119.536H555.136V121.867H557.411V123.54H555.136V128.823C555.136 129.161 555.186 129.456 555.286 129.706C555.399 129.957 555.581 130.158 555.832 130.308C556.082 130.446 556.414 130.515 556.828 130.515C556.916 130.515 557.022 130.509 557.148 130.496C557.285 130.483 557.411 130.471 557.524 130.458V132C557.361 132.038 557.179 132.063 556.978 132.075C556.778 132.1 556.609 132.113 556.471 132.113ZM559.996 132V117.768H561.744V123.841L561.424 123.672C561.675 123.032 562.076 122.537 562.628 122.186C563.192 121.823 563.85 121.641 564.602 121.641C565.328 121.641 565.974 121.804 566.538 122.13C567.114 122.456 567.566 122.907 567.892 123.484C568.23 124.06 568.399 124.712 568.399 125.439V132H566.632V126.003C566.632 125.439 566.525 124.963 566.312 124.574C566.112 124.185 565.83 123.885 565.466 123.672C565.103 123.446 564.683 123.333 564.207 123.333C563.743 123.333 563.323 123.446 562.947 123.672C562.571 123.885 562.277 124.192 562.064 124.593C561.85 124.981 561.744 125.451 561.744 126.003V132H559.996ZM575.751 132.226C574.774 132.226 573.903 131.994 573.138 131.53C572.374 131.066 571.772 130.433 571.333 129.631C570.895 128.817 570.675 127.908 570.675 126.905C570.675 125.89 570.888 124.988 571.315 124.198C571.753 123.408 572.342 122.788 573.082 122.337C573.834 121.873 574.674 121.641 575.601 121.641C576.353 121.641 577.017 121.779 577.594 122.055C578.183 122.318 578.678 122.681 579.079 123.145C579.493 123.596 579.806 124.117 580.019 124.706C580.245 125.282 580.357 125.884 580.357 126.51C580.357 126.648 580.345 126.805 580.32 126.98C580.307 127.143 580.288 127.3 580.263 127.45H571.954V125.946H579.248L578.421 126.623C578.534 125.971 578.471 125.389 578.233 124.875C577.995 124.361 577.644 123.954 577.18 123.653C576.716 123.352 576.19 123.202 575.601 123.202C575.012 123.202 574.473 123.352 573.984 123.653C573.495 123.954 573.113 124.386 572.837 124.95C572.574 125.501 572.468 126.159 572.518 126.924C572.468 127.663 572.58 128.315 572.856 128.879C573.144 129.431 573.546 129.863 574.059 130.176C574.586 130.477 575.156 130.628 575.77 130.628C576.447 130.628 577.017 130.471 577.481 130.158C577.945 129.844 578.321 129.443 578.609 128.954L580.075 129.706C579.875 130.17 579.562 130.596 579.135 130.985C578.722 131.361 578.227 131.662 577.65 131.887C577.086 132.113 576.453 132.226 575.751 132.226ZM586.469 132V117.994H591.414C592.341 117.994 593.156 118.169 593.858 118.52C594.56 118.871 595.105 119.373 595.493 120.024C595.894 120.676 596.095 121.441 596.095 122.318C596.095 123.195 595.894 123.96 595.493 124.612C595.105 125.251 594.56 125.752 593.858 126.116C593.168 126.467 592.354 126.642 591.414 126.642H588.312V132H586.469ZM588.312 124.95H591.47C592.034 124.95 592.523 124.843 592.937 124.63C593.35 124.417 593.67 124.11 593.895 123.709C594.121 123.308 594.234 122.844 594.234 122.318C594.234 121.779 594.121 121.315 593.895 120.927C593.67 120.526 593.35 120.219 592.937 120.006C592.523 119.793 592.034 119.686 591.47 119.686H588.312V124.95ZM600.841 132.226C600.176 132.226 599.587 132.107 599.073 131.868C598.572 131.618 598.177 131.279 597.889 130.853C597.601 130.415 597.457 129.913 597.457 129.349C597.457 128.81 597.569 128.328 597.795 127.902C598.033 127.463 598.397 127.093 598.885 126.792C599.387 126.492 600.013 126.279 600.765 126.153L604.525 125.533V126.999L601.16 127.563C600.508 127.676 600.032 127.883 599.731 128.184C599.443 128.484 599.299 128.854 599.299 129.293C599.299 129.706 599.462 130.051 599.788 130.327C600.126 130.603 600.546 130.74 601.047 130.74C601.687 130.74 602.238 130.609 602.702 130.346C603.178 130.07 603.548 129.7 603.811 129.236C604.087 128.773 604.225 128.259 604.225 127.695V125.119C604.225 124.568 604.018 124.123 603.604 123.784C603.203 123.433 602.67 123.258 602.006 123.258C601.43 123.258 600.916 123.408 600.465 123.709C600.026 123.997 599.7 124.386 599.487 124.875L597.964 124.085C598.152 123.621 598.453 123.208 598.867 122.844C599.28 122.468 599.763 122.174 600.314 121.961C600.866 121.748 601.442 121.641 602.044 121.641C602.821 121.641 603.504 121.792 604.093 122.092C604.682 122.381 605.139 122.788 605.465 123.314C605.804 123.828 605.973 124.43 605.973 125.119V132H604.262V130.082L604.582 130.195C604.369 130.596 604.08 130.947 603.717 131.248C603.353 131.549 602.927 131.787 602.439 131.962C601.95 132.138 601.417 132.226 600.841 132.226ZM609.417 136.136C609.191 136.136 608.966 136.117 608.74 136.08C608.515 136.042 608.302 135.979 608.101 135.892V134.331C608.239 134.356 608.408 134.381 608.609 134.406C608.822 134.444 609.028 134.463 609.229 134.463C609.818 134.463 610.263 134.331 610.564 134.068C610.877 133.817 611.172 133.379 611.447 132.752L612.087 131.229L612.049 132.752L607.725 121.867H609.624L612.989 130.515H612.425L615.771 121.867H617.708L613.139 133.203C612.926 133.742 612.651 134.231 612.312 134.67C611.986 135.121 611.585 135.478 611.109 135.741C610.633 136.004 610.069 136.136 609.417 136.136ZM619.451 132V121.867H621.162V123.935L620.918 123.615C621.168 122.976 621.569 122.487 622.121 122.149C622.672 121.81 623.293 121.641 623.982 121.641C624.772 121.641 625.48 121.861 626.106 122.299C626.746 122.738 627.184 123.314 627.422 124.029L626.934 124.048C627.197 123.258 627.642 122.663 628.268 122.262C628.895 121.848 629.591 121.641 630.355 121.641C631.057 121.641 631.69 121.804 632.254 122.13C632.831 122.456 633.288 122.907 633.626 123.484C633.965 124.06 634.134 124.712 634.134 125.439V132H632.367V126.003C632.367 125.439 632.267 124.963 632.066 124.574C631.866 124.185 631.59 123.885 631.239 123.672C630.9 123.446 630.499 123.333 630.036 123.333C629.584 123.333 629.177 123.446 628.814 123.672C628.463 123.885 628.181 124.192 627.968 124.593C627.767 124.981 627.667 125.451 627.667 126.003V132H625.9V126.003C625.9 125.439 625.799 124.963 625.599 124.574C625.398 124.185 625.123 123.885 624.772 123.672C624.433 123.446 624.032 123.333 623.568 123.333C623.117 123.333 622.71 123.446 622.346 123.672C621.996 123.885 621.714 124.192 621.5 124.593C621.3 124.981 621.2 125.451 621.2 126.003V132H619.451ZM641.468 132.226C640.49 132.226 639.619 131.994 638.854 131.53C638.09 131.066 637.488 130.433 637.05 129.631C636.611 128.817 636.392 127.908 636.392 126.905C636.392 125.89 636.605 124.988 637.031 124.198C637.47 123.408 638.059 122.788 638.798 122.337C639.55 121.873 640.39 121.641 641.317 121.641C642.069 121.641 642.734 121.779 643.31 122.055C643.899 122.318 644.394 122.681 644.795 123.145C645.209 123.596 645.522 124.117 645.735 124.706C645.961 125.282 646.074 125.884 646.074 126.51C646.074 126.648 646.061 126.805 646.036 126.98C646.024 127.143 646.005 127.3 645.98 127.45H637.67V125.946H644.964L644.137 126.623C644.25 125.971 644.187 125.389 643.949 124.875C643.711 124.361 643.36 123.954 642.896 123.653C642.433 123.352 641.906 123.202 641.317 123.202C640.728 123.202 640.189 123.352 639.7 123.653C639.212 123.954 638.829 124.386 638.554 124.95C638.29 125.501 638.184 126.159 638.234 126.924C638.184 127.663 638.297 128.315 638.572 128.879C638.861 129.431 639.262 129.863 639.776 130.176C640.302 130.477 640.872 130.628 641.486 130.628C642.163 130.628 642.734 130.471 643.197 130.158C643.661 129.844 644.037 129.443 644.325 128.954L645.792 129.706C645.591 130.17 645.278 130.596 644.852 130.985C644.438 131.361 643.943 131.662 643.366 131.887C642.802 132.113 642.17 132.226 641.468 132.226ZM648.541 132V121.867H650.252V123.841L649.97 123.672C650.221 123.032 650.622 122.537 651.173 122.186C651.737 121.823 652.395 121.641 653.147 121.641C653.874 121.641 654.52 121.804 655.084 122.13C655.66 122.456 656.111 122.907 656.437 123.484C656.776 124.06 656.945 124.712 656.945 125.439V132H655.178V126.003C655.178 125.439 655.077 124.963 654.877 124.574C654.676 124.185 654.388 123.885 654.012 123.672C653.649 123.446 653.229 123.333 652.752 123.333C652.276 123.333 651.85 123.446 651.474 123.672C651.111 123.885 650.822 124.192 650.609 124.593C650.396 124.981 650.29 125.451 650.29 126.003V132H648.541ZM663.752 132.113C662.762 132.113 661.997 131.831 661.458 131.267C660.932 130.703 660.669 129.907 660.669 128.879V123.54H658.826V121.867H659.202C659.654 121.867 660.011 121.729 660.274 121.453C660.537 121.177 660.669 120.814 660.669 120.363V119.536H662.417V121.867H664.692V123.54H662.417V128.823C662.417 129.161 662.467 129.456 662.568 129.706C662.68 129.957 662.862 130.158 663.113 130.308C663.363 130.446 663.696 130.515 664.109 130.515C664.197 130.515 664.303 130.509 664.429 130.496C664.567 130.483 664.692 130.471 664.805 130.458V132C664.642 132.038 664.46 132.063 664.26 132.075C664.059 132.1 663.89 132.113 663.752 132.113Z" fill="#2C3E51"/>
<path d="M820.207 98L825.226 83.994H827.407L832.427 98H830.453L829.306 94.71H823.328L822.181 98H820.207ZM823.91 93.018H828.723L826.054 85.3288H826.58L823.91 93.018ZM834.173 101.76V87.8668H835.884V90.0476L835.658 89.6152C836.034 89.0136 836.548 88.5373 837.2 88.1864C837.851 87.8229 838.597 87.6412 839.437 87.6412C840.389 87.6412 841.242 87.8731 841.994 88.3368C842.758 88.8005 843.36 89.4335 843.798 90.2356C844.237 91.0252 844.456 91.9276 844.456 92.9428C844.456 93.9329 844.237 94.8291 843.798 95.6312C843.36 96.4333 842.758 97.0663 841.994 97.53C841.242 97.9937 840.383 98.2256 839.418 98.2256C838.603 98.2256 837.858 98.0439 837.181 97.6804C836.517 97.3169 836.003 96.8031 835.639 96.1388L835.921 95.838V101.76H834.173ZM839.286 96.5336C839.926 96.5336 840.496 96.3769 840.997 96.0636C841.499 95.7503 841.887 95.3241 842.163 94.7852C842.451 94.2337 842.595 93.6196 842.595 92.9428C842.595 92.2409 842.451 91.6268 842.163 91.1004C841.887 90.5615 841.499 90.1353 840.997 89.822C840.496 89.4961 839.926 89.3332 839.286 89.3332C838.647 89.3332 838.071 89.4899 837.557 89.8032C837.056 90.1165 836.654 90.5489 836.354 91.1004C836.065 91.6393 835.921 92.2535 835.921 92.9428C835.921 93.6196 836.065 94.2337 836.354 94.7852C836.654 95.3241 837.056 95.7503 837.557 96.0636C838.071 96.3769 838.647 96.5336 839.286 96.5336ZM846.937 101.76V87.8668H848.648V90.0476L848.422 89.6152C848.798 89.0136 849.312 88.5373 849.964 88.1864C850.616 87.8229 851.361 87.6412 852.201 87.6412C853.154 87.6412 854.006 87.8731 854.758 88.3368C855.522 88.8005 856.124 89.4335 856.563 90.2356C857.001 91.0252 857.221 91.9276 857.221 92.9428C857.221 93.9329 857.001 94.8291 856.563 95.6312C856.124 96.4333 855.522 97.0663 854.758 97.53C854.006 97.9937 853.147 98.2256 852.182 98.2256C851.368 98.2256 850.622 98.0439 849.945 97.6804C849.281 97.3169 848.767 96.8031 848.403 96.1388L848.685 95.838V101.76H846.937ZM852.051 96.5336C852.69 96.5336 853.26 96.3769 853.761 96.0636C854.263 95.7503 854.651 95.3241 854.927 94.7852C855.215 94.2337 855.359 93.6196 855.359 92.9428C855.359 92.2409 855.215 91.6268 854.927 91.1004C854.651 90.5615 854.263 90.1353 853.761 89.822C853.26 89.4961 852.69 89.3332 852.051 89.3332C851.411 89.3332 850.835 89.4899 850.321 89.8032C849.82 90.1165 849.419 90.5489 849.118 91.1004C848.83 91.6393 848.685 92.2535 848.685 92.9428C848.685 93.6196 848.83 94.2337 849.118 94.7852C849.419 95.3241 849.82 95.7503 850.321 96.0636C850.835 96.3769 851.411 96.5336 852.051 96.5336ZM859.701 98V83.7684H861.45V98H859.701ZM864.351 98V87.8668H866.099V98H864.351ZM864.351 86.25V83.994H866.099V86.25H864.351ZM873.7 98.2256C872.71 98.2256 871.826 97.9937 871.049 97.53C870.285 97.0663 869.683 96.4333 869.244 95.6312C868.806 94.8291 868.586 93.9267 868.586 92.924C868.586 91.9088 868.806 91.0064 869.244 90.2168C869.683 89.4272 870.285 88.8005 871.049 88.3368C871.826 87.8731 872.71 87.6412 873.7 87.6412C874.364 87.6412 874.985 87.7603 875.561 87.9984C876.138 88.2365 876.645 88.5561 877.084 88.9572C877.523 89.3583 877.842 89.8283 878.043 90.3672L876.482 91.1192C876.244 90.5928 875.881 90.1667 875.392 89.8408C874.903 89.5024 874.339 89.3332 873.7 89.3332C873.086 89.3332 872.528 89.4899 872.027 89.8032C871.538 90.1165 871.149 90.5427 870.861 91.0816C870.573 91.6205 870.429 92.2409 870.429 92.9428C870.429 93.6196 870.573 94.2337 870.861 94.7852C871.149 95.3241 871.538 95.7503 872.027 96.0636C872.528 96.3769 873.086 96.5336 873.7 96.5336C874.339 96.5336 874.903 96.3707 875.392 96.0448C875.881 95.7064 876.244 95.2615 876.482 94.71L878.043 95.4996C877.842 96.026 877.523 96.496 877.084 96.9096C876.645 97.3107 876.138 97.6303 875.561 97.8684C874.985 98.1065 874.364 98.2256 873.7 98.2256ZM883.357 98.2256C882.693 98.2256 882.104 98.1065 881.59 97.8684C881.089 97.6177 880.694 97.2793 880.406 96.8532C880.118 96.4145 879.973 95.9132 879.973 95.3492C879.973 94.8103 880.086 94.3277 880.312 93.9016C880.55 93.4629 880.913 93.0932 881.402 92.7924C881.904 92.4916 882.53 92.2785 883.282 92.1532L887.042 91.5328V92.9992L883.677 93.5632C883.025 93.676 882.549 93.8828 882.248 94.1836C881.96 94.4844 881.816 94.8541 881.816 95.2928C881.816 95.7064 881.979 96.0511 882.305 96.3268C882.643 96.6025 883.063 96.7404 883.564 96.7404C884.203 96.7404 884.755 96.6088 885.219 96.3456C885.695 96.0699 886.065 95.7001 886.328 95.2364C886.604 94.7727 886.741 94.2588 886.741 93.6948V91.1192C886.741 90.5677 886.535 90.1228 886.121 89.7844C885.72 89.4335 885.187 89.258 884.523 89.258C883.947 89.258 883.433 89.4084 882.981 89.7092C882.543 89.9975 882.217 90.386 882.004 90.8748L880.481 90.0852C880.669 89.6215 880.97 89.2079 881.383 88.8444C881.797 88.4684 882.28 88.1739 882.831 87.9608C883.383 87.7477 883.959 87.6412 884.561 87.6412C885.338 87.6412 886.021 87.7916 886.61 88.0924C887.199 88.3807 887.656 88.788 887.982 89.3144C888.321 89.8283 888.49 90.4299 888.49 91.1192V98H886.779V96.0824L887.099 96.1952C886.886 96.5963 886.597 96.9472 886.234 97.248C885.87 97.5488 885.444 97.7869 884.955 97.9624C884.467 98.1379 883.934 98.2256 883.357 98.2256ZM895.322 98.1128C894.332 98.1128 893.568 97.8308 893.029 97.2668C892.502 96.7028 892.239 95.9069 892.239 94.8792V89.54H890.397V87.8668H890.773C891.224 87.8668 891.581 87.7289 891.844 87.4532C892.108 87.1775 892.239 86.814 892.239 86.3628V85.5356H893.988V87.8668H896.262V89.54H893.988V94.8228C893.988 95.1612 894.038 95.4557 894.138 95.7064C894.251 95.9571 894.432 96.1576 894.683 96.308C894.934 96.4459 895.266 96.5148 895.68 96.5148C895.767 96.5148 895.874 96.5085 895.999 96.496C896.137 96.4835 896.262 96.4709 896.375 96.4584V98C896.212 98.0376 896.03 98.0627 895.83 98.0752C895.629 98.1003 895.46 98.1128 895.322 98.1128ZM898.847 98V87.8668H900.595V98H898.847ZM898.847 86.25V83.994H900.595V86.25H898.847ZM908.309 98.2256C907.332 98.2256 906.448 98 905.658 97.5488C904.869 97.0851 904.242 96.4521 903.778 95.65C903.315 94.8479 903.083 93.9392 903.083 92.924C903.083 91.9088 903.308 91.0064 903.76 90.2168C904.223 89.4272 904.85 88.8005 905.64 88.3368C906.429 87.8731 907.319 87.6412 908.309 87.6412C909.287 87.6412 910.17 87.8731 910.96 88.3368C911.75 88.788 912.37 89.4084 912.821 90.198C913.285 90.9876 913.517 91.8963 913.517 92.924C913.517 93.9517 913.279 94.8667 912.802 95.6688C912.326 96.4584 911.693 97.0851 910.904 97.5488C910.127 98 909.262 98.2256 908.309 98.2256ZM908.309 96.5336C908.936 96.5336 909.5 96.3769 910.001 96.0636C910.515 95.7503 910.916 95.3179 911.204 94.7664C911.505 94.2149 911.656 93.6008 911.656 92.924C911.656 92.2347 911.505 91.6268 911.204 91.1004C910.916 90.5615 910.515 90.1353 910.001 89.822C909.5 89.4961 908.936 89.3332 908.309 89.3332C907.67 89.3332 907.093 89.4961 906.58 89.822C906.078 90.1353 905.677 90.5615 905.376 91.1004C905.076 91.6268 904.925 92.2347 904.925 92.924C904.925 93.6008 905.076 94.2149 905.376 94.7664C905.677 95.3179 906.078 95.7503 906.58 96.0636C907.093 96.3769 907.67 96.5336 908.309 96.5336ZM915.985 98V87.8668H917.696V89.8408L917.414 89.6716C917.665 89.0324 918.066 88.5373 918.617 88.1864C919.181 87.8229 919.839 87.6412 920.591 87.6412C921.318 87.6412 921.964 87.8041 922.528 88.13C923.104 88.4559 923.555 88.9071 923.881 89.4836C924.22 90.0601 924.389 90.7119 924.389 91.4388V98H922.622V92.0028C922.622 91.4388 922.521 90.9625 922.321 90.574C922.12 90.1855 921.832 89.8847 921.456 89.6716C921.092 89.446 920.673 89.3332 920.196 89.3332C919.72 89.3332 919.294 89.446 918.918 89.6716C918.554 89.8847 918.266 90.1917 918.053 90.5928C917.84 90.9813 917.734 91.4513 917.734 92.0028V98H915.985ZM821.56 132V117.994H826.505C827.432 117.994 828.247 118.169 828.949 118.52C829.651 118.871 830.196 119.373 830.584 120.024C830.985 120.676 831.186 121.441 831.186 122.318C831.186 123.195 830.985 123.96 830.584 124.612C830.196 125.251 829.651 125.752 828.949 126.116C828.259 126.467 827.445 126.642 826.505 126.642H823.403V132H821.56ZM823.403 124.95H826.561C827.125 124.95 827.614 124.843 828.028 124.63C828.441 124.417 828.761 124.11 828.986 123.709C829.212 123.308 829.325 122.844 829.325 122.318C829.325 121.779 829.212 121.315 828.986 120.927C828.761 120.526 828.441 120.219 828.028 120.006C827.614 119.793 827.125 119.686 826.561 119.686H823.403V124.95ZM833.659 132V121.867H835.37V123.728L835.182 123.465C835.42 122.888 835.783 122.462 836.272 122.186C836.761 121.898 837.356 121.754 838.058 121.754H838.678V123.408H837.795C837.08 123.408 836.504 123.634 836.065 124.085C835.627 124.524 835.407 125.151 835.407 125.965V132H833.659ZM845.232 132.226C844.255 132.226 843.371 132 842.581 131.549C841.792 131.085 841.165 130.452 840.701 129.65C840.238 128.848 840.006 127.939 840.006 126.924C840.006 125.909 840.231 125.006 840.683 124.217C841.146 123.427 841.773 122.801 842.563 122.337C843.352 121.873 844.242 121.641 845.232 121.641C846.21 121.641 847.093 121.873 847.883 122.337C848.673 122.788 849.293 123.408 849.744 124.198C850.208 124.988 850.44 125.896 850.44 126.924C850.44 127.952 850.202 128.867 849.725 129.669C849.249 130.458 848.616 131.085 847.827 131.549C847.05 132 846.185 132.226 845.232 132.226ZM845.232 130.534C845.859 130.534 846.423 130.377 846.924 130.064C847.438 129.75 847.839 129.318 848.127 128.766C848.428 128.215 848.579 127.601 848.579 126.924C848.579 126.235 848.428 125.627 848.127 125.1C847.839 124.561 847.438 124.135 846.924 123.822C846.423 123.496 845.859 123.333 845.232 123.333C844.593 123.333 844.017 123.496 843.503 123.822C843.001 124.135 842.6 124.561 842.299 125.1C841.999 125.627 841.848 126.235 841.848 126.924C841.848 127.601 841.999 128.215 842.299 128.766C842.6 129.318 843.001 129.75 843.503 130.064C844.017 130.377 844.593 130.534 845.232 130.534ZM857.608 132.226C856.618 132.226 855.734 131.994 854.957 131.53C854.193 131.066 853.591 130.433 853.153 129.631C852.714 128.829 852.495 127.927 852.495 126.924C852.495 125.909 852.714 125.006 853.153 124.217C853.591 123.427 854.193 122.801 854.957 122.337C855.734 121.873 856.618 121.641 857.608 121.641C858.272 121.641 858.893 121.76 859.469 121.998C860.046 122.237 860.554 122.556 860.992 122.957C861.431 123.358 861.75 123.828 861.951 124.367L860.391 125.119C860.152 124.593 859.789 124.167 859.3 123.841C858.811 123.502 858.247 123.333 857.608 123.333C856.994 123.333 856.436 123.49 855.935 123.803C855.446 124.117 855.058 124.543 854.769 125.082C854.481 125.621 854.337 126.241 854.337 126.943C854.337 127.62 854.481 128.234 854.769 128.785C855.058 129.324 855.446 129.75 855.935 130.064C856.436 130.377 856.994 130.534 857.608 130.534C858.247 130.534 858.811 130.371 859.3 130.045C859.789 129.706 860.152 129.261 860.391 128.71L861.951 129.5C861.75 130.026 861.431 130.496 860.992 130.91C860.554 131.311 860.046 131.63 859.469 131.868C858.893 132.107 858.272 132.226 857.608 132.226ZM869.086 132.226C868.109 132.226 867.238 131.994 866.473 131.53C865.709 131.066 865.107 130.433 864.668 129.631C864.23 128.817 864.01 127.908 864.01 126.905C864.01 125.89 864.223 124.988 864.65 124.198C865.088 123.408 865.677 122.788 866.417 122.337C867.169 121.873 868.008 121.641 868.936 121.641C869.688 121.641 870.352 121.779 870.929 122.055C871.518 122.318 872.013 122.681 872.414 123.145C872.828 123.596 873.141 124.117 873.354 124.706C873.58 125.282 873.692 125.884 873.692 126.51C873.692 126.648 873.68 126.805 873.655 126.98C873.642 127.143 873.623 127.3 873.598 127.45H865.289V125.946H872.583L871.756 126.623C871.869 125.971 871.806 125.389 871.568 124.875C871.33 124.361 870.979 123.954 870.515 123.653C870.051 123.352 869.525 123.202 868.936 123.202C868.347 123.202 867.808 123.352 867.319 123.653C866.83 123.954 866.448 124.386 866.172 124.95C865.909 125.501 865.803 126.159 865.853 126.924C865.803 127.663 865.915 128.315 866.191 128.879C866.479 129.431 866.88 129.863 867.394 130.176C867.921 130.477 868.491 130.628 869.105 130.628C869.782 130.628 870.352 130.471 870.816 130.158C871.28 129.844 871.656 129.443 871.944 128.954L873.41 129.706C873.21 130.17 872.896 130.596 872.47 130.985C872.057 131.361 871.562 131.662 870.985 131.887C870.421 132.113 869.788 132.226 869.086 132.226ZM879.788 132.226C878.773 132.226 877.89 131.975 877.138 131.474C876.386 130.972 875.853 130.295 875.54 129.443L876.931 128.766C877.219 129.368 877.614 129.844 878.115 130.195C878.617 130.546 879.174 130.722 879.788 130.722C880.34 130.722 880.797 130.59 881.161 130.327C881.524 130.064 881.706 129.719 881.706 129.293C881.706 128.992 881.618 128.754 881.443 128.578C881.28 128.39 881.079 128.246 880.841 128.146C880.603 128.033 880.384 127.952 880.183 127.902L878.66 127.469C877.745 127.206 877.075 126.83 876.649 126.341C876.235 125.852 876.028 125.282 876.028 124.63C876.028 124.029 876.179 123.509 876.48 123.07C876.793 122.619 877.213 122.268 877.739 122.017C878.278 121.767 878.88 121.641 879.544 121.641C880.434 121.641 881.23 121.867 881.932 122.318C882.646 122.769 883.154 123.402 883.454 124.217L882.026 124.875C881.8 124.348 881.462 123.935 881.01 123.634C880.559 123.321 880.052 123.164 879.488 123.164C878.974 123.164 878.566 123.296 878.266 123.559C877.965 123.809 877.814 124.129 877.814 124.518C877.814 124.806 877.89 125.044 878.04 125.232C878.19 125.407 878.372 125.545 878.585 125.646C878.798 125.733 879.005 125.809 879.206 125.871L880.86 126.36C881.687 126.598 882.326 126.968 882.778 127.469C883.241 127.971 883.473 128.572 883.473 129.274C883.473 129.838 883.317 130.346 883.003 130.797C882.69 131.248 882.257 131.599 881.706 131.85C881.155 132.1 880.515 132.226 879.788 132.226ZM889.578 132.226C888.563 132.226 887.68 131.975 886.928 131.474C886.176 130.972 885.643 130.295 885.33 129.443L886.721 128.766C887.009 129.368 887.404 129.844 887.905 130.195C888.406 130.546 888.964 130.722 889.578 130.722C890.13 130.722 890.587 130.59 890.951 130.327C891.314 130.064 891.496 129.719 891.496 129.293C891.496 128.992 891.408 128.754 891.233 128.578C891.07 128.39 890.869 128.246 890.631 128.146C890.393 128.033 890.174 127.952 889.973 127.902L888.45 127.469C887.535 127.206 886.865 126.83 886.439 126.341C886.025 125.852 885.818 125.282 885.818 124.63C885.818 124.029 885.969 123.509 886.27 123.07C886.583 122.619 887.003 122.268 887.529 122.017C888.068 121.767 888.67 121.641 889.334 121.641C890.224 121.641 891.02 121.867 891.722 122.318C892.436 122.769 892.944 123.402 893.244 124.217L891.816 124.875C891.59 124.348 891.252 123.935 890.8 123.634C890.349 123.321 889.842 123.164 889.278 123.164C888.764 123.164 888.356 123.296 888.056 123.559C887.755 123.809 887.604 124.129 887.604 124.518C887.604 124.806 887.68 125.044 887.83 125.232C887.98 125.407 888.162 125.545 888.375 125.646C888.588 125.733 888.795 125.809 888.996 125.871L890.65 126.36C891.477 126.598 892.116 126.968 892.568 127.469C893.031 127.971 893.263 128.572 893.263 129.274C893.263 129.838 893.106 130.346 892.793 130.797C892.48 131.248 892.047 131.599 891.496 131.85C890.944 132.1 890.305 132.226 889.578 132.226ZM895.74 132V121.867H897.488V132H895.74ZM895.74 120.25V117.994H897.488V120.25H895.74ZM900.389 132V121.867H902.1V123.841L901.818 123.672C902.069 123.032 902.47 122.537 903.021 122.186C903.585 121.823 904.243 121.641 904.995 121.641C905.722 121.641 906.368 121.804 906.932 122.13C907.508 122.456 907.959 122.907 908.285 123.484C908.624 124.06 908.793 124.712 908.793 125.439V132H907.026V126.003C907.026 125.439 906.925 124.963 906.725 124.574C906.524 124.185 906.236 123.885 905.86 123.672C905.497 123.446 905.077 123.333 904.6 123.333C904.124 123.333 903.698 123.446 903.322 123.672C902.959 123.885 902.67 124.192 902.457 124.593C902.244 124.981 902.138 125.451 902.138 126.003V132H900.389ZM916.314 136.136C915.6 136.136 914.936 136.023 914.322 135.798C913.72 135.572 913.2 135.259 912.761 134.858C912.335 134.469 912.009 134.012 911.784 133.485L913.419 132.733C913.595 133.209 913.927 133.611 914.416 133.936C914.917 134.275 915.544 134.444 916.296 134.444C916.872 134.444 917.392 134.331 917.856 134.106C918.332 133.893 918.708 133.567 918.984 133.128C919.26 132.702 919.398 132.182 919.398 131.568V129.293L919.717 129.631C919.366 130.321 918.859 130.847 918.194 131.21C917.543 131.574 916.822 131.756 916.032 131.756C915.08 131.756 914.228 131.536 913.476 131.098C912.724 130.646 912.134 130.039 911.708 129.274C911.282 128.497 911.069 127.638 911.069 126.698C911.069 125.746 911.282 124.887 911.708 124.123C912.134 123.358 912.717 122.757 913.457 122.318C914.209 121.867 915.061 121.641 916.014 121.641C916.803 121.641 917.518 121.823 918.157 122.186C918.808 122.537 919.329 123.026 919.717 123.653L919.454 124.123V121.867H921.165V131.568C921.165 132.445 920.958 133.228 920.544 133.918C920.131 134.607 919.554 135.146 918.815 135.534C918.088 135.935 917.254 136.136 916.314 136.136ZM916.183 130.064C916.784 130.064 917.323 129.913 917.8 129.612C918.288 129.312 918.677 128.911 918.965 128.409C919.253 127.895 919.398 127.325 919.398 126.698C919.398 126.084 919.253 125.52 918.965 125.006C918.677 124.493 918.288 124.085 917.8 123.784C917.323 123.484 916.784 123.333 916.183 123.333C915.569 123.333 915.011 123.484 914.51 123.784C914.008 124.085 913.613 124.493 913.325 125.006C913.049 125.508 912.912 126.072 912.912 126.698C912.912 127.325 913.049 127.895 913.325 128.409C913.613 128.911 914.002 129.312 914.491 129.612C914.992 129.913 915.556 130.064 916.183 130.064Z" fill="#2C3E51"/>
<rect x="48" y="25" width="227" height="5" fill="#797979" fill-opacity="0.06"/>
<rect x="324" y="25" width="227" height="5" fill="#797979" fill-opacity="0.06"/>
<rect x="601" y="25" width="219" height="5" fill="#797979" fill-opacity="0.06"/>
<rect x="870" y="25" width="121" height="5" fill="#797979" fill-opacity="0.06"/>
<path d="M1026.97 12.76L1027.35 13.52C1027.53 13.8933 1028 14.24 1028.41 14.32L1028.92 14.4C1030.44 14.6533 1030.8 15.7733 1029.71 16.88L1029.24 17.3467C1028.93 17.6667 1028.76 18.28 1028.85 18.7067L1028.92 18.9867C1029.33 20.8267 1028.36 21.5333 1026.76 20.5733L1026.41 20.3733C1026 20.1333 1025.33 20.1333 1024.92 20.3733L1024.57 20.5733C1022.96 21.5467 1021.99 20.8267 1022.41 18.9867L1022.48 18.7067C1022.57 18.28 1022.4 17.6667 1022.09 17.3467L1021.63 16.8667C1020.53 15.76 1020.89 14.64 1022.41 14.3867L1022.92 14.3067C1023.32 14.24 1023.8 13.88 1023.99 13.5067L1024.36 12.7467C1025.08 11.3067 1026.25 11.3067 1026.97 12.76Z" fill="#5DB075"/>
<path d="M1029.76 22.4534C1029.28 22.8 1027.93 23.44 1026.01 22.4534C1025.8 22.3467 1025.53 22.3334 1025.32 22.4534C1024.56 22.84 1023.87 23 1023.32 23C1022.47 23 1021.87 22.6667 1021.57 22.4534C1021.08 22.0934 1020.04 21.0667 1020.4 18.8934C1020.44 18.6667 1020.37 18.44 1020.23 18.2667C1019.31 17.2134 1018.8 15.8 1019.16 14.6934C1019.29 14.2534 1019.01 13.6667 1018.56 13.6667H1010.33C1006.33 13.6667 1003.67 15.6667 1003.67 20.3334V29.6667C1003.67 34.3334 1006.33 36.3334 1010.33 36.3334H1023.67C1027.67 36.3334 1030.33 34.3334 1030.33 29.6667V22.6934C1030.33 22.44 1029.97 22.3067 1029.76 22.4534ZM1020.12 25.12C1019.24 25.8267 1018.12 26.1734 1017 26.1734C1015.88 26.1734 1014.75 25.8267 1013.88 25.12L1009.71 21.7867C1009.28 21.44 1009.21 20.8 1009.55 20.3734C1009.89 19.9467 1010.52 19.8667 1010.95 20.2134L1015.12 23.5467C1016.13 24.36 1017.85 24.36 1018.87 23.5467C1019.29 23.2 1019.92 23.2667 1020.27 23.7067C1020.63 24.1334 1020.56 24.7734 1020.12 25.12Z" fill="#5DB075"/>
</svg>
