<svg width="318" height="44" viewBox="0 0 318 44" fill="none" xmlns="http://www.w3.org/2000/svg">
<circle cx="7.68595" cy="7.68595" r="7.68595" fill="#797979" fill-opacity="0.06"/>
<path d="M7.06223 5.54684V4.93953H8.43784V10.2297H7.76467V5.54684H7.06223Z" fill="#5DB075"/>
<circle cx="92.2309" cy="7.68595" r="7.68595" fill="#797979" fill-opacity="0.06"/>
<path d="M90.8479 9.69559C91.4674 9.19804 91.9528 8.79072 92.304 8.47365C92.6552 8.1517 92.9503 7.81756 93.1894 7.47122C93.4333 7.12 93.5552 6.7761 93.5552 6.43952C93.5552 6.12245 93.4772 5.87367 93.3211 5.69318C93.1698 5.50782 92.9235 5.41513 92.582 5.41513C92.2503 5.41513 91.9918 5.52001 91.8064 5.72977C91.626 5.93464 91.5284 6.21025 91.5138 6.55659H90.8699C90.8894 6.01025 91.0552 5.5883 91.3674 5.29074C91.6796 4.99319 92.082 4.84441 92.5747 4.84441C93.0772 4.84441 93.4747 4.98343 93.7674 5.26148C94.065 5.53952 94.2137 5.92245 94.2137 6.41025C94.2137 6.81512 94.0918 7.21024 93.8479 7.59561C93.6089 7.97609 93.3357 8.31268 93.0284 8.60536C92.7211 8.89316 92.3284 9.22974 91.8503 9.61511H94.3674V10.1712H90.8479V9.69559Z" fill="#5DB075"/>
<circle cx="177.084" cy="7.68595" r="7.68595" fill="#797979" fill-opacity="0.06"/>
<path d="M175.717 6.27123C175.751 5.82245 175.925 5.47123 176.237 5.21757C176.549 4.96392 176.954 4.83709 177.451 4.83709C177.783 4.83709 178.068 4.89806 178.307 5.02001C178.551 5.13709 178.734 5.29806 178.856 5.50294C178.983 5.70781 179.047 5.93952 179.047 6.19806C179.047 6.50049 178.959 6.76147 178.783 6.98098C178.612 7.20049 178.388 7.34195 178.11 7.40536V7.44195C178.427 7.52 178.678 7.67366 178.864 7.90292C179.049 8.13219 179.142 8.43219 179.142 8.80292C179.142 9.08096 179.078 9.33218 178.951 9.55657C178.825 9.77608 178.634 9.94925 178.381 10.0761C178.127 10.2029 177.822 10.2663 177.466 10.2663C176.949 10.2663 176.525 10.1322 176.193 9.86389C175.861 9.59072 175.676 9.20535 175.637 8.7078H176.281C176.315 9.00048 176.434 9.2395 176.639 9.42486C176.844 9.61023 177.117 9.70291 177.459 9.70291C177.8 9.70291 178.059 9.61511 178.234 9.4395C178.415 9.25901 178.505 9.02731 178.505 8.74438C178.505 8.37853 178.383 8.11512 178.139 7.95414C177.895 7.79317 177.527 7.71268 177.034 7.71268H176.866V7.15659H177.042C177.49 7.15171 177.829 7.07854 178.059 6.93708C178.288 6.79073 178.403 6.56635 178.403 6.26391C178.403 6.00537 178.317 5.79806 178.147 5.64196C177.981 5.48587 177.742 5.40782 177.429 5.40782C177.127 5.40782 176.883 5.48587 176.698 5.64196C176.512 5.79806 176.403 6.00781 176.368 6.27123H175.717Z" fill="#5DB075"/>
<circle cx="259.785" cy="7.68595" r="7.68595" fill="#797979" fill-opacity="0.06"/>
<path d="M258.125 9.0517V8.54682L260.693 4.99075H261.49V8.47365H262.222V9.0517H261.49V10.2297H260.832V9.0517H258.125ZM260.861 5.68586L258.893 8.47365H260.861V5.68586Z" fill="#5DB075"/>
<path d="M1.95936 29.5124C1.68579 29.5124 1.43533 29.4623 1.20799 29.3621C0.980645 29.258 0.787984 29.1174 0.630002 28.9401C0.47202 28.7629 0.35835 28.5645 0.288992 28.3448L0.780278 28.1425C0.884315 28.42 1.03844 28.6338 1.24266 28.7841C1.45074 28.9305 1.69349 29.0037 1.97092 29.0037C2.14047 29.0037 2.28881 28.9768 2.41597 28.9228C2.54313 28.8689 2.64138 28.7937 2.71074 28.6974C2.78395 28.5972 2.82056 28.4816 2.82056 28.3506C2.82056 28.1695 2.76854 28.0269 2.6645 27.9229C2.56432 27.815 2.41597 27.7341 2.21946 27.6801L1.42762 27.4374C1.11551 27.3411 0.876608 27.1889 0.71092 26.9808C0.545231 26.7727 0.462387 26.5338 0.462387 26.2641C0.462387 26.029 0.518259 25.8229 0.630002 25.6456C0.745599 25.4645 0.903581 25.3239 1.10395 25.2237C1.30817 25.1197 1.53936 25.0677 1.79753 25.0677C2.05569 25.0677 2.28881 25.1139 2.49689 25.2064C2.70882 25.2989 2.88799 25.4241 3.03441 25.5821C3.18084 25.7362 3.28873 25.9134 3.35808 26.1138L2.87258 26.3161C2.7801 26.0733 2.64138 25.8903 2.45643 25.767C2.27147 25.6399 2.05377 25.5763 1.80331 25.5763C1.64918 25.5763 1.51239 25.6033 1.39294 25.6572C1.27734 25.7073 1.18679 25.7824 1.12129 25.8826C1.05964 25.9789 1.02881 26.0945 1.02881 26.2294C1.02881 26.3874 1.0789 26.528 1.17909 26.6513C1.27927 26.7746 1.43147 26.869 1.63569 26.9345L2.35817 27.1484C2.69726 27.2524 2.9535 27.4008 3.12689 27.5934C3.30029 27.7861 3.38698 28.025 3.38698 28.3101C3.38698 28.5452 3.32533 28.7533 3.20203 28.9344C3.08258 29.1155 2.91496 29.258 2.69918 29.3621C2.48726 29.4623 2.24065 29.5124 1.95936 29.5124ZM5.31447 29.5124C5.09098 29.5124 4.88869 29.4603 4.70758 29.3563C4.53034 29.2523 4.39162 29.1078 4.29144 28.9228C4.19511 28.734 4.14694 28.5182 4.14694 28.2755V26.3277H4.68447V28.2177C4.68447 28.3718 4.71529 28.5067 4.77694 28.6223C4.84245 28.7379 4.93107 28.8284 5.04282 28.8939C5.15841 28.9594 5.28942 28.9922 5.43584 28.9922C5.58227 28.9922 5.71135 28.9594 5.82309 28.8939C5.93869 28.8284 6.02731 28.734 6.08897 28.6107C6.15447 28.4874 6.18722 28.341 6.18722 28.1714V26.3277H6.73053V29.443H6.20456V28.8361L6.29126 28.8881C6.21805 29.0846 6.09282 29.2388 5.91557 29.3505C5.74218 29.4584 5.54181 29.5124 5.31447 29.5124ZM9.23365 29.5124C8.98319 29.5124 8.75392 29.4565 8.54585 29.3447C8.34163 29.233 8.18364 29.075 8.0719 28.8708L8.14704 28.7783V29.443H7.62107V25.0677H8.1586V26.9981L8.07768 26.8652C8.19328 26.6802 8.35126 26.5338 8.55163 26.4259C8.75199 26.3142 8.98126 26.2583 9.23943 26.2583C9.53227 26.2583 9.79429 26.3296 10.0255 26.4722C10.2605 26.6147 10.4455 26.8093 10.5803 27.0559C10.7152 27.2987 10.7826 27.5761 10.7826 27.8882C10.7826 28.1926 10.7152 28.4681 10.5803 28.7147C10.4455 28.9613 10.2605 29.1559 10.0255 29.2985C9.79429 29.4411 9.53034 29.5124 9.23365 29.5124ZM9.19319 28.9922C9.3897 28.9922 9.56502 28.944 9.71915 28.8477C9.87328 28.7513 9.99273 28.6203 10.0775 28.4546C10.1661 28.2851 10.2104 28.0963 10.2104 27.8882C10.2104 27.6724 10.1661 27.4836 10.0775 27.3218C9.99273 27.1561 9.87328 27.0251 9.71915 26.9288C9.56502 26.8286 9.3897 26.7785 9.19319 26.7785C8.99667 26.7785 8.81943 26.8267 8.66144 26.923C8.50731 27.0193 8.38401 27.1523 8.29153 27.3218C8.20291 27.4875 8.1586 27.6763 8.1586 27.8882C8.1586 28.0963 8.20291 28.2851 8.29153 28.4546C8.38401 28.6203 8.50731 28.7513 8.66144 28.8477C8.81943 28.944 8.99667 28.9922 9.19319 28.9922ZM11.5453 29.443V26.3277H12.0712V26.9634L11.9961 26.8652C12.0732 26.6687 12.1965 26.5184 12.366 26.4144C12.5355 26.3103 12.7263 26.2583 12.9382 26.2583C13.181 26.2583 13.3987 26.3257 13.5913 26.4606C13.7878 26.5955 13.9227 26.7727 13.9959 26.9923L13.8456 26.9981C13.9266 26.7554 14.0633 26.5723 14.256 26.449C14.4487 26.3219 14.6625 26.2583 14.8976 26.2583C15.1133 26.2583 15.3079 26.3084 15.4813 26.4086C15.6586 26.5088 15.7992 26.6475 15.9033 26.8247C16.0073 27.002 16.0593 27.2023 16.0593 27.4258V29.443H15.516V27.5992C15.516 27.4258 15.4852 27.2794 15.4235 27.16C15.3619 27.0405 15.2771 26.948 15.1692 26.8825C15.0652 26.8132 14.9419 26.7785 14.7993 26.7785C14.6606 26.7785 14.5354 26.8132 14.4236 26.8825C14.3157 26.948 14.229 27.0424 14.1635 27.1657C14.1019 27.2852 14.0711 27.4297 14.0711 27.5992V29.443H13.5277V27.5992C13.5277 27.4258 13.4969 27.2794 13.4353 27.16C13.3736 27.0405 13.2888 26.948 13.181 26.8825C13.0769 26.8132 12.9536 26.7785 12.811 26.7785C12.6723 26.7785 12.5471 26.8132 12.4354 26.8825C12.3275 26.948 12.2408 27.0424 12.1753 27.1657C12.1136 27.2852 12.0828 27.4297 12.0828 27.5992V29.443H11.5453ZM16.8805 29.443V26.3277H17.4181V29.443H16.8805ZM16.8805 25.8306V25.137H17.4181V25.8306H16.8805ZM19.5757 29.4777C19.2713 29.4777 19.0363 29.391 18.8706 29.2176C18.7087 29.0442 18.6278 28.7995 18.6278 28.4835V26.8421H18.0614V26.3277H18.177C18.3157 26.3277 18.4255 26.2853 18.5064 26.2005C18.5874 26.1157 18.6278 26.004 18.6278 25.8653V25.611H19.1653V26.3277H19.8647V26.8421H19.1653V28.4662C19.1653 28.5702 19.1808 28.6608 19.2116 28.7379C19.2463 28.8149 19.3021 28.8766 19.3792 28.9228C19.4563 28.9652 19.5584 28.9864 19.6855 28.9864C19.7125 28.9864 19.7453 28.9845 19.7838 28.9806C19.8262 28.9768 19.8647 28.9729 19.8994 28.969V29.443C19.8493 29.4546 19.7934 29.4623 19.7318 29.4661C19.6701 29.4738 19.6181 29.4777 19.5757 29.4777ZM22.8548 29.443V27.4721L21.3636 25.137H22.0052L23.2536 27.0964H23.0224L24.2651 25.137H24.9067L23.427 27.4721V29.443H22.8548ZM26.3637 29.5124C26.0631 29.5124 25.7915 29.443 25.5487 29.3043C25.306 29.1617 25.1133 28.9671 24.9707 28.7205C24.8282 28.4739 24.7569 28.1945 24.7569 27.8824C24.7569 27.5703 24.8262 27.2929 24.965 27.0501C25.1075 26.8074 25.3002 26.6147 25.5429 26.4722C25.7857 26.3296 26.0593 26.2583 26.3637 26.2583C26.6642 26.2583 26.9359 26.3296 27.1786 26.4722C27.4214 26.6109 27.6121 26.8016 27.7508 27.0444C27.8934 27.2871 27.9647 27.5665 27.9647 27.8824C27.9647 28.1984 27.8915 28.4797 27.7451 28.7263C27.5986 28.969 27.404 29.1617 27.1613 29.3043C26.9224 29.443 26.6565 29.5124 26.3637 29.5124ZM26.3637 28.9922C26.5563 28.9922 26.7297 28.944 26.8839 28.8477C27.0418 28.7513 27.1651 28.6184 27.2538 28.4489C27.3462 28.2793 27.3925 28.0905 27.3925 27.8824C27.3925 27.6705 27.3462 27.4836 27.2538 27.3218C27.1651 27.1561 27.0418 27.0251 26.8839 26.9288C26.7297 26.8286 26.5563 26.7785 26.3637 26.7785C26.1672 26.7785 25.9899 26.8286 25.8319 26.9288C25.6778 27.0251 25.5545 27.1561 25.462 27.3218C25.3695 27.4836 25.3233 27.6705 25.3233 27.8824C25.3233 28.0905 25.3695 28.2793 25.462 28.4489C25.5545 28.6184 25.6778 28.7513 25.8319 28.8477C25.9899 28.944 26.1672 28.9922 26.3637 28.9922ZM29.8275 29.5124C29.604 29.5124 29.4017 29.4603 29.2206 29.3563C29.0434 29.2523 28.9047 29.1078 28.8045 28.9228C28.7082 28.734 28.66 28.5182 28.66 28.2755V26.3277H29.1975V28.2177C29.1975 28.3718 29.2283 28.5067 29.29 28.6223C29.3555 28.7379 29.4441 28.8284 29.5559 28.8939C29.6715 28.9594 29.8025 28.9922 29.9489 28.9922C30.0953 28.9922 30.2244 28.9594 30.3361 28.8939C30.4517 28.8284 30.5404 28.734 30.602 28.6107C30.6675 28.4874 30.7003 28.341 30.7003 28.1714V26.3277H31.2436V29.443H30.7176V28.8361L30.8043 28.8881C30.7311 29.0846 30.6059 29.2388 30.4286 29.3505C30.2552 29.4584 30.0549 29.5124 29.8275 29.5124ZM32.1341 29.443V26.3277H32.6601V26.8999L32.6023 26.8189C32.6755 26.6417 32.7872 26.5107 32.9375 26.4259C33.0878 26.3373 33.2708 26.293 33.4866 26.293H33.6773V26.8016H33.4057C33.186 26.8016 33.0088 26.871 32.8739 27.0097C32.7391 27.1445 32.6716 27.3372 32.6716 27.5877V29.443H32.1341ZM0.479726 39.443V35.137H1.99982C2.28496 35.137 2.53542 35.191 2.7512 35.2989C2.96698 35.4067 3.1346 35.5609 3.25405 35.7612C3.37735 35.9616 3.439 36.1967 3.439 36.4664C3.439 36.7708 3.36194 37.0289 3.20781 37.2409C3.05368 37.4528 2.84561 37.605 2.58359 37.6975L3.5835 39.443H2.9246L1.87267 37.5761L2.24836 37.7957H1.04615V39.443H0.479726ZM1.04615 37.2756H2.01716C2.1867 37.2756 2.33505 37.2428 2.46221 37.1773C2.58937 37.1118 2.68762 37.0174 2.75698 36.8941C2.83019 36.7708 2.8668 36.6282 2.8668 36.4664C2.8668 36.3007 2.83019 36.1581 2.75698 36.0387C2.68762 35.9154 2.58937 35.821 2.46221 35.7555C2.33505 35.69 2.1867 35.6572 2.01716 35.6572H1.04615V37.2756ZM5.48023 39.5124C5.17968 39.5124 4.91188 39.4411 4.67683 39.2985C4.44179 39.1559 4.25683 38.9613 4.12197 38.7147C3.98711 38.4643 3.91968 38.1849 3.91968 37.8767C3.91968 37.5645 3.98518 37.2871 4.11619 37.0444C4.25105 36.8016 4.43215 36.6109 4.65949 36.4722C4.89069 36.3296 5.14885 36.2583 5.43399 36.2583C5.66519 36.2583 5.86941 36.3007 6.04665 36.3855C6.22776 36.4664 6.37996 36.5781 6.50326 36.7207C6.63042 36.8594 6.72675 37.0193 6.79225 37.2004C6.86161 37.3777 6.89629 37.5626 6.89629 37.7553C6.89629 37.7977 6.89244 37.8458 6.88473 37.8998C6.88088 37.9499 6.8751 37.998 6.86739 38.0443H4.3127V37.5819H6.55528L6.30097 37.79C6.33565 37.5896 6.31638 37.4104 6.24317 37.2524C6.16996 37.0945 6.06207 36.9692 5.9195 36.8767C5.77693 36.7843 5.61509 36.738 5.43399 36.738C5.25289 36.738 5.0872 36.7843 4.93693 36.8767C4.78665 36.9692 4.66913 37.1022 4.58436 37.2756C4.50344 37.4451 4.47069 37.6474 4.4861 37.8824C4.47069 38.1098 4.50537 38.3101 4.59014 38.4835C4.67876 38.6531 4.80206 38.786 4.96005 38.8823C5.12188 38.9748 5.2972 39.0211 5.48601 39.0211C5.69409 39.0211 5.86941 38.9729 6.01198 38.8766C6.15455 38.7802 6.27014 38.6569 6.35877 38.5067L6.80959 38.7379C6.74794 38.8804 6.65161 39.0114 6.5206 39.1309C6.39344 39.2465 6.24124 39.339 6.06399 39.4083C5.8906 39.4777 5.69601 39.5124 5.48023 39.5124ZM10.146 40.599V38.7783L10.2327 38.8708C10.1249 39.075 9.96687 39.233 9.7588 39.3447C9.55458 39.4565 9.32531 39.5124 9.071 39.5124C8.77815 39.5124 8.51421 39.4411 8.27916 39.2985C8.04797 39.1559 7.86494 38.9613 7.73008 38.7147C7.59521 38.4681 7.52778 38.1926 7.52778 37.8882C7.52778 37.5761 7.59521 37.2987 7.73008 37.0559C7.86494 36.8093 8.04797 36.6147 8.27916 36.4722C8.51421 36.3296 8.77815 36.2583 9.071 36.2583C9.32916 36.2583 9.55843 36.3142 9.7588 36.4259C9.95917 36.5338 10.1171 36.6802 10.2327 36.8652L10.1634 36.9981V36.3277H10.6894V40.599H10.146ZM9.11724 38.9922C9.31375 38.9922 9.48907 38.944 9.6432 38.8477C9.79733 38.7513 9.91871 38.6203 10.0073 38.4546C10.0998 38.2851 10.146 38.0963 10.146 37.8882C10.146 37.6763 10.0998 37.4875 10.0073 37.3218C9.91871 37.1523 9.79733 37.0193 9.6432 36.923C9.48907 36.8267 9.31375 36.7785 9.11724 36.7785C8.92458 36.7785 8.74925 36.8286 8.59127 36.9288C8.43714 37.0251 8.31577 37.1561 8.22714 37.3218C8.13852 37.4836 8.09421 37.6724 8.09421 37.8882C8.09421 38.0963 8.13852 38.2851 8.22714 38.4546C8.31577 38.6203 8.43714 38.7513 8.59127 38.8477C8.7454 38.944 8.92072 38.9922 9.11724 38.9922ZM12.6831 39.5124C12.4596 39.5124 12.2573 39.4603 12.0762 39.3563C11.8989 39.2523 11.7602 39.1078 11.66 38.9228C11.5637 38.734 11.5156 38.5182 11.5156 38.2755V36.3277H12.0531V38.2177C12.0531 38.3718 12.0839 38.5067 12.1456 38.6223C12.2111 38.7379 12.2997 38.8284 12.4114 38.8939C12.527 38.9594 12.658 38.9922 12.8045 38.9922C12.9509 38.9922 13.08 38.9594 13.1917 38.8939C13.3073 38.8284 13.3959 38.734 13.4576 38.6107C13.5231 38.4874 13.5558 38.341 13.5558 38.1714V36.3277H14.0991V39.443H13.5732V38.8361L13.6599 38.8881C13.5867 39.0846 13.4614 39.2388 13.2842 39.3505C13.1108 39.4584 12.9104 39.5124 12.6831 39.5124ZM16.4231 39.5124C16.1225 39.5124 15.8547 39.4411 15.6197 39.2985C15.3846 39.1559 15.1997 38.9613 15.0648 38.7147C14.93 38.4643 14.8625 38.1849 14.8625 37.8767C14.8625 37.5645 14.928 37.2871 15.059 37.0444C15.1939 36.8016 15.375 36.6109 15.6023 36.4722C15.8335 36.3296 16.0917 36.2583 16.3768 36.2583C16.608 36.2583 16.8123 36.3007 16.9895 36.3855C17.1706 36.4664 17.3228 36.5781 17.4461 36.7207C17.5733 36.8594 17.6696 37.0193 17.7351 37.2004C17.8045 37.3777 17.8391 37.5626 17.8391 37.7553C17.8391 37.7977 17.8353 37.8458 17.8276 37.8998C17.8237 37.9499 17.8179 37.998 17.8102 38.0443H15.2556V37.5819H17.4981L17.2438 37.79C17.2785 37.5896 17.2592 37.4104 17.186 37.2524C17.1128 37.0945 17.0049 36.9692 16.8624 36.8767C16.7198 36.7843 16.5579 36.738 16.3768 36.738C16.1957 36.738 16.0301 36.7843 15.8798 36.8767C15.7295 36.9692 15.612 37.1022 15.5272 37.2756C15.4463 37.4451 15.4135 37.6474 15.429 37.8824C15.4135 38.1098 15.4482 38.3101 15.533 38.4835C15.6216 38.6531 15.7449 38.786 15.9029 38.8823C16.0647 38.9748 16.2401 39.0211 16.4289 39.0211C16.6369 39.0211 16.8123 38.9729 16.9548 38.8766C17.0974 38.7802 17.213 38.6569 17.3016 38.5067L17.7524 38.7379C17.6908 38.8804 17.5945 39.0114 17.4635 39.1309C17.3363 39.2465 17.1841 39.339 17.0068 39.4083C16.8335 39.4777 16.6389 39.5124 16.4231 39.5124ZM19.7133 39.5124C19.4012 39.5124 19.1295 39.4353 18.8983 39.2812C18.6671 39.127 18.5034 38.919 18.4071 38.6569L18.8348 38.4489C18.9234 38.6338 19.0448 38.7802 19.1989 38.8881C19.353 38.996 19.5245 39.05 19.7133 39.05C19.8828 39.05 20.0235 39.0095 20.1352 38.9286C20.247 38.8477 20.3028 38.7417 20.3028 38.6107C20.3028 38.5182 20.2759 38.445 20.2219 38.3911C20.1718 38.3333 20.1102 38.289 20.037 38.2581C19.9638 38.2234 19.8963 38.1984 19.8347 38.183L19.3665 38.0501C19.0852 37.9691 18.8791 37.8535 18.7481 37.7033C18.6209 37.553 18.5573 37.3777 18.5573 37.1773C18.5573 36.9923 18.6036 36.8324 18.696 36.6976C18.7924 36.5589 18.9215 36.451 19.0833 36.3739C19.249 36.2968 19.4339 36.2583 19.6382 36.2583C19.9117 36.2583 20.1564 36.3277 20.3722 36.4664C20.5918 36.6051 20.7479 36.7997 20.8404 37.0501L20.4011 37.2524C20.3317 37.0906 20.2277 36.9634 20.089 36.871C19.9503 36.7746 19.7942 36.7265 19.6208 36.7265C19.4628 36.7265 19.3376 36.7669 19.2451 36.8478C19.1527 36.9249 19.1064 37.0232 19.1064 37.1426C19.1064 37.2312 19.1295 37.3045 19.1758 37.3623C19.222 37.4162 19.2779 37.4586 19.3434 37.4894C19.4089 37.5164 19.4725 37.5395 19.5341 37.5588L20.0427 37.709C20.2971 37.7823 20.4936 37.8959 20.6323 38.0501C20.7749 38.2042 20.8461 38.3891 20.8461 38.6049C20.8461 38.7783 20.798 38.9344 20.7017 39.0731C20.6053 39.2118 20.4724 39.3197 20.3028 39.3968C20.1333 39.4738 19.9368 39.5124 19.7133 39.5124ZM22.8734 39.4777C22.569 39.4777 22.3339 39.391 22.1682 39.2176C22.0064 39.0442 21.9255 38.7995 21.9255 38.4835V36.8421H21.3591V36.3277H21.4747C21.6134 36.3277 21.7232 36.2853 21.8041 36.2005C21.885 36.1157 21.9255 36.004 21.9255 35.8653V35.611H22.463V36.3277H23.1624V36.8421H22.463V38.4662C22.463 38.5702 22.4784 38.6608 22.5092 38.7379C22.5439 38.8149 22.5998 38.8766 22.6769 38.9228C22.7539 38.9652 22.856 38.9864 22.9832 38.9864C23.0102 38.9864 23.0429 38.9845 23.0815 38.9806C23.1238 38.9768 23.1624 38.9729 23.197 38.969V39.443C23.147 39.4546 23.0911 39.4623 23.0294 39.4661C22.9678 39.4738 22.9158 39.4777 22.8734 39.4777Z" fill="#2C3E51"/>
<path d="M86.5862 29.5124C86.2741 29.5124 85.9966 29.4468 85.7539 29.3158C85.515 29.1848 85.3281 29.0057 85.1932 28.7783C85.0622 28.5471 84.9967 28.2851 84.9967 27.9923V25.137H85.5689V27.9807C85.5689 28.1772 85.6113 28.3525 85.6961 28.5067C85.7847 28.6569 85.9042 28.7745 86.0544 28.8592C86.2086 28.944 86.3858 28.9864 86.5862 28.9864C86.7865 28.9864 86.9619 28.944 87.1121 28.8592C87.2663 28.7745 87.3857 28.6569 87.4705 28.5067C87.5591 28.3525 87.6034 28.1772 87.6034 27.9807V25.137H88.1756V27.9923C88.1756 28.2851 88.1082 28.5471 87.9733 28.7783C87.8423 29.0057 87.6574 29.1848 87.4185 29.3158C87.1796 29.4468 86.9021 29.5124 86.5862 29.5124ZM89.1007 30.599V26.3277H89.6267V26.9981L89.5573 26.8652C89.6729 26.6802 89.8309 26.5338 90.0313 26.4259C90.2316 26.3142 90.4609 26.2583 90.7191 26.2583C91.0119 26.2583 91.2739 26.3296 91.5051 26.4722C91.7402 26.6147 91.9251 26.8093 92.06 27.0559C92.1949 27.2987 92.2623 27.5761 92.2623 27.8882C92.2623 28.1926 92.1949 28.4681 92.06 28.7147C91.9251 28.9613 91.7402 29.1559 91.5051 29.2985C91.2739 29.4411 91.01 29.5124 90.7133 29.5124C90.4628 29.5124 90.2336 29.4565 90.0255 29.3447C89.8213 29.233 89.6633 29.075 89.5516 28.8708L89.6382 28.7783V30.599H89.1007ZM90.6728 28.9922C90.8694 28.9922 91.0447 28.944 91.1988 28.8477C91.3529 28.7513 91.4724 28.6203 91.5572 28.4546C91.6458 28.2851 91.6901 28.0963 91.6901 27.8882C91.6901 27.6724 91.6458 27.4836 91.5572 27.3218C91.4724 27.1561 91.3529 27.0251 91.1988 26.9288C91.0447 26.8286 90.8694 26.7785 90.6728 26.7785C90.4763 26.7785 90.2991 26.8267 90.1411 26.923C89.987 27.0193 89.8637 27.1523 89.7712 27.3218C89.6826 27.4875 89.6382 27.6763 89.6382 27.8882C89.6382 28.0963 89.6826 28.2851 89.7712 28.4546C89.8637 28.6203 89.987 28.7513 90.1411 28.8477C90.2991 28.944 90.4763 28.9922 90.6728 28.9922ZM93.0249 29.443V25.0677H93.5624V29.443H93.0249ZM95.9339 29.5124C95.6334 29.5124 95.3617 29.443 95.119 29.3043C94.8762 29.1617 94.6836 28.9671 94.541 28.7205C94.3984 28.4739 94.3271 28.1945 94.3271 27.8824C94.3271 27.5703 94.3965 27.2929 94.5352 27.0501C94.6778 26.8074 94.8704 26.6147 95.1132 26.4722C95.356 26.3296 95.6295 26.2583 95.9339 26.2583C96.2345 26.2583 96.5061 26.3296 96.7489 26.4722C96.9916 26.6109 97.1824 26.8016 97.3211 27.0444C97.4637 27.2871 97.5349 27.5665 97.5349 27.8824C97.5349 28.1984 97.4617 28.4797 97.3153 28.7263C97.1689 28.969 96.9743 29.1617 96.7316 29.3043C96.4927 29.443 96.2268 29.5124 95.9339 29.5124ZM95.9339 28.9922C96.1266 28.9922 96.3 28.944 96.4541 28.8477C96.6121 28.7513 96.7354 28.6184 96.824 28.4489C96.9165 28.2793 96.9627 28.0905 96.9627 27.8824C96.9627 27.6705 96.9165 27.4836 96.824 27.3218C96.7354 27.1561 96.6121 27.0251 96.4541 26.9288C96.3 26.8286 96.1266 26.7785 95.9339 26.7785C95.7374 26.7785 95.5602 26.8286 95.4022 26.9288C95.2481 27.0251 95.1248 27.1561 95.0323 27.3218C94.9398 27.4836 94.8936 27.6705 94.8936 27.8824C94.8936 28.0905 94.9398 28.2793 95.0323 28.4489C95.1248 28.6184 95.2481 28.7513 95.4022 28.8477C95.5602 28.944 95.7374 28.9922 95.9339 28.9922ZM99.207 29.5124C99.0028 29.5124 98.8217 29.4757 98.6637 29.4025C98.5096 29.3255 98.3882 29.2214 98.2996 29.0904C98.211 28.9556 98.1667 28.8014 98.1667 28.628C98.1667 28.4623 98.2013 28.314 98.2707 28.183C98.3439 28.0481 98.4557 27.9345 98.6059 27.842C98.7601 27.7495 98.9527 27.684 99.1839 27.6455L100.34 27.4547V27.9056L99.3053 28.079C99.1049 28.1136 98.9585 28.1772 98.866 28.2697C98.7774 28.3622 98.7331 28.4758 98.7331 28.6107C98.7331 28.7379 98.7832 28.8438 98.8834 28.9286C98.9874 29.0134 99.1165 29.0557 99.2706 29.0557C99.4671 29.0557 99.6367 29.0153 99.7792 28.9344C99.9257 28.8496 100.039 28.7359 100.12 28.5934C100.205 28.4508 100.247 28.2928 100.247 28.1194V27.3276C100.247 27.158 100.184 27.0212 100.057 26.9172C99.9334 26.8093 99.7696 26.7554 99.5654 26.7554C99.3881 26.7554 99.2302 26.8016 99.0914 26.8941C98.9566 26.9827 98.8564 27.1022 98.7909 27.2524L98.3227 27.0097C98.3805 26.8671 98.473 26.74 98.6002 26.6282C98.7273 26.5126 98.8757 26.4221 99.0452 26.3566C99.2147 26.2911 99.392 26.2583 99.5769 26.2583C99.8158 26.2583 100.026 26.3045 100.207 26.397C100.388 26.4856 100.529 26.6109 100.629 26.7727C100.733 26.9307 100.785 27.1156 100.785 27.3276V29.443H100.259V28.8535L100.357 28.8881C100.292 29.0114 100.203 29.1193 100.091 29.2118C99.9796 29.3043 99.8486 29.3775 99.6983 29.4314C99.548 29.4854 99.3843 29.5124 99.207 29.5124ZM103.092 29.5124C102.799 29.5124 102.535 29.4411 102.3 29.2985C102.069 29.1559 101.886 28.9613 101.751 28.7147C101.616 28.4681 101.549 28.1926 101.549 27.8882C101.549 27.5761 101.616 27.2987 101.751 27.0559C101.886 26.8093 102.069 26.6147 102.3 26.4722C102.535 26.3296 102.799 26.2583 103.092 26.2583C103.35 26.2583 103.58 26.3142 103.78 26.4259C103.98 26.5338 104.138 26.6802 104.254 26.8652L104.167 26.9981V25.0677H104.711V29.443H104.185V28.7783L104.254 28.8708C104.146 29.075 103.988 29.233 103.78 29.3447C103.576 29.4565 103.347 29.5124 103.092 29.5124ZM103.138 28.9922C103.335 28.9922 103.51 28.944 103.664 28.8477C103.819 28.7513 103.94 28.6203 104.029 28.4546C104.121 28.2851 104.167 28.0963 104.167 27.8882C104.167 27.6763 104.121 27.4875 104.029 27.3218C103.94 27.1523 103.819 27.0193 103.664 26.923C103.51 26.8267 103.335 26.7785 103.138 26.7785C102.946 26.7785 102.77 26.8286 102.612 26.9288C102.458 27.0251 102.337 27.1561 102.248 27.3218C102.16 27.4836 102.115 27.6724 102.115 27.8882C102.115 28.0963 102.16 28.2851 102.248 28.4546C102.337 28.6203 102.458 28.7513 102.612 28.8477C102.767 28.944 102.942 28.9922 103.138 28.9922ZM106.721 29.443V25.137H108.241C108.526 25.137 108.776 25.191 108.992 25.2989C109.208 25.4067 109.376 25.5609 109.495 25.7612C109.618 25.9616 109.68 26.1967 109.68 26.4664C109.68 26.7708 109.603 27.0289 109.449 27.2409C109.295 27.4528 109.087 27.605 108.825 27.6975L109.825 29.443H109.166L108.114 27.5761L108.489 27.7957H107.287V29.443H106.721ZM107.287 27.2756H108.258C108.428 27.2756 108.576 27.2428 108.703 27.1773C108.83 27.1118 108.929 27.0174 108.998 26.8941C109.071 26.7708 109.108 26.6282 109.108 26.4664C109.108 26.3007 109.071 26.1581 108.998 26.0387C108.929 25.9154 108.83 25.821 108.703 25.7555C108.576 25.69 108.428 25.6572 108.258 25.6572H107.287V27.2756ZM111.721 29.5124C111.421 29.5124 111.153 29.4411 110.918 29.2985C110.683 29.1559 110.498 28.9613 110.363 28.7147C110.228 28.4643 110.161 28.1849 110.161 27.8767C110.161 27.5645 110.226 27.2871 110.357 27.0444C110.492 26.8016 110.673 26.6109 110.901 26.4722C111.132 26.3296 111.39 26.2583 111.675 26.2583C111.906 26.2583 112.11 26.3007 112.288 26.3855C112.469 26.4664 112.621 26.5781 112.744 26.7207C112.871 26.8594 112.968 27.0193 113.033 27.2004C113.103 27.3777 113.137 27.5626 113.137 27.7553C113.137 27.7977 113.133 27.8458 113.126 27.8998C113.122 27.9499 113.116 27.998 113.108 28.0443H110.554V27.5819H112.796L112.542 27.79C112.577 27.5896 112.557 27.4104 112.484 27.2524C112.411 27.0945 112.303 26.9692 112.161 26.8767C112.018 26.7843 111.856 26.738 111.675 26.738C111.494 26.738 111.328 26.7843 111.178 26.8767C111.028 26.9692 110.91 27.1022 110.825 27.2756C110.744 27.4451 110.712 27.6474 110.727 27.8824C110.712 28.1098 110.746 28.3101 110.831 28.4835C110.92 28.6531 111.043 28.786 111.201 28.8823C111.363 28.9748 111.538 29.0211 111.727 29.0211C111.935 29.0211 112.11 28.9729 112.253 28.8766C112.396 28.7802 112.511 28.6569 112.6 28.5067L113.051 28.7379C112.989 28.8804 112.893 29.0114 112.762 29.1309C112.634 29.2465 112.482 29.339 112.305 29.4083C112.132 29.4777 111.937 29.5124 111.721 29.5124ZM116.387 30.599V28.7783L116.474 28.8708C116.366 29.075 116.208 29.233 116 29.3447C115.796 29.4565 115.566 29.5124 115.312 29.5124C115.019 29.5124 114.755 29.4411 114.52 29.2985C114.289 29.1559 114.106 28.9613 113.971 28.7147C113.836 28.4681 113.769 28.1926 113.769 27.8882C113.769 27.5761 113.836 27.2987 113.971 27.0559C114.106 26.8093 114.289 26.6147 114.52 26.4722C114.755 26.3296 115.019 26.2583 115.312 26.2583C115.57 26.2583 115.799 26.3142 116 26.4259C116.2 26.5338 116.358 26.6802 116.474 26.8652L116.404 26.9981V26.3277H116.93V30.599H116.387ZM115.358 28.9922C115.555 28.9922 115.73 28.944 115.884 28.8477C116.038 28.7513 116.16 28.6203 116.248 28.4546C116.341 28.2851 116.387 28.0963 116.387 27.8882C116.387 27.6763 116.341 27.4875 116.248 27.3218C116.16 27.1523 116.038 27.0193 115.884 26.923C115.73 26.8267 115.555 26.7785 115.358 26.7785C115.166 26.7785 114.99 26.8286 114.832 26.9288C114.678 27.0251 114.557 27.1561 114.468 27.3218C114.38 27.4836 114.335 27.6724 114.335 27.8882C114.335 28.0963 114.38 28.2851 114.468 28.4546C114.557 28.6203 114.678 28.7513 114.832 28.8477C114.986 28.944 115.162 28.9922 115.358 28.9922ZM118.924 29.5124C118.701 29.5124 118.498 29.4603 118.317 29.3563C118.14 29.2523 118.001 29.1078 117.901 28.9228C117.805 28.734 117.757 28.5182 117.757 28.2755V26.3277H118.294V28.2177C118.294 28.3718 118.325 28.5067 118.387 28.6223C118.452 28.7379 118.541 28.8284 118.652 28.8939C118.768 28.9594 118.899 28.9922 119.046 28.9922C119.192 28.9922 119.321 28.9594 119.433 28.8939C119.548 28.8284 119.637 28.734 119.699 28.6107C119.764 28.4874 119.797 28.341 119.797 28.1714V26.3277H120.34V29.443H119.814V28.8361L119.901 28.8881C119.828 29.0846 119.702 29.2388 119.525 29.3505C119.352 29.4584 119.151 29.5124 118.924 29.5124ZM121.231 29.443V26.3277H121.768V29.443H121.231ZM121.231 25.8306V25.137H121.768V25.8306H121.231ZM122.66 29.443V26.3277H123.186V26.8999L123.128 26.8189C123.201 26.6417 123.313 26.5107 123.464 26.4259C123.614 26.3373 123.797 26.293 124.013 26.293H124.203V26.8016H123.932C123.712 26.8016 123.535 26.871 123.4 27.0097C123.265 27.1445 123.198 27.3372 123.198 27.5877V29.443H122.66ZM126.172 29.5124C125.871 29.5124 125.604 29.4411 125.369 29.2985C125.134 29.1559 124.949 28.9613 124.814 28.7147C124.679 28.4643 124.611 28.1849 124.611 27.8767C124.611 27.5645 124.677 27.2871 124.808 27.0444C124.943 26.8016 125.124 26.6109 125.351 26.4722C125.582 26.3296 125.841 26.2583 126.126 26.2583C126.357 26.2583 126.561 26.3007 126.738 26.3855C126.92 26.4664 127.072 26.5781 127.195 26.7207C127.322 26.8594 127.419 27.0193 127.484 27.2004C127.553 27.3777 127.588 27.5626 127.588 27.7553C127.588 27.7977 127.584 27.8458 127.576 27.8998C127.573 27.9499 127.567 27.998 127.559 28.0443H125.004V27.5819H127.247L126.993 27.79C127.027 27.5896 127.008 27.4104 126.935 27.2524C126.862 27.0945 126.754 26.9692 126.611 26.8767C126.469 26.7843 126.307 26.738 126.126 26.738C125.945 26.738 125.779 26.7843 125.629 26.8767C125.478 26.9692 125.361 27.1022 125.276 27.2756C125.195 27.4451 125.162 27.6474 125.178 27.8824C125.162 28.1098 125.197 28.3101 125.282 28.4835C125.371 28.6531 125.494 28.786 125.652 28.8823C125.814 28.9748 125.989 29.0211 126.178 29.0211C126.386 29.0211 126.561 28.9729 126.704 28.8766C126.846 28.7802 126.962 28.6569 127.051 28.5067L127.501 28.7379C127.44 28.8804 127.343 29.0114 127.212 29.1309C127.085 29.2465 126.933 29.339 126.756 29.4083C126.582 29.4777 126.388 29.5124 126.172 29.5124ZM129.763 29.5124C129.47 29.5124 129.206 29.4411 128.971 29.2985C128.74 29.1559 128.557 28.9613 128.422 28.7147C128.287 28.4681 128.22 28.1926 128.22 27.8882C128.22 27.5761 128.287 27.2987 128.422 27.0559C128.557 26.8093 128.74 26.6147 128.971 26.4722C129.206 26.3296 129.47 26.2583 129.763 26.2583C130.021 26.2583 130.25 26.3142 130.451 26.4259C130.651 26.5338 130.809 26.6802 130.925 26.8652L130.838 26.9981V25.0677H131.381V29.443H130.855V28.7783L130.925 28.8708C130.817 29.075 130.659 29.233 130.451 29.3447C130.246 29.4565 130.017 29.5124 129.763 29.5124ZM129.809 28.9922C130.006 28.9922 130.181 28.944 130.335 28.8477C130.489 28.7513 130.61 28.6203 130.699 28.4546C130.792 28.2851 130.838 28.0963 130.838 27.8882C130.838 27.6763 130.792 27.4875 130.699 27.3218C130.61 27.1523 130.489 27.0193 130.335 26.923C130.181 26.8267 130.006 26.7785 129.809 26.7785C129.616 26.7785 129.441 26.8286 129.283 26.9288C129.129 27.0251 129.008 27.1561 128.919 27.3218C128.83 27.4836 128.786 27.6724 128.786 27.8882C128.786 28.0963 128.83 28.2851 128.919 28.4546C129.008 28.6203 129.129 28.7513 129.283 28.8477C129.437 28.944 129.612 28.9922 129.809 28.9922ZM85.0256 39.443V35.137H86.4359C86.8713 35.137 87.2509 35.2256 87.5745 35.4029C87.8982 35.5801 88.1487 35.8306 88.3259 36.1543C88.5032 36.4741 88.5918 36.8517 88.5918 37.2871C88.5918 37.7187 88.5032 38.0963 88.3259 38.42C88.1487 38.7436 87.8982 38.996 87.5745 39.1771C87.2509 39.3544 86.8713 39.443 86.4359 39.443H85.0256ZM85.592 38.9228H86.4417C86.7615 38.9228 87.037 38.8554 87.2682 38.7205C87.5032 38.5857 87.6843 38.3968 87.8115 38.1541C87.9387 37.9075 88.0022 37.6185 88.0022 37.2871C88.0022 36.9519 87.9367 36.6629 87.8057 36.4201C87.6786 36.1774 87.4975 35.9905 87.2624 35.8595C87.0312 35.7246 86.7576 35.6572 86.4417 35.6572H85.592V38.9228ZM90.7836 39.5124C90.483 39.5124 90.2114 39.443 89.9686 39.3043C89.7258 39.1617 89.5332 38.9671 89.3906 38.7205C89.248 38.4739 89.1768 38.1945 89.1768 37.8824C89.1768 37.5703 89.2461 37.2929 89.3848 37.0501C89.5274 36.8074 89.7201 36.6147 89.9628 36.4722C90.2056 36.3296 90.4792 36.2583 90.7836 36.2583C91.0841 36.2583 91.3558 36.3296 91.5985 36.4722C91.8413 36.6109 92.032 36.8016 92.1707 37.0444C92.3133 37.2871 92.3846 37.5665 92.3846 37.8824C92.3846 38.1984 92.3114 38.4797 92.1649 38.7263C92.0185 38.969 91.8239 39.1617 91.5812 39.3043C91.3423 39.443 91.0764 39.5124 90.7836 39.5124ZM90.7836 38.9922C90.9762 38.9922 91.1496 38.944 91.3037 38.8477C91.4617 38.7513 91.585 38.6184 91.6737 38.4489C91.7661 38.2793 91.8124 38.0905 91.8124 37.8824C91.8124 37.6705 91.7661 37.4836 91.6737 37.3218C91.585 37.1561 91.4617 37.0251 91.3037 36.9288C91.1496 36.8286 90.9762 36.7785 90.7836 36.7785C90.587 36.7785 90.4098 36.8286 90.2518 36.9288C90.0977 37.0251 89.9744 37.1561 89.8819 37.3218C89.7894 37.4836 89.7432 37.6705 89.7432 37.8824C89.7432 38.0905 89.7894 38.2793 89.8819 38.4489C89.9744 38.6184 90.0977 38.7513 90.2518 38.8477C90.4098 38.944 90.587 38.9922 90.7836 38.9922ZM94.5884 39.5124C94.284 39.5124 94.0123 39.4411 93.7734 39.2985C93.5384 39.1559 93.3534 38.9613 93.2186 38.7147C93.0837 38.4681 93.0163 38.1907 93.0163 37.8824C93.0163 37.5703 93.0837 37.2929 93.2186 37.0501C93.3534 36.8074 93.5384 36.6147 93.7734 36.4722C94.0123 36.3296 94.284 36.2583 94.5884 36.2583C94.7926 36.2583 94.9834 36.2949 95.1606 36.3681C95.3379 36.4413 95.4939 36.5396 95.6288 36.6629C95.7636 36.7862 95.8619 36.9307 95.9235 37.0964L95.4438 37.3276C95.3706 37.1657 95.2589 37.0347 95.1086 36.9345C94.9583 36.8305 94.7849 36.7785 94.5884 36.7785C94.3996 36.7785 94.2281 36.8267 94.074 36.923C93.9237 37.0193 93.8043 37.1503 93.7157 37.316C93.627 37.4817 93.5827 37.6724 93.5827 37.8882C93.5827 38.0963 93.627 38.2851 93.7157 38.4546C93.8043 38.6203 93.9237 38.7513 94.074 38.8477C94.2281 38.944 94.3996 38.9922 94.5884 38.9922C94.7849 38.9922 94.9583 38.9421 95.1086 38.8419C95.2589 38.7379 95.3706 38.6011 95.4438 38.4315L95.9235 38.6743C95.8619 38.8361 95.7636 38.9806 95.6288 39.1078C95.4939 39.2311 95.3379 39.3293 95.1606 39.4025C94.9834 39.4757 94.7926 39.5124 94.5884 39.5124ZM97.7878 39.5124C97.5643 39.5124 97.362 39.4603 97.1809 39.3563C97.0036 39.2523 96.8649 39.1078 96.7647 38.9228C96.6684 38.734 96.6202 38.5182 96.6202 38.2755V36.3277H97.1578V38.2177C97.1578 38.3718 97.1886 38.5067 97.2502 38.6223C97.3158 38.7379 97.4044 38.8284 97.5161 38.8939C97.6317 38.9594 97.7627 38.9922 97.9091 38.9922C98.0556 38.9922 98.1847 38.9594 98.2964 38.8939C98.412 38.8284 98.5006 38.734 98.5623 38.6107C98.6278 38.4874 98.6605 38.341 98.6605 38.1714V36.3277H99.2038V39.443H98.6779V38.8361L98.7646 38.8881C98.6914 39.0846 98.5661 39.2388 98.3889 39.3505C98.2155 39.4584 98.0151 39.5124 97.7878 39.5124ZM100.094 39.443V36.3277H100.62V36.9634L100.545 36.8652C100.622 36.6687 100.746 36.5184 100.915 36.4144C101.085 36.3103 101.275 36.2583 101.487 36.2583C101.73 36.2583 101.948 36.3257 102.14 36.4606C102.337 36.5955 102.472 36.7727 102.545 36.9923L102.395 36.9981C102.476 36.7554 102.612 36.5723 102.805 36.449C102.998 36.3219 103.212 36.2583 103.447 36.2583C103.662 36.2583 103.857 36.3084 104.03 36.4086C104.208 36.5088 104.348 36.6475 104.452 36.8247C104.556 37.002 104.608 37.2023 104.608 37.4258V39.443H104.065V37.5992C104.065 37.4258 104.034 37.2794 103.973 37.16C103.911 37.0405 103.826 36.948 103.718 36.8825C103.614 36.8132 103.491 36.7785 103.348 36.7785C103.21 36.7785 103.084 36.8132 102.973 36.8825C102.865 36.948 102.778 37.0424 102.713 37.1657C102.651 37.2852 102.62 37.4297 102.62 37.5992V39.443H102.077V37.5992C102.077 37.4258 102.046 37.2794 101.984 37.16C101.923 37.0405 101.838 36.948 101.73 36.8825C101.626 36.8132 101.503 36.7785 101.36 36.7785C101.221 36.7785 101.096 36.8132 100.984 36.8825C100.877 36.948 100.79 37.0424 100.724 37.1657C100.663 37.2852 100.632 37.4297 100.632 37.5992V39.443H100.094ZM106.863 39.5124C106.563 39.5124 106.295 39.4411 106.06 39.2985C105.825 39.1559 105.64 38.9613 105.505 38.7147C105.37 38.4643 105.303 38.1849 105.303 37.8767C105.303 37.5645 105.368 37.2871 105.499 37.0444C105.634 36.8016 105.815 36.6109 106.042 36.4722C106.274 36.3296 106.532 36.2583 106.817 36.2583C107.048 36.2583 107.252 36.3007 107.429 36.3855C107.611 36.4664 107.763 36.5781 107.886 36.7207C108.013 36.8594 108.11 37.0193 108.175 37.2004C108.244 37.3777 108.279 37.5626 108.279 37.7553C108.279 37.7977 108.275 37.8458 108.268 37.8998C108.264 37.9499 108.258 37.998 108.25 38.0443H105.696V37.5819H107.938L107.684 37.79C107.718 37.5896 107.699 37.4104 107.626 37.2524C107.553 37.0945 107.445 36.9692 107.302 36.8767C107.16 36.7843 106.998 36.738 106.817 36.738C106.636 36.738 106.47 36.7843 106.32 36.8767C106.169 36.9692 106.052 37.1022 105.967 37.2756C105.886 37.4451 105.854 37.6474 105.869 37.8824C105.854 38.1098 105.888 38.3101 105.973 38.4835C106.062 38.6531 106.185 38.786 106.343 38.8823C106.505 38.9748 106.68 39.0211 106.869 39.0211C107.077 39.0211 107.252 38.9729 107.395 38.8766C107.537 38.7802 107.653 38.6569 107.742 38.5067L108.192 38.7379C108.131 38.8804 108.034 39.0114 107.903 39.1309C107.776 39.2465 107.624 39.339 107.447 39.4083C107.273 39.4777 107.079 39.5124 106.863 39.5124ZM109.038 39.443V36.3277H109.564V36.9345L109.477 36.8825C109.554 36.686 109.677 36.5338 109.847 36.4259C110.02 36.3142 110.223 36.2583 110.454 36.2583C110.677 36.2583 110.876 36.3084 111.049 36.4086C111.226 36.5088 111.365 36.6475 111.465 36.8247C111.569 37.002 111.621 37.2023 111.621 37.4258V39.443H111.078V37.5992C111.078 37.4258 111.047 37.2794 110.986 37.16C110.924 37.0405 110.835 36.948 110.72 36.8825C110.608 36.8132 110.479 36.7785 110.332 36.7785C110.186 36.7785 110.055 36.8132 109.939 36.8825C109.828 36.948 109.739 37.0424 109.674 37.1657C109.608 37.2852 109.575 37.4297 109.575 37.5992V39.443H109.038ZM113.714 39.4777C113.41 39.4777 113.175 39.391 113.009 39.2176C112.847 39.0442 112.766 38.7995 112.766 38.4835V36.8421H112.2V36.3277H112.315C112.454 36.3277 112.564 36.2853 112.645 36.2005C112.726 36.1157 112.766 36.004 112.766 35.8653V35.611H113.304V36.3277H114.003V36.8421H113.304V38.4662C113.304 38.5702 113.319 38.6608 113.35 38.7379C113.385 38.8149 113.441 38.8766 113.518 38.9228C113.595 38.9652 113.697 38.9864 113.824 38.9864C113.851 38.9864 113.884 38.9845 113.922 38.9806C113.965 38.9768 114.003 38.9729 114.038 38.969V39.443C113.988 39.4546 113.932 39.4623 113.87 39.4661C113.809 39.4738 113.756 39.4777 113.714 39.4777ZM115.913 39.5124C115.601 39.5124 115.329 39.4353 115.098 39.2812C114.867 39.127 114.703 38.919 114.607 38.6569L115.035 38.4489C115.123 38.6338 115.245 38.7802 115.399 38.8881C115.553 38.996 115.724 39.05 115.913 39.05C116.083 39.05 116.223 39.0095 116.335 38.9286C116.447 38.8477 116.503 38.7417 116.503 38.6107C116.503 38.5182 116.476 38.445 116.422 38.3911C116.372 38.3333 116.31 38.289 116.237 38.2581C116.164 38.2234 116.096 38.1984 116.035 38.183L115.566 38.0501C115.285 37.9691 115.079 37.8535 114.948 37.7033C114.821 37.553 114.757 37.3777 114.757 37.1773C114.757 36.9923 114.804 36.8324 114.896 36.6976C114.992 36.5589 115.121 36.451 115.283 36.3739C115.449 36.2968 115.634 36.2583 115.838 36.2583C116.112 36.2583 116.356 36.3277 116.572 36.4664C116.792 36.6051 116.948 36.7997 117.04 37.0501L116.601 37.2524C116.532 37.0906 116.428 36.9634 116.289 36.871C116.15 36.7746 115.994 36.7265 115.821 36.7265C115.663 36.7265 115.538 36.7669 115.445 36.8478C115.353 36.9249 115.306 37.0232 115.306 37.1426C115.306 37.2312 115.329 37.3045 115.376 37.3623C115.422 37.4162 115.478 37.4586 115.543 37.4894C115.609 37.5164 115.672 37.5395 115.734 37.5588L116.243 37.709C116.497 37.7823 116.694 37.8959 116.832 38.0501C116.975 38.2042 117.046 38.3891 117.046 38.6049C117.046 38.7783 116.998 38.9344 116.902 39.0731C116.805 39.2118 116.672 39.3197 116.503 39.3968C116.333 39.4738 116.137 39.5124 115.913 39.5124Z" fill="#2C3E51"/>
<path d="M169.462 29.443L171.005 25.137H171.676L173.219 29.443H172.612L172.259 28.4315H170.421L170.069 29.443H169.462ZM170.601 27.9113H172.08L171.26 25.5474H171.421L170.601 27.9113ZM173.756 30.599V26.3277H174.282V26.9981L174.212 26.8652C174.328 26.6802 174.486 26.5338 174.686 26.4259C174.887 26.3142 175.116 26.2583 175.374 26.2583C175.667 26.2583 175.929 26.3296 176.16 26.4722C176.395 26.6147 176.58 26.8093 176.715 27.0559C176.85 27.2987 176.917 27.5761 176.917 27.8882C176.917 28.1926 176.85 28.4681 176.715 28.7147C176.58 28.9613 176.395 29.1559 176.16 29.2985C175.929 29.4411 175.665 29.5124 175.368 29.5124C175.118 29.5124 174.889 29.4565 174.68 29.3447C174.476 29.233 174.318 29.075 174.207 28.8708L174.293 28.7783V30.599H173.756ZM175.328 28.9922C175.524 28.9922 175.7 28.944 175.854 28.8477C176.008 28.7513 176.127 28.6203 176.212 28.4546C176.301 28.2851 176.345 28.0963 176.345 27.8882C176.345 27.6724 176.301 27.4836 176.212 27.3218C176.127 27.1561 176.008 27.0251 175.854 26.9288C175.7 26.8286 175.524 26.7785 175.328 26.7785C175.131 26.7785 174.954 26.8267 174.796 26.923C174.642 27.0193 174.519 27.1523 174.426 27.3218C174.338 27.4875 174.293 27.6763 174.293 27.8882C174.293 28.0963 174.338 28.2851 174.426 28.4546C174.519 28.6203 174.642 28.7513 174.796 28.8477C174.954 28.944 175.131 28.9922 175.328 28.9922ZM177.68 30.599V26.3277H178.206V26.9981L178.137 26.8652C178.252 26.6802 178.41 26.5338 178.61 26.4259C178.811 26.3142 179.04 26.2583 179.298 26.2583C179.591 26.2583 179.853 26.3296 180.084 26.4722C180.319 26.6147 180.504 26.8093 180.639 27.0559C180.774 27.2987 180.841 27.5761 180.841 27.8882C180.841 28.1926 180.774 28.4681 180.639 28.7147C180.504 28.9613 180.319 29.1559 180.084 29.2985C179.853 29.4411 179.589 29.5124 179.292 29.5124C179.042 29.5124 178.813 29.4565 178.605 29.3447C178.4 29.233 178.242 29.075 178.131 28.8708L178.217 28.7783V30.599H177.68ZM179.252 28.9922C179.449 28.9922 179.624 28.944 179.778 28.8477C179.932 28.7513 180.052 28.6203 180.136 28.4546C180.225 28.2851 180.269 28.0963 180.269 27.8882C180.269 27.6724 180.225 27.4836 180.136 27.3218C180.052 27.1561 179.932 27.0251 179.778 26.9288C179.624 26.8286 179.449 26.7785 179.252 26.7785C179.056 26.7785 178.878 26.8267 178.72 26.923C178.566 27.0193 178.443 27.1523 178.35 27.3218C178.262 27.4875 178.217 27.6763 178.217 27.8882C178.217 28.0963 178.262 28.2851 178.35 28.4546C178.443 28.6203 178.566 28.7513 178.72 28.8477C178.878 28.944 179.056 28.9922 179.252 28.9922ZM181.604 29.443V25.0677H182.142V29.443H181.604ZM183.033 29.443V26.3277H183.571V29.443H183.033ZM183.033 25.8306V25.137H183.571V25.8306H183.033ZM185.908 29.5124C185.603 29.5124 185.332 29.4411 185.093 29.2985C184.858 29.1559 184.673 28.9613 184.538 28.7147C184.403 28.4681 184.336 28.1907 184.336 27.8824C184.336 27.5703 184.403 27.2929 184.538 27.0501C184.673 26.8074 184.858 26.6147 185.093 26.4722C185.332 26.3296 185.603 26.2583 185.908 26.2583C186.112 26.2583 186.303 26.2949 186.48 26.3681C186.657 26.4413 186.813 26.5396 186.948 26.6629C187.083 26.7862 187.181 26.9307 187.243 27.0964L186.763 27.3276C186.69 27.1657 186.578 27.0347 186.428 26.9345C186.278 26.8305 186.104 26.7785 185.908 26.7785C185.719 26.7785 185.548 26.8267 185.393 26.923C185.243 27.0193 185.124 27.1503 185.035 27.316C184.946 27.4817 184.902 27.6724 184.902 27.8882C184.902 28.0963 184.946 28.2851 185.035 28.4546C185.124 28.6203 185.243 28.7513 185.393 28.8477C185.548 28.944 185.719 28.9922 185.908 28.9922C186.104 28.9922 186.278 28.9421 186.428 28.8419C186.578 28.7379 186.69 28.6011 186.763 28.4315L187.243 28.6743C187.181 28.8361 187.083 28.9806 186.948 29.1078C186.813 29.2311 186.657 29.3293 186.48 29.4025C186.303 29.4757 186.112 29.5124 185.908 29.5124ZM188.877 29.5124C188.673 29.5124 188.492 29.4757 188.334 29.4025C188.179 29.3255 188.058 29.2214 187.969 29.0904C187.881 28.9556 187.837 28.8014 187.837 28.628C187.837 28.4623 187.871 28.314 187.941 28.183C188.014 28.0481 188.126 27.9345 188.276 27.842C188.43 27.7495 188.623 27.684 188.854 27.6455L190.01 27.4547V27.9056L188.975 28.079C188.775 28.1136 188.628 28.1772 188.536 28.2697C188.447 28.3622 188.403 28.4758 188.403 28.6107C188.403 28.7379 188.453 28.8438 188.553 28.9286C188.657 29.0134 188.786 29.0557 188.941 29.0557C189.137 29.0557 189.307 29.0153 189.449 28.9344C189.596 28.8496 189.709 28.7359 189.79 28.5934C189.875 28.4508 189.917 28.2928 189.917 28.1194V27.3276C189.917 27.158 189.854 27.0212 189.727 26.9172C189.603 26.8093 189.44 26.7554 189.235 26.7554C189.058 26.7554 188.9 26.8016 188.761 26.8941C188.626 26.9827 188.526 27.1022 188.461 27.2524L187.993 27.0097C188.05 26.8671 188.143 26.74 188.27 26.6282C188.397 26.5126 188.546 26.4221 188.715 26.3566C188.885 26.2911 189.062 26.2583 189.247 26.2583C189.486 26.2583 189.696 26.3045 189.877 26.397C190.058 26.4856 190.199 26.6109 190.299 26.7727C190.403 26.9307 190.455 27.1156 190.455 27.3276V29.443H189.929V28.8535L190.027 28.8881C189.962 29.0114 189.873 29.1193 189.761 29.2118C189.65 29.3043 189.518 29.3775 189.368 29.4314C189.218 29.4854 189.054 29.5124 188.877 29.5124ZM192.555 29.4777C192.251 29.4777 192.016 29.391 191.85 29.2176C191.688 29.0442 191.607 28.7995 191.607 28.4835V26.8421H191.041V26.3277H191.157C191.295 26.3277 191.405 26.2853 191.486 26.2005C191.567 26.1157 191.607 26.004 191.607 25.8653V25.611H192.145V26.3277H192.844V26.8421H192.145V28.4662C192.145 28.5702 192.16 28.6608 192.191 28.7379C192.226 28.8149 192.282 28.8766 192.359 28.9228C192.436 28.9652 192.538 28.9864 192.665 28.9864C192.692 28.9864 192.725 28.9845 192.763 28.9806C192.806 28.9768 192.844 28.9729 192.879 28.969V29.443C192.829 29.4546 192.773 29.4623 192.711 29.4661C192.65 29.4738 192.598 29.4777 192.555 29.4777ZM193.639 29.443V26.3277H194.177V29.443H193.639ZM193.639 25.8306V25.137H194.177V25.8306H193.639ZM196.548 29.5124C196.247 29.5124 195.976 29.443 195.733 29.3043C195.49 29.1617 195.298 28.9671 195.155 28.7205C195.013 28.4739 194.941 28.1945 194.941 27.8824C194.941 27.5703 195.011 27.2929 195.149 27.0501C195.292 26.8074 195.485 26.6147 195.727 26.4722C195.97 26.3296 196.244 26.2583 196.548 26.2583C196.849 26.2583 197.12 26.3296 197.363 26.4722C197.606 26.6109 197.796 26.8016 197.935 27.0444C198.078 27.2871 198.149 27.5665 198.149 27.8824C198.149 28.1984 198.076 28.4797 197.929 28.7263C197.783 28.969 197.588 29.1617 197.346 29.3043C197.107 29.443 196.841 29.5124 196.548 29.5124ZM196.548 28.9922C196.741 28.9922 196.914 28.944 197.068 28.8477C197.226 28.7513 197.35 28.6184 197.438 28.4489C197.531 28.2793 197.577 28.0905 197.577 27.8824C197.577 27.6705 197.531 27.4836 197.438 27.3218C197.35 27.1561 197.226 27.0251 197.068 26.9288C196.914 26.8286 196.741 26.7785 196.548 26.7785C196.352 26.7785 196.174 26.8286 196.016 26.9288C195.862 27.0251 195.739 27.1561 195.646 27.3218C195.554 27.4836 195.508 27.6705 195.508 27.8824C195.508 28.0905 195.554 28.2793 195.646 28.4489C195.739 28.6184 195.862 28.7513 196.016 28.8477C196.174 28.944 196.352 28.9922 196.548 28.9922ZM198.908 29.443V26.3277H199.434V26.9345L199.347 26.8825C199.424 26.686 199.548 26.5338 199.717 26.4259C199.89 26.3142 200.093 26.2583 200.324 26.2583C200.547 26.2583 200.746 26.3084 200.919 26.4086C201.097 26.5088 201.235 26.6475 201.335 26.8247C201.439 27.002 201.492 27.2023 201.492 27.4258V29.443H200.948V27.5992C200.948 27.4258 200.917 27.2794 200.856 27.16C200.794 27.0405 200.705 26.948 200.59 26.8825C200.478 26.8132 200.349 26.7785 200.203 26.7785C200.056 26.7785 199.925 26.8132 199.81 26.8825C199.698 26.948 199.609 27.0424 199.544 27.1657C199.478 27.2852 199.445 27.4297 199.445 27.5992V29.443H198.908ZM169.878 39.443V35.137H171.398C171.683 35.137 171.934 35.191 172.15 35.2989C172.365 35.4067 172.533 35.5609 172.652 35.7612C172.776 35.9616 172.837 36.1967 172.837 36.4664C172.837 36.7361 172.776 36.9712 172.652 37.1715C172.533 37.368 172.365 37.5222 172.15 37.6339C171.938 37.7418 171.687 37.7957 171.398 37.7957H170.445V39.443H169.878ZM170.445 37.2756H171.416C171.589 37.2756 171.739 37.2428 171.866 37.1773C171.994 37.1118 172.092 37.0174 172.161 36.8941C172.231 36.7708 172.265 36.6282 172.265 36.4664C172.265 36.3007 172.231 36.1581 172.161 36.0387C172.092 35.9154 171.994 35.821 171.866 35.7555C171.739 35.69 171.589 35.6572 171.416 35.6572H170.445V37.2756ZM173.598 39.443V36.3277H174.124V36.8999L174.066 36.8189C174.139 36.6417 174.251 36.5107 174.401 36.4259C174.551 36.3373 174.734 36.293 174.95 36.293H175.141V36.8016H174.869C174.65 36.8016 174.472 36.871 174.337 37.0097C174.203 37.1445 174.135 37.3372 174.135 37.5877V39.443H173.598ZM177.156 39.5124C176.855 39.5124 176.584 39.443 176.341 39.3043C176.098 39.1617 175.905 38.9671 175.763 38.7205C175.62 38.4739 175.549 38.1945 175.549 37.8824C175.549 37.5703 175.618 37.2929 175.757 37.0501C175.9 36.8074 176.092 36.6147 176.335 36.4722C176.578 36.3296 176.851 36.2583 177.156 36.2583C177.456 36.2583 177.728 36.3296 177.971 36.4722C178.213 36.6109 178.404 36.8016 178.543 37.0444C178.686 37.2871 178.757 37.5665 178.757 37.8824C178.757 38.1984 178.684 38.4797 178.537 38.7263C178.391 38.969 178.196 39.1617 177.953 39.3043C177.715 39.443 177.449 39.5124 177.156 39.5124ZM177.156 38.9922C177.348 38.9922 177.522 38.944 177.676 38.8477C177.834 38.7513 177.957 38.6184 178.046 38.4489C178.138 38.2793 178.185 38.0905 178.185 37.8824C178.185 37.6705 178.138 37.4836 178.046 37.3218C177.957 37.1561 177.834 37.0251 177.676 36.9288C177.522 36.8286 177.348 36.7785 177.156 36.7785C176.959 36.7785 176.782 36.8286 176.624 36.9288C176.47 37.0251 176.347 37.1561 176.254 37.3218C176.162 37.4836 176.115 37.6705 176.115 37.8824C176.115 38.0905 176.162 38.2793 176.254 38.4489C176.347 38.6184 176.47 38.7513 176.624 38.8477C176.782 38.944 176.959 38.9922 177.156 38.9922ZM180.961 39.5124C180.656 39.5124 180.385 39.4411 180.146 39.2985C179.911 39.1559 179.726 38.9613 179.591 38.7147C179.456 38.4681 179.389 38.1907 179.389 37.8824C179.389 37.5703 179.456 37.2929 179.591 37.0501C179.726 36.8074 179.911 36.6147 180.146 36.4722C180.385 36.3296 180.656 36.2583 180.961 36.2583C181.165 36.2583 181.356 36.2949 181.533 36.3681C181.71 36.4413 181.866 36.5396 182.001 36.6629C182.136 36.7862 182.234 36.9307 182.296 37.0964L181.816 37.3276C181.743 37.1657 181.631 37.0347 181.481 36.9345C181.331 36.8305 181.157 36.7785 180.961 36.7785C180.772 36.7785 180.6 36.8267 180.446 36.923C180.296 37.0193 180.177 37.1503 180.088 37.316C179.999 37.4817 179.955 37.6724 179.955 37.8882C179.955 38.0963 179.999 38.2851 180.088 38.4546C180.177 38.6203 180.296 38.7513 180.446 38.8477C180.6 38.944 180.772 38.9922 180.961 38.9922C181.157 38.9922 181.331 38.9421 181.481 38.8419C181.631 38.7379 181.743 38.6011 181.816 38.4315L182.296 38.6743C182.234 38.8361 182.136 38.9806 182.001 39.1078C181.866 39.2311 181.71 39.3293 181.533 39.4025C181.356 39.4757 181.165 39.5124 180.961 39.5124ZM184.489 39.5124C184.189 39.5124 183.921 39.4411 183.686 39.2985C183.451 39.1559 183.266 38.9613 183.131 38.7147C182.996 38.4643 182.929 38.1849 182.929 37.8767C182.929 37.5645 182.994 37.2871 183.125 37.0444C183.26 36.8016 183.441 36.6109 183.669 36.4722C183.9 36.3296 184.158 36.2583 184.443 36.2583C184.674 36.2583 184.879 36.3007 185.056 36.3855C185.237 36.4664 185.389 36.5781 185.512 36.7207C185.64 36.8594 185.736 37.0193 185.801 37.2004C185.871 37.3777 185.906 37.5626 185.906 37.7553C185.906 37.7977 185.902 37.8458 185.894 37.8998C185.89 37.9499 185.884 37.998 185.877 38.0443H183.322V37.5819H185.564L185.31 37.79C185.345 37.5896 185.326 37.4104 185.252 37.2524C185.179 37.0945 185.071 36.9692 184.929 36.8767C184.786 36.7843 184.624 36.738 184.443 36.738C184.262 36.738 184.096 36.7843 183.946 36.8767C183.796 36.9692 183.678 37.1022 183.594 37.2756C183.513 37.4451 183.48 37.6474 183.495 37.8824C183.48 38.1098 183.515 38.3101 183.599 38.4835C183.688 38.6531 183.811 38.786 183.969 38.8823C184.131 38.9748 184.306 39.0211 184.495 39.0211C184.703 39.0211 184.879 38.9729 185.021 38.8766C185.164 38.7802 185.279 38.6569 185.368 38.5067L185.819 38.7379C185.757 38.8804 185.661 39.0114 185.53 39.1309C185.403 39.2465 185.25 39.339 185.073 39.4083C184.9 39.4777 184.705 39.5124 184.489 39.5124ZM187.78 39.5124C187.468 39.5124 187.196 39.4353 186.965 39.2812C186.734 39.127 186.57 38.919 186.473 38.6569L186.901 38.4489C186.99 38.6338 187.111 38.7802 187.265 38.8881C187.419 38.996 187.591 39.05 187.78 39.05C187.949 39.05 188.09 39.0095 188.202 38.9286C188.313 38.8477 188.369 38.7417 188.369 38.6107C188.369 38.5182 188.342 38.445 188.288 38.3911C188.238 38.3333 188.177 38.289 188.103 38.2581C188.03 38.2234 187.963 38.1984 187.901 38.183L187.433 38.0501C187.152 37.9691 186.945 37.8535 186.814 37.7033C186.687 37.553 186.624 37.3777 186.624 37.1773C186.624 36.9923 186.67 36.8324 186.762 36.6976C186.859 36.5589 186.988 36.451 187.15 36.3739C187.315 36.2968 187.5 36.2583 187.705 36.2583C187.978 36.2583 188.223 36.3277 188.439 36.4664C188.658 36.6051 188.814 36.7997 188.907 37.0501L188.467 37.2524C188.398 37.0906 188.294 36.9634 188.155 36.871C188.017 36.7746 187.861 36.7265 187.687 36.7265C187.529 36.7265 187.404 36.7669 187.311 36.8478C187.219 36.9249 187.173 37.0232 187.173 37.1426C187.173 37.2312 187.196 37.3045 187.242 37.3623C187.288 37.4162 187.344 37.4586 187.41 37.4894C187.475 37.5164 187.539 37.5395 187.6 37.5588L188.109 37.709C188.363 37.7823 188.56 37.8959 188.699 38.0501C188.841 38.2042 188.913 38.3891 188.913 38.6049C188.913 38.7783 188.864 38.9344 188.768 39.0731C188.672 39.2118 188.539 39.3197 188.369 39.3968C188.2 39.4738 188.003 39.5124 187.78 39.5124ZM190.789 39.5124C190.477 39.5124 190.206 39.4353 189.975 39.2812C189.743 39.127 189.58 38.919 189.483 38.6569L189.911 38.4489C190 38.6338 190.121 38.7802 190.275 38.8881C190.429 38.996 190.601 39.05 190.789 39.05C190.959 39.05 191.1 39.0095 191.211 38.9286C191.323 38.8477 191.379 38.7417 191.379 38.6107C191.379 38.5182 191.352 38.445 191.298 38.3911C191.248 38.3333 191.186 38.289 191.113 38.2581C191.04 38.2234 190.972 38.1984 190.911 38.183L190.443 38.0501C190.161 37.9691 189.955 37.8535 189.824 37.7033C189.697 37.553 189.634 37.3777 189.634 37.1773C189.634 36.9923 189.68 36.8324 189.772 36.6976C189.869 36.5589 189.998 36.451 190.159 36.3739C190.325 36.2968 190.51 36.2583 190.714 36.2583C190.988 36.2583 191.233 36.3277 191.448 36.4664C191.668 36.6051 191.824 36.7997 191.917 37.0501L191.477 37.2524C191.408 37.0906 191.304 36.9634 191.165 36.871C191.026 36.7746 190.87 36.7265 190.697 36.7265C190.539 36.7265 190.414 36.7669 190.321 36.8478C190.229 36.9249 190.183 37.0232 190.183 37.1426C190.183 37.2312 190.206 37.3045 190.252 37.3623C190.298 37.4162 190.354 37.4586 190.42 37.4894C190.485 37.5164 190.549 37.5395 190.61 37.5588L191.119 37.709C191.373 37.7823 191.57 37.8959 191.708 38.0501C191.851 38.2042 191.922 38.3891 191.922 38.6049C191.922 38.7783 191.874 38.9344 191.778 39.0731C191.681 39.2118 191.549 39.3197 191.379 39.3968C191.209 39.4738 191.013 39.5124 190.789 39.5124ZM192.684 39.443V36.3277H193.221V39.443H192.684ZM192.684 35.8306V35.137H193.221V35.8306H192.684ZM194.113 39.443V36.3277H194.639V36.9345L194.552 36.8825C194.629 36.686 194.753 36.5338 194.922 36.4259C195.096 36.3142 195.298 36.2583 195.529 36.2583C195.753 36.2583 195.951 36.3084 196.125 36.4086C196.302 36.5088 196.44 36.6475 196.541 36.8247C196.645 37.002 196.697 37.2023 196.697 37.4258V39.443H196.153V37.5992C196.153 37.4258 196.123 37.2794 196.061 37.16C195.999 37.0405 195.911 36.948 195.795 36.8825C195.683 36.8132 195.554 36.7785 195.408 36.7785C195.261 36.7785 195.13 36.8132 195.015 36.8825C194.903 36.948 194.814 37.0424 194.749 37.1657C194.683 37.2852 194.651 37.4297 194.651 37.5992V39.443H194.113ZM199.009 40.7146C198.789 40.7146 198.585 40.6799 198.396 40.6105C198.211 40.5412 198.052 40.4448 197.917 40.3215C197.786 40.2021 197.686 40.0614 197.616 39.8996L198.119 39.6684C198.173 39.8148 198.275 39.9381 198.425 40.0383C198.579 40.1424 198.772 40.1944 199.003 40.1944C199.181 40.1944 199.34 40.1597 199.483 40.0903C199.629 40.0248 199.745 39.9246 199.83 39.7898C199.915 39.6588 199.957 39.4989 199.957 39.3101V38.6107L200.055 38.7147C199.947 38.9267 199.791 39.0885 199.587 39.2002C199.387 39.312 199.165 39.3679 198.922 39.3679C198.63 39.3679 198.368 39.3004 198.136 39.1656C197.905 39.0268 197.724 38.84 197.593 38.6049C197.462 38.366 197.397 38.1021 197.397 37.8131C197.397 37.5202 197.462 37.2563 197.593 37.0212C197.724 36.7862 197.903 36.6012 198.131 36.4664C198.362 36.3277 198.624 36.2583 198.917 36.2583C199.159 36.2583 199.379 36.3142 199.576 36.4259C199.776 36.5338 199.936 36.6841 200.055 36.8767L199.974 37.0212V36.3277H200.5V39.3101C200.5 39.5798 200.437 39.8206 200.31 40.0325C200.182 40.2445 200.005 40.4102 199.778 40.5296C199.554 40.6529 199.298 40.7146 199.009 40.7146ZM198.969 38.8477C199.154 38.8477 199.319 38.8014 199.466 38.709C199.616 38.6165 199.735 38.4932 199.824 38.339C199.913 38.1811 199.957 38.0057 199.957 37.8131C199.957 37.6243 199.913 37.4509 199.824 37.2929C199.735 37.1349 199.616 37.0097 199.466 36.9172C199.319 36.8247 199.154 36.7785 198.969 36.7785C198.78 36.7785 198.608 36.8247 198.454 36.9172C198.3 37.0097 198.179 37.1349 198.09 37.2929C198.005 37.447 197.963 37.6204 197.963 37.8131C197.963 38.0057 198.005 38.1811 198.09 38.339C198.179 38.4932 198.298 38.6165 198.448 38.709C198.603 38.8014 198.776 38.8477 198.969 38.8477Z" fill="#2C3E51"/>
<path d="M252.579 29.443V25.137H254.099C254.385 25.137 254.635 25.191 254.851 25.2989C255.067 25.4067 255.234 25.5609 255.354 25.7612C255.477 25.9616 255.539 26.1967 255.539 26.4664C255.539 26.7708 255.462 27.0289 255.307 27.2409C255.153 27.4528 254.945 27.605 254.683 27.6975L255.683 29.443H255.024L253.972 27.5761L254.348 27.7957H253.146V29.443H252.579ZM253.146 27.2756H254.117C254.286 27.2756 254.435 27.2428 254.562 27.1773C254.689 27.1118 254.787 27.0174 254.857 26.8941C254.93 26.7708 254.966 26.6282 254.966 26.4664C254.966 26.3007 254.93 26.1581 254.857 26.0387C254.787 25.9154 254.689 25.821 254.562 25.7555C254.435 25.69 254.286 25.6572 254.117 25.6572H253.146V27.2756ZM257.58 29.5124C257.279 29.5124 257.011 29.4411 256.776 29.2985C256.541 29.1559 256.356 28.9613 256.222 28.7147C256.087 28.4643 256.019 28.1849 256.019 27.8767C256.019 27.5645 256.085 27.2871 256.216 27.0444C256.351 26.8016 256.532 26.6109 256.759 26.4722C256.99 26.3296 257.248 26.2583 257.534 26.2583C257.765 26.2583 257.969 26.3007 258.146 26.3855C258.327 26.4664 258.48 26.5781 258.603 26.7207C258.73 26.8594 258.826 27.0193 258.892 27.2004C258.961 27.3777 258.996 27.5626 258.996 27.7553C258.996 27.7977 258.992 27.8458 258.984 27.8998C258.98 27.9499 258.975 27.998 258.967 28.0443H256.412V27.5819H258.655L258.401 27.79C258.435 27.5896 258.416 27.4104 258.343 27.2524C258.27 27.0945 258.162 26.9692 258.019 26.8767C257.877 26.7843 257.715 26.738 257.534 26.738C257.353 26.738 257.187 26.7843 257.037 26.8767C256.886 26.9692 256.769 27.1022 256.684 27.2756C256.603 27.4451 256.57 27.6474 256.586 27.8824C256.57 28.1098 256.605 28.3101 256.69 28.4835C256.778 28.6531 256.902 28.786 257.06 28.8823C257.221 28.9748 257.397 29.0211 257.586 29.0211C257.794 29.0211 257.969 28.9729 258.112 28.8766C258.254 28.7802 258.37 28.6569 258.458 28.5067L258.909 28.7379C258.848 28.8804 258.751 29.0114 258.62 29.1309C258.493 29.2465 258.341 29.339 258.164 29.4083C257.99 29.4777 257.796 29.5124 257.58 29.5124ZM260.565 29.443L259.346 26.3277H259.947L260.923 28.9633H260.715L261.698 26.3277H262.299L261.074 29.443H260.565ZM262.838 29.443V26.3277H263.375V29.443H262.838ZM262.838 25.8306V25.137H263.375V25.8306H262.838ZM265.701 29.5124C265.4 29.5124 265.132 29.4411 264.897 29.2985C264.662 29.1559 264.477 28.9613 264.342 28.7147C264.207 28.4643 264.14 28.1849 264.14 27.8767C264.14 27.5645 264.205 27.2871 264.336 27.0444C264.471 26.8016 264.652 26.6109 264.88 26.4722C265.111 26.3296 265.369 26.2583 265.654 26.2583C265.885 26.2583 266.09 26.3007 266.267 26.3855C266.448 26.4664 266.6 26.5781 266.724 26.7207C266.851 26.8594 266.947 27.0193 267.013 27.2004C267.082 27.3777 267.117 27.5626 267.117 27.7553C267.117 27.7977 267.113 27.8458 267.105 27.8998C267.101 27.9499 267.095 27.998 267.088 28.0443H264.533V27.5819H266.776L266.521 27.79C266.556 27.5896 266.537 27.4104 266.463 27.2524C266.39 27.0945 266.282 26.9692 266.14 26.8767C265.997 26.7843 265.835 26.738 265.654 26.738C265.473 26.738 265.307 26.7843 265.157 26.8767C265.007 26.9692 264.889 27.1022 264.805 27.2756C264.724 27.4451 264.691 27.6474 264.706 27.8824C264.691 28.1098 264.726 28.3101 264.81 28.4835C264.899 28.6531 265.022 28.786 265.18 28.8823C265.342 28.9748 265.517 29.0211 265.706 29.0211C265.914 29.0211 266.09 28.9729 266.232 28.8766C266.375 28.7802 266.49 28.6569 266.579 28.5067L267.03 28.7379C266.968 28.8804 266.872 29.0114 266.741 29.1309C266.614 29.2465 266.462 29.339 266.284 29.4083C266.111 29.4777 265.916 29.5124 265.701 29.5124ZM268.592 29.443L267.523 26.3277H268.118L268.968 28.9344L268.76 28.9286L269.592 26.3277H270.1L270.933 28.9286L270.725 28.9344L271.58 26.3277H272.17L271.1 29.443H270.586L269.765 26.8421H269.927L269.106 29.443H268.592ZM253.712 39.5124C253.469 39.5124 253.254 39.468 253.065 39.3794C252.876 39.2869 252.728 39.1579 252.62 38.9922C252.516 38.8226 252.464 38.628 252.464 38.4084C252.464 38.2196 252.498 38.0539 252.568 37.9113C252.637 37.7649 252.722 37.6397 252.822 37.5356C252.926 37.4316 253.03 37.3449 253.134 37.2756C253.242 37.2023 253.331 37.1445 253.4 37.1022L253.73 36.9114C253.841 36.8459 253.949 36.7746 254.053 36.6976C254.157 36.6205 254.244 36.5319 254.313 36.4317C254.383 36.3277 254.417 36.2121 254.417 36.0849C254.417 35.9346 254.367 35.8094 254.267 35.7092C254.167 35.609 254.042 35.5589 253.891 35.5589C253.741 35.5589 253.616 35.609 253.516 35.7092C253.415 35.8094 253.365 35.9366 253.365 36.0907C253.365 36.1947 253.39 36.2968 253.441 36.397C253.491 36.4972 253.552 36.5935 253.625 36.686C253.699 36.7746 253.772 36.8575 253.845 36.9345L256.186 39.443H255.475L253.423 37.2813C253.331 37.185 253.238 37.079 253.146 36.9634C253.053 36.8478 252.974 36.7207 252.909 36.582C252.847 36.4394 252.816 36.2834 252.816 36.1138C252.816 35.9057 252.864 35.7246 252.961 35.5705C253.061 35.4125 253.192 35.2892 253.354 35.2006C253.516 35.112 253.695 35.0677 253.891 35.0677C254.084 35.0677 254.259 35.112 254.417 35.2006C254.579 35.2854 254.708 35.4048 254.805 35.5589C254.901 35.7131 254.949 35.8903 254.949 36.0907C254.949 36.2949 254.901 36.4741 254.805 36.6282C254.708 36.7785 254.593 36.9076 254.458 37.0155C254.323 37.1195 254.196 37.2062 254.076 37.2756L253.753 37.4721C253.656 37.5337 253.554 37.6069 253.446 37.6917C253.338 37.7726 253.246 37.8709 253.169 37.9865C253.092 38.0982 253.053 38.235 253.053 38.3968C253.053 38.5895 253.115 38.7398 253.238 38.8477C253.365 38.9556 253.529 39.0095 253.73 39.0095C253.857 39.0095 253.97 38.9883 254.071 38.9459C254.171 38.9035 254.259 38.8477 254.336 38.7783C254.417 38.709 254.489 38.6338 254.55 38.5529C254.612 38.4681 254.67 38.3853 254.724 38.3044L255.388 37.316H256.007L255.226 38.5067C255.169 38.603 255.095 38.709 255.007 38.8246C254.918 38.9401 254.814 39.05 254.695 39.154C254.575 39.258 254.435 39.3447 254.273 39.4141C254.115 39.4796 253.928 39.5124 253.712 39.5124ZM257.635 39.443L259.179 35.137H259.849L261.392 39.443H260.785L260.433 38.4315H258.595L258.242 39.443H257.635ZM258.774 37.9113H260.254L259.433 35.5474H259.595L258.774 37.9113ZM261.929 40.599V36.3277H262.455V36.9981L262.386 36.8652C262.501 36.6802 262.659 36.5338 262.86 36.4259C263.06 36.3142 263.289 36.2583 263.547 36.2583C263.84 36.2583 264.102 36.3296 264.333 36.4722C264.568 36.6147 264.753 36.8093 264.888 37.0559C265.023 37.2987 265.091 37.5761 265.091 37.8882C265.091 38.1926 265.023 38.4681 264.888 38.7147C264.753 38.9613 264.568 39.1559 264.333 39.2985C264.102 39.4411 263.838 39.5124 263.542 39.5124C263.291 39.5124 263.062 39.4565 262.854 39.3447C262.65 39.233 262.492 39.075 262.38 38.8708L262.467 38.7783V40.599H261.929ZM263.501 38.9922C263.698 38.9922 263.873 38.944 264.027 38.8477C264.181 38.7513 264.301 38.6203 264.385 38.4546C264.474 38.2851 264.518 38.0963 264.518 37.8882C264.518 37.6724 264.474 37.4836 264.385 37.3218C264.301 37.1561 264.181 37.0251 264.027 36.9288C263.873 36.8286 263.698 36.7785 263.501 36.7785C263.305 36.7785 263.127 36.8267 262.969 36.923C262.815 37.0193 262.692 37.1523 262.599 37.3218C262.511 37.4875 262.467 37.6763 262.467 37.8882C262.467 38.0963 262.511 38.2851 262.599 38.4546C262.692 38.6203 262.815 38.7513 262.969 38.8477C263.127 38.944 263.305 38.9922 263.501 38.9922ZM265.853 40.599V36.3277H266.379V36.9981L266.31 36.8652C266.425 36.6802 266.583 36.5338 266.784 36.4259C266.984 36.3142 267.213 36.2583 267.472 36.2583C267.764 36.2583 268.026 36.3296 268.258 36.4722C268.493 36.6147 268.678 36.8093 268.812 37.0559C268.947 37.2987 269.015 37.5761 269.015 37.8882C269.015 38.1926 268.947 38.4681 268.812 38.7147C268.678 38.9613 268.493 39.1559 268.258 39.2985C268.026 39.4411 267.762 39.5124 267.466 39.5124C267.215 39.5124 266.986 39.4565 266.778 39.3447C266.574 39.233 266.416 39.075 266.304 38.8708L266.391 38.7783V40.599H265.853ZM267.425 38.9922C267.622 38.9922 267.797 38.944 267.951 38.8477C268.105 38.7513 268.225 38.6203 268.31 38.4546C268.398 38.2851 268.443 38.0963 268.443 37.8882C268.443 37.6724 268.398 37.4836 268.31 37.3218C268.225 37.1561 268.105 37.0251 267.951 36.9288C267.797 36.8286 267.622 36.7785 267.425 36.7785C267.229 36.7785 267.052 36.8267 266.894 36.923C266.739 37.0193 266.616 37.1523 266.524 37.3218C266.435 37.4875 266.391 37.6763 266.391 37.8882C266.391 38.0963 266.435 38.2851 266.524 38.4546C266.616 38.6203 266.739 38.7513 266.894 38.8477C267.052 38.944 267.229 38.9922 267.425 38.9922ZM269.777 39.443V36.3277H270.303V36.8999L270.246 36.8189C270.319 36.6417 270.43 36.5107 270.581 36.4259C270.731 36.3373 270.914 36.293 271.13 36.293H271.321V36.8016H271.049C270.829 36.8016 270.652 36.871 270.517 37.0097C270.382 37.1445 270.315 37.3372 270.315 37.5877V39.443H269.777ZM273.335 39.5124C273.035 39.5124 272.763 39.443 272.521 39.3043C272.278 39.1617 272.085 38.9671 271.943 38.7205C271.8 38.4739 271.729 38.1945 271.729 37.8824C271.729 37.5703 271.798 37.2929 271.937 37.0501C272.079 36.8074 272.272 36.6147 272.515 36.4722C272.758 36.3296 273.031 36.2583 273.335 36.2583C273.636 36.2583 273.908 36.3296 274.15 36.4722C274.393 36.6109 274.584 36.8016 274.723 37.0444C274.865 37.2871 274.937 37.5665 274.937 37.8824C274.937 38.1984 274.863 38.4797 274.717 38.7263C274.57 38.969 274.376 39.1617 274.133 39.3043C273.894 39.443 273.628 39.5124 273.335 39.5124ZM273.335 38.9922C273.528 38.9922 273.702 38.944 273.856 38.8477C274.014 38.7513 274.137 38.6184 274.226 38.4489C274.318 38.2793 274.364 38.0905 274.364 37.8824C274.364 37.6705 274.318 37.4836 274.226 37.3218C274.137 37.1561 274.014 37.0251 273.856 36.9288C273.702 36.8286 273.528 36.7785 273.335 36.7785C273.139 36.7785 272.962 36.8286 272.804 36.9288C272.65 37.0251 272.526 37.1561 272.434 37.3218C272.341 37.4836 272.295 37.6705 272.295 37.8824C272.295 38.0905 272.341 38.2793 272.434 38.4489C272.526 38.6184 272.65 38.7513 272.804 38.8477C272.962 38.944 273.139 38.9922 273.335 38.9922ZM276.506 39.443L275.286 36.3277H275.887L276.864 38.9633H276.656L277.639 36.3277H278.24L277.015 39.443H276.506ZM279.579 39.5124C279.375 39.5124 279.194 39.4757 279.036 39.4025C278.881 39.3255 278.76 39.2214 278.671 39.0904C278.583 38.9556 278.539 38.8014 278.539 38.628C278.539 38.4623 278.573 38.314 278.643 38.183C278.716 38.0481 278.828 37.9345 278.978 37.842C279.132 37.7495 279.325 37.684 279.556 37.6455L280.712 37.4547V37.9056L279.677 38.079C279.477 38.1136 279.33 38.1772 279.238 38.2697C279.149 38.3622 279.105 38.4758 279.105 38.6107C279.105 38.7379 279.155 38.8438 279.255 38.9286C279.359 39.0134 279.488 39.0557 279.642 39.0557C279.839 39.0557 280.009 39.0153 280.151 38.9344C280.298 38.8496 280.411 38.7359 280.492 38.5934C280.577 38.4508 280.619 38.2928 280.619 38.1194V37.3276C280.619 37.158 280.556 37.0212 280.429 36.9172C280.305 36.8093 280.141 36.7554 279.937 36.7554C279.76 36.7554 279.602 36.8016 279.463 36.8941C279.328 36.9827 279.228 37.1022 279.163 37.2524L278.695 37.0097C278.752 36.8671 278.845 36.74 278.972 36.6282C279.099 36.5126 279.248 36.4221 279.417 36.3566C279.587 36.2911 279.764 36.2583 279.949 36.2583C280.188 36.2583 280.398 36.3045 280.579 36.397C280.76 36.4856 280.901 36.6109 281.001 36.7727C281.105 36.9307 281.157 37.1156 281.157 37.3276V39.443H280.631V38.8535L280.729 38.8881C280.664 39.0114 280.575 39.1193 280.463 39.2118C280.351 39.3043 280.22 39.3775 280.07 39.4314C279.92 39.4854 279.756 39.5124 279.579 39.5124ZM282.048 39.443V35.0677H282.586V39.443H282.048Z" fill="#2C3E51"/>
<rect x="14.7568" y="7.68597" width="69.7884" height="1.53719" fill="#797979" fill-opacity="0.06"/>
<rect x="99.6104" y="7.68597" width="69.7884" height="1.53719" fill="#797979" fill-opacity="0.06"/>
<rect x="184.771" y="7.68597" width="67.3289" height="1.53719" fill="#797979" fill-opacity="0.06"/>
<rect x="267.471" y="7.68597" width="37.2" height="1.53719" fill="#797979" fill-opacity="0.06"/>
<path d="M315.73 3.92296L315.845 4.15662C315.902 4.27139 316.046 4.37797 316.173 4.40257L316.329 4.42716C316.796 4.50505 316.907 4.84938 316.57 5.18961L316.427 5.33308C316.333 5.43146 316.279 5.62002 316.308 5.75119L316.329 5.83728C316.456 6.40296 316.156 6.62022 315.665 6.32508L315.558 6.26359C315.431 6.18981 315.226 6.18981 315.099 6.26359L314.992 6.32508C314.496 6.62432 314.197 6.40296 314.328 5.83728L314.349 5.75119C314.377 5.62002 314.324 5.43146 314.23 5.33308L314.086 5.18551C313.75 4.84528 313.861 4.50095 314.328 4.42306L314.484 4.39847C314.607 4.37797 314.755 4.26729 314.812 4.15252L314.927 3.91886C315.148 3.47615 315.509 3.47615 315.73 3.92296Z" fill="#5DB075"/>
<path d="M316.588 6.90302C316.44 7.00959 316.026 7.20635 315.436 6.90302C315.37 6.87022 315.288 6.86612 315.222 6.90302C314.989 7.02189 314.776 7.07108 314.608 7.07108C314.345 7.07108 314.161 6.9686 314.071 6.90302C313.919 6.79234 313.599 6.4767 313.71 5.80854C313.722 5.73885 313.702 5.66916 313.657 5.61588C313.374 5.29204 313.218 4.85753 313.329 4.5173C313.37 4.38202 313.284 4.20166 313.144 4.20166H310.615C309.385 4.20166 308.565 4.81654 308.565 6.25125V9.12067C308.565 10.5554 309.385 11.1703 310.615 11.1703H314.714C315.944 11.1703 316.764 10.5554 316.764 9.12067V6.9768C316.764 6.89892 316.653 6.85792 316.588 6.90302ZM313.624 7.72285C313.353 7.94011 313.009 8.04668 312.665 8.04668C312.32 8.04668 311.972 7.94011 311.705 7.72285L310.422 6.69806C310.291 6.59148 310.271 6.39472 310.373 6.26354C310.48 6.13237 310.672 6.10778 310.804 6.21435L312.087 7.23915C312.398 7.4892 312.927 7.4892 313.238 7.23915C313.37 7.13257 313.562 7.15306 313.669 7.28834C313.78 7.41951 313.759 7.61627 313.624 7.72285Z" fill="#5DB075"/>
</svg>
