<svg width="15" height="15" viewBox="0 0 15 15" fill="none" xmlns="http://www.w3.org/2000/svg">
<path fill-rule="evenodd" clip-rule="evenodd" d="M1.54311 4.35573C1.58665 4.31208 1.63838 4.27744 1.69533 4.25381C1.75228 4.23018 1.81333 4.21802 1.87498 4.21802C1.93664 4.21802 1.99769 4.23018 2.05464 4.25381C2.11159 4.27744 2.16332 4.31208 2.20686 4.35573L7.49998 9.64979L12.7931 4.35573C12.8367 4.31215 12.8884 4.27758 12.9454 4.25399C13.0023 4.2304 13.0633 4.21826 13.125 4.21826C13.1866 4.21826 13.2477 4.2304 13.3046 4.25399C13.3615 4.27758 13.4133 4.31215 13.4569 4.35573C13.5004 4.39931 13.535 4.45105 13.5586 4.508C13.5822 4.56494 13.5943 4.62597 13.5943 4.68761C13.5943 4.74924 13.5822 4.81027 13.5586 4.86721C13.535 4.92416 13.5004 4.9759 13.4569 5.01948L7.83186 10.6445C7.78832 10.6881 7.73659 10.7228 7.67964 10.7464C7.62269 10.77 7.56164 10.7822 7.49998 10.7822C7.43833 10.7822 7.37728 10.77 7.32033 10.7464C7.26338 10.7228 7.21165 10.6881 7.16811 10.6445L1.54311 5.01948C1.49946 4.97594 1.46482 4.92421 1.44119 4.86726C1.41756 4.81031 1.4054 4.74926 1.4054 4.68761C1.4054 4.62595 1.41756 4.5649 1.44119 4.50795C1.46482 4.451 1.49946 4.39927 1.54311 4.35573Z" fill="#666666"/>
</svg>
