<svg width="15" height="15" viewBox="0 0 15 15" fill="none" xmlns="http://www.w3.org/2000/svg">
<path fill-rule="evenodd" clip-rule="evenodd" d="M1.54299 4.35573C1.58653 4.31208 1.63826 4.27744 1.6952 4.25381C1.75215 4.23018 1.8132 4.21802 1.87486 4.21802C1.93652 4.21802 1.99757 4.23018 2.05452 4.25381C2.11147 4.27744 2.16319 4.31208 2.20674 4.35573L7.49986 9.64979L12.793 4.35573C12.8366 4.31215 12.8883 4.27758 12.9453 4.25399C13.0022 4.2304 13.0632 4.21826 13.1249 4.21826C13.1865 4.21826 13.2475 4.2304 13.3045 4.25399C13.3614 4.27758 13.4132 4.31215 13.4567 4.35573C13.5003 4.39931 13.5349 4.45105 13.5585 4.508C13.5821 4.56494 13.5942 4.62597 13.5942 4.68761C13.5942 4.74924 13.5821 4.81027 13.5585 4.86721C13.5349 4.92416 13.5003 4.9759 13.4567 5.01948L7.83174 10.6445C7.78819 10.6881 7.73647 10.7228 7.67952 10.7464C7.62257 10.77 7.56152 10.7822 7.49986 10.7822C7.4382 10.7822 7.37715 10.77 7.32021 10.7464C7.26326 10.7228 7.21153 10.6881 7.16799 10.6445L1.54299 5.01948C1.49933 4.97594 1.4647 4.92421 1.44107 4.86726C1.41744 4.81031 1.40527 4.74926 1.40527 4.68761C1.40527 4.62595 1.41744 4.5649 1.44107 4.50795C1.4647 4.451 1.49933 4.39927 1.54299 4.35573Z" fill="white"/>
</svg>
