<svg width="321" height="19" viewBox="0 0 321 19" fill="none" xmlns="http://www.w3.org/2000/svg">
<path d="M33.0503 9.55762V7.50781L31.4912 4.93002H32.454L33.6466 6.94256H33.3049L34.4914 4.93002H35.4541L33.9013 7.5016V9.55762H33.0503ZM36.9347 9.63216C36.5869 9.63216 36.2825 9.55348 36.0216 9.39612C35.7607 9.23876 35.5578 9.0255 35.4129 8.75633C35.268 8.48716 35.1955 8.18901 35.1955 7.86187C35.1955 7.5223 35.268 7.22208 35.4129 6.96119C35.562 6.69617 35.7628 6.48705 36.0154 6.33383C36.2722 6.18061 36.5579 6.104 36.8726 6.104C37.1376 6.104 37.3695 6.14748 37.5683 6.23444C37.7712 6.32141 37.9431 6.4415 38.0839 6.59471C38.2246 6.74793 38.3323 6.92392 38.4069 7.12269C38.4814 7.31732 38.5187 7.52851 38.5187 7.75627C38.5187 7.81425 38.5145 7.87429 38.5062 7.93641C38.5021 7.99852 38.4917 8.05235 38.4752 8.09791H35.8663V7.47675H38.0155L37.6304 7.76869C37.6677 7.57821 37.6573 7.40842 37.5994 7.25935C37.5455 7.11027 37.4544 6.99225 37.326 6.90529C37.2018 6.81833 37.0507 6.77485 36.8726 6.77485C36.7028 6.77485 36.5517 6.81833 36.4192 6.90529C36.2866 6.98811 36.1852 7.11234 36.1148 7.27798C36.0485 7.43948 36.0237 7.63618 36.0403 7.86808C36.0237 8.07513 36.0506 8.25941 36.121 8.42091C36.1955 8.57826 36.3032 8.70042 36.444 8.78739C36.5889 8.87435 36.7546 8.91783 36.9409 8.91783C37.1273 8.91783 37.2846 8.87849 37.413 8.79981C37.5455 8.72113 37.649 8.61553 37.7236 8.48302L38.382 8.80602C38.3158 8.96752 38.2122 9.11039 38.0714 9.23462C37.9306 9.35885 37.7629 9.45616 37.5683 9.52656C37.3778 9.59696 37.1666 9.63216 36.9347 9.63216ZM40.1483 9.63216C39.9122 9.63216 39.7072 9.59282 39.5333 9.51414C39.3594 9.43546 39.2248 9.32365 39.1296 9.17871C39.0343 9.02964 38.9867 8.85778 38.9867 8.66316C38.9867 8.47681 39.0281 8.31117 39.1109 8.16623C39.1938 8.01716 39.3221 7.89292 39.4961 7.79354C39.67 7.69416 39.8895 7.62376 40.1545 7.58235L41.2601 7.40221V8.02337L40.3098 8.18487C40.1483 8.21385 40.0282 8.26562 39.9495 8.34016C39.8708 8.41469 39.8315 8.51201 39.8315 8.6321C39.8315 8.74805 39.875 8.84122 39.9619 8.91162C40.053 8.97787 40.1648 9.011 40.2973 9.011C40.4671 9.011 40.6162 8.9758 40.7446 8.90541C40.8771 8.83087 40.9785 8.72941 41.0489 8.60104C41.1235 8.47267 41.1607 8.33187 41.1607 8.17866V7.30904C41.1607 7.1641 41.1028 7.04401 40.9868 6.94877C40.875 6.84939 40.7259 6.79969 40.5396 6.79969C40.3657 6.79969 40.2104 6.84732 40.0737 6.94256C39.9412 7.03366 39.8439 7.15582 39.7818 7.30904L39.1172 6.98604C39.1834 6.80798 39.2869 6.65476 39.4277 6.52639C39.5727 6.39387 39.7424 6.29035 39.9371 6.21581C40.1317 6.14127 40.3429 6.104 40.5707 6.104C40.8481 6.104 41.0924 6.15576 41.3036 6.25929C41.5148 6.35867 41.6784 6.49947 41.7943 6.68167C41.9144 6.85974 41.9745 7.06886 41.9745 7.30904V9.55762H41.2042V8.97994L41.3782 8.96752C41.2912 9.11246 41.1877 9.23462 41.0676 9.334C40.9475 9.42925 40.8108 9.50378 40.6576 9.55762C40.5044 9.60731 40.3346 9.63216 40.1483 9.63216ZM42.7265 9.55762V6.17854H43.4906V6.93014L43.4284 6.81833C43.5071 6.56573 43.6293 6.38973 43.7949 6.29035C43.9647 6.19096 44.1676 6.14127 44.4037 6.14127H44.6024V6.86181H44.3105C44.0786 6.86181 43.8922 6.93428 43.7514 7.07921C43.6106 7.22001 43.5403 7.41878 43.5403 7.67552V9.55762H42.7265ZM46.3356 9.63216C45.9753 9.63216 45.6606 9.54726 45.3914 9.37748C45.1264 9.20356 44.9442 8.96959 44.8448 8.67558L45.4536 8.38364C45.5405 8.57412 45.6606 8.7232 45.8138 8.83087C45.9712 8.93853 46.1451 8.99237 46.3356 8.99237C46.4847 8.99237 46.6027 8.95924 46.6896 8.89298C46.7766 8.82673 46.8201 8.73976 46.8201 8.6321C46.8201 8.56584 46.8015 8.51201 46.7642 8.4706C46.7311 8.42505 46.6834 8.38778 46.6213 8.35879C46.5633 8.32566 46.4992 8.29875 46.4288 8.27804L45.8759 8.12275C45.5902 8.03993 45.3728 7.91363 45.2237 7.74385C45.0788 7.57407 45.0063 7.37323 45.0063 7.14133C45.0063 6.93428 45.0581 6.75414 45.1616 6.60092C45.2693 6.44357 45.4163 6.32141 45.6026 6.23444C45.7931 6.14748 46.0105 6.104 46.2548 6.104C46.5737 6.104 46.8553 6.18061 47.0996 6.33383C47.3439 6.48705 47.5179 6.70238 47.6214 6.97983L47.0002 7.27177C46.9423 7.11855 46.8449 6.99639 46.7083 6.90529C46.5716 6.81419 46.4184 6.76864 46.2486 6.76864C46.112 6.76864 46.0043 6.79969 45.9256 6.86181C45.8469 6.92392 45.8076 7.00467 45.8076 7.10406C45.8076 7.16617 45.8242 7.22001 45.8573 7.26556C45.8904 7.31111 45.936 7.34838 45.994 7.37737C46.0561 7.40635 46.1265 7.43327 46.2051 7.45812L46.7456 7.61962C47.023 7.70244 47.2363 7.82667 47.3853 7.99231C47.5386 8.15795 47.6152 8.36086 47.6152 8.60104C47.6152 8.80395 47.5613 8.98409 47.4537 9.14144C47.346 9.29466 47.1969 9.41475 47.0064 9.50171C46.8159 9.58867 46.5923 9.63216 46.3356 9.63216ZM50.9968 9.63216C50.6655 9.63216 50.3632 9.55555 50.0899 9.40233C49.8207 9.24911 49.6054 9.03999 49.4439 8.77496C49.2865 8.50994 49.2078 8.20764 49.2078 7.86808C49.2078 7.52851 49.2865 7.22622 49.4439 6.96119C49.6054 6.69617 49.8207 6.48705 50.0899 6.33383C50.3591 6.18061 50.6613 6.104 50.9968 6.104C51.3281 6.104 51.6283 6.18061 51.8974 6.33383C52.1666 6.48705 52.3799 6.69617 52.5372 6.96119C52.6987 7.22208 52.7795 7.52437 52.7795 7.86808C52.7795 8.20764 52.6987 8.50994 52.5372 8.77496C52.3757 9.03999 52.1604 9.24911 51.8912 9.40233C51.6221 9.55555 51.3239 9.63216 50.9968 9.63216ZM50.9968 8.88677C51.179 8.88677 51.3384 8.84329 51.4751 8.75633C51.6159 8.66937 51.7256 8.54928 51.8043 8.39606C51.8871 8.2387 51.9285 8.06271 51.9285 7.86808C51.9285 7.66931 51.8871 7.49539 51.8043 7.34631C51.7256 7.19309 51.6159 7.073 51.4751 6.98604C51.3384 6.89494 51.179 6.84939 50.9968 6.84939C50.8104 6.84939 50.6469 6.89494 50.5061 6.98604C50.3653 7.073 50.2535 7.19309 50.1706 7.34631C50.092 7.49539 50.0526 7.66931 50.0526 7.86808C50.0526 8.06271 50.092 8.2387 50.1706 8.39606C50.2535 8.54928 50.3653 8.66937 50.5061 8.75633C50.6469 8.84329 50.8104 8.88677 50.9968 8.88677ZM53.7151 9.55762V6.90529H53.1188V6.17854H53.7151V6.06673C53.7151 5.80999 53.7669 5.59259 53.8704 5.41452C53.978 5.23232 54.1271 5.09359 54.3176 4.99835C54.5081 4.9031 54.7338 4.85548 54.9947 4.85548C55.0444 4.85548 55.0982 4.85962 55.1562 4.86791C55.2183 4.87205 55.27 4.87826 55.3115 4.88654V5.58844C55.27 5.58016 55.2307 5.57602 55.1934 5.57602C55.1603 5.57188 55.1293 5.56981 55.1003 5.56981C54.9181 5.56981 54.7773 5.61122 54.6779 5.69404C54.5785 5.77272 54.5288 5.89695 54.5288 6.06673V6.17854H55.2804V6.90529H54.5288V9.55762H53.7151ZM31.8701 17.5576V12.93H34.9448V13.6754H32.7149V14.8618H34.8206V15.6072H32.7149V16.8122H34.9448V17.5576H31.8701ZM35.1916 17.5576L36.3717 15.8619L35.1853 14.1785H36.1419L37.0674 15.5451H36.6388L37.5644 14.1785H38.5147L37.3345 15.8619L38.5085 17.5576H37.5582L36.6451 16.1973H37.0612L36.1481 17.5576H35.1916ZM38.9596 18.7999V14.1785H39.7236V14.8494L39.6491 14.6817C39.765 14.4995 39.9224 14.3587 40.1211 14.2593C40.3199 14.1558 40.5497 14.104 40.8106 14.104C41.1295 14.104 41.4173 14.1827 41.674 14.34C41.9308 14.4974 42.1337 14.7086 42.2828 14.9736C42.436 15.2386 42.5126 15.5368 42.5126 15.8681C42.5126 16.1952 42.438 16.4934 42.289 16.7625C42.1399 17.0317 41.937 17.245 41.6802 17.4023C41.4235 17.5555 41.1316 17.6322 40.8044 17.6322C40.5601 17.6322 40.3344 17.5845 40.1274 17.4893C39.9244 17.3899 39.7629 17.2491 39.6429 17.0669L39.7733 16.9054V18.7999H38.9596ZM40.7112 16.8868C40.8976 16.8868 41.0632 16.8433 41.2082 16.7563C41.3531 16.6694 41.4649 16.5493 41.5436 16.3961C41.6264 16.2428 41.6678 16.0668 41.6678 15.8681C41.6678 15.6693 41.6264 15.4954 41.5436 15.3463C41.4649 15.1931 41.3531 15.073 41.2082 14.986C41.0632 14.8949 40.8976 14.8494 40.7112 14.8494C40.5332 14.8494 40.3717 14.8929 40.2267 14.9798C40.0859 15.0668 39.9741 15.189 39.8913 15.3463C39.8126 15.4995 39.7733 15.6735 39.7733 15.8681C39.7733 16.0668 39.8126 16.2428 39.8913 16.3961C39.9741 16.5493 40.0859 16.6694 40.2267 16.7563C40.3717 16.8433 40.5332 16.8868 40.7112 16.8868ZM44.7355 17.6322C44.3877 17.6322 44.0833 17.5535 43.8224 17.3961C43.5616 17.2388 43.3586 17.0255 43.2137 16.7563C43.0688 16.4872 42.9963 16.189 42.9963 15.8619C42.9963 15.5223 43.0688 15.2221 43.2137 14.9612C43.3628 14.6962 43.5636 14.487 43.8162 14.3338C44.073 14.1806 44.3587 14.104 44.6734 14.104C44.9384 14.104 45.1703 14.1475 45.3691 14.2344C45.572 14.3214 45.7439 14.4415 45.8847 14.5947C46.0255 14.7479 46.1331 14.9239 46.2077 15.1227C46.2822 15.3173 46.3195 15.5285 46.3195 15.7563C46.3195 15.8142 46.3153 15.8743 46.3071 15.9364C46.3029 15.9985 46.2926 16.0524 46.276 16.0979H43.6672V15.4768H45.8163L45.4312 15.7687C45.4685 15.5782 45.4581 15.4084 45.4002 15.2593C45.3463 15.1103 45.2552 14.9923 45.1269 14.9053C45.0026 14.8183 44.8515 14.7748 44.6734 14.7748C44.5036 14.7748 44.3525 14.8183 44.22 14.9053C44.0875 14.9881 43.986 15.1123 43.9156 15.278C43.8494 15.4395 43.8245 15.6362 43.8411 15.8681C43.8245 16.0751 43.8514 16.2594 43.9218 16.4209C43.9964 16.5783 44.104 16.7004 44.2448 16.7874C44.3898 16.8743 44.5554 16.9178 44.7417 16.9178C44.9281 16.9178 45.0855 16.8785 45.2138 16.7998C45.3463 16.7211 45.4499 16.6155 45.5244 16.483L46.1828 16.806C46.1166 16.9675 46.013 17.1104 45.8722 17.2346C45.7315 17.3588 45.5637 17.4562 45.3691 17.5266C45.1786 17.597 44.9674 17.6322 44.7355 17.6322ZM46.9363 17.5576V14.1785H47.7003V14.9301L47.6382 14.8183C47.7169 14.5657 47.8391 14.3897 48.0047 14.2903C48.1745 14.191 48.3774 14.1413 48.6134 14.1413H48.8122V14.8618H48.5203C48.2884 14.8618 48.102 14.9343 47.9612 15.0792C47.8204 15.22 47.75 15.4188 47.75 15.6755V17.5576H46.9363ZM49.2596 17.5576V14.1785H50.0733V17.5576H49.2596ZM49.2596 13.7996V12.93H50.0733V13.7996H49.2596ZM52.4272 17.6322C52.0793 17.6322 51.775 17.5535 51.5141 17.3961C51.2532 17.2388 51.0503 17.0255 50.9053 16.7563C50.7604 16.4872 50.6879 16.189 50.6879 15.8619C50.6879 15.5223 50.7604 15.2221 50.9053 14.9612C51.0544 14.6962 51.2553 14.487 51.5079 14.3338C51.7646 14.1806 52.0503 14.104 52.3651 14.104C52.6301 14.104 52.862 14.1475 53.0607 14.2344C53.2637 14.3214 53.4355 14.4415 53.5763 14.5947C53.7171 14.7479 53.8248 14.9239 53.8993 15.1227C53.9738 15.3173 54.0111 15.5285 54.0111 15.7563C54.0111 15.8142 54.007 15.8743 53.9987 15.9364C53.9945 15.9985 53.9842 16.0524 53.9676 16.0979H51.3588V15.4768H53.508L53.1229 15.7687C53.1601 15.5782 53.1498 15.4084 53.0918 15.2593C53.038 15.1103 52.9469 14.9923 52.8185 14.9053C52.6943 14.8183 52.5431 14.7748 52.3651 14.7748C52.1953 14.7748 52.0441 14.8183 51.9116 14.9053C51.7791 14.9881 51.6776 15.1123 51.6072 15.278C51.541 15.4395 51.5161 15.6362 51.5327 15.8681C51.5161 16.0751 51.5431 16.2594 51.6135 16.4209C51.688 16.5783 51.7957 16.7004 51.9365 16.7874C52.0814 16.8743 52.247 16.9178 52.4334 16.9178C52.6197 16.9178 52.7771 16.8785 52.9055 16.7998C53.038 16.7211 53.1415 16.6155 53.216 16.483L53.8745 16.806C53.8082 16.9675 53.7047 17.1104 53.5639 17.2346C53.4231 17.3588 53.2554 17.4562 53.0607 17.5266C52.8703 17.597 52.6591 17.6322 52.4272 17.6322ZM54.6279 17.5576V14.1785H55.392V14.8432L55.3299 14.7252C55.4085 14.5222 55.5369 14.369 55.715 14.2655C55.8972 14.1578 56.1084 14.104 56.3485 14.104C56.597 14.104 56.8165 14.1578 57.007 14.2655C57.2016 14.3732 57.3527 14.5243 57.4604 14.7189C57.5681 14.9094 57.6219 15.131 57.6219 15.3836V17.5576H56.8082V15.5761C56.8082 15.4271 56.7792 15.2987 56.7212 15.191C56.6633 15.0834 56.5825 15.0005 56.479 14.9426C56.3796 14.8804 56.2616 14.8494 56.1249 14.8494C55.9924 14.8494 55.8744 14.8804 55.7709 14.9426C55.6673 15.0005 55.5866 15.0834 55.5286 15.191C55.4706 15.2987 55.4417 15.4271 55.4417 15.5761V17.5576H54.6279ZM59.9374 17.6322C59.602 17.6322 59.2997 17.5555 59.0305 17.4023C58.7655 17.245 58.5564 17.0338 58.4032 16.7688C58.2499 16.4996 58.1733 16.1973 58.1733 15.8619C58.1733 15.5264 58.2499 15.2262 58.4032 14.9612C58.5564 14.6962 58.7655 14.487 59.0305 14.3338C59.2997 14.1806 59.602 14.104 59.9374 14.104C60.1776 14.104 60.4012 14.1475 60.6082 14.2344C60.8153 14.3173 60.9934 14.4332 61.1424 14.5823C61.2957 14.7272 61.4054 14.9011 61.4717 15.1041L60.7573 15.4146C60.6952 15.2449 60.5896 15.1082 60.4405 15.0047C60.2956 14.9011 60.1279 14.8494 59.9374 14.8494C59.7593 14.8494 59.5999 14.8929 59.4591 14.9798C59.3225 15.0668 59.2148 15.1869 59.1361 15.3401C59.0574 15.4933 59.0181 15.6693 59.0181 15.8681C59.0181 16.0668 59.0574 16.2428 59.1361 16.3961C59.2148 16.5493 59.3225 16.6694 59.4591 16.7563C59.5999 16.8433 59.7593 16.8868 59.9374 16.8868C60.132 16.8868 60.3018 16.835 60.4467 16.7315C60.5917 16.628 60.6952 16.4892 60.7573 16.3153L61.4717 16.6383C61.4054 16.8288 61.2977 17.0006 61.1487 17.1539C60.9996 17.3029 60.8215 17.421 60.6145 17.5079C60.4074 17.5907 60.1817 17.6322 59.9374 17.6322ZM63.6916 17.6322C63.3438 17.6322 63.0394 17.5535 62.7786 17.3961C62.5177 17.2388 62.3148 17.0255 62.1698 16.7563C62.0249 16.4872 61.9524 16.189 61.9524 15.8619C61.9524 15.5223 62.0249 15.2221 62.1698 14.9612C62.3189 14.6962 62.5197 14.487 62.7723 14.3338C63.0291 14.1806 63.3148 14.104 63.6295 14.104C63.8946 14.104 64.1265 14.1475 64.3252 14.2344C64.5281 14.3214 64.7 14.4415 64.8408 14.5947C64.9816 14.7479 65.0892 14.9239 65.1638 15.1227C65.2383 15.3173 65.2756 15.5285 65.2756 15.7563C65.2756 15.8142 65.2714 15.8743 65.2632 15.9364C65.259 15.9985 65.2487 16.0524 65.2321 16.0979H62.6233V15.4768H64.7725L64.3873 15.7687C64.4246 15.5782 64.4143 15.4084 64.3563 15.2593C64.3024 15.1103 64.2113 14.9923 64.083 14.9053C63.9587 14.8183 63.8076 14.7748 63.6295 14.7748C63.4598 14.7748 63.3086 14.8183 63.1761 14.9053C63.0436 14.9881 62.9421 15.1123 62.8717 15.278C62.8055 15.4395 62.7806 15.6362 62.7972 15.8681C62.7806 16.0751 62.8075 16.2594 62.8779 16.4209C62.9525 16.5783 63.0601 16.7004 63.2009 16.7874C63.3459 16.8743 63.5115 16.9178 63.6979 16.9178C63.8842 16.9178 64.0416 16.8785 64.1699 16.7998C64.3024 16.7211 64.406 16.6155 64.4805 16.483L65.1389 16.806C65.0727 16.9675 64.9692 17.1104 64.8284 17.2346C64.6876 17.3588 64.5199 17.4562 64.3252 17.5266C64.1347 17.597 63.9235 17.6322 63.6916 17.6322Z" fill="white"/>
<path d="M22.3537 16V13.3605H16.737V12.1174L22.323 4.56711H23.7656V12.1174H25.2541V13.3605H23.7656V16H22.3537ZM17.8726 12.6545L17.6578 12.1174H22.3537V5.8255L22.7988 5.94827L17.8726 12.6545Z" fill="white"/>
<path d="M10.4439 5.60923L7.34573 4.44883C7.02465 4.33053 6.50078 4.33053 6.1797 4.44883L3.08154 5.60923C2.48444 5.83455 2 6.53304 2 7.16957V11.7323C2 12.1886 2.29855 12.7913 2.6647 13.0617L5.76285 15.3769C6.30926 15.7881 7.20491 15.7881 7.75131 15.3769L10.8495 13.0617C11.2156 12.7857 11.5142 12.1886 11.5142 11.7323V7.16957C11.5198 6.53304 11.0354 5.83455 10.4439 5.60923ZM8.72019 8.76371L6.29799 11.1859C6.2135 11.2704 6.10647 11.3098 5.99944 11.3098C5.89241 11.3098 5.78539 11.2704 5.70089 11.1859L4.79961 10.2734C4.63625 10.11 4.63625 9.83962 4.79961 9.67626C4.96297 9.5129 5.23335 9.5129 5.39671 9.67626L6.00507 10.2846L8.12872 8.16098C8.29208 7.99762 8.56246 7.99762 8.72582 8.16098C8.88918 8.32434 8.88918 8.60036 8.72019 8.76371Z" fill="#E8604C"/>
<path d="M165.967 9.55762V4.93002H167.917C168.224 4.93002 168.485 4.98385 168.7 5.09152C168.919 5.19505 169.087 5.34412 169.203 5.53875C169.323 5.72924 169.383 5.96114 169.383 6.23444C169.383 6.44564 169.325 6.64441 169.209 6.83075C169.097 7.01296 168.917 7.1641 168.669 7.28419V6.89287C168.897 6.97983 169.077 7.0875 169.209 7.21587C169.342 7.34424 169.435 7.4871 169.489 7.64446C169.543 7.80182 169.569 7.96746 169.569 8.14139C169.569 8.58448 169.422 8.93232 169.128 9.18492C168.839 9.43339 168.435 9.55762 167.917 9.55762H165.967ZM166.812 8.81223H168.004C168.224 8.81223 168.398 8.75219 168.526 8.6321C168.658 8.50787 168.725 8.3443 168.725 8.14139C168.725 7.93848 168.658 7.77491 168.526 7.65067C168.398 7.52644 168.224 7.46433 168.004 7.46433H166.812V8.81223ZM166.812 6.72516H167.961C168.135 6.72516 168.273 6.67546 168.377 6.57608C168.48 6.47255 168.532 6.34004 168.532 6.17854C168.532 6.01704 168.48 5.88867 168.377 5.79342C168.273 5.69818 168.135 5.65056 167.961 5.65056H166.812V6.72516ZM171.796 9.63216C171.448 9.63216 171.143 9.55348 170.883 9.39612C170.622 9.23876 170.419 9.0255 170.274 8.75633C170.129 8.48716 170.056 8.18901 170.056 7.86187C170.056 7.5223 170.129 7.22208 170.274 6.96119C170.423 6.69617 170.624 6.48705 170.876 6.33383C171.133 6.18061 171.419 6.104 171.734 6.104C171.999 6.104 172.231 6.14748 172.429 6.23444C172.632 6.32141 172.804 6.4415 172.945 6.59471C173.086 6.74793 173.193 6.92392 173.268 7.12269C173.342 7.31732 173.38 7.52851 173.38 7.75627C173.38 7.81425 173.376 7.87429 173.367 7.93641C173.363 7.99852 173.353 8.05235 173.336 8.09791H170.727V7.47675H172.877L172.491 7.76869C172.529 7.57821 172.518 7.40842 172.46 7.25935C172.407 7.11027 172.315 6.99225 172.187 6.90529C172.063 6.81833 171.912 6.77485 171.734 6.77485C171.564 6.77485 171.413 6.81833 171.28 6.90529C171.148 6.98811 171.046 7.11234 170.976 7.27798C170.91 7.43948 170.885 7.63618 170.901 7.86808C170.885 8.07513 170.912 8.25941 170.982 8.42091C171.057 8.57826 171.164 8.70042 171.305 8.78739C171.45 8.87435 171.616 8.91783 171.802 8.91783C171.988 8.91783 172.146 8.87849 172.274 8.79981C172.407 8.72113 172.51 8.61553 172.585 8.48302L173.243 8.80602C173.177 8.96752 173.073 9.11039 172.932 9.23462C172.792 9.35885 172.624 9.45616 172.429 9.52656C172.239 9.59696 172.028 9.63216 171.796 9.63216ZM175.282 9.63216C174.922 9.63216 174.607 9.54726 174.338 9.37748C174.073 9.20356 173.891 8.96959 173.792 8.67558L174.4 8.38364C174.487 8.57412 174.607 8.7232 174.761 8.83087C174.918 8.93853 175.092 8.99237 175.282 8.99237C175.431 8.99237 175.549 8.95924 175.636 8.89298C175.723 8.82673 175.767 8.73976 175.767 8.6321C175.767 8.56584 175.748 8.51201 175.711 8.4706C175.678 8.42505 175.63 8.38778 175.568 8.35879C175.51 8.32566 175.446 8.29875 175.375 8.27804L174.823 8.12275C174.537 8.03993 174.319 7.91363 174.17 7.74385C174.025 7.57407 173.953 7.37323 173.953 7.14133C173.953 6.93428 174.005 6.75414 174.108 6.60092C174.216 6.44357 174.363 6.32141 174.549 6.23444C174.74 6.14748 174.957 6.104 175.202 6.104C175.52 6.104 175.802 6.18061 176.046 6.33383C176.291 6.48705 176.465 6.70238 176.568 6.97983L175.947 7.27177C175.889 7.11855 175.792 6.99639 175.655 6.90529C175.518 6.81419 175.365 6.76864 175.195 6.76864C175.059 6.76864 174.951 6.79969 174.872 6.86181C174.794 6.92392 174.754 7.00467 174.754 7.10406C174.754 7.16617 174.771 7.22001 174.804 7.26556C174.837 7.31111 174.883 7.34838 174.941 7.37737C175.003 7.40635 175.073 7.43327 175.152 7.45812L175.692 7.61962C175.97 7.70244 176.183 7.82667 176.332 7.99231C176.485 8.15795 176.562 8.36086 176.562 8.60104C176.562 8.80395 176.508 8.98409 176.4 9.14144C176.293 9.29466 176.144 9.41475 175.953 9.50171C175.763 9.58867 175.539 9.63216 175.282 9.63216ZM178.728 9.59489C178.347 9.59489 178.051 9.49136 177.839 9.28431C177.632 9.07312 177.529 8.77703 177.529 8.39606V6.90529H176.945V6.17854H177.007C177.173 6.17854 177.301 6.13506 177.392 6.0481C177.483 5.96114 177.529 5.83484 177.529 5.66919V5.40831H178.343V6.17854H179.119V6.90529H178.343V8.35258C178.343 8.46439 178.361 8.55963 178.398 8.63831C178.44 8.71699 178.502 8.77703 178.585 8.81844C178.672 8.85985 178.781 8.88056 178.914 8.88056C178.943 8.88056 178.976 8.87849 179.013 8.87435C179.055 8.87021 179.094 8.86607 179.131 8.86192V9.55762C179.073 9.5659 179.007 9.57418 178.933 9.58246C178.858 9.59075 178.79 9.59489 178.728 9.59489ZM165.967 17.5576V12.93H167.476C167.965 12.93 168.389 13.0294 168.75 13.2282C169.114 13.4228 169.396 13.694 169.594 14.0419C169.793 14.3856 169.892 14.7852 169.892 15.2407C169.892 15.6921 169.793 16.0938 169.594 16.4458C169.396 16.7936 169.114 17.0669 168.75 17.2657C168.389 17.4603 167.965 17.5576 167.476 17.5576H165.967ZM166.812 16.8122H167.495C167.81 16.8122 168.081 16.748 168.309 16.6197C168.54 16.4872 168.721 16.305 168.849 16.0731C168.977 15.837 169.041 15.5596 169.041 15.2407C169.041 14.9177 168.977 14.6403 168.849 14.4084C168.721 14.1765 168.54 13.9963 168.309 13.868C168.081 13.7396 167.81 13.6754 167.495 13.6754H166.812V16.8122ZM172.099 17.6322C171.751 17.6322 171.447 17.5535 171.186 17.3961C170.925 17.2388 170.722 17.0255 170.577 16.7563C170.432 16.4872 170.36 16.189 170.36 15.8619C170.36 15.5223 170.432 15.2221 170.577 14.9612C170.726 14.6962 170.927 14.487 171.18 14.3338C171.436 14.1806 171.722 14.104 172.037 14.104C172.302 14.104 172.534 14.1475 172.733 14.2344C172.935 14.3214 173.107 14.4415 173.248 14.5947C173.389 14.7479 173.497 14.9239 173.571 15.1227C173.646 15.3173 173.683 15.5285 173.683 15.7563C173.683 15.8142 173.679 15.8743 173.671 15.9364C173.666 15.9985 173.656 16.0524 173.639 16.0979H171.031V15.4768H173.18L172.795 15.7687C172.832 15.5782 172.822 15.4084 172.764 15.2593C172.71 15.1103 172.619 14.9923 172.49 14.9053C172.366 14.8183 172.215 14.7748 172.037 14.7748C171.867 14.7748 171.716 14.8183 171.583 14.9053C171.451 14.9881 171.349 15.1123 171.279 15.278C171.213 15.4395 171.188 15.6362 171.205 15.8681C171.188 16.0751 171.215 16.2594 171.285 16.4209C171.36 16.5783 171.467 16.7004 171.608 16.7874C171.753 16.8743 171.919 16.9178 172.105 16.9178C172.292 16.9178 172.449 16.8785 172.577 16.7998C172.71 16.7211 172.813 16.6155 172.888 16.483L173.546 16.806C173.48 16.9675 173.377 17.1104 173.236 17.2346C173.095 17.3588 172.927 17.4562 172.733 17.5266C172.542 17.597 172.331 17.6322 172.099 17.6322ZM175.586 17.6322C175.225 17.6322 174.911 17.5473 174.641 17.3775C174.376 17.2036 174.194 16.9696 174.095 16.6756L174.704 16.3836C174.79 16.5741 174.911 16.7232 175.064 16.8309C175.221 16.9385 175.395 16.9924 175.586 16.9924C175.735 16.9924 175.853 16.9592 175.94 16.893C176.027 16.8267 176.07 16.7398 176.07 16.6321C176.07 16.5658 176.051 16.512 176.014 16.4706C175.981 16.425 175.933 16.3878 175.871 16.3588C175.813 16.3257 175.749 16.2987 175.679 16.278L175.126 16.1228C174.84 16.0399 174.623 15.9136 174.474 15.7438C174.329 15.5741 174.256 15.3732 174.256 15.1413C174.256 14.9343 174.308 14.7541 174.412 14.6009C174.519 14.4436 174.666 14.3214 174.853 14.2344C175.043 14.1475 175.261 14.104 175.505 14.104C175.824 14.104 176.105 14.1806 176.35 14.3338C176.594 14.487 176.768 14.7024 176.871 14.9798L176.25 15.2718C176.192 15.1186 176.095 14.9964 175.958 14.9053C175.822 14.8142 175.668 14.7686 175.499 14.7686C175.362 14.7686 175.254 14.7997 175.176 14.8618C175.097 14.9239 175.058 15.0047 175.058 15.1041C175.058 15.1662 175.074 15.22 175.107 15.2656C175.14 15.3111 175.186 15.3484 175.244 15.3774C175.306 15.4064 175.376 15.4333 175.455 15.4581L175.996 15.6196C176.273 15.7024 176.486 15.8267 176.635 15.9923C176.789 16.158 176.865 16.3609 176.865 16.601C176.865 16.804 176.811 16.9841 176.704 17.1414C176.596 17.2947 176.447 17.4148 176.256 17.5017C176.066 17.5887 175.842 17.6322 175.586 17.6322ZM179.031 17.5949C178.65 17.5949 178.354 17.4914 178.143 17.2843C177.936 17.0731 177.832 16.777 177.832 16.3961V14.9053H177.248V14.1785H177.31C177.476 14.1785 177.604 14.1351 177.695 14.0481C177.787 13.9611 177.832 13.8348 177.832 13.6692V13.4083H178.646V14.1785H179.422V14.9053H178.646V16.3526C178.646 16.4644 178.664 16.5596 178.702 16.6383C178.743 16.717 178.805 16.777 178.888 16.8184C178.975 16.8599 179.085 16.8806 179.217 16.8806C179.246 16.8806 179.279 16.8785 179.317 16.8743C179.358 16.8702 179.397 16.8661 179.435 16.8619V17.5576C179.377 17.5659 179.31 17.5742 179.236 17.5825C179.161 17.5907 179.093 17.5949 179.031 17.5949ZM180.056 17.5576V14.1785H180.87V17.5576H180.056ZM180.056 13.7996V12.93H180.87V13.7996H180.056ZM181.621 17.5576V14.1785H182.385V14.8432L182.323 14.7252C182.402 14.5222 182.53 14.369 182.708 14.2655C182.891 14.1578 183.102 14.104 183.342 14.104C183.59 14.104 183.81 14.1578 184 14.2655C184.195 14.3732 184.346 14.5243 184.454 14.7189C184.562 14.9094 184.615 15.131 184.615 15.3836V17.5576H183.802V15.5761C183.802 15.4271 183.773 15.2987 183.715 15.191C183.657 15.0834 183.576 15.0005 183.472 14.9426C183.373 14.8804 183.255 14.8494 183.118 14.8494C182.986 14.8494 182.868 14.8804 182.764 14.9426C182.661 15.0005 182.58 15.0834 182.522 15.191C182.464 15.2987 182.435 15.4271 182.435 15.5761V17.5576H181.621ZM186.328 17.6322C186.092 17.6322 185.887 17.5928 185.713 17.5141C185.539 17.4355 185.405 17.3236 185.31 17.1787C185.214 17.0296 185.167 16.8578 185.167 16.6632C185.167 16.4768 185.208 16.3112 185.291 16.1662C185.374 16.0172 185.502 15.8929 185.676 15.7935C185.85 15.6942 186.07 15.6238 186.335 15.5823L187.44 15.4022V16.0234L186.49 16.1849C186.328 16.2139 186.208 16.2656 186.13 16.3402C186.051 16.4147 186.012 16.512 186.012 16.6321C186.012 16.748 186.055 16.8412 186.142 16.9116C186.233 16.9779 186.345 17.011 186.477 17.011C186.647 17.011 186.796 16.9758 186.925 16.9054C187.057 16.8309 187.159 16.7294 187.229 16.601C187.304 16.4727 187.341 16.3319 187.341 16.1787V15.309C187.341 15.1641 187.283 15.044 187.167 14.9488C187.055 14.8494 186.906 14.7997 186.72 14.7997C186.546 14.7997 186.39 14.8473 186.254 14.9426C186.121 15.0337 186.024 15.1558 185.962 15.309L185.297 14.986C185.363 14.808 185.467 14.6548 185.608 14.5264C185.753 14.3939 185.923 14.2903 186.117 14.2158C186.312 14.1413 186.523 14.104 186.751 14.104C187.028 14.104 187.272 14.1558 187.484 14.2593C187.695 14.3587 187.858 14.4995 187.974 14.6817C188.094 14.8597 188.155 15.0689 188.155 15.309V17.5576H187.384V16.9799L187.558 16.9675C187.471 17.1125 187.368 17.2346 187.248 17.334C187.128 17.4292 186.991 17.5038 186.838 17.5576C186.684 17.6073 186.515 17.6322 186.328 17.6322ZM190.386 17.5949C190.005 17.5949 189.709 17.4914 189.498 17.2843C189.291 17.0731 189.188 16.777 189.188 16.3961V14.9053H188.604V14.1785H188.666C188.831 14.1785 188.96 14.1351 189.051 14.0481C189.142 13.9611 189.188 13.8348 189.188 13.6692V13.4083H190.001V14.1785H190.778V14.9053H190.001V16.3526C190.001 16.4644 190.02 16.5596 190.057 16.6383C190.099 16.717 190.161 16.777 190.244 16.8184C190.331 16.8599 190.44 16.8806 190.573 16.8806C190.602 16.8806 190.635 16.8785 190.672 16.8743C190.714 16.8702 190.753 16.8661 190.79 16.8619V17.5576C190.732 17.5659 190.666 17.5742 190.591 17.5825C190.517 17.5907 190.449 17.5949 190.386 17.5949ZM191.412 17.5576V14.1785H192.226V17.5576H191.412ZM191.412 13.7996V12.93H192.226V13.7996H191.412ZM194.629 17.6322C194.298 17.6322 193.996 17.5555 193.722 17.4023C193.453 17.2491 193.238 17.04 193.076 16.775C192.919 16.5099 192.84 16.2076 192.84 15.8681C192.84 15.5285 192.919 15.2262 193.076 14.9612C193.238 14.6962 193.453 14.487 193.722 14.3338C193.991 14.1806 194.294 14.104 194.629 14.104C194.96 14.104 195.261 14.1806 195.53 14.3338C195.799 14.487 196.012 14.6962 196.17 14.9612C196.331 15.2221 196.412 15.5244 196.412 15.8681C196.412 16.2076 196.331 16.5099 196.17 16.775C196.008 17.04 195.793 17.2491 195.524 17.4023C195.254 17.5555 194.956 17.6322 194.629 17.6322ZM194.629 16.8868C194.811 16.8868 194.971 16.8433 195.107 16.7563C195.248 16.6694 195.358 16.5493 195.437 16.3961C195.519 16.2387 195.561 16.0627 195.561 15.8681C195.561 15.6693 195.519 15.4954 195.437 15.3463C195.358 15.1931 195.248 15.073 195.107 14.986C194.971 14.8949 194.811 14.8494 194.629 14.8494C194.443 14.8494 194.279 14.8949 194.138 14.986C193.998 15.073 193.886 15.1931 193.803 15.3463C193.724 15.4954 193.685 15.6693 193.685 15.8681C193.685 16.0627 193.724 16.2387 193.803 16.3961C193.886 16.5493 193.998 16.6694 194.138 16.7563C194.279 16.8433 194.443 16.8868 194.629 16.8868ZM197.029 17.5576V14.1785H197.793V14.8432L197.731 14.7252C197.81 14.5222 197.938 14.369 198.116 14.2655C198.298 14.1578 198.509 14.104 198.75 14.104C198.998 14.104 199.217 14.1578 199.408 14.2655C199.603 14.3732 199.754 14.5243 199.861 14.7189C199.969 14.9094 200.023 15.131 200.023 15.3836V17.5576H199.209V15.5761C199.209 15.4271 199.18 15.2987 199.122 15.191C199.064 15.0834 198.983 15.0005 198.88 14.9426C198.781 14.8804 198.663 14.8494 198.526 14.8494C198.393 14.8494 198.275 14.8804 198.172 14.9426C198.068 15.0005 197.988 15.0834 197.93 15.191C197.872 15.2987 197.843 15.4271 197.843 15.5761V17.5576H197.029Z" fill="white"/>
<path d="M133.83 16V14.9565L136.991 11.5343C137.615 10.8693 138.111 10.3219 138.48 9.89223C138.858 9.46254 139.134 9.07888 139.308 8.74127C139.482 8.40365 139.569 8.04558 139.569 7.66704C139.569 7.04296 139.385 6.56212 139.017 6.2245C138.648 5.88688 138.162 5.71808 137.559 5.71808C136.945 5.71808 136.423 5.89712 135.993 6.25519C135.564 6.60304 135.267 7.09923 135.103 7.74377L133.738 7.39081C133.871 6.77696 134.116 6.24496 134.474 5.79481C134.832 5.34465 135.277 4.99681 135.809 4.75127C136.341 4.50573 136.924 4.38296 137.559 4.38296C138.254 4.38296 138.863 4.52108 139.385 4.79731C139.917 5.06331 140.331 5.43673 140.628 5.91758C140.935 6.39842 141.088 6.956 141.088 7.59031C141.088 8.00977 141.001 8.419 140.828 8.818C140.654 9.217 140.398 9.64158 140.06 10.0917C139.723 10.5317 139.283 11.0432 138.74 11.6263L135.917 14.6956H141.334V16H133.83ZM146.792 16.1842C146.198 16.1842 145.641 16.0818 145.119 15.8772C144.597 15.6624 144.142 15.3606 143.753 14.9718C143.374 14.5728 143.098 14.1073 142.924 13.5753L144.152 13.0535C144.367 13.6162 144.715 14.0562 145.196 14.3733C145.687 14.6802 146.219 14.8337 146.792 14.8337C147.262 14.8337 147.676 14.7314 148.035 14.5268C148.403 14.3119 148.689 14.0203 148.894 13.652C149.099 13.2735 149.201 12.854 149.201 12.3937C149.201 11.9128 149.093 11.4882 148.879 11.1199C148.674 10.7516 148.393 10.4652 148.035 10.2605C147.676 10.0457 147.267 9.93827 146.807 9.93827C146.336 9.93827 145.907 10.0457 145.518 10.2605C145.129 10.4754 144.848 10.7465 144.674 11.0739L143.461 10.813L144.336 4.56711H150.26V5.87154H144.904L145.487 5.28838L144.812 10.1378L144.29 9.83085C144.628 9.40115 145.022 9.09423 145.472 8.91008C145.932 8.71569 146.428 8.6185 146.96 8.6185C147.707 8.6185 148.362 8.78731 148.925 9.12492C149.487 9.46254 149.927 9.91269 150.244 10.4754C150.562 11.0381 150.72 11.6775 150.72 12.3937C150.72 13.1098 150.546 13.7543 150.198 14.3273C149.861 14.9002 149.395 15.3555 148.802 15.6931C148.219 16.0205 147.549 16.1842 146.792 16.1842ZM155.772 16V12.8233H152.596V11.4882H155.772V8.32692H157.107V11.4882H160.269V12.8233H157.107V16H155.772Z" fill="white"/>
<path d="M125.916 5.4502H121.45C119.511 5.4502 118.354 6.60649 118.354 8.54607V13.006C118.354 14.951 119.511 16.1072 121.45 16.1072H125.91C127.85 16.1072 129.006 14.951 129.006 13.0114V8.54607C129.012 6.60649 127.855 5.4502 125.916 5.4502ZM127.152 11.4128C127.152 11.7325 126.907 11.8924 126.614 11.7645L124.829 10.9972C124.621 10.9119 124.456 11.0185 124.456 11.2423V12.2281C124.456 12.3133 124.504 12.4359 124.568 12.4998L125.441 13.379C125.532 13.4696 125.575 13.6508 125.532 13.7734L125.362 14.2849C125.287 14.5087 125.031 14.6153 124.823 14.5087L123.933 13.752C123.795 13.6401 123.571 13.6401 123.438 13.752L122.543 14.5087C122.33 14.6153 122.079 14.5087 122.005 14.2796L121.834 13.768C121.791 13.6455 121.834 13.4643 121.925 13.3737L122.814 12.4998C122.873 12.4412 122.926 12.3187 122.926 12.2281V11.2423C122.926 11.0185 122.756 10.9066 122.553 10.9972L120.768 11.7645C120.47 11.8924 120.23 11.7325 120.23 11.4128V10.9173C120.23 10.6615 120.427 10.3631 120.662 10.2619L122.761 9.356C122.846 9.31871 122.921 9.20681 122.921 9.11089V8.00789C122.921 7.64555 123.182 7.21394 123.507 7.05408C123.624 6.99547 123.758 6.99547 123.875 7.05408C124.195 7.21927 124.461 7.64555 124.461 8.00789V9.11089C124.461 9.20681 124.53 9.31871 124.621 9.356L126.72 10.2619C126.96 10.3631 127.152 10.6615 127.152 10.9173V11.4128Z" fill="#E8604C"/>
<path d="M290.197 9.55762V4.93002H291.042V6.94877H293.011V4.93002H293.862V9.55762H293.011V7.69416H291.042V9.55762H290.197ZM295.709 9.63216C295.473 9.63216 295.268 9.59282 295.094 9.51414C294.92 9.43546 294.786 9.32365 294.691 9.17871C294.595 9.02964 294.548 8.85778 294.548 8.66316C294.548 8.47681 294.589 8.31117 294.672 8.16623C294.755 8.01716 294.883 7.89292 295.057 7.79354C295.231 7.69416 295.451 7.62376 295.716 7.58235L296.821 7.40221V8.02337L295.871 8.18487C295.709 8.21385 295.589 8.26562 295.511 8.34016C295.432 8.41469 295.393 8.51201 295.393 8.6321C295.393 8.74805 295.436 8.84122 295.523 8.91162C295.614 8.97787 295.726 9.011 295.858 9.011C296.028 9.011 296.177 8.9758 296.306 8.90541C296.438 8.83087 296.54 8.72941 296.61 8.60104C296.685 8.47267 296.722 8.33187 296.722 8.17866V7.30904C296.722 7.1641 296.664 7.04401 296.548 6.94877C296.436 6.84939 296.287 6.79969 296.101 6.79969C295.927 6.79969 295.771 6.84732 295.635 6.94256C295.502 7.03366 295.405 7.15582 295.343 7.30904L294.678 6.98604C294.744 6.80798 294.848 6.65476 294.989 6.52639C295.134 6.39387 295.304 6.29035 295.498 6.21581C295.693 6.14127 295.904 6.104 296.132 6.104C296.409 6.104 296.653 6.15576 296.865 6.25929C297.076 6.35867 297.239 6.49947 297.355 6.68167C297.475 6.85974 297.536 7.06886 297.536 7.30904V9.55762H296.765V8.97994L296.939 8.96752C296.852 9.11246 296.749 9.23462 296.629 9.334C296.509 9.42925 296.372 9.50378 296.219 9.55762C296.065 9.60731 295.896 9.63216 295.709 9.63216ZM298.288 10.7999V6.17854H299.052V6.84939L298.977 6.68167C299.093 6.49947 299.25 6.35867 299.449 6.25929C299.648 6.15576 299.878 6.104 300.139 6.104C300.458 6.104 300.745 6.18268 301.002 6.34004C301.259 6.4974 301.462 6.70859 301.611 6.97362C301.764 7.23864 301.841 7.5368 301.841 7.86808C301.841 8.19522 301.766 8.49337 301.617 8.76254C301.468 9.03171 301.265 9.24497 301.008 9.40233C300.752 9.55555 300.46 9.63216 300.132 9.63216C299.888 9.63216 299.662 9.58453 299.455 9.48929C299.252 9.38991 299.091 9.24911 298.971 9.06691L299.101 8.90541V10.7999H298.288ZM300.039 8.88677C300.226 8.88677 300.391 8.84329 300.536 8.75633C300.681 8.66937 300.793 8.54928 300.872 8.39606C300.954 8.24284 300.996 8.06685 300.996 7.86808C300.996 7.66931 300.954 7.49539 300.872 7.34631C300.793 7.19309 300.681 7.073 300.536 6.98604C300.391 6.89494 300.226 6.84939 300.039 6.84939C299.861 6.84939 299.7 6.89287 299.555 6.97983C299.414 7.06679 299.302 7.18895 299.219 7.34631C299.141 7.49953 299.101 7.67345 299.101 7.86808C299.101 8.06685 299.141 8.24284 299.219 8.39606C299.302 8.54928 299.414 8.66937 299.555 8.75633C299.7 8.84329 299.861 8.88677 300.039 8.88677ZM302.461 10.7999V6.17854H303.225V6.84939L303.15 6.68167C303.266 6.49947 303.424 6.35867 303.623 6.25929C303.821 6.15576 304.051 6.104 304.312 6.104C304.631 6.104 304.919 6.18268 305.175 6.34004C305.432 6.4974 305.635 6.70859 305.784 6.97362C305.937 7.23864 306.014 7.5368 306.014 7.86808C306.014 8.19522 305.939 8.49337 305.79 8.76254C305.641 9.03171 305.438 9.24497 305.182 9.40233C304.925 9.55555 304.633 9.63216 304.306 9.63216C304.061 9.63216 303.836 9.58453 303.629 9.48929C303.426 9.38991 303.264 9.24911 303.144 9.06691L303.275 8.90541V10.7999H302.461ZM304.213 8.88677C304.399 8.88677 304.565 8.84329 304.71 8.75633C304.855 8.66937 304.966 8.54928 305.045 8.39606C305.128 8.24284 305.169 8.06685 305.169 7.86808C305.169 7.66931 305.128 7.49539 305.045 7.34631C304.966 7.19309 304.855 7.073 304.71 6.98604C304.565 6.89494 304.399 6.84939 304.213 6.84939C304.035 6.84939 303.873 6.89287 303.728 6.97983C303.587 7.06679 303.476 7.18895 303.393 7.34631C303.314 7.49953 303.275 7.67345 303.275 7.86808C303.275 8.06685 303.314 8.24284 303.393 8.39606C303.476 8.54928 303.587 8.66937 303.728 8.75633C303.873 8.84329 304.035 8.88677 304.213 8.88677ZM306.984 10.9242C306.893 10.9242 306.804 10.9159 306.717 10.8993C306.63 10.8869 306.551 10.862 306.481 10.8248V10.1477C306.534 10.1601 306.599 10.1726 306.673 10.185C306.752 10.1974 306.824 10.2036 306.89 10.2036C307.077 10.2036 307.211 10.1601 307.294 10.0732C307.381 9.99035 307.458 9.87855 307.524 9.73775L307.748 9.21598L307.735 9.89925L306.263 6.17854H307.139L308.17 8.92404H307.859L308.884 6.17854H309.766L308.294 9.89925C308.207 10.1146 308.102 10.2989 307.978 10.4521C307.853 10.6053 307.708 10.7212 307.543 10.7999C307.381 10.8827 307.195 10.9242 306.984 10.9242ZM292.371 17.6322C292.04 17.6322 291.734 17.5721 291.452 17.452C291.175 17.3319 290.93 17.1642 290.719 16.9489C290.512 16.7336 290.35 16.481 290.234 16.1911C290.119 15.9012 290.061 15.5844 290.061 15.2407C290.061 14.897 290.116 14.5802 290.228 14.2903C290.344 13.9963 290.506 13.7437 290.713 13.5325C290.924 13.3172 291.17 13.1516 291.452 13.0356C291.734 12.9155 292.04 12.8555 292.371 12.8555C292.703 12.8555 292.999 12.9114 293.26 13.0232C293.525 13.135 293.748 13.2841 293.93 13.4704C294.113 13.6526 294.243 13.8535 294.322 14.0729L293.564 14.427C293.477 14.1951 293.33 14.0046 293.123 13.8555C292.916 13.7023 292.665 13.6257 292.371 13.6257C292.081 13.6257 291.825 13.694 291.601 13.8307C291.382 13.9673 291.21 14.1558 291.085 14.3959C290.965 14.6361 290.905 14.9177 290.905 15.2407C290.905 15.5637 290.965 15.8474 291.085 16.0917C291.21 16.3319 291.382 16.5203 291.601 16.6569C291.825 16.7936 292.081 16.8619 292.371 16.8619C292.665 16.8619 292.916 16.7874 293.123 16.6383C293.33 16.4851 293.477 16.2925 293.564 16.0606L294.322 16.4147C294.243 16.6342 294.113 16.8371 293.93 17.0234C293.748 17.2056 293.525 17.3526 293.26 17.4644C292.999 17.5763 292.703 17.6322 292.371 17.6322ZM296.144 17.6322C295.883 17.6322 295.656 17.5742 295.461 17.4582C295.27 17.3423 295.123 17.1808 295.02 16.9737C294.921 16.7667 294.871 16.5244 294.871 16.247V14.1785H295.685V16.1787C295.685 16.3195 295.712 16.4437 295.765 16.5513C295.823 16.6549 295.904 16.7377 296.008 16.7998C296.115 16.8578 296.235 16.8868 296.368 16.8868C296.5 16.8868 296.618 16.8578 296.722 16.7998C296.825 16.7377 296.906 16.6528 296.964 16.5451C297.022 16.4375 297.051 16.3091 297.051 16.16V14.1785H297.865V17.5576H297.095V16.893L297.163 17.011C297.084 17.2181 296.954 17.3733 296.772 17.4769C296.594 17.5804 296.384 17.6322 296.144 17.6322ZM299.907 17.6322C299.547 17.6322 299.232 17.5473 298.963 17.3775C298.698 17.2036 298.516 16.9696 298.416 16.6756L299.025 16.3836C299.112 16.5741 299.232 16.7232 299.385 16.8309C299.543 16.9385 299.717 16.9924 299.907 16.9924C300.056 16.9924 300.174 16.9592 300.261 16.893C300.348 16.8267 300.392 16.7398 300.392 16.6321C300.392 16.5658 300.373 16.512 300.336 16.4706C300.302 16.425 300.255 16.3878 300.193 16.3588C300.135 16.3257 300.071 16.2987 300 16.278L299.447 16.1228C299.162 16.0399 298.944 15.9136 298.795 15.7438C298.65 15.5741 298.578 15.3732 298.578 15.1413C298.578 14.9343 298.63 14.7541 298.733 14.6009C298.841 14.4436 298.988 14.3214 299.174 14.2344C299.365 14.1475 299.582 14.104 299.826 14.104C300.145 14.104 300.427 14.1806 300.671 14.3338C300.915 14.487 301.089 14.7024 301.193 14.9798L300.572 15.2718C300.514 15.1186 300.416 14.9964 300.28 14.9053C300.143 14.8142 299.99 14.7686 299.82 14.7686C299.683 14.7686 299.576 14.7997 299.497 14.8618C299.418 14.9239 299.379 15.0047 299.379 15.1041C299.379 15.1662 299.396 15.22 299.429 15.2656C299.462 15.3111 299.507 15.3484 299.565 15.3774C299.628 15.4064 299.698 15.4333 299.777 15.4581L300.317 15.6196C300.594 15.7024 300.808 15.8267 300.957 15.9923C301.11 16.158 301.187 16.3609 301.187 16.601C301.187 16.804 301.133 16.9841 301.025 17.1414C300.917 17.2947 300.768 17.4148 300.578 17.5017C300.387 17.5887 300.164 17.6322 299.907 17.6322ZM303.352 17.5949C302.971 17.5949 302.675 17.4914 302.464 17.2843C302.257 17.0731 302.154 16.777 302.154 16.3961V14.9053H301.57V14.1785H301.632C301.797 14.1785 301.926 14.1351 302.017 14.0481C302.108 13.9611 302.154 13.8348 302.154 13.6692V13.4083H302.967V14.1785H303.744V14.9053H302.967V16.3526C302.967 16.4644 302.986 16.5596 303.023 16.6383C303.065 16.717 303.127 16.777 303.21 16.8184C303.296 16.8599 303.406 16.8806 303.539 16.8806C303.568 16.8806 303.601 16.8785 303.638 16.8743C303.68 16.8702 303.719 16.8661 303.756 16.8619V17.5576C303.698 17.5659 303.632 17.5742 303.557 17.5825C303.483 17.5907 303.415 17.5949 303.352 17.5949ZM306 17.6322C305.668 17.6322 305.366 17.5555 305.093 17.4023C304.824 17.2491 304.608 17.04 304.447 16.775C304.29 16.5099 304.211 16.2076 304.211 15.8681C304.211 15.5285 304.29 15.2262 304.447 14.9612C304.608 14.6962 304.824 14.487 305.093 14.3338C305.362 14.1806 305.664 14.104 306 14.104C306.331 14.104 306.631 14.1806 306.9 14.3338C307.17 14.487 307.383 14.6962 307.54 14.9612C307.702 15.2221 307.782 15.5244 307.782 15.8681C307.782 16.2076 307.702 16.5099 307.54 16.775C307.379 17.04 307.163 17.2491 306.894 17.4023C306.625 17.5555 306.327 17.6322 306 17.6322ZM306 16.8868C306.182 16.8868 306.341 16.8433 306.478 16.7563C306.619 16.6694 306.729 16.5493 306.807 16.3961C306.89 16.2387 306.932 16.0627 306.932 15.8681C306.932 15.6693 306.89 15.4954 306.807 15.3463C306.729 15.1931 306.619 15.073 306.478 14.986C306.341 14.8949 306.182 14.8494 306 14.8494C305.813 14.8494 305.65 14.8949 305.509 14.986C305.368 15.073 305.256 15.1931 305.174 15.3463C305.095 15.4954 305.056 15.6693 305.056 15.8681C305.056 16.0627 305.095 16.2387 305.174 16.3961C305.256 16.5493 305.368 16.6694 305.509 16.7563C305.65 16.8433 305.813 16.8868 306 16.8868ZM308.4 17.5576V14.1785H309.164V14.9612L309.077 14.8308C309.139 14.5864 309.263 14.4042 309.449 14.2841C309.636 14.164 309.855 14.104 310.108 14.104C310.385 14.104 310.63 14.1765 310.841 14.3214C311.052 14.4663 311.189 14.6568 311.251 14.8929L311.021 14.9115C311.124 14.6423 311.28 14.4415 311.487 14.309C311.694 14.1723 311.932 14.104 312.201 14.104C312.441 14.104 312.654 14.1578 312.841 14.2655C313.031 14.3732 313.18 14.5243 313.288 14.7189C313.396 14.9094 313.45 15.131 313.45 15.3836V17.5576H312.636V15.5761C312.636 15.4271 312.609 15.2987 312.555 15.191C312.501 15.0834 312.427 15.0005 312.331 14.9426C312.236 14.8804 312.12 14.8494 311.984 14.8494C311.855 14.8494 311.741 14.8804 311.642 14.9426C311.543 15.0005 311.466 15.0834 311.412 15.191C311.358 15.2987 311.331 15.4271 311.331 15.5761V17.5576H310.518V15.5761C310.518 15.4271 310.491 15.2987 310.437 15.191C310.383 15.0834 310.307 15.0005 310.207 14.9426C310.112 14.8804 309.998 14.8494 309.865 14.8494C309.737 14.8494 309.623 14.8804 309.524 14.9426C309.424 15.0005 309.348 15.0834 309.294 15.191C309.24 15.2987 309.213 15.4271 309.213 15.5761V17.5576H308.4ZM315.741 17.6322C315.393 17.6322 315.088 17.5535 314.827 17.3961C314.567 17.2388 314.364 17.0255 314.219 16.7563C314.074 16.4872 314.001 16.189 314.001 15.8619C314.001 15.5223 314.074 15.2221 314.219 14.9612C314.368 14.6962 314.569 14.487 314.821 14.3338C315.078 14.1806 315.364 14.104 315.678 14.104C315.943 14.104 316.175 14.1475 316.374 14.2344C316.577 14.3214 316.749 14.4415 316.89 14.5947C317.03 14.7479 317.138 14.9239 317.213 15.1227C317.287 15.3173 317.324 15.5285 317.324 15.7563C317.324 15.8142 317.32 15.8743 317.312 15.9364C317.308 15.9985 317.298 16.0524 317.281 16.0979H314.672V15.4768H316.821L316.436 15.7687C316.473 15.5782 316.463 15.4084 316.405 15.2593C316.351 15.1103 316.26 14.9923 316.132 14.9053C316.008 14.8183 315.856 14.7748 315.678 14.7748C315.509 14.7748 315.357 14.8183 315.225 14.9053C315.092 14.9881 314.991 15.1123 314.921 15.278C314.854 15.4395 314.83 15.6362 314.846 15.8681C314.83 16.0751 314.856 16.2594 314.927 16.4209C315.001 16.5783 315.109 16.7004 315.25 16.7874C315.395 16.8743 315.56 16.9178 315.747 16.9178C315.933 16.9178 316.09 16.8785 316.219 16.7998C316.351 16.7211 316.455 16.6155 316.529 16.483L317.188 16.806C317.122 16.9675 317.018 17.1104 316.877 17.2346C316.736 17.3588 316.569 17.4562 316.374 17.5266C316.184 17.597 315.972 17.6322 315.741 17.6322ZM317.941 17.5576V14.1785H318.705V14.9301L318.643 14.8183C318.722 14.5657 318.844 14.3897 319.01 14.2903C319.179 14.191 319.382 14.1413 319.618 14.1413H319.817V14.8618H319.525C319.293 14.8618 319.107 14.9343 318.966 15.0792C318.825 15.22 318.755 15.4188 318.755 15.6755V17.5576H317.941Z" fill="white"/>
<path d="M259.195 16L263.139 10.859L263.415 10.8897C263.262 11.0943 263.093 11.258 262.909 11.3808C262.724 11.4933 262.52 11.5752 262.295 11.6263C262.08 11.6775 261.845 11.7031 261.589 11.7031C260.914 11.7031 260.305 11.5496 259.763 11.2427C259.231 10.9255 258.806 10.4958 258.489 9.95362C258.182 9.40115 258.028 8.77196 258.028 8.06604C258.028 7.36012 258.192 6.73092 258.52 6.17846C258.847 5.626 259.297 5.19119 259.87 4.87404C260.443 4.54665 261.087 4.38296 261.804 4.38296C262.54 4.38296 263.19 4.54665 263.753 4.87404C264.326 5.19119 264.776 5.63623 265.103 6.20915C265.43 6.77185 265.594 7.4215 265.594 8.15812C265.594 8.55712 265.548 8.951 265.456 9.33977C265.364 9.72854 265.216 10.1224 265.011 10.5214C264.817 10.9204 264.556 11.3348 264.228 11.7645L261.006 16H259.195ZM261.804 10.3833C262.244 10.3833 262.632 10.2861 262.97 10.0917C263.318 9.88712 263.589 9.61088 263.783 9.26304C263.978 8.90496 264.075 8.50596 264.075 8.06604C264.075 7.60565 263.973 7.20154 263.768 6.85369C263.574 6.50585 263.308 6.22962 262.97 6.025C262.632 5.82038 262.244 5.71808 261.804 5.71808C261.374 5.71808 260.99 5.82038 260.653 6.025C260.315 6.22962 260.044 6.50585 259.839 6.85369C259.645 7.20154 259.548 7.60565 259.548 8.06604C259.548 8.50596 259.645 8.90496 259.839 9.26304C260.034 9.61088 260.3 9.88712 260.637 10.0917C260.985 10.2861 261.374 10.3833 261.804 10.3833ZM267.246 16V14.9565L270.407 11.5343C271.031 10.8693 271.527 10.3219 271.896 9.89223C272.274 9.46254 272.551 9.07888 272.724 8.74127C272.898 8.40365 272.985 8.04558 272.985 7.66704C272.985 7.04296 272.801 6.56212 272.433 6.2245C272.065 5.88688 271.579 5.71808 270.975 5.71808C270.361 5.71808 269.839 5.89712 269.41 6.25519C268.98 6.60304 268.683 7.09923 268.52 7.74377L267.154 7.39081C267.287 6.77696 267.532 6.24496 267.89 5.79481C268.248 5.34465 268.694 4.99681 269.226 4.75127C269.758 4.50573 270.341 4.38296 270.975 4.38296C271.671 4.38296 272.279 4.52108 272.801 4.79731C273.333 5.06331 273.748 5.43673 274.044 5.91758C274.351 6.39842 274.505 6.956 274.505 7.59031C274.505 8.00977 274.418 8.419 274.244 8.818C274.07 9.217 273.814 9.64158 273.476 10.0917C273.139 10.5317 272.699 11.0432 272.157 11.6263L269.333 14.6956H274.75V16H267.246ZM281.175 16.1842C280.264 16.1842 279.466 15.9386 278.781 15.4475C278.105 14.9462 277.578 14.2557 277.2 13.3758C276.821 12.4857 276.632 11.4524 276.632 10.2759C276.632 9.09935 276.821 8.07115 277.2 7.19131C277.578 6.30123 278.105 5.61065 278.781 5.11958C279.456 4.6285 280.249 4.38296 281.159 4.38296C282.07 4.38296 282.863 4.6285 283.538 5.11958C284.213 5.61065 284.74 6.30123 285.119 7.19131C285.507 8.07115 285.702 9.09935 285.702 10.2759C285.702 11.4524 285.512 12.4857 285.134 13.3758C284.755 14.2659 284.223 14.9565 283.538 15.4475C282.863 15.9386 282.075 16.1842 281.175 16.1842ZM281.175 14.7877C281.788 14.7877 282.32 14.6035 282.771 14.2352C283.221 13.8567 283.569 13.3298 283.814 12.6545C284.07 11.9793 284.198 11.1864 284.198 10.2759C284.198 9.36535 284.07 8.57246 283.814 7.89723C283.569 7.222 283.216 6.70023 282.755 6.33192C282.305 5.96362 281.773 5.77946 281.159 5.77946C280.545 5.77946 280.013 5.96362 279.563 6.33192C279.113 6.70023 278.76 7.222 278.504 7.89723C278.259 8.57246 278.136 9.36535 278.136 10.2759C278.136 11.1762 278.259 11.964 278.504 12.6392C278.76 13.3144 279.113 13.8413 279.563 14.2198C280.024 14.5984 280.561 14.7877 281.175 14.7877Z" fill="white"/>
<path d="M249.296 5.48071H244.703C242.708 5.48071 241.519 6.67004 241.519 8.66504V13.2524C241.519 15.2529 242.708 16.4423 244.703 16.4423H249.29C251.285 16.4423 252.475 15.2529 252.475 13.2579V8.66504C252.48 6.67004 251.291 5.48071 249.296 5.48071ZM243.968 8.61571C244.127 8.45677 244.39 8.45677 244.549 8.61571C244.939 9.00485 245.574 9.00485 245.963 8.61571C246.122 8.45677 246.385 8.45677 246.544 8.61571C246.703 8.77466 246.703 9.03773 246.544 9.19668C246.188 9.55293 245.722 9.72831 245.256 9.72831C244.791 9.72831 244.325 9.55293 243.968 9.19668C243.81 9.03225 243.81 8.77466 243.968 8.61571ZM246.999 14.6774C245.525 14.6774 244.325 13.4772 244.325 12.0028C244.325 11.6192 244.637 11.3013 245.021 11.3013H248.967C249.351 11.3013 249.663 11.6137 249.663 12.0028C249.674 13.4772 248.474 14.6774 246.999 14.6774ZM250.03 9.19668C249.674 9.55293 249.208 9.72831 248.742 9.72831C248.276 9.72831 247.81 9.55293 247.454 9.19668C247.295 9.03773 247.295 8.77466 247.454 8.61571C247.613 8.45677 247.876 8.45677 248.035 8.61571C248.424 9.00485 249.06 9.00485 249.449 8.61571C249.608 8.45677 249.871 8.45677 250.03 8.61571C250.189 8.77466 250.189 9.03225 250.03 9.19668Z" fill="#E8604C"/>
</svg>
