<svg width="476" height="227" viewBox="0 0 476 227" fill="none" xmlns="http://www.w3.org/2000/svg">
<g filter="url(#filter0_d_124_1718)">
<rect x="4.47363" y="4" width="467" height="219" rx="19" fill="white" fill-opacity="0.06" shape-rendering="crispEdges"/>
</g>
<path d="M41.11 46.2256C40.0948 46.2256 39.1924 46.0125 38.4028 45.5864C37.6258 45.1603 37.0179 44.5775 36.5792 43.838C36.1531 43.086 35.94 42.2337 35.94 41.2812V31.994H37.8012V41.2436C37.8012 41.8828 37.9391 42.4531 38.2148 42.9544C38.5031 43.4432 38.8916 43.8255 39.3804 44.1012C39.8818 44.3769 40.4583 44.5148 41.11 44.5148C41.7618 44.5148 42.332 44.3769 42.8208 44.1012C43.3222 43.8255 43.7107 43.4432 43.9864 42.9544C44.2747 42.4531 44.4188 41.8828 44.4188 41.2436V31.994H46.28V41.2812C46.28 42.2337 46.0607 43.086 45.622 43.838C45.1959 44.5775 44.5943 45.1603 43.8172 45.5864C43.0402 46.0125 42.1378 46.2256 41.11 46.2256ZM49.2891 49.76V35.8668H50.9999V38.0476L50.7743 37.6152C51.1503 37.0136 51.6641 36.5373 52.3159 36.1864C52.9676 35.8229 53.7133 35.6412 54.5531 35.6412C55.5056 35.6412 56.3579 35.8731 57.1099 36.3368C57.8744 36.8005 58.476 37.4335 58.9147 38.2356C59.3533 39.0252 59.5727 39.9276 59.5727 40.9428C59.5727 41.9329 59.3533 42.8291 58.9147 43.6312C58.476 44.4333 57.8744 45.0663 57.1099 45.53C56.3579 45.9937 55.4993 46.2256 54.5343 46.2256C53.7196 46.2256 52.9739 46.0439 52.2971 45.6804C51.6328 45.3169 51.1189 44.8031 50.7555 44.1388L51.0375 43.838V49.76H49.2891ZM54.4027 44.5336C55.0419 44.5336 55.6121 44.3769 56.1135 44.0636C56.6148 43.7503 57.0033 43.3241 57.2791 42.7852C57.5673 42.2337 57.7115 41.6196 57.7115 40.9428C57.7115 40.2409 57.5673 39.6268 57.2791 39.1004C57.0033 38.5615 56.6148 38.1353 56.1135 37.822C55.6121 37.4961 55.0419 37.3332 54.4027 37.3332C53.7635 37.3332 53.1869 37.4899 52.6731 37.8032C52.1717 38.1165 51.7707 38.5489 51.4699 39.1004C51.1816 39.6393 51.0375 40.2535 51.0375 40.9428C51.0375 41.6196 51.1816 42.2337 51.4699 42.7852C51.7707 43.3241 52.1717 43.7503 52.6731 44.0636C53.1869 44.3769 53.7635 44.5336 54.4027 44.5336ZM62.0532 46V31.7684H63.8016V46H62.0532ZM71.5154 46.2256C70.5378 46.2256 69.6542 46 68.8646 45.5488C68.075 45.0851 67.4483 44.4521 66.9846 43.65C66.5208 42.8479 66.289 41.9392 66.289 40.924C66.289 39.9088 66.5146 39.0064 66.9658 38.2168C67.4295 37.4272 68.0562 36.8005 68.8458 36.3368C69.6354 35.8731 70.5252 35.6412 71.5154 35.6412C72.493 35.6412 73.3766 35.8731 74.1662 36.3368C74.9558 36.788 75.5762 37.4084 76.0274 38.198C76.4911 38.9876 76.723 39.8963 76.723 40.924C76.723 41.9517 76.4848 42.8667 76.0086 43.6688C75.5323 44.4584 74.8994 45.0851 74.1098 45.5488C73.3327 46 72.4679 46.2256 71.5154 46.2256ZM71.5154 44.5336C72.142 44.5336 72.706 44.3769 73.2074 44.0636C73.7212 43.7503 74.1223 43.3179 74.4106 42.7664C74.7114 42.2149 74.8618 41.6008 74.8618 40.924C74.8618 40.2347 74.7114 39.6268 74.4106 39.1004C74.1223 38.5615 73.7212 38.1353 73.2074 37.822C72.706 37.4961 72.142 37.3332 71.5154 37.3332C70.8762 37.3332 70.2996 37.4961 69.7858 37.822C69.2844 38.1353 68.8834 38.5615 68.5826 39.1004C68.2818 39.6268 68.1314 40.2347 68.1314 40.924C68.1314 41.6008 68.2818 42.2149 68.5826 42.7664C68.8834 43.3179 69.2844 43.7503 69.7858 44.0636C70.2996 44.3769 70.8762 44.5336 71.5154 44.5336ZM82.1617 46.2256C81.4975 46.2256 80.9084 46.1065 80.3945 45.8684C79.8932 45.6177 79.4984 45.2793 79.2101 44.8532C78.9219 44.4145 78.7777 43.9132 78.7777 43.3492C78.7777 42.8103 78.8905 42.3277 79.1161 41.9016C79.3543 41.4629 79.7177 41.0932 80.2065 40.7924C80.7079 40.4916 81.3345 40.2785 82.0865 40.1532L85.8465 39.5328V40.9992L82.4813 41.5632C81.8296 41.676 81.3533 41.8828 81.0525 42.1836C80.7643 42.4844 80.6201 42.8541 80.6201 43.2928C80.6201 43.7064 80.7831 44.0511 81.1089 44.3268C81.4473 44.6025 81.8672 44.7404 82.3685 44.7404C83.0077 44.7404 83.5592 44.6088 84.0229 44.3456C84.4992 44.0699 84.8689 43.7001 85.1321 43.2364C85.4079 42.7727 85.5457 42.2588 85.5457 41.6948V39.1192C85.5457 38.5677 85.3389 38.1228 84.9253 37.7844C84.5243 37.4335 83.9916 37.258 83.3273 37.258C82.7508 37.258 82.2369 37.4084 81.7857 37.7092C81.3471 37.9975 81.0212 38.386 80.8081 38.8748L79.2853 38.0852C79.4733 37.6215 79.7741 37.2079 80.1877 36.8444C80.6013 36.4684 81.0839 36.1739 81.6353 35.9608C82.1868 35.7477 82.7633 35.6412 83.3649 35.6412C84.142 35.6412 84.8251 35.7916 85.4141 36.0924C86.0032 36.3807 86.4607 36.788 86.7865 37.3144C87.1249 37.8283 87.2941 38.4299 87.2941 39.1192V46H85.5833V44.0824L85.9029 44.1952C85.6899 44.5963 85.4016 44.9472 85.0381 45.248C84.6747 45.5488 84.2485 45.7869 83.7597 45.9624C83.2709 46.1379 82.7383 46.2256 82.1617 46.2256ZM94.799 46.2256C93.8465 46.2256 92.9879 45.9937 92.2234 45.53C91.4714 45.0663 90.8761 44.4333 90.4374 43.6312C89.9987 42.8291 89.7794 41.9329 89.7794 40.9428C89.7794 39.9276 89.9987 39.0252 90.4374 38.2356C90.8761 37.4335 91.4714 36.8005 92.2234 36.3368C92.9879 35.8731 93.8465 35.6412 94.799 35.6412C95.6387 35.6412 96.3845 35.8229 97.0362 36.1864C97.6879 36.5373 98.2018 37.0136 98.5778 37.6152L98.2958 38.0476V31.7684H100.063V46H98.3522V43.838L98.5778 44.1388C98.2269 44.8031 97.713 45.3169 97.0362 45.6804C96.3719 46.0439 95.6262 46.2256 94.799 46.2256ZM94.9494 44.5336C95.5886 44.5336 96.1589 44.3769 96.6602 44.0636C97.1615 43.7503 97.5563 43.3241 97.8446 42.7852C98.1454 42.2337 98.2958 41.6196 98.2958 40.9428C98.2958 40.2535 98.1454 39.6393 97.8446 39.1004C97.5563 38.5489 97.1615 38.1165 96.6602 37.8032C96.1589 37.4899 95.5886 37.3332 94.9494 37.3332C94.3227 37.3332 93.7525 37.4961 93.2386 37.822C92.7373 38.1353 92.3425 38.5615 92.0542 39.1004C91.7659 39.6268 91.6218 40.2409 91.6218 40.9428C91.6218 41.6196 91.7659 42.2337 92.0542 42.7852C92.3425 43.3241 92.7373 43.7503 93.2386 44.0636C93.7399 44.3769 94.3102 44.5336 94.9494 44.5336ZM106.602 46V31.994H108.444V46H106.602ZM111.54 46V35.8668H113.251V37.9348L113.006 37.6152C113.257 36.976 113.658 36.4872 114.209 36.1488C114.761 35.8104 115.381 35.6412 116.071 35.6412C116.86 35.6412 117.568 35.8605 118.195 36.2992C118.834 36.7379 119.273 37.3144 119.511 38.0288L119.022 38.0476C119.285 37.258 119.73 36.6627 120.357 36.2616C120.984 35.848 121.679 35.6412 122.444 35.6412C123.146 35.6412 123.779 35.8041 124.343 36.13C124.919 36.4559 125.377 36.9071 125.715 37.4836C126.053 38.0601 126.223 38.7119 126.223 39.4388V46H124.455V40.0028C124.455 39.4388 124.355 38.9625 124.155 38.574C123.954 38.1855 123.678 37.8847 123.327 37.6716C122.989 37.446 122.588 37.3332 122.124 37.3332C121.673 37.3332 121.266 37.446 120.902 37.6716C120.551 37.8847 120.269 38.1917 120.056 38.5928C119.856 38.9813 119.755 39.4513 119.755 40.0028V46H117.988V40.0028C117.988 39.4388 117.888 38.9625 117.687 38.574C117.487 38.1855 117.211 37.8847 116.86 37.6716C116.522 37.446 116.121 37.3332 115.657 37.3332C115.206 37.3332 114.798 37.446 114.435 37.6716C114.084 37.8847 113.802 38.1917 113.589 38.5928C113.388 38.9813 113.288 39.4513 113.288 40.0028V46H111.54ZM131.864 46.2256C131.2 46.2256 130.611 46.1065 130.097 45.8684C129.596 45.6177 129.201 45.2793 128.913 44.8532C128.624 44.4145 128.48 43.9132 128.48 43.3492C128.48 42.8103 128.593 42.3277 128.819 41.9016C129.057 41.4629 129.42 41.0932 129.909 40.7924C130.41 40.4916 131.037 40.2785 131.789 40.1532L135.549 39.5328V40.9992L132.184 41.5632C131.532 41.676 131.056 41.8828 130.755 42.1836C130.467 42.4844 130.323 42.8541 130.323 43.2928C130.323 43.7064 130.486 44.0511 130.811 44.3268C131.15 44.6025 131.57 44.7404 132.071 44.7404C132.71 44.7404 133.262 44.6088 133.725 44.3456C134.202 44.0699 134.571 43.7001 134.835 43.2364C135.11 42.7727 135.248 42.2588 135.248 41.6948V39.1192C135.248 38.5677 135.041 38.1228 134.628 37.7844C134.227 37.4335 133.694 37.258 133.03 37.258C132.453 37.258 131.939 37.4084 131.488 37.7092C131.05 37.9975 130.724 38.386 130.511 38.8748L128.988 38.0852C129.176 37.6215 129.477 37.2079 129.89 36.8444C130.304 36.4684 130.786 36.1739 131.338 35.9608C131.889 35.7477 132.466 35.6412 133.067 35.6412C133.845 35.6412 134.528 35.7916 135.117 36.0924C135.706 36.3807 136.163 36.788 136.489 37.3144C136.827 37.8283 136.997 38.4299 136.997 39.1192V46H135.286V44.0824L135.605 44.1952C135.392 44.5963 135.104 44.9472 134.741 45.248C134.377 45.5488 133.951 45.7869 133.462 45.9624C132.973 46.1379 132.441 46.2256 131.864 46.2256ZM144.727 50.136C144.013 50.136 143.348 50.0232 142.734 49.7976C142.133 49.572 141.613 49.2587 141.174 48.8576C140.748 48.4691 140.422 48.0116 140.196 47.4852L141.832 46.7332C142.007 47.2095 142.34 47.6105 142.828 47.9364C143.33 48.2748 143.956 48.444 144.708 48.444C145.285 48.444 145.805 48.3312 146.269 48.1056C146.745 47.8925 147.121 47.5667 147.397 47.128C147.672 46.7019 147.81 46.1817 147.81 45.5676V43.2928L148.13 43.6312C147.779 44.3205 147.271 44.8469 146.607 45.2104C145.955 45.5739 145.235 45.7556 144.445 45.7556C143.493 45.7556 142.64 45.5363 141.888 45.0976C141.136 44.6464 140.547 44.0385 140.121 43.274C139.695 42.4969 139.482 41.6384 139.482 40.6984C139.482 39.7459 139.695 38.8873 140.121 38.1228C140.547 37.3583 141.13 36.7567 141.87 36.318C142.622 35.8668 143.474 35.6412 144.426 35.6412C145.216 35.6412 145.93 35.8229 146.57 36.1864C147.221 36.5373 147.741 37.0261 148.13 37.6528L147.867 38.1228V35.8668H149.578V45.5676C149.578 46.4449 149.371 47.2283 148.957 47.9176C148.544 48.6069 147.967 49.1459 147.228 49.5344C146.501 49.9355 145.667 50.136 144.727 50.136ZM144.596 44.0636C145.197 44.0636 145.736 43.9132 146.212 43.6124C146.701 43.3116 147.09 42.9105 147.378 42.4092C147.666 41.8953 147.81 41.3251 147.81 40.6984C147.81 40.0843 147.666 39.5203 147.378 39.0064C147.09 38.4925 146.701 38.0852 146.212 37.7844C145.736 37.4836 145.197 37.3332 144.596 37.3332C143.981 37.3332 143.424 37.4836 142.922 37.7844C142.421 38.0852 142.026 38.4925 141.738 39.0064C141.462 39.5077 141.324 40.0717 141.324 40.6984C141.324 41.3251 141.462 41.8953 141.738 42.4092C142.026 42.9105 142.415 43.3116 142.904 43.6124C143.405 43.9132 143.969 44.0636 144.596 44.0636ZM157.138 46.2256C156.161 46.2256 155.29 45.9937 154.525 45.53C153.761 45.0663 153.159 44.4333 152.72 43.6312C152.282 42.8165 152.062 41.9079 152.062 40.9052C152.062 39.89 152.276 38.9876 152.702 38.198C153.14 37.4084 153.729 36.788 154.469 36.3368C155.221 35.8731 156.061 35.6412 156.988 35.6412C157.74 35.6412 158.404 35.7791 158.981 36.0548C159.57 36.318 160.065 36.6815 160.466 37.1452C160.88 37.5964 161.193 38.1165 161.406 38.7056C161.632 39.2821 161.744 39.8837 161.744 40.5104C161.744 40.6483 161.732 40.8049 161.707 40.9804C161.694 41.1433 161.676 41.3 161.65 41.4504H153.341V39.9464H160.635L159.808 40.6232C159.921 39.9715 159.858 39.3887 159.62 38.8748C159.382 38.3609 159.031 37.9536 158.567 37.6528C158.104 37.352 157.577 37.2016 156.988 37.2016C156.399 37.2016 155.86 37.352 155.371 37.6528C154.882 37.9536 154.5 38.386 154.224 38.95C153.961 39.5015 153.855 40.1595 153.905 40.924C153.855 41.6635 153.968 42.3152 154.243 42.8792C154.532 43.4307 154.933 43.8631 155.446 44.1764C155.973 44.4772 156.543 44.6276 157.157 44.6276C157.834 44.6276 158.404 44.4709 158.868 44.1576C159.332 43.8443 159.708 43.4432 159.996 42.9544L161.462 43.7064C161.262 44.1701 160.949 44.5963 160.522 44.9848C160.109 45.3608 159.614 45.6616 159.037 45.8872C158.473 46.1128 157.84 46.2256 157.138 46.2256ZM167.857 46V31.994H172.801C173.728 31.994 174.543 32.1695 175.245 32.5204C175.947 32.8713 176.492 33.3727 176.881 34.0244C177.282 34.6761 177.482 35.4407 177.482 36.318C177.482 37.1953 177.282 37.9599 176.881 38.6116C176.492 39.2508 175.947 39.7521 175.245 40.1156C174.556 40.4665 173.741 40.642 172.801 40.642H169.699V46H167.857ZM169.699 38.95H172.857C173.421 38.95 173.91 38.8435 174.324 38.6304C174.737 38.4173 175.057 38.1103 175.283 37.7092C175.508 37.3081 175.621 36.8444 175.621 36.318C175.621 35.7791 175.508 35.3153 175.283 34.9268C175.057 34.5257 174.737 34.2187 174.324 34.0056C173.91 33.7925 173.421 33.686 172.857 33.686H169.699V38.95ZM179.955 46V35.8668H181.666V37.728L181.478 37.4648C181.716 36.8883 182.079 36.4621 182.568 36.1864C183.057 35.8981 183.652 35.754 184.354 35.754H184.975V37.4084H184.091C183.377 37.4084 182.8 37.634 182.361 38.0852C181.923 38.5239 181.703 39.1505 181.703 39.9652V46H179.955ZM191.528 46.2256C190.551 46.2256 189.667 46 188.878 45.5488C188.088 45.0851 187.461 44.4521 186.998 43.65C186.534 42.8479 186.302 41.9392 186.302 40.924C186.302 39.9088 186.528 39.0064 186.979 38.2168C187.443 37.4272 188.069 36.8005 188.859 36.3368C189.648 35.8731 190.538 35.6412 191.528 35.6412C192.506 35.6412 193.39 35.8731 194.179 36.3368C194.969 36.788 195.589 37.4084 196.04 38.198C196.504 38.9876 196.736 39.8963 196.736 40.924C196.736 41.9517 196.498 42.8667 196.022 43.6688C195.545 44.4584 194.912 45.0851 194.123 45.5488C193.346 46 192.481 46.2256 191.528 46.2256ZM191.528 44.5336C192.155 44.5336 192.719 44.3769 193.22 44.0636C193.734 43.7503 194.135 43.3179 194.424 42.7664C194.724 42.2149 194.875 41.6008 194.875 40.924C194.875 40.2347 194.724 39.6268 194.424 39.1004C194.135 38.5615 193.734 38.1353 193.22 37.822C192.719 37.4961 192.155 37.3332 191.528 37.3332C190.889 37.3332 190.313 37.4961 189.799 37.822C189.297 38.1353 188.896 38.5615 188.596 39.1004C188.295 39.6268 188.144 40.2347 188.144 40.924C188.144 41.6008 188.295 42.2149 188.596 42.7664C188.896 43.3179 189.297 43.7503 189.799 44.0636C190.313 44.3769 190.889 44.5336 191.528 44.5336ZM203.81 46.2256C202.858 46.2256 201.999 45.9937 201.235 45.53C200.483 45.0663 199.887 44.4333 199.449 43.6312C199.01 42.8291 198.791 41.9329 198.791 40.9428C198.791 39.9276 199.01 39.0252 199.449 38.2356C199.887 37.4335 200.483 36.8005 201.235 36.3368C201.999 35.8731 202.858 35.6412 203.81 35.6412C204.65 35.6412 205.396 35.8229 206.048 36.1864C206.699 36.5373 207.213 37.0136 207.589 37.6152L207.307 38.0476V31.7684H209.074V46H207.364V43.838L207.589 44.1388C207.238 44.8031 206.724 45.3169 206.048 45.6804C205.383 46.0439 204.638 46.2256 203.81 46.2256ZM203.961 44.5336C204.6 44.5336 205.17 44.3769 205.672 44.0636C206.173 43.7503 206.568 43.3241 206.856 42.7852C207.157 42.2337 207.307 41.6196 207.307 40.9428C207.307 40.2535 207.157 39.6393 206.856 39.1004C206.568 38.5489 206.173 38.1165 205.672 37.8032C205.17 37.4899 204.6 37.3332 203.961 37.3332C203.334 37.3332 202.764 37.4961 202.25 37.822C201.749 38.1353 201.354 38.5615 201.066 39.1004C200.777 39.6268 200.633 40.2409 200.633 40.9428C200.633 41.6196 200.777 42.2337 201.066 42.7852C201.354 43.3241 201.749 43.7503 202.25 44.0636C202.751 44.3769 203.322 44.5336 203.961 44.5336ZM215.559 46.2256C214.832 46.2256 214.174 46.0564 213.585 45.718C213.009 45.3796 212.558 44.9096 212.232 44.308C211.918 43.6939 211.762 42.992 211.762 42.2024V35.8668H213.51V42.0144C213.51 42.5157 213.61 42.9544 213.811 43.3304C214.024 43.7064 214.312 44.0009 214.676 44.214C215.052 44.4271 215.478 44.5336 215.954 44.5336C216.43 44.5336 216.85 44.4271 217.214 44.214C217.59 44.0009 217.878 43.6939 218.079 43.2928C218.292 42.8917 218.398 42.4155 218.398 41.864V35.8668H220.165V46H218.455V44.026L218.737 44.1952C218.498 44.8344 218.091 45.3357 217.515 45.6992C216.951 46.0501 216.299 46.2256 215.559 46.2256ZM227.762 46.2256C226.772 46.2256 225.888 45.9937 225.111 45.53C224.347 45.0663 223.745 44.4333 223.306 43.6312C222.868 42.8291 222.648 41.9267 222.648 40.924C222.648 39.9088 222.868 39.0064 223.306 38.2168C223.745 37.4272 224.347 36.8005 225.111 36.3368C225.888 35.8731 226.772 35.6412 227.762 35.6412C228.426 35.6412 229.047 35.7603 229.623 35.9984C230.2 36.2365 230.707 36.5561 231.146 36.9572C231.585 37.3583 231.904 37.8283 232.105 38.3672L230.544 39.1192C230.306 38.5928 229.943 38.1667 229.454 37.8408C228.965 37.5024 228.401 37.3332 227.762 37.3332C227.148 37.3332 226.59 37.4899 226.089 37.8032C225.6 38.1165 225.211 38.5427 224.923 39.0816C224.635 39.6205 224.491 40.2409 224.491 40.9428C224.491 41.6196 224.635 42.2337 224.923 42.7852C225.211 43.3241 225.6 43.7503 226.089 44.0636C226.59 44.3769 227.148 44.5336 227.762 44.5336C228.401 44.5336 228.965 44.3707 229.454 44.0448C229.943 43.7064 230.306 43.2615 230.544 42.71L232.105 43.4996C231.904 44.026 231.585 44.496 231.146 44.9096C230.707 45.3107 230.2 45.6303 229.623 45.8684C229.047 46.1065 228.426 46.2256 227.762 46.2256ZM238.695 46.1128C237.705 46.1128 236.94 45.8308 236.401 45.2668C235.875 44.7028 235.612 43.9069 235.612 42.8792V37.54H233.769V35.8668H234.145C234.597 35.8668 234.954 35.7289 235.217 35.4532C235.48 35.1775 235.612 34.814 235.612 34.3628V33.5356H237.36V35.8668H239.635V37.54H237.36V42.8228C237.36 43.1612 237.41 43.4557 237.511 43.7064C237.623 43.9571 237.805 44.1576 238.056 44.308C238.306 44.4459 238.639 44.5148 239.052 44.5148C239.14 44.5148 239.246 44.5085 239.372 44.496C239.51 44.4835 239.635 44.4709 239.748 44.4584V46C239.585 46.0376 239.403 46.0627 239.203 46.0752C239.002 46.1003 238.833 46.1128 238.695 46.1128Z" fill="#313041"/>
<rect x="35.9473" y="75" width="405" height="121" rx="9" fill="#F0BDB5" fill-opacity="0.12" stroke="#E8604C" stroke-width="2" stroke-dasharray="4 4"/>
<path d="M201.134 163.154C200.4 163.154 199.747 163 199.175 162.693C198.612 162.386 198.168 161.963 197.844 161.426C197.52 160.888 197.358 160.278 197.358 159.595V153.464H199.099V159.506C199.099 159.898 199.184 160.252 199.355 160.568C199.534 160.884 199.777 161.131 200.084 161.31C200.391 161.481 200.741 161.566 201.134 161.566C201.535 161.566 201.885 161.481 202.183 161.31C202.491 161.131 202.729 160.884 202.9 160.568C203.079 160.252 203.169 159.898 203.169 159.506V153.464H204.91V159.595C204.91 160.278 204.748 160.888 204.423 161.426C204.099 161.963 203.651 162.386 203.079 162.693C202.516 163 201.868 163.154 201.134 163.154ZM206.776 163V153.464H210.334C210.983 153.464 211.554 153.583 212.049 153.822C212.553 154.053 212.945 154.394 213.227 154.846C213.508 155.29 213.649 155.832 213.649 156.472C213.649 157.103 213.504 157.645 213.214 158.098C212.932 158.541 212.544 158.883 212.049 159.122C211.554 159.361 210.983 159.48 210.334 159.48H208.516V163H206.776ZM208.516 157.944H210.36C210.675 157.944 210.948 157.884 211.179 157.765C211.409 157.637 211.588 157.462 211.716 157.24C211.844 157.018 211.908 156.762 211.908 156.472C211.908 156.173 211.844 155.917 211.716 155.704C211.588 155.482 211.409 155.311 211.179 155.192C210.948 155.064 210.675 155 210.36 155H208.516V157.944ZM215.204 163V153.464H216.944V161.464H221.028V163H215.204ZM226.729 163.154C226.029 163.154 225.377 163.03 224.771 162.782C224.165 162.535 223.636 162.189 223.184 161.746C222.731 161.302 222.377 160.781 222.121 160.184C221.874 159.578 221.75 158.925 221.75 158.226C221.75 157.517 221.874 156.865 222.121 156.267C222.369 155.67 222.719 155.149 223.171 154.706C223.623 154.262 224.152 153.921 224.758 153.682C225.364 153.434 226.021 153.31 226.729 153.31C227.437 153.31 228.095 153.434 228.7 153.682C229.306 153.929 229.835 154.275 230.288 154.718C230.74 155.154 231.09 155.67 231.337 156.267C231.593 156.865 231.721 157.517 231.721 158.226C231.721 158.925 231.593 159.578 231.337 160.184C231.081 160.781 230.727 161.302 230.275 161.746C229.823 162.189 229.293 162.535 228.688 162.782C228.09 163.03 227.437 163.154 226.729 163.154ZM226.729 161.566C227.199 161.566 227.629 161.485 228.022 161.323C228.415 161.153 228.756 160.918 229.046 160.619C229.345 160.321 229.571 159.966 229.724 159.557C229.887 159.147 229.968 158.703 229.968 158.226C229.968 157.748 229.887 157.308 229.724 156.907C229.571 156.498 229.345 156.143 229.046 155.845C228.756 155.538 228.415 155.303 228.022 155.141C227.629 154.979 227.199 154.898 226.729 154.898C226.268 154.898 225.842 154.979 225.449 155.141C225.057 155.303 224.711 155.538 224.412 155.845C224.122 156.143 223.896 156.498 223.734 156.907C223.572 157.308 223.491 157.748 223.491 158.226C223.491 158.703 223.572 159.147 223.734 159.557C223.896 159.966 224.122 160.321 224.412 160.619C224.711 160.918 225.057 161.153 225.449 161.323C225.842 161.485 226.268 161.566 226.729 161.566ZM232.229 163L235.518 153.464H237.771L241.061 163H239.166L238.488 160.952H234.802L234.11 163H232.229ZM235.301 159.416H237.989L236.402 154.667H236.888L235.301 159.416ZM242.25 163V153.464H245.361C246.367 153.464 247.242 153.669 247.985 154.078C248.735 154.479 249.316 155.038 249.725 155.755C250.135 156.463 250.34 157.287 250.34 158.226C250.34 159.156 250.135 159.983 249.725 160.709C249.316 161.426 248.735 161.989 247.985 162.398C247.242 162.799 246.367 163 245.361 163H242.25ZM243.991 161.464H245.399C246.047 161.464 246.606 161.332 247.076 161.067C247.554 160.794 247.925 160.419 248.189 159.941C248.454 159.454 248.586 158.883 248.586 158.226C248.586 157.56 248.454 156.988 248.189 156.51C247.925 156.033 247.554 155.661 247.076 155.397C246.606 155.132 246.047 155 245.399 155H243.991V161.464ZM254.256 163V153.464H260.618V155H255.997V157.637H260.042V159.173H255.997V163H254.256ZM261.884 163V153.464H263.625V163H261.884ZM265.587 163V153.464H267.328V161.464H271.411V163H265.587ZM272.665 163V153.464H279.001V155H274.406V157.445H278.745V158.981H274.406V161.464H279.001V163H272.665Z" fill="#E8604C"/>
<path d="M249.428 114.162H245.695C242.634 114.162 240.141 111.669 240.141 108.608V104.875C240.141 104.164 239.56 103.583 238.849 103.583H233.373C229.394 103.583 226.178 106.166 226.178 110.778V122.222C226.178 126.833 229.394 129.416 233.373 129.416H243.525C247.504 129.416 250.72 126.833 250.72 122.222V115.453C250.72 114.743 250.139 114.162 249.428 114.162ZM237.842 118.476C237.648 118.67 237.403 118.76 237.157 118.76C236.912 118.76 236.667 118.67 236.473 118.476L235.543 117.546V122.958C235.543 123.488 235.104 123.927 234.574 123.927C234.044 123.927 233.605 123.488 233.605 122.958V117.546L232.675 118.476C232.301 118.851 231.681 118.851 231.306 118.476C230.932 118.101 230.932 117.481 231.306 117.107L233.889 114.523C233.98 114.446 234.07 114.381 234.174 114.33C234.199 114.317 234.238 114.304 234.264 114.291C234.342 114.265 234.419 114.252 234.509 114.239C234.548 114.239 234.574 114.239 234.613 114.239C234.716 114.239 234.819 114.265 234.923 114.304C234.936 114.304 234.936 114.304 234.949 114.304C235.052 114.343 235.155 114.42 235.233 114.498C235.246 114.511 235.259 114.511 235.259 114.523L237.842 117.107C238.217 117.481 238.217 118.101 237.842 118.476Z" fill="#E8604C"/>
<path d="M245.459 112.38C246.686 112.393 248.391 112.393 249.85 112.393C250.587 112.393 250.974 111.527 250.458 111.011C248.598 109.138 245.265 105.766 243.353 103.855C242.824 103.325 241.907 103.687 241.907 104.423V108.931C241.907 110.817 243.508 112.38 245.459 112.38Z" fill="#E8604C"/>
<defs>
<filter id="filter0_d_124_1718" x="0.473633" y="0" width="475" height="227" filterUnits="userSpaceOnUse" color-interpolation-filters="sRGB">
<feFlood flood-opacity="0" result="BackgroundImageFix"/>
<feColorMatrix in="SourceAlpha" type="matrix" values="0 0 0 0 0 0 0 0 0 0 0 0 0 0 0 0 0 0 127 0" result="hardAlpha"/>
<feOffset/>
<feGaussianBlur stdDeviation="2"/>
<feComposite in2="hardAlpha" operator="out"/>
<feColorMatrix type="matrix" values="0 0 0 0 0.909804 0 0 0 0 0.376471 0 0 0 0 0.298039 0 0 0 0.34 0"/>
<feBlend mode="normal" in2="BackgroundImageFix" result="effect1_dropShadow_124_1718"/>
<feBlend mode="normal" in="SourceGraphic" in2="effect1_dropShadow_124_1718" result="shape"/>
</filter>
</defs>
</svg>
