<svg width="156" height="52" viewBox="0 0 156 52" fill="none" xmlns="http://www.w3.org/2000/svg">
<rect width="156" height="52" rx="26" fill="#E8604C"/>
<path d="M53.6565 30.224H57.3365V32H51.4165V20.832H53.6565V30.224ZM62.6963 32.144C61.8429 32.144 61.0749 31.9573 60.3923 31.584C59.7096 31.2 59.1709 30.6613 58.7763 29.968C58.3923 29.2747 58.2003 28.4747 58.2003 27.568C58.2003 26.6613 58.3976 25.8613 58.7923 25.168C59.1976 24.4747 59.7469 23.9413 60.4403 23.568C61.1336 23.184 61.9069 22.992 62.7603 22.992C63.6136 22.992 64.3869 23.184 65.0803 23.568C65.7736 23.9413 66.3176 24.4747 66.7123 25.168C67.1176 25.8613 67.3203 26.6613 67.3203 27.568C67.3203 28.4747 67.1123 29.2747 66.6962 29.968C66.2909 30.6613 65.7363 31.2 65.0323 31.584C64.3389 31.9573 63.5603 32.144 62.6963 32.144ZM62.6963 30.192C63.1016 30.192 63.4803 30.096 63.8323 29.904C64.1949 29.7013 64.4829 29.4027 64.6963 29.008C64.9096 28.6133 65.0163 28.1333 65.0163 27.568C65.0163 26.7253 64.7923 26.08 64.3443 25.632C63.9069 25.1733 63.3683 24.944 62.7283 24.944C62.0883 24.944 61.5496 25.1733 61.1123 25.632C60.6856 26.08 60.4723 26.7253 60.4723 27.568C60.4723 28.4107 60.6803 29.0613 61.0963 29.52C61.5229 29.968 62.0563 30.192 62.6963 30.192ZM72.4354 22.992C73.0967 22.992 73.678 23.1253 74.1794 23.392C74.6807 23.648 75.0754 23.984 75.3634 24.4V23.136H77.6194V32.064C77.6194 32.8853 77.454 33.616 77.1234 34.256C76.7927 34.9067 76.2967 35.4187 75.6354 35.792C74.974 36.176 74.174 36.368 73.2354 36.368C71.9767 36.368 70.942 36.0747 70.1314 35.488C69.3314 34.9013 68.878 34.1013 68.7714 33.088H70.9954C71.1127 33.4933 71.3634 33.8133 71.7474 34.048C72.142 34.2933 72.6167 34.416 73.1714 34.416C73.822 34.416 74.35 34.2187 74.7554 33.824C75.1607 33.44 75.3634 32.8533 75.3634 32.064V30.688C75.0754 31.104 74.6754 31.4507 74.1634 31.728C73.662 32.0053 73.086 32.144 72.4354 32.144C71.6887 32.144 71.006 31.952 70.3874 31.568C69.7687 31.184 69.278 30.6453 68.9154 29.952C68.5634 29.248 68.3874 28.4427 68.3874 27.536C68.3874 26.64 68.5634 25.8453 68.9154 25.152C69.278 24.4587 69.7634 23.9253 70.3714 23.552C70.99 23.1787 71.678 22.992 72.4354 22.992ZM75.3634 27.568C75.3634 27.024 75.2567 26.56 75.0434 26.176C74.83 25.7813 74.542 25.4827 74.1794 25.28C73.8167 25.0667 73.4274 24.96 73.0114 24.96C72.5954 24.96 72.2114 25.0613 71.8594 25.264C71.5074 25.4667 71.2194 25.7653 70.9954 26.16C70.782 26.544 70.6754 27.0027 70.6754 27.536C70.6754 28.0693 70.782 28.5387 70.9954 28.944C71.2194 29.3387 71.5074 29.6427 71.8594 29.856C72.222 30.0693 72.606 30.176 73.0114 30.176C73.4274 30.176 73.8167 30.0747 74.1794 29.872C74.542 29.6587 74.83 29.36 75.0434 28.976C75.2567 28.5813 75.3634 28.112 75.3634 27.568ZM83.7431 32.144C82.8898 32.144 82.1218 31.9573 81.4391 31.584C80.7565 31.2 80.2178 30.6613 79.8231 29.968C79.4391 29.2747 79.2471 28.4747 79.2471 27.568C79.2471 26.6613 79.4445 25.8613 79.8391 25.168C80.2445 24.4747 80.7938 23.9413 81.4871 23.568C82.1805 23.184 82.9538 22.992 83.8071 22.992C84.6605 22.992 85.4338 23.184 86.1271 23.568C86.8205 23.9413 87.3645 24.4747 87.7591 25.168C88.1645 25.8613 88.3671 26.6613 88.3671 27.568C88.3671 28.4747 88.1591 29.2747 87.7431 29.968C87.3378 30.6613 86.7831 31.2 86.0791 31.584C85.3858 31.9573 84.6071 32.144 83.7431 32.144ZM83.7431 30.192C84.1485 30.192 84.5271 30.096 84.8791 29.904C85.2418 29.7013 85.5298 29.4027 85.7431 29.008C85.9565 28.6133 86.0631 28.1333 86.0631 27.568C86.0631 26.7253 85.8391 26.08 85.3911 25.632C84.9538 25.1733 84.4151 24.944 83.7751 24.944C83.1351 24.944 82.5965 25.1733 82.1591 25.632C81.7325 26.08 81.5191 26.7253 81.5191 27.568C81.5191 28.4107 81.7271 29.0613 82.1431 29.52C82.5698 29.968 83.1031 30.192 83.7431 30.192ZM98.3783 23.136V32H96.1223V30.88C95.8343 31.264 95.4556 31.568 94.9863 31.792C94.5276 32.0053 94.0263 32.112 93.4823 32.112C92.7889 32.112 92.1756 31.968 91.6423 31.68C91.1089 31.3813 90.6876 30.9493 90.3783 30.384C90.0796 29.808 89.9303 29.1253 89.9303 28.336V23.136H92.1703V28.016C92.1703 28.72 92.3463 29.264 92.6983 29.648C93.0503 30.0213 93.5303 30.208 94.1383 30.208C94.7569 30.208 95.2423 30.0213 95.5943 29.648C95.9463 29.264 96.1223 28.72 96.1223 28.016V23.136H98.3783ZM103.196 24.976V29.264C103.196 29.5627 103.266 29.7813 103.404 29.92C103.554 30.048 103.799 30.112 104.14 30.112H105.18V32H103.772C101.884 32 100.94 31.0827 100.94 29.248V24.976H99.8844V23.136H100.94V20.944H103.196V23.136H105.18V24.976H103.196Z" fill="white"/>
</svg>
