<svg width="611" height="383" viewBox="0 0 611 383" fill="none" xmlns="http://www.w3.org/2000/svg">
<rect x="0.5" y="0.5" width="610" height="382" rx="14.5" fill="white" stroke="#E9E9E9"/>
<path d="M41.1761 348.159C40.4602 348.159 39.8438 347.99 39.3267 347.652C38.8097 347.314 38.4119 346.848 38.1335 346.255C37.8551 345.662 37.7159 344.984 37.7159 344.222C37.7159 343.446 37.8584 342.762 38.1435 342.168C38.4318 341.572 38.8329 341.106 39.3466 340.771C39.8636 340.433 40.4669 340.264 41.1562 340.264C41.6932 340.264 42.1771 340.364 42.608 340.562C43.0388 340.761 43.3918 341.04 43.6669 341.398C43.942 341.756 44.1127 342.173 44.179 342.651H43.0057C42.9162 342.303 42.7173 341.994 42.4091 341.726C42.1042 341.454 41.6932 341.318 41.1761 341.318C40.7188 341.318 40.3177 341.437 39.973 341.676C39.6316 341.911 39.3648 342.245 39.1726 342.675C38.9837 343.103 38.8892 343.605 38.8892 344.182C38.8892 344.772 38.982 345.286 39.1676 345.723C39.3565 346.161 39.6217 346.5 39.9631 346.742C40.3078 346.984 40.7121 347.105 41.1761 347.105C41.4811 347.105 41.7578 347.052 42.0064 346.946C42.255 346.84 42.4654 346.688 42.6378 346.489C42.8101 346.29 42.9328 346.051 43.0057 345.773H44.179C44.1127 346.223 43.9486 346.629 43.6868 346.991C43.4283 347.349 43.0852 347.634 42.6577 347.846C42.2334 348.055 41.7396 348.159 41.1761 348.159ZM50.7067 344.878V340.364H51.88V348H50.7067V346.707H50.6271C50.4482 347.095 50.1697 347.425 49.7919 347.697C49.4141 347.965 48.9368 348.099 48.3601 348.099C47.8828 348.099 47.4586 347.995 47.0874 347.786C46.7161 347.574 46.4245 347.256 46.2124 346.832C46.0002 346.404 45.8942 345.866 45.8942 345.216V340.364H47.0675V345.136C47.0675 345.693 47.2232 346.137 47.5348 346.469C47.8497 346.8 48.2507 346.966 48.7379 346.966C49.0296 346.966 49.3262 346.891 49.6278 346.742C49.9328 346.593 50.188 346.364 50.3935 346.056C50.6023 345.748 50.7067 345.355 50.7067 344.878ZM54.0289 348V340.364H55.1625V341.517H55.242C55.3812 341.139 55.6331 340.833 55.9977 340.597C56.3623 340.362 56.7733 340.244 57.2306 340.244C57.3168 340.244 57.4245 340.246 57.5538 340.249C57.6831 340.253 57.7808 340.258 57.8471 340.264V341.457C57.8074 341.447 57.7162 341.433 57.5737 341.413C57.4345 341.389 57.287 341.378 57.1312 341.378C56.76 341.378 56.4286 341.456 56.1369 341.612C55.8485 341.764 55.6199 341.976 55.4508 342.248C55.2851 342.516 55.2022 342.823 55.2022 343.168V348H54.0289ZM59.2379 348V340.364H60.3714V341.517H60.451C60.5902 341.139 60.8421 340.833 61.2067 340.597C61.5713 340.362 61.9822 340.244 62.4396 340.244C62.5258 340.244 62.6335 340.246 62.7628 340.249C62.892 340.253 62.9898 340.258 63.0561 340.264V341.457C63.0163 341.447 62.9252 341.433 62.7827 341.413C62.6435 341.389 62.496 341.378 62.3402 341.378C61.969 341.378 61.6375 341.456 61.3459 341.612C61.0575 341.764 60.8288 341.976 60.6598 342.248C60.4941 342.516 60.4112 342.823 60.4112 343.168V348H59.2379ZM67.4162 348.159C66.6804 348.159 66.0457 347.997 65.5121 347.672C64.9818 347.344 64.5724 346.886 64.2841 346.3C63.9991 345.71 63.8565 345.024 63.8565 344.241C63.8565 343.459 63.9991 342.77 64.2841 342.173C64.5724 341.573 64.9735 341.106 65.4872 340.771C66.0043 340.433 66.6075 340.264 67.2969 340.264C67.6946 340.264 68.0874 340.33 68.4751 340.463C68.8629 340.596 69.2159 340.811 69.5341 341.109C69.8523 341.404 70.1058 341.795 70.2947 342.283C70.4837 342.77 70.5781 343.37 70.5781 344.082V344.58H64.6918V343.565H69.3849C69.3849 343.134 69.2988 342.75 69.1264 342.412C68.9574 342.074 68.7154 341.807 68.4006 341.612C68.089 341.416 67.7211 341.318 67.2969 341.318C66.8295 341.318 66.4252 341.434 66.0838 341.666C65.7457 341.895 65.4856 342.193 65.3033 342.561C65.121 342.929 65.0298 343.323 65.0298 343.744V344.42C65.0298 344.997 65.1293 345.486 65.3281 345.887C65.5303 346.285 65.8104 346.588 66.1683 346.797C66.5263 347.002 66.9422 347.105 67.4162 347.105C67.7244 347.105 68.0028 347.062 68.2514 346.976C68.5033 346.886 68.7204 346.754 68.9027 346.578C69.085 346.399 69.2259 346.177 69.3253 345.912L70.4588 346.23C70.3395 346.615 70.139 346.953 69.8572 347.244C69.5755 347.533 69.2275 347.758 68.8132 347.92C68.3989 348.08 67.9332 348.159 67.4162 348.159ZM73.5362 343.406V348H72.3629V340.364H73.4964V341.557H73.5959C73.7749 341.169 74.0466 340.857 74.4112 340.622C74.7758 340.384 75.2464 340.264 75.8232 340.264C76.3402 340.264 76.7926 340.37 77.1804 340.582C77.5682 340.791 77.8698 341.109 78.0852 341.537C78.3007 341.961 78.4084 342.498 78.4084 343.148V348H77.2351V343.227C77.2351 342.627 77.0793 342.16 76.7678 341.825C76.4562 341.487 76.0286 341.318 75.4851 341.318C75.1106 341.318 74.7758 341.399 74.4808 341.562C74.1892 341.724 73.9588 341.961 73.7898 342.273C73.6207 342.584 73.5362 342.962 73.5362 343.406ZM83.8734 340.364V341.358H79.916V340.364H83.8734ZM81.0694 338.534H82.2427V345.812C82.2427 346.144 82.2908 346.393 82.3869 346.558C82.4863 346.721 82.6123 346.83 82.7647 346.886C82.9205 346.939 83.0846 346.966 83.2569 346.966C83.3862 346.966 83.4922 346.959 83.5751 346.946C83.658 346.929 83.7243 346.916 83.774 346.906L84.0126 347.96C83.9331 347.99 83.822 348.02 83.6795 348.05C83.537 348.083 83.3564 348.099 83.1376 348.099C82.8062 348.099 82.4814 348.028 82.1632 347.886C81.8483 347.743 81.5865 347.526 81.3777 347.234C81.1722 346.943 81.0694 346.575 81.0694 346.131V338.534ZM91.823 348.179C91.3391 348.179 90.8999 348.088 90.5055 347.906C90.1111 347.72 89.7979 347.453 89.5659 347.105C89.3339 346.754 89.2179 346.33 89.2179 345.832C89.2179 345.395 89.304 345.04 89.4764 344.768C89.6487 344.493 89.8791 344.278 90.1674 344.122C90.4558 343.966 90.774 343.85 91.122 343.774C91.4733 343.695 91.8263 343.632 92.1809 343.585C92.6449 343.526 93.0211 343.481 93.3095 343.451C93.6011 343.418 93.8133 343.363 93.9458 343.287C94.0817 343.211 94.1497 343.078 94.1497 342.889V342.849C94.1497 342.359 94.0154 341.978 93.747 341.706C93.4818 341.434 93.0791 341.298 92.5389 341.298C91.9788 341.298 91.5396 341.421 91.2214 341.666C90.9032 341.911 90.6795 342.173 90.5502 342.452L89.4366 342.054C89.6355 341.59 89.9006 341.229 90.2321 340.97C90.5668 340.708 90.9314 340.526 91.3258 340.423C91.7235 340.317 92.1146 340.264 92.4991 340.264C92.7444 340.264 93.0261 340.294 93.3443 340.354C93.6658 340.41 93.9757 340.528 94.274 340.707C94.5756 340.886 94.8258 341.156 95.0247 341.517C95.2235 341.878 95.323 342.362 95.323 342.969V348H94.1497V346.966H94.09C94.0105 347.132 93.8779 347.309 93.6923 347.498C93.5067 347.687 93.2598 347.848 92.9515 347.98C92.6433 348.113 92.2671 348.179 91.823 348.179ZM92.002 347.125C92.466 347.125 92.8571 347.034 93.1752 346.852C93.4967 346.669 93.7387 346.434 93.9011 346.146C94.0668 345.857 94.1497 345.554 94.1497 345.236V344.162C94.1 344.222 93.9906 344.276 93.8216 344.326C93.6558 344.372 93.4636 344.414 93.2449 344.45C93.0294 344.483 92.819 344.513 92.6135 344.54C92.4113 344.563 92.2472 344.583 92.1213 344.599C91.8163 344.639 91.5313 344.704 91.2662 344.793C91.0043 344.879 90.7922 345.01 90.6298 345.186C90.4707 345.358 90.3912 345.594 90.3912 345.892C90.3912 346.3 90.542 346.608 90.8436 346.817C91.1485 347.022 91.5346 347.125 92.002 347.125ZM98.6378 343.406V348H97.4645V340.364H98.598V341.557H98.6974C98.8764 341.169 99.1482 340.857 99.5128 340.622C99.8774 340.384 100.348 340.264 100.925 340.264C101.442 340.264 101.894 340.37 102.282 340.582C102.67 340.791 102.971 341.109 103.187 341.537C103.402 341.961 103.51 342.498 103.51 343.148V348H102.337V343.227C102.337 342.627 102.181 342.16 101.869 341.825C101.558 341.487 101.13 341.318 100.587 341.318C100.212 341.318 99.8774 341.399 99.5824 341.562C99.2907 341.724 99.0604 341.961 98.8913 342.273C98.7223 342.584 98.6378 342.962 98.6378 343.406ZM107.901 348.179C107.417 348.179 106.978 348.088 106.584 347.906C106.189 347.72 105.876 347.453 105.644 347.105C105.412 346.754 105.296 346.33 105.296 345.832C105.296 345.395 105.382 345.04 105.555 344.768C105.727 344.493 105.957 344.278 106.246 344.122C106.534 343.966 106.852 343.85 107.2 343.774C107.551 343.695 107.904 343.632 108.259 343.585C108.723 343.526 109.099 343.481 109.388 343.451C109.679 343.418 109.891 343.363 110.024 343.287C110.16 343.211 110.228 343.078 110.228 342.889V342.849C110.228 342.359 110.094 341.978 109.825 341.706C109.56 341.434 109.157 341.298 108.617 341.298C108.057 341.298 107.618 341.421 107.3 341.666C106.981 341.911 106.758 342.173 106.628 342.452L105.515 342.054C105.714 341.59 105.979 341.229 106.31 340.97C106.645 340.708 107.01 340.526 107.404 340.423C107.802 340.317 108.193 340.264 108.577 340.264C108.823 340.264 109.104 340.294 109.422 340.354C109.744 340.41 110.054 340.528 110.352 340.707C110.654 340.886 110.904 341.156 111.103 341.517C111.302 341.878 111.401 342.362 111.401 342.969V348H110.228V346.966H110.168C110.089 347.132 109.956 347.309 109.77 347.498C109.585 347.687 109.338 347.848 109.03 347.98C108.721 348.113 108.345 348.179 107.901 348.179ZM108.08 347.125C108.544 347.125 108.935 347.034 109.253 346.852C109.575 346.669 109.817 346.434 109.979 346.146C110.145 345.857 110.228 345.554 110.228 345.236V344.162C110.178 344.222 110.069 344.276 109.9 344.326C109.734 344.372 109.542 344.414 109.323 344.45C109.108 344.483 108.897 344.513 108.692 344.54C108.489 344.563 108.325 344.583 108.199 344.599C107.894 344.639 107.609 344.704 107.344 344.793C107.082 344.879 106.87 345.01 106.708 345.186C106.549 345.358 106.469 345.594 106.469 345.892C106.469 346.3 106.62 346.608 106.922 346.817C107.227 347.022 107.613 347.125 108.08 347.125ZM114.716 337.818V348H113.543V337.818H114.716ZM117.621 350.864C117.422 350.864 117.244 350.847 117.089 350.814C116.933 350.784 116.825 350.754 116.765 350.724L117.064 349.69C117.349 349.763 117.601 349.79 117.819 349.77C118.038 349.75 118.232 349.652 118.401 349.477C118.573 349.304 118.731 349.024 118.873 348.636L119.092 348.04L116.268 340.364H117.541L119.649 346.449H119.729L121.836 340.364H123.109L119.868 349.114C119.722 349.508 119.541 349.835 119.326 350.093C119.11 350.355 118.86 350.549 118.575 350.675C118.293 350.801 117.975 350.864 117.621 350.864ZM130.067 342.074L129.013 342.372C128.947 342.196 128.849 342.026 128.72 341.86C128.594 341.691 128.421 341.552 128.203 341.442C127.984 341.333 127.704 341.278 127.362 341.278C126.895 341.278 126.506 341.386 126.194 341.602C125.886 341.814 125.732 342.084 125.732 342.412C125.732 342.704 125.838 342.934 126.05 343.103C126.262 343.272 126.593 343.413 127.044 343.526L128.178 343.804C128.86 343.97 129.369 344.223 129.704 344.565C130.039 344.903 130.206 345.339 130.206 345.872C130.206 346.31 130.08 346.701 129.828 347.045C129.58 347.39 129.232 347.662 128.784 347.861C128.337 348.06 127.816 348.159 127.223 348.159C126.444 348.159 125.8 347.99 125.289 347.652C124.779 347.314 124.456 346.82 124.32 346.17L125.433 345.892C125.539 346.303 125.74 346.611 126.035 346.817C126.333 347.022 126.723 347.125 127.203 347.125C127.75 347.125 128.184 347.009 128.506 346.777C128.831 346.542 128.993 346.26 128.993 345.932C128.993 345.667 128.9 345.445 128.715 345.266C128.529 345.083 128.244 344.947 127.86 344.858L126.587 344.56C125.887 344.394 125.374 344.137 125.046 343.789C124.721 343.438 124.558 342.999 124.558 342.472C124.558 342.041 124.679 341.66 124.921 341.328C125.167 340.997 125.5 340.737 125.921 340.548C126.345 340.359 126.825 340.264 127.362 340.264C128.118 340.264 128.711 340.43 129.142 340.761C129.576 341.093 129.885 341.53 130.067 342.074ZM131.972 348V340.364H133.146V348H131.972ZM132.569 339.091C132.34 339.091 132.143 339.013 131.977 338.857C131.815 338.701 131.734 338.514 131.734 338.295C131.734 338.077 131.815 337.889 131.977 337.734C132.143 337.578 132.34 337.5 132.569 337.5C132.798 337.5 132.993 337.578 133.156 337.734C133.321 337.889 133.404 338.077 133.404 338.295C133.404 338.514 133.321 338.701 133.156 338.857C132.993 339.013 132.798 339.091 132.569 339.091ZM140.704 342.074L139.65 342.372C139.583 342.196 139.486 342.026 139.356 341.86C139.23 341.691 139.058 341.552 138.839 341.442C138.621 341.333 138.34 341.278 137.999 341.278C137.532 341.278 137.142 341.386 136.831 341.602C136.523 341.814 136.368 342.084 136.368 342.412C136.368 342.704 136.474 342.934 136.687 343.103C136.899 343.272 137.23 343.413 137.681 343.526L138.814 343.804C139.497 343.97 140.006 344.223 140.341 344.565C140.675 344.903 140.843 345.339 140.843 345.872C140.843 346.31 140.717 346.701 140.465 347.045C140.216 347.39 139.868 347.662 139.421 347.861C138.974 348.06 138.453 348.159 137.86 348.159C137.081 348.159 136.436 347.99 135.926 347.652C135.416 347.314 135.092 346.82 134.956 346.17L136.07 345.892C136.176 346.303 136.377 346.611 136.672 346.817C136.97 347.022 137.359 347.125 137.84 347.125C138.387 347.125 138.821 347.009 139.143 346.777C139.467 346.542 139.63 346.26 139.63 345.932C139.63 345.667 139.537 345.445 139.351 345.266C139.166 345.083 138.881 344.947 138.496 344.858L137.224 344.56C136.524 344.394 136.01 344.137 135.682 343.789C135.358 343.438 135.195 342.999 135.195 342.472C135.195 342.041 135.316 341.66 135.558 341.328C135.803 340.997 136.136 340.737 136.557 340.548C136.982 340.359 137.462 340.264 137.999 340.264C138.755 340.264 139.348 340.43 139.779 340.761C140.213 341.093 140.521 341.53 140.704 342.074ZM149.649 348.159C148.959 348.159 148.355 347.995 147.834 347.667C147.317 347.339 146.913 346.88 146.621 346.29C146.333 345.7 146.189 345.01 146.189 344.222C146.189 343.426 146.333 342.732 146.621 342.138C146.913 341.545 147.317 341.085 147.834 340.756C148.355 340.428 148.959 340.264 149.649 340.264C150.338 340.264 150.941 340.428 151.458 340.756C151.979 341.085 152.383 341.545 152.672 342.138C152.963 342.732 153.109 343.426 153.109 344.222C153.109 345.01 152.963 345.7 152.672 346.29C152.383 346.88 151.979 347.339 151.458 347.667C150.941 347.995 150.338 348.159 149.649 348.159ZM149.649 347.105C150.172 347.105 150.603 346.971 150.941 346.702C151.279 346.434 151.53 346.081 151.692 345.643C151.855 345.206 151.936 344.732 151.936 344.222C151.936 343.711 151.855 343.236 151.692 342.795C151.53 342.354 151.279 341.998 150.941 341.726C150.603 341.454 150.172 341.318 149.649 341.318C149.125 341.318 148.694 341.454 148.356 341.726C148.018 341.998 147.768 342.354 147.605 342.795C147.443 343.236 147.362 343.711 147.362 344.222C147.362 344.732 147.443 345.206 147.605 345.643C147.768 346.081 148.018 346.434 148.356 346.702C148.694 346.971 149.125 347.105 149.649 347.105ZM158.301 340.364V341.358H154.184V340.364H158.301ZM155.417 348V339.31C155.417 338.872 155.52 338.508 155.725 338.216C155.931 337.924 156.198 337.705 156.526 337.56C156.854 337.414 157.2 337.341 157.565 337.341C157.853 337.341 158.088 337.364 158.271 337.411C158.453 337.457 158.589 337.5 158.678 337.54L158.34 338.554C158.281 338.534 158.198 338.509 158.092 338.479C157.989 338.45 157.853 338.435 157.684 338.435C157.296 338.435 157.016 338.532 156.844 338.728C156.675 338.924 156.59 339.21 156.59 339.588V348H155.417ZM164.638 350.864C164.439 350.864 164.262 350.847 164.106 350.814C163.95 350.784 163.843 350.754 163.783 350.724L164.081 349.69C164.366 349.763 164.618 349.79 164.837 349.77C165.056 349.75 165.25 349.652 165.419 349.477C165.591 349.304 165.748 349.024 165.891 348.636L166.11 348.04L163.286 340.364H164.559L166.667 346.449H166.746L168.854 340.364H170.127L166.885 349.114C166.739 349.508 166.559 349.835 166.343 350.093C166.128 350.355 165.878 350.549 165.593 350.675C165.311 350.801 164.993 350.864 164.638 350.864ZM174.504 348.159C173.815 348.159 173.21 347.995 172.69 347.667C172.173 347.339 171.768 346.88 171.477 346.29C171.188 345.7 171.044 345.01 171.044 344.222C171.044 343.426 171.188 342.732 171.477 342.138C171.768 341.545 172.173 341.085 172.69 340.756C173.21 340.428 173.815 340.264 174.504 340.264C175.194 340.264 175.797 340.428 176.314 340.756C176.834 341.085 177.239 341.545 177.527 342.138C177.819 342.732 177.964 343.426 177.964 344.222C177.964 345.01 177.819 345.7 177.527 346.29C177.239 346.88 176.834 347.339 176.314 347.667C175.797 347.995 175.194 348.159 174.504 348.159ZM174.504 347.105C175.028 347.105 175.459 346.971 175.797 346.702C176.135 346.434 176.385 346.081 176.548 345.643C176.71 345.206 176.791 344.732 176.791 344.222C176.791 343.711 176.71 343.236 176.548 342.795C176.385 342.354 176.135 341.998 175.797 341.726C175.459 341.454 175.028 341.318 174.504 341.318C173.981 341.318 173.55 341.454 173.212 341.726C172.874 341.998 172.623 342.354 172.461 342.795C172.299 343.236 172.217 343.711 172.217 344.222C172.217 344.732 172.299 345.206 172.461 345.643C172.623 346.081 172.874 346.434 173.212 346.702C173.55 346.971 173.981 347.105 174.504 347.105ZM184.568 344.878V340.364H185.741V348H184.568V346.707H184.488C184.309 347.095 184.031 347.425 183.653 347.697C183.275 347.965 182.798 348.099 182.221 348.099C181.744 348.099 181.32 347.995 180.949 347.786C180.577 347.574 180.286 347.256 180.074 346.832C179.862 346.404 179.756 345.866 179.756 345.216V340.364H180.929V345.136C180.929 345.693 181.085 346.137 181.396 346.469C181.711 346.8 182.112 346.966 182.599 346.966C182.891 346.966 183.188 346.891 183.489 346.742C183.794 346.593 184.049 346.364 184.255 346.056C184.464 345.748 184.568 345.355 184.568 344.878ZM187.89 348V340.364H189.024V341.517H189.103C189.243 341.139 189.494 340.833 189.859 340.597C190.224 340.362 190.635 340.244 191.092 340.244C191.178 340.244 191.286 340.246 191.415 340.249C191.544 340.253 191.642 340.258 191.708 340.264V341.457C191.669 341.447 191.578 341.433 191.435 341.413C191.296 341.389 191.148 341.378 190.993 341.378C190.621 341.378 190.29 341.456 189.998 341.612C189.71 341.764 189.481 341.976 189.312 342.248C189.146 342.516 189.064 342.823 189.064 343.168V348H187.89ZM200.139 348.159C199.45 348.159 198.845 347.995 198.324 347.667C197.807 347.339 197.403 346.88 197.111 346.29C196.823 345.7 196.679 345.01 196.679 344.222C196.679 343.426 196.823 342.732 197.111 342.138C197.403 341.545 197.807 341.085 198.324 340.756C198.845 340.428 199.45 340.264 200.139 340.264C200.828 340.264 201.432 340.428 201.949 340.756C202.469 341.085 202.873 341.545 203.162 342.138C203.453 342.732 203.599 343.426 203.599 344.222C203.599 345.01 203.453 345.7 203.162 346.29C202.873 346.88 202.469 347.339 201.949 347.667C201.432 347.995 200.828 348.159 200.139 348.159ZM200.139 347.105C200.663 347.105 201.094 346.971 201.432 346.702C201.77 346.434 202.02 346.081 202.182 345.643C202.345 345.206 202.426 344.732 202.426 344.222C202.426 343.711 202.345 343.236 202.182 342.795C202.02 342.354 201.77 341.998 201.432 341.726C201.094 341.454 200.663 341.318 200.139 341.318C199.615 341.318 199.184 341.454 198.846 341.726C198.508 341.998 198.258 342.354 198.096 342.795C197.933 343.236 197.852 343.711 197.852 344.222C197.852 344.732 197.933 345.206 198.096 345.643C198.258 346.081 198.508 346.434 198.846 346.702C199.184 346.971 199.615 347.105 200.139 347.105ZM205.39 348V340.364H206.524V341.517H206.603C206.743 341.139 206.994 340.833 207.359 340.597C207.724 340.362 208.135 340.244 208.592 340.244C208.678 340.244 208.786 340.246 208.915 340.249C209.044 340.253 209.142 340.258 209.208 340.264V341.457C209.169 341.447 209.078 341.433 208.935 341.413C208.796 341.389 208.648 341.378 208.493 341.378C208.121 341.378 207.79 341.456 207.498 341.612C207.21 341.764 206.981 341.976 206.812 342.248C206.646 342.516 206.564 342.823 206.564 343.168V348H205.39ZM213.25 348.159C212.614 348.159 212.052 347.998 211.565 347.677C211.078 347.352 210.697 346.895 210.422 346.305C210.146 345.711 210.009 345.01 210.009 344.202C210.009 343.4 210.146 342.704 210.422 342.114C210.697 341.524 211.079 341.068 211.57 340.746C212.06 340.425 212.627 340.264 213.27 340.264C213.767 340.264 214.16 340.347 214.449 340.513C214.74 340.675 214.962 340.861 215.115 341.07C215.27 341.275 215.391 341.444 215.478 341.577H215.577V337.818H216.75V348H215.617V346.827H215.478C215.391 346.966 215.269 347.142 215.11 347.354C214.951 347.562 214.724 347.75 214.429 347.915C214.134 348.078 213.741 348.159 213.25 348.159ZM213.409 347.105C213.88 347.105 214.278 346.982 214.603 346.737C214.927 346.489 215.174 346.146 215.343 345.708C215.512 345.267 215.597 344.759 215.597 344.182C215.597 343.612 215.514 343.113 215.348 342.685C215.183 342.254 214.937 341.92 214.613 341.681C214.288 341.439 213.887 341.318 213.409 341.318C212.912 341.318 212.498 341.446 212.167 341.701C211.838 341.953 211.592 342.296 211.426 342.73C211.263 343.161 211.182 343.645 211.182 344.182C211.182 344.725 211.265 345.219 211.431 345.663C211.6 346.104 211.848 346.455 212.176 346.717C212.508 346.976 212.919 347.105 213.409 347.105ZM222.264 348.159C221.528 348.159 220.893 347.997 220.36 347.672C219.829 347.344 219.42 346.886 219.132 346.3C218.847 345.71 218.704 345.024 218.704 344.241C218.704 343.459 218.847 342.77 219.132 342.173C219.42 341.573 219.821 341.106 220.335 340.771C220.852 340.433 221.455 340.264 222.145 340.264C222.542 340.264 222.935 340.33 223.323 340.463C223.711 340.596 224.064 340.811 224.382 341.109C224.7 341.404 224.953 341.795 225.142 342.283C225.331 342.77 225.426 343.37 225.426 344.082V344.58H219.539V343.565H224.233C224.233 343.134 224.146 342.75 223.974 342.412C223.805 342.074 223.563 341.807 223.248 341.612C222.937 341.416 222.569 341.318 222.145 341.318C221.677 341.318 221.273 341.434 220.931 341.666C220.593 341.895 220.333 342.193 220.151 342.561C219.969 342.929 219.877 343.323 219.877 343.744V344.42C219.877 344.997 219.977 345.486 220.176 345.887C220.378 346.285 220.658 346.588 221.016 346.797C221.374 347.002 221.79 347.105 222.264 347.105C222.572 347.105 222.85 347.062 223.099 346.976C223.351 346.886 223.568 346.754 223.75 346.578C223.933 346.399 224.074 346.177 224.173 345.912L225.306 346.23C225.187 346.615 224.987 346.953 224.705 347.244C224.423 347.533 224.075 347.758 223.661 347.92C223.247 348.08 222.781 348.159 222.264 348.159ZM227.211 348V340.364H228.344V341.517H228.424C228.563 341.139 228.815 340.833 229.179 340.597C229.544 340.362 229.955 340.244 230.412 340.244C230.498 340.244 230.606 340.246 230.735 340.249C230.865 340.253 230.962 340.258 231.029 340.264V341.457C230.989 341.447 230.898 341.433 230.755 341.413C230.616 341.389 230.469 341.378 230.313 341.378C229.942 341.378 229.61 341.456 229.319 341.612C229.03 341.764 228.801 341.976 228.632 342.248C228.467 342.516 228.384 342.823 228.384 343.168V348H227.211ZM237.829 342.074L236.775 342.372C236.708 342.196 236.611 342.026 236.481 341.86C236.355 341.691 236.183 341.552 235.964 341.442C235.746 341.333 235.465 341.278 235.124 341.278C234.657 341.278 234.267 341.386 233.956 341.602C233.648 341.814 233.493 342.084 233.493 342.412C233.493 342.704 233.599 342.934 233.812 343.103C234.024 343.272 234.355 343.413 234.806 343.526L235.939 343.804C236.622 343.97 237.131 344.223 237.466 344.565C237.8 344.903 237.968 345.339 237.968 345.872C237.968 346.31 237.842 346.701 237.59 347.045C237.341 347.39 236.993 347.662 236.546 347.861C236.099 348.06 235.578 348.159 234.985 348.159C234.206 348.159 233.561 347.99 233.051 347.652C232.541 347.314 232.217 346.82 232.081 346.17L233.195 345.892C233.301 346.303 233.502 346.611 233.797 346.817C234.095 347.022 234.484 347.125 234.965 347.125C235.512 347.125 235.946 347.009 236.268 346.777C236.592 346.542 236.755 346.26 236.755 345.932C236.755 345.667 236.662 345.445 236.476 345.266C236.291 345.083 236.006 344.947 235.621 344.858L234.349 344.56C233.649 344.394 233.135 344.137 232.807 343.789C232.483 343.438 232.32 342.999 232.32 342.472C232.32 342.041 232.441 341.66 232.683 341.328C232.928 340.997 233.261 340.737 233.682 340.548C234.107 340.359 234.587 340.264 235.124 340.264C235.88 340.264 236.473 340.43 236.904 340.761C237.338 341.093 237.646 341.53 237.829 342.074ZM245.919 348.179C245.435 348.179 244.996 348.088 244.601 347.906C244.207 347.72 243.894 347.453 243.662 347.105C243.43 346.754 243.314 346.33 243.314 345.832C243.314 345.395 243.4 345.04 243.572 344.768C243.744 344.493 243.975 344.278 244.263 344.122C244.551 343.966 244.87 343.85 245.218 343.774C245.569 343.695 245.922 343.632 246.277 343.585C246.741 343.526 247.117 343.481 247.405 343.451C247.697 343.418 247.909 343.363 248.042 343.287C248.177 343.211 248.245 343.078 248.245 342.889V342.849C248.245 342.359 248.111 341.978 247.843 341.706C247.578 341.434 247.175 341.298 246.635 341.298C246.074 341.298 245.635 341.421 245.317 341.666C244.999 341.911 244.775 342.173 244.646 342.452L243.532 342.054C243.731 341.59 243.996 341.229 244.328 340.97C244.663 340.708 245.027 340.526 245.422 340.423C245.819 340.317 246.21 340.264 246.595 340.264C246.84 340.264 247.122 340.294 247.44 340.354C247.761 340.41 248.071 340.528 248.37 340.707C248.671 340.886 248.922 341.156 249.12 341.517C249.319 341.878 249.419 342.362 249.419 342.969V348H248.245V346.966H248.186C248.106 347.132 247.974 347.309 247.788 347.498C247.602 347.687 247.355 347.848 247.047 347.98C246.739 348.113 246.363 348.179 245.919 348.179ZM246.098 347.125C246.562 347.125 246.953 347.034 247.271 346.852C247.592 346.669 247.834 346.434 247.997 346.146C248.163 345.857 248.245 345.554 248.245 345.236V344.162C248.196 344.222 248.086 344.276 247.917 344.326C247.752 344.372 247.559 344.414 247.341 344.45C247.125 344.483 246.915 344.513 246.709 344.54C246.507 344.563 246.343 344.583 246.217 344.599C245.912 344.639 245.627 344.704 245.362 344.793C245.1 344.879 244.888 345.01 244.725 345.186C244.566 345.358 244.487 345.594 244.487 345.892C244.487 346.3 244.638 346.608 244.939 346.817C245.244 347.022 245.63 347.125 246.098 347.125ZM252.733 343.406V348H251.56V340.364H252.694V341.557H252.793C252.972 341.169 253.244 340.857 253.608 340.622C253.973 340.384 254.444 340.264 255.02 340.264C255.537 340.264 255.99 340.37 256.378 340.582C256.765 340.791 257.067 341.109 257.282 341.537C257.498 341.961 257.606 342.498 257.606 343.148V348H256.432V343.227C256.432 342.627 256.277 342.16 255.965 341.825C255.653 341.487 255.226 341.318 254.682 341.318C254.308 341.318 253.973 341.399 253.678 341.562C253.386 341.724 253.156 341.961 252.987 342.273C252.818 342.584 252.733 342.962 252.733 343.406ZM262.633 348.159C261.997 348.159 261.435 347.998 260.948 347.677C260.461 347.352 260.079 346.895 259.804 346.305C259.529 345.711 259.392 345.01 259.392 344.202C259.392 343.4 259.529 342.704 259.804 342.114C260.079 341.524 260.462 341.068 260.953 340.746C261.443 340.425 262.01 340.264 262.653 340.264C263.15 340.264 263.543 340.347 263.831 340.513C264.123 340.675 264.345 340.861 264.498 341.07C264.653 341.275 264.774 341.444 264.86 341.577H264.96V337.818H266.133V348H265V346.827H264.86C264.774 346.966 264.652 347.142 264.493 347.354C264.333 347.562 264.106 347.75 263.811 347.915C263.516 348.078 263.124 348.159 262.633 348.159ZM262.792 347.105C263.263 347.105 263.661 346.982 263.985 346.737C264.31 346.489 264.557 346.146 264.726 345.708C264.895 345.267 264.98 344.759 264.98 344.182C264.98 343.612 264.897 343.113 264.731 342.685C264.565 342.254 264.32 341.92 263.995 341.681C263.671 341.439 263.27 341.318 262.792 341.318C262.295 341.318 261.881 341.446 261.549 341.701C261.221 341.953 260.974 342.296 260.809 342.73C260.646 343.161 260.565 343.645 260.565 344.182C260.565 344.725 260.648 345.219 260.814 345.663C260.983 346.104 261.231 346.455 261.559 346.717C261.891 346.976 262.302 347.105 262.792 347.105ZM272.382 348V340.364H273.516V341.517H273.596C273.735 341.139 273.987 340.833 274.351 340.597C274.716 340.362 275.127 340.244 275.584 340.244C275.67 340.244 275.778 340.246 275.907 340.249C276.037 340.253 276.134 340.258 276.201 340.264V341.457C276.161 341.447 276.07 341.433 275.927 341.413C275.788 341.389 275.641 341.378 275.485 341.378C275.114 341.378 274.782 341.456 274.49 341.612C274.202 341.764 273.973 341.976 273.804 342.248C273.639 342.516 273.556 342.823 273.556 343.168V348H272.382ZM280.561 348.159C279.825 348.159 279.19 347.997 278.657 347.672C278.126 347.344 277.717 346.886 277.429 346.3C277.144 345.71 277.001 345.024 277.001 344.241C277.001 343.459 277.144 342.77 277.429 342.173C277.717 341.573 278.118 341.106 278.632 340.771C279.149 340.433 279.752 340.264 280.441 340.264C280.839 340.264 281.232 340.33 281.62 340.463C282.007 340.596 282.36 340.811 282.679 341.109C282.997 341.404 283.25 341.795 283.439 342.283C283.628 342.77 283.723 343.37 283.723 344.082V344.58H277.836V343.565H282.529C282.529 343.134 282.443 342.75 282.271 342.412C282.102 342.074 281.86 341.807 281.545 341.612C281.234 341.416 280.866 341.318 280.441 341.318C279.974 341.318 279.57 341.434 279.228 341.666C278.89 341.895 278.63 342.193 278.448 342.561C278.266 342.929 278.174 343.323 278.174 343.744V344.42C278.174 344.997 278.274 345.486 278.473 345.887C278.675 346.285 278.955 346.588 279.313 346.797C279.671 347.002 280.087 347.105 280.561 347.105C280.869 347.105 281.147 347.062 281.396 346.976C281.648 346.886 281.865 346.754 282.047 346.578C282.23 346.399 282.37 346.177 282.47 345.912L283.603 346.23C283.484 346.615 283.283 346.953 283.002 347.244C282.72 347.533 282.372 347.758 281.958 347.92C281.543 348.08 281.078 348.159 280.561 348.159ZM291.519 340.364L288.695 348H287.502L284.678 340.364H285.951L288.059 346.449H288.139L290.247 340.364H291.519ZM295.996 348.159C295.26 348.159 294.626 347.997 294.092 347.672C293.562 347.344 293.153 346.886 292.864 346.3C292.579 345.71 292.437 345.024 292.437 344.241C292.437 343.459 292.579 342.77 292.864 342.173C293.153 341.573 293.554 341.106 294.067 340.771C294.584 340.433 295.188 340.264 295.877 340.264C296.275 340.264 296.667 340.33 297.055 340.463C297.443 340.596 297.796 340.811 298.114 341.109C298.432 341.404 298.686 341.795 298.875 342.283C299.064 342.77 299.158 343.37 299.158 344.082V344.58H293.272V343.565H297.965C297.965 343.134 297.879 342.75 297.706 342.412C297.537 342.074 297.296 341.807 296.981 341.612C296.669 341.416 296.301 341.318 295.877 341.318C295.41 341.318 295.005 341.434 294.664 341.666C294.326 341.895 294.066 342.193 293.883 342.561C293.701 342.929 293.61 343.323 293.61 343.744V344.42C293.61 344.997 293.709 345.486 293.908 345.887C294.11 346.285 294.39 346.588 294.748 346.797C295.106 347.002 295.522 347.105 295.996 347.105C296.305 347.105 296.583 347.062 296.831 346.976C297.083 346.886 297.3 346.754 297.483 346.578C297.665 346.399 297.806 346.177 297.905 345.912L299.039 346.23C298.92 346.615 298.719 346.953 298.437 347.244C298.156 347.533 297.808 347.758 297.393 347.92C296.979 348.08 296.513 348.159 295.996 348.159ZM302.116 343.406V348H300.943V340.364H302.077V341.557H302.176C302.355 341.169 302.627 340.857 302.991 340.622C303.356 340.384 303.827 340.264 304.403 340.264C304.92 340.264 305.373 340.37 305.76 340.582C306.148 340.791 306.45 341.109 306.665 341.537C306.881 341.961 306.988 342.498 306.988 343.148V348H305.815V343.227C305.815 342.627 305.659 342.16 305.348 341.825C305.036 341.487 304.609 341.318 304.065 341.318C303.691 341.318 303.356 341.399 303.061 341.562C302.769 341.724 302.539 341.961 302.37 342.273C302.201 342.584 302.116 342.962 302.116 343.406ZM313.945 344.878V340.364H315.118V348H313.945V346.707H313.865C313.686 347.095 313.408 347.425 313.03 347.697C312.652 347.965 312.175 348.099 311.598 348.099C311.121 348.099 310.697 347.995 310.326 347.786C309.954 347.574 309.663 347.256 309.451 346.832C309.239 346.404 309.132 345.866 309.132 345.216V340.364H310.306V345.136C310.306 345.693 310.462 346.137 310.773 346.469C311.088 346.8 311.489 346.966 311.976 346.966C312.268 346.966 312.565 346.891 312.866 346.742C313.171 346.593 313.426 346.364 313.632 346.056C313.841 345.748 313.945 345.355 313.945 344.878ZM320.469 348.159C319.733 348.159 319.098 347.997 318.565 347.672C318.035 347.344 317.625 346.886 317.337 346.3C317.052 345.71 316.909 345.024 316.909 344.241C316.909 343.459 317.052 342.77 317.337 342.173C317.625 341.573 318.026 341.106 318.54 340.771C319.057 340.433 319.66 340.264 320.35 340.264C320.747 340.264 321.14 340.33 321.528 340.463C321.916 340.596 322.269 340.811 322.587 341.109C322.905 341.404 323.159 341.795 323.347 342.283C323.536 342.77 323.631 343.37 323.631 344.082V344.58H317.744V343.565H322.438C322.438 343.134 322.352 342.75 322.179 342.412C322.01 342.074 321.768 341.807 321.453 341.612C321.142 341.416 320.774 341.318 320.35 341.318C319.882 341.318 319.478 341.434 319.137 341.666C318.798 341.895 318.538 342.193 318.356 342.561C318.174 342.929 318.083 343.323 318.083 343.744V344.42C318.083 344.997 318.182 345.486 318.381 345.887C318.583 346.285 318.863 346.588 319.221 346.797C319.579 347.002 319.995 347.105 320.469 347.105C320.777 347.105 321.056 347.062 321.304 346.976C321.556 346.886 321.773 346.754 321.955 346.578C322.138 346.399 322.279 346.177 322.378 345.912L323.512 346.23C323.392 346.615 323.192 346.953 322.91 347.244C322.628 347.533 322.28 347.758 321.866 347.92C321.452 348.08 320.986 348.159 320.469 348.159Z" fill="#666666"/>
<path d="M37.198 323L41.914 309.59H44.542L49.258 323H46.99L45.964 319.994H40.51L39.466 323H37.198ZM41.122 318.104H45.316L42.94 311.084H43.534L41.122 318.104ZM50.6509 323V313.262H52.5949V315.17L52.3609 314.918C52.6009 314.306 52.9849 313.844 53.5129 313.532C54.0409 313.208 54.6529 313.046 55.3489 313.046C56.0689 313.046 56.7049 313.202 57.2569 313.514C57.8089 313.826 58.2409 314.258 58.5529 314.81C58.8649 315.362 59.0209 315.998 59.0209 316.718V323H57.0049V317.258C57.0049 316.766 56.9149 316.352 56.7349 316.016C56.5549 315.668 56.2969 315.404 55.9609 315.224C55.6369 315.032 55.2649 314.936 54.8449 314.936C54.4249 314.936 54.0469 315.032 53.7109 315.224C53.3869 315.404 53.1349 315.668 52.9549 316.016C52.7749 316.364 52.6849 316.778 52.6849 317.258V323H50.6509ZM64.1138 323.216C63.4538 323.216 62.8718 323.102 62.3678 322.874C61.8758 322.634 61.4918 322.31 61.2158 321.902C60.9398 321.482 60.8018 320.99 60.8018 320.426C60.8018 319.898 60.9158 319.424 61.1438 319.004C61.3838 318.584 61.7498 318.23 62.2418 317.942C62.7338 317.654 63.3518 317.45 64.0958 317.33L67.4798 316.772V318.374L64.4918 318.896C63.9518 318.992 63.5558 319.166 63.3038 319.418C63.0518 319.658 62.9258 319.97 62.9258 320.354C62.9258 320.726 63.0638 321.032 63.3398 321.272C63.6278 321.5 63.9938 321.614 64.4378 321.614C64.9898 321.614 65.4698 321.494 65.8778 321.254C66.2978 321.014 66.6218 320.696 66.8498 320.3C67.0778 319.892 67.1918 319.442 67.1918 318.95V316.448C67.1918 315.968 67.0118 315.578 66.6518 315.278C66.3038 314.966 65.8358 314.81 65.2478 314.81C64.7078 314.81 64.2338 314.954 63.8258 315.242C63.4298 315.518 63.1358 315.878 62.9438 316.322L61.2518 315.476C61.4318 314.996 61.7258 314.576 62.1338 314.216C62.5418 313.844 63.0158 313.556 63.5558 313.352C64.1078 313.148 64.6898 313.046 65.3018 313.046C66.0698 313.046 66.7478 313.19 67.3358 313.478C67.9358 313.766 68.3978 314.168 68.7218 314.684C69.0578 315.188 69.2258 315.776 69.2258 316.448V323H67.2818V321.236L67.6958 321.29C67.4678 321.686 67.1738 322.028 66.8138 322.316C66.4658 322.604 66.0638 322.826 65.6078 322.982C65.1638 323.138 64.6658 323.216 64.1138 323.216ZM71.604 323V309.374H73.638V323H71.604ZM76.8801 326.978C76.6401 326.978 76.4001 326.954 76.1601 326.906C75.9321 326.87 75.7221 326.81 75.5301 326.726V324.98C75.6741 325.016 75.8481 325.046 76.0521 325.07C76.2561 325.106 76.4541 325.124 76.6461 325.124C77.2101 325.124 77.6241 324.998 77.8881 324.746C78.1641 324.506 78.4101 324.128 78.6261 323.612L79.2741 322.136L79.2381 323.846L75.0261 313.262H77.2041L80.3181 321.38H79.5801L82.6761 313.262H84.8721L80.5701 324.062C80.3421 324.638 80.0541 325.142 79.7061 325.574C79.3701 326.018 78.9681 326.36 78.5001 326.6C78.0441 326.852 77.5041 326.978 76.8801 326.978ZM90.4762 323.108C89.4562 323.108 88.6642 322.82 88.1002 322.244C87.5362 321.668 87.2542 320.858 87.2542 319.814V315.098H85.5442V313.262H85.8142C86.2702 313.262 86.6242 313.13 86.8762 312.866C87.1282 312.602 87.2542 312.242 87.2542 311.786V311.03H89.2882V313.262H91.5022V315.098H89.2882V319.724C89.2882 320.06 89.3422 320.348 89.4502 320.588C89.5582 320.816 89.7322 320.996 89.9722 321.128C90.2122 321.248 90.5242 321.308 90.9082 321.308C91.0042 321.308 91.1122 321.302 91.2322 321.29C91.3522 321.278 91.4662 321.266 91.5742 321.254V323C91.4062 323.024 91.2202 323.048 91.0162 323.072C90.8122 323.096 90.6322 323.108 90.4762 323.108ZM93.5591 323V313.262H95.5931V323H93.5591ZM93.5591 311.93V309.59H95.5931V311.93H93.5591ZM102.597 323.216C101.625 323.216 100.761 322.994 100.005 322.55C99.2612 322.094 98.6672 321.482 98.2232 320.714C97.7912 319.946 97.5752 319.076 97.5752 318.104C97.5752 317.144 97.7912 316.28 98.2232 315.512C98.6552 314.744 99.2492 314.144 100.005 313.712C100.761 313.268 101.625 313.046 102.597 313.046C103.257 313.046 103.875 313.166 104.451 313.406C105.027 313.634 105.525 313.952 105.945 314.36C106.377 314.768 106.695 315.242 106.899 315.782L105.117 316.61C104.913 316.106 104.583 315.704 104.127 315.404C103.683 315.092 103.173 314.936 102.597 314.936C102.045 314.936 101.547 315.074 101.103 315.35C100.671 315.614 100.329 315.992 100.077 316.484C99.8252 316.964 99.6992 317.51 99.6992 318.122C99.6992 318.734 99.8252 319.286 100.077 319.778C100.329 320.258 100.671 320.636 101.103 320.912C101.547 321.188 102.045 321.326 102.597 321.326C103.185 321.326 103.695 321.176 104.127 320.876C104.571 320.564 104.901 320.15 105.117 319.634L106.899 320.48C106.707 320.996 106.395 321.464 105.963 321.884C105.543 322.292 105.045 322.616 104.469 322.856C103.893 323.096 103.269 323.216 102.597 323.216ZM112.487 323.216C111.491 323.216 110.615 322.97 109.859 322.478C109.115 321.986 108.593 321.326 108.293 320.498L109.859 319.76C110.123 320.312 110.483 320.75 110.939 321.074C111.407 321.398 111.923 321.56 112.487 321.56C112.967 321.56 113.357 321.452 113.657 321.236C113.957 321.02 114.107 320.726 114.107 320.354C114.107 320.114 114.041 319.922 113.909 319.778C113.777 319.622 113.609 319.496 113.405 319.4C113.213 319.304 113.015 319.232 112.811 319.184L111.281 318.752C110.441 318.512 109.811 318.152 109.391 317.672C108.983 317.18 108.779 316.61 108.779 315.962C108.779 315.374 108.929 314.864 109.229 314.432C109.529 313.988 109.943 313.646 110.471 313.406C110.999 313.166 111.593 313.046 112.253 313.046C113.141 313.046 113.933 313.268 114.629 313.712C115.325 314.144 115.817 314.75 116.105 315.53L114.539 316.268C114.347 315.8 114.041 315.428 113.621 315.152C113.213 314.876 112.751 314.738 112.235 314.738C111.791 314.738 111.437 314.846 111.173 315.062C110.909 315.266 110.777 315.536 110.777 315.872C110.777 316.1 110.837 316.292 110.957 316.448C111.077 316.592 111.233 316.712 111.425 316.808C111.617 316.892 111.815 316.964 112.019 317.024L113.603 317.492C114.407 317.72 115.025 318.08 115.457 318.572C115.889 319.052 116.105 319.628 116.105 320.3C116.105 320.876 115.949 321.386 115.637 321.83C115.337 322.262 114.917 322.604 114.377 322.856C113.837 323.096 113.207 323.216 112.487 323.216Z" fill="#14213D"/>
<rect x="84.5" y="36.5" width="492" height="195" stroke="#ECECEC"/>
<path d="M84 100.551H577" stroke="#ECECEC"/>
<path d="M84 68.8623H577" stroke="#ECECEC"/>
<path d="M84 132.24H577" stroke="#ECECEC"/>
<path d="M84 163.928H577" stroke="#ECECEC"/>
<path d="M84 195.617H577" stroke="#ECECEC"/>
<path d="M166.935 36L166.935 232" stroke="#ECECEC"/>
<path d="M248.333 36L248.333 232" stroke="#ECECEC"/>
<path d="M329.732 36L329.732 232" stroke="#ECECEC"/>
<path d="M411.131 36L411.131 232" stroke="#ECECEC"/>
<path d="M492.53 36L492.53 232" stroke="#ECECEC"/>
<path d="M86 193L169.886 165L250.693 193L332.27 85L413.846 138L495.423 111.5L577 193" stroke="#EBB152" stroke-width="2"/>
<path d="M86 137.5L169.116 112L249.923 137.5L330.73 166L413.077 194L494.654 166L577 137.5" stroke="#859DD2" stroke-width="2"/>
<path d="M122.42 262.636C122.42 263.557 122.254 264.352 121.922 265.023C121.589 265.693 121.134 266.21 120.554 266.574C119.974 266.938 119.313 267.119 118.568 267.119C117.824 267.119 117.162 266.938 116.582 266.574C116.003 266.21 115.547 265.693 115.214 265.023C114.882 264.352 114.716 263.557 114.716 262.636C114.716 261.716 114.882 260.92 115.214 260.25C115.547 259.58 116.003 259.062 116.582 258.699C117.162 258.335 117.824 258.153 118.568 258.153C119.313 258.153 119.974 258.335 120.554 258.699C121.134 259.062 121.589 259.58 121.922 260.25C122.254 260.92 122.42 261.716 122.42 262.636ZM121.398 262.636C121.398 261.881 121.271 261.243 121.018 260.723C120.768 260.203 120.429 259.81 120 259.543C119.574 259.276 119.097 259.142 118.568 259.142C118.04 259.142 117.561 259.276 117.132 259.543C116.706 259.81 116.366 260.203 116.114 260.723C115.864 261.243 115.739 261.881 115.739 262.636C115.739 263.392 115.864 264.03 116.114 264.55C116.366 265.07 116.706 265.463 117.132 265.73C117.561 265.997 118.04 266.131 118.568 266.131C119.097 266.131 119.574 265.997 120 265.73C120.429 265.463 120.768 265.07 121.018 264.55C121.271 264.03 121.398 263.392 121.398 262.636ZM124.061 267V260.455H125.033V261.443H125.101C125.22 261.119 125.436 260.857 125.749 260.655C126.061 260.453 126.413 260.352 126.805 260.352C126.879 260.352 126.972 260.354 127.082 260.357C127.193 260.359 127.277 260.364 127.334 260.369V261.392C127.3 261.384 127.222 261.371 127.099 261.354C126.98 261.334 126.854 261.324 126.72 261.324C126.402 261.324 126.118 261.391 125.868 261.524C125.621 261.655 125.425 261.837 125.28 262.07C125.138 262.3 125.067 262.562 125.067 262.858V267H124.061ZM130.798 267.136C130.253 267.136 129.771 266.999 129.354 266.723C128.936 266.445 128.609 266.053 128.374 265.547C128.138 265.038 128.02 264.438 128.02 263.744C128.02 263.057 128.138 262.46 128.374 261.955C128.609 261.449 128.938 261.058 129.358 260.783C129.778 260.507 130.264 260.369 130.815 260.369C131.241 260.369 131.578 260.44 131.825 260.582C132.075 260.722 132.266 260.881 132.396 261.06C132.53 261.236 132.634 261.381 132.707 261.494H132.793V258.273H133.798V267H132.827V265.994H132.707C132.634 266.114 132.528 266.264 132.392 266.446C132.256 266.625 132.061 266.786 131.808 266.928C131.555 267.067 131.219 267.136 130.798 267.136ZM130.935 266.233C131.338 266.233 131.679 266.128 131.957 265.918C132.236 265.705 132.447 265.411 132.592 265.036C132.737 264.658 132.81 264.222 132.81 263.727C132.81 263.239 132.739 262.811 132.597 262.445C132.455 262.075 132.244 261.788 131.966 261.584C131.688 261.376 131.344 261.273 130.935 261.273C130.509 261.273 130.153 261.382 129.869 261.601C129.588 261.817 129.376 262.111 129.234 262.483C129.095 262.852 129.026 263.267 129.026 263.727C129.026 264.193 129.097 264.616 129.239 264.997C129.384 265.375 129.597 265.676 129.878 265.901C130.162 266.122 130.514 266.233 130.935 266.233ZM138.524 267.136C137.893 267.136 137.349 266.997 136.892 266.719C136.438 266.438 136.087 266.045 135.839 265.543C135.595 265.037 135.473 264.449 135.473 263.778C135.473 263.108 135.595 262.517 135.839 262.006C136.087 261.491 136.43 261.091 136.871 260.804C137.314 260.514 137.831 260.369 138.422 260.369C138.763 260.369 139.099 260.426 139.432 260.54C139.764 260.653 140.067 260.838 140.339 261.094C140.612 261.347 140.83 261.682 140.991 262.099C141.153 262.517 141.234 263.031 141.234 263.642V264.068H136.189V263.199H140.212C140.212 262.83 140.138 262.5 139.99 262.21C139.845 261.92 139.638 261.692 139.368 261.524C139.101 261.357 138.786 261.273 138.422 261.273C138.021 261.273 137.675 261.372 137.382 261.571C137.092 261.767 136.869 262.023 136.713 262.338C136.557 262.653 136.479 262.991 136.479 263.352V263.932C136.479 264.426 136.564 264.845 136.734 265.189C136.908 265.53 137.148 265.79 137.455 265.969C137.761 266.145 138.118 266.233 138.524 266.233C138.788 266.233 139.027 266.196 139.24 266.122C139.456 266.045 139.642 265.932 139.798 265.781C139.955 265.628 140.075 265.437 140.161 265.21L141.132 265.483C141.03 265.812 140.858 266.102 140.616 266.352C140.375 266.599 140.077 266.793 139.722 266.932C139.366 267.068 138.967 267.136 138.524 267.136ZM142.764 267V260.455H143.736V261.443H143.804C143.923 261.119 144.139 260.857 144.452 260.655C144.764 260.453 145.116 260.352 145.509 260.352C145.582 260.352 145.675 260.354 145.786 260.357C145.896 260.359 145.98 260.364 146.037 260.369V261.392C146.003 261.384 145.925 261.371 145.803 261.354C145.683 261.334 145.557 261.324 145.423 261.324C145.105 261.324 144.821 261.391 144.571 261.524C144.324 261.655 144.128 261.837 143.983 262.07C143.841 262.3 143.77 262.562 143.77 262.858V267H142.764ZM151.865 261.92L150.962 262.176C150.905 262.026 150.821 261.879 150.711 261.737C150.603 261.592 150.455 261.473 150.267 261.379C150.08 261.286 149.84 261.239 149.547 261.239C149.147 261.239 148.813 261.331 148.546 261.516C148.282 261.697 148.15 261.929 148.15 262.21C148.15 262.46 148.24 262.658 148.422 262.803C148.604 262.947 148.888 263.068 149.275 263.165L150.246 263.403C150.831 263.545 151.267 263.763 151.554 264.055C151.841 264.345 151.985 264.719 151.985 265.176C151.985 265.551 151.877 265.886 151.661 266.182C151.448 266.477 151.15 266.71 150.766 266.881C150.382 267.051 149.936 267.136 149.428 267.136C148.76 267.136 148.208 266.991 147.77 266.702C147.333 266.412 147.056 265.989 146.939 265.432L147.894 265.193C147.985 265.545 148.157 265.81 148.409 265.986C148.665 266.162 148.999 266.25 149.411 266.25C149.88 266.25 150.252 266.151 150.527 265.952C150.806 265.75 150.945 265.509 150.945 265.227C150.945 265 150.865 264.81 150.706 264.656C150.547 264.5 150.303 264.384 149.973 264.307L148.882 264.051C148.283 263.909 147.843 263.689 147.561 263.391C147.283 263.089 147.144 262.713 147.144 262.261C147.144 261.892 147.248 261.565 147.455 261.281C147.665 260.997 147.951 260.774 148.311 260.612C148.675 260.45 149.087 260.369 149.547 260.369C150.195 260.369 150.703 260.511 151.073 260.795C151.445 261.08 151.709 261.455 151.865 261.92Z" fill="#4F4F4F"/>
<rect x="84" y="259" width="21" height="8" fill="#859DD2"/>
<path d="M222.057 267V258.273H225.006C225.688 258.273 226.247 258.389 226.685 258.622C227.122 258.852 227.446 259.169 227.656 259.572C227.866 259.976 227.972 260.435 227.972 260.949C227.972 261.463 227.866 261.919 227.656 262.317C227.446 262.714 227.124 263.027 226.689 263.254C226.254 263.479 225.699 263.591 225.023 263.591H222.636V262.636H224.989C225.455 262.636 225.83 262.568 226.114 262.432C226.401 262.295 226.608 262.102 226.736 261.852C226.866 261.599 226.932 261.298 226.932 260.949C226.932 260.599 226.866 260.294 226.736 260.033C226.605 259.771 226.396 259.57 226.109 259.428C225.822 259.283 225.443 259.21 224.972 259.21H223.114V267H222.057ZM226.165 263.08L228.312 267H227.085L224.972 263.08H226.165ZM232.27 267.136C231.64 267.136 231.096 266.997 230.638 266.719C230.184 266.438 229.833 266.045 229.586 265.543C229.341 265.037 229.219 264.449 229.219 263.778C229.219 263.108 229.341 262.517 229.586 262.006C229.833 261.491 230.176 261.091 230.617 260.804C231.06 260.514 231.577 260.369 232.168 260.369C232.509 260.369 232.846 260.426 233.178 260.54C233.51 260.653 233.813 260.838 234.086 261.094C234.358 261.347 234.576 261.682 234.738 262.099C234.9 262.517 234.98 263.031 234.98 263.642V264.068H229.935V263.199H233.958C233.958 262.83 233.884 262.5 233.736 262.21C233.591 261.92 233.384 261.692 233.114 261.524C232.847 261.357 232.532 261.273 232.168 261.273C231.767 261.273 231.421 261.372 231.128 261.571C230.838 261.767 230.615 262.023 230.459 262.338C230.303 262.653 230.225 262.991 230.225 263.352V263.932C230.225 264.426 230.31 264.845 230.48 265.189C230.654 265.53 230.894 265.79 231.201 265.969C231.507 266.145 231.864 266.233 232.27 266.233C232.534 266.233 232.773 266.196 232.986 266.122C233.202 266.045 233.388 265.932 233.544 265.781C233.701 265.628 233.821 265.437 233.907 265.21L234.878 265.483C234.776 265.812 234.604 266.102 234.363 266.352C234.121 266.599 233.823 266.793 233.468 266.932C233.113 267.068 232.713 267.136 232.27 267.136ZM241.663 260.455L239.243 267H238.22L235.8 260.455H236.891L238.697 265.67H238.766L240.572 260.455H241.663ZM245.501 267.136C244.87 267.136 244.326 266.997 243.869 266.719C243.414 266.438 243.063 266.045 242.816 265.543C242.572 265.037 242.45 264.449 242.45 263.778C242.45 263.108 242.572 262.517 242.816 262.006C243.063 261.491 243.407 261.091 243.847 260.804C244.29 260.514 244.808 260.369 245.398 260.369C245.739 260.369 246.076 260.426 246.408 260.54C246.741 260.653 247.043 260.838 247.316 261.094C247.589 261.347 247.806 261.682 247.968 262.099C248.13 262.517 248.211 263.031 248.211 263.642V264.068H243.165V263.199H247.188C247.188 262.83 247.114 262.5 246.967 262.21C246.822 261.92 246.614 261.692 246.344 261.524C246.077 261.357 245.762 261.273 245.398 261.273C244.998 261.273 244.651 261.372 244.359 261.571C244.069 261.767 243.846 262.023 243.69 262.338C243.533 262.653 243.455 262.991 243.455 263.352V263.932C243.455 264.426 243.54 264.845 243.711 265.189C243.884 265.53 244.124 265.79 244.431 265.969C244.738 266.145 245.094 266.233 245.501 266.233C245.765 266.233 246.004 266.196 246.217 266.122C246.433 266.045 246.619 265.932 246.775 265.781C246.931 265.628 247.052 265.437 247.137 265.21L248.109 265.483C248.006 265.812 247.835 266.102 247.593 266.352C247.352 266.599 247.053 266.793 246.698 266.932C246.343 267.068 245.944 267.136 245.501 267.136ZM250.746 263.062V267H249.741V260.455H250.712V261.477H250.798C250.951 261.145 251.184 260.878 251.496 260.676C251.809 260.472 252.212 260.369 252.707 260.369C253.15 260.369 253.538 260.46 253.87 260.642C254.202 260.821 254.461 261.094 254.646 261.46C254.83 261.824 254.923 262.284 254.923 262.841V267H253.917V262.909C253.917 262.395 253.783 261.994 253.516 261.707C253.249 261.418 252.883 261.273 252.417 261.273C252.096 261.273 251.809 261.342 251.556 261.482C251.306 261.621 251.109 261.824 250.964 262.091C250.819 262.358 250.746 262.682 250.746 263.062ZM260.885 264.324V260.455H261.891V267H260.885V265.892H260.817C260.664 266.224 260.425 266.507 260.101 266.74C259.777 266.97 259.368 267.085 258.874 267.085C258.465 267.085 258.101 266.996 257.783 266.817C257.465 266.635 257.215 266.362 257.033 265.999C256.851 265.632 256.76 265.17 256.76 264.614V260.455H257.766V264.545C257.766 265.023 257.9 265.403 258.167 265.688C258.436 265.972 258.78 266.114 259.198 266.114C259.448 266.114 259.702 266.05 259.961 265.922C260.222 265.794 260.441 265.598 260.617 265.334C260.796 265.07 260.885 264.733 260.885 264.324ZM266.477 267.136C265.847 267.136 265.303 266.997 264.845 266.719C264.391 266.438 264.04 266.045 263.793 265.543C263.548 265.037 263.426 264.449 263.426 263.778C263.426 263.108 263.548 262.517 263.793 262.006C264.04 261.491 264.384 261.091 264.824 260.804C265.267 260.514 265.784 260.369 266.375 260.369C266.716 260.369 267.053 260.426 267.385 260.54C267.717 260.653 268.02 260.838 268.293 261.094C268.565 261.347 268.783 261.682 268.945 262.099C269.107 262.517 269.188 263.031 269.188 263.642V264.068H264.142V263.199H268.165C268.165 262.83 268.091 262.5 267.943 262.21C267.798 261.92 267.591 261.692 267.321 261.524C267.054 261.357 266.739 261.273 266.375 261.273C265.974 261.273 265.628 261.372 265.335 261.571C265.045 261.767 264.822 262.023 264.666 262.338C264.51 262.653 264.432 262.991 264.432 263.352V263.932C264.432 264.426 264.517 264.845 264.688 265.189C264.861 265.53 265.101 265.79 265.408 265.969C265.714 266.145 266.071 266.233 266.477 266.233C266.741 266.233 266.98 266.196 267.193 266.122C267.409 266.045 267.595 265.932 267.751 265.781C267.908 265.628 268.028 265.437 268.114 265.21L269.085 265.483C268.983 265.812 268.811 266.102 268.57 266.352C268.328 266.599 268.03 266.793 267.675 266.932C267.32 267.068 266.92 267.136 266.477 267.136Z" fill="#4F4F4F"/>
<rect x="191" y="259" width="21" height="8" fill="#EBB152"/>
<path d="M61.25 229.119C60.608 229.119 60.0611 228.945 59.6094 228.595C59.1577 228.243 58.8125 227.733 58.5739 227.065C58.3352 226.395 58.2159 225.585 58.2159 224.636C58.2159 223.693 58.3352 222.888 58.5739 222.22C58.8153 221.55 59.1619 221.038 59.6136 220.686C60.0682 220.331 60.6136 220.153 61.25 220.153C61.8864 220.153 62.4304 220.331 62.8821 220.686C63.3366 221.038 63.6832 221.55 63.9219 222.22C64.1634 222.888 64.2841 223.693 64.2841 224.636C64.2841 225.585 64.1648 226.395 63.9261 227.065C63.6875 227.733 63.3423 228.243 62.8906 228.595C62.4389 228.945 61.892 229.119 61.25 229.119ZM61.25 228.182C61.8864 228.182 62.3807 227.875 62.733 227.261C63.0852 226.648 63.2614 225.773 63.2614 224.636C63.2614 223.881 63.1804 223.237 63.0185 222.706C62.8594 222.175 62.6293 221.77 62.3281 221.491C62.0298 221.213 61.6705 221.074 61.25 221.074C60.6193 221.074 60.1264 221.385 59.7713 222.007C59.4162 222.626 59.2386 223.503 59.2386 224.636C59.2386 225.392 59.3182 226.034 59.4773 226.562C59.6364 227.091 59.8651 227.493 60.1634 227.768C60.4645 228.044 60.8267 228.182 61.25 228.182Z" fill="#4F4F4F"/>
<path d="M51.1378 198V197.233L54.0185 194.08C54.3565 193.71 54.6349 193.389 54.8537 193.116C55.0724 192.841 55.2344 192.582 55.3395 192.341C55.4474 192.097 55.5014 191.841 55.5014 191.574C55.5014 191.267 55.4276 191.001 55.2798 190.777C55.1349 190.553 54.9361 190.379 54.6832 190.257C54.4304 190.135 54.1463 190.074 53.831 190.074C53.4957 190.074 53.2031 190.143 52.9531 190.283C52.706 190.419 52.5142 190.611 52.3778 190.858C52.2443 191.105 52.1776 191.395 52.1776 191.727H51.1719C51.1719 191.216 51.2898 190.767 51.5256 190.381C51.7614 189.994 52.0824 189.693 52.4886 189.477C52.8977 189.261 53.3565 189.153 53.8651 189.153C54.3764 189.153 54.8295 189.261 55.2244 189.477C55.6193 189.693 55.929 189.984 56.1534 190.351C56.3778 190.717 56.4901 191.125 56.4901 191.574C56.4901 191.895 56.4318 192.209 56.3153 192.516C56.2017 192.82 56.0028 193.159 55.7188 193.534C55.4375 193.906 55.0469 194.361 54.5469 194.898L52.5866 196.994V197.062H56.6435V198H51.1378ZM61.25 198.119C60.608 198.119 60.0611 197.945 59.6094 197.595C59.1577 197.243 58.8125 196.733 58.5739 196.065C58.3352 195.395 58.2159 194.585 58.2159 193.636C58.2159 192.693 58.3352 191.888 58.5739 191.22C58.8153 190.55 59.1619 190.038 59.6136 189.686C60.0682 189.331 60.6136 189.153 61.25 189.153C61.8864 189.153 62.4304 189.331 62.8821 189.686C63.3366 190.038 63.6832 190.55 63.9219 191.22C64.1634 191.888 64.2841 192.693 64.2841 193.636C64.2841 194.585 64.1648 195.395 63.9261 196.065C63.6875 196.733 63.3423 197.243 62.8906 197.595C62.4389 197.945 61.892 198.119 61.25 198.119ZM61.25 197.182C61.8864 197.182 62.3807 196.875 62.733 196.261C63.0852 195.648 63.2614 194.773 63.2614 193.636C63.2614 192.881 63.1804 192.237 63.0185 191.706C62.8594 191.175 62.6293 190.77 62.3281 190.491C62.0298 190.213 61.6705 190.074 61.25 190.074C60.6193 190.074 60.1264 190.385 59.7713 191.007C59.4162 191.626 59.2386 192.503 59.2386 193.636C59.2386 194.392 59.3182 195.034 59.4773 195.562C59.6364 196.091 59.8651 196.493 60.1634 196.768C60.4645 197.044 60.8267 197.182 61.25 197.182Z" fill="#4F4F4F"/>
<path d="M53.7116 171.119C53.1491 171.119 52.6477 171.023 52.2074 170.83C51.7699 170.636 51.4219 170.368 51.1634 170.024C50.9077 169.678 50.7685 169.276 50.7457 168.818H51.8196C51.8423 169.099 51.9389 169.342 52.1094 169.547C52.2798 169.749 52.5028 169.905 52.7784 170.016C53.054 170.126 53.3594 170.182 53.6946 170.182C54.0696 170.182 54.402 170.116 54.6918 169.986C54.9815 169.855 55.2088 169.673 55.3736 169.44C55.5384 169.207 55.6207 168.938 55.6207 168.631C55.6207 168.31 55.5412 168.027 55.3821 167.783C55.223 167.536 54.9901 167.342 54.6832 167.203C54.3764 167.064 54.0014 166.994 53.5582 166.994H52.8594V166.057H53.5582C53.9048 166.057 54.2088 165.994 54.4702 165.869C54.7344 165.744 54.9403 165.568 55.0881 165.341C55.2386 165.114 55.3139 164.847 55.3139 164.54C55.3139 164.244 55.2486 163.987 55.1179 163.768C54.9872 163.55 54.8026 163.379 54.5639 163.257C54.3281 163.135 54.0497 163.074 53.7287 163.074C53.4276 163.074 53.1435 163.129 52.8764 163.24C52.6122 163.348 52.3963 163.506 52.2287 163.713C52.0611 163.918 51.9702 164.165 51.956 164.455H50.9332C50.9503 163.997 51.0881 163.597 51.3466 163.253C51.6051 162.906 51.9432 162.636 52.3608 162.443C52.7813 162.25 53.2429 162.153 53.7457 162.153C54.2855 162.153 54.7486 162.263 55.1349 162.482C55.5213 162.697 55.8182 162.983 56.0256 163.338C56.233 163.693 56.3366 164.077 56.3366 164.489C56.3366 164.98 56.2074 165.399 55.9489 165.746C55.6932 166.092 55.3452 166.332 54.9048 166.466V166.534C55.456 166.625 55.8864 166.859 56.196 167.237C56.5057 167.612 56.6605 168.077 56.6605 168.631C56.6605 169.105 56.5313 169.531 56.2727 169.909C56.017 170.284 55.6676 170.58 55.2244 170.795C54.7813 171.011 54.277 171.119 53.7116 171.119ZM61.25 171.119C60.608 171.119 60.0611 170.945 59.6094 170.595C59.1577 170.243 58.8125 169.733 58.5739 169.065C58.3352 168.395 58.2159 167.585 58.2159 166.636C58.2159 165.693 58.3352 164.888 58.5739 164.22C58.8153 163.55 59.1619 163.038 59.6136 162.686C60.0682 162.331 60.6136 162.153 61.25 162.153C61.8864 162.153 62.4304 162.331 62.8821 162.686C63.3366 163.038 63.6832 163.55 63.9219 164.22C64.1634 164.888 64.2841 165.693 64.2841 166.636C64.2841 167.585 64.1648 168.395 63.9261 169.065C63.6875 169.733 63.3423 170.243 62.8906 170.595C62.4389 170.945 61.892 171.119 61.25 171.119ZM61.25 170.182C61.8864 170.182 62.3807 169.875 62.733 169.261C63.0852 168.648 63.2614 167.773 63.2614 166.636C63.2614 165.881 63.1804 165.237 63.0185 164.706C62.8594 164.175 62.6293 163.77 62.3281 163.491C62.0298 163.213 61.6705 163.074 61.25 163.074C60.6193 163.074 60.1264 163.385 59.7713 164.007C59.4162 164.626 59.2386 165.503 59.2386 166.636C59.2386 167.392 59.3182 168.034 59.4773 168.562C59.6364 169.091 59.8651 169.493 60.1634 169.768C60.4645 170.044 60.8267 170.182 61.25 170.182Z" fill="#4F4F4F"/>
<path d="M53.8299 145.119C53.3299 145.119 52.8796 145.02 52.479 144.821C52.0785 144.622 51.7575 144.349 51.516 144.003C51.2745 143.656 51.1424 143.261 51.1197 142.818H52.1424C52.1822 143.213 52.3612 143.54 52.6793 143.798C53.0004 144.054 53.3839 144.182 53.8299 144.182C54.1879 144.182 54.506 144.098 54.7844 143.93C55.0657 143.763 55.2859 143.533 55.445 143.24C55.6069 142.945 55.6879 142.611 55.6879 142.239C55.6879 141.858 55.604 141.518 55.4364 141.22C55.2717 140.919 55.0444 140.682 54.7546 140.509C54.4648 140.335 54.1339 140.247 53.7617 140.244C53.4947 140.241 53.2205 140.283 52.9393 140.368C52.658 140.45 52.4265 140.557 52.2447 140.688L51.256 140.568L51.7844 136.273H56.3185V137.21H52.6708L52.364 139.784H52.4151C52.5941 139.642 52.8185 139.524 53.0884 139.43C53.3583 139.337 53.6396 139.29 53.9322 139.29C54.4663 139.29 54.9421 139.418 55.3597 139.673C55.7802 139.926 56.1097 140.273 56.3484 140.713C56.5898 141.153 56.7106 141.656 56.7106 142.222C56.7106 142.778 56.5856 143.276 56.3356 143.713C56.0884 144.148 55.7475 144.491 55.3129 144.744C54.8782 144.994 54.3839 145.119 53.8299 145.119ZM61.25 145.119C60.608 145.119 60.0611 144.945 59.6094 144.595C59.1577 144.243 58.8125 143.733 58.5739 143.065C58.3352 142.395 58.2159 141.585 58.2159 140.636C58.2159 139.693 58.3352 138.888 58.5739 138.22C58.8153 137.55 59.1619 137.038 59.6136 136.686C60.0682 136.331 60.6136 136.153 61.25 136.153C61.8864 136.153 62.4304 136.331 62.8821 136.686C63.3366 137.038 63.6832 137.55 63.9219 138.22C64.1634 138.888 64.2841 139.693 64.2841 140.636C64.2841 141.585 64.1648 142.395 63.9261 143.065C63.6875 143.733 63.3423 144.243 62.8906 144.595C62.4389 144.945 61.892 145.119 61.25 145.119ZM61.25 144.182C61.8864 144.182 62.3807 143.875 62.733 143.261C63.0852 142.648 63.2614 141.773 63.2614 140.636C63.2614 139.881 63.1804 139.237 63.0185 138.706C62.8594 138.175 62.6293 137.77 62.3281 137.491C62.0298 137.213 61.6705 137.074 61.25 137.074C60.6193 137.074 60.1264 137.385 59.7713 138.007C59.4162 138.626 59.2386 139.503 59.2386 140.636C59.2386 141.392 59.3182 142.034 59.4773 142.562C59.6364 143.091 59.8651 143.493 60.1634 143.768C60.4645 144.044 60.8267 144.182 61.25 144.182Z" fill="#4F4F4F"/>
<path d="M52.1371 117L56.0405 109.278V109.21H51.5405V108.273H57.1314V109.261L53.245 117H52.1371ZM61.3299 117.119C60.8299 117.119 60.3796 117.02 59.979 116.821C59.5785 116.622 59.2575 116.349 59.016 116.003C58.7745 115.656 58.6424 115.261 58.6197 114.818H59.6424C59.6822 115.213 59.8612 115.54 60.1793 115.798C60.5004 116.054 60.8839 116.182 61.3299 116.182C61.6879 116.182 62.006 116.098 62.2844 115.93C62.5657 115.763 62.7859 115.533 62.945 115.24C63.1069 114.945 63.1879 114.611 63.1879 114.239C63.1879 113.858 63.104 113.518 62.9364 113.22C62.7717 112.919 62.5444 112.682 62.2546 112.509C61.9648 112.335 61.6339 112.247 61.2617 112.244C60.9947 112.241 60.7205 112.283 60.4393 112.368C60.158 112.45 59.9265 112.557 59.7447 112.688L58.756 112.568L59.2844 108.273H63.8185V109.21H60.1708L59.864 111.784H59.9151C60.0941 111.642 60.3185 111.524 60.5884 111.43C60.8583 111.337 61.1396 111.29 61.4322 111.29C61.9663 111.29 62.4421 111.418 62.8597 111.673C63.2802 111.926 63.6097 112.273 63.8484 112.713C64.0898 113.153 64.2106 113.656 64.2106 114.222C64.2106 114.778 64.0856 115.276 63.8356 115.713C63.5884 116.148 63.2475 116.491 62.8129 116.744C62.3782 116.994 61.8839 117.119 61.3299 117.119Z" fill="#4F4F4F"/>
<path d="M54.0036 90.1193C53.4183 90.1193 52.9013 90.0156 52.4524 89.8082C52.0064 89.598 51.6584 89.3097 51.4084 88.9432C51.1584 88.5739 51.0348 88.1534 51.0376 87.6818C51.0348 87.3125 51.1072 86.9716 51.255 86.6591C51.4027 86.3437 51.6044 86.081 51.8601 85.8707C52.1186 85.6577 52.407 85.5227 52.7251 85.4659V85.4148C52.3075 85.3068 51.9751 85.0724 51.728 84.7116C51.4808 84.348 51.3587 83.9347 51.3615 83.4716C51.3587 83.0284 51.4709 82.6321 51.6982 82.2827C51.9254 81.9332 52.2379 81.6577 52.6357 81.456C53.0362 81.2543 53.4922 81.1534 54.0036 81.1534C54.5092 81.1534 54.9609 81.2543 55.3587 81.456C55.7564 81.6577 56.0689 81.9332 56.2962 82.2827C56.5263 82.6321 56.6428 83.0284 56.6456 83.4716C56.6428 83.9347 56.5163 84.348 56.2663 84.7116C56.0192 85.0724 55.6911 85.3068 55.282 85.4148V85.4659C55.5973 85.5227 55.8814 85.6577 56.1342 85.8707C56.3871 86.081 56.5888 86.3437 56.7393 86.6591C56.8899 86.9716 56.9666 87.3125 56.9695 87.6818C56.9666 88.1534 56.8388 88.5739 56.5859 88.9432C56.3359 89.3097 55.9879 89.598 55.5419 89.8082C55.0987 90.0156 54.5859 90.1193 54.0036 90.1193ZM54.0036 89.1818C54.3984 89.1818 54.7393 89.1179 55.0263 88.9901C55.3132 88.8622 55.5348 88.6818 55.6911 88.4489C55.8473 88.2159 55.9268 87.9432 55.9297 87.6307C55.9268 87.3011 55.8416 87.0099 55.674 86.7571C55.5064 86.5043 55.2777 86.3054 54.9879 86.1605C54.701 86.0156 54.3729 85.9432 54.0036 85.9432C53.6314 85.9432 53.299 86.0156 53.0064 86.1605C52.7166 86.3054 52.4879 86.5043 52.3203 86.7571C52.1555 87.0099 52.0746 87.3011 52.0774 87.6307C52.0746 87.9432 52.1499 88.2159 52.3033 88.4489C52.4595 88.6818 52.6825 88.8622 52.9723 88.9901C53.2621 89.1179 53.6058 89.1818 54.0036 89.1818ZM54.0036 85.0398C54.3161 85.0398 54.593 84.9773 54.8345 84.8523C55.0788 84.7273 55.2706 84.5526 55.4098 84.3281C55.549 84.1037 55.62 83.8409 55.6229 83.5398C55.62 83.2443 55.5504 82.9872 55.4141 82.7685C55.2777 82.5469 55.0888 82.3764 54.8473 82.2571C54.6058 82.1349 54.3246 82.0739 54.0036 82.0739C53.6768 82.0739 53.3913 82.1349 53.147 82.2571C52.9027 82.3764 52.7138 82.5469 52.5803 82.7685C52.4467 82.9872 52.3814 83.2443 52.3842 83.5398C52.3814 83.8409 52.4482 84.1037 52.5845 84.3281C52.7237 84.5526 52.9155 84.7273 53.1598 84.8523C53.4041 84.9773 53.6854 85.0398 54.0036 85.0398ZM61.3299 90.1193C60.8299 90.1193 60.3796 90.0199 59.979 89.821C59.5785 89.6222 59.2575 89.3494 59.016 89.0028C58.7745 88.6562 58.6424 88.2614 58.6197 87.8182H59.6424C59.6822 88.2131 59.8612 88.5398 60.1793 88.7983C60.5004 89.054 60.8839 89.1818 61.3299 89.1818C61.6879 89.1818 62.006 89.098 62.2844 88.9304C62.5657 88.7628 62.7859 88.5327 62.945 88.2401C63.1069 87.9446 63.1879 87.6108 63.1879 87.2386C63.1879 86.858 63.104 86.5185 62.9364 86.2202C62.7717 85.919 62.5444 85.6818 62.2546 85.5085C61.9648 85.3352 61.6339 85.2472 61.2617 85.2443C60.9947 85.2415 60.7205 85.2827 60.4393 85.3679C60.158 85.4503 59.9265 85.5568 59.7447 85.6875L58.756 85.5682L59.2844 81.2727H63.8185V82.2102H60.1708L59.864 84.7841H59.9151C60.0941 84.642 60.3185 84.5241 60.5884 84.4304C60.8583 84.3366 61.1396 84.2898 61.4322 84.2898C61.9663 84.2898 62.4421 84.4176 62.8597 84.6733C63.2802 84.9261 63.6097 85.2727 63.8484 85.7131C64.0898 86.1534 64.2106 86.6562 64.2106 87.2216C64.2106 87.7784 64.0856 88.2756 63.8356 88.7131C63.5884 89.1477 63.2475 89.4915 62.8129 89.7443C62.3782 89.9943 61.8839 90.1193 61.3299 90.1193Z" fill="#4F4F4F"/>
<path d="M48.3935 53.2727V62H47.3366V54.3807H47.2855L45.1548 55.7955V54.7216L47.3366 53.2727H48.3935ZM53.75 62.1193C53.108 62.1193 52.5611 61.9446 52.1094 61.5952C51.6577 61.2429 51.3125 60.733 51.0739 60.0653C50.8352 59.3949 50.7159 58.5852 50.7159 57.6364C50.7159 56.6932 50.8352 55.8878 51.0739 55.2202C51.3153 54.5497 51.6619 54.0384 52.1136 53.6861C52.5682 53.331 53.1136 53.1534 53.75 53.1534C54.3864 53.1534 54.9304 53.331 55.3821 53.6861C55.8366 54.0384 56.1832 54.5497 56.4219 55.2202C56.6634 55.8878 56.7841 56.6932 56.7841 57.6364C56.7841 58.5852 56.6648 59.3949 56.4261 60.0653C56.1875 60.733 55.8423 61.2429 55.3906 61.5952C54.9389 61.9446 54.392 62.1193 53.75 62.1193ZM53.75 61.1818C54.3864 61.1818 54.8807 60.875 55.233 60.2614C55.5852 59.6477 55.7614 58.7727 55.7614 57.6364C55.7614 56.8807 55.6804 56.2372 55.5185 55.706C55.3594 55.1747 55.1293 54.7699 54.8281 54.4915C54.5298 54.2131 54.1705 54.0739 53.75 54.0739C53.1193 54.0739 52.6264 54.3849 52.2713 55.0071C51.9162 55.6264 51.7386 56.5028 51.7386 57.6364C51.7386 58.392 51.8182 59.0341 51.9773 59.5625C52.1364 60.0909 52.3651 60.4929 52.6634 60.7685C52.9645 61.044 53.3267 61.1818 53.75 61.1818ZM61.25 62.1193C60.608 62.1193 60.0611 61.9446 59.6094 61.5952C59.1577 61.2429 58.8125 60.733 58.5739 60.0653C58.3352 59.3949 58.2159 58.5852 58.2159 57.6364C58.2159 56.6932 58.3352 55.8878 58.5739 55.2202C58.8153 54.5497 59.1619 54.0384 59.6136 53.6861C60.0682 53.331 60.6136 53.1534 61.25 53.1534C61.8864 53.1534 62.4304 53.331 62.8821 53.6861C63.3366 54.0384 63.6832 54.5497 63.9219 55.2202C64.1634 55.8878 64.2841 56.6932 64.2841 57.6364C64.2841 58.5852 64.1648 59.3949 63.9261 60.0653C63.6875 60.733 63.3423 61.2429 62.8906 61.5952C62.4389 61.9446 61.892 62.1193 61.25 62.1193ZM61.25 61.1818C61.8864 61.1818 62.3807 60.875 62.733 60.2614C63.0852 59.6477 63.2614 58.7727 63.2614 57.6364C63.2614 56.8807 63.1804 56.2372 63.0185 55.706C62.8594 55.1747 62.6293 54.7699 62.3281 54.4915C62.0298 54.2131 61.6705 54.0739 61.25 54.0739C60.6193 54.0739 60.1264 54.3849 59.7713 55.0071C59.4162 55.6264 59.2386 56.5028 59.2386 57.6364C59.2386 58.392 59.3182 59.0341 59.4773 59.5625C59.6364 60.0909 59.8651 60.4929 60.1634 60.7685C60.4645 61.044 60.8267 61.1818 61.25 61.1818Z" fill="#4F4F4F"/>
</svg>
