<svg width="351" height="58" viewBox="0 0 351 58" fill="none" xmlns="http://www.w3.org/2000/svg">
<rect width="351" height="58" rx="29" fill="#E8604C"/>
<path d="M79.5644 29.1327C79.5644 27.8522 79.8594 26.7036 80.4494 25.6868C81.0519 24.67 81.8616 23.8791 82.8785 23.3142C83.9078 22.7368 85.0314 22.448 86.249 22.448C87.6424 22.448 88.879 22.7932 89.9585 23.4837C91.0507 24.1616 91.8415 25.1282 92.3311 26.3835H89.7514C89.4125 25.6931 88.9417 25.1784 88.3392 24.8394C87.7366 24.5005 87.0399 24.331 86.249 24.331C85.3828 24.331 84.6108 24.5256 83.9329 24.9148C83.2551 25.3039 82.7215 25.8625 82.3324 26.5906C81.9558 27.3187 81.7675 28.1661 81.7675 29.1327C81.7675 30.0993 81.9558 30.9466 82.3324 31.6747C82.7215 32.4028 83.2551 32.9677 83.9329 33.3694C84.6108 33.7586 85.3828 33.9532 86.249 33.9532C87.0399 33.9532 87.7366 33.7837 88.3392 33.4447C88.9417 33.1058 89.4125 32.5911 89.7514 31.9007H92.3311C91.8415 33.156 91.0507 34.1226 89.9585 34.8005C88.879 35.4784 87.6424 35.8173 86.249 35.8173C85.0188 35.8173 83.8953 35.5349 82.8785 34.97C81.8616 34.3925 81.0519 33.5954 80.4494 32.5786C79.8594 31.5617 79.5644 30.4131 79.5644 29.1327ZM99.3441 35.8738C98.365 35.8738 97.4799 35.6541 96.6891 35.2148C95.8982 34.7628 95.2768 34.1352 94.8249 33.3318C94.373 32.5158 94.147 31.5743 94.147 30.5073C94.147 29.4528 94.3793 28.5176 94.8437 27.7016C95.3082 26.8856 95.9422 26.258 96.7456 25.8186C97.549 25.3792 98.4466 25.1595 99.4383 25.1595C100.43 25.1595 101.328 25.3792 102.131 25.8186C102.934 26.258 103.568 26.8856 104.033 27.7016C104.497 28.5176 104.729 29.4528 104.729 30.5073C104.729 31.5617 104.491 32.497 104.014 33.3129C103.537 34.1289 102.884 34.7628 102.056 35.2148C101.24 35.6541 100.336 35.8738 99.3441 35.8738ZM99.3441 34.0096C99.8965 34.0096 100.411 33.8778 100.888 33.6142C101.378 33.3506 101.773 32.9552 102.074 32.4279C102.376 31.9007 102.526 31.2605 102.526 30.5073C102.526 29.7541 102.382 29.1201 102.093 28.6054C101.805 28.0782 101.422 27.6828 100.945 27.4191C100.468 27.1555 99.953 27.0237 99.4006 27.0237C98.8483 27.0237 98.3336 27.1555 97.8565 27.4191C97.3921 27.6828 97.0217 28.0782 96.7456 28.6054C96.4694 29.1201 96.3313 29.7541 96.3313 30.5073C96.3313 31.6245 96.6138 32.4907 97.1787 33.1058C97.7561 33.7084 98.4779 34.0096 99.3441 34.0096ZM112.086 25.1595C112.902 25.1595 113.63 25.329 114.271 25.668C114.923 26.0069 115.432 26.509 115.796 27.1744C116.16 27.8397 116.342 28.6431 116.342 29.5846V35.7043H114.214V29.9047C114.214 28.9758 113.982 28.2665 113.517 27.7769C113.053 27.2748 112.419 27.0237 111.616 27.0237C110.812 27.0237 110.172 27.2748 109.695 27.7769C109.23 28.2665 108.998 28.9758 108.998 29.9047V35.7043H106.852V25.329H108.998V26.5153C109.35 26.0885 109.795 25.7558 110.335 25.5173C110.887 25.2788 111.471 25.1595 112.086 25.1595ZM123.43 27.0802H121.509V35.7043H119.344V27.0802H118.12V25.329H119.344V24.5946C119.344 23.4021 119.657 22.5359 120.285 21.9961C120.925 21.4438 121.923 21.1676 123.279 21.1676V22.9564C122.626 22.9564 122.168 23.082 121.905 23.333C121.641 23.5715 121.509 23.9921 121.509 24.5946V25.329H123.43V27.0802ZM126.424 23.9544C126.035 23.9544 125.709 23.8226 125.445 23.559C125.182 23.2954 125.05 22.969 125.05 22.5798C125.05 22.1907 125.182 21.8643 125.445 21.6007C125.709 21.3371 126.035 21.2052 126.424 21.2052C126.801 21.2052 127.121 21.3371 127.385 21.6007C127.648 21.8643 127.78 22.1907 127.78 22.5798C127.78 22.969 127.648 23.2954 127.385 23.559C127.121 23.8226 126.801 23.9544 126.424 23.9544ZM127.479 25.329V35.7043H125.332V25.329H127.479ZM132.444 26.8354C132.758 26.3082 133.172 25.9002 133.687 25.6115C134.214 25.3102 134.835 25.1595 135.551 25.1595V27.3815H135.005C134.164 27.3815 133.523 27.5949 133.084 28.0217C132.657 28.4485 132.444 29.1892 132.444 30.2436V35.7043H130.297V25.329H132.444V26.8354ZM150.083 25.1595C150.899 25.1595 151.628 25.329 152.268 25.668C152.921 26.0069 153.429 26.509 153.793 27.1744C154.17 27.8397 154.358 28.6431 154.358 29.5846V35.7043H152.23V29.9047C152.23 28.9758 151.998 28.2665 151.533 27.7769C151.069 27.2748 150.435 27.0237 149.632 27.0237C148.828 27.0237 148.188 27.2748 147.711 27.7769C147.246 28.2665 147.014 28.9758 147.014 29.9047V35.7043H144.886V29.9047C144.886 28.9758 144.654 28.2665 144.19 27.7769C143.725 27.2748 143.091 27.0237 142.288 27.0237C141.484 27.0237 140.844 27.2748 140.367 27.7769C139.903 28.2665 139.67 28.9758 139.67 29.9047V35.7043H137.524V25.329H139.67V26.5153C140.022 26.0885 140.468 25.7558 141.007 25.5173C141.547 25.2788 142.125 25.1595 142.74 25.1595C143.568 25.1595 144.309 25.3353 144.962 25.6868C145.614 26.0383 146.117 26.5467 146.468 27.212C146.782 26.5843 147.272 26.0885 147.937 25.7244C148.602 25.3478 149.318 25.1595 150.083 25.1595ZM164.127 22.6175V35.7043H161.981V22.6175H164.127ZM172.18 25.1595C172.996 25.1595 173.725 25.329 174.365 25.668C175.018 26.0069 175.526 26.509 175.89 27.1744C176.254 27.8397 176.436 28.6431 176.436 29.5846V35.7043H174.308V29.9047C174.308 28.9758 174.076 28.2665 173.612 27.7769C173.147 27.2748 172.513 27.0237 171.71 27.0237C170.906 27.0237 170.266 27.2748 169.789 27.7769C169.325 28.2665 169.092 28.9758 169.092 29.9047V35.7043H166.946V25.329H169.092V26.5153C169.444 26.0885 169.889 25.7558 170.429 25.5173C170.982 25.2788 171.565 25.1595 172.18 25.1595ZM183.524 27.0802H181.603V35.7043H179.438V27.0802H178.214V25.329H179.438V24.5946C179.438 23.4021 179.752 22.5359 180.379 21.9961C181.02 21.4438 182.018 21.1676 183.373 21.1676V22.9564C182.721 22.9564 182.262 23.082 181.999 23.333C181.735 23.5715 181.603 23.9921 181.603 24.5946V25.329H183.524V27.0802ZM189.927 35.8738C188.948 35.8738 188.063 35.6541 187.272 35.2148C186.481 34.7628 185.859 34.1352 185.408 33.3318C184.956 32.5158 184.73 31.5743 184.73 30.5073C184.73 29.4528 184.962 28.5176 185.426 27.7016C185.891 26.8856 186.525 26.258 187.328 25.8186C188.132 25.3792 189.029 25.1595 190.021 25.1595C191.013 25.1595 191.91 25.3792 192.714 25.8186C193.517 26.258 194.151 26.8856 194.615 27.7016C195.08 28.5176 195.312 29.4528 195.312 30.5073C195.312 31.5617 195.074 32.497 194.597 33.3129C194.12 34.1289 193.467 34.7628 192.638 35.2148C191.822 35.6541 190.918 35.8738 189.927 35.8738ZM189.927 34.0096C190.479 34.0096 190.994 33.8778 191.471 33.6142C191.96 33.3506 192.356 32.9552 192.657 32.4279C192.958 31.9007 193.109 31.2605 193.109 30.5073C193.109 29.7541 192.965 29.1201 192.676 28.6054C192.387 28.0782 192.004 27.6828 191.527 27.4191C191.05 27.1555 190.536 27.0237 189.983 27.0237C189.431 27.0237 188.916 27.1555 188.439 27.4191C187.975 27.6828 187.604 28.0782 187.328 28.6054C187.052 29.1201 186.914 29.7541 186.914 30.5073C186.914 31.6245 187.196 32.4907 187.761 33.1058C188.339 33.7084 189.061 34.0096 189.927 34.0096ZM199.581 26.8354C199.895 26.3082 200.309 25.9002 200.824 25.6115C201.351 25.3102 201.972 25.1595 202.688 25.1595V27.3815H202.142C201.301 27.3815 200.66 27.5949 200.221 28.0217C199.794 28.4485 199.581 29.1892 199.581 30.2436V35.7043H197.434V25.329H199.581V26.8354ZM217.221 25.1595C218.036 25.1595 218.765 25.329 219.405 25.668C220.058 26.0069 220.566 26.509 220.93 27.1744C221.307 27.8397 221.495 28.6431 221.495 29.5846V35.7043H219.367V29.9047C219.367 28.9758 219.135 28.2665 218.67 27.7769C218.206 27.2748 217.572 27.0237 216.769 27.0237C215.965 27.0237 215.325 27.2748 214.848 27.7769C214.383 28.2665 214.151 28.9758 214.151 29.9047V35.7043H212.023V29.9047C212.023 28.9758 211.791 28.2665 211.327 27.7769C210.862 27.2748 210.228 27.0237 209.425 27.0237C208.621 27.0237 207.981 27.2748 207.504 27.7769C207.04 28.2665 206.808 28.9758 206.808 29.9047V35.7043H204.661V25.329H206.808V26.5153C207.159 26.0885 207.605 25.7558 208.144 25.5173C208.684 25.2788 209.262 25.1595 209.877 25.1595C210.705 25.1595 211.446 25.3353 212.099 25.6868C212.752 26.0383 213.254 26.5467 213.605 27.212C213.919 26.5843 214.409 26.0885 215.074 25.7244C215.739 25.3478 216.455 25.1595 217.221 25.1595ZM223.511 30.4696C223.511 29.4277 223.724 28.505 224.151 27.7016C224.59 26.8982 225.18 26.2768 225.921 25.8374C226.674 25.3855 227.503 25.1595 228.407 25.1595C229.223 25.1595 229.932 25.3227 230.534 25.6491C231.15 25.963 231.639 26.3584 232.003 26.8354V25.329H234.169V35.7043H232.003V34.1603C231.639 34.6499 231.143 35.0578 230.516 35.3842C229.888 35.7106 229.172 35.8738 228.369 35.8738C227.478 35.8738 226.662 35.6479 225.921 35.1959C225.18 34.7315 224.59 34.0912 224.151 33.2753C223.724 32.4468 223.511 31.5115 223.511 30.4696ZM232.003 30.5073C232.003 29.7917 231.853 29.1703 231.551 28.6431C231.263 28.1159 230.88 27.7141 230.403 27.438C229.926 27.1618 229.411 27.0237 228.859 27.0237C228.306 27.0237 227.792 27.1618 227.315 27.438C226.838 27.7016 226.448 28.097 226.147 28.6243C225.858 29.139 225.714 29.7541 225.714 30.4696C225.714 31.1851 225.858 31.8128 226.147 32.3526C226.448 32.8924 226.838 33.3067 227.315 33.5954C227.804 33.8716 228.319 34.0096 228.859 34.0096C229.411 34.0096 229.926 33.8716 230.403 33.5954C230.88 33.3192 231.263 32.9175 231.551 32.3903C231.853 31.8505 232.003 31.2228 232.003 30.5073ZM239.493 27.0802V32.8234C239.493 33.2125 239.58 33.495 239.756 33.6707C239.944 33.8339 240.258 33.9155 240.698 33.9155H242.016V35.7043H240.321C239.354 35.7043 238.614 35.4784 238.099 35.0265C237.584 34.5745 237.327 33.8402 237.327 32.8234V27.0802H236.103V25.329H237.327V22.7493H239.493V25.329H242.016V27.0802H239.493ZM245.086 23.9544C244.697 23.9544 244.371 23.8226 244.107 23.559C243.844 23.2954 243.712 22.969 243.712 22.5798C243.712 22.1907 243.844 21.8643 244.107 21.6007C244.371 21.3371 244.697 21.2052 245.086 21.2052C245.463 21.2052 245.783 21.3371 246.047 21.6007C246.31 21.8643 246.442 22.1907 246.442 22.5798C246.442 22.969 246.31 23.2954 246.047 23.559C245.783 23.8226 245.463 23.9544 245.086 23.9544ZM246.141 25.329V35.7043H243.994V25.329H246.141ZM253.46 35.8738C252.48 35.8738 251.595 35.6541 250.805 35.2148C250.014 34.7628 249.392 34.1352 248.94 33.3318C248.488 32.5158 248.263 31.5743 248.263 30.5073C248.263 29.4528 248.495 28.5176 248.959 27.7016C249.424 26.8856 250.058 26.258 250.861 25.8186C251.664 25.3792 252.562 25.1595 253.554 25.1595C254.545 25.1595 255.443 25.3792 256.246 25.8186C257.05 26.258 257.684 26.8856 258.148 27.7016C258.613 28.5176 258.845 29.4528 258.845 30.5073C258.845 31.5617 258.606 32.497 258.129 33.3129C257.652 34.1289 257 34.7628 256.171 35.2148C255.355 35.6541 254.451 35.8738 253.46 35.8738ZM253.46 34.0096C254.012 34.0096 254.527 33.8778 255.004 33.6142C255.493 33.3506 255.889 32.9552 256.19 32.4279C256.491 31.9007 256.642 31.2605 256.642 30.5073C256.642 29.7541 256.497 29.1201 256.209 28.6054C255.92 28.0782 255.537 27.6828 255.06 27.4191C254.583 27.1555 254.068 27.0237 253.516 27.0237C252.964 27.0237 252.449 27.1555 251.972 27.4191C251.508 27.6828 251.137 28.0782 250.861 28.6054C250.585 29.1201 250.447 29.7541 250.447 30.5073C250.447 31.6245 250.729 32.4907 251.294 33.1058C251.872 33.7084 252.593 34.0096 253.46 34.0096ZM266.202 25.1595C267.018 25.1595 267.746 25.329 268.386 25.668C269.039 26.0069 269.547 26.509 269.911 27.1744C270.275 27.8397 270.457 28.6431 270.457 29.5846V35.7043H268.33V29.9047C268.33 28.9758 268.097 28.2665 267.633 27.7769C267.168 27.2748 266.534 27.0237 265.731 27.0237C264.928 27.0237 264.287 27.2748 263.81 27.7769C263.346 28.2665 263.114 28.9758 263.114 29.9047V35.7043H260.967V25.329H263.114V26.5153C263.465 26.0885 263.911 25.7558 264.451 25.5173C265.003 25.2788 265.587 25.1595 266.202 25.1595Z" fill="white"/>
</svg>
