<svg width="560" height="290" viewBox="0 0 560 290" fill="none" xmlns="http://www.w3.org/2000/svg">
<g filter="url(#filter0_d_207_2537)">
<rect x="5" y="5" width="550" height="280" rx="15" fill="white"/>
</g>
<path d="M63.096 67V61.752H52.152V58.104L62.84 43.16H67.384V58.104H70.872V61.752H67.384V67H63.096ZM55.352 59.672L54.584 58.104H63.096V46.584L64.216 46.936L55.352 59.672ZM87.673 67.384C85.9877 67.384 84.4837 66.9893 83.161 66.2C81.8383 65.3893 80.793 64.2907 80.025 62.904C79.257 61.5173 78.873 59.9813 78.873 58.296C78.873 56.5893 79.257 55.0533 80.025 53.688C80.793 52.3227 81.8383 51.2347 83.161 50.424C84.505 49.6133 85.9983 49.208 87.641 49.208C88.9637 49.208 90.137 49.4747 91.161 50.008C92.2063 50.52 93.0277 51.2453 93.625 52.184L92.985 53.048V42.776H97.177V67H93.209V63.64L93.657 64.472C93.0597 65.4107 92.2277 66.136 91.161 66.648C90.0943 67.1387 88.9317 67.384 87.673 67.384ZM88.121 63.544C89.081 63.544 89.9237 63.32 90.649 62.872C91.3743 62.424 91.9397 61.8053 92.345 61.016C92.7717 60.2267 92.985 59.32 92.985 58.296C92.985 57.2933 92.7717 56.3973 92.345 55.608C91.9397 54.7973 91.3743 54.168 90.649 53.72C89.9237 53.272 89.081 53.048 88.121 53.048C87.1823 53.048 86.3397 53.2827 85.593 53.752C84.8463 54.2 84.2597 54.8187 83.833 55.608C83.4277 56.376 83.225 57.272 83.225 58.296C83.225 59.32 83.4277 60.2267 83.833 61.016C84.2597 61.8053 84.8463 62.424 85.593 62.872C86.3397 63.32 87.1823 63.544 88.121 63.544ZM106.357 67.384C105.141 67.384 104.085 67.1813 103.189 66.776C102.293 66.3707 101.6 65.7947 101.109 65.048C100.618 64.28 100.373 63.3947 100.373 62.392C100.373 61.432 100.586 60.5787 101.013 59.832C101.44 59.064 102.101 58.424 102.997 57.912C103.893 57.4 105.024 57.0373 106.389 56.824L112.085 55.896V59.096L107.189 59.928C106.357 60.0773 105.738 60.344 105.333 60.728C104.928 61.112 104.725 61.6133 104.725 62.232C104.725 62.8293 104.949 63.3093 105.397 63.672C105.866 64.0133 106.442 64.184 107.125 64.184C108 64.184 108.768 64.0027 109.429 63.64C110.112 63.256 110.634 62.7333 110.997 62.072C111.381 61.4107 111.573 60.6853 111.573 59.896V55.416C111.573 54.6693 111.274 54.0507 110.677 53.56C110.101 53.048 109.333 52.792 108.373 52.792C107.477 52.792 106.677 53.0373 105.973 53.528C105.29 53.9973 104.789 54.6267 104.469 55.416L101.045 53.752C101.386 52.8347 101.92 52.0453 102.645 51.384C103.392 50.7013 104.266 50.168 105.269 49.784C106.272 49.4 107.36 49.208 108.533 49.208C109.962 49.208 111.221 49.4747 112.309 50.008C113.397 50.52 114.24 51.2453 114.837 52.184C115.456 53.1013 115.765 54.1787 115.765 55.416V67H111.797V64.024L112.693 63.96C112.245 64.7067 111.712 65.336 111.093 65.848C110.474 66.3387 109.77 66.7227 108.981 67C108.192 67.256 107.317 67.384 106.357 67.384ZM121.752 74.072C121.282 74.072 120.824 74.0293 120.376 73.944C119.928 73.88 119.522 73.7627 119.16 73.592V70.072C119.437 70.136 119.768 70.2 120.152 70.264C120.557 70.328 120.93 70.36 121.272 70.36C122.232 70.36 122.925 70.136 123.352 69.688C123.8 69.24 124.194 68.6533 124.536 67.928L125.688 65.24L125.624 68.76L118.04 49.592H122.552L127.864 63.736H126.264L131.544 49.592H136.088L128.504 68.76C128.056 69.8907 127.512 70.8507 126.872 71.64C126.231 72.4293 125.485 73.0267 124.632 73.432C123.8 73.8587 122.84 74.072 121.752 74.072ZM145.014 67.384C143.158 67.384 141.536 66.9467 140.15 66.072C138.784 65.176 137.846 63.9707 137.334 62.456L140.47 60.952C140.918 61.9333 141.536 62.7013 142.326 63.256C143.136 63.8107 144.032 64.088 145.014 64.088C145.782 64.088 146.39 63.9173 146.838 63.576C147.286 63.2347 147.51 62.7867 147.51 62.232C147.51 61.8907 147.414 61.6133 147.222 61.4C147.051 61.1653 146.806 60.9733 146.486 60.824C146.187 60.6533 145.856 60.5147 145.494 60.408L142.646 59.608C141.174 59.1813 140.054 58.5307 139.286 57.656C138.539 56.7813 138.166 55.7467 138.166 54.552C138.166 53.4853 138.432 52.5573 138.966 51.768C139.52 50.9573 140.278 50.328 141.238 49.88C142.219 49.432 143.339 49.208 144.598 49.208C146.24 49.208 147.691 49.6027 148.95 50.392C150.208 51.1813 151.104 52.2907 151.638 53.72L148.438 55.224C148.139 54.4347 147.638 53.8053 146.934 53.336C146.23 52.8667 145.44 52.632 144.566 52.632C143.862 52.632 143.307 52.792 142.902 53.112C142.496 53.432 142.294 53.848 142.294 54.36C142.294 54.68 142.379 54.9573 142.55 55.192C142.72 55.4267 142.955 55.6187 143.254 55.768C143.574 55.9173 143.936 56.056 144.342 56.184L147.126 57.016C148.555 57.4427 149.654 58.0827 150.422 58.936C151.211 59.7893 151.606 60.8347 151.606 62.072C151.606 63.1173 151.328 64.0453 150.774 64.856C150.219 65.6453 149.451 66.264 148.47 66.712C147.488 67.16 146.336 67.384 145.014 67.384ZM161.379 60.152V56.472H174.979V60.152H161.379ZM192.814 67.384C191.512 67.384 190.275 67.1493 189.102 66.68C187.95 66.1893 186.958 65.5067 186.126 64.632C185.315 63.736 184.76 62.68 184.462 61.464L188.27 60.12C188.654 61.208 189.24 62.04 190.03 62.616C190.819 63.1707 191.747 63.448 192.814 63.448C193.667 63.448 194.403 63.288 195.022 62.968C195.662 62.648 196.163 62.1893 196.526 61.592C196.888 60.9733 197.07 60.248 197.07 59.416C197.07 58.584 196.888 57.88 196.526 57.304C196.184 56.7067 195.694 56.248 195.054 55.928C194.414 55.608 193.656 55.448 192.782 55.448C192.376 55.448 191.95 55.4907 191.502 55.576C191.075 55.6613 190.691 55.7893 190.35 55.96L189.358 53.88L195.534 46.84H185.806V43.16H200.43V46.584L194.222 53.848L194.286 52.216C195.715 52.2373 196.963 52.5467 198.03 53.144C199.096 53.7413 199.928 54.5627 200.526 55.608C201.123 56.6533 201.422 57.88 201.422 59.288C201.422 60.824 201.048 62.2107 200.302 63.448C199.555 64.664 198.531 65.624 197.23 66.328C195.928 67.032 194.456 67.384 192.814 67.384ZM210.64 67V49.592H214.576V53.016L214.256 52.408C214.661 51.3627 215.322 50.5733 216.24 50.04C217.178 49.4853 218.266 49.208 219.504 49.208C220.784 49.208 221.914 49.4853 222.896 50.04C223.898 50.5947 224.677 51.3733 225.232 52.376C225.786 53.3573 226.064 54.4987 226.064 55.8V67H221.872V56.792C221.872 56.024 221.722 55.3627 221.424 54.808C221.125 54.2533 220.709 53.8267 220.176 53.528C219.664 53.208 219.056 53.048 218.352 53.048C217.669 53.048 217.061 53.208 216.528 53.528C215.994 53.8267 215.578 54.2533 215.28 54.808C214.981 55.3627 214.832 56.024 214.832 56.792V67H210.64ZM229.608 67V49.592H233.8V67H229.608ZM229.608 47.64V43.16H233.8V47.64H229.608ZM246.119 74.04C244.817 74.04 243.612 73.8267 242.503 73.4C241.393 72.9733 240.433 72.376 239.623 71.608C238.833 70.8613 238.257 69.976 237.895 68.952L241.799 67.48C242.055 68.2907 242.556 68.9413 243.303 69.432C244.071 69.944 245.009 70.2 246.119 70.2C246.972 70.2 247.719 70.04 248.359 69.72C249.02 69.4 249.532 68.9307 249.895 68.312C250.257 67.7147 250.439 66.9893 250.439 66.136V62.168L251.239 63.128C250.641 64.1733 249.841 64.9627 248.839 65.496C247.836 66.0293 246.695 66.296 245.415 66.296C243.793 66.296 242.343 65.9227 241.063 65.176C239.783 64.4293 238.78 63.4053 238.055 62.104C237.329 60.8027 236.967 59.3413 236.967 57.72C236.967 56.0773 237.329 54.616 238.055 53.336C238.78 52.056 239.772 51.0533 241.031 50.328C242.289 49.5813 243.719 49.208 245.319 49.208C246.62 49.208 247.761 49.4853 248.743 50.04C249.745 50.5733 250.577 51.352 251.239 52.376L250.663 53.432V49.592H254.631V66.136C254.631 67.6507 254.257 69.0053 253.511 70.2C252.785 71.3947 251.783 72.3333 250.503 73.016C249.244 73.6987 247.783 74.04 246.119 74.04ZM245.927 62.424C246.823 62.424 247.601 62.232 248.263 61.848C248.945 61.4427 249.479 60.888 249.863 60.184C250.247 59.48 250.439 58.6693 250.439 57.752C250.439 56.856 250.236 56.056 249.831 55.352C249.447 54.6267 248.913 54.0613 248.231 53.656C247.569 53.2507 246.801 53.048 245.927 53.048C245.052 53.048 244.263 53.2507 243.559 53.656C242.855 54.0613 242.3 54.6267 241.895 55.352C241.511 56.056 241.319 56.856 241.319 57.752C241.319 58.648 241.511 59.448 241.895 60.152C242.3 60.856 242.844 61.4107 243.527 61.816C244.231 62.2213 245.031 62.424 245.927 62.424ZM258.546 67V42.776H262.738V53.016L262.162 52.408C262.567 51.3627 263.228 50.5733 264.146 50.04C265.084 49.4853 266.172 49.208 267.41 49.208C268.69 49.208 269.82 49.4853 270.802 50.04C271.804 50.5947 272.583 51.3733 273.138 52.376C273.692 53.3573 273.97 54.4987 273.97 55.8V67H269.778V56.792C269.778 56.024 269.628 55.3627 269.33 54.808C269.031 54.2533 268.615 53.8267 268.082 53.528C267.57 53.208 266.962 53.048 266.258 53.048C265.575 53.048 264.967 53.208 264.434 53.528C263.9 53.8267 263.484 54.2533 263.186 54.808C262.887 55.3627 262.738 56.024 262.738 56.792V67H258.546ZM285.451 67.192C283.488 67.192 281.963 66.6587 280.875 65.592C279.808 64.504 279.275 62.9787 279.275 61.016V53.336H276.267V49.592H276.587C277.44 49.592 278.101 49.368 278.571 48.92C279.04 48.472 279.275 47.8213 279.275 46.968V45.624H283.467V49.592H287.467V53.336H283.467V60.792C283.467 61.368 283.563 61.8587 283.755 62.264C283.968 62.6693 284.288 62.9787 284.715 63.192C285.163 63.4053 285.728 63.512 286.411 63.512C286.56 63.512 286.731 63.5013 286.923 63.48C287.136 63.4587 287.339 63.4373 287.531 63.416V67C287.232 67.0427 286.891 67.0853 286.507 67.128C286.123 67.1707 285.771 67.192 285.451 67.192ZM297.357 67.384C295.501 67.384 293.88 66.9467 292.493 66.072C291.128 65.176 290.189 63.9707 289.677 62.456L292.813 60.952C293.261 61.9333 293.88 62.7013 294.669 63.256C295.48 63.8107 296.376 64.088 297.357 64.088C298.125 64.088 298.733 63.9173 299.181 63.576C299.629 63.2347 299.853 62.7867 299.853 62.232C299.853 61.8907 299.757 61.6133 299.565 61.4C299.395 61.1653 299.149 60.9733 298.829 60.824C298.531 60.6533 298.2 60.5147 297.837 60.408L294.989 59.608C293.517 59.1813 292.397 58.5307 291.629 57.656C290.883 56.7813 290.509 55.7467 290.509 54.552C290.509 53.4853 290.776 52.5573 291.309 51.768C291.864 50.9573 292.621 50.328 293.581 49.88C294.563 49.432 295.683 49.208 296.941 49.208C298.584 49.208 300.035 49.6027 301.293 50.392C302.552 51.1813 303.448 52.2907 303.981 53.72L300.781 55.224C300.483 54.4347 299.981 53.8053 299.277 53.336C298.573 52.8667 297.784 52.632 296.909 52.632C296.205 52.632 295.651 52.792 295.245 53.112C294.84 53.432 294.637 53.848 294.637 54.36C294.637 54.68 294.723 54.9573 294.893 55.192C295.064 55.4267 295.299 55.6187 295.597 55.768C295.917 55.9173 296.28 56.056 296.685 56.184L299.469 57.016C300.899 57.4427 301.997 58.0827 302.765 58.936C303.555 59.7893 303.949 60.8347 303.949 62.072C303.949 63.1173 303.672 64.0453 303.117 64.856C302.563 65.6453 301.795 66.264 300.813 66.712C299.832 67.16 298.68 67.384 297.357 67.384Z" fill="#E8604C"/>
<path d="M52.2784 104V92.3636H56.5398C57.3655 92.3636 58.0492 92.5 58.5909 92.7727C59.1326 93.0417 59.5379 93.4072 59.8068 93.8693C60.0758 94.3277 60.2102 94.8447 60.2102 95.4205C60.2102 95.9053 60.1212 96.3144 59.9432 96.6477C59.7652 96.9773 59.5265 97.2424 59.2273 97.4432C58.9318 97.6402 58.6061 97.7841 58.25 97.875V97.9886C58.6364 98.0076 59.0133 98.1326 59.3807 98.3636C59.7519 98.5909 60.0587 98.9148 60.3011 99.3352C60.5436 99.7557 60.6648 100.267 60.6648 100.869C60.6648 101.464 60.5246 101.998 60.2443 102.472C59.9678 102.941 59.5398 103.314 58.9602 103.591C58.3807 103.864 57.6402 104 56.7386 104H52.2784ZM54.0341 102.494H56.5682C57.4091 102.494 58.0114 102.331 58.375 102.006C58.7386 101.68 58.9205 101.273 58.9205 100.784C58.9205 100.417 58.8277 100.08 58.642 99.7727C58.4564 99.4659 58.1913 99.2216 57.8466 99.0398C57.5057 98.858 57.1004 98.767 56.6307 98.767H54.0341V102.494ZM54.0341 97.3977H56.3864C56.7803 97.3977 57.1345 97.322 57.4489 97.1705C57.767 97.0189 58.0189 96.8068 58.2045 96.5341C58.3939 96.2576 58.4886 95.9318 58.4886 95.5568C58.4886 95.0758 58.3201 94.6723 57.983 94.3466C57.6458 94.0208 57.1288 93.858 56.4318 93.858H54.0341V97.3977ZM65.1506 104.193C64.5975 104.193 64.0975 104.091 63.6506 103.886C63.2036 103.678 62.8494 103.377 62.5881 102.983C62.3305 102.589 62.2017 102.106 62.2017 101.534C62.2017 101.042 62.2964 100.636 62.4858 100.318C62.6752 100 62.9309 99.7481 63.2528 99.5625C63.5748 99.3769 63.9347 99.2367 64.3324 99.142C64.7301 99.0473 65.1354 98.9754 65.5483 98.9261C66.071 98.8655 66.4953 98.8163 66.821 98.7784C67.1468 98.7367 67.3835 98.6705 67.5312 98.5795C67.679 98.4886 67.7528 98.3409 67.7528 98.1364V98.0966C67.7528 97.6004 67.6127 97.2159 67.3324 96.9432C67.0559 96.6705 66.643 96.5341 66.0938 96.5341C65.5218 96.5341 65.071 96.661 64.7415 96.9148C64.4157 97.1648 64.1903 97.4432 64.0653 97.75L62.4688 97.3864C62.6581 96.8561 62.9347 96.428 63.2983 96.1023C63.6657 95.7727 64.0881 95.5341 64.5653 95.3864C65.0426 95.2348 65.5445 95.1591 66.071 95.1591C66.4195 95.1591 66.7888 95.2008 67.179 95.2841C67.5729 95.3636 67.9403 95.5114 68.2812 95.7273C68.6259 95.9432 68.9081 96.2519 69.1278 96.6534C69.3475 97.0511 69.4574 97.5682 69.4574 98.2045V104H67.7983V102.807H67.7301C67.6203 103.027 67.4555 103.242 67.2358 103.455C67.0161 103.667 66.7339 103.843 66.3892 103.983C66.0445 104.123 65.6316 104.193 65.1506 104.193ZM65.5199 102.83C65.9896 102.83 66.3911 102.737 66.7244 102.551C67.0616 102.366 67.3172 102.123 67.4915 101.824C67.6695 101.521 67.7585 101.197 67.7585 100.852V99.7273C67.6979 99.7879 67.5805 99.8447 67.4062 99.8977C67.2358 99.947 67.0407 99.9905 66.821 100.028C66.6013 100.062 66.3873 100.095 66.179 100.125C65.9706 100.152 65.7964 100.174 65.6562 100.193C65.3267 100.235 65.0256 100.305 64.7528 100.403C64.4839 100.502 64.268 100.644 64.1051 100.83C63.946 101.011 63.8665 101.254 63.8665 101.557C63.8665 101.977 64.0218 102.295 64.3324 102.511C64.643 102.723 65.0388 102.83 65.5199 102.83ZM73.419 98.8182V104H71.7202V95.2727H73.3509V96.6932H73.4588C73.6596 96.2311 73.974 95.8598 74.402 95.5795C74.8338 95.2992 75.3774 95.1591 76.0327 95.1591C76.6274 95.1591 77.1482 95.2841 77.5952 95.5341C78.0421 95.7803 78.3887 96.1477 78.6349 96.6364C78.8812 97.125 79.0043 97.7292 79.0043 98.4489V104H77.3054V98.6534C77.3054 98.0208 77.1406 97.5265 76.8111 97.1705C76.4815 96.8106 76.0289 96.6307 75.4531 96.6307C75.0592 96.6307 74.7088 96.7159 74.402 96.8864C74.099 97.0568 73.8584 97.3068 73.6804 97.6364C73.5062 97.9621 73.419 98.3561 73.419 98.8182ZM84.9418 107.455C84.2486 107.455 83.652 107.364 83.152 107.182C82.6558 107 82.2505 106.759 81.9361 106.46C81.6217 106.161 81.3868 105.833 81.2315 105.477L82.6918 104.875C82.794 105.042 82.9304 105.218 83.1009 105.403C83.2751 105.593 83.5099 105.754 83.8054 105.886C84.1046 106.019 84.4891 106.085 84.9588 106.085C85.6027 106.085 86.1349 105.928 86.5554 105.614C86.9759 105.303 87.1861 104.807 87.1861 104.125V102.409H87.0781C86.9759 102.595 86.8281 102.801 86.6349 103.028C86.4455 103.256 86.1842 103.453 85.8509 103.619C85.5175 103.786 85.0838 103.869 84.5497 103.869C83.8603 103.869 83.2391 103.708 82.6861 103.386C82.1368 103.061 81.7012 102.581 81.3793 101.949C81.0611 101.312 80.902 100.53 80.902 99.6023C80.902 98.6742 81.0592 97.8788 81.3736 97.2159C81.6918 96.553 82.1274 96.0455 82.6804 95.6932C83.2334 95.3371 83.8603 95.1591 84.5611 95.1591C85.1027 95.1591 85.5402 95.25 85.8736 95.4318C86.2069 95.6098 86.4664 95.8182 86.652 96.0568C86.8414 96.2955 86.9872 96.5057 87.0895 96.6875H87.2145V95.2727H88.8793V104.193C88.8793 104.943 88.705 105.559 88.3565 106.04C88.008 106.521 87.5365 106.877 86.9418 107.108C86.3509 107.339 85.6842 107.455 84.9418 107.455ZM84.9247 102.46C85.4134 102.46 85.8262 102.347 86.1634 102.119C86.5043 101.888 86.7618 101.559 86.9361 101.131C87.1141 100.699 87.2031 100.182 87.2031 99.5795C87.2031 98.9924 87.116 98.4754 86.9418 98.0284C86.7675 97.5814 86.5118 97.233 86.1747 96.983C85.8376 96.7292 85.4209 96.6023 84.9247 96.6023C84.4134 96.6023 83.9872 96.7348 83.6463 97C83.3054 97.2614 83.0478 97.6174 82.8736 98.0682C82.7031 98.5189 82.6179 99.0227 82.6179 99.5795C82.6179 100.152 82.705 100.653 82.8793 101.085C83.0535 101.517 83.3111 101.854 83.652 102.097C83.9967 102.339 84.4209 102.46 84.9247 102.46ZM92.7202 101.04L92.7088 98.9659H93.0043L96.4815 95.2727H98.5156L94.5497 99.4773H94.2827L92.7202 101.04ZM91.1577 104V92.3636H92.8565V104H91.1577ZM96.669 104L93.544 99.8523L94.7145 98.6648L98.7543 104H96.669ZM103.381 104.176C102.563 104.176 101.848 103.989 101.239 103.614C100.629 103.239 100.155 102.714 99.8182 102.04C99.4811 101.366 99.3125 100.578 99.3125 99.6761C99.3125 98.7708 99.4811 97.9792 99.8182 97.3011C100.155 96.6231 100.629 96.0966 101.239 95.7216C101.848 95.3466 102.563 95.1591 103.381 95.1591C104.199 95.1591 104.913 95.3466 105.523 95.7216C106.133 96.0966 106.606 96.6231 106.943 97.3011C107.28 97.9792 107.449 98.7708 107.449 99.6761C107.449 100.578 107.28 101.366 106.943 102.04C106.606 102.714 106.133 103.239 105.523 103.614C104.913 103.989 104.199 104.176 103.381 104.176ZM103.386 102.75C103.917 102.75 104.356 102.61 104.705 102.33C105.053 102.049 105.311 101.676 105.477 101.21C105.648 100.744 105.733 100.231 105.733 99.6705C105.733 99.1136 105.648 98.6023 105.477 98.1364C105.311 97.6667 105.053 97.2898 104.705 97.0057C104.356 96.7216 103.917 96.5795 103.386 96.5795C102.852 96.5795 102.409 96.7216 102.057 97.0057C101.708 97.2898 101.449 97.6667 101.278 98.1364C101.112 98.6023 101.028 99.1136 101.028 99.6705C101.028 100.231 101.112 100.744 101.278 101.21C101.449 101.676 101.708 102.049 102.057 102.33C102.409 102.61 102.852 102.75 103.386 102.75ZM110.908 101.04L110.896 98.9659H111.192L114.669 95.2727H116.703L112.737 99.4773H112.47L110.908 101.04ZM109.345 104V92.3636H111.044V104H109.345ZM114.857 104L111.732 99.8523L112.902 98.6648L116.942 104H114.857ZM129.344 97.4489V98.9205H121.344V97.4489H129.344ZM134.857 104V92.3636H139.004C139.91 92.3636 140.66 92.5284 141.254 92.858C141.849 93.1875 142.294 93.6383 142.589 94.2102C142.885 94.7784 143.033 95.4186 143.033 96.1307C143.033 96.8466 142.883 97.4905 142.584 98.0625C142.288 98.6307 141.841 99.0814 141.243 99.4148C140.648 99.7443 139.9 99.9091 138.999 99.9091H136.146V98.4205H138.839C139.411 98.4205 139.875 98.322 140.232 98.125C140.588 97.9242 140.849 97.6515 141.016 97.3068C141.182 96.9621 141.266 96.5701 141.266 96.1307C141.266 95.6913 141.182 95.3011 141.016 94.9602C140.849 94.6193 140.586 94.3523 140.226 94.1591C139.87 93.9659 139.4 93.8693 138.817 93.8693H136.612V104H134.857ZM147.416 104.193C146.863 104.193 146.363 104.091 145.916 103.886C145.469 103.678 145.115 103.377 144.854 102.983C144.596 102.589 144.467 102.106 144.467 101.534C144.467 101.042 144.562 100.636 144.751 100.318C144.941 100 145.196 99.7481 145.518 99.5625C145.84 99.3769 146.2 99.2367 146.598 99.142C146.996 99.0473 147.401 98.9754 147.814 98.9261C148.337 98.8655 148.761 98.8163 149.087 98.7784C149.412 98.7367 149.649 98.6705 149.797 98.5795C149.945 98.4886 150.018 98.3409 150.018 98.1364V98.0966C150.018 97.6004 149.878 97.2159 149.598 96.9432C149.321 96.6705 148.909 96.5341 148.359 96.5341C147.787 96.5341 147.337 96.661 147.007 96.9148C146.681 97.1648 146.456 97.4432 146.331 97.75L144.734 97.3864C144.924 96.8561 145.2 96.428 145.564 96.1023C145.931 95.7727 146.354 95.5341 146.831 95.3864C147.308 95.2348 147.81 95.1591 148.337 95.1591C148.685 95.1591 149.054 95.2008 149.445 95.2841C149.839 95.3636 150.206 95.5114 150.547 95.7273C150.892 95.9432 151.174 96.2519 151.393 96.6534C151.613 97.0511 151.723 97.5682 151.723 98.2045V104H150.064V102.807H149.996C149.886 103.027 149.721 103.242 149.501 103.455C149.282 103.667 149 103.843 148.655 103.983C148.31 104.123 147.897 104.193 147.416 104.193ZM147.786 102.83C148.255 102.83 148.657 102.737 148.99 102.551C149.327 102.366 149.583 102.123 149.757 101.824C149.935 101.521 150.024 101.197 150.024 100.852V99.7273C149.964 99.7879 149.846 99.8447 149.672 99.8977C149.501 99.947 149.306 99.9905 149.087 100.028C148.867 100.062 148.653 100.095 148.445 100.125C148.236 100.152 148.062 100.174 147.922 100.193C147.592 100.235 147.291 100.305 147.018 100.403C146.75 100.502 146.534 100.644 146.371 100.83C146.212 101.011 146.132 101.254 146.132 101.557C146.132 101.977 146.287 102.295 146.598 102.511C146.909 102.723 147.304 102.83 147.786 102.83ZM158.06 95.2727V96.6364H153.293V95.2727H158.06ZM154.571 93.1818H156.27V101.438C156.27 101.767 156.319 102.015 156.418 102.182C156.516 102.345 156.643 102.456 156.798 102.517C156.957 102.574 157.13 102.602 157.315 102.602C157.452 102.602 157.571 102.593 157.673 102.574C157.776 102.555 157.855 102.54 157.912 102.528L158.219 103.932C158.12 103.97 157.98 104.008 157.798 104.045C157.616 104.087 157.389 104.11 157.116 104.114C156.67 104.121 156.253 104.042 155.866 103.875C155.48 103.708 155.168 103.451 154.929 103.102C154.69 102.754 154.571 102.316 154.571 101.79V93.1818ZM164.013 95.2727V96.6364H159.246V95.2727H164.013ZM160.524 93.1818H162.223V101.438C162.223 101.767 162.272 102.015 162.371 102.182C162.469 102.345 162.596 102.456 162.751 102.517C162.911 102.574 163.083 102.602 163.268 102.602C163.405 102.602 163.524 102.593 163.626 102.574C163.729 102.555 163.808 102.54 163.865 102.528L164.172 103.932C164.073 103.97 163.933 104.008 163.751 104.045C163.57 104.087 163.342 104.11 163.07 104.114C162.623 104.121 162.206 104.042 161.82 103.875C161.433 103.708 161.121 103.451 160.882 103.102C160.643 102.754 160.524 102.316 160.524 101.79V93.1818ZM168.432 104.193C167.879 104.193 167.379 104.091 166.932 103.886C166.485 103.678 166.131 103.377 165.869 102.983C165.612 102.589 165.483 102.106 165.483 101.534C165.483 101.042 165.578 100.636 165.767 100.318C165.956 100 166.212 99.7481 166.534 99.5625C166.856 99.3769 167.216 99.2367 167.614 99.142C168.011 99.0473 168.417 98.9754 168.83 98.9261C169.352 98.8655 169.777 98.8163 170.102 98.7784C170.428 98.7367 170.665 98.6705 170.812 98.5795C170.96 98.4886 171.034 98.3409 171.034 98.1364V98.0966C171.034 97.6004 170.894 97.2159 170.614 96.9432C170.337 96.6705 169.924 96.5341 169.375 96.5341C168.803 96.5341 168.352 96.661 168.023 96.9148C167.697 97.1648 167.472 97.4432 167.347 97.75L165.75 97.3864C165.939 96.8561 166.216 96.428 166.58 96.1023C166.947 95.7727 167.369 95.5341 167.847 95.3864C168.324 95.2348 168.826 95.1591 169.352 95.1591C169.701 95.1591 170.07 95.2008 170.46 95.2841C170.854 95.3636 171.222 95.5114 171.562 95.7273C171.907 95.9432 172.189 96.2519 172.409 96.6534C172.629 97.0511 172.739 97.5682 172.739 98.2045V104H171.08V102.807H171.011C170.902 103.027 170.737 103.242 170.517 103.455C170.297 103.667 170.015 103.843 169.67 103.983C169.326 104.123 168.913 104.193 168.432 104.193ZM168.801 102.83C169.271 102.83 169.672 102.737 170.006 102.551C170.343 102.366 170.598 102.123 170.773 101.824C170.951 101.521 171.04 101.197 171.04 100.852V99.7273C170.979 99.7879 170.862 99.8447 170.688 99.8977C170.517 99.947 170.322 99.9905 170.102 100.028C169.883 100.062 169.669 100.095 169.46 100.125C169.252 100.152 169.078 100.174 168.938 100.193C168.608 100.235 168.307 100.305 168.034 100.403C167.765 100.502 167.549 100.644 167.386 100.83C167.227 101.011 167.148 101.254 167.148 101.557C167.148 101.977 167.303 102.295 167.614 102.511C167.924 102.723 168.32 102.83 168.801 102.83ZM175.763 107.273C175.509 107.273 175.278 107.252 175.07 107.21C174.861 107.172 174.706 107.131 174.604 107.085L175.013 105.693C175.323 105.777 175.6 105.813 175.842 105.801C176.085 105.79 176.299 105.699 176.484 105.528C176.674 105.358 176.84 105.08 176.984 104.693L177.195 104.114L174.001 95.2727H175.82L178.03 102.045H178.121L180.331 95.2727H182.155L178.558 105.165C178.392 105.619 178.179 106.004 177.922 106.318C177.664 106.636 177.357 106.875 177.001 107.034C176.645 107.193 176.232 107.273 175.763 107.273ZM186.041 104.193C185.488 104.193 184.988 104.091 184.541 103.886C184.094 103.678 183.74 103.377 183.479 102.983C183.221 102.589 183.092 102.106 183.092 101.534C183.092 101.042 183.187 100.636 183.376 100.318C183.566 100 183.821 99.7481 184.143 99.5625C184.465 99.3769 184.825 99.2367 185.223 99.142C185.621 99.0473 186.026 98.9754 186.439 98.9261C186.962 98.8655 187.386 98.8163 187.712 98.7784C188.037 98.7367 188.274 98.6705 188.422 98.5795C188.57 98.4886 188.643 98.3409 188.643 98.1364V98.0966C188.643 97.6004 188.503 97.2159 188.223 96.9432C187.946 96.6705 187.534 96.5341 186.984 96.5341C186.412 96.5341 185.962 96.661 185.632 96.9148C185.306 97.1648 185.081 97.4432 184.956 97.75L183.359 97.3864C183.549 96.8561 183.825 96.428 184.189 96.1023C184.556 95.7727 184.979 95.5341 185.456 95.3864C185.933 95.2348 186.435 95.1591 186.962 95.1591C187.31 95.1591 187.679 95.2008 188.07 95.2841C188.464 95.3636 188.831 95.5114 189.172 95.7273C189.517 95.9432 189.799 96.2519 190.018 96.6534C190.238 97.0511 190.348 97.5682 190.348 98.2045V104H188.689V102.807H188.621C188.511 103.027 188.346 103.242 188.126 103.455C187.907 103.667 187.625 103.843 187.28 103.983C186.935 104.123 186.522 104.193 186.041 104.193ZM186.411 102.83C186.88 102.83 187.282 102.737 187.615 102.551C187.952 102.366 188.208 102.123 188.382 101.824C188.56 101.521 188.649 101.197 188.649 100.852V99.7273C188.589 99.7879 188.471 99.8447 188.297 99.8977C188.126 99.947 187.931 99.9905 187.712 100.028C187.492 100.062 187.278 100.095 187.07 100.125C186.861 100.152 186.687 100.174 186.547 100.193C186.217 100.235 185.916 100.305 185.643 100.403C185.375 100.502 185.159 100.644 184.996 100.83C184.837 101.011 184.757 101.254 184.757 101.557C184.757 101.977 184.912 102.295 185.223 102.511C185.534 102.723 185.929 102.83 186.411 102.83ZM196.982 104V92.3636H198.68V96.6875H198.783C198.881 96.5057 199.023 96.2955 199.209 96.0568C199.394 95.8182 199.652 95.6098 199.982 95.4318C200.311 95.25 200.747 95.1591 201.288 95.1591C201.993 95.1591 202.622 95.3371 203.175 95.6932C203.728 96.0492 204.161 96.5625 204.476 97.233C204.794 97.9034 204.953 98.7102 204.953 99.6534C204.953 100.597 204.796 101.405 204.482 102.08C204.167 102.75 203.735 103.267 203.186 103.631C202.637 103.991 202.01 104.17 201.305 104.17C200.775 104.17 200.341 104.081 200.004 103.903C199.671 103.725 199.41 103.517 199.22 103.278C199.031 103.04 198.885 102.828 198.783 102.642H198.641V104H196.982ZM198.646 99.6364C198.646 100.25 198.735 100.788 198.913 101.25C199.091 101.712 199.349 102.074 199.686 102.335C200.023 102.593 200.436 102.722 200.925 102.722C201.432 102.722 201.857 102.587 202.197 102.318C202.538 102.045 202.796 101.676 202.97 101.21C203.148 100.744 203.237 100.22 203.237 99.6364C203.237 99.0606 203.15 98.5436 202.976 98.0852C202.805 97.6269 202.548 97.2652 202.203 97C201.862 96.7348 201.436 96.6023 200.925 96.6023C200.432 96.6023 200.016 96.7292 199.675 96.983C199.338 97.2367 199.082 97.5909 198.908 98.0455C198.733 98.5 198.646 99.0303 198.646 99.6364ZM207.638 107.273C207.384 107.273 207.153 107.252 206.945 107.21C206.736 107.172 206.581 107.131 206.479 107.085L206.888 105.693C207.198 105.777 207.475 105.813 207.717 105.801C207.96 105.79 208.174 105.699 208.359 105.528C208.549 105.358 208.715 105.08 208.859 104.693L209.07 104.114L205.876 95.2727H207.695L209.905 102.045H209.996L212.206 95.2727H214.03L210.433 105.165C210.267 105.619 210.054 106.004 209.797 106.318C209.539 106.636 209.232 106.875 208.876 107.034C208.52 107.193 208.107 107.273 207.638 107.273ZM220.98 104H219.116L223.304 92.3636H225.332L229.52 104H227.656L224.366 94.4773H224.276L220.98 104ZM221.293 99.4432H227.338V100.92H221.293V99.4432ZM231.142 104V95.2727H232.841V104H231.142ZM232 93.9261C231.705 93.9261 231.451 93.8277 231.239 93.6307C231.03 93.4299 230.926 93.1913 230.926 92.9148C230.926 92.6345 231.03 92.3958 231.239 92.1989C231.451 91.9981 231.705 91.8977 232 91.8977C232.295 91.8977 232.547 91.9981 232.756 92.1989C232.968 92.3958 233.074 92.6345 233.074 92.9148C233.074 93.1913 232.968 93.4299 232.756 93.6307C232.547 93.8277 232.295 93.9261 232 93.9261ZM235.126 104V95.2727H236.768V96.6591H236.859C237.018 96.1894 237.299 95.8201 237.7 95.5511C238.106 95.2784 238.564 95.142 239.075 95.142C239.181 95.142 239.306 95.1458 239.45 95.1534C239.598 95.161 239.714 95.1705 239.797 95.1818V96.8068C239.729 96.7879 239.607 96.767 239.433 96.7443C239.259 96.7178 239.085 96.7045 238.911 96.7045C238.509 96.7045 238.151 96.7898 237.837 96.9602C237.526 97.1269 237.28 97.3598 237.098 97.6591C236.916 97.9545 236.825 98.2917 236.825 98.6705V104H235.126ZM246.621 104H244.757L248.945 92.3636H250.973L255.161 104H253.297L250.007 94.4773H249.916L246.621 104ZM246.933 99.4432H252.979V100.92H246.933V99.4432ZM263.182 97.4034L261.642 97.6761C261.578 97.4792 261.475 97.2917 261.335 97.1136C261.199 96.9356 261.013 96.7898 260.778 96.6761C260.544 96.5625 260.25 96.5057 259.898 96.5057C259.417 96.5057 259.015 96.6136 258.693 96.8295C258.371 97.0417 258.21 97.3163 258.21 97.6534C258.21 97.9451 258.318 98.1799 258.534 98.358C258.75 98.536 259.098 98.6818 259.58 98.7955L260.966 99.1136C261.769 99.2992 262.367 99.5852 262.761 99.9716C263.155 100.358 263.352 100.86 263.352 101.477C263.352 102 263.201 102.466 262.898 102.875C262.598 103.28 262.18 103.598 261.642 103.83C261.108 104.061 260.489 104.176 259.784 104.176C258.807 104.176 258.009 103.968 257.392 103.551C256.775 103.131 256.396 102.534 256.256 101.761L257.898 101.511C258 101.939 258.21 102.263 258.528 102.483C258.847 102.699 259.261 102.807 259.773 102.807C260.33 102.807 260.775 102.691 261.108 102.46C261.441 102.225 261.608 101.939 261.608 101.602C261.608 101.33 261.506 101.1 261.301 100.915C261.1 100.729 260.792 100.589 260.375 100.494L258.898 100.17C258.083 99.9848 257.481 99.6894 257.091 99.2841C256.705 98.8788 256.511 98.3655 256.511 97.7443C256.511 97.2292 256.655 96.7784 256.943 96.392C257.231 96.0057 257.629 95.7045 258.136 95.4886C258.644 95.2689 259.225 95.1591 259.881 95.1591C260.824 95.1591 261.566 95.3636 262.108 95.7727C262.65 96.178 263.008 96.7216 263.182 97.4034ZM265.22 104V95.2727H266.919V104H265.22ZM266.078 93.9261C265.783 93.9261 265.529 93.8277 265.317 93.6307C265.108 93.4299 265.004 93.1913 265.004 92.9148C265.004 92.6345 265.108 92.3958 265.317 92.1989C265.529 91.9981 265.783 91.8977 266.078 91.8977C266.374 91.8977 266.625 91.9981 266.834 92.1989C267.046 92.3958 267.152 92.6345 267.152 92.9148C267.152 93.1913 267.046 93.4299 266.834 93.6307C266.625 93.8277 266.374 93.9261 266.078 93.9261ZM271.744 104.193C271.191 104.193 270.691 104.091 270.244 103.886C269.797 103.678 269.443 103.377 269.182 102.983C268.924 102.589 268.795 102.106 268.795 101.534C268.795 101.042 268.89 100.636 269.08 100.318C269.269 100 269.525 99.7481 269.847 99.5625C270.169 99.3769 270.528 99.2367 270.926 99.142C271.324 99.0473 271.729 98.9754 272.142 98.9261C272.665 98.8655 273.089 98.8163 273.415 98.7784C273.741 98.7367 273.977 98.6705 274.125 98.5795C274.273 98.4886 274.347 98.3409 274.347 98.1364V98.0966C274.347 97.6004 274.206 97.2159 273.926 96.9432C273.65 96.6705 273.237 96.5341 272.688 96.5341C272.116 96.5341 271.665 96.661 271.335 96.9148C271.009 97.1648 270.784 97.4432 270.659 97.75L269.062 97.3864C269.252 96.8561 269.528 96.428 269.892 96.1023C270.259 95.7727 270.682 95.5341 271.159 95.3864C271.636 95.2348 272.138 95.1591 272.665 95.1591C273.013 95.1591 273.383 95.2008 273.773 95.2841C274.167 95.3636 274.534 95.5114 274.875 95.7273C275.22 95.9432 275.502 96.2519 275.722 96.6534C275.941 97.0511 276.051 97.5682 276.051 98.2045V104H274.392V102.807H274.324C274.214 103.027 274.049 103.242 273.83 103.455C273.61 103.667 273.328 103.843 272.983 103.983C272.638 104.123 272.225 104.193 271.744 104.193ZM272.114 102.83C272.583 102.83 272.985 102.737 273.318 102.551C273.655 102.366 273.911 102.123 274.085 101.824C274.263 101.521 274.352 101.197 274.352 100.852V99.7273C274.292 99.7879 274.174 99.8447 274 99.8977C273.83 99.947 273.634 99.9905 273.415 100.028C273.195 100.062 272.981 100.095 272.773 100.125C272.564 100.152 272.39 100.174 272.25 100.193C271.92 100.235 271.619 100.305 271.347 100.403C271.078 100.502 270.862 100.644 270.699 100.83C270.54 101.011 270.46 101.254 270.46 101.557C270.46 101.977 270.616 102.295 270.926 102.511C271.237 102.723 271.633 102.83 272.114 102.83Z" fill="#666666"/>
<path d="M58.7727 176.273C58.7045 175.697 58.428 175.25 57.9432 174.932C57.4583 174.614 56.8636 174.455 56.1591 174.455C55.6439 174.455 55.1932 174.538 54.8068 174.705C54.4242 174.871 54.125 175.1 53.9091 175.392C53.697 175.684 53.5909 176.015 53.5909 176.386C53.5909 176.697 53.6648 176.964 53.8125 177.188C53.964 177.407 54.1572 177.591 54.392 177.739C54.6269 177.883 54.8731 178.002 55.1307 178.097C55.3883 178.187 55.625 178.261 55.8409 178.318L57.0227 178.636C57.3258 178.716 57.6629 178.826 58.0341 178.966C58.4091 179.106 58.767 179.297 59.108 179.54C59.4527 179.778 59.7367 180.085 59.9602 180.46C60.1837 180.835 60.2955 181.295 60.2955 181.841C60.2955 182.47 60.1307 183.038 59.8011 183.545C59.4754 184.053 58.9981 184.456 58.3693 184.756C57.7443 185.055 56.9848 185.205 56.0909 185.205C55.2576 185.205 54.536 185.07 53.9261 184.801C53.3201 184.532 52.8428 184.157 52.4943 183.676C52.1496 183.195 51.9545 182.636 51.9091 182H53.3636C53.4015 182.439 53.5492 182.803 53.8068 183.091C54.0682 183.375 54.3977 183.587 54.7955 183.727C55.197 183.864 55.6288 183.932 56.0909 183.932C56.6288 183.932 57.1117 183.845 57.5398 183.67C57.9678 183.492 58.3068 183.246 58.5568 182.932C58.8068 182.614 58.9318 182.242 58.9318 181.818C58.9318 181.432 58.8239 181.117 58.608 180.875C58.392 180.633 58.108 180.436 57.7557 180.284C57.4034 180.133 57.0227 180 56.6136 179.886L55.1818 179.477C54.2727 179.216 53.553 178.843 53.0227 178.358C52.4924 177.873 52.2273 177.239 52.2273 176.455C52.2273 175.803 52.4034 175.235 52.7557 174.75C53.1117 174.261 53.589 173.883 54.1875 173.614C54.7898 173.341 55.4621 173.205 56.2045 173.205C56.9545 173.205 57.6212 173.339 58.2045 173.608C58.7879 173.873 59.25 174.237 59.5909 174.699C59.9356 175.161 60.1174 175.686 60.1364 176.273H58.7727ZM66.2259 176.273V177.409H61.7031V176.273H66.2259ZM63.0213 174.182H64.3622V182.5C64.3622 182.879 64.4171 183.163 64.527 183.352C64.6406 183.538 64.7846 183.663 64.9588 183.727C65.1368 183.788 65.3243 183.818 65.5213 183.818C65.669 183.818 65.7902 183.811 65.8849 183.795C65.9796 183.777 66.0554 183.761 66.1122 183.75L66.3849 184.955C66.294 184.989 66.1671 185.023 66.0043 185.057C65.8414 185.095 65.6349 185.114 65.3849 185.114C65.0062 185.114 64.6349 185.032 64.2713 184.869C63.9115 184.706 63.6122 184.458 63.3736 184.125C63.1387 183.792 63.0213 183.371 63.0213 182.864V174.182ZM70.8111 185.205C70.258 185.205 69.7562 185.1 69.3054 184.892C68.8546 184.68 68.4967 184.375 68.2315 183.977C67.9664 183.576 67.8338 183.091 67.8338 182.523C67.8338 182.023 67.9323 181.617 68.1293 181.307C68.3262 180.992 68.5895 180.746 68.919 180.568C69.2486 180.39 69.6122 180.258 70.0099 180.17C70.4115 180.08 70.8149 180.008 71.2202 179.955C71.7505 179.886 72.1804 179.835 72.5099 179.801C72.8433 179.763 73.0857 179.701 73.2372 179.614C73.3925 179.527 73.4702 179.375 73.4702 179.159V179.114C73.4702 178.553 73.3168 178.117 73.0099 177.807C72.7069 177.496 72.2467 177.341 71.6293 177.341C70.9891 177.341 70.4872 177.481 70.1236 177.761C69.7599 178.042 69.5043 178.341 69.3565 178.659L68.0838 178.205C68.3111 177.674 68.6141 177.261 68.9929 176.966C69.3755 176.667 69.7921 176.458 70.2429 176.341C70.6974 176.22 71.1444 176.159 71.5838 176.159C71.8641 176.159 72.1861 176.193 72.5497 176.261C72.9171 176.326 73.2713 176.46 73.6122 176.665C73.9569 176.869 74.2429 177.178 74.4702 177.591C74.6974 178.004 74.8111 178.557 74.8111 179.25V185H73.4702V183.818H73.402C73.3111 184.008 73.1596 184.21 72.9474 184.426C72.7353 184.642 72.4531 184.826 72.1009 184.977C71.7486 185.129 71.3187 185.205 70.8111 185.205ZM71.0156 184C71.5459 184 71.9929 183.896 72.3565 183.688C72.724 183.479 73.0005 183.21 73.1861 182.881C73.3755 182.551 73.4702 182.205 73.4702 181.841V180.614C73.4134 180.682 73.2884 180.744 73.0952 180.801C72.9058 180.854 72.6861 180.902 72.4361 180.943C72.1899 180.981 71.9493 181.015 71.7145 181.045C71.4834 181.072 71.2959 181.095 71.152 181.114C70.8035 181.159 70.4777 181.233 70.1747 181.335C69.8755 181.434 69.633 181.583 69.4474 181.784C69.2656 181.981 69.1747 182.25 69.1747 182.591C69.1747 183.057 69.3471 183.409 69.6918 183.648C70.0402 183.883 70.4815 184 71.0156 184ZM77.2585 185V176.273H78.554V177.591H78.6449C78.804 177.159 79.0919 176.809 79.5085 176.54C79.9252 176.271 80.3949 176.136 80.9176 176.136C81.0161 176.136 81.1392 176.138 81.2869 176.142C81.4347 176.146 81.5464 176.152 81.6222 176.159V177.523C81.5767 177.511 81.4725 177.494 81.3097 177.472C81.1506 177.445 80.982 177.432 80.804 177.432C80.3797 177.432 80.0009 177.521 79.6676 177.699C79.3381 177.873 79.0767 178.116 78.8835 178.426C78.6941 178.733 78.5994 179.083 78.5994 179.477V185H77.2585ZM87.554 176.273V177.409H83.0312V176.273H87.554ZM84.3494 174.182H85.6903V182.5C85.6903 182.879 85.7453 183.163 85.8551 183.352C85.9688 183.538 86.1127 183.663 86.2869 183.727C86.465 183.788 86.6525 183.818 86.8494 183.818C86.9972 183.818 87.1184 183.811 87.2131 183.795C87.3078 183.777 87.3835 183.761 87.4403 183.75L87.7131 184.955C87.6222 184.989 87.4953 185.023 87.3324 185.057C87.1695 185.095 86.9631 185.114 86.7131 185.114C86.3343 185.114 85.9631 185.032 85.5994 184.869C85.2396 184.706 84.9403 184.458 84.7017 184.125C84.4669 183.792 84.3494 183.371 84.3494 182.864V174.182ZM97.9574 176.273V177.409H93.2528V176.273H97.9574ZM94.6619 185V175.068C94.6619 174.568 94.7794 174.152 95.0142 173.818C95.2491 173.485 95.554 173.235 95.929 173.068C96.304 172.902 96.6998 172.818 97.1165 172.818C97.446 172.818 97.715 172.845 97.9233 172.898C98.1316 172.951 98.2869 173 98.3892 173.045L98.0028 174.205C97.9347 174.182 97.84 174.153 97.7188 174.119C97.6013 174.085 97.446 174.068 97.2528 174.068C96.8097 174.068 96.4896 174.18 96.2926 174.403C96.0994 174.627 96.0028 174.955 96.0028 175.386V185H94.6619ZM99.8366 185V176.273H101.132V177.591H101.223C101.382 177.159 101.67 176.809 102.087 176.54C102.503 176.271 102.973 176.136 103.496 176.136C103.594 176.136 103.717 176.138 103.865 176.142C104.013 176.146 104.125 176.152 104.2 176.159V177.523C104.155 177.511 104.051 177.494 103.888 177.472C103.729 177.445 103.56 177.432 103.382 177.432C102.958 177.432 102.579 177.521 102.246 177.699C101.916 177.873 101.655 178.116 101.462 178.426C101.272 178.733 101.178 179.083 101.178 179.477V185H99.8366ZM109.07 185.182C108.282 185.182 107.59 184.994 106.996 184.619C106.405 184.244 105.943 183.72 105.609 183.045C105.28 182.371 105.115 181.583 105.115 180.682C105.115 179.773 105.28 178.979 105.609 178.301C105.943 177.623 106.405 177.097 106.996 176.722C107.59 176.347 108.282 176.159 109.07 176.159C109.857 176.159 110.547 176.347 111.138 176.722C111.732 177.097 112.195 177.623 112.524 178.301C112.857 178.979 113.024 179.773 113.024 180.682C113.024 181.583 112.857 182.371 112.524 183.045C112.195 183.72 111.732 184.244 111.138 184.619C110.547 184.994 109.857 185.182 109.07 185.182ZM109.07 183.977C109.668 183.977 110.161 183.824 110.547 183.517C110.933 183.21 111.219 182.807 111.405 182.307C111.59 181.807 111.683 181.265 111.683 180.682C111.683 180.098 111.59 179.555 111.405 179.051C111.219 178.547 110.933 178.14 110.547 177.83C110.161 177.519 109.668 177.364 109.07 177.364C108.471 177.364 107.979 177.519 107.592 177.83C107.206 178.14 106.92 178.547 106.734 179.051C106.549 179.555 106.456 180.098 106.456 180.682C106.456 181.265 106.549 181.807 106.734 182.307C106.92 182.807 107.206 183.21 107.592 183.517C107.979 183.824 108.471 183.977 109.07 183.977ZM115.071 185V176.273H116.366V177.636H116.48C116.662 177.17 116.955 176.809 117.361 176.551C117.766 176.29 118.253 176.159 118.821 176.159C119.397 176.159 119.876 176.29 120.259 176.551C120.645 176.809 120.946 177.17 121.162 177.636H121.253C121.476 177.186 121.812 176.828 122.259 176.562C122.705 176.294 123.241 176.159 123.866 176.159C124.647 176.159 125.285 176.403 125.781 176.892C126.277 177.377 126.526 178.133 126.526 179.159V185H125.185V179.159C125.185 178.515 125.009 178.055 124.656 177.778C124.304 177.502 123.889 177.364 123.412 177.364C122.798 177.364 122.323 177.549 121.986 177.92C121.649 178.288 121.48 178.754 121.48 179.318V185H120.116V179.023C120.116 178.527 119.955 178.127 119.634 177.824C119.312 177.517 118.897 177.364 118.389 177.364C118.041 177.364 117.715 177.456 117.412 177.642C117.113 177.828 116.87 178.085 116.685 178.415C116.503 178.741 116.412 179.117 116.412 179.545V185H115.071Z" fill="#313041"/>
<path d="M52.232 206V194.08H54.12V206H52.232ZM56.5914 206V194.08H60.4954C61.7327 194.08 62.8047 194.331 63.7114 194.832C64.6287 195.323 65.338 196.016 65.8394 196.912C66.3407 197.808 66.5914 198.848 66.5914 200.032C66.5914 201.205 66.3407 202.245 65.8394 203.152C65.338 204.048 64.6287 204.747 63.7114 205.248C62.8047 205.749 61.7327 206 60.4954 206H56.5914ZM58.4794 204.32H60.5274C61.37 204.32 62.1007 204.144 62.7194 203.792C63.3487 203.44 63.834 202.944 64.1754 202.304C64.5167 201.664 64.6874 200.907 64.6874 200.032C64.6874 199.157 64.5114 198.405 64.1594 197.776C63.818 197.136 63.338 196.64 62.7194 196.288C62.1007 195.936 61.37 195.76 60.5274 195.76H58.4794V204.32ZM68.4508 206V194.08H72.7868C73.5868 194.08 74.2908 194.229 74.8988 194.528C75.5068 194.816 75.9814 195.243 76.3228 195.808C76.6748 196.363 76.8508 197.029 76.8508 197.808C76.8508 198.629 76.6428 199.333 76.2268 199.92C75.8214 200.507 75.2721 200.933 74.5788 201.2L77.3308 206H75.1868L72.2588 200.8L73.4908 201.52H70.3388V206H68.4508ZM70.3388 199.84H72.8188C73.2561 199.84 73.6348 199.755 73.9548 199.584C74.2748 199.413 74.5201 199.179 74.6908 198.88C74.8721 198.571 74.9628 198.208 74.9628 197.792C74.9628 197.376 74.8721 197.019 74.6908 196.72C74.5201 196.411 74.2748 196.176 73.9548 196.016C73.6348 195.845 73.2561 195.76 72.8188 195.76H70.3388V199.84ZM85.3004 206.192C84.5217 206.192 83.8284 206.021 83.2204 205.68C82.6124 205.339 82.1324 204.869 81.7804 204.272C81.439 203.675 81.2684 202.997 81.2684 202.24C81.2684 201.845 81.311 201.451 81.3964 201.056C81.4817 200.661 81.631 200.251 81.8444 199.824C82.0684 199.397 82.367 198.939 82.7404 198.448L86.0684 194.08H88.3244L84.2444 199.36L83.9244 199.152C84.0737 198.981 84.2337 198.848 84.4044 198.752C84.5857 198.656 84.7724 198.587 84.9644 198.544C85.167 198.501 85.3804 198.48 85.6044 198.48C86.319 198.48 86.959 198.645 87.5244 198.976C88.0897 199.307 88.5324 199.755 88.8524 200.32C89.183 200.885 89.3484 201.536 89.3484 202.272C89.3484 203.019 89.1724 203.691 88.8204 204.288C88.4684 204.875 87.9884 205.339 87.3804 205.68C86.783 206.021 86.0897 206.192 85.3004 206.192ZM85.3004 204.512C85.7164 204.512 86.0844 204.416 86.4044 204.224C86.7244 204.032 86.9804 203.771 87.1724 203.44C87.3644 203.099 87.4604 202.715 87.4604 202.288C87.4604 201.851 87.3644 201.467 87.1724 201.136C86.991 200.805 86.735 200.549 86.4044 200.368C86.0844 200.176 85.7164 200.08 85.3004 200.08C84.895 200.08 84.527 200.176 84.1964 200.368C83.8764 200.549 83.6204 200.805 83.4284 201.136C83.2364 201.467 83.1404 201.851 83.1404 202.288C83.1404 202.715 83.2364 203.099 83.4284 203.44C83.6204 203.771 83.8764 204.032 84.1964 204.224C84.527 204.416 84.895 204.512 85.3004 204.512ZM91.6138 208.352V207.472C91.9658 207.387 92.2378 207.221 92.4298 206.976C92.6218 206.741 92.7391 206.416 92.7818 206H91.9338V203.92H93.7738V205.28C93.7738 206.133 93.5924 206.821 93.2298 207.344C92.8671 207.867 92.3284 208.203 91.6138 208.352ZM97.1198 206L101.2 200.72L101.52 200.928C101.37 201.088 101.205 201.216 101.024 201.312C100.853 201.408 100.666 201.477 100.464 201.52C100.272 201.563 100.064 201.584 99.8398 201.584C99.1251 201.584 98.4851 201.424 97.9198 201.104C97.3544 200.773 96.9064 200.325 96.5758 199.76C96.2558 199.184 96.0958 198.533 96.0958 197.808C96.0958 197.051 96.2718 196.379 96.6238 195.792C96.9758 195.205 97.4558 194.741 98.0638 194.4C98.6718 194.059 99.3651 193.888 100.144 193.888C100.933 193.888 101.626 194.059 102.224 194.4C102.832 194.741 103.306 195.211 103.648 195.808C104 196.395 104.176 197.067 104.176 197.824C104.176 198.229 104.133 198.629 104.048 199.024C103.962 199.419 103.813 199.829 103.6 200.256C103.386 200.672 103.088 201.131 102.704 201.632L99.3758 206H97.1198ZM100.144 200C100.56 200 100.928 199.904 101.248 199.712C101.568 199.52 101.824 199.259 102.016 198.928C102.208 198.597 102.304 198.219 102.304 197.792C102.304 197.355 102.208 196.971 102.016 196.64C101.824 196.299 101.562 196.037 101.232 195.856C100.912 195.664 100.549 195.568 100.144 195.568C99.7384 195.568 99.3704 195.664 99.0398 195.856C98.7198 196.037 98.4638 196.299 98.2718 196.64C98.0798 196.971 97.9838 197.355 97.9838 197.792C97.9838 198.219 98.0744 198.597 98.2558 198.928C98.4478 199.259 98.7091 199.52 99.0398 199.712C99.3704 199.904 99.7384 200 100.144 200ZM106.729 206L110.809 200.72L111.129 200.928C110.98 201.088 110.814 201.216 110.633 201.312C110.462 201.408 110.276 201.477 110.073 201.52C109.881 201.563 109.673 201.584 109.449 201.584C108.734 201.584 108.094 201.424 107.529 201.104C106.964 200.773 106.516 200.325 106.185 199.76C105.865 199.184 105.705 198.533 105.705 197.808C105.705 197.051 105.881 196.379 106.233 195.792C106.585 195.205 107.065 194.741 107.673 194.4C108.281 194.059 108.974 193.888 109.753 193.888C110.542 193.888 111.236 194.059 111.833 194.4C112.441 194.741 112.916 195.211 113.257 195.808C113.609 196.395 113.785 197.067 113.785 197.824C113.785 198.229 113.742 198.629 113.657 199.024C113.572 199.419 113.422 199.829 113.209 200.256C112.996 200.672 112.697 201.131 112.313 201.632L108.985 206H106.729ZM109.753 200C110.169 200 110.537 199.904 110.857 199.712C111.177 199.52 111.433 199.259 111.625 198.928C111.817 198.597 111.913 198.219 111.913 197.792C111.913 197.355 111.817 196.971 111.625 196.64C111.433 196.299 111.172 196.037 110.841 195.856C110.521 195.664 110.158 195.568 109.753 195.568C109.348 195.568 108.98 195.664 108.649 195.856C108.329 196.037 108.073 196.299 107.881 196.64C107.689 196.971 107.593 197.355 107.593 197.792C107.593 198.219 107.684 198.597 107.865 198.928C108.057 199.259 108.318 199.52 108.649 199.712C108.98 199.904 109.348 200 109.753 200ZM116.339 206L120.419 200.72L120.739 200.928C120.589 201.088 120.424 201.216 120.243 201.312C120.072 201.408 119.885 201.477 119.683 201.52C119.491 201.563 119.283 201.584 119.059 201.584C118.344 201.584 117.704 201.424 117.139 201.104C116.573 200.773 116.125 200.325 115.795 199.76C115.475 199.184 115.315 198.533 115.315 197.808C115.315 197.051 115.491 196.379 115.843 195.792C116.195 195.205 116.675 194.741 117.283 194.4C117.891 194.059 118.584 193.888 119.363 193.888C120.152 193.888 120.845 194.059 121.443 194.4C122.051 194.741 122.525 195.211 122.867 195.808C123.219 196.395 123.395 197.067 123.395 197.824C123.395 198.229 123.352 198.629 123.267 199.024C123.181 199.419 123.032 199.829 122.819 200.256C122.605 200.672 122.307 201.131 121.923 201.632L118.595 206H116.339ZM119.363 200C119.779 200 120.147 199.904 120.467 199.712C120.787 199.52 121.043 199.259 121.235 198.928C121.427 198.597 121.523 198.219 121.523 197.792C121.523 197.355 121.427 196.971 121.235 196.64C121.043 196.299 120.781 196.037 120.451 195.856C120.131 195.664 119.768 195.568 119.363 195.568C118.957 195.568 118.589 195.664 118.259 195.856C117.939 196.037 117.683 196.299 117.491 196.64C117.299 196.971 117.203 197.355 117.203 197.792C117.203 198.219 117.293 198.597 117.475 198.928C117.667 199.259 117.928 199.52 118.259 199.712C118.589 199.904 118.957 200 119.363 200ZM125.223 208.352V207.472C125.575 207.387 125.847 207.221 126.039 206.976C126.231 206.741 126.348 206.416 126.391 206H125.543V203.92H127.383V205.28C127.383 206.133 127.202 206.821 126.839 207.344C126.476 207.867 125.938 208.203 125.223 208.352ZM130.729 206L134.809 200.72L135.129 200.928C134.98 201.088 134.814 201.216 134.633 201.312C134.462 201.408 134.276 201.477 134.073 201.52C133.881 201.563 133.673 201.584 133.449 201.584C132.734 201.584 132.094 201.424 131.529 201.104C130.964 200.773 130.516 200.325 130.185 199.76C129.865 199.184 129.705 198.533 129.705 197.808C129.705 197.051 129.881 196.379 130.233 195.792C130.585 195.205 131.065 194.741 131.673 194.4C132.281 194.059 132.974 193.888 133.753 193.888C134.542 193.888 135.236 194.059 135.833 194.4C136.441 194.741 136.916 195.211 137.257 195.808C137.609 196.395 137.785 197.067 137.785 197.824C137.785 198.229 137.742 198.629 137.657 199.024C137.572 199.419 137.422 199.829 137.209 200.256C136.996 200.672 136.697 201.131 136.313 201.632L132.985 206H130.729ZM133.753 200C134.169 200 134.537 199.904 134.857 199.712C135.177 199.52 135.433 199.259 135.625 198.928C135.817 198.597 135.913 198.219 135.913 197.792C135.913 197.355 135.817 196.971 135.625 196.64C135.433 196.299 135.172 196.037 134.841 195.856C134.521 195.664 134.158 195.568 133.753 195.568C133.348 195.568 132.98 195.664 132.649 195.856C132.329 196.037 132.073 196.299 131.881 196.64C131.689 196.971 131.593 197.355 131.593 197.792C131.593 198.219 131.684 198.597 131.865 198.928C132.057 199.259 132.318 199.52 132.649 199.712C132.98 199.904 133.348 200 133.753 200ZM140.339 206L144.419 200.72L144.739 200.928C144.589 201.088 144.424 201.216 144.243 201.312C144.072 201.408 143.885 201.477 143.683 201.52C143.491 201.563 143.283 201.584 143.059 201.584C142.344 201.584 141.704 201.424 141.139 201.104C140.573 200.773 140.125 200.325 139.795 199.76C139.475 199.184 139.315 198.533 139.315 197.808C139.315 197.051 139.491 196.379 139.843 195.792C140.195 195.205 140.675 194.741 141.283 194.4C141.891 194.059 142.584 193.888 143.363 193.888C144.152 193.888 144.845 194.059 145.443 194.4C146.051 194.741 146.525 195.211 146.867 195.808C147.219 196.395 147.395 197.067 147.395 197.824C147.395 198.229 147.352 198.629 147.267 199.024C147.181 199.419 147.032 199.829 146.819 200.256C146.605 200.672 146.307 201.131 145.923 201.632L142.595 206H140.339ZM143.363 200C143.779 200 144.147 199.904 144.467 199.712C144.787 199.52 145.043 199.259 145.235 198.928C145.427 198.597 145.523 198.219 145.523 197.792C145.523 197.355 145.427 196.971 145.235 196.64C145.043 196.299 144.781 196.037 144.451 195.856C144.131 195.664 143.768 195.568 143.363 195.568C142.957 195.568 142.589 195.664 142.259 195.856C141.939 196.037 141.683 196.299 141.491 196.64C141.299 196.971 141.203 197.355 141.203 197.792C141.203 198.219 141.293 198.597 141.475 198.928C141.667 199.259 141.928 199.52 142.259 199.712C142.589 199.904 142.957 200 143.363 200ZM149.948 206L154.028 200.72L154.348 200.928C154.199 201.088 154.033 201.216 153.852 201.312C153.681 201.408 153.495 201.477 153.292 201.52C153.1 201.563 152.892 201.584 152.668 201.584C151.953 201.584 151.313 201.424 150.748 201.104C150.183 200.773 149.735 200.325 149.404 199.76C149.084 199.184 148.924 198.533 148.924 197.808C148.924 197.051 149.1 196.379 149.452 195.792C149.804 195.205 150.284 194.741 150.892 194.4C151.5 194.059 152.193 193.888 152.972 193.888C153.761 193.888 154.455 194.059 155.052 194.4C155.66 194.741 156.135 195.211 156.476 195.808C156.828 196.395 157.004 197.067 157.004 197.824C157.004 198.229 156.961 198.629 156.876 199.024C156.791 199.419 156.641 199.829 156.428 200.256C156.215 200.672 155.916 201.131 155.532 201.632L152.204 206H149.948ZM152.972 200C153.388 200 153.756 199.904 154.076 199.712C154.396 199.52 154.652 199.259 154.844 198.928C155.036 198.597 155.132 198.219 155.132 197.792C155.132 197.355 155.036 196.971 154.844 196.64C154.652 196.299 154.391 196.037 154.06 195.856C153.74 195.664 153.377 195.568 152.972 195.568C152.567 195.568 152.199 195.664 151.868 195.856C151.548 196.037 151.292 196.299 151.1 196.64C150.908 196.971 150.812 197.355 150.812 197.792C150.812 198.219 150.903 198.597 151.084 198.928C151.276 199.259 151.537 199.52 151.868 199.712C152.199 199.904 152.567 200 152.972 200Z" fill="#B8B8B8"/>
<path d="M51 200.848H80.4875V201.488H51V200.848ZM80.4844 200.848H90.1004V201.488H80.4844V200.848ZM90.0938 200.848H104.96V201.488H90.0938V200.848ZM104.953 200.848H114.569V201.488H104.953V200.848ZM114.562 200.848H124.178V201.488H114.562V200.848ZM123.703 200.848H138.569V201.488H123.703V200.848ZM138.562 200.848H148.178V201.488H138.562V200.848ZM148.172 200.848H157.788V201.488H148.172V200.848Z" fill="#B8B8B8"/>
<path d="M53.016 238V217.14H56.824V238H53.016ZM60.8363 238V217.14H67.6403C69.843 217.14 71.7563 217.588 73.3803 218.484C75.023 219.361 76.2923 220.584 77.1883 222.152C78.0843 223.701 78.5323 225.503 78.5323 227.556C78.5323 229.591 78.0843 231.401 77.1883 232.988C76.2923 234.556 75.023 235.788 73.3803 236.684C71.7563 237.561 69.843 238 67.6403 238H60.8363ZM64.6443 234.64H67.7243C69.143 234.64 70.3656 234.351 71.3923 233.772C72.4376 233.175 73.2496 232.353 73.8283 231.308C74.407 230.244 74.6963 228.993 74.6963 227.556C74.6963 226.1 74.407 224.849 73.8283 223.804C73.2496 222.759 72.4376 221.947 71.3923 221.368C70.3656 220.789 69.143 220.5 67.7243 220.5H64.6443V234.64ZM81.5629 238V217.14H89.3189C90.7375 217.14 91.9882 217.401 93.0709 217.924C94.1722 218.428 95.0309 219.175 95.6469 220.164C96.2629 221.135 96.5709 222.32 96.5709 223.72C96.5709 225.157 96.2255 226.38 95.5349 227.388C94.8629 228.396 93.9482 229.143 92.7909 229.628L97.5789 238H93.2669L88.1429 228.844L90.6069 230.3H85.3709V238H81.5629ZM85.3709 226.94H89.3749C90.0655 226.94 90.6629 226.809 91.1669 226.548C91.6709 226.268 92.0629 225.885 92.3429 225.4C92.6229 224.915 92.7629 224.355 92.7629 223.72C92.7629 223.067 92.6229 222.507 92.3429 222.04C92.0629 221.555 91.6709 221.181 91.1669 220.92C90.6629 220.64 90.0655 220.5 89.3749 220.5H85.3709V226.94ZM111.351 238.336C110.25 238.336 109.195 238.131 108.187 237.72C107.198 237.309 106.339 236.731 105.611 235.984C104.902 235.219 104.416 234.313 104.155 233.268L107.459 232.092C107.776 233.044 108.29 233.753 108.999 234.22C109.708 234.668 110.492 234.892 111.351 234.892C112.06 234.892 112.686 234.743 113.227 234.444C113.787 234.127 114.216 233.697 114.515 233.156C114.814 232.596 114.963 231.952 114.963 231.224C114.963 230.496 114.804 229.861 114.487 229.32C114.188 228.779 113.768 228.359 113.227 228.06C112.686 227.743 112.06 227.584 111.351 227.584C110.623 227.584 109.96 227.743 109.363 228.06C108.784 228.377 108.364 228.835 108.103 229.432L104.995 228.732L106.647 217.14H118.015V220.36H108.159L109.587 218.708L108.411 227.444L107.319 226.548C107.842 225.783 108.476 225.223 109.223 224.868C109.988 224.513 110.912 224.336 111.995 224.336C113.376 224.336 114.571 224.635 115.579 225.232C116.606 225.829 117.399 226.641 117.959 227.668C118.519 228.695 118.799 229.88 118.799 231.224C118.799 232.568 118.472 233.781 117.819 234.864C117.166 235.947 116.279 236.796 115.159 237.412C114.039 238.028 112.77 238.336 111.351 238.336ZM123.146 242.368V240.548C123.762 240.399 124.256 240.109 124.63 239.68C125.022 239.269 125.264 238.709 125.358 238H123.706V234.08H127.402V236.488C127.402 238.131 127.038 239.447 126.31 240.436C125.6 241.425 124.546 242.069 123.146 242.368ZM131.558 238V235.116L137.214 229.208C138.334 228.032 139.192 227.099 139.79 226.408C140.406 225.699 140.835 225.092 141.078 224.588C141.32 224.084 141.442 223.571 141.442 223.048C141.442 222.171 141.162 221.48 140.602 220.976C140.06 220.472 139.36 220.22 138.502 220.22C137.606 220.22 136.831 220.481 136.178 221.004C135.524 221.508 135.048 222.255 134.75 223.244L131.418 222.208C131.642 221.107 132.099 220.155 132.79 219.352C133.48 218.531 134.32 217.905 135.31 217.476C136.318 217.028 137.382 216.804 138.502 216.804C139.846 216.804 141.022 217.047 142.03 217.532C143.056 218.017 143.85 218.699 144.41 219.576C144.988 220.453 145.278 221.48 145.278 222.656C145.278 223.403 145.138 224.14 144.858 224.868C144.578 225.596 144.158 226.343 143.598 227.108C143.038 227.855 142.31 228.695 141.414 229.628L136.514 234.78H145.558V238H131.558ZM156.889 238.336C155.227 238.336 153.771 237.888 152.521 236.992C151.27 236.096 150.29 234.836 149.581 233.212C148.89 231.588 148.545 229.703 148.545 227.556C148.545 225.391 148.89 223.505 149.581 221.9C150.271 220.295 151.242 219.044 152.493 218.148C153.743 217.252 155.199 216.804 156.861 216.804C158.559 216.804 160.025 217.252 161.257 218.148C162.507 219.044 163.487 220.304 164.197 221.928C164.906 223.533 165.261 225.409 165.261 227.556C165.261 229.703 164.906 231.588 164.197 233.212C163.506 234.817 162.535 236.077 161.285 236.992C160.034 237.888 158.569 238.336 156.889 238.336ZM156.917 234.864C157.869 234.864 158.681 234.575 159.353 233.996C160.025 233.399 160.538 232.559 160.893 231.476C161.266 230.375 161.453 229.068 161.453 227.556C161.453 226.044 161.266 224.747 160.893 223.664C160.538 222.563 160.015 221.723 159.325 221.144C158.653 220.565 157.831 220.276 156.861 220.276C155.927 220.276 155.125 220.565 154.453 221.144C153.781 221.723 153.258 222.563 152.885 223.664C152.53 224.747 152.353 226.044 152.353 227.556C152.353 229.049 152.53 230.347 152.885 231.448C153.258 232.531 153.781 233.371 154.453 233.968C155.143 234.565 155.965 234.864 156.917 234.864ZM176.713 238.336C175.051 238.336 173.595 237.888 172.345 236.992C171.094 236.096 170.114 234.836 169.405 233.212C168.714 231.588 168.369 229.703 168.369 227.556C168.369 225.391 168.714 223.505 169.405 221.9C170.095 220.295 171.066 219.044 172.317 218.148C173.567 217.252 175.023 216.804 176.685 216.804C178.383 216.804 179.849 217.252 181.081 218.148C182.331 219.044 183.311 220.304 184.021 221.928C184.73 223.533 185.085 225.409 185.085 227.556C185.085 229.703 184.73 231.588 184.021 233.212C183.33 234.817 182.359 236.077 181.109 236.992C179.858 237.888 178.393 238.336 176.713 238.336ZM176.741 234.864C177.693 234.864 178.505 234.575 179.177 233.996C179.849 233.399 180.362 232.559 180.717 231.476C181.09 230.375 181.277 229.068 181.277 227.556C181.277 226.044 181.09 224.747 180.717 223.664C180.362 222.563 179.839 221.723 179.149 221.144C178.477 220.565 177.655 220.276 176.685 220.276C175.751 220.276 174.949 220.565 174.277 221.144C173.605 221.723 173.082 222.563 172.709 223.664C172.354 224.747 172.177 226.044 172.177 227.556C172.177 229.049 172.354 230.347 172.709 231.448C173.082 232.531 173.605 233.371 174.277 233.968C174.967 234.565 175.789 234.864 176.741 234.864ZM189.509 242.368V240.548C190.125 240.399 190.62 240.109 190.993 239.68C191.385 239.269 191.628 238.709 191.721 238H190.069V234.08H193.765V236.488C193.765 238.131 193.401 239.447 192.673 240.436C191.964 241.425 190.909 242.069 189.509 242.368ZM206.545 238.336C204.883 238.336 203.427 237.888 202.177 236.992C200.926 236.096 199.946 234.836 199.237 233.212C198.546 231.588 198.201 229.703 198.201 227.556C198.201 225.391 198.546 223.505 199.237 221.9C199.927 220.295 200.898 219.044 202.149 218.148C203.399 217.252 204.855 216.804 206.517 216.804C208.215 216.804 209.681 217.252 210.913 218.148C212.163 219.044 213.143 220.304 213.853 221.928C214.562 223.533 214.917 225.409 214.917 227.556C214.917 229.703 214.562 231.588 213.853 233.212C213.162 234.817 212.191 236.077 210.941 236.992C209.69 237.888 208.225 238.336 206.545 238.336ZM206.573 234.864C207.525 234.864 208.337 234.575 209.009 233.996C209.681 233.399 210.194 232.559 210.549 231.476C210.922 230.375 211.109 229.068 211.109 227.556C211.109 226.044 210.922 224.747 210.549 223.664C210.194 222.563 209.671 221.723 208.981 221.144C208.309 220.565 207.487 220.276 206.517 220.276C205.583 220.276 204.781 220.565 204.109 221.144C203.437 221.723 202.914 222.563 202.541 223.664C202.186 224.747 202.009 226.044 202.009 227.556C202.009 229.049 202.186 230.347 202.541 231.448C202.914 232.531 203.437 233.371 204.109 233.968C204.799 234.565 205.621 234.864 206.573 234.864ZM226.369 238.336C224.708 238.336 223.252 237.888 222.001 236.992C220.75 236.096 219.77 234.836 219.061 233.212C218.37 231.588 218.025 229.703 218.025 227.556C218.025 225.391 218.37 223.505 219.061 221.9C219.752 220.295 220.722 219.044 221.973 218.148C223.224 217.252 224.68 216.804 226.341 216.804C228.04 216.804 229.505 217.252 230.737 218.148C231.988 219.044 232.968 220.304 233.677 221.928C234.386 223.533 234.741 225.409 234.741 227.556C234.741 229.703 234.386 231.588 233.677 233.212C232.986 234.817 232.016 236.077 230.765 236.992C229.514 237.888 228.049 238.336 226.369 238.336ZM226.397 234.864C227.349 234.864 228.161 234.575 228.833 233.996C229.505 233.399 230.018 232.559 230.373 231.476C230.746 230.375 230.933 229.068 230.933 227.556C230.933 226.044 230.746 224.747 230.373 223.664C230.018 222.563 229.496 221.723 228.805 221.144C228.133 220.565 227.312 220.276 226.341 220.276C225.408 220.276 224.605 220.565 223.933 221.144C223.261 221.723 222.738 222.563 222.365 223.664C222.01 224.747 221.833 226.044 221.833 227.556C221.833 229.049 222.01 230.347 222.365 231.448C222.738 232.531 223.261 233.371 223.933 233.968C224.624 234.565 225.445 234.864 226.397 234.864ZM246.193 238.336C244.532 238.336 243.076 237.888 241.825 236.992C240.575 236.096 239.595 234.836 238.885 233.212C238.195 231.588 237.849 229.703 237.849 227.556C237.849 225.391 238.195 223.505 238.885 221.9C239.576 220.295 240.547 219.044 241.797 218.148C243.048 217.252 244.504 216.804 246.165 216.804C247.864 216.804 249.329 217.252 250.561 218.148C251.812 219.044 252.792 220.304 253.501 221.928C254.211 223.533 254.565 225.409 254.565 227.556C254.565 229.703 254.211 231.588 253.501 233.212C252.811 234.817 251.84 236.077 250.589 236.992C249.339 237.888 247.873 238.336 246.193 238.336ZM246.221 234.864C247.173 234.864 247.985 234.575 248.657 233.996C249.329 233.399 249.843 232.559 250.197 231.476C250.571 230.375 250.757 229.068 250.757 227.556C250.757 226.044 250.571 224.747 250.197 223.664C249.843 222.563 249.32 221.723 248.629 221.144C247.957 220.565 247.136 220.276 246.165 220.276C245.232 220.276 244.429 220.565 243.757 221.144C243.085 221.723 242.563 222.563 242.189 223.664C241.835 224.747 241.657 226.044 241.657 227.556C241.657 229.049 241.835 230.347 242.189 231.448C242.563 232.531 243.085 233.371 243.757 233.968C244.448 234.565 245.269 234.864 246.221 234.864Z" fill="#E8604C"/>
<rect width="550" height="1" transform="matrix(1 0 0 -1 5 141)" fill="#E8604C" fill-opacity="0.12"/>
<rect x="302" y="192" width="218" height="52" rx="26" fill="#E8604C"/>
<path d="M489 208C483.48 208 479 212.48 479 218C479 223.52 483.48 228 489 228C494.52 228 499 223.52 499 218C499 212.48 494.52 208 489 208ZM494.25 218.33C494.25 218.74 493.91 219.08 493.5 219.08C493.09 219.08 492.75 218.74 492.75 218.33V215.31L485.03 223.03C484.88 223.18 484.69 223.25 484.5 223.25C484.31 223.25 484.12 223.18 483.97 223.03C483.68 222.74 483.68 222.26 483.97 221.97L491.69 214.25H488.67C488.26 214.25 487.92 213.91 487.92 213.5C487.92 213.09 488.26 212.75 488.67 212.75H493.5C493.91 212.75 494.25 213.09 494.25 213.5V218.33Z" fill="white"/>
<path d="M323.56 218.4C323.56 217.301 323.805 216.32 324.296 215.456C324.797 214.581 325.475 213.904 326.328 213.424C327.192 212.933 328.157 212.688 329.224 212.688C330.472 212.688 331.565 213.008 332.504 213.648C333.443 214.288 334.099 215.173 334.472 216.304H331.896C331.64 215.771 331.277 215.371 330.808 215.104C330.349 214.837 329.816 214.704 329.208 214.704C328.557 214.704 327.976 214.859 327.464 215.168C326.963 215.467 326.568 215.893 326.28 216.448C326.003 217.003 325.864 217.653 325.864 218.4C325.864 219.136 326.003 219.787 326.28 220.352C326.568 220.907 326.963 221.339 327.464 221.648C327.976 221.947 328.557 222.096 329.208 222.096C329.816 222.096 330.349 221.963 330.808 221.696C331.277 221.419 331.64 221.013 331.896 220.48H334.472C334.099 221.621 333.443 222.512 332.504 223.152C331.576 223.781 330.483 224.096 329.224 224.096C328.157 224.096 327.192 223.856 326.328 223.376C325.475 222.885 324.797 222.208 324.296 221.344C323.805 220.48 323.56 219.499 323.56 218.4ZM341.377 215.008C342.049 215.008 342.647 215.157 343.169 215.456C343.692 215.744 344.097 216.176 344.385 216.752C344.684 217.317 344.833 218 344.833 218.8V224H342.593V219.104C342.593 218.4 342.417 217.861 342.065 217.488C341.713 217.104 341.233 216.912 340.625 216.912C340.007 216.912 339.516 217.104 339.153 217.488C338.801 217.861 338.625 218.4 338.625 219.104V224H336.385V212.16H338.625V216.24C338.913 215.856 339.297 215.557 339.777 215.344C340.257 215.12 340.791 215.008 341.377 215.008ZM355.203 219.376C355.203 219.696 355.182 219.984 355.139 220.24H348.659C348.713 220.88 348.937 221.381 349.331 221.744C349.726 222.107 350.211 222.288 350.787 222.288C351.619 222.288 352.211 221.931 352.563 221.216H354.979C354.723 222.069 354.233 222.773 353.507 223.328C352.782 223.872 351.891 224.144 350.835 224.144C349.982 224.144 349.214 223.957 348.531 223.584C347.859 223.2 347.331 222.661 346.947 221.968C346.574 221.275 346.387 220.475 346.387 219.568C346.387 218.651 346.574 217.845 346.947 217.152C347.321 216.459 347.843 215.925 348.515 215.552C349.187 215.179 349.961 214.992 350.835 214.992C351.678 214.992 352.43 215.173 353.091 215.536C353.763 215.899 354.281 216.416 354.643 217.088C355.017 217.749 355.203 218.512 355.203 219.376ZM352.883 218.736C352.873 218.16 352.665 217.701 352.259 217.36C351.854 217.008 351.358 216.832 350.771 216.832C350.217 216.832 349.747 217.003 349.363 217.344C348.99 217.675 348.761 218.139 348.675 218.736H352.883ZM356.262 219.568C356.262 218.651 356.449 217.851 356.822 217.168C357.196 216.475 357.713 215.941 358.374 215.568C359.036 215.184 359.793 214.992 360.646 214.992C361.745 214.992 362.652 215.269 363.366 215.824C364.092 216.368 364.577 217.136 364.822 218.128H362.406C362.278 217.744 362.06 217.445 361.75 217.232C361.452 217.008 361.078 216.896 360.63 216.896C359.99 216.896 359.484 217.131 359.11 217.6C358.737 218.059 358.55 218.715 358.55 219.568C358.55 220.411 358.737 221.067 359.11 221.536C359.484 221.995 359.99 222.224 360.63 222.224C361.537 222.224 362.129 221.819 362.406 221.008H364.822C364.577 221.968 364.092 222.731 363.366 223.296C362.641 223.861 361.734 224.144 360.646 224.144C359.793 224.144 359.036 223.957 358.374 223.584C357.713 223.2 357.196 222.667 356.822 221.984C356.449 221.291 356.262 220.485 356.262 219.568ZM371.711 224L368.703 220.224V224H366.463V212.16H368.703V218.896L371.679 215.136H374.591L370.687 219.584L374.623 224H371.711ZM386.468 221.872H382.02L381.284 224H378.932L382.948 212.816H385.556L389.572 224H387.204L386.468 221.872ZM385.86 220.08L384.244 215.408L382.628 220.08H385.86ZM394.769 221.936L397.009 215.136H399.393L396.113 224H393.393L390.129 215.136H392.529L394.769 221.936ZM400.075 219.536C400.075 218.64 400.251 217.845 400.603 217.152C400.966 216.459 401.451 215.925 402.059 215.552C402.678 215.179 403.366 214.992 404.123 214.992C404.784 214.992 405.36 215.125 405.851 215.392C406.352 215.659 406.752 215.995 407.051 216.4V215.136H409.307V224H407.051V222.704C406.763 223.12 406.363 223.467 405.851 223.744C405.35 224.011 404.768 224.144 404.107 224.144C403.36 224.144 402.678 223.952 402.059 223.568C401.451 223.184 400.966 222.645 400.603 221.952C400.251 221.248 400.075 220.443 400.075 219.536ZM407.051 219.568C407.051 219.024 406.944 218.56 406.731 218.176C406.518 217.781 406.23 217.483 405.867 217.28C405.504 217.067 405.115 216.96 404.699 216.96C404.283 216.96 403.899 217.061 403.547 217.264C403.195 217.467 402.907 217.765 402.683 218.16C402.47 218.544 402.363 219.003 402.363 219.536C402.363 220.069 402.47 220.539 402.683 220.944C402.907 221.339 403.195 221.643 403.547 221.856C403.91 222.069 404.294 222.176 404.699 222.176C405.115 222.176 405.504 222.075 405.867 221.872C406.23 221.659 406.518 221.36 406.731 220.976C406.944 220.581 407.051 220.112 407.051 219.568ZM412.631 214.08C412.236 214.08 411.905 213.957 411.639 213.712C411.383 213.456 411.255 213.141 411.255 212.768C411.255 212.395 411.383 212.085 411.639 211.84C411.905 211.584 412.236 211.456 412.631 211.456C413.025 211.456 413.351 211.584 413.607 211.84C413.873 212.085 414.007 212.395 414.007 212.768C414.007 213.141 413.873 213.456 413.607 213.712C413.351 213.957 413.025 214.08 412.631 214.08ZM413.735 215.136V224H411.495V215.136H413.735ZM418.188 212.16V224H415.948V212.16H418.188ZM419.825 219.536C419.825 218.64 420.001 217.845 420.353 217.152C420.716 216.459 421.201 215.925 421.809 215.552C422.428 215.179 423.116 214.992 423.873 214.992C424.534 214.992 425.11 215.125 425.601 215.392C426.102 215.659 426.502 215.995 426.801 216.4V215.136H429.057V224H426.801V222.704C426.513 223.12 426.113 223.467 425.601 223.744C425.1 224.011 424.518 224.144 423.857 224.144C423.11 224.144 422.428 223.952 421.809 223.568C421.201 223.184 420.716 222.645 420.353 221.952C420.001 221.248 419.825 220.443 419.825 219.536ZM426.801 219.568C426.801 219.024 426.694 218.56 426.481 218.176C426.268 217.781 425.98 217.483 425.617 217.28C425.254 217.067 424.865 216.96 424.449 216.96C424.033 216.96 423.649 217.061 423.297 217.264C422.945 217.467 422.657 217.765 422.433 218.16C422.22 218.544 422.113 219.003 422.113 219.536C422.113 220.069 422.22 220.539 422.433 220.944C422.657 221.339 422.945 221.643 423.297 221.856C423.66 222.069 424.044 222.176 424.449 222.176C424.865 222.176 425.254 222.075 425.617 221.872C425.98 221.659 426.268 221.36 426.481 220.976C426.694 220.581 426.801 220.112 426.801 219.568ZM433.485 216.432C433.773 216.005 434.167 215.659 434.669 215.392C435.181 215.125 435.762 214.992 436.413 214.992C437.17 214.992 437.853 215.179 438.461 215.552C439.079 215.925 439.565 216.459 439.917 217.152C440.279 217.835 440.461 218.629 440.461 219.536C440.461 220.443 440.279 221.248 439.917 221.952C439.565 222.645 439.079 223.184 438.461 223.568C437.853 223.952 437.17 224.144 436.413 224.144C435.751 224.144 435.17 224.016 434.669 223.76C434.178 223.493 433.783 223.152 433.485 222.736V224H431.245V212.16H433.485V216.432ZM438.173 219.536C438.173 219.003 438.061 218.544 437.837 218.16C437.623 217.765 437.335 217.467 436.973 217.264C436.621 217.061 436.237 216.96 435.821 216.96C435.415 216.96 435.031 217.067 434.669 217.28C434.317 217.483 434.029 217.781 433.805 218.176C433.591 218.571 433.485 219.035 433.485 219.568C433.485 220.101 433.591 220.565 433.805 220.96C434.029 221.355 434.317 221.659 434.669 221.872C435.031 222.075 435.415 222.176 435.821 222.176C436.237 222.176 436.621 222.069 436.973 221.856C437.335 221.643 437.623 221.339 437.837 220.944C438.061 220.549 438.173 220.08 438.173 219.536ZM443.224 214.08C442.83 214.08 442.499 213.957 442.232 213.712C441.976 213.456 441.848 213.141 441.848 212.768C441.848 212.395 441.976 212.085 442.232 211.84C442.499 211.584 442.83 211.456 443.224 211.456C443.619 211.456 443.944 211.584 444.2 211.84C444.467 212.085 444.6 212.395 444.6 212.768C444.6 213.141 444.467 213.456 444.2 213.712C443.944 213.957 443.619 214.08 443.224 214.08ZM444.328 215.136V224H442.088V215.136H444.328ZM448.782 212.16V224H446.542V212.16H448.782ZM453.603 216.976V221.264C453.603 221.563 453.672 221.781 453.811 221.92C453.96 222.048 454.205 222.112 454.547 222.112H455.587V224H454.179C452.291 224 451.347 223.083 451.347 221.248V216.976H450.291V215.136H451.347V212.944H453.603V215.136H455.587V216.976H453.603ZM465.678 215.136L460.19 228.192H457.806L459.726 223.776L456.174 215.136H458.686L460.974 221.328L463.294 215.136H465.678Z" fill="white"/>
<path d="M402 5H542C550.284 5 557 11.7157 557 20V67H417C408.716 67 402 60.2843 402 52V5Z" fill="#E8604C" fill-opacity="0.12"/>
<path d="M437.79 18.926V28H435.97V22.098L433.539 28H432.161L429.717 22.098V28H427.897V18.926H429.964L432.85 25.673L435.736 18.926H437.79ZM443.801 28.091C442.952 28.091 442.172 27.8917 441.461 27.493C440.751 27.0943 440.187 26.544 439.771 25.842C439.355 25.1313 439.147 24.3297 439.147 23.437C439.147 22.553 439.355 21.76 439.771 21.058C440.187 20.3473 440.751 19.7927 441.461 19.394C442.172 18.9953 442.952 18.796 443.801 18.796C444.659 18.796 445.439 18.9953 446.141 19.394C446.852 19.7927 447.411 20.3473 447.818 21.058C448.234 21.76 448.442 22.553 448.442 23.437C448.442 24.3297 448.234 25.1313 447.818 25.842C447.411 26.544 446.852 27.0943 446.141 27.493C445.431 27.8917 444.651 28.091 443.801 28.091ZM443.801 26.466C444.347 26.466 444.828 26.3447 445.244 26.102C445.66 25.8507 445.985 25.4953 446.219 25.036C446.453 24.5767 446.57 24.0437 446.57 23.437C446.57 22.8303 446.453 22.3017 446.219 21.851C445.985 21.3917 445.66 21.0407 445.244 20.798C444.828 20.5553 444.347 20.434 443.801 20.434C443.255 20.434 442.77 20.5553 442.345 20.798C441.929 21.0407 441.604 21.3917 441.37 21.851C441.136 22.3017 441.019 22.8303 441.019 23.437C441.019 24.0437 441.136 24.5767 441.37 25.036C441.604 25.4953 441.929 25.8507 442.345 26.102C442.77 26.3447 443.255 26.466 443.801 26.466ZM452.929 28.091C452.297 28.091 451.725 27.9827 451.213 27.766C450.711 27.5493 450.312 27.2373 450.017 26.83C449.723 26.4227 449.571 25.9417 449.562 25.387H451.512C451.538 25.7597 451.668 26.0543 451.902 26.271C452.145 26.4877 452.474 26.596 452.89 26.596C453.315 26.596 453.649 26.4963 453.891 26.297C454.134 26.089 454.255 25.8203 454.255 25.491C454.255 25.2223 454.173 25.0013 454.008 24.828C453.844 24.6547 453.636 24.5203 453.384 24.425C453.142 24.321 452.804 24.2083 452.37 24.087C451.781 23.9137 451.3 23.7447 450.927 23.58C450.563 23.4067 450.247 23.151 449.978 22.813C449.718 22.4663 449.588 22.007 449.588 21.435C449.588 20.8977 449.723 20.4297 449.991 20.031C450.26 19.6323 450.637 19.329 451.122 19.121C451.608 18.9043 452.162 18.796 452.786 18.796C453.722 18.796 454.481 19.0257 455.061 19.485C455.651 19.9357 455.976 20.5683 456.036 21.383H454.034C454.017 21.071 453.883 20.8153 453.631 20.616C453.389 20.408 453.064 20.304 452.656 20.304C452.301 20.304 452.015 20.395 451.798 20.577C451.59 20.759 451.486 21.0233 451.486 21.37C451.486 21.6127 451.564 21.8163 451.72 21.981C451.885 22.137 452.084 22.267 452.318 22.371C452.561 22.4663 452.899 22.579 453.332 22.709C453.922 22.8823 454.403 23.0557 454.775 23.229C455.148 23.4023 455.469 23.6623 455.737 24.009C456.006 24.3557 456.14 24.8107 456.14 25.374C456.14 25.8593 456.015 26.31 455.763 26.726C455.512 27.142 455.144 27.4757 454.658 27.727C454.173 27.9697 453.597 28.091 452.929 28.091ZM463.893 18.926V20.395H461.475V28H459.655V20.395H457.237V18.926H463.893ZM432.577 48L430.575 44.464H429.717V48H427.897V38.926H431.303C432.005 38.926 432.603 39.0517 433.097 39.303C433.591 39.5457 433.959 39.8793 434.202 40.304C434.453 40.72 434.579 41.188 434.579 41.708C434.579 42.306 434.406 42.8477 434.059 43.333C433.712 43.8097 433.197 44.139 432.512 44.321L434.683 48H432.577ZM429.717 43.099H431.238C431.732 43.099 432.1 42.982 432.343 42.748C432.586 42.5053 432.707 42.1717 432.707 41.747C432.707 41.331 432.586 41.0103 432.343 40.785C432.1 40.551 431.732 40.434 431.238 40.434H429.717V43.099ZM438.045 40.395V42.67H441.1V44.113H438.045V46.518H441.49V48H436.225V38.913H441.49V40.395H438.045ZM442.702 43.45C442.702 42.5573 442.901 41.76 443.3 41.058C443.707 40.3473 444.258 39.797 444.951 39.407C445.653 39.0083 446.437 38.809 447.304 38.809C448.318 38.809 449.206 39.069 449.969 39.589C450.732 40.109 451.265 40.8283 451.568 41.747H449.475C449.267 41.3137 448.972 40.9887 448.591 40.772C448.218 40.5553 447.785 40.447 447.291 40.447C446.762 40.447 446.29 40.5727 445.874 40.824C445.467 41.0667 445.146 41.4133 444.912 41.864C444.687 42.3147 444.574 42.8433 444.574 43.45C444.574 44.048 444.687 44.5767 444.912 45.036C445.146 45.4867 445.467 45.8377 445.874 46.089C446.29 46.3317 446.762 46.453 447.291 46.453C447.785 46.453 448.218 46.3447 448.591 46.128C448.972 45.9027 449.267 45.5733 449.475 45.14H451.568C451.265 46.0673 450.732 46.791 449.969 47.311C449.215 47.8223 448.327 48.078 447.304 48.078C446.437 48.078 445.653 47.883 444.951 47.493C444.258 47.0943 443.707 46.544 443.3 45.842C442.901 45.14 442.702 44.3427 442.702 43.45ZM457.335 48.091C456.485 48.091 455.705 47.8917 454.995 47.493C454.284 47.0943 453.721 46.544 453.305 45.842C452.889 45.1313 452.681 44.3297 452.681 43.437C452.681 42.553 452.889 41.76 453.305 41.058C453.721 40.3473 454.284 39.7927 454.995 39.394C455.705 38.9953 456.485 38.796 457.335 38.796C458.193 38.796 458.973 38.9953 459.675 39.394C460.385 39.7927 460.944 40.3473 461.352 41.058C461.768 41.76 461.976 42.553 461.976 43.437C461.976 44.3297 461.768 45.1313 461.352 45.842C460.944 46.544 460.385 47.0943 459.675 47.493C458.964 47.8917 458.184 48.091 457.335 48.091ZM457.335 46.466C457.881 46.466 458.362 46.3447 458.778 46.102C459.194 45.8507 459.519 45.4953 459.753 45.036C459.987 44.5767 460.104 44.0437 460.104 43.437C460.104 42.8303 459.987 42.3017 459.753 41.851C459.519 41.3917 459.194 41.0407 458.778 40.798C458.362 40.5553 457.881 40.434 457.335 40.434C456.789 40.434 456.303 40.5553 455.879 40.798C455.463 41.0407 455.138 41.3917 454.904 41.851C454.67 42.3017 454.553 42.8303 454.553 43.437C454.553 44.0437 454.67 44.5767 454.904 45.036C455.138 45.4953 455.463 45.8507 455.879 46.102C456.303 46.3447 456.789 46.466 457.335 46.466ZM473.223 38.926V48H471.403V42.098L468.972 48H467.594L465.15 42.098V48H463.33V38.926H465.397L468.283 45.673L471.169 38.926H473.223ZM484.915 38.926V48H483.095V42.098L480.664 48H479.286L476.842 42.098V48H475.022V38.926H477.089L479.975 45.673L482.861 38.926H484.915ZM488.534 40.395V42.67H491.589V44.113H488.534V46.518H491.979V48H486.714V38.913H491.979V40.395H488.534ZM501.394 48H499.574L495.453 41.773V48H493.633V38.913H495.453L499.574 45.153V38.913H501.394V48ZM506.365 38.926C507.318 38.926 508.155 39.1123 508.874 39.485C509.602 39.8577 510.161 40.3907 510.551 41.084C510.95 41.7687 511.149 42.566 511.149 43.476C511.149 44.386 510.95 45.1833 510.551 45.868C510.161 46.544 509.602 47.0683 508.874 47.441C508.155 47.8137 507.318 48 506.365 48H503.193V38.926H506.365ZM506.3 46.453C507.253 46.453 507.99 46.193 508.51 45.673C509.03 45.153 509.29 44.4207 509.29 43.476C509.29 42.5313 509.03 41.7947 508.51 41.266C507.99 40.7287 507.253 40.46 506.3 40.46H505.013V46.453H506.3ZM514.331 40.395V42.67H517.386V44.113H514.331V46.518H517.776V48H512.511V38.913H517.776V40.395H514.331ZM522.602 38.926C523.556 38.926 524.392 39.1123 525.111 39.485C525.839 39.8577 526.398 40.3907 526.788 41.084C527.187 41.7687 527.386 42.566 527.386 43.476C527.386 44.386 527.187 45.1833 526.788 45.868C526.398 46.544 525.839 47.0683 525.111 47.441C524.392 47.8137 523.556 48 522.602 48H519.43V38.926H522.602ZM522.537 46.453C523.491 46.453 524.227 46.193 524.747 45.673C525.267 45.153 525.527 44.4207 525.527 43.476C525.527 42.5313 525.267 41.7947 524.747 41.266C524.227 40.7287 523.491 40.46 522.537 40.46H521.25V46.453H522.537Z" fill="#E8604C"/>
<defs>
<filter id="filter0_d_207_2537" x="0" y="0" width="560" height="290" filterUnits="userSpaceOnUse" color-interpolation-filters="sRGB">
<feFlood flood-opacity="0" result="BackgroundImageFix"/>
<feColorMatrix in="SourceAlpha" type="matrix" values="0 0 0 0 0 0 0 0 0 0 0 0 0 0 0 0 0 0 127 0" result="hardAlpha"/>
<feOffset/>
<feGaussianBlur stdDeviation="2.5"/>
<feComposite in2="hardAlpha" operator="out"/>
<feColorMatrix type="matrix" values="0 0 0 0 0.909804 0 0 0 0 0.376471 0 0 0 0 0.298039 0 0 0 0.34 0"/>
<feBlend mode="normal" in2="BackgroundImageFix" result="effect1_dropShadow_207_2537"/>
<feBlend mode="normal" in="SourceGraphic" in2="effect1_dropShadow_207_2537" result="shape"/>
</filter>
</defs>
</svg>
