<svg width="385" height="69" viewBox="0 0 385 69" fill="none" xmlns="http://www.w3.org/2000/svg">
<path d="M41.704 19.216C40.756 19.216 39.886 19.048 39.094 18.712C38.302 18.364 37.612 17.884 37.024 17.272C36.448 16.648 35.998 15.916 35.674 15.076C35.35 14.236 35.188 13.312 35.188 12.304C35.188 11.296 35.35 10.372 35.674 9.532C35.998 8.692 36.448 7.96 37.024 7.336C37.612 6.712 38.302 6.232 39.094 5.896C39.886 5.548 40.756 5.374 41.704 5.374C42.616 5.374 43.432 5.536 44.152 5.86C44.884 6.184 45.496 6.604 45.988 7.12C46.492 7.624 46.852 8.158 47.068 8.722L45.772 9.352C45.436 8.536 44.92 7.894 44.224 7.426C43.528 6.958 42.688 6.724 41.704 6.724C40.72 6.724 39.844 6.958 39.076 7.426C38.308 7.894 37.708 8.548 37.276 9.388C36.844 10.216 36.628 11.188 36.628 12.304C36.628 13.408 36.844 14.38 37.276 15.22C37.708 16.06 38.308 16.714 39.076 17.182C39.844 17.638 40.72 17.866 41.704 17.866C42.58 17.866 43.366 17.674 44.062 17.29C44.77 16.906 45.328 16.384 45.736 15.724C46.144 15.052 46.348 14.284 46.348 13.42V12.682L46.996 13.33H41.704V12.07H47.788V13.186C47.788 14.062 47.632 14.872 47.32 15.616C47.008 16.348 46.576 16.984 46.024 17.524C45.472 18.064 44.824 18.484 44.08 18.784C43.348 19.072 42.556 19.216 41.704 19.216ZM54.5612 19.216C53.6612 19.216 52.8452 19 52.1132 18.568C51.3932 18.124 50.8232 17.518 50.4032 16.75C49.9832 15.982 49.7732 15.112 49.7732 14.14C49.7732 13.168 49.9772 12.31 50.3852 11.566C50.7932 10.81 51.3452 10.216 52.0412 9.784C52.7492 9.352 53.5412 9.136 54.4172 9.136C55.1132 9.136 55.7312 9.268 56.2712 9.532C56.8232 9.784 57.2912 10.132 57.6752 10.576C58.0592 11.008 58.3532 11.5 58.5572 12.052C58.7612 12.592 58.8632 13.15 58.8632 13.726C58.8632 13.846 58.8572 13.984 58.8452 14.14C58.8332 14.284 58.8152 14.434 58.7912 14.59H50.6372V13.33H58.0172L57.3692 13.87C57.4772 13.21 57.3992 12.622 57.1352 12.106C56.8832 11.578 56.5172 11.164 56.0372 10.864C55.5572 10.552 55.0172 10.396 54.4172 10.396C53.8172 10.396 53.2592 10.552 52.7432 10.864C52.2392 11.176 51.8432 11.614 51.5552 12.178C51.2672 12.73 51.1532 13.39 51.2132 14.158C51.1532 14.926 51.2732 15.598 51.5732 16.174C51.8852 16.738 52.3052 17.176 52.8332 17.488C53.3732 17.8 53.9492 17.956 54.5612 17.956C55.2692 17.956 55.8632 17.788 56.3432 17.452C56.8232 17.116 57.2132 16.696 57.5132 16.192L58.6652 16.804C58.4732 17.236 58.1792 17.638 57.7832 18.01C57.3872 18.37 56.9132 18.664 56.3612 18.892C55.8212 19.108 55.2212 19.216 54.5612 19.216ZM65.5994 19.216C64.6994 19.216 63.8894 19 63.1694 18.568C62.4494 18.124 61.8794 17.524 61.4594 16.768C61.0514 16 60.8474 15.136 60.8474 14.176C60.8474 13.204 61.0514 12.34 61.4594 11.584C61.8794 10.828 62.4434 10.234 63.1514 9.802C63.8714 9.358 64.6874 9.136 65.5994 9.136C66.4274 9.136 67.1654 9.316 67.8134 9.676C68.4614 10.036 68.9714 10.522 69.3434 11.134L69.1274 11.512V5.374H70.4774V19H69.1274V16.84L69.3434 17.038C69.0074 17.734 68.5034 18.274 67.8314 18.658C67.1714 19.03 66.4274 19.216 65.5994 19.216ZM65.6714 17.866C66.3194 17.866 66.9014 17.704 67.4174 17.38C67.9454 17.056 68.3594 16.618 68.6594 16.066C68.9714 15.502 69.1274 14.872 69.1274 14.176C69.1274 13.48 68.9714 12.856 68.6594 12.304C68.3594 11.74 67.9454 11.296 67.4174 10.972C66.9014 10.648 66.3194 10.486 65.6714 10.486C65.0354 10.486 64.4594 10.648 63.9434 10.972C63.4274 11.296 63.0194 11.734 62.7194 12.286C62.4314 12.838 62.2874 13.468 62.2874 14.176C62.2874 14.872 62.4314 15.502 62.7194 16.066C63.0194 16.618 63.4214 17.056 63.9254 17.38C64.4414 17.704 65.0234 17.866 65.6714 17.866ZM76.6693 19.216C75.9973 19.216 75.3853 19.06 74.8333 18.748C74.2813 18.424 73.8433 17.98 73.5193 17.416C73.2073 16.84 73.0513 16.18 73.0513 15.436V9.352H74.4013V15.274C74.4013 15.79 74.5033 16.246 74.7073 16.642C74.9233 17.026 75.2173 17.326 75.5893 17.542C75.9733 17.758 76.4113 17.866 76.9033 17.866C77.3953 17.866 77.8333 17.758 78.2173 17.542C78.6013 17.314 78.9013 16.996 79.1173 16.588C79.3333 16.168 79.4413 15.67 79.4413 15.094V9.352H80.7913V19H79.4413V17.128L79.7473 17.2C79.5193 17.824 79.1293 18.316 78.5773 18.676C78.0253 19.036 77.3893 19.216 76.6693 19.216ZM83.5676 19V9.352H84.9176V11.224L84.6116 11.152C84.8516 10.528 85.2416 10.036 85.7816 9.676C86.3336 9.316 86.9696 9.136 87.6896 9.136C88.3736 9.136 88.9856 9.292 89.5256 9.604C90.0776 9.916 90.5096 10.348 90.8216 10.9C91.1456 11.44 91.3076 12.052 91.3076 12.736V19H89.9576V13.258C89.9576 12.67 89.8496 12.172 89.6336 11.764C89.4296 11.356 89.1356 11.044 88.7516 10.828C88.3796 10.6 87.9476 10.486 87.4556 10.486C86.9636 10.486 86.5256 10.6 86.1416 10.828C85.7576 11.044 85.4576 11.362 85.2416 11.782C85.0256 12.19 84.9176 12.682 84.9176 13.258V19H83.5676ZM98.458 22.96C97.798 22.96 97.186 22.858 96.622 22.654C96.07 22.45 95.59 22.168 95.182 21.808C94.786 21.46 94.48 21.052 94.264 20.584L95.506 19.918C95.698 20.374 96.04 20.77 96.532 21.106C97.024 21.442 97.654 21.61 98.422 21.61C99.01 21.61 99.55 21.496 100.042 21.268C100.534 21.04 100.93 20.704 101.23 20.26C101.53 19.816 101.68 19.27 101.68 18.622V16.48L101.896 16.678C101.56 17.374 101.062 17.914 100.402 18.298C99.742 18.67 99.022 18.856 98.242 18.856C97.342 18.856 96.532 18.64 95.812 18.208C95.092 17.776 94.522 17.194 94.102 16.462C93.694 15.718 93.49 14.896 93.49 13.996C93.49 13.084 93.694 12.262 94.102 11.53C94.522 10.798 95.086 10.216 95.794 9.784C96.514 9.352 97.33 9.136 98.242 9.136C99.022 9.136 99.73 9.316 100.366 9.676C101.014 10.036 101.524 10.522 101.896 11.134L101.68 11.512V9.352H103.03V18.622C103.03 19.45 102.832 20.188 102.436 20.836C102.052 21.496 101.512 22.012 100.816 22.384C100.132 22.768 99.346 22.96 98.458 22.96ZM98.314 17.506C98.938 17.506 99.502 17.35 100.006 17.038C100.51 16.714 100.912 16.288 101.212 15.76C101.524 15.22 101.68 14.632 101.68 13.996C101.68 13.36 101.524 12.778 101.212 12.25C100.912 11.71 100.51 11.284 100.006 10.972C99.502 10.648 98.938 10.486 98.314 10.486C97.678 10.486 97.102 10.648 96.586 10.972C96.07 11.284 95.662 11.704 95.362 12.232C95.074 12.76 94.93 13.348 94.93 13.996C94.93 14.632 95.074 15.22 95.362 15.76C95.662 16.288 96.064 16.714 96.568 17.038C97.084 17.35 97.666 17.506 98.314 17.506ZM111.383 19V6.94H107.675V5.59H116.495V6.94H112.823V19H111.383ZM117.001 19V9.352H118.351V10.936L118.171 10.702C118.399 10.246 118.741 9.886 119.197 9.622C119.665 9.358 120.229 9.226 120.889 9.226H121.501V10.576H120.655C119.959 10.576 119.401 10.792 118.981 11.224C118.561 11.656 118.351 12.268 118.351 13.06V19H117.001ZM123.083 19V9.352H124.433V19H123.083ZM123.083 7.57V5.59H124.433V7.57H123.083ZM131.715 19.216C130.803 19.216 129.975 19 129.231 18.568C128.487 18.124 127.893 17.524 127.449 16.768C127.017 16 126.801 15.13 126.801 14.158C126.801 13.198 127.017 12.34 127.449 11.584C127.881 10.828 128.463 10.234 129.195 9.802C129.939 9.358 130.779 9.136 131.715 9.136C132.651 9.136 133.485 9.352 134.217 9.784C134.961 10.216 135.543 10.81 135.963 11.566C136.395 12.322 136.611 13.186 136.611 14.158C136.611 15.142 136.389 16.018 135.945 16.786C135.501 17.542 134.907 18.136 134.163 18.568C133.431 19 132.615 19.216 131.715 19.216ZM131.715 17.866C132.363 17.866 132.945 17.704 133.461 17.38C133.989 17.056 134.403 16.612 134.703 16.048C135.015 15.484 135.171 14.854 135.171 14.158C135.171 13.462 135.015 12.838 134.703 12.286C134.403 11.734 133.989 11.296 133.461 10.972C132.945 10.648 132.363 10.486 131.715 10.486C131.067 10.486 130.479 10.648 129.951 10.972C129.435 11.296 129.021 11.734 128.709 12.286C128.397 12.838 128.241 13.462 128.241 14.158C128.241 14.854 128.397 15.484 128.709 16.048C129.021 16.612 129.435 17.056 129.951 17.38C130.479 17.704 131.067 17.866 131.715 17.866ZM139.045 21.34V20.71C139.405 20.614 139.669 20.428 139.837 20.152C140.005 19.876 140.089 19.492 140.089 19H139.405V17.02H140.845V18.532C140.845 19.312 140.695 19.936 140.395 20.404C140.095 20.884 139.645 21.196 139.045 21.34ZM147.1 19V5.59H148.54V17.65H154.48V19H147.1ZM159.609 19.108C158.745 19.108 158.079 18.856 157.611 18.352C157.143 17.848 156.909 17.128 156.909 16.192V10.702H155.127V9.352H155.577C155.985 9.352 156.309 9.22 156.549 8.956C156.789 8.68 156.909 8.338 156.909 7.93V7.12H158.259V9.352H160.383V10.702H158.259V16.192C158.259 16.516 158.307 16.804 158.403 17.056C158.499 17.296 158.661 17.488 158.889 17.632C159.129 17.776 159.447 17.848 159.843 17.848C159.939 17.848 160.053 17.842 160.185 17.83C160.317 17.818 160.431 17.806 160.527 17.794V19C160.383 19.036 160.221 19.06 160.041 19.072C159.861 19.096 159.717 19.108 159.609 19.108ZM163.366 19V17.02H164.806V19H163.366ZM170.765 19V18.1L174.509 13.978C175.241 13.174 175.835 12.508 176.291 11.98C176.759 11.452 177.107 10.972 177.335 10.54C177.563 10.108 177.677 9.64 177.677 9.136C177.677 8.332 177.443 7.714 176.975 7.282C176.507 6.85 175.883 6.634 175.103 6.634C174.299 6.634 173.621 6.862 173.069 7.318C172.529 7.774 172.163 8.41 171.971 9.226L170.657 8.938C170.813 8.206 171.095 7.576 171.503 7.048C171.911 6.52 172.421 6.112 173.033 5.824C173.645 5.524 174.329 5.374 175.085 5.374C175.889 5.374 176.591 5.536 177.191 5.86C177.791 6.184 178.259 6.628 178.595 7.192C178.943 7.756 179.117 8.404 179.117 9.136C179.117 9.64 179.009 10.126 178.793 10.594C178.589 11.062 178.277 11.566 177.857 12.106C177.437 12.646 176.897 13.276 176.237 13.996L172.835 17.74H179.477V19H170.765ZM189.674 19.216C188.822 19.216 188.048 19.054 187.352 18.73C186.656 18.406 186.068 17.974 185.588 17.434C185.108 16.882 184.766 16.276 184.562 15.616L185.858 15.13C186.17 16.042 186.656 16.738 187.316 17.218C187.976 17.686 188.762 17.92 189.674 17.92C190.25 17.92 190.754 17.83 191.186 17.65C191.63 17.458 191.972 17.194 192.212 16.858C192.452 16.522 192.572 16.132 192.572 15.688C192.572 15.028 192.392 14.518 192.032 14.158C191.672 13.798 191.156 13.522 190.484 13.33L188.072 12.61C187.124 12.334 186.392 11.872 185.876 11.224C185.372 10.576 185.12 9.838 185.12 9.01C185.12 8.302 185.294 7.678 185.642 7.138C185.99 6.586 186.464 6.154 187.064 5.842C187.676 5.53 188.366 5.374 189.134 5.374C189.938 5.374 190.658 5.524 191.294 5.824C191.942 6.112 192.488 6.496 192.932 6.976C193.376 7.456 193.694 7.99 193.886 8.578L192.626 9.082C192.338 8.29 191.888 7.69 191.276 7.282C190.676 6.874 189.968 6.67 189.152 6.67C188.636 6.67 188.18 6.76 187.784 6.94C187.4 7.12 187.1 7.378 186.884 7.714C186.668 8.05 186.56 8.446 186.56 8.902C186.56 9.454 186.734 9.952 187.082 10.396C187.43 10.828 187.964 11.152 188.684 11.368L190.808 11.998C191.864 12.31 192.662 12.76 193.202 13.348C193.742 13.936 194.012 14.674 194.012 15.562C194.012 16.282 193.826 16.918 193.454 17.47C193.094 18.01 192.584 18.436 191.924 18.748C191.276 19.06 190.526 19.216 189.674 19.216ZM200.015 19.216C199.343 19.216 198.731 19.06 198.179 18.748C197.627 18.424 197.189 17.98 196.865 17.416C196.553 16.84 196.397 16.18 196.397 15.436V9.352H197.747V15.274C197.747 15.79 197.849 16.246 198.053 16.642C198.269 17.026 198.563 17.326 198.935 17.542C199.319 17.758 199.757 17.866 200.249 17.866C200.741 17.866 201.179 17.758 201.563 17.542C201.947 17.314 202.247 16.996 202.463 16.588C202.679 16.168 202.787 15.67 202.787 15.094V9.352H204.137V19H202.787V17.128L203.093 17.2C202.865 17.824 202.475 18.316 201.923 18.676C201.371 19.036 200.735 19.216 200.015 19.216ZM206.913 19V9.352H208.263V19H206.913ZM206.913 7.57V5.59H208.263V7.57H206.913ZM214.717 19.108C213.853 19.108 213.187 18.856 212.719 18.352C212.251 17.848 212.017 17.128 212.017 16.192V10.702H210.235V9.352H210.685C211.093 9.352 211.417 9.22 211.657 8.956C211.897 8.68 212.017 8.338 212.017 7.93V7.12H213.367V9.352H215.491V10.702H213.367V16.192C213.367 16.516 213.415 16.804 213.511 17.056C213.607 17.296 213.769 17.488 213.997 17.632C214.237 17.776 214.555 17.848 214.951 17.848C215.047 17.848 215.161 17.842 215.293 17.83C215.425 17.818 215.539 17.806 215.635 17.794V19C215.491 19.036 215.329 19.06 215.149 19.072C214.969 19.096 214.825 19.108 214.717 19.108ZM222.046 19.216C221.146 19.216 220.33 19 219.598 18.568C218.878 18.124 218.308 17.518 217.888 16.75C217.468 15.982 217.258 15.112 217.258 14.14C217.258 13.168 217.462 12.31 217.87 11.566C218.278 10.81 218.83 10.216 219.526 9.784C220.234 9.352 221.026 9.136 221.902 9.136C222.598 9.136 223.216 9.268 223.756 9.532C224.308 9.784 224.776 10.132 225.16 10.576C225.544 11.008 225.838 11.5 226.042 12.052C226.246 12.592 226.348 13.15 226.348 13.726C226.348 13.846 226.342 13.984 226.33 14.14C226.318 14.284 226.3 14.434 226.276 14.59H218.122V13.33H225.502L224.854 13.87C224.962 13.21 224.884 12.622 224.62 12.106C224.368 11.578 224.002 11.164 223.522 10.864C223.042 10.552 222.502 10.396 221.902 10.396C221.302 10.396 220.744 10.552 220.228 10.864C219.724 11.176 219.328 11.614 219.04 12.178C218.752 12.73 218.638 13.39 218.698 14.158C218.638 14.926 218.758 15.598 219.058 16.174C219.37 16.738 219.79 17.176 220.318 17.488C220.858 17.8 221.434 17.956 222.046 17.956C222.754 17.956 223.348 17.788 223.828 17.452C224.308 17.116 224.698 16.696 224.998 16.192L226.15 16.804C225.958 17.236 225.664 17.638 225.268 18.01C224.872 18.37 224.398 18.664 223.846 18.892C223.306 19.108 222.706 19.216 222.046 19.216ZM232.076 19.216C231.152 19.216 230.342 18.982 229.646 18.514C228.95 18.046 228.446 17.41 228.134 16.606L229.268 16.066C229.544 16.654 229.928 17.122 230.42 17.47C230.924 17.818 231.476 17.992 232.076 17.992C232.652 17.992 233.138 17.854 233.534 17.578C233.93 17.29 234.128 16.918 234.128 16.462C234.128 16.126 234.032 15.862 233.84 15.67C233.648 15.466 233.426 15.31 233.174 15.202C232.922 15.094 232.7 15.016 232.508 14.968L231.122 14.572C230.234 14.32 229.592 13.966 229.196 13.51C228.8 13.054 228.602 12.526 228.602 11.926C228.602 11.362 228.746 10.87 229.034 10.45C229.322 10.03 229.712 9.706 230.204 9.478C230.696 9.25 231.242 9.136 231.842 9.136C232.658 9.136 233.396 9.352 234.056 9.784C234.728 10.204 235.202 10.792 235.478 11.548L234.326 12.088C234.086 11.548 233.738 11.128 233.282 10.828C232.838 10.516 232.34 10.36 231.788 10.36C231.248 10.36 230.816 10.498 230.492 10.774C230.168 11.05 230.006 11.398 230.006 11.818C230.006 12.142 230.09 12.4 230.258 12.592C230.426 12.784 230.618 12.928 230.834 13.024C231.062 13.12 231.26 13.192 231.428 13.24L233.03 13.708C233.81 13.936 234.416 14.29 234.848 14.77C235.292 15.25 235.514 15.814 235.514 16.462C235.514 16.99 235.364 17.464 235.064 17.884C234.776 18.304 234.374 18.634 233.858 18.874C233.342 19.102 232.748 19.216 232.076 19.216ZM240.603 19V18.1L244.347 13.978C245.079 13.174 245.673 12.508 246.129 11.98C246.597 11.452 246.945 10.972 247.173 10.54C247.401 10.108 247.515 9.64 247.515 9.136C247.515 8.332 247.281 7.714 246.813 7.282C246.345 6.85 245.721 6.634 244.941 6.634C244.137 6.634 243.459 6.862 242.907 7.318C242.367 7.774 242.001 8.41 241.809 9.226L240.495 8.938C240.651 8.206 240.933 7.576 241.341 7.048C241.749 6.52 242.259 6.112 242.871 5.824C243.483 5.524 244.167 5.374 244.923 5.374C245.727 5.374 246.429 5.536 247.029 5.86C247.629 6.184 248.097 6.628 248.433 7.192C248.781 7.756 248.955 8.404 248.955 9.136C248.955 9.64 248.847 10.126 248.631 10.594C248.427 11.062 248.115 11.566 247.695 12.106C247.275 12.646 246.735 13.276 246.075 13.996L242.673 17.74H249.315V19H240.603ZM256.958 19.216C255.902 19.216 254.972 18.928 254.168 18.352C253.376 17.764 252.758 16.954 252.314 15.922C251.87 14.878 251.648 13.666 251.648 12.286C251.648 10.906 251.87 9.7 252.314 8.668C252.758 7.624 253.376 6.814 254.168 6.238C254.96 5.662 255.884 5.374 256.94 5.374C257.996 5.374 258.92 5.662 259.712 6.238C260.504 6.814 261.122 7.624 261.566 8.668C262.01 9.7 262.232 10.906 262.232 12.286C262.232 13.666 262.01 14.878 261.566 15.922C261.134 16.966 260.522 17.776 259.73 18.352C258.938 18.928 258.014 19.216 256.958 19.216ZM256.958 17.866C257.726 17.866 258.398 17.632 258.974 17.164C259.55 16.696 260 16.048 260.324 15.22C260.648 14.38 260.81 13.402 260.81 12.286C260.81 11.17 260.648 10.198 260.324 9.37C260 8.53 259.55 7.882 258.974 7.426C258.398 6.958 257.72 6.724 256.94 6.724C256.172 6.724 255.5 6.958 254.924 7.426C254.348 7.882 253.898 8.53 253.574 9.37C253.25 10.198 253.088 11.17 253.088 12.286C253.088 13.39 253.25 14.362 253.574 15.202C253.898 16.042 254.348 16.696 254.924 17.164C255.512 17.632 256.19 17.866 256.958 17.866ZM268.971 19.216C268.275 19.216 267.627 19.096 267.027 18.856C266.439 18.616 265.923 18.274 265.479 17.83C265.035 17.386 264.699 16.858 264.471 16.246L265.569 15.706C265.845 16.402 266.295 16.954 266.919 17.362C267.555 17.758 268.239 17.956 268.971 17.956C269.559 17.956 270.081 17.818 270.537 17.542C271.005 17.266 271.371 16.894 271.635 16.426C271.899 15.946 272.031 15.412 272.031 14.824C272.031 14.212 271.893 13.672 271.617 13.204C271.353 12.736 270.993 12.37 270.537 12.106C270.081 11.83 269.565 11.692 268.989 11.692C268.401 11.692 267.855 11.83 267.351 12.106C266.859 12.37 266.499 12.694 266.271 13.078L265.137 12.862L266.145 5.59H272.931V6.85H266.667L267.225 6.364L266.415 12.088L265.857 11.836C266.277 11.32 266.769 10.954 267.333 10.738C267.897 10.51 268.473 10.396 269.061 10.396C269.925 10.396 270.687 10.6 271.347 11.008C272.007 11.404 272.523 11.938 272.895 12.61C273.279 13.27 273.471 14.008 273.471 14.824C273.471 15.652 273.273 16.402 272.877 17.074C272.493 17.734 271.959 18.256 271.275 18.64C270.603 19.024 269.835 19.216 268.971 19.216ZM34.99 42V40.56H35.71C36.382 40.56 36.91 40.362 37.294 39.966C37.678 39.558 37.87 39.006 37.87 38.31V28.59H39.31V38.31C39.31 39.066 39.16 39.72 38.86 40.272C38.572 40.824 38.158 41.25 37.618 41.55C37.078 41.85 36.442 42 35.71 42H34.99ZM42.4746 42V28.59H43.9146V42H42.4746ZM47.3501 42V40.02H48.7901V42H47.3501ZM55.2891 42V28.59H56.5491L61.5891 35.898H60.8871L65.9091 28.59H67.1691V42H65.7291V30.534L66.1971 30.714L61.2651 37.86H61.1931L56.2791 30.714L56.7291 30.534V42H55.2891ZM72.928 42.216C72.316 42.216 71.77 42.102 71.29 41.874C70.81 41.634 70.432 41.31 70.156 40.902C69.88 40.494 69.742 40.026 69.742 39.498C69.742 38.994 69.85 38.538 70.066 38.13C70.282 37.71 70.618 37.356 71.074 37.068C71.53 36.78 72.112 36.576 72.82 36.456L76.6 35.826V37.05L73.144 37.626C72.448 37.746 71.944 37.968 71.632 38.292C71.332 38.616 71.182 39 71.182 39.444C71.182 39.876 71.35 40.242 71.686 40.542C72.034 40.842 72.478 40.992 73.018 40.992C73.678 40.992 74.254 40.854 74.746 40.578C75.238 40.29 75.622 39.906 75.898 39.426C76.174 38.946 76.312 38.412 76.312 37.824V35.376C76.312 34.8 76.102 34.332 75.682 33.972C75.262 33.612 74.716 33.432 74.044 33.432C73.456 33.432 72.94 33.582 72.496 33.882C72.052 34.17 71.722 34.548 71.506 35.016L70.282 34.35C70.462 33.942 70.744 33.57 71.128 33.234C71.524 32.898 71.974 32.634 72.478 32.442C72.982 32.238 73.504 32.136 74.044 32.136C74.752 32.136 75.376 32.274 75.916 32.55C76.468 32.826 76.894 33.21 77.194 33.702C77.506 34.182 77.662 34.74 77.662 35.376V42H76.312V40.074L76.51 40.272C76.342 40.632 76.078 40.962 75.718 41.262C75.37 41.55 74.956 41.784 74.476 41.964C74.008 42.132 73.492 42.216 72.928 42.216ZM80.4387 42V32.352H81.7887V34.188L81.5727 33.918C81.8367 33.354 82.2267 32.916 82.7427 32.604C83.2707 32.292 83.8467 32.136 84.4707 32.136C85.2147 32.136 85.8867 32.346 86.4867 32.766C87.0867 33.186 87.5127 33.732 87.7647 34.404L87.3867 34.422C87.6267 33.678 88.0407 33.114 88.6287 32.73C89.2287 32.334 89.8887 32.136 90.6087 32.136C91.2567 32.136 91.8507 32.292 92.3907 32.604C92.9427 32.916 93.3807 33.348 93.7047 33.9C94.0407 34.44 94.2087 35.052 94.2087 35.736V42H92.8587V36.258C92.8587 35.67 92.7507 35.172 92.5347 34.764C92.3307 34.356 92.0487 34.044 91.6887 33.828C91.3287 33.6 90.9147 33.486 90.4467 33.486C89.9907 33.486 89.5767 33.6 89.2047 33.828C88.8327 34.044 88.5387 34.362 88.3227 34.782C88.1067 35.19 87.9987 35.682 87.9987 36.258V42H86.6487V36.258C86.6487 35.67 86.5407 35.172 86.3247 34.764C86.1207 34.356 85.8387 34.044 85.4787 33.828C85.1187 33.6 84.7047 33.486 84.2367 33.486C83.7687 33.486 83.3487 33.6 82.9767 33.828C82.6167 34.044 82.3287 34.362 82.1127 34.782C81.8967 35.19 81.7887 35.682 81.7887 36.258V42H80.4387ZM96.7864 45.6V32.352H98.1364V34.512L97.9204 34.134C98.3044 33.522 98.8144 33.036 99.4504 32.676C100.098 32.316 100.836 32.136 101.664 32.136C102.576 32.136 103.386 32.358 104.094 32.802C104.814 33.234 105.378 33.828 105.786 34.584C106.206 35.34 106.416 36.204 106.416 37.176C106.416 38.136 106.206 39 105.786 39.768C105.378 40.524 104.814 41.124 104.094 41.568C103.386 42 102.576 42.216 101.664 42.216C100.836 42.216 100.086 42.03 99.4144 41.658C98.7544 41.274 98.2564 40.734 97.9204 40.038L98.1364 39.84V45.6H96.7864ZM101.592 40.866C102.24 40.866 102.816 40.704 103.32 40.38C103.836 40.056 104.238 39.618 104.526 39.066C104.826 38.502 104.976 37.872 104.976 37.176C104.976 36.468 104.826 35.838 104.526 35.286C104.238 34.734 103.836 34.296 103.32 33.972C102.816 33.648 102.24 33.486 101.592 33.486C100.944 33.486 100.356 33.648 99.8284 33.972C99.3124 34.296 98.8984 34.74 98.5864 35.304C98.2864 35.856 98.1364 36.48 98.1364 37.176C98.1364 37.872 98.2864 38.502 98.5864 39.066C98.8984 39.618 99.3124 40.056 99.8284 40.38C100.356 40.704 100.944 40.866 101.592 40.866ZM111.582 42.216C110.97 42.216 110.424 42.102 109.944 41.874C109.464 41.634 109.086 41.31 108.81 40.902C108.534 40.494 108.396 40.026 108.396 39.498C108.396 38.994 108.504 38.538 108.72 38.13C108.936 37.71 109.272 37.356 109.728 37.068C110.184 36.78 110.766 36.576 111.474 36.456L115.254 35.826V37.05L111.798 37.626C111.102 37.746 110.598 37.968 110.286 38.292C109.986 38.616 109.836 39 109.836 39.444C109.836 39.876 110.004 40.242 110.34 40.542C110.688 40.842 111.132 40.992 111.672 40.992C112.332 40.992 112.908 40.854 113.4 40.578C113.892 40.29 114.276 39.906 114.552 39.426C114.828 38.946 114.966 38.412 114.966 37.824V35.376C114.966 34.8 114.756 34.332 114.336 33.972C113.916 33.612 113.37 33.432 112.698 33.432C112.11 33.432 111.594 33.582 111.15 33.882C110.706 34.17 110.376 34.548 110.16 35.016L108.936 34.35C109.116 33.942 109.398 33.57 109.782 33.234C110.178 32.898 110.628 32.634 111.132 32.442C111.636 32.238 112.158 32.136 112.698 32.136C113.406 32.136 114.03 32.274 114.57 32.55C115.122 32.826 115.548 33.21 115.848 33.702C116.16 34.182 116.316 34.74 116.316 35.376V42H114.966V40.074L115.164 40.272C114.996 40.632 114.732 40.962 114.372 41.262C114.024 41.55 113.61 41.784 113.13 41.964C112.662 42.132 112.146 42.216 111.582 42.216ZM119.093 42V32.352H120.443V34.224L120.137 34.152C120.377 33.528 120.767 33.036 121.307 32.676C121.859 32.316 122.495 32.136 123.215 32.136C123.899 32.136 124.511 32.292 125.051 32.604C125.603 32.916 126.035 33.348 126.347 33.9C126.671 34.44 126.833 35.052 126.833 35.736V42H125.483V36.258C125.483 35.67 125.375 35.172 125.159 34.764C124.955 34.356 124.661 34.044 124.277 33.828C123.905 33.6 123.473 33.486 122.981 33.486C122.489 33.486 122.051 33.6 121.667 33.828C121.283 34.044 120.983 34.362 120.767 34.782C120.551 35.19 120.443 35.682 120.443 36.258V42H119.093ZM133.983 45.96C133.323 45.96 132.711 45.858 132.147 45.654C131.595 45.45 131.115 45.168 130.707 44.808C130.311 44.46 130.005 44.052 129.789 43.584L131.031 42.918C131.223 43.374 131.565 43.77 132.057 44.106C132.549 44.442 133.179 44.61 133.947 44.61C134.535 44.61 135.075 44.496 135.567 44.268C136.059 44.04 136.455 43.704 136.755 43.26C137.055 42.816 137.205 42.27 137.205 41.622V39.48L137.421 39.678C137.085 40.374 136.587 40.914 135.927 41.298C135.267 41.67 134.547 41.856 133.767 41.856C132.867 41.856 132.057 41.64 131.337 41.208C130.617 40.776 130.047 40.194 129.627 39.462C129.219 38.718 129.015 37.896 129.015 36.996C129.015 36.084 129.219 35.262 129.627 34.53C130.047 33.798 130.611 33.216 131.319 32.784C132.039 32.352 132.855 32.136 133.767 32.136C134.547 32.136 135.255 32.316 135.891 32.676C136.539 33.036 137.049 33.522 137.421 34.134L137.205 34.512V32.352H138.555V41.622C138.555 42.45 138.357 43.188 137.961 43.836C137.577 44.496 137.037 45.012 136.341 45.384C135.657 45.768 134.871 45.96 133.983 45.96ZM133.839 40.506C134.463 40.506 135.027 40.35 135.531 40.038C136.035 39.714 136.437 39.288 136.737 38.76C137.049 38.22 137.205 37.632 137.205 36.996C137.205 36.36 137.049 35.778 136.737 35.25C136.437 34.71 136.035 34.284 135.531 33.972C135.027 33.648 134.463 33.486 133.839 33.486C133.203 33.486 132.627 33.648 132.111 33.972C131.595 34.284 131.187 34.704 130.887 35.232C130.599 35.76 130.455 36.348 130.455 36.996C130.455 37.632 130.599 38.22 130.887 38.76C131.187 39.288 131.589 39.714 132.093 40.038C132.609 40.35 133.191 40.506 133.839 40.506ZM144.586 42V28.59H149.194C150.07 28.59 150.838 28.764 151.498 29.112C152.158 29.448 152.668 29.928 153.028 30.552C153.4 31.164 153.586 31.878 153.586 32.694C153.586 33.51 153.4 34.224 153.028 34.836C152.668 35.448 152.158 35.928 151.498 36.276C150.85 36.612 150.082 36.78 149.194 36.78H146.026V42H144.586ZM146.026 35.43H149.266C149.842 35.43 150.346 35.322 150.778 35.106C151.21 34.878 151.546 34.56 151.786 34.152C152.026 33.732 152.146 33.24 152.146 32.676C152.146 32.112 152.026 31.626 151.786 31.218C151.546 30.81 151.21 30.498 150.778 30.282C150.346 30.054 149.842 29.94 149.266 29.94H146.026V35.43ZM155.954 42V32.352H157.304V33.936L157.124 33.702C157.352 33.246 157.694 32.886 158.15 32.622C158.618 32.358 159.182 32.226 159.842 32.226H160.454V33.576H159.608C158.912 33.576 158.354 33.792 157.934 34.224C157.514 34.656 157.304 35.268 157.304 36.06V42H155.954ZM164.826 42.216C164.214 42.216 163.668 42.102 163.188 41.874C162.708 41.634 162.33 41.31 162.054 40.902C161.778 40.494 161.64 40.026 161.64 39.498C161.64 38.994 161.748 38.538 161.964 38.13C162.18 37.71 162.516 37.356 162.972 37.068C163.428 36.78 164.01 36.576 164.718 36.456L168.498 35.826V37.05L165.042 37.626C164.346 37.746 163.842 37.968 163.53 38.292C163.23 38.616 163.08 39 163.08 39.444C163.08 39.876 163.248 40.242 163.584 40.542C163.932 40.842 164.376 40.992 164.916 40.992C165.576 40.992 166.152 40.854 166.644 40.578C167.136 40.29 167.52 39.906 167.796 39.426C168.072 38.946 168.21 38.412 168.21 37.824V35.376C168.21 34.8 168 34.332 167.58 33.972C167.16 33.612 166.614 33.432 165.942 33.432C165.354 33.432 164.838 33.582 164.394 33.882C163.95 34.17 163.62 34.548 163.404 35.016L162.18 34.35C162.36 33.942 162.642 33.57 163.026 33.234C163.422 32.898 163.872 32.634 164.376 32.442C164.88 32.238 165.402 32.136 165.942 32.136C166.65 32.136 167.274 32.274 167.814 32.55C168.366 32.826 168.792 33.21 169.092 33.702C169.404 34.182 169.56 34.74 169.56 35.376V42H168.21V40.074L168.408 40.272C168.24 40.632 167.976 40.962 167.616 41.262C167.268 41.55 166.854 41.784 166.374 41.964C165.906 42.132 165.39 42.216 164.826 42.216ZM172.337 45.6V32.352H173.687V34.512L173.471 34.134C173.855 33.522 174.365 33.036 175.001 32.676C175.649 32.316 176.387 32.136 177.215 32.136C178.127 32.136 178.937 32.358 179.645 32.802C180.365 33.234 180.929 33.828 181.337 34.584C181.757 35.34 181.967 36.204 181.967 37.176C181.967 38.136 181.757 39 181.337 39.768C180.929 40.524 180.365 41.124 179.645 41.568C178.937 42 178.127 42.216 177.215 42.216C176.387 42.216 175.637 42.03 174.965 41.658C174.305 41.274 173.807 40.734 173.471 40.038L173.687 39.84V45.6H172.337ZM177.143 40.866C177.791 40.866 178.367 40.704 178.871 40.38C179.387 40.056 179.789 39.618 180.077 39.066C180.377 38.502 180.527 37.872 180.527 37.176C180.527 36.468 180.377 35.838 180.077 35.286C179.789 34.734 179.387 34.296 178.871 33.972C178.367 33.648 177.791 33.486 177.143 33.486C176.495 33.486 175.907 33.648 175.379 33.972C174.863 34.296 174.449 34.74 174.137 35.304C173.837 35.856 173.687 36.48 173.687 37.176C173.687 37.872 173.837 38.502 174.137 39.066C174.449 39.618 174.863 40.056 175.379 40.38C175.907 40.704 176.495 40.866 177.143 40.866ZM187.133 42.216C186.521 42.216 185.975 42.102 185.495 41.874C185.015 41.634 184.637 41.31 184.361 40.902C184.085 40.494 183.947 40.026 183.947 39.498C183.947 38.994 184.055 38.538 184.271 38.13C184.487 37.71 184.823 37.356 185.279 37.068C185.735 36.78 186.317 36.576 187.025 36.456L190.805 35.826V37.05L187.349 37.626C186.653 37.746 186.149 37.968 185.837 38.292C185.537 38.616 185.387 39 185.387 39.444C185.387 39.876 185.555 40.242 185.891 40.542C186.239 40.842 186.683 40.992 187.223 40.992C187.883 40.992 188.459 40.854 188.951 40.578C189.443 40.29 189.827 39.906 190.103 39.426C190.379 38.946 190.517 38.412 190.517 37.824V35.376C190.517 34.8 190.307 34.332 189.887 33.972C189.467 33.612 188.921 33.432 188.249 33.432C187.661 33.432 187.145 33.582 186.701 33.882C186.257 34.17 185.927 34.548 185.711 35.016L184.487 34.35C184.667 33.942 184.949 33.57 185.333 33.234C185.729 32.898 186.179 32.634 186.683 32.442C187.187 32.238 187.709 32.136 188.249 32.136C188.957 32.136 189.581 32.274 190.121 32.55C190.673 32.826 191.099 33.21 191.399 33.702C191.711 34.182 191.867 34.74 191.867 35.376V42H190.517V40.074L190.715 40.272C190.547 40.632 190.283 40.962 189.923 41.262C189.575 41.55 189.161 41.784 188.681 41.964C188.213 42.132 187.697 42.216 187.133 42.216ZM198.158 42.108C197.294 42.108 196.628 41.856 196.16 41.352C195.692 40.848 195.458 40.128 195.458 39.192V33.702H193.676V32.352H194.126C194.534 32.352 194.858 32.22 195.098 31.956C195.338 31.68 195.458 31.338 195.458 30.93V30.12H196.808V32.352H198.932V33.702H196.808V39.192C196.808 39.516 196.856 39.804 196.952 40.056C197.048 40.296 197.21 40.488 197.438 40.632C197.678 40.776 197.996 40.848 198.392 40.848C198.488 40.848 198.602 40.842 198.734 40.83C198.866 40.818 198.98 40.806 199.076 40.794V42C198.932 42.036 198.77 42.06 198.59 42.072C198.41 42.096 198.266 42.108 198.158 42.108ZM204.061 42.216C203.449 42.216 202.903 42.102 202.423 41.874C201.943 41.634 201.565 41.31 201.289 40.902C201.013 40.494 200.875 40.026 200.875 39.498C200.875 38.994 200.983 38.538 201.199 38.13C201.415 37.71 201.751 37.356 202.207 37.068C202.663 36.78 203.245 36.576 203.953 36.456L207.733 35.826V37.05L204.277 37.626C203.581 37.746 203.077 37.968 202.765 38.292C202.465 38.616 202.315 39 202.315 39.444C202.315 39.876 202.483 40.242 202.819 40.542C203.167 40.842 203.611 40.992 204.151 40.992C204.811 40.992 205.387 40.854 205.879 40.578C206.371 40.29 206.755 39.906 207.031 39.426C207.307 38.946 207.445 38.412 207.445 37.824V35.376C207.445 34.8 207.235 34.332 206.815 33.972C206.395 33.612 205.849 33.432 205.177 33.432C204.589 33.432 204.073 33.582 203.629 33.882C203.185 34.17 202.855 34.548 202.639 35.016L201.415 34.35C201.595 33.942 201.877 33.57 202.261 33.234C202.657 32.898 203.107 32.634 203.611 32.442C204.115 32.238 204.637 32.136 205.177 32.136C205.885 32.136 206.509 32.274 207.049 32.55C207.601 32.826 208.027 33.21 208.327 33.702C208.639 34.182 208.795 34.74 208.795 35.376V42H207.445V40.074L207.643 40.272C207.475 40.632 207.211 40.962 206.851 41.262C206.503 41.55 206.089 41.784 205.609 41.964C205.141 42.132 204.625 42.216 204.061 42.216ZM211.572 42V32.352H212.922V34.224L212.616 34.152C212.856 33.528 213.246 33.036 213.786 32.676C214.338 32.316 214.974 32.136 215.694 32.136C216.378 32.136 216.99 32.292 217.53 32.604C218.082 32.916 218.514 33.348 218.826 33.9C219.15 34.44 219.312 35.052 219.312 35.736V42H217.962V36.258C217.962 35.67 217.854 35.172 217.638 34.764C217.434 34.356 217.14 34.044 216.756 33.828C216.384 33.6 215.952 33.486 215.46 33.486C214.968 33.486 214.53 33.6 214.146 33.828C213.762 34.044 213.462 34.362 213.246 34.782C213.03 35.19 212.922 35.682 212.922 36.258V42H211.572ZM225.147 42V28.59H229.755C230.631 28.59 231.399 28.764 232.059 29.112C232.719 29.448 233.229 29.928 233.589 30.552C233.961 31.164 234.146 31.878 234.146 32.694C234.146 33.642 233.895 34.452 233.391 35.124C232.898 35.796 232.227 36.27 231.375 36.546L234.507 42H232.814L229.539 36.222L230.511 36.78H226.587V42H225.147ZM226.587 35.43H229.827C230.403 35.43 230.907 35.322 231.339 35.106C231.771 34.878 232.107 34.56 232.347 34.152C232.587 33.732 232.707 33.24 232.707 32.676C232.707 32.112 232.587 31.626 232.347 31.218C232.107 30.81 231.771 30.498 231.339 30.282C230.907 30.054 230.403 29.94 229.827 29.94H226.587V35.43ZM239.27 42.216C238.658 42.216 238.112 42.102 237.632 41.874C237.152 41.634 236.774 41.31 236.498 40.902C236.222 40.494 236.084 40.026 236.084 39.498C236.084 38.994 236.192 38.538 236.408 38.13C236.624 37.71 236.96 37.356 237.416 37.068C237.872 36.78 238.454 36.576 239.162 36.456L242.942 35.826V37.05L239.486 37.626C238.79 37.746 238.286 37.968 237.974 38.292C237.674 38.616 237.524 39 237.524 39.444C237.524 39.876 237.692 40.242 238.028 40.542C238.376 40.842 238.82 40.992 239.36 40.992C240.02 40.992 240.596 40.854 241.088 40.578C241.58 40.29 241.964 39.906 242.24 39.426C242.516 38.946 242.654 38.412 242.654 37.824V35.376C242.654 34.8 242.444 34.332 242.024 33.972C241.604 33.612 241.058 33.432 240.386 33.432C239.798 33.432 239.282 33.582 238.838 33.882C238.394 34.17 238.064 34.548 237.848 35.016L236.624 34.35C236.804 33.942 237.086 33.57 237.47 33.234C237.866 32.898 238.316 32.634 238.82 32.442C239.324 32.238 239.846 32.136 240.386 32.136C241.094 32.136 241.718 32.274 242.258 32.55C242.81 32.826 243.236 33.21 243.536 33.702C243.848 34.182 244.004 34.74 244.004 35.376V42H242.654V40.074L242.852 40.272C242.684 40.632 242.42 40.962 242.06 41.262C241.712 41.55 241.298 41.784 240.818 41.964C240.35 42.132 239.834 42.216 239.27 42.216ZM246.979 45.96C246.787 45.96 246.589 45.942 246.385 45.906C246.193 45.882 246.001 45.834 245.809 45.762V44.502C245.929 44.514 246.079 44.532 246.259 44.556C246.451 44.592 246.643 44.61 246.835 44.61C247.423 44.61 247.873 44.484 248.185 44.232C248.497 43.992 248.803 43.524 249.103 42.828L249.715 41.388L249.679 42.576L245.593 32.352H247.051L250.399 40.794H250.021L253.351 32.352H254.845L250.435 43.224C250.243 43.692 249.997 44.136 249.697 44.556C249.409 44.976 249.043 45.312 248.599 45.564C248.155 45.828 247.615 45.96 246.979 45.96ZM258.869 42.216C258.257 42.216 257.711 42.102 257.231 41.874C256.751 41.634 256.373 41.31 256.097 40.902C255.821 40.494 255.683 40.026 255.683 39.498C255.683 38.994 255.791 38.538 256.007 38.13C256.223 37.71 256.559 37.356 257.015 37.068C257.471 36.78 258.053 36.576 258.761 36.456L262.541 35.826V37.05L259.085 37.626C258.389 37.746 257.885 37.968 257.573 38.292C257.273 38.616 257.123 39 257.123 39.444C257.123 39.876 257.291 40.242 257.627 40.542C257.975 40.842 258.419 40.992 258.959 40.992C259.619 40.992 260.195 40.854 260.687 40.578C261.179 40.29 261.563 39.906 261.839 39.426C262.115 38.946 262.253 38.412 262.253 37.824V35.376C262.253 34.8 262.043 34.332 261.623 33.972C261.203 33.612 260.657 33.432 259.985 33.432C259.397 33.432 258.881 33.582 258.437 33.882C257.993 34.17 257.663 34.548 257.447 35.016L256.223 34.35C256.403 33.942 256.685 33.57 257.069 33.234C257.465 32.898 257.915 32.634 258.419 32.442C258.923 32.238 259.445 32.136 259.985 32.136C260.693 32.136 261.317 32.274 261.857 32.55C262.409 32.826 262.835 33.21 263.135 33.702C263.447 34.182 263.603 34.74 263.603 35.376V42H262.253V40.074L262.451 40.272C262.283 40.632 262.019 40.962 261.659 41.262C261.311 41.55 260.897 41.784 260.417 41.964C259.949 42.132 259.433 42.216 258.869 42.216ZM269.637 42V28.59H270.897L278.763 39.876H278.277V28.59H279.717V42H278.457L270.591 30.642H271.077V42H269.637ZM287.211 42.216C286.299 42.216 285.471 42 284.727 41.568C283.983 41.124 283.389 40.524 282.945 39.768C282.513 39 282.297 38.13 282.297 37.158C282.297 36.198 282.513 35.34 282.945 34.584C283.377 33.828 283.959 33.234 284.691 32.802C285.435 32.358 286.275 32.136 287.211 32.136C288.147 32.136 288.981 32.352 289.713 32.784C290.457 33.216 291.039 33.81 291.459 34.566C291.891 35.322 292.107 36.186 292.107 37.158C292.107 38.142 291.885 39.018 291.441 39.786C290.997 40.542 290.403 41.136 289.659 41.568C288.927 42 288.111 42.216 287.211 42.216ZM287.211 40.866C287.859 40.866 288.441 40.704 288.957 40.38C289.485 40.056 289.899 39.612 290.199 39.048C290.511 38.484 290.667 37.854 290.667 37.158C290.667 36.462 290.511 35.838 290.199 35.286C289.899 34.734 289.485 34.296 288.957 33.972C288.441 33.648 287.859 33.486 287.211 33.486C286.563 33.486 285.975 33.648 285.447 33.972C284.931 34.296 284.517 34.734 284.205 35.286C283.893 35.838 283.737 36.462 283.737 37.158C283.737 37.854 283.893 38.484 284.205 39.048C284.517 39.612 284.931 40.056 285.447 40.38C285.975 40.704 286.563 40.866 287.211 40.866ZM294.956 42V40.02H296.396V42H294.956ZM301.158 42V29.85H298.638V28.59H302.598V42H301.158ZM306.002 42L312.05 29.85H305.354V28.59H313.544V29.85L307.514 42H306.002ZM318.996 42V28.59H327.636V29.94H320.436V34.602H327.276V35.952H320.436V40.65H327.636V42H318.996ZM329.766 37.806V36.546H336.066V37.806H329.766ZM338.982 42V28.59H340.242L348.108 39.876H347.622V28.59H349.062V42H347.802L339.936 30.642H340.422V42H338.982ZM352.092 44.34V43.71C352.452 43.614 352.716 43.428 352.884 43.152C353.052 42.876 353.136 42.492 353.136 42H352.452V40.02H353.892V41.532C353.892 42.312 353.742 42.936 353.442 43.404C353.142 43.884 352.692 44.196 352.092 44.34ZM35.584 65V51.59H36.844L41.884 58.898H41.182L46.204 51.59H47.464V65H46.024V53.534L46.492 53.714L41.56 60.86H41.488L36.574 53.714L37.024 53.534V65H35.584ZM53.2229 65.216C52.6109 65.216 52.0649 65.102 51.5849 64.874C51.1049 64.634 50.7269 64.31 50.4509 63.902C50.1749 63.494 50.0369 63.026 50.0369 62.498C50.0369 61.994 50.1449 61.538 50.3609 61.13C50.5769 60.71 50.9129 60.356 51.3689 60.068C51.8249 59.78 52.4069 59.576 53.1149 59.456L56.8949 58.826V60.05L53.4389 60.626C52.7429 60.746 52.2389 60.968 51.9269 61.292C51.6269 61.616 51.4769 62 51.4769 62.444C51.4769 62.876 51.6449 63.242 51.9809 63.542C52.3289 63.842 52.7729 63.992 53.3129 63.992C53.9729 63.992 54.5489 63.854 55.0409 63.578C55.5329 63.29 55.9169 62.906 56.1929 62.426C56.4689 61.946 56.6069 61.412 56.6069 60.824V58.376C56.6069 57.8 56.3969 57.332 55.9769 56.972C55.5569 56.612 55.0109 56.432 54.3389 56.432C53.7509 56.432 53.2349 56.582 52.7909 56.882C52.3469 57.17 52.0169 57.548 51.8009 58.016L50.5769 57.35C50.7569 56.942 51.0389 56.57 51.4229 56.234C51.8189 55.898 52.2689 55.634 52.7729 55.442C53.2769 55.238 53.7989 55.136 54.3389 55.136C55.0469 55.136 55.6709 55.274 56.2109 55.55C56.7629 55.826 57.1889 56.21 57.4889 56.702C57.8009 57.182 57.9569 57.74 57.9569 58.376V65H56.6069V63.074L56.8049 63.272C56.6369 63.632 56.3729 63.962 56.0129 64.262C55.6649 64.55 55.2509 64.784 54.7709 64.964C54.3029 65.132 53.7869 65.216 53.2229 65.216ZM60.7337 65V55.352H62.0837V57.188L61.8677 56.918C62.1317 56.354 62.5217 55.916 63.0377 55.604C63.5657 55.292 64.1417 55.136 64.7657 55.136C65.5097 55.136 66.1817 55.346 66.7817 55.766C67.3817 56.186 67.8077 56.732 68.0597 57.404L67.6817 57.422C67.9217 56.678 68.3357 56.114 68.9237 55.73C69.5237 55.334 70.1837 55.136 70.9037 55.136C71.5517 55.136 72.1457 55.292 72.6857 55.604C73.2377 55.916 73.6757 56.348 73.9997 56.9C74.3357 57.44 74.5037 58.052 74.5037 58.736V65H73.1537V59.258C73.1537 58.67 73.0457 58.172 72.8297 57.764C72.6257 57.356 72.3437 57.044 71.9837 56.828C71.6237 56.6 71.2097 56.486 70.7417 56.486C70.2857 56.486 69.8717 56.6 69.4997 56.828C69.1277 57.044 68.8337 57.362 68.6177 57.782C68.4017 58.19 68.2937 58.682 68.2937 59.258V65H66.9437V59.258C66.9437 58.67 66.8357 58.172 66.6197 57.764C66.4157 57.356 66.1337 57.044 65.7737 56.828C65.4137 56.6 64.9997 56.486 64.5317 56.486C64.0637 56.486 63.6437 56.6 63.2717 56.828C62.9117 57.044 62.6237 57.362 62.4077 57.782C62.1917 58.19 62.0837 58.682 62.0837 59.258V65H60.7337ZM77.0813 68.6V55.352H78.4313V57.512L78.2153 57.134C78.5993 56.522 79.1093 56.036 79.7453 55.676C80.3933 55.316 81.1313 55.136 81.9593 55.136C82.8713 55.136 83.6813 55.358 84.3893 55.802C85.1093 56.234 85.6733 56.828 86.0813 57.584C86.5013 58.34 86.7113 59.204 86.7113 60.176C86.7113 61.136 86.5013 62 86.0813 62.768C85.6733 63.524 85.1093 64.124 84.3893 64.568C83.6813 65 82.8713 65.216 81.9593 65.216C81.1313 65.216 80.3813 65.03 79.7093 64.658C79.0493 64.274 78.5513 63.734 78.2153 63.038L78.4313 62.84V68.6H77.0813ZM81.8873 63.866C82.5353 63.866 83.1113 63.704 83.6153 63.38C84.1313 63.056 84.5333 62.618 84.8213 62.066C85.1213 61.502 85.2713 60.872 85.2713 60.176C85.2713 59.468 85.1213 58.838 84.8213 58.286C84.5333 57.734 84.1313 57.296 83.6153 56.972C83.1113 56.648 82.5353 56.486 81.8873 56.486C81.2393 56.486 80.6513 56.648 80.1233 56.972C79.6073 57.296 79.1933 57.74 78.8813 58.304C78.5813 58.856 78.4313 59.48 78.4313 60.176C78.4313 60.872 78.5813 61.502 78.8813 62.066C79.1933 62.618 79.6073 63.056 80.1233 63.38C80.6513 63.704 81.2393 63.866 81.8873 63.866ZM91.8772 65.216C91.2652 65.216 90.7192 65.102 90.2392 64.874C89.7592 64.634 89.3812 64.31 89.1052 63.902C88.8292 63.494 88.6912 63.026 88.6912 62.498C88.6912 61.994 88.7992 61.538 89.0152 61.13C89.2312 60.71 89.5672 60.356 90.0232 60.068C90.4792 59.78 91.0612 59.576 91.7692 59.456L95.5492 58.826V60.05L92.0932 60.626C91.3972 60.746 90.8932 60.968 90.5812 61.292C90.2812 61.616 90.1312 62 90.1312 62.444C90.1312 62.876 90.2992 63.242 90.6352 63.542C90.9832 63.842 91.4272 63.992 91.9672 63.992C92.6272 63.992 93.2032 63.854 93.6952 63.578C94.1872 63.29 94.5712 62.906 94.8472 62.426C95.1232 61.946 95.2612 61.412 95.2612 60.824V58.376C95.2612 57.8 95.0512 57.332 94.6312 56.972C94.2112 56.612 93.6652 56.432 92.9932 56.432C92.4052 56.432 91.8892 56.582 91.4452 56.882C91.0012 57.17 90.6712 57.548 90.4552 58.016L89.2312 57.35C89.4112 56.942 89.6932 56.57 90.0772 56.234C90.4732 55.898 90.9232 55.634 91.4272 55.442C91.9312 55.238 92.4532 55.136 92.9932 55.136C93.7012 55.136 94.3252 55.274 94.8652 55.55C95.4172 55.826 95.8432 56.21 96.1432 56.702C96.4552 57.182 96.6112 57.74 96.6112 58.376V65H95.2612V63.074L95.4592 63.272C95.2912 63.632 95.0272 63.962 94.6672 64.262C94.3192 64.55 93.9052 64.784 93.4252 64.964C92.9572 65.132 92.4412 65.216 91.8772 65.216ZM99.388 65V55.352H100.738V57.224L100.432 57.152C100.672 56.528 101.062 56.036 101.602 55.676C102.154 55.316 102.79 55.136 103.51 55.136C104.194 55.136 104.806 55.292 105.346 55.604C105.898 55.916 106.33 56.348 106.642 56.9C106.966 57.44 107.128 58.052 107.128 58.736V65H105.778V59.258C105.778 58.67 105.67 58.172 105.454 57.764C105.25 57.356 104.956 57.044 104.572 56.828C104.2 56.6 103.768 56.486 103.276 56.486C102.784 56.486 102.346 56.6 101.962 56.828C101.578 57.044 101.278 57.362 101.062 57.782C100.846 58.19 100.738 58.682 100.738 59.258V65H99.388ZM112.496 65.216C111.884 65.216 111.338 65.102 110.858 64.874C110.378 64.634 110 64.31 109.724 63.902C109.448 63.494 109.31 63.026 109.31 62.498C109.31 61.994 109.418 61.538 109.634 61.13C109.85 60.71 110.186 60.356 110.642 60.068C111.098 59.78 111.68 59.576 112.388 59.456L116.168 58.826V60.05L112.712 60.626C112.016 60.746 111.512 60.968 111.2 61.292C110.9 61.616 110.75 62 110.75 62.444C110.75 62.876 110.918 63.242 111.254 63.542C111.602 63.842 112.046 63.992 112.586 63.992C113.246 63.992 113.822 63.854 114.314 63.578C114.806 63.29 115.19 62.906 115.466 62.426C115.742 61.946 115.88 61.412 115.88 60.824V58.376C115.88 57.8 115.67 57.332 115.25 56.972C114.83 56.612 114.284 56.432 113.612 56.432C113.024 56.432 112.508 56.582 112.064 56.882C111.62 57.17 111.29 57.548 111.074 58.016L109.85 57.35C110.03 56.942 110.312 56.57 110.696 56.234C111.092 55.898 111.542 55.634 112.046 55.442C112.55 55.238 113.072 55.136 113.612 55.136C114.32 55.136 114.944 55.274 115.484 55.55C116.036 55.826 116.462 56.21 116.762 56.702C117.074 57.182 117.23 57.74 117.23 58.376V65H115.88V63.074L116.078 63.272C115.91 63.632 115.646 63.962 115.286 64.262C114.938 64.55 114.524 64.784 114.044 64.964C113.576 65.132 113.06 65.216 112.496 65.216ZM123.264 65V51.59H127.872C128.748 51.59 129.516 51.764 130.176 52.112C130.836 52.448 131.346 52.928 131.706 53.552C132.078 54.164 132.264 54.878 132.264 55.694C132.264 56.51 132.078 57.224 131.706 57.836C131.346 58.448 130.836 58.928 130.176 59.276C129.528 59.612 128.76 59.78 127.872 59.78H124.704V65H123.264ZM124.704 58.43H127.944C128.52 58.43 129.024 58.322 129.456 58.106C129.888 57.878 130.224 57.56 130.464 57.152C130.704 56.732 130.824 56.24 130.824 55.676C130.824 55.112 130.704 54.626 130.464 54.218C130.224 53.81 129.888 53.498 129.456 53.282C129.024 53.054 128.52 52.94 127.944 52.94H124.704V58.43ZM134.632 65V55.352H135.982V56.936L135.802 56.702C136.03 56.246 136.372 55.886 136.828 55.622C137.296 55.358 137.86 55.226 138.52 55.226H139.132V56.576H138.286C137.59 56.576 137.032 56.792 136.612 57.224C136.192 57.656 135.982 58.268 135.982 59.06V65H134.632ZM143.504 65.216C142.892 65.216 142.346 65.102 141.866 64.874C141.386 64.634 141.008 64.31 140.732 63.902C140.456 63.494 140.318 63.026 140.318 62.498C140.318 61.994 140.426 61.538 140.642 61.13C140.858 60.71 141.194 60.356 141.65 60.068C142.106 59.78 142.688 59.576 143.396 59.456L147.176 58.826V60.05L143.72 60.626C143.024 60.746 142.52 60.968 142.208 61.292C141.908 61.616 141.758 62 141.758 62.444C141.758 62.876 141.926 63.242 142.262 63.542C142.61 63.842 143.054 63.992 143.594 63.992C144.254 63.992 144.83 63.854 145.322 63.578C145.814 63.29 146.198 62.906 146.474 62.426C146.75 61.946 146.888 61.412 146.888 60.824V58.376C146.888 57.8 146.678 57.332 146.258 56.972C145.838 56.612 145.292 56.432 144.62 56.432C144.032 56.432 143.516 56.582 143.072 56.882C142.628 57.17 142.298 57.548 142.082 58.016L140.858 57.35C141.038 56.942 141.32 56.57 141.704 56.234C142.1 55.898 142.55 55.634 143.054 55.442C143.558 55.238 144.08 55.136 144.62 55.136C145.328 55.136 145.952 55.274 146.492 55.55C147.044 55.826 147.47 56.21 147.77 56.702C148.082 57.182 148.238 57.74 148.238 58.376V65H146.888V63.074L147.086 63.272C146.918 63.632 146.654 63.962 146.294 64.262C145.946 64.55 145.532 64.784 145.052 64.964C144.584 65.132 144.068 65.216 143.504 65.216ZM151.015 68.6V55.352H152.365V57.512L152.149 57.134C152.533 56.522 153.043 56.036 153.679 55.676C154.327 55.316 155.065 55.136 155.893 55.136C156.805 55.136 157.615 55.358 158.323 55.802C159.043 56.234 159.607 56.828 160.015 57.584C160.435 58.34 160.645 59.204 160.645 60.176C160.645 61.136 160.435 62 160.015 62.768C159.607 63.524 159.043 64.124 158.323 64.568C157.615 65 156.805 65.216 155.893 65.216C155.065 65.216 154.315 65.03 153.643 64.658C152.983 64.274 152.485 63.734 152.149 63.038L152.365 62.84V68.6H151.015ZM155.821 63.866C156.469 63.866 157.045 63.704 157.549 63.38C158.065 63.056 158.467 62.618 158.755 62.066C159.055 61.502 159.205 60.872 159.205 60.176C159.205 59.468 159.055 58.838 158.755 58.286C158.467 57.734 158.065 57.296 157.549 56.972C157.045 56.648 156.469 56.486 155.821 56.486C155.173 56.486 154.585 56.648 154.057 56.972C153.541 57.296 153.127 57.74 152.815 58.304C152.515 58.856 152.365 59.48 152.365 60.176C152.365 60.872 152.515 61.502 152.815 62.066C153.127 62.618 153.541 63.056 154.057 63.38C154.585 63.704 155.173 63.866 155.821 63.866ZM165.811 65.216C165.199 65.216 164.653 65.102 164.173 64.874C163.693 64.634 163.315 64.31 163.039 63.902C162.763 63.494 162.625 63.026 162.625 62.498C162.625 61.994 162.733 61.538 162.949 61.13C163.165 60.71 163.501 60.356 163.957 60.068C164.413 59.78 164.995 59.576 165.703 59.456L169.483 58.826V60.05L166.027 60.626C165.331 60.746 164.827 60.968 164.515 61.292C164.215 61.616 164.065 62 164.065 62.444C164.065 62.876 164.233 63.242 164.569 63.542C164.917 63.842 165.361 63.992 165.901 63.992C166.561 63.992 167.137 63.854 167.629 63.578C168.121 63.29 168.505 62.906 168.781 62.426C169.057 61.946 169.195 61.412 169.195 60.824V58.376C169.195 57.8 168.985 57.332 168.565 56.972C168.145 56.612 167.599 56.432 166.927 56.432C166.339 56.432 165.823 56.582 165.379 56.882C164.935 57.17 164.605 57.548 164.389 58.016L163.165 57.35C163.345 56.942 163.627 56.57 164.011 56.234C164.407 55.898 164.857 55.634 165.361 55.442C165.865 55.238 166.387 55.136 166.927 55.136C167.635 55.136 168.259 55.274 168.799 55.55C169.351 55.826 169.777 56.21 170.077 56.702C170.389 57.182 170.545 57.74 170.545 58.376V65H169.195V63.074L169.393 63.272C169.225 63.632 168.961 63.962 168.601 64.262C168.253 64.55 167.839 64.784 167.359 64.964C166.891 65.132 166.375 65.216 165.811 65.216ZM176.836 65.108C175.972 65.108 175.306 64.856 174.838 64.352C174.37 63.848 174.136 63.128 174.136 62.192V56.702H172.354V55.352H172.804C173.212 55.352 173.536 55.22 173.776 54.956C174.016 54.68 174.136 54.338 174.136 53.93V53.12H175.486V55.352H177.61V56.702H175.486V62.192C175.486 62.516 175.534 62.804 175.63 63.056C175.726 63.296 175.888 63.488 176.116 63.632C176.356 63.776 176.674 63.848 177.07 63.848C177.166 63.848 177.28 63.842 177.412 63.83C177.544 63.818 177.658 63.806 177.754 63.794V65C177.61 65.036 177.448 65.06 177.268 65.072C177.088 65.096 176.944 65.108 176.836 65.108ZM182.739 65.216C182.127 65.216 181.581 65.102 181.101 64.874C180.621 64.634 180.243 64.31 179.967 63.902C179.691 63.494 179.553 63.026 179.553 62.498C179.553 61.994 179.661 61.538 179.877 61.13C180.093 60.71 180.429 60.356 180.885 60.068C181.341 59.78 181.923 59.576 182.631 59.456L186.411 58.826V60.05L182.955 60.626C182.259 60.746 181.755 60.968 181.443 61.292C181.143 61.616 180.993 62 180.993 62.444C180.993 62.876 181.161 63.242 181.497 63.542C181.845 63.842 182.289 63.992 182.829 63.992C183.489 63.992 184.065 63.854 184.557 63.578C185.049 63.29 185.433 62.906 185.709 62.426C185.985 61.946 186.123 61.412 186.123 60.824V58.376C186.123 57.8 185.913 57.332 185.493 56.972C185.073 56.612 184.527 56.432 183.854 56.432C183.267 56.432 182.751 56.582 182.307 56.882C181.863 57.17 181.533 57.548 181.317 58.016L180.093 57.35C180.273 56.942 180.555 56.57 180.938 56.234C181.335 55.898 181.785 55.634 182.289 55.442C182.793 55.238 183.315 55.136 183.854 55.136C184.563 55.136 185.187 55.274 185.727 55.55C186.279 55.826 186.705 56.21 187.005 56.702C187.317 57.182 187.473 57.74 187.473 58.376V65H186.123V63.074L186.321 63.272C186.153 63.632 185.889 63.962 185.529 64.262C185.181 64.55 184.767 64.784 184.287 64.964C183.819 65.132 183.303 65.216 182.739 65.216ZM190.249 65V55.352H191.599V57.224L191.293 57.152C191.533 56.528 191.923 56.036 192.463 55.676C193.015 55.316 193.651 55.136 194.371 55.136C195.055 55.136 195.667 55.292 196.207 55.604C196.759 55.916 197.191 56.348 197.503 56.9C197.827 57.44 197.989 58.052 197.989 58.736V65H196.639V59.258C196.639 58.67 196.531 58.172 196.315 57.764C196.111 57.356 195.817 57.044 195.433 56.828C195.061 56.6 194.629 56.486 194.137 56.486C193.645 56.486 193.207 56.6 192.823 56.828C192.439 57.044 192.139 57.362 191.923 57.782C191.707 58.19 191.599 58.682 191.599 59.258V65H190.249ZM203.23 65V63.56H203.95C204.622 63.56 205.15 63.362 205.534 62.966C205.918 62.558 206.11 62.006 206.11 61.31V51.59H207.55V61.31C207.55 62.066 207.4 62.72 207.1 63.272C206.812 63.824 206.398 64.25 205.858 64.55C205.318 64.85 204.682 65 203.95 65H203.23ZM213.307 65.216C212.695 65.216 212.149 65.102 211.669 64.874C211.189 64.634 210.811 64.31 210.535 63.902C210.259 63.494 210.121 63.026 210.121 62.498C210.121 61.994 210.229 61.538 210.445 61.13C210.661 60.71 210.997 60.356 211.453 60.068C211.909 59.78 212.491 59.576 213.199 59.456L216.979 58.826V60.05L213.523 60.626C212.827 60.746 212.323 60.968 212.011 61.292C211.711 61.616 211.561 62 211.561 62.444C211.561 62.876 211.729 63.242 212.065 63.542C212.413 63.842 212.857 63.992 213.397 63.992C214.057 63.992 214.633 63.854 215.125 63.578C215.617 63.29 216.001 62.906 216.277 62.426C216.553 61.946 216.691 61.412 216.691 60.824V58.376C216.691 57.8 216.481 57.332 216.061 56.972C215.641 56.612 215.095 56.432 214.423 56.432C213.835 56.432 213.319 56.582 212.875 56.882C212.431 57.17 212.101 57.548 211.885 58.016L210.661 57.35C210.841 56.942 211.123 56.57 211.507 56.234C211.903 55.898 212.353 55.634 212.857 55.442C213.361 55.238 213.883 55.136 214.423 55.136C215.131 55.136 215.755 55.274 216.295 55.55C216.847 55.826 217.273 56.21 217.573 56.702C217.885 57.182 218.041 57.74 218.041 58.376V65H216.691V63.074L216.889 63.272C216.721 63.632 216.457 63.962 216.097 64.262C215.749 64.55 215.335 64.784 214.855 64.964C214.387 65.132 213.871 65.216 213.307 65.216ZM220.818 65V51.374H222.168V60.914L221.592 60.824L227.01 55.352H228.756L224.976 59.222L229.098 65H227.478L223.608 59.654L224.472 59.726L221.718 62.57L222.168 61.454V65H220.818ZM233.469 65.216C232.857 65.216 232.311 65.102 231.831 64.874C231.351 64.634 230.973 64.31 230.697 63.902C230.421 63.494 230.283 63.026 230.283 62.498C230.283 61.994 230.391 61.538 230.607 61.13C230.823 60.71 231.159 60.356 231.615 60.068C232.071 59.78 232.653 59.576 233.361 59.456L237.141 58.826V60.05L233.685 60.626C232.989 60.746 232.485 60.968 232.173 61.292C231.873 61.616 231.723 62 231.723 62.444C231.723 62.876 231.891 63.242 232.227 63.542C232.575 63.842 233.019 63.992 233.559 63.992C234.219 63.992 234.795 63.854 235.287 63.578C235.779 63.29 236.163 62.906 236.439 62.426C236.715 61.946 236.853 61.412 236.853 60.824V58.376C236.853 57.8 236.643 57.332 236.223 56.972C235.803 56.612 235.257 56.432 234.585 56.432C233.997 56.432 233.481 56.582 233.037 56.882C232.593 57.17 232.263 57.548 232.047 58.016L230.823 57.35C231.003 56.942 231.285 56.57 231.669 56.234C232.065 55.898 232.515 55.634 233.019 55.442C233.523 55.238 234.045 55.136 234.585 55.136C235.293 55.136 235.917 55.274 236.457 55.55C237.009 55.826 237.435 56.21 237.735 56.702C238.047 57.182 238.203 57.74 238.203 58.376V65H236.853V63.074L237.051 63.272C236.883 63.632 236.619 63.962 236.259 64.262C235.911 64.55 235.497 64.784 235.017 64.964C234.549 65.132 234.033 65.216 233.469 65.216ZM240.98 65V55.352H242.33V56.936L242.15 56.702C242.378 56.246 242.72 55.886 243.176 55.622C243.644 55.358 244.208 55.226 244.868 55.226H245.48V56.576H244.634C243.938 56.576 243.38 56.792 242.96 57.224C242.54 57.656 242.33 58.268 242.33 59.06V65H240.98ZM250.752 65.108C249.888 65.108 249.222 64.856 248.754 64.352C248.286 63.848 248.052 63.128 248.052 62.192V56.702H246.27V55.352H246.72C247.128 55.352 247.452 55.22 247.692 54.956C247.932 54.68 248.052 54.338 248.052 53.93V53.12H249.402V55.352H251.526V56.702H249.402V62.192C249.402 62.516 249.45 62.804 249.546 63.056C249.642 63.296 249.804 63.488 250.032 63.632C250.272 63.776 250.59 63.848 250.986 63.848C251.082 63.848 251.196 63.842 251.328 63.83C251.46 63.818 251.574 63.806 251.67 63.794V65C251.526 65.036 251.364 65.06 251.184 65.072C251.004 65.096 250.86 65.108 250.752 65.108ZM256.655 65.216C256.043 65.216 255.497 65.102 255.017 64.874C254.537 64.634 254.159 64.31 253.883 63.902C253.607 63.494 253.469 63.026 253.469 62.498C253.469 61.994 253.577 61.538 253.793 61.13C254.009 60.71 254.345 60.356 254.801 60.068C255.257 59.78 255.839 59.576 256.547 59.456L260.327 58.826V60.05L256.871 60.626C256.175 60.746 255.671 60.968 255.359 61.292C255.059 61.616 254.909 62 254.909 62.444C254.909 62.876 255.077 63.242 255.413 63.542C255.761 63.842 256.205 63.992 256.745 63.992C257.405 63.992 257.981 63.854 258.473 63.578C258.965 63.29 259.349 62.906 259.625 62.426C259.901 61.946 260.039 61.412 260.039 60.824V58.376C260.039 57.8 259.829 57.332 259.409 56.972C258.989 56.612 258.443 56.432 257.771 56.432C257.183 56.432 256.667 56.582 256.223 56.882C255.779 57.17 255.449 57.548 255.233 58.016L254.009 57.35C254.189 56.942 254.471 56.57 254.855 56.234C255.251 55.898 255.701 55.634 256.205 55.442C256.709 55.238 257.231 55.136 257.771 55.136C258.479 55.136 259.103 55.274 259.643 55.55C260.195 55.826 260.621 56.21 260.921 56.702C261.233 57.182 261.389 57.74 261.389 58.376V65H260.039V63.074L260.237 63.272C260.069 63.632 259.805 63.962 259.445 64.262C259.097 64.55 258.683 64.784 258.203 64.964C257.735 65.132 257.219 65.216 256.655 65.216ZM271.94 65.216C271.088 65.216 270.314 65.054 269.618 64.73C268.922 64.406 268.334 63.974 267.854 63.434C267.374 62.882 267.032 62.276 266.828 61.616L268.124 61.13C268.436 62.042 268.922 62.738 269.582 63.218C270.242 63.686 271.028 63.92 271.94 63.92C272.516 63.92 273.02 63.83 273.452 63.65C273.896 63.458 274.238 63.194 274.478 62.858C274.718 62.522 274.838 62.132 274.838 61.688C274.838 61.028 274.658 60.518 274.298 60.158C273.938 59.798 273.422 59.522 272.75 59.33L270.338 58.61C269.39 58.334 268.658 57.872 268.142 57.224C267.638 56.576 267.386 55.838 267.386 55.01C267.386 54.302 267.56 53.678 267.908 53.138C268.256 52.586 268.73 52.154 269.33 51.842C269.942 51.53 270.632 51.374 271.4 51.374C272.204 51.374 272.924 51.524 273.56 51.824C274.208 52.112 274.754 52.496 275.198 52.976C275.642 53.456 275.96 53.99 276.152 54.578L274.892 55.082C274.604 54.29 274.154 53.69 273.542 53.282C272.942 52.874 272.234 52.67 271.418 52.67C270.902 52.67 270.446 52.76 270.05 52.94C269.666 53.12 269.366 53.378 269.15 53.714C268.934 54.05 268.826 54.446 268.826 54.902C268.826 55.454 269 55.952 269.348 56.396C269.696 56.828 270.23 57.152 270.95 57.368L273.074 57.998C274.13 58.31 274.928 58.76 275.468 59.348C276.008 59.936 276.278 60.674 276.278 61.562C276.278 62.282 276.092 62.918 275.72 63.47C275.36 64.01 274.85 64.436 274.19 64.748C273.542 65.06 272.792 65.216 271.94 65.216ZM283.253 65.216C282.353 65.216 281.537 65 280.805 64.568C280.085 64.124 279.515 63.518 279.095 62.75C278.675 61.982 278.465 61.112 278.465 60.14C278.465 59.168 278.669 58.31 279.077 57.566C279.485 56.81 280.037 56.216 280.733 55.784C281.441 55.352 282.233 55.136 283.109 55.136C283.805 55.136 284.423 55.268 284.963 55.532C285.515 55.784 285.983 56.132 286.367 56.576C286.751 57.008 287.045 57.5 287.249 58.052C287.453 58.592 287.555 59.15 287.555 59.726C287.555 59.846 287.549 59.984 287.537 60.14C287.525 60.284 287.507 60.434 287.483 60.59H279.329V59.33H286.709L286.061 59.87C286.169 59.21 286.091 58.622 285.827 58.106C285.575 57.578 285.209 57.164 284.729 56.864C284.249 56.552 283.709 56.396 283.109 56.396C282.509 56.396 281.951 56.552 281.435 56.864C280.931 57.176 280.535 57.614 280.247 58.178C279.959 58.73 279.845 59.39 279.905 60.158C279.845 60.926 279.965 61.598 280.265 62.174C280.577 62.738 280.997 63.176 281.525 63.488C282.065 63.8 282.641 63.956 283.253 63.956C283.961 63.956 284.555 63.788 285.035 63.452C285.515 63.116 285.905 62.696 286.205 62.192L287.357 62.804C287.165 63.236 286.871 63.638 286.475 64.01C286.079 64.37 285.605 64.664 285.053 64.892C284.513 65.108 283.913 65.216 283.253 65.216ZM289.935 65V51.374H291.285V65H289.935ZM296.838 65.216C296.226 65.216 295.68 65.102 295.2 64.874C294.72 64.634 294.342 64.31 294.066 63.902C293.79 63.494 293.652 63.026 293.652 62.498C293.652 61.994 293.76 61.538 293.976 61.13C294.192 60.71 294.528 60.356 294.984 60.068C295.44 59.78 296.022 59.576 296.73 59.456L300.51 58.826V60.05L297.054 60.626C296.358 60.746 295.854 60.968 295.542 61.292C295.242 61.616 295.092 62 295.092 62.444C295.092 62.876 295.26 63.242 295.596 63.542C295.944 63.842 296.388 63.992 296.928 63.992C297.588 63.992 298.164 63.854 298.656 63.578C299.148 63.29 299.532 62.906 299.808 62.426C300.084 61.946 300.222 61.412 300.222 60.824V58.376C300.222 57.8 300.012 57.332 299.592 56.972C299.172 56.612 298.626 56.432 297.954 56.432C297.366 56.432 296.85 56.582 296.406 56.882C295.962 57.17 295.632 57.548 295.416 58.016L294.192 57.35C294.372 56.942 294.654 56.57 295.038 56.234C295.434 55.898 295.884 55.634 296.388 55.442C296.892 55.238 297.414 55.136 297.954 55.136C298.662 55.136 299.286 55.274 299.826 55.55C300.378 55.826 300.804 56.21 301.104 56.702C301.416 57.182 301.572 57.74 301.572 58.376V65H300.222V63.074L300.42 63.272C300.252 63.632 299.988 63.962 299.628 64.262C299.28 64.55 298.866 64.784 298.386 64.964C297.918 65.132 297.402 65.216 296.838 65.216ZM307.863 65.108C306.999 65.108 306.333 64.856 305.865 64.352C305.397 63.848 305.163 63.128 305.163 62.192V56.702H303.381V55.352H303.831C304.239 55.352 304.563 55.22 304.803 54.956C305.043 54.68 305.163 54.338 305.163 53.93V53.12H306.513V55.352H308.637V56.702H306.513V62.192C306.513 62.516 306.561 62.804 306.657 63.056C306.753 63.296 306.915 63.488 307.143 63.632C307.383 63.776 307.701 63.848 308.097 63.848C308.193 63.848 308.307 63.842 308.439 63.83C308.571 63.818 308.685 63.806 308.781 63.794V65C308.637 65.036 308.475 65.06 308.295 65.072C308.115 65.096 307.971 65.108 307.863 65.108ZM313.766 65.216C313.154 65.216 312.608 65.102 312.128 64.874C311.648 64.634 311.27 64.31 310.994 63.902C310.718 63.494 310.58 63.026 310.58 62.498C310.58 61.994 310.688 61.538 310.904 61.13C311.12 60.71 311.456 60.356 311.912 60.068C312.368 59.78 312.95 59.576 313.658 59.456L317.438 58.826V60.05L313.982 60.626C313.286 60.746 312.782 60.968 312.47 61.292C312.17 61.616 312.02 62 312.02 62.444C312.02 62.876 312.188 63.242 312.524 63.542C312.872 63.842 313.316 63.992 313.856 63.992C314.516 63.992 315.092 63.854 315.584 63.578C316.076 63.29 316.46 62.906 316.736 62.426C317.012 61.946 317.15 61.412 317.15 60.824V58.376C317.15 57.8 316.94 57.332 316.52 56.972C316.1 56.612 315.554 56.432 314.882 56.432C314.294 56.432 313.778 56.582 313.334 56.882C312.89 57.17 312.56 57.548 312.344 58.016L311.12 57.35C311.3 56.942 311.582 56.57 311.966 56.234C312.362 55.898 312.812 55.634 313.316 55.442C313.82 55.238 314.342 55.136 314.882 55.136C315.59 55.136 316.214 55.274 316.754 55.55C317.306 55.826 317.732 56.21 318.032 56.702C318.344 57.182 318.5 57.74 318.5 58.376V65H317.15V63.074L317.348 63.272C317.18 63.632 316.916 63.962 316.556 64.262C316.208 64.55 315.794 64.784 315.314 64.964C314.846 65.132 314.33 65.216 313.766 65.216ZM321.277 65V55.352H322.627V57.224L322.321 57.152C322.561 56.528 322.951 56.036 323.491 55.676C324.043 55.316 324.679 55.136 325.399 55.136C326.083 55.136 326.695 55.292 327.235 55.604C327.787 55.916 328.219 56.348 328.531 56.9C328.855 57.44 329.017 58.052 329.017 58.736V65H327.667V59.258C327.667 58.67 327.559 58.172 327.343 57.764C327.139 57.356 326.845 57.044 326.461 56.828C326.089 56.6 325.657 56.486 325.165 56.486C324.673 56.486 324.235 56.6 323.851 56.828C323.467 57.044 323.167 57.362 322.951 57.782C322.735 58.19 322.627 58.682 322.627 59.258V65H321.277ZM336.526 65V52.85H334.006V51.59H337.966V65H336.526ZM340.991 65V64.1L344.735 59.978C345.467 59.174 346.061 58.508 346.517 57.98C346.985 57.452 347.333 56.972 347.561 56.54C347.789 56.108 347.903 55.64 347.903 55.136C347.903 54.332 347.669 53.714 347.201 53.282C346.733 52.85 346.109 52.634 345.329 52.634C344.525 52.634 343.847 52.862 343.295 53.318C342.755 53.774 342.389 54.41 342.197 55.226L340.883 54.938C341.039 54.206 341.321 53.576 341.729 53.048C342.137 52.52 342.647 52.112 343.259 51.824C343.871 51.524 344.555 51.374 345.311 51.374C346.115 51.374 346.817 51.536 347.417 51.86C348.017 52.184 348.485 52.628 348.821 53.192C349.169 53.756 349.343 54.404 349.343 55.136C349.343 55.64 349.235 56.126 349.019 56.594C348.815 57.062 348.503 57.566 348.083 58.106C347.663 58.646 347.123 59.276 346.463 59.996L343.061 63.74H349.703V65H340.991ZM352.162 65L358.21 52.85H351.514V51.59H359.704V52.85L353.674 65H352.162ZM363.124 65L367.786 58.898L368.056 58.736C367.876 59.024 367.666 59.252 367.426 59.42C367.186 59.588 366.922 59.708 366.634 59.78C366.346 59.852 366.028 59.888 365.68 59.888C364.9 59.888 364.198 59.708 363.574 59.348C362.95 58.976 362.452 58.472 362.08 57.836C361.72 57.188 361.54 56.45 361.54 55.622C361.54 54.806 361.726 54.08 362.098 53.444C362.482 52.808 362.998 52.304 363.646 51.932C364.306 51.56 365.044 51.374 365.86 51.374C366.7 51.374 367.444 51.566 368.092 51.95C368.74 52.322 369.25 52.844 369.622 53.516C369.994 54.176 370.18 54.938 370.18 55.802C370.18 56.282 370.12 56.756 370 57.224C369.892 57.692 369.724 58.154 369.496 58.61C369.268 59.066 368.98 59.522 368.632 59.978L364.852 65H363.124ZM365.86 58.592C366.424 58.592 366.922 58.466 367.354 58.214C367.786 57.95 368.122 57.596 368.362 57.152C368.614 56.696 368.74 56.186 368.74 55.622C368.74 55.046 368.614 54.536 368.362 54.092C368.11 53.636 367.768 53.282 367.336 53.03C366.904 52.766 366.412 52.634 365.86 52.634C365.308 52.634 364.816 52.766 364.384 53.03C363.952 53.282 363.61 53.636 363.358 54.092C363.106 54.536 362.98 55.046 362.98 55.622C362.98 56.186 363.1 56.696 363.34 57.152C363.592 57.596 363.934 57.95 364.366 58.214C364.81 58.466 365.308 58.592 365.86 58.592ZM377.86 65.216C376.804 65.216 375.874 64.928 375.07 64.352C374.278 63.764 373.66 62.954 373.216 61.922C372.772 60.878 372.55 59.666 372.55 58.286C372.55 56.906 372.772 55.7 373.216 54.668C373.66 53.624 374.278 52.814 375.07 52.238C375.862 51.662 376.786 51.374 377.842 51.374C378.898 51.374 379.822 51.662 380.614 52.238C381.406 52.814 382.024 53.624 382.468 54.668C382.912 55.7 383.134 56.906 383.134 58.286C383.134 59.666 382.912 60.878 382.468 61.922C382.036 62.966 381.424 63.776 380.632 64.352C379.84 64.928 378.916 65.216 377.86 65.216ZM377.86 63.866C378.628 63.866 379.3 63.632 379.876 63.164C380.452 62.696 380.902 62.048 381.226 61.22C381.55 60.38 381.712 59.402 381.712 58.286C381.712 57.17 381.55 56.198 381.226 55.37C380.902 54.53 380.452 53.882 379.876 53.426C379.3 52.958 378.622 52.724 377.842 52.724C377.074 52.724 376.402 52.958 375.826 53.426C375.25 53.882 374.8 54.53 374.476 55.37C374.152 56.198 373.99 57.17 373.99 58.286C373.99 59.39 374.152 60.362 374.476 61.202C374.8 62.042 375.25 62.696 375.826 63.164C376.414 63.632 377.092 63.866 377.86 63.866Z" fill="white"/>
<path d="M20.6201 8.45C19.5701 3.83 15.5401 1.75 12.0001 1.75C12.0001 1.75 12.0001 1.75 11.9901 1.75C8.4601 1.75 4.4201 3.82 3.3701 8.44C2.2001 13.6 5.3601 17.97 8.2201 20.72C9.2801 21.74 10.6401 22.25 12.0001 22.25C13.3601 22.25 14.7201 21.74 15.7701 20.72C18.6301 17.97 21.7901 13.61 20.6201 8.45ZM12.0001 13.46C10.2601 13.46 8.8501 12.05 8.8501 10.31C8.8501 8.57 10.2601 7.16 12.0001 7.16C13.7401 7.16 15.1501 8.57 15.1501 10.31C15.1501 12.05 13.7401 13.46 12.0001 13.46Z" fill="white"/>
</svg>
