<svg width="206" height="24" viewBox="0 0 206 24" fill="none" xmlns="http://www.w3.org/2000/svg">
<path d="M37.386 20V10.352H38.736V20H37.386ZM37.386 8.57V6.59H38.736V8.57H37.386ZM41.5169 20V10.352H42.8669V12.224L42.5609 12.152C42.8009 11.528 43.1909 11.036 43.7309 10.676C44.2829 10.316 44.9189 10.136 45.6389 10.136C46.3229 10.136 46.9349 10.292 47.4749 10.604C48.0269 10.916 48.4589 11.348 48.7709 11.9C49.0949 12.44 49.2569 13.052 49.2569 13.736V20H47.9069V14.258C47.9069 13.67 47.7989 13.172 47.5829 12.764C47.3789 12.356 47.0849 12.044 46.7009 11.828C46.3289 11.6 45.8969 11.486 45.4049 11.486C44.9129 11.486 44.4749 11.6 44.0909 11.828C43.7069 12.044 43.4069 12.362 43.1909 12.782C42.9749 13.19 42.8669 13.682 42.8669 14.258V20H41.5169ZM52.8252 20V11.702H50.8992V10.352H52.8252V9.488C52.8252 8.816 52.9752 8.252 53.2752 7.796C53.5752 7.328 53.9712 6.974 54.4632 6.734C54.9552 6.494 55.4832 6.374 56.0472 6.374C56.1672 6.374 56.3052 6.386 56.4612 6.41C56.6172 6.422 56.7432 6.44 56.8392 6.464V7.688C56.7552 7.664 56.6412 7.652 56.4972 7.652C56.3532 7.64 56.2512 7.634 56.1912 7.634C55.6152 7.634 55.1352 7.772 54.7512 8.048C54.3672 8.324 54.1752 8.804 54.1752 9.488V10.352H56.5332V11.702H54.1752V20H52.8252ZM62.8747 20.216C61.9627 20.216 61.1347 20 60.3907 19.568C59.6467 19.124 59.0527 18.524 58.6087 17.768C58.1767 17 57.9607 16.13 57.9607 15.158C57.9607 14.198 58.1767 13.34 58.6087 12.584C59.0407 11.828 59.6227 11.234 60.3547 10.802C61.0987 10.358 61.9387 10.136 62.8747 10.136C63.8107 10.136 64.6447 10.352 65.3767 10.784C66.1207 11.216 66.7027 11.81 67.1227 12.566C67.5547 13.322 67.7707 14.186 67.7707 15.158C67.7707 16.142 67.5487 17.018 67.1047 17.786C66.6607 18.542 66.0667 19.136 65.3227 19.568C64.5907 20 63.7747 20.216 62.8747 20.216ZM62.8747 18.866C63.5227 18.866 64.1047 18.704 64.6207 18.38C65.1487 18.056 65.5627 17.612 65.8627 17.048C66.1747 16.484 66.3307 15.854 66.3307 15.158C66.3307 14.462 66.1747 13.838 65.8627 13.286C65.5627 12.734 65.1487 12.296 64.6207 11.972C64.1047 11.648 63.5227 11.486 62.8747 11.486C62.2267 11.486 61.6387 11.648 61.1107 11.972C60.5947 12.296 60.1807 12.734 59.8687 13.286C59.5567 13.838 59.4007 14.462 59.4007 15.158C59.4007 15.854 59.5567 16.484 59.8687 17.048C60.1807 17.612 60.5947 18.056 61.1107 18.38C61.6387 18.704 62.2267 18.866 62.8747 18.866ZM77.4416 23.726C76.3856 23.726 75.4016 23.534 74.4896 23.15C73.5896 22.778 72.7976 22.25 72.1136 21.566C71.4296 20.882 70.8956 20.09 70.5116 19.19C70.1396 18.278 69.9536 17.3 69.9536 16.256C69.9536 15.212 70.1456 14.24 70.5296 13.34C70.9136 12.44 71.4416 11.654 72.1136 10.982C72.7976 10.31 73.5956 9.788 74.5076 9.416C75.4196 9.032 76.3976 8.84 77.4416 8.84C78.5216 8.84 79.5176 9.044 80.4296 9.452C81.3416 9.848 82.1276 10.394 82.7876 11.09C83.4596 11.774 83.9756 12.554 84.3356 13.43C84.7076 14.306 84.8936 15.224 84.8936 16.184C84.8936 16.94 84.7736 17.606 84.5336 18.182C84.3056 18.746 83.9696 19.19 83.5256 19.514C83.0816 19.838 82.5476 20 81.9236 20C81.5516 20 81.1976 19.934 80.8616 19.802C80.5256 19.658 80.2376 19.46 79.9976 19.208C79.7696 18.944 79.6136 18.632 79.5296 18.272L79.8176 18.506C79.6256 18.83 79.3856 19.106 79.0976 19.334C78.8216 19.55 78.5096 19.718 78.1616 19.838C77.8136 19.946 77.4356 20 77.0276 20C76.3316 20 75.7016 19.832 75.1376 19.496C74.5856 19.16 74.1476 18.704 73.8236 18.128C73.4996 17.552 73.3376 16.898 73.3376 16.166C73.3376 15.434 73.4996 14.78 73.8236 14.204C74.1476 13.628 74.5856 13.172 75.1376 12.836C75.7016 12.488 76.3316 12.314 77.0276 12.314C77.6156 12.314 78.1496 12.434 78.6296 12.674C79.1216 12.914 79.5116 13.25 79.7996 13.682L79.6736 13.898V12.494H80.8436V17.462C80.8436 17.906 80.9396 18.23 81.1316 18.434C81.3356 18.638 81.6056 18.74 81.9416 18.74C82.4456 18.74 82.8356 18.53 83.1116 18.11C83.3996 17.69 83.5436 17.06 83.5436 16.22C83.5436 15.356 83.3936 14.552 83.0936 13.808C82.7936 13.064 82.3736 12.416 81.8336 11.864C81.2936 11.312 80.6516 10.88 79.9076 10.568C79.1636 10.256 78.3416 10.1 77.4416 10.1C76.5656 10.1 75.7496 10.256 74.9936 10.568C74.2496 10.868 73.6016 11.294 73.0496 11.846C72.4976 12.398 72.0656 13.046 71.7536 13.79C71.4536 14.534 71.3036 15.35 71.3036 16.238C71.3036 17.102 71.4476 17.912 71.7356 18.668C72.0356 19.412 72.4556 20.066 72.9956 20.63C73.5476 21.206 74.2016 21.656 74.9576 21.98C75.7136 22.304 76.5536 22.466 77.4776 22.466C78.0176 22.466 78.5396 22.406 79.0436 22.286C79.5476 22.178 80.0036 22.01 80.4116 21.782L80.9876 22.862C79.9676 23.438 78.7856 23.726 77.4416 23.726ZM77.0816 18.74C77.5496 18.74 77.9636 18.626 78.3236 18.398C78.6836 18.17 78.9656 17.864 79.1696 17.48C79.3856 17.084 79.4936 16.64 79.4936 16.148C79.4936 15.404 79.2656 14.798 78.8096 14.33C78.3536 13.85 77.7776 13.61 77.0816 13.61C76.6256 13.61 76.2116 13.724 75.8396 13.952C75.4796 14.168 75.1976 14.468 74.9936 14.852C74.7896 15.236 74.6876 15.674 74.6876 16.166C74.6876 16.646 74.7896 17.084 74.9936 17.48C75.2096 17.864 75.4976 18.17 75.8576 18.398C76.2176 18.626 76.6256 18.74 77.0816 18.74ZM86.8684 20V10.352H88.2184V11.936L88.0384 11.702C88.2664 11.246 88.6084 10.886 89.0644 10.622C89.5324 10.358 90.0964 10.226 90.7564 10.226H91.3684V11.576H90.5224C89.8264 11.576 89.2684 11.792 88.8484 12.224C88.4284 12.656 88.2184 13.268 88.2184 14.06V20H86.8684ZM92.9505 20V10.352H94.3005V12.188L94.0845 11.918C94.3485 11.354 94.7385 10.916 95.2545 10.604C95.7825 10.292 96.3585 10.136 96.9825 10.136C97.7265 10.136 98.3985 10.346 98.9985 10.766C99.5985 11.186 100.024 11.732 100.276 12.404L99.8985 12.422C100.138 11.678 100.552 11.114 101.14 10.73C101.74 10.334 102.4 10.136 103.12 10.136C103.768 10.136 104.362 10.292 104.902 10.604C105.454 10.916 105.892 11.348 106.216 11.9C106.552 12.44 106.72 13.052 106.72 13.736V20H105.37V14.258C105.37 13.67 105.262 13.172 105.046 12.764C104.842 12.356 104.56 12.044 104.2 11.828C103.84 11.6 103.426 11.486 102.958 11.486C102.502 11.486 102.088 11.6 101.716 11.828C101.344 12.044 101.05 12.362 100.834 12.782C100.618 13.19 100.51 13.682 100.51 14.258V20H99.1605V14.258C99.1605 13.67 99.0525 13.172 98.8365 12.764C98.6325 12.356 98.3505 12.044 97.9905 11.828C97.6305 11.6 97.2165 11.486 96.7485 11.486C96.2805 11.486 95.8605 11.6 95.4885 11.828C95.1285 12.044 94.8405 12.362 94.6245 12.782C94.4085 13.19 94.3005 13.682 94.3005 14.258V20H92.9505ZM112.088 20.216C111.476 20.216 110.93 20.102 110.45 19.874C109.97 19.634 109.592 19.31 109.316 18.902C109.04 18.494 108.902 18.026 108.902 17.498C108.902 16.994 109.01 16.538 109.226 16.13C109.442 15.71 109.778 15.356 110.234 15.068C110.69 14.78 111.272 14.576 111.98 14.456L115.76 13.826V15.05L112.304 15.626C111.608 15.746 111.104 15.968 110.792 16.292C110.492 16.616 110.342 17 110.342 17.444C110.342 17.876 110.51 18.242 110.846 18.542C111.194 18.842 111.638 18.992 112.178 18.992C112.838 18.992 113.414 18.854 113.906 18.578C114.398 18.29 114.782 17.906 115.058 17.426C115.334 16.946 115.472 16.412 115.472 15.824V13.376C115.472 12.8 115.262 12.332 114.842 11.972C114.422 11.612 113.876 11.432 113.204 11.432C112.616 11.432 112.1 11.582 111.656 11.882C111.212 12.17 110.882 12.548 110.666 13.016L109.442 12.35C109.622 11.942 109.904 11.57 110.288 11.234C110.684 10.898 111.134 10.634 111.638 10.442C112.142 10.238 112.664 10.136 113.204 10.136C113.912 10.136 114.536 10.274 115.076 10.55C115.628 10.826 116.054 11.21 116.354 11.702C116.666 12.182 116.822 12.74 116.822 13.376V20H115.472V18.074L115.67 18.272C115.502 18.632 115.238 18.962 114.878 19.262C114.53 19.55 114.116 19.784 113.636 19.964C113.168 20.132 112.652 20.216 112.088 20.216ZM119.545 15.806V14.546H125.845V15.806H119.545ZM132.254 20.108C131.39 20.108 130.724 19.856 130.256 19.352C129.788 18.848 129.554 18.128 129.554 17.192V11.702H127.772V10.352H128.222C128.63 10.352 128.954 10.22 129.194 9.956C129.434 9.68 129.554 9.338 129.554 8.93V8.12H130.904V10.352H133.028V11.702H130.904V17.192C130.904 17.516 130.952 17.804 131.048 18.056C131.144 18.296 131.306 18.488 131.534 18.632C131.774 18.776 132.092 18.848 132.488 18.848C132.584 18.848 132.698 18.842 132.83 18.83C132.962 18.818 133.076 18.806 133.172 18.794V20C133.028 20.036 132.866 20.06 132.686 20.072C132.506 20.096 132.362 20.108 132.254 20.108ZM139.709 20.216C138.797 20.216 137.969 20 137.225 19.568C136.481 19.124 135.887 18.524 135.443 17.768C135.011 17 134.795 16.13 134.795 15.158C134.795 14.198 135.011 13.34 135.443 12.584C135.875 11.828 136.457 11.234 137.189 10.802C137.933 10.358 138.773 10.136 139.709 10.136C140.645 10.136 141.479 10.352 142.211 10.784C142.955 11.216 143.537 11.81 143.957 12.566C144.389 13.322 144.605 14.186 144.605 15.158C144.605 16.142 144.383 17.018 143.939 17.786C143.495 18.542 142.901 19.136 142.157 19.568C141.425 20 140.609 20.216 139.709 20.216ZM139.709 18.866C140.357 18.866 140.939 18.704 141.455 18.38C141.983 18.056 142.397 17.612 142.697 17.048C143.009 16.484 143.165 15.854 143.165 15.158C143.165 14.462 143.009 13.838 142.697 13.286C142.397 12.734 141.983 12.296 141.455 11.972C140.939 11.648 140.357 11.486 139.709 11.486C139.061 11.486 138.473 11.648 137.945 11.972C137.429 12.296 137.015 12.734 136.703 13.286C136.391 13.838 136.235 14.462 136.235 15.158C136.235 15.854 136.391 16.484 136.703 17.048C137.015 17.612 137.429 18.056 137.945 18.38C138.473 18.704 139.061 18.866 139.709 18.866ZM150.406 20.216C149.734 20.216 149.122 20.06 148.57 19.748C148.018 19.424 147.58 18.98 147.256 18.416C146.944 17.84 146.788 17.18 146.788 16.436V10.352H148.138V16.274C148.138 16.79 148.24 17.246 148.444 17.642C148.66 18.026 148.954 18.326 149.326 18.542C149.71 18.758 150.148 18.866 150.64 18.866C151.132 18.866 151.57 18.758 151.954 18.542C152.338 18.314 152.638 17.996 152.854 17.588C153.07 17.168 153.178 16.67 153.178 16.094V10.352H154.528V20H153.178V18.128L153.484 18.2C153.256 18.824 152.866 19.316 152.314 19.676C151.762 20.036 151.126 20.216 150.406 20.216ZM157.304 20V10.352H158.654V11.936L158.474 11.702C158.702 11.246 159.044 10.886 159.5 10.622C159.968 10.358 160.532 10.226 161.192 10.226H161.804V11.576H160.958C160.262 11.576 159.704 11.792 159.284 12.224C158.864 12.656 158.654 13.268 158.654 14.06V20H157.304ZM163.133 20V18.02H164.573V20H163.133ZM172.226 20.216C171.278 20.216 170.444 19.994 169.724 19.55C169.004 19.106 168.44 18.506 168.032 17.75C167.624 16.982 167.42 16.118 167.42 15.158C167.42 14.198 167.624 13.34 168.032 12.584C168.44 11.828 169.004 11.234 169.724 10.802C170.444 10.358 171.278 10.136 172.226 10.136C172.826 10.136 173.39 10.244 173.918 10.46C174.446 10.676 174.914 10.97 175.322 11.342C175.73 11.702 176.036 12.122 176.24 12.602L175.016 13.232C174.776 12.716 174.41 12.296 173.918 11.972C173.426 11.648 172.862 11.486 172.226 11.486C171.59 11.486 171.014 11.648 170.498 11.972C169.994 12.284 169.592 12.722 169.292 13.286C169.004 13.838 168.86 14.468 168.86 15.176C168.86 15.872 169.004 16.502 169.292 17.066C169.592 17.618 169.994 18.056 170.498 18.38C171.014 18.704 171.59 18.866 172.226 18.866C172.862 18.866 173.42 18.704 173.9 18.38C174.392 18.056 174.764 17.624 175.016 17.084L176.24 17.75C176.036 18.218 175.73 18.638 175.322 19.01C174.914 19.382 174.446 19.676 173.918 19.892C173.39 20.108 172.826 20.216 172.226 20.216ZM183.127 20.216C182.215 20.216 181.387 20 180.643 19.568C179.899 19.124 179.305 18.524 178.861 17.768C178.429 17 178.213 16.13 178.213 15.158C178.213 14.198 178.429 13.34 178.861 12.584C179.293 11.828 179.875 11.234 180.607 10.802C181.351 10.358 182.191 10.136 183.127 10.136C184.063 10.136 184.897 10.352 185.629 10.784C186.373 11.216 186.955 11.81 187.375 12.566C187.807 13.322 188.023 14.186 188.023 15.158C188.023 16.142 187.801 17.018 187.357 17.786C186.913 18.542 186.319 19.136 185.575 19.568C184.843 20 184.027 20.216 183.127 20.216ZM183.127 18.866C183.775 18.866 184.357 18.704 184.873 18.38C185.401 18.056 185.815 17.612 186.115 17.048C186.427 16.484 186.583 15.854 186.583 15.158C186.583 14.462 186.427 13.838 186.115 13.286C185.815 12.734 185.401 12.296 184.873 11.972C184.357 11.648 183.775 11.486 183.127 11.486C182.479 11.486 181.891 11.648 181.363 11.972C180.847 12.296 180.433 12.734 180.121 13.286C179.809 13.838 179.653 14.462 179.653 15.158C179.653 15.854 179.809 16.484 180.121 17.048C180.433 17.612 180.847 18.056 181.363 18.38C181.891 18.704 182.479 18.866 183.127 18.866ZM190.404 20V10.352H191.754V12.188L191.538 11.918C191.802 11.354 192.192 10.916 192.708 10.604C193.236 10.292 193.812 10.136 194.436 10.136C195.18 10.136 195.852 10.346 196.452 10.766C197.052 11.186 197.478 11.732 197.73 12.404L197.352 12.422C197.592 11.678 198.006 11.114 198.594 10.73C199.194 10.334 199.854 10.136 200.574 10.136C201.222 10.136 201.816 10.292 202.356 10.604C202.908 10.916 203.346 11.348 203.67 11.9C204.006 12.44 204.174 13.052 204.174 13.736V20H202.824V14.258C202.824 13.67 202.716 13.172 202.5 12.764C202.296 12.356 202.014 12.044 201.654 11.828C201.294 11.6 200.88 11.486 200.412 11.486C199.956 11.486 199.542 11.6 199.17 11.828C198.798 12.044 198.504 12.362 198.288 12.782C198.072 13.19 197.964 13.682 197.964 14.258V20H196.614V14.258C196.614 13.67 196.506 13.172 196.29 12.764C196.086 12.356 195.804 12.044 195.444 11.828C195.084 11.6 194.67 11.486 194.202 11.486C193.734 11.486 193.314 11.6 192.942 11.828C192.582 12.044 192.294 12.362 192.078 12.782C191.862 13.19 191.754 13.682 191.754 14.258V20H190.404Z" fill="white"/>
<path d="M17 3.5H7C4 3.5 2 5 2 8.5V15.5C2 19 4 20.5 7 20.5H17C20 20.5 22 19 22 15.5V8.5C22 5 20 3.5 17 3.5ZM17.47 9.59L14.34 12.09C13.68 12.62 12.84 12.88 12 12.88C11.16 12.88 10.31 12.62 9.66 12.09L6.53 9.59C6.21 9.33 6.16 8.85 6.41 8.53C6.67 8.21 7.14 8.15 7.46 8.41L10.59 10.91C11.35 11.52 12.64 11.52 13.4 10.91L16.53 8.41C16.85 8.15 17.33 8.2 17.58 8.53C17.84 8.85 17.79 9.33 17.47 9.59Z" fill="white"/>
</svg>
