<svg width="161" height="26" viewBox="0 0 161 26" fill="none" xmlns="http://www.w3.org/2000/svg">
<path d="M42.606 19.216C41.55 19.216 40.62 18.928 39.816 18.352C39.024 17.764 38.406 16.954 37.962 15.922C37.518 14.878 37.296 13.666 37.296 12.286C37.296 10.906 37.518 9.7 37.962 8.668C38.406 7.624 39.024 6.814 39.816 6.238C40.608 5.662 41.532 5.374 42.588 5.374C43.644 5.374 44.568 5.662 45.36 6.238C46.152 6.814 46.77 7.624 47.214 8.668C47.658 9.7 47.88 10.906 47.88 12.286C47.88 13.666 47.658 14.878 47.214 15.922C46.782 16.966 46.17 17.776 45.378 18.352C44.586 18.928 43.662 19.216 42.606 19.216ZM42.606 17.866C43.374 17.866 44.046 17.632 44.622 17.164C45.198 16.696 45.648 16.048 45.972 15.22C46.296 14.38 46.458 13.402 46.458 12.286C46.458 11.17 46.296 10.198 45.972 9.37C45.648 8.53 45.198 7.882 44.622 7.426C44.046 6.958 43.368 6.724 42.588 6.724C41.82 6.724 41.148 6.958 40.572 7.426C39.996 7.882 39.546 8.53 39.222 9.37C38.898 10.198 38.736 11.17 38.736 12.286C38.736 13.39 38.898 14.362 39.222 15.202C39.546 16.042 39.996 16.696 40.572 17.164C41.16 17.632 41.838 17.866 42.606 17.866ZM54.8356 19.216C53.9716 19.216 53.1976 19.042 52.5136 18.694C51.8416 18.334 51.3076 17.848 50.9116 17.236C50.5276 16.612 50.3356 15.91 50.3356 15.13C50.3356 14.278 50.5756 13.516 51.0556 12.844C51.5476 12.172 52.2076 11.704 53.0356 11.44V11.818C52.3996 11.542 51.9076 11.134 51.5596 10.594C51.2116 10.042 51.0376 9.454 51.0376 8.83C51.0376 8.17 51.2056 7.582 51.5416 7.066C51.8776 6.55 52.3276 6.142 52.8916 5.842C53.4676 5.53 54.1156 5.374 54.8356 5.374C55.5676 5.374 56.2156 5.524 56.7796 5.824C57.3436 6.112 57.7876 6.52 58.1116 7.048C58.4476 7.564 58.6156 8.158 58.6156 8.83C58.6156 9.502 58.4356 10.102 58.0756 10.63C57.7156 11.146 57.2416 11.542 56.6536 11.818L56.6356 11.44C57.4636 11.704 58.1176 12.172 58.5976 12.844C59.0896 13.516 59.3356 14.278 59.3356 15.13C59.3356 15.91 59.1376 16.612 58.7416 17.236C58.3576 17.848 57.8236 18.334 57.1396 18.694C56.4676 19.042 55.6996 19.216 54.8356 19.216ZM54.8356 17.956C55.4476 17.956 55.9816 17.842 56.4376 17.614C56.8936 17.374 57.2476 17.044 57.4996 16.624C57.7636 16.192 57.8956 15.694 57.8956 15.13C57.8956 14.566 57.7636 14.074 57.4996 13.654C57.2476 13.222 56.8936 12.892 56.4376 12.664C55.9816 12.424 55.4476 12.304 54.8356 12.304C54.2236 12.304 53.6836 12.424 53.2156 12.664C52.7596 12.892 52.4056 13.222 52.1536 13.654C51.9016 14.074 51.7756 14.566 51.7756 15.13C51.7756 15.694 51.9016 16.192 52.1536 16.624C52.4056 17.044 52.7596 17.374 53.2156 17.614C53.6836 17.842 54.2236 17.956 54.8356 17.956ZM54.8356 11.044C55.2796 11.044 55.6756 10.954 56.0236 10.774C56.3716 10.582 56.6476 10.324 56.8516 10C57.0676 9.664 57.1756 9.274 57.1756 8.83C57.1756 8.386 57.0676 8.002 56.8516 7.678C56.6476 7.354 56.3716 7.102 56.0236 6.922C55.6756 6.73 55.2796 6.634 54.8356 6.634C54.3916 6.634 53.9896 6.73 53.6296 6.922C53.2816 7.102 52.9996 7.354 52.7836 7.678C52.5796 8.002 52.4776 8.386 52.4776 8.83C52.4776 9.274 52.5796 9.664 52.7836 10C52.9996 10.324 53.2816 10.582 53.6296 10.774C53.9896 10.954 54.3916 11.044 54.8356 11.044ZM63.7443 19V6.85H61.2243V5.59H65.1843V19H63.7443ZM68.21 19V18.1L71.954 13.978C72.686 13.174 73.28 12.508 73.736 11.98C74.204 11.452 74.552 10.972 74.78 10.54C75.008 10.108 75.122 9.64 75.122 9.136C75.122 8.332 74.888 7.714 74.42 7.282C73.952 6.85 73.328 6.634 72.548 6.634C71.744 6.634 71.066 6.862 70.514 7.318C69.974 7.774 69.608 8.41 69.416 9.226L68.102 8.938C68.258 8.206 68.54 7.576 68.948 7.048C69.356 6.52 69.866 6.112 70.478 5.824C71.09 5.524 71.774 5.374 72.53 5.374C73.334 5.374 74.036 5.536 74.636 5.86C75.236 6.184 75.704 6.628 76.04 7.192C76.388 7.756 76.562 8.404 76.562 9.136C76.562 9.64 76.454 10.126 76.238 10.594C76.034 11.062 75.722 11.566 75.302 12.106C74.882 12.646 74.342 13.276 73.682 13.996L70.28 17.74H76.922V19H68.21ZM80.569 19L85.231 12.898L85.501 12.736C85.321 13.024 85.111 13.252 84.871 13.42C84.631 13.588 84.367 13.708 84.079 13.78C83.791 13.852 83.473 13.888 83.125 13.888C82.345 13.888 81.643 13.708 81.019 13.348C80.395 12.976 79.897 12.472 79.525 11.836C79.165 11.188 78.985 10.45 78.985 9.622C78.985 8.806 79.171 8.08 79.543 7.444C79.927 6.808 80.443 6.304 81.091 5.932C81.751 5.56 82.489 5.374 83.305 5.374C84.145 5.374 84.889 5.566 85.537 5.95C86.185 6.322 86.695 6.844 87.067 7.516C87.439 8.176 87.625 8.938 87.625 9.802C87.625 10.282 87.565 10.756 87.445 11.224C87.337 11.692 87.169 12.154 86.941 12.61C86.713 13.066 86.425 13.522 86.077 13.978L82.297 19H80.569ZM83.305 12.592C83.869 12.592 84.367 12.466 84.799 12.214C85.231 11.95 85.567 11.596 85.807 11.152C86.059 10.696 86.185 10.186 86.185 9.622C86.185 9.046 86.059 8.536 85.807 8.092C85.555 7.636 85.213 7.282 84.781 7.03C84.349 6.766 83.857 6.634 83.305 6.634C82.753 6.634 82.261 6.766 81.829 7.03C81.397 7.282 81.055 7.636 80.803 8.092C80.551 8.536 80.425 9.046 80.425 9.622C80.425 10.186 80.545 10.696 80.785 11.152C81.037 11.596 81.379 11.95 81.811 12.214C82.255 12.466 82.753 12.592 83.305 12.592ZM91.9572 19V6.85H89.4372V5.59H93.3972V19H91.9572ZM103.029 19V15.832H96.2069V14.662L103.029 5.59H104.289V14.662H105.927V15.832H104.289V19H103.029ZM97.3049 15.184L97.1429 14.662H103.029V6.832L103.479 6.958L97.3049 15.184ZM114.367 19V15.832H107.545V14.662L114.367 5.59H115.627V14.662H117.265V15.832H115.627V19H114.367ZM108.643 15.184L108.481 14.662H114.367V6.832L114.817 6.958L108.643 15.184ZM119.099 19V18.1L122.843 13.978C123.575 13.174 124.169 12.508 124.625 11.98C125.093 11.452 125.441 10.972 125.669 10.54C125.897 10.108 126.011 9.64 126.011 9.136C126.011 8.332 125.777 7.714 125.309 7.282C124.841 6.85 124.217 6.634 123.437 6.634C122.633 6.634 121.955 6.862 121.403 7.318C120.863 7.774 120.497 8.41 120.305 9.226L118.991 8.938C119.147 8.206 119.429 7.576 119.837 7.048C120.245 6.52 120.755 6.112 121.367 5.824C121.979 5.524 122.663 5.374 123.419 5.374C124.223 5.374 124.925 5.536 125.525 5.86C126.125 6.184 126.593 6.628 126.929 7.192C127.277 7.756 127.451 8.404 127.451 9.136C127.451 9.64 127.343 10.126 127.127 10.594C126.923 11.062 126.611 11.566 126.191 12.106C125.771 12.646 125.231 13.276 124.571 13.996L121.169 17.74H127.811V19H119.099ZM129.892 19V18.1L133.636 13.978C134.368 13.174 134.962 12.508 135.418 11.98C135.886 11.452 136.234 10.972 136.462 10.54C136.69 10.108 136.804 9.64 136.804 9.136C136.804 8.332 136.57 7.714 136.102 7.282C135.634 6.85 135.01 6.634 134.23 6.634C133.426 6.634 132.748 6.862 132.196 7.318C131.656 7.774 131.29 8.41 131.098 9.226L129.784 8.938C129.94 8.206 130.222 7.576 130.63 7.048C131.038 6.52 131.548 6.112 132.16 5.824C132.772 5.524 133.456 5.374 134.212 5.374C135.016 5.374 135.718 5.536 136.318 5.86C136.918 6.184 137.386 6.628 137.722 7.192C138.07 7.756 138.244 8.404 138.244 9.136C138.244 9.64 138.136 10.126 137.92 10.594C137.716 11.062 137.404 11.566 136.984 12.106C136.564 12.646 136.024 13.276 135.364 13.996L131.962 17.74H138.604V19H129.892ZM141.063 19L147.111 6.85H140.415V5.59H148.605V6.85L142.575 19H141.063ZM154.706 19.216C154.01 19.216 153.368 19.096 152.78 18.856C152.192 18.616 151.676 18.274 151.232 17.83C150.8 17.386 150.47 16.858 150.242 16.246L151.394 15.706C151.67 16.402 152.102 16.954 152.69 17.362C153.278 17.758 153.95 17.956 154.706 17.956C155.306 17.956 155.84 17.842 156.308 17.614C156.776 17.374 157.142 17.032 157.406 16.588C157.67 16.144 157.802 15.604 157.802 14.968C157.802 14.332 157.664 13.792 157.388 13.348C157.124 12.904 156.758 12.568 156.29 12.34C155.822 12.112 155.288 11.998 154.688 11.998C154.532 11.998 154.358 12.004 154.166 12.016C153.986 12.028 153.836 12.046 153.716 12.07L153.428 11.44L157.046 6.85H150.872V5.59H158.666V6.85L155.282 11.116L155.102 10.882C155.906 10.906 156.62 11.098 157.244 11.458C157.868 11.806 158.354 12.28 158.702 12.88C159.062 13.48 159.242 14.176 159.242 14.968C159.242 15.76 159.05 16.48 158.666 17.128C158.282 17.764 157.748 18.274 157.064 18.658C156.38 19.03 155.594 19.216 154.706 19.216Z" fill="white"/>
<path d="M11.05 16.95L9.2 18.8C8.81 19.19 8.19 19.19 7.79 18.81C7.68 18.7 7.57 18.6 7.46 18.49C6.43 17.45 5.5 16.36 4.67 15.22C3.85 14.08 3.19 12.94 2.71 11.81C2.24 10.67 2 9.58 2 8.54C2 7.86 2.12 7.21 2.36 6.61C2.6 6 2.98 5.44 3.51 4.94C4.15 4.31 4.85 4 5.59 4C5.87 4 6.15 4.06 6.4 4.18C6.66 4.3 6.89 4.48 7.07 4.74L9.39 8.01C9.57 8.26 9.7 8.49 9.79 8.71C9.88 8.92 9.93 9.13 9.93 9.32C9.93 9.56 9.86 9.8 9.72 10.03C9.59 10.26 9.4 10.5 9.16 10.74L8.4 11.53C8.29 11.64 8.24 11.77 8.24 11.93C8.24 12.01 8.25 12.08 8.27 12.16C8.3 12.24 8.33 12.3 8.35 12.36C8.53 12.69 8.84 13.12 9.28 13.64C9.73 14.16 10.21 14.69 10.73 15.22C10.83 15.32 10.94 15.42 11.04 15.52C11.44 15.91 11.45 16.55 11.05 16.95Z" fill="white"/>
<path d="M21.9696 20.33C21.9696 20.61 21.9196 20.9 21.8196 21.18C21.7896 21.26 21.7596 21.34 21.7196 21.42C21.5496 21.78 21.3296 22.12 21.0396 22.44C20.5496 22.98 20.0096 23.37 19.3996 23.62C19.3896 23.62 19.3796 23.63 19.3696 23.63C18.7796 23.87 18.1396 24 17.4496 24C16.4296 24 15.3396 23.76 14.1896 23.27C13.0396 22.78 11.8896 22.12 10.7496 21.29C10.3596 21 9.96961 20.71 9.59961 20.4L12.8696 17.13C13.1496 17.34 13.3996 17.5 13.6096 17.61C13.6596 17.63 13.7196 17.66 13.7896 17.69C13.8696 17.72 13.9496 17.73 14.0396 17.73C14.2096 17.73 14.3396 17.67 14.4496 17.56L15.2096 16.81C15.4596 16.56 15.6996 16.37 15.9296 16.25C16.1596 16.11 16.3896 16.04 16.6396 16.04C16.8296 16.04 17.0296 16.08 17.2496 16.17C17.4696 16.26 17.6996 16.39 17.9496 16.56L21.2596 18.91C21.5196 19.09 21.6996 19.3 21.8096 19.55C21.9096 19.8 21.9696 20.05 21.9696 20.33Z" fill="white"/>
</svg>
