<svg width="1033" height="143" viewBox="0 0 1033 143" fill="none" xmlns="http://www.w3.org/2000/svg">
<circle cx="25" cy="25" r="25" fill="#797979" fill-opacity="0.06"/>
<path d="M22.0927 18.768V16.7926H26.5671V34H24.3775V18.768H22.0927Z" fill="#5DB075"/>
<circle cx="300" cy="25" r="25" fill="#797979" fill-opacity="0.06"/>
<path d="M294.369 32.2626C296.384 30.6442 297.963 29.3193 299.105 28.288C300.248 27.2408 301.208 26.1539 301.985 25.0274C302.778 23.885 303.175 22.7664 303.175 21.6716C303.175 20.6403 302.921 19.8311 302.413 19.244C301.922 18.6411 301.12 18.3396 300.01 18.3396C298.931 18.3396 298.09 18.6807 297.487 19.363C296.9 20.0294 296.582 20.9259 296.535 22.0524H294.44C294.504 20.2753 295.043 18.9029 296.059 17.935C297.074 16.9671 298.383 16.4832 299.986 16.4832C301.62 16.4832 302.913 16.9354 303.865 17.8398C304.833 18.7442 305.317 19.9897 305.317 21.5764C305.317 22.8933 304.92 24.1785 304.127 25.432C303.35 26.6696 302.461 27.7644 301.461 28.7164C300.462 29.6525 299.185 30.7473 297.63 32.0008H305.817V33.8096H294.369V32.2626Z" fill="#5DB075"/>
<circle cx="576" cy="25" r="25" fill="#797979" fill-opacity="0.06"/>
<path d="M570.92 21.1242C571.032 19.6645 571.595 18.5221 572.61 17.697C573.626 16.8719 574.943 16.4594 576.561 16.4594C577.64 16.4594 578.568 16.6577 579.346 17.0544C580.139 17.4352 580.734 17.9588 581.131 18.6252C581.543 19.2916 581.749 20.0453 581.749 20.8862C581.749 21.8699 581.464 22.7188 580.893 23.4328C580.337 24.1468 579.607 24.6069 578.703 24.8132V24.9322C579.734 25.1861 580.552 25.6859 581.154 26.4316C581.757 27.1773 582.059 28.1531 582.059 29.359C582.059 30.2634 581.853 31.0805 581.44 31.8104C581.028 32.5244 580.409 33.0877 579.584 33.5002C578.759 33.9127 577.767 34.119 576.609 34.119C574.927 34.119 573.546 33.6827 572.467 32.81C571.389 31.9215 570.786 30.668 570.659 29.0496H572.753C572.864 30.0016 573.253 30.7791 573.919 31.382C574.586 31.9849 575.474 32.2864 576.585 32.2864C577.696 32.2864 578.536 32.0008 579.108 31.4296C579.695 30.8425 579.988 30.0889 579.988 29.1686C579.988 27.9786 579.592 27.1218 578.798 26.5982C578.005 26.0746 576.807 25.8128 575.204 25.8128H574.657V24.004H575.228C576.688 23.9881 577.791 23.7501 578.536 23.29C579.282 22.814 579.655 22.0841 579.655 21.1004C579.655 20.2595 579.377 19.5851 578.822 19.0774C578.283 18.5697 577.505 18.3158 576.49 18.3158C575.506 18.3158 574.713 18.5697 574.11 19.0774C573.507 19.5851 573.15 20.2674 573.039 21.1242H570.92Z" fill="#5DB075"/>
<circle cx="845" cy="25" r="25" fill="#797979" fill-opacity="0.06"/>
<path d="M838.968 30.1682V28.526L847.322 16.9592H849.916V28.288H852.296V30.1682H849.916V34H847.774V30.1682H838.968ZM847.869 19.2202L841.467 28.288H847.869V19.2202Z" fill="#5DB075"/>
<path d="M1.5604 98V83.994H3.4028V91.8712L2.9516 91.6832L9.6444 83.994H11.9568L6.3356 90.48L6.4296 89.164L12.2388 98H10.0392L5.6024 91.3448L3.4028 93.864V98H1.5604ZM13.9893 98V87.8668H15.7377V98H13.9893ZM13.9893 86.25V83.994H15.7377V86.25H13.9893ZM18.6386 98V87.8668H20.3494V89.728L20.1614 89.4648C20.3995 88.8883 20.763 88.4621 21.2518 88.1864C21.7406 87.8981 22.3359 87.754 23.0378 87.754H23.6582V89.4084H22.7746C22.0602 89.4084 21.4837 89.634 21.045 90.0852C20.6063 90.5239 20.387 91.1505 20.387 91.9652V98H18.6386ZM25.3992 98V87.8668H27.1476V98H25.3992ZM25.3992 86.25V83.994H27.1476V86.25H25.3992ZM30.0486 98V87.8668H31.7594V89.9348L31.515 89.6152C31.7656 88.976 32.1667 88.4872 32.7182 88.1488C33.2696 87.8104 33.89 87.6412 34.5794 87.6412C35.369 87.6412 36.0771 87.8605 36.7038 88.2992C37.343 88.7379 37.7816 89.3144 38.0198 90.0288L37.531 90.0476C37.7942 89.258 38.2391 88.6627 38.8658 88.2616C39.4924 87.848 40.188 87.6412 40.9526 87.6412C41.6544 87.6412 42.2874 87.8041 42.8514 88.13C43.4279 88.4559 43.8854 88.9071 44.2238 89.4836C44.5622 90.0601 44.7314 90.7119 44.7314 91.4388V98H42.9642V92.0028C42.9642 91.4388 42.8639 90.9625 42.6634 90.574C42.4628 90.1855 42.1871 89.8847 41.8362 89.6716C41.4978 89.446 41.0967 89.3332 40.633 89.3332C40.1818 89.3332 39.7744 89.446 39.411 89.6716C39.06 89.8847 38.778 90.1917 38.565 90.5928C38.3644 90.9813 38.2642 91.4513 38.2642 92.0028V98H36.497V92.0028C36.497 91.4388 36.3967 90.9625 36.1962 90.574C35.9956 90.1855 35.7199 89.8847 35.369 89.6716C35.0306 89.446 34.6295 89.3332 34.1658 89.3332C33.7146 89.3332 33.3072 89.446 32.9438 89.6716C32.5928 89.8847 32.3108 90.1917 32.0978 90.5928C31.8972 90.9813 31.797 91.4513 31.797 92.0028V98H30.0486ZM1.5604 132V117.994H6.5048C7.43227 117.994 8.24693 118.169 8.9488 118.52C9.65067 118.871 10.1959 119.373 10.5844 120.024C10.9855 120.676 11.186 121.441 11.186 122.318C11.186 123.195 10.9855 123.96 10.5844 124.612C10.1959 125.251 9.65067 125.752 8.9488 126.116C8.25947 126.467 7.4448 126.642 6.5048 126.642H3.4028V132H1.5604ZM3.4028 124.95H6.5612C7.1252 124.95 7.614 124.843 8.0276 124.63C8.4412 124.417 8.7608 124.11 8.9864 123.709C9.212 123.308 9.3248 122.844 9.3248 122.318C9.3248 121.779 9.212 121.315 8.9864 120.927C8.7608 120.526 8.4412 120.219 8.0276 120.006C7.614 119.793 7.1252 119.686 6.5612 119.686H3.4028V124.95ZM17.954 132.226C16.9764 132.226 16.1053 131.994 15.3408 131.53C14.5763 131.066 13.9747 130.433 13.536 129.631C13.0973 128.817 12.878 127.908 12.878 126.905C12.878 125.89 13.0911 124.988 13.5172 124.198C13.9559 123.408 14.5449 122.788 15.2844 122.337C16.0364 121.873 16.8761 121.641 17.8036 121.641C18.5556 121.641 19.2199 121.779 19.7964 122.055C20.3855 122.318 20.8805 122.681 21.2816 123.145C21.6952 123.596 22.0085 124.117 22.2216 124.706C22.4472 125.282 22.56 125.884 22.56 126.51C22.56 126.648 22.5475 126.805 22.5224 126.98C22.5099 127.143 22.4911 127.3 22.466 127.45H14.1564V125.946H21.4508L20.6236 126.623C20.7364 125.971 20.6737 125.389 20.4356 124.875C20.1975 124.361 19.8465 123.954 19.3828 123.653C18.9191 123.352 18.3927 123.202 17.8036 123.202C17.2145 123.202 16.6756 123.352 16.1868 123.653C15.698 123.954 15.3157 124.386 15.04 124.95C14.7768 125.501 14.6703 126.159 14.7204 126.924C14.6703 127.663 14.7831 128.315 15.0588 128.879C15.3471 129.431 15.7481 129.863 16.262 130.176C16.7884 130.477 17.3587 130.628 17.9728 130.628C18.6496 130.628 19.2199 130.471 19.6836 130.158C20.1473 129.844 20.5233 129.443 20.8116 128.954L22.278 129.706C22.0775 130.17 21.7641 130.596 21.338 130.985C20.9244 131.361 20.4293 131.662 19.8528 131.887C19.2888 132.113 18.6559 132.226 17.954 132.226ZM25.0276 132V121.867H26.7384V123.728L26.5504 123.465C26.7886 122.888 27.152 122.462 27.6408 122.186C28.1296 121.898 28.725 121.754 29.4268 121.754H30.0472V123.408H29.1636C28.4492 123.408 27.8727 123.634 27.434 124.085C26.9954 124.524 26.776 125.151 26.776 125.965V132H25.0276ZM31.7883 132V121.867H33.4991V123.935L33.2547 123.615C33.5054 122.976 33.9064 122.487 34.4579 122.149C35.0094 121.81 35.6298 121.641 36.3191 121.641C37.1087 121.641 37.8168 121.861 38.4435 122.299C39.0827 122.738 39.5214 123.314 39.7595 124.029L39.2707 124.048C39.5339 123.258 39.9788 122.663 40.6055 122.262C41.2322 121.848 41.9278 121.641 42.6923 121.641C43.3942 121.641 44.0271 121.804 44.5911 122.13C45.1676 122.456 45.6251 122.907 45.9635 123.484C46.3019 124.06 46.4711 124.712 46.4711 125.439V132H44.7039V126.003C44.7039 125.439 44.6036 124.963 44.4031 124.574C44.2026 124.185 43.9268 123.885 43.5759 123.672C43.2375 123.446 42.8364 123.333 42.3727 123.333C41.9215 123.333 41.5142 123.446 41.1507 123.672C40.7998 123.885 40.5178 124.192 40.3047 124.593C40.1042 124.981 40.0039 125.451 40.0039 126.003V132H38.2367V126.003C38.2367 125.439 38.1364 124.963 37.9359 124.574C37.7354 124.185 37.4596 123.885 37.1087 123.672C36.7703 123.446 36.3692 123.333 35.9055 123.333C35.4543 123.333 35.047 123.446 34.6835 123.672C34.3326 123.885 34.0506 124.192 33.8375 124.593C33.637 124.981 33.5367 125.451 33.5367 126.003V132H31.7883ZM49.1423 132V121.867H50.8907V132H49.1423ZM49.1423 120.25V117.994H50.8907V120.25H49.1423ZM53.7916 132V121.867H55.5024V123.841L55.2204 123.672C55.4711 123.032 55.8722 122.537 56.4236 122.186C56.9876 121.823 57.6456 121.641 58.3976 121.641C59.1246 121.641 59.77 121.804 60.334 122.13C60.9106 122.456 61.3618 122.907 61.6876 123.484C62.026 124.06 62.1952 124.712 62.1952 125.439V132H60.428V126.003C60.428 125.439 60.3278 124.963 60.1272 124.574C59.9267 124.185 59.6384 123.885 59.2624 123.672C58.899 123.446 58.4791 123.333 58.0028 123.333C57.5266 123.333 57.1004 123.446 56.7244 123.672C56.361 123.885 56.0727 124.192 55.8596 124.593C55.6466 124.981 55.54 125.451 55.54 126.003V132H53.7916ZM69.0023 132.113C68.0122 132.113 67.2476 131.831 66.7087 131.267C66.1823 130.703 65.9191 129.907 65.9191 128.879V123.54H64.0767V121.867H64.4527C64.9039 121.867 65.2611 121.729 65.5243 121.453C65.7875 121.177 65.9191 120.814 65.9191 120.363V119.536H67.6675V121.867H69.9423V123.54H67.6675V128.823C67.6675 129.161 67.7176 129.456 67.8179 129.706C67.9307 129.957 68.1124 130.158 68.3631 130.308C68.6138 130.446 68.9459 130.515 69.3595 130.515C69.4472 130.515 69.5538 130.509 69.6791 130.496C69.817 130.483 69.9423 130.471 70.0551 130.458V132C69.8922 132.038 69.7104 132.063 69.5099 132.075C69.3094 132.1 69.1402 132.113 69.0023 132.113ZM75.3689 132.226C74.7046 132.226 74.1156 132.107 73.6017 131.868C73.1004 131.618 72.7056 131.279 72.4173 130.853C72.129 130.415 71.9849 129.913 71.9849 129.349C71.9849 128.81 72.0977 128.328 72.3233 127.902C72.5614 127.463 72.9249 127.093 73.4137 126.792C73.915 126.492 74.5417 126.279 75.2937 126.153L79.0537 125.533V126.999L75.6885 127.563C75.0368 127.676 74.5605 127.883 74.2597 128.184C73.9714 128.484 73.8273 128.854 73.8273 129.293C73.8273 129.706 73.9902 130.051 74.3161 130.327C74.6545 130.603 75.0744 130.74 75.5757 130.74C76.2149 130.74 76.7664 130.609 77.2301 130.346C77.7064 130.07 78.0761 129.7 78.3393 129.236C78.615 128.773 78.7529 128.259 78.7529 127.695V125.119C78.7529 124.568 78.5461 124.123 78.1325 123.784C77.7314 123.433 77.1988 123.258 76.5345 123.258C75.958 123.258 75.4441 123.408 74.9929 123.709C74.5542 123.997 74.2284 124.386 74.0153 124.875L72.4925 124.085C72.6805 123.621 72.9813 123.208 73.3949 122.844C73.8085 122.468 74.291 122.174 74.8425 121.961C75.394 121.748 75.9705 121.641 76.5721 121.641C77.3492 121.641 78.0322 121.792 78.6213 122.092C79.2104 122.381 79.6678 122.788 79.9937 123.314C80.3321 123.828 80.5013 124.43 80.5013 125.119V132H78.7905V130.082L79.1101 130.195C78.897 130.596 78.6088 130.947 78.2453 131.248C77.8818 131.549 77.4557 131.787 76.9669 131.962C76.4781 132.138 75.9454 132.226 75.3689 132.226ZM86.3706 132.226C85.7063 132.226 85.1172 132.107 84.6034 131.868C84.102 131.618 83.7072 131.279 83.419 130.853C83.1307 130.415 82.9866 129.913 82.9866 129.349C82.9866 128.81 83.0994 128.328 83.325 127.902C83.5631 127.463 83.9266 127.093 84.4154 126.792C84.9167 126.492 85.5434 126.279 86.2954 126.153L90.0554 125.533V126.999L86.6902 127.563C86.0384 127.676 85.5622 127.883 85.2614 128.184C84.9731 128.484 84.829 128.854 84.829 129.293C84.829 129.706 84.9919 130.051 85.3178 130.327C85.6562 130.603 86.076 130.74 86.5774 130.74C87.2166 130.74 87.768 130.609 88.2318 130.346C88.708 130.07 89.0778 129.7 89.341 129.236C89.6167 128.773 89.7546 128.259 89.7546 127.695V125.119C89.7546 124.568 89.5478 124.123 89.1342 123.784C88.7331 123.433 88.2004 123.258 87.5362 123.258C86.9596 123.258 86.4458 123.408 85.9946 123.709C85.5559 123.997 85.23 124.386 85.017 124.875L83.4942 124.085C83.6822 123.621 83.983 123.208 84.3966 122.844C84.8102 122.468 85.2927 122.174 85.8442 121.961C86.3956 121.748 86.9722 121.641 87.5738 121.641C88.3508 121.641 89.0339 121.792 89.623 122.092C90.212 122.381 90.6695 122.788 90.9954 123.314C91.3338 123.828 91.503 124.43 91.503 125.119V132H89.7922V130.082L90.1118 130.195C89.8987 130.596 89.6104 130.947 89.247 131.248C88.8835 131.549 88.4574 131.787 87.9686 131.962C87.4798 132.138 86.9471 132.226 86.3706 132.226ZM94.4018 132V121.867H96.1126V123.841L95.8306 123.672C96.0813 123.032 96.4824 122.537 97.0338 122.186C97.5978 121.823 98.2558 121.641 99.0078 121.641C99.7348 121.641 100.38 121.804 100.944 122.13C101.521 122.456 101.972 122.907 102.298 123.484C102.636 124.06 102.805 124.712 102.805 125.439V132H101.038V126.003C101.038 125.439 100.938 124.963 100.737 124.574C100.537 124.185 100.249 123.885 99.8726 123.672C99.5092 123.446 99.0893 123.333 98.613 123.333C98.1368 123.333 97.7106 123.446 97.3346 123.672C96.9712 123.885 96.6829 124.192 96.4698 124.593C96.2568 124.981 96.1502 125.451 96.1502 126.003V132H94.4018Z" fill="#2C3E51"/>
<path d="M281.636 98.2256C280.621 98.2256 279.719 98.0125 278.929 97.5864C278.152 97.1603 277.544 96.5775 277.106 95.838C276.679 95.086 276.466 94.2337 276.466 93.2812V83.994H278.328V93.2436C278.328 93.8828 278.465 94.4531 278.741 94.9544C279.029 95.4432 279.418 95.8255 279.907 96.1012C280.408 96.3769 280.985 96.5148 281.636 96.5148C282.288 96.5148 282.858 96.3769 283.347 96.1012C283.849 95.8255 284.237 95.4432 284.513 94.9544C284.801 94.4531 284.945 93.8828 284.945 93.2436V83.994H286.806V93.2812C286.806 94.2337 286.587 95.086 286.148 95.838C285.722 96.5775 285.121 97.1603 284.344 97.5864C283.567 98.0125 282.664 98.2256 281.636 98.2256ZM289.815 98V87.8668H291.526V89.8408L291.244 89.6716C291.495 89.0324 291.896 88.5373 292.447 88.1864C293.011 87.8229 293.669 87.6412 294.421 87.6412C295.148 87.6412 295.794 87.8041 296.358 88.13C296.934 88.4559 297.386 88.9071 297.711 89.4836C298.05 90.0601 298.219 90.7119 298.219 91.4388V98H296.452V92.0028C296.452 91.4388 296.352 90.9625 296.151 90.574C295.95 90.1855 295.662 89.8847 295.286 89.6716C294.923 89.446 294.503 89.3332 294.027 89.3332C293.55 89.3332 293.124 89.446 292.748 89.6716C292.385 89.8847 292.096 90.1917 291.883 90.5928C291.67 90.9813 291.564 91.4513 291.564 92.0028V98H289.815ZM305.74 102.136C305.026 102.136 304.362 102.023 303.748 101.798C303.146 101.572 302.626 101.259 302.187 100.858C301.761 100.469 301.435 100.012 301.21 99.4852L302.845 98.7332C303.021 99.2095 303.353 99.6105 303.842 99.9364C304.343 100.275 304.97 100.444 305.722 100.444C306.298 100.444 306.818 100.331 307.282 100.106C307.758 99.8925 308.134 99.5667 308.41 99.128C308.686 98.7019 308.824 98.1817 308.824 97.5676V95.2928L309.143 95.6312C308.792 96.3205 308.285 96.8469 307.62 97.2104C306.969 97.5739 306.248 97.7556 305.458 97.7556C304.506 97.7556 303.654 97.5363 302.902 97.0976C302.15 96.6464 301.561 96.0385 301.134 95.274C300.708 94.4969 300.495 93.6384 300.495 92.6984C300.495 91.7459 300.708 90.8873 301.134 90.1228C301.561 89.3583 302.143 88.7567 302.883 88.318C303.635 87.8668 304.487 87.6412 305.44 87.6412C306.229 87.6412 306.944 87.8229 307.583 88.1864C308.235 88.5373 308.755 89.0261 309.143 89.6528L308.88 90.1228V87.8668H310.591V97.5676C310.591 98.4449 310.384 99.2283 309.97 99.9176C309.557 100.607 308.98 101.146 308.241 101.534C307.514 101.935 306.68 102.136 305.74 102.136ZM305.609 96.0636C306.21 96.0636 306.749 95.9132 307.226 95.6124C307.714 95.3116 308.103 94.9105 308.391 94.4092C308.68 93.8953 308.824 93.3251 308.824 92.6984C308.824 92.0843 308.68 91.5203 308.391 91.0064C308.103 90.4925 307.714 90.0852 307.226 89.7844C306.749 89.4836 306.21 89.3332 305.609 89.3332C304.995 89.3332 304.437 89.4836 303.936 89.7844C303.434 90.0852 303.04 90.4925 302.751 91.0064C302.476 91.5077 302.338 92.0717 302.338 92.6984C302.338 93.3251 302.476 93.8953 302.751 94.4092C303.04 94.9105 303.428 95.3116 303.917 95.6124C304.418 95.9132 304.982 96.0636 305.609 96.0636ZM318.321 102.136C317.607 102.136 316.942 102.023 316.328 101.798C315.727 101.572 315.207 101.259 314.768 100.858C314.342 100.469 314.016 100.012 313.79 99.4852L315.426 98.7332C315.601 99.2095 315.933 99.6105 316.422 99.9364C316.924 100.275 317.55 100.444 318.302 100.444C318.879 100.444 319.399 100.331 319.863 100.106C320.339 99.8925 320.715 99.5667 320.991 99.128C321.266 98.7019 321.404 98.1817 321.404 97.5676V95.2928L321.724 95.6312C321.373 96.3205 320.865 96.8469 320.201 97.2104C319.549 97.5739 318.829 97.7556 318.039 97.7556C317.087 97.7556 316.234 97.5363 315.482 97.0976C314.73 96.6464 314.141 96.0385 313.715 95.274C313.289 94.4969 313.076 93.6384 313.076 92.6984C313.076 91.7459 313.289 90.8873 313.715 90.1228C314.141 89.3583 314.724 88.7567 315.463 88.318C316.215 87.8668 317.068 87.6412 318.02 87.6412C318.81 87.6412 319.524 87.8229 320.163 88.1864C320.815 88.5373 321.335 89.0261 321.724 89.6528L321.461 90.1228V87.8668H323.171V97.5676C323.171 98.4449 322.965 99.2283 322.551 99.9176C322.137 100.607 321.561 101.146 320.821 101.534C320.095 101.935 319.261 102.136 318.321 102.136ZM318.189 96.0636C318.791 96.0636 319.33 95.9132 319.806 95.6124C320.295 95.3116 320.684 94.9105 320.972 94.4092C321.26 93.8953 321.404 93.3251 321.404 92.6984C321.404 92.0843 321.26 91.5203 320.972 91.0064C320.684 90.4925 320.295 90.0852 319.806 89.7844C319.33 89.4836 318.791 89.3332 318.189 89.3332C317.575 89.3332 317.018 89.4836 316.516 89.7844C316.015 90.0852 315.62 90.4925 315.332 91.0064C315.056 91.5077 314.918 92.0717 314.918 92.6984C314.918 93.3251 315.056 93.8953 315.332 94.4092C315.62 94.9105 316.009 95.3116 316.497 95.6124C316.999 95.9132 317.563 96.0636 318.189 96.0636ZM329.04 98.2256C328.376 98.2256 327.787 98.1065 327.273 97.8684C326.772 97.6177 326.377 97.2793 326.089 96.8532C325.801 96.4145 325.656 95.9132 325.656 95.3492C325.656 94.8103 325.769 94.3277 325.995 93.9016C326.233 93.4629 326.596 93.0932 327.085 92.7924C327.587 92.4916 328.213 92.2785 328.965 92.1532L332.725 91.5328V92.9992L329.36 93.5632C328.708 93.676 328.232 93.8828 327.931 94.1836C327.643 94.4844 327.499 94.8541 327.499 95.2928C327.499 95.7064 327.662 96.0511 327.988 96.3268C328.326 96.6025 328.746 96.7404 329.247 96.7404C329.886 96.7404 330.438 96.6088 330.902 96.3456C331.378 96.0699 331.748 95.7001 332.011 95.2364C332.287 94.7727 332.424 94.2588 332.424 93.6948V91.1192C332.424 90.5677 332.218 90.1228 331.804 89.7844C331.403 89.4335 330.87 89.258 330.206 89.258C329.63 89.258 329.116 89.4084 328.664 89.7092C328.226 89.9975 327.9 90.386 327.687 90.8748L326.164 90.0852C326.352 89.6215 326.653 89.2079 327.066 88.8444C327.48 88.4684 327.963 88.1739 328.514 87.9608C329.066 87.7477 329.642 87.6412 330.244 87.6412C331.021 87.6412 331.704 87.7916 332.293 88.0924C332.882 88.3807 333.339 88.788 333.665 89.3144C334.004 89.8283 334.173 90.4299 334.173 91.1192V98H332.462V96.0824L332.782 96.1952C332.569 96.5963 332.28 96.9472 331.917 97.248C331.553 97.5488 331.127 97.7869 330.638 97.9624C330.15 98.1379 329.617 98.2256 329.04 98.2256ZM337.072 98V83.7684H338.82V89.8408L338.501 89.6716C338.751 89.0324 339.152 88.5373 339.704 88.1864C340.268 87.8229 340.926 87.6412 341.678 87.6412C342.405 87.6412 343.05 87.8041 343.614 88.13C344.191 88.4559 344.642 88.9071 344.968 89.4836C345.306 90.0601 345.475 90.7119 345.475 91.4388V98H343.708V92.0028C343.708 91.4388 343.602 90.9625 343.389 90.574C343.188 90.1855 342.906 89.8847 342.543 89.6716C342.179 89.446 341.759 89.3332 341.283 89.3332C340.819 89.3332 340.399 89.446 340.023 89.6716C339.647 89.8847 339.353 90.1917 339.14 90.5928C338.927 90.9813 338.82 91.4513 338.82 92.0028V98H337.072ZM276.56 132V117.994H281.148C282.564 117.994 283.798 118.282 284.851 118.859C285.904 119.435 286.719 120.25 287.295 121.303C287.872 122.343 288.16 123.571 288.16 124.988C288.16 126.391 287.872 127.62 287.295 128.672C286.719 129.725 285.904 130.546 284.851 131.135C283.798 131.712 282.564 132 281.148 132H276.56ZM278.403 130.308H281.166C282.207 130.308 283.103 130.089 283.855 129.65C284.619 129.211 285.208 128.597 285.622 127.808C286.036 127.005 286.242 126.065 286.242 124.988C286.242 123.897 286.029 122.957 285.603 122.168C285.19 121.378 284.601 120.77 283.836 120.344C283.084 119.905 282.194 119.686 281.166 119.686H278.403V130.308ZM295.289 132.226C294.312 132.226 293.428 132 292.638 131.549C291.849 131.085 291.222 130.452 290.758 129.65C290.295 128.848 290.063 127.939 290.063 126.924C290.063 125.909 290.288 125.006 290.74 124.217C291.203 123.427 291.83 122.801 292.62 122.337C293.409 121.873 294.299 121.641 295.289 121.641C296.267 121.641 297.15 121.873 297.94 122.337C298.73 122.788 299.35 123.408 299.801 124.198C300.265 124.988 300.497 125.896 300.497 126.924C300.497 127.952 300.259 128.867 299.782 129.669C299.306 130.458 298.673 131.085 297.884 131.549C297.106 132 296.242 132.226 295.289 132.226ZM295.289 130.534C295.916 130.534 296.48 130.377 296.981 130.064C297.495 129.75 297.896 129.318 298.184 128.766C298.485 128.215 298.636 127.601 298.636 126.924C298.636 126.235 298.485 125.627 298.184 125.1C297.896 124.561 297.495 124.135 296.981 123.822C296.48 123.496 295.916 123.333 295.289 123.333C294.65 123.333 294.073 123.496 293.56 123.822C293.058 124.135 292.657 124.561 292.356 125.1C292.056 125.627 291.905 126.235 291.905 126.924C291.905 127.601 292.056 128.215 292.356 128.766C292.657 129.318 293.058 129.75 293.56 130.064C294.073 130.377 294.65 130.534 295.289 130.534ZM302.965 132V117.768H304.714V127.526L303.999 127.356L309.376 121.867H311.613L307.722 125.946L311.876 132H309.808L306.011 126.51L307.101 126.454L304.15 129.537L304.714 128.259V132H302.965ZM317.227 132.226C316.5 132.226 315.842 132.056 315.253 131.718C314.677 131.38 314.225 130.91 313.9 130.308C313.586 129.694 313.43 128.992 313.43 128.202V121.867H315.178V128.014C315.178 128.516 315.278 128.954 315.479 129.33C315.692 129.706 315.98 130.001 316.344 130.214C316.72 130.427 317.146 130.534 317.622 130.534C318.098 130.534 318.518 130.427 318.882 130.214C319.258 130.001 319.546 129.694 319.746 129.293C319.959 128.892 320.066 128.415 320.066 127.864V121.867H321.833V132H320.122V130.026L320.404 130.195C320.166 130.834 319.759 131.336 319.182 131.699C318.618 132.05 317.967 132.226 317.227 132.226ZM324.73 132V121.867H326.441V123.935L326.196 123.615C326.447 122.976 326.848 122.487 327.399 122.149C327.951 121.81 328.571 121.641 329.261 121.641C330.05 121.641 330.758 121.861 331.385 122.299C332.024 122.738 332.463 123.314 332.701 124.029L332.212 124.048C332.475 123.258 332.92 122.663 333.547 122.262C334.174 121.848 334.869 121.641 335.634 121.641C336.336 121.641 336.969 121.804 337.533 122.13C338.109 122.456 338.567 122.907 338.905 123.484C339.243 124.06 339.413 124.712 339.413 125.439V132H337.645V126.003C337.645 125.439 337.545 124.963 337.345 124.574C337.144 124.185 336.868 123.885 336.517 123.672C336.179 123.446 335.778 123.333 335.314 123.333C334.863 123.333 334.456 123.446 334.092 123.672C333.741 123.885 333.459 124.192 333.246 124.593C333.046 124.981 332.945 125.451 332.945 126.003V132H331.178V126.003C331.178 125.439 331.078 124.963 330.877 124.574C330.677 124.185 330.401 123.885 330.05 123.672C329.712 123.446 329.311 123.333 328.847 123.333C328.396 123.333 327.988 123.446 327.625 123.672C327.274 123.885 326.992 124.192 326.779 124.593C326.578 124.981 326.478 125.451 326.478 126.003V132H324.73ZM346.746 132.226C345.769 132.226 344.898 131.994 344.133 131.53C343.368 131.066 342.767 130.433 342.328 129.631C341.89 128.817 341.67 127.908 341.67 126.905C341.67 125.89 341.883 124.988 342.309 124.198C342.748 123.408 343.337 122.788 344.077 122.337C344.829 121.873 345.668 121.641 346.596 121.641C347.348 121.641 348.012 121.779 348.589 122.055C349.178 122.318 349.673 122.681 350.074 123.145C350.487 123.596 350.801 124.117 351.014 124.706C351.239 125.282 351.352 125.884 351.352 126.51C351.352 126.648 351.34 126.805 351.315 126.98C351.302 127.143 351.283 127.3 351.258 127.45H342.949V125.946H350.243L349.416 126.623C349.529 125.971 349.466 125.389 349.228 124.875C348.99 124.361 348.639 123.954 348.175 123.653C347.711 123.352 347.185 123.202 346.596 123.202C346.007 123.202 345.468 123.352 344.979 123.653C344.49 123.954 344.108 124.386 343.832 124.95C343.569 125.501 343.462 126.159 343.513 126.924C343.462 127.663 343.575 128.315 343.851 128.879C344.139 129.431 344.54 129.863 345.054 130.176C345.581 130.477 346.151 130.628 346.765 130.628C347.442 130.628 348.012 130.471 348.476 130.158C348.94 129.844 349.316 129.443 349.604 128.954L351.07 129.706C350.87 130.17 350.556 130.596 350.13 130.985C349.717 131.361 349.222 131.662 348.645 131.887C348.081 132.113 347.448 132.226 346.746 132.226ZM353.82 132V121.867H355.531V123.841L355.249 123.672C355.499 123.032 355.9 122.537 356.452 122.186C357.016 121.823 357.674 121.641 358.426 121.641C359.153 121.641 359.798 121.804 360.362 122.13C360.939 122.456 361.39 122.907 361.716 123.484C362.054 124.06 362.223 124.712 362.223 125.439V132H360.456V126.003C360.456 125.439 360.356 124.963 360.155 124.574C359.955 124.185 359.667 123.885 359.291 123.672C358.927 123.446 358.507 123.333 358.031 123.333C357.555 123.333 357.129 123.446 356.753 123.672C356.389 123.885 356.101 124.192 355.888 124.593C355.675 124.981 355.568 125.451 355.568 126.003V132H353.82ZM368.558 132V117.994H373.502C374.43 117.994 375.244 118.169 375.946 118.52C376.648 118.871 377.193 119.373 377.582 120.024C377.983 120.676 378.183 121.441 378.183 122.318C378.183 123.195 377.983 123.96 377.582 124.612C377.193 125.251 376.648 125.752 375.946 126.116C375.257 126.467 374.442 126.642 373.502 126.642H370.4V132H368.558ZM370.4 124.95H373.559C374.123 124.95 374.611 124.843 375.025 124.63C375.439 124.417 375.758 124.11 375.984 123.709C376.209 123.308 376.322 122.844 376.322 122.318C376.322 121.779 376.209 121.315 375.984 120.927C375.758 120.526 375.439 120.219 375.025 120.006C374.611 119.793 374.123 119.686 373.559 119.686H370.4V124.95ZM384.951 132.226C383.974 132.226 383.103 131.994 382.338 131.53C381.574 131.066 380.972 130.433 380.533 129.631C380.095 128.817 379.875 127.908 379.875 126.905C379.875 125.89 380.088 124.988 380.515 124.198C380.953 123.408 381.542 122.788 382.282 122.337C383.034 121.873 383.873 121.641 384.801 121.641C385.553 121.641 386.217 121.779 386.794 122.055C387.383 122.318 387.878 122.681 388.279 123.145C388.693 123.596 389.006 124.117 389.219 124.706C389.445 125.282 389.557 125.884 389.557 126.51C389.557 126.648 389.545 126.805 389.52 126.98C389.507 127.143 389.488 127.3 389.463 127.45H381.154V125.946H388.448L387.621 126.623C387.734 125.971 387.671 125.389 387.433 124.875C387.195 124.361 386.844 123.954 386.38 123.653C385.916 123.352 385.39 123.202 384.801 123.202C384.212 123.202 383.673 123.352 383.184 123.653C382.695 123.954 382.313 124.386 382.037 124.95C381.774 125.501 381.668 126.159 381.718 126.924C381.668 127.663 381.78 128.315 382.056 128.879C382.344 129.431 382.745 129.863 383.259 130.176C383.786 130.477 384.356 130.628 384.97 130.628C385.647 130.628 386.217 130.471 386.681 130.158C387.145 129.844 387.521 129.443 387.809 128.954L389.275 129.706C389.075 130.17 388.761 130.596 388.335 130.985C387.922 131.361 387.427 131.662 386.85 131.887C386.286 132.113 385.653 132.226 384.951 132.226ZM392.025 132V121.867H393.736V123.841L393.454 123.672C393.704 123.032 394.106 122.537 394.657 122.186C395.221 121.823 395.879 121.641 396.631 121.641C397.358 121.641 398.003 121.804 398.567 122.13C399.144 122.456 399.595 122.907 399.921 123.484C400.259 124.06 400.429 124.712 400.429 125.439V132H398.661V126.003C398.661 125.439 398.561 124.963 398.361 124.574C398.16 124.185 397.872 123.885 397.496 123.672C397.132 123.446 396.712 123.333 396.236 123.333C395.76 123.333 395.334 123.446 394.958 123.672C394.594 123.885 394.306 124.192 394.093 124.593C393.88 124.981 393.773 125.451 393.773 126.003V132H392.025ZM407.236 132.113C406.246 132.113 405.481 131.831 404.942 131.267C404.416 130.703 404.152 129.907 404.152 128.879V123.54H402.31V121.867H402.686C403.137 121.867 403.494 121.729 403.758 121.453C404.021 121.177 404.152 120.814 404.152 120.363V119.536H405.901V121.867H408.176V123.54H405.901V128.823C405.901 129.161 405.951 129.456 406.051 129.706C406.164 129.957 406.346 130.158 406.596 130.308C406.847 130.446 407.179 130.515 407.593 130.515C407.681 130.515 407.787 130.509 407.912 130.496C408.05 130.483 408.176 130.471 408.288 130.458V132C408.126 132.038 407.944 132.063 407.743 132.075C407.543 132.1 407.374 132.113 407.236 132.113ZM410.76 132V121.867H412.509V132H410.76ZM410.76 120.25V117.994H412.509V120.25H410.76ZM415.41 132V121.867H417.121V123.841L416.839 123.672C417.089 123.032 417.49 122.537 418.042 122.186C418.606 121.823 419.264 121.641 420.016 121.641C420.743 121.641 421.388 121.804 421.952 122.13C422.529 122.456 422.98 122.907 423.306 123.484C423.644 124.06 423.813 124.712 423.813 125.439V132H422.046V126.003C422.046 125.439 421.946 124.963 421.745 124.574C421.545 124.185 421.257 123.885 420.881 123.672C420.517 123.446 420.097 123.333 419.621 123.333C419.145 123.333 418.719 123.446 418.343 123.672C417.979 123.885 417.691 124.192 417.478 124.593C417.265 124.981 417.158 125.451 417.158 126.003V132H415.41ZM431.335 136.136C430.62 136.136 429.956 136.023 429.342 135.798C428.74 135.572 428.22 135.259 427.782 134.858C427.355 134.469 427.03 134.012 426.804 133.485L428.44 132.733C428.615 133.209 428.947 133.611 429.436 133.936C429.937 134.275 430.564 134.444 431.316 134.444C431.892 134.444 432.413 134.331 432.876 134.106C433.353 133.893 433.729 133.567 434.004 133.128C434.28 132.702 434.418 132.182 434.418 131.568V129.293L434.738 129.631C434.387 130.321 433.879 130.847 433.215 131.21C432.563 131.574 431.842 131.756 431.053 131.756C430.1 131.756 429.248 131.536 428.496 131.098C427.744 130.646 427.155 130.039 426.729 129.274C426.303 128.497 426.09 127.638 426.09 126.698C426.09 125.746 426.303 124.887 426.729 124.123C427.155 123.358 427.738 122.757 428.477 122.318C429.229 121.867 430.081 121.641 431.034 121.641C431.824 121.641 432.538 121.823 433.177 122.186C433.829 122.537 434.349 123.026 434.738 123.653L434.474 124.123V121.867H436.185V131.568C436.185 132.445 435.978 133.228 435.565 133.918C435.151 134.607 434.575 135.146 433.835 135.534C433.108 135.935 432.275 136.136 431.335 136.136ZM431.203 130.064C431.805 130.064 432.344 129.913 432.82 129.612C433.309 129.312 433.697 128.911 433.986 128.409C434.274 127.895 434.418 127.325 434.418 126.698C434.418 126.084 434.274 125.52 433.986 125.006C433.697 124.493 433.309 124.085 432.82 123.784C432.344 123.484 431.805 123.333 431.203 123.333C430.589 123.333 430.031 123.484 429.53 123.784C429.029 124.085 428.634 124.493 428.346 125.006C428.07 125.508 427.932 126.072 427.932 126.698C427.932 127.325 428.07 127.895 428.346 128.409C428.634 128.911 429.022 129.312 429.511 129.612C430.013 129.913 430.577 130.064 431.203 130.064Z" fill="#2C3E51"/>
<path d="M557.373 98.2256C556.483 98.2256 555.669 98.0627 554.929 97.7368C554.19 97.3984 553.563 96.9409 553.049 96.3644C552.535 95.7879 552.166 95.1424 551.94 94.428L553.538 93.77C553.876 94.6724 554.378 95.368 555.042 95.8568C555.719 96.3331 556.508 96.5712 557.411 96.5712C557.962 96.5712 558.445 96.4835 558.858 96.308C559.272 96.1325 559.592 95.8881 559.817 95.5748C560.055 95.2489 560.174 94.8729 560.174 94.4468C560.174 93.8577 560.005 93.394 559.667 93.0556C559.341 92.7047 558.858 92.4415 558.219 92.266L555.644 91.4764C554.628 91.1631 553.851 90.668 553.312 89.9912C552.773 89.3144 552.504 88.5373 552.504 87.66C552.504 86.8955 552.686 86.2249 553.049 85.6484C553.425 85.0593 553.939 84.6019 554.591 84.276C555.255 83.9376 556.007 83.7684 556.847 83.7684C557.687 83.7684 558.445 83.9188 559.122 84.2196C559.811 84.5204 560.394 84.9277 560.87 85.4416C561.346 85.9429 561.697 86.5195 561.923 87.1712L560.344 87.8292C560.043 87.0396 559.592 86.4443 558.99 86.0432C558.388 85.6296 557.68 85.4228 556.866 85.4228C556.364 85.4228 555.919 85.5105 555.531 85.686C555.155 85.8489 554.86 86.0933 554.647 86.4192C554.447 86.7325 554.346 87.1085 554.346 87.5472C554.346 88.0611 554.509 88.5185 554.835 88.9196C555.161 89.3207 555.656 89.6277 556.32 89.8408L558.67 90.5364C559.773 90.8748 560.607 91.3573 561.171 91.984C561.735 92.6107 562.017 93.3877 562.017 94.3152C562.017 95.0797 561.816 95.7565 561.415 96.3456C561.027 96.9347 560.481 97.3984 559.78 97.7368C559.09 98.0627 558.288 98.2256 557.373 98.2256ZM569.358 98.2256C568.38 98.2256 567.509 97.9937 566.745 97.53C565.98 97.0663 565.379 96.4333 564.94 95.6312C564.501 94.8165 564.282 93.9079 564.282 92.9052C564.282 91.89 564.495 90.9876 564.921 90.198C565.36 89.4084 565.949 88.788 566.688 88.3368C567.44 87.8731 568.28 87.6412 569.208 87.6412C569.96 87.6412 570.624 87.7791 571.2 88.0548C571.789 88.318 572.284 88.6815 572.686 89.1452C573.099 89.5964 573.412 90.1165 573.626 90.7056C573.851 91.2821 573.964 91.8837 573.964 92.5104C573.964 92.6483 573.951 92.8049 573.926 92.9804C573.914 93.1433 573.895 93.3 573.87 93.4504H565.56V91.9464H572.855L572.028 92.6232C572.14 91.9715 572.078 91.3887 571.84 90.8748C571.601 90.3609 571.25 89.9536 570.787 89.6528C570.323 89.352 569.797 89.2016 569.208 89.2016C568.618 89.2016 568.08 89.352 567.591 89.6528C567.102 89.9536 566.72 90.386 566.444 90.95C566.181 91.5015 566.074 92.1595 566.124 92.924C566.074 93.6635 566.187 94.3152 566.463 94.8792C566.751 95.4307 567.152 95.8631 567.666 96.1764C568.192 96.4772 568.763 96.6276 569.377 96.6276C570.054 96.6276 570.624 96.4709 571.088 96.1576C571.551 95.8443 571.927 95.4432 572.216 94.9544L573.682 95.7064C573.481 96.1701 573.168 96.5963 572.742 96.9848C572.328 97.3608 571.833 97.6616 571.257 97.8872C570.693 98.1128 570.06 98.2256 569.358 98.2256ZM576.432 98V83.7684H578.18V98H576.432ZM585.743 98.2256C584.766 98.2256 583.895 97.9937 583.13 97.53C582.366 97.0663 581.764 96.4333 581.325 95.6312C580.887 94.8165 580.667 93.9079 580.667 92.9052C580.667 91.89 580.88 90.9876 581.306 90.198C581.745 89.4084 582.334 88.788 583.074 88.3368C583.826 87.8731 584.665 87.6412 585.593 87.6412C586.345 87.6412 587.009 87.7791 587.586 88.0548C588.175 88.318 588.67 88.6815 589.071 89.1452C589.484 89.5964 589.798 90.1165 590.011 90.7056C590.236 91.2821 590.349 91.8837 590.349 92.5104C590.349 92.6483 590.337 92.8049 590.312 92.9804C590.299 93.1433 590.28 93.3 590.255 93.4504H581.946V91.9464H589.24L588.413 92.6232C588.526 91.9715 588.463 91.3887 588.225 90.8748C587.987 90.3609 587.636 89.9536 587.172 89.6528C586.708 89.352 586.182 89.2016 585.593 89.2016C585.004 89.2016 584.465 89.352 583.976 89.6528C583.487 89.9536 583.105 90.386 582.829 90.95C582.566 91.5015 582.46 92.1595 582.51 92.924C582.46 93.6635 582.572 94.3152 582.848 94.8792C583.136 95.4307 583.537 95.8631 584.051 96.1764C584.578 96.4772 585.148 96.6276 585.762 96.6276C586.439 96.6276 587.009 96.4709 587.473 96.1576C587.937 95.8443 588.313 95.4432 588.601 94.9544L590.067 95.7064C589.867 96.1701 589.553 96.5963 589.127 96.9848C588.714 97.3608 588.219 97.6616 587.642 97.8872C587.078 98.1128 586.445 98.2256 585.743 98.2256ZM596.445 98.2256C595.43 98.2256 594.547 97.9749 593.795 97.4736C593.043 96.9723 592.51 96.2955 592.197 95.4432L593.588 94.7664C593.876 95.368 594.271 95.8443 594.772 96.1952C595.273 96.5461 595.831 96.7216 596.445 96.7216C596.997 96.7216 597.454 96.59 597.818 96.3268C598.181 96.0636 598.363 95.7189 598.363 95.2928C598.363 94.992 598.275 94.7539 598.1 94.5784C597.937 94.3904 597.736 94.2463 597.498 94.146C597.26 94.0332 597.041 93.9517 596.84 93.9016L595.317 93.4692C594.402 93.206 593.732 92.83 593.306 92.3412C592.892 91.8524 592.685 91.2821 592.685 90.6304C592.685 90.0288 592.836 89.5087 593.137 89.07C593.45 88.6188 593.87 88.2679 594.396 88.0172C594.935 87.7665 595.537 87.6412 596.201 87.6412C597.091 87.6412 597.887 87.8668 598.589 88.318C599.303 88.7692 599.811 89.4021 600.111 90.2168L598.683 90.8748C598.457 90.3484 598.119 89.9348 597.667 89.634C597.216 89.3207 596.709 89.164 596.145 89.164C595.631 89.164 595.223 89.2956 594.923 89.5588C594.622 89.8095 594.471 90.1291 594.471 90.5176C594.471 90.8059 594.547 91.044 594.697 91.232C594.847 91.4075 595.029 91.5453 595.242 91.6456C595.455 91.7333 595.662 91.8085 595.863 91.8712L597.517 92.36C598.344 92.5981 598.983 92.9679 599.435 93.4692C599.898 93.9705 600.13 94.5721 600.13 95.274C600.13 95.838 599.973 96.3456 599.66 96.7968C599.347 97.248 598.914 97.5989 598.363 97.8496C597.811 98.1003 597.172 98.2256 596.445 98.2256ZM605.577 98.2256C604.913 98.2256 604.324 98.1065 603.81 97.8684C603.309 97.6177 602.914 97.2793 602.626 96.8532C602.337 96.4145 602.193 95.9132 602.193 95.3492C602.193 94.8103 602.306 94.3277 602.532 93.9016C602.77 93.4629 603.133 93.0932 603.622 92.7924C604.123 92.4916 604.75 92.2785 605.502 92.1532L609.262 91.5328V92.9992L605.897 93.5632C605.245 93.676 604.769 93.8828 604.468 94.1836C604.18 94.4844 604.036 94.8541 604.036 95.2928C604.036 95.7064 604.199 96.0511 604.524 96.3268C604.863 96.6025 605.283 96.7404 605.784 96.7404C606.423 96.7404 606.975 96.6088 607.438 96.3456C607.915 96.0699 608.284 95.7001 608.548 95.2364C608.823 94.7727 608.961 94.2588 608.961 93.6948V91.1192C608.961 90.5677 608.754 90.1228 608.341 89.7844C607.94 89.4335 607.407 89.258 606.743 89.258C606.166 89.258 605.652 89.4084 605.201 89.7092C604.763 89.9975 604.437 90.386 604.224 90.8748L602.701 90.0852C602.889 89.6215 603.19 89.2079 603.603 88.8444C604.017 88.4684 604.499 88.1739 605.051 87.9608C605.602 87.7477 606.179 87.6412 606.78 87.6412C607.558 87.6412 608.241 87.7916 608.83 88.0924C609.419 88.3807 609.876 88.788 610.202 89.3144C610.54 89.8283 610.71 90.4299 610.71 91.1192V98H608.999V96.0824L609.318 96.1952C609.105 96.5963 608.817 96.9472 608.454 97.248C608.09 97.5488 607.664 97.7869 607.175 97.9624C606.686 98.1379 606.154 98.2256 605.577 98.2256ZM613.609 98V87.8668H615.357V98H613.609ZM613.609 86.25V83.994H615.357V86.25H613.609ZM618.258 98V83.7684H620.006V93.5256L619.292 93.3564L624.669 87.8668H626.906L623.014 91.9464L627.169 98H625.101L621.303 92.5104L622.394 92.454L619.442 95.5372L620.006 94.2588V98H618.258ZM631.899 98.2256C631.235 98.2256 630.646 98.1065 630.132 97.8684C629.631 97.6177 629.236 97.2793 628.948 96.8532C628.66 96.4145 628.515 95.9132 628.515 95.3492C628.515 94.8103 628.628 94.3277 628.854 93.9016C629.092 93.4629 629.455 93.0932 629.944 92.7924C630.446 92.4916 631.072 92.2785 631.824 92.1532L635.584 91.5328V92.9992L632.219 93.5632C631.567 93.676 631.091 93.8828 630.79 94.1836C630.502 94.4844 630.358 94.8541 630.358 95.2928C630.358 95.7064 630.521 96.0511 630.847 96.3268C631.185 96.6025 631.605 96.7404 632.106 96.7404C632.745 96.7404 633.297 96.6088 633.761 96.3456C634.237 96.0699 634.607 95.7001 634.87 95.2364C635.146 94.7727 635.283 94.2588 635.283 93.6948V91.1192C635.283 90.5677 635.077 90.1228 634.663 89.7844C634.262 89.4335 633.729 89.258 633.065 89.258C632.489 89.258 631.975 89.4084 631.523 89.7092C631.085 89.9975 630.759 90.386 630.546 90.8748L629.023 90.0852C629.211 89.6215 629.512 89.2079 629.925 88.8444C630.339 88.4684 630.822 88.1739 631.373 87.9608C631.925 87.7477 632.501 87.6412 633.103 87.6412C633.88 87.6412 634.563 87.7916 635.152 88.0924C635.741 88.3807 636.198 88.788 636.524 89.3144C636.863 89.8283 637.032 90.4299 637.032 91.1192V98H635.321V96.0824L635.641 96.1952C635.428 96.5963 635.139 96.9472 634.776 97.248C634.412 97.5488 633.986 97.7869 633.497 97.9624C633.009 98.1379 632.476 98.2256 631.899 98.2256ZM639.931 98V87.8668H641.642V89.8408L641.36 89.6716C641.61 89.0324 642.011 88.5373 642.563 88.1864C643.127 87.8229 643.785 87.6412 644.537 87.6412C645.264 87.6412 645.909 87.8041 646.473 88.13C647.05 88.4559 647.501 88.9071 647.827 89.4836C648.165 90.0601 648.334 90.7119 648.334 91.4388V98H646.567V92.0028C646.567 91.4388 646.467 90.9625 646.266 90.574C646.066 90.1855 645.778 89.8847 645.402 89.6716C645.038 89.446 644.618 89.3332 644.142 89.3332C643.666 89.3332 643.24 89.446 642.864 89.6716C642.5 89.8847 642.212 90.1917 641.999 90.5928C641.786 90.9813 641.679 91.4513 641.679 92.0028V98H639.931ZM552.56 132V117.994H557.505C558.432 117.994 559.247 118.169 559.949 118.52C560.651 118.871 561.196 119.373 561.584 120.024C561.985 120.676 562.186 121.441 562.186 122.318C562.186 123.195 561.985 123.96 561.584 124.612C561.196 125.251 560.651 125.752 559.949 126.116C559.259 126.467 558.445 126.642 557.505 126.642H554.403V132H552.56ZM554.403 124.95H557.561C558.125 124.95 558.614 124.843 559.028 124.63C559.441 124.417 559.761 124.11 559.986 123.709C560.212 123.308 560.325 122.844 560.325 122.318C560.325 121.779 560.212 121.315 559.986 120.927C559.761 120.526 559.441 120.219 559.028 120.006C558.614 119.793 558.125 119.686 557.561 119.686H554.403V124.95ZM568.954 132.226C567.976 132.226 567.105 131.994 566.341 131.53C565.576 131.066 564.975 130.433 564.536 129.631C564.097 128.817 563.878 127.908 563.878 126.905C563.878 125.89 564.091 124.988 564.517 124.198C564.956 123.408 565.545 122.788 566.284 122.337C567.036 121.873 567.876 121.641 568.804 121.641C569.556 121.641 570.22 121.779 570.796 122.055C571.385 122.318 571.881 122.681 572.282 123.145C572.695 123.596 573.009 124.117 573.222 124.706C573.447 125.282 573.56 125.884 573.56 126.51C573.56 126.648 573.547 126.805 573.522 126.98C573.51 127.143 573.491 127.3 573.466 127.45H565.156V125.946H572.451L571.624 126.623C571.736 125.971 571.674 125.389 571.436 124.875C571.197 124.361 570.847 123.954 570.383 123.653C569.919 123.352 569.393 123.202 568.804 123.202C568.215 123.202 567.676 123.352 567.187 123.653C566.698 123.954 566.316 124.386 566.04 124.95C565.777 125.501 565.67 126.159 565.72 126.924C565.67 127.663 565.783 128.315 566.059 128.879C566.347 129.431 566.748 129.863 567.262 130.176C567.788 130.477 568.359 130.628 568.973 130.628C569.65 130.628 570.22 130.471 570.684 130.158C571.147 129.844 571.523 129.443 571.812 128.954L573.278 129.706C573.077 130.17 572.764 130.596 572.338 130.985C571.924 131.361 571.429 131.662 570.853 131.887C570.289 132.113 569.656 132.226 568.954 132.226ZM576.028 132V121.867H577.738V123.935L577.494 123.615C577.745 122.976 578.146 122.487 578.697 122.149C579.249 121.81 579.869 121.641 580.558 121.641C581.348 121.641 582.056 121.861 582.683 122.299C583.322 122.738 583.761 123.314 583.999 124.029L583.51 124.048C583.773 123.258 584.218 122.663 584.845 122.262C585.472 121.848 586.167 121.641 586.932 121.641C587.634 121.641 588.266 121.804 588.83 122.13C589.407 122.456 589.864 122.907 590.203 123.484C590.541 124.06 590.71 124.712 590.71 125.439V132H588.943V126.003C588.943 125.439 588.843 124.963 588.642 124.574C588.442 124.185 588.166 123.885 587.815 123.672C587.477 123.446 587.076 123.333 586.612 123.333C586.161 123.333 585.754 123.446 585.39 123.672C585.039 123.885 584.757 124.192 584.544 124.593C584.344 124.981 584.243 125.451 584.243 126.003V132H582.476V126.003C582.476 125.439 582.376 124.963 582.175 124.574C581.975 124.185 581.699 123.885 581.348 123.672C581.01 123.446 580.609 123.333 580.145 123.333C579.694 123.333 579.286 123.446 578.923 123.672C578.572 123.885 578.29 124.192 578.077 124.593C577.876 124.981 577.776 125.451 577.776 126.003V132H576.028ZM598.627 132.226C597.812 132.226 597.066 132.044 596.39 131.68C595.725 131.317 595.212 130.803 594.848 130.139L595.092 129.838V132H593.382V117.768H595.13V124.048L594.867 123.615C595.243 123.014 595.757 122.537 596.408 122.186C597.06 121.823 597.806 121.641 598.646 121.641C599.598 121.641 600.45 121.873 601.202 122.337C601.967 122.801 602.569 123.433 603.007 124.236C603.446 125.025 603.665 125.928 603.665 126.943C603.665 127.933 603.446 128.829 603.007 129.631C602.569 130.433 601.967 131.066 601.202 131.53C600.45 131.994 599.592 132.226 598.627 132.226ZM598.495 130.534C599.134 130.534 599.705 130.377 600.206 130.064C600.707 129.75 601.096 129.324 601.372 128.785C601.66 128.234 601.804 127.62 601.804 126.943C601.804 126.241 601.66 125.627 601.372 125.1C601.096 124.561 600.707 124.135 600.206 123.822C599.705 123.496 599.134 123.333 598.495 123.333C597.856 123.333 597.28 123.49 596.766 123.803C596.264 124.117 595.863 124.549 595.562 125.1C595.274 125.639 595.13 126.253 595.13 126.943C595.13 127.62 595.274 128.234 595.562 128.785C595.863 129.324 596.264 129.75 596.766 130.064C597.28 130.377 597.856 130.534 598.495 130.534ZM609.116 132.226C608.452 132.226 607.863 132.107 607.349 131.868C606.848 131.618 606.453 131.279 606.165 130.853C605.876 130.415 605.732 129.913 605.732 129.349C605.732 128.81 605.845 128.328 606.071 127.902C606.309 127.463 606.672 127.093 607.161 126.792C607.662 126.492 608.289 126.279 609.041 126.153L612.801 125.533V126.999L609.436 127.563C608.784 127.676 608.308 127.883 608.007 128.184C607.719 128.484 607.575 128.854 607.575 129.293C607.575 129.706 607.738 130.051 608.063 130.327C608.402 130.603 608.822 130.74 609.323 130.74C609.962 130.74 610.514 130.609 610.977 130.346C611.454 130.07 611.823 129.7 612.087 129.236C612.362 128.773 612.5 128.259 612.5 127.695V125.119C612.5 124.568 612.293 124.123 611.88 123.784C611.479 123.433 610.946 123.258 610.282 123.258C609.705 123.258 609.191 123.408 608.74 123.709C608.302 123.997 607.976 124.386 607.763 124.875L606.24 124.085C606.428 123.621 606.729 123.208 607.142 122.844C607.556 122.468 608.038 122.174 608.59 121.961C609.141 121.748 609.718 121.641 610.319 121.641C611.096 121.641 611.78 121.792 612.369 122.092C612.958 122.381 613.415 122.788 613.741 123.314C614.079 123.828 614.249 124.43 614.249 125.119V132H612.538V130.082L612.857 130.195C612.644 130.596 612.356 130.947 611.993 131.248C611.629 131.549 611.203 131.787 610.714 131.962C610.225 132.138 609.693 132.226 609.116 132.226ZM617.693 136.136C617.467 136.136 617.242 136.117 617.016 136.08C616.79 136.042 616.577 135.979 616.377 135.892V134.331C616.515 134.356 616.684 134.381 616.884 134.406C617.097 134.444 617.304 134.463 617.505 134.463C618.094 134.463 618.539 134.331 618.84 134.068C619.153 133.817 619.447 133.379 619.723 132.752L620.362 131.229L620.325 132.752L616.001 121.867H617.9L621.265 130.515H620.701L624.047 121.867H625.984L621.415 133.203C621.202 133.742 620.926 134.231 620.588 134.67C620.262 135.121 619.861 135.478 619.385 135.741C618.908 136.004 618.344 136.136 617.693 136.136ZM630.33 132.226C629.666 132.226 629.077 132.107 628.563 131.868C628.062 131.618 627.667 131.279 627.379 130.853C627.09 130.415 626.946 129.913 626.946 129.349C626.946 128.81 627.059 128.328 627.285 127.902C627.523 127.463 627.886 127.093 628.375 126.792C628.876 126.492 629.503 126.279 630.255 126.153L634.015 125.533V126.999L630.65 127.563C629.998 127.676 629.522 127.883 629.221 128.184C628.933 128.484 628.789 128.854 628.789 129.293C628.789 129.706 628.951 130.051 629.277 130.327C629.616 130.603 630.036 130.74 630.537 130.74C631.176 130.74 631.728 130.609 632.191 130.346C632.668 130.07 633.037 129.7 633.301 129.236C633.576 128.773 633.714 128.259 633.714 127.695V125.119C633.714 124.568 633.507 124.123 633.094 123.784C632.693 123.433 632.16 123.258 631.496 123.258C630.919 123.258 630.405 123.408 629.954 123.709C629.515 123.997 629.19 124.386 628.977 124.875L627.454 124.085C627.642 123.621 627.943 123.208 628.356 122.844C628.77 122.468 629.252 122.174 629.804 121.961C630.355 121.748 630.932 121.641 631.533 121.641C632.31 121.641 632.993 121.792 633.583 122.092C634.172 122.381 634.629 122.788 634.955 123.314C635.293 123.828 635.463 124.43 635.463 125.119V132H633.752V130.082L634.071 130.195C633.858 130.596 633.57 130.947 633.207 131.248C632.843 131.549 632.417 131.787 631.928 131.962C631.439 132.138 630.907 132.226 630.33 132.226ZM638.361 132V121.867H640.072V123.728L639.884 123.465C640.122 122.888 640.486 122.462 640.975 122.186C641.463 121.898 642.059 121.754 642.761 121.754H643.381V123.408H642.497C641.783 123.408 641.206 123.634 640.768 124.085C640.329 124.524 640.11 125.151 640.11 125.965V132H638.361ZM648.092 132.226C647.428 132.226 646.839 132.107 646.325 131.868C645.824 131.618 645.429 131.279 645.141 130.853C644.853 130.415 644.708 129.913 644.708 129.349C644.708 128.81 644.821 128.328 645.047 127.902C645.285 127.463 645.648 127.093 646.137 126.792C646.639 126.492 647.265 126.279 648.017 126.153L651.777 125.533V126.999L648.412 127.563C647.76 127.676 647.284 127.883 646.983 128.184C646.695 128.484 646.551 128.854 646.551 129.293C646.551 129.706 646.714 130.051 647.04 130.327C647.378 130.603 647.798 130.74 648.299 130.74C648.938 130.74 649.49 130.609 649.954 130.346C650.43 130.07 650.8 129.7 651.063 129.236C651.339 128.773 651.476 128.259 651.476 127.695V125.119C651.476 124.568 651.27 124.123 650.856 123.784C650.455 123.433 649.922 123.258 649.258 123.258C648.682 123.258 648.168 123.408 647.716 123.709C647.278 123.997 646.952 124.386 646.739 124.875L645.216 124.085C645.404 123.621 645.705 123.208 646.118 122.844C646.532 122.468 647.015 122.174 647.566 121.961C648.118 121.748 648.694 121.641 649.296 121.641C650.073 121.641 650.756 121.792 651.345 122.092C651.934 122.381 652.391 122.788 652.717 123.314C653.056 123.828 653.225 124.43 653.225 125.119V132H651.514V130.082L651.834 130.195C651.621 130.596 651.332 130.947 650.969 131.248C650.605 131.549 650.179 131.787 649.69 131.962C649.202 132.138 648.669 132.226 648.092 132.226ZM656.124 132V121.867H657.835V123.841L657.553 123.672C657.803 123.032 658.204 122.537 658.756 122.186C659.32 121.823 659.978 121.641 660.73 121.641C661.457 121.641 662.102 121.804 662.666 122.13C663.243 122.456 663.694 122.907 664.02 123.484C664.358 124.06 664.527 124.712 664.527 125.439V132H662.76V126.003C662.76 125.439 662.66 124.963 662.459 124.574C662.259 124.185 661.971 123.885 661.595 123.672C661.231 123.446 660.811 123.333 660.335 123.333C659.859 123.333 659.433 123.446 659.057 123.672C658.693 123.885 658.405 124.192 658.192 124.593C657.979 124.981 657.872 125.451 657.872 126.003V132H656.124Z" fill="#2C3E51"/>
<path d="M821.56 98V83.994H826.505C827.432 83.994 828.247 84.1695 828.949 84.5204C829.651 84.8713 830.196 85.3727 830.584 86.0244C830.985 86.6761 831.186 87.4407 831.186 88.318C831.186 89.1953 830.985 89.9599 830.584 90.6116C830.196 91.2508 829.651 91.7521 828.949 92.1156C828.259 92.4665 827.445 92.642 826.505 92.642H823.403V98H821.56ZM823.403 90.95H826.561C827.125 90.95 827.614 90.8435 828.028 90.6304C828.441 90.4173 828.761 90.1103 828.986 89.7092C829.212 89.3081 829.325 88.8444 829.325 88.318C829.325 87.7791 829.212 87.3153 828.986 86.9268C828.761 86.5257 828.441 86.2187 828.028 86.0056C827.614 85.7925 827.125 85.686 826.561 85.686H823.403V90.95ZM837.954 98.2256C836.976 98.2256 836.105 97.9937 835.341 97.53C834.576 97.0663 833.975 96.4333 833.536 95.6312C833.097 94.8165 832.878 93.9079 832.878 92.9052C832.878 91.89 833.091 90.9876 833.517 90.198C833.956 89.4084 834.545 88.788 835.284 88.3368C836.036 87.8731 836.876 87.6412 837.804 87.6412C838.556 87.6412 839.22 87.7791 839.796 88.0548C840.385 88.318 840.881 88.6815 841.282 89.1452C841.695 89.5964 842.009 90.1165 842.222 90.7056C842.447 91.2821 842.56 91.8837 842.56 92.5104C842.56 92.6483 842.547 92.8049 842.522 92.9804C842.51 93.1433 842.491 93.3 842.466 93.4504H834.156V91.9464H841.451L840.624 92.6232C840.736 91.9715 840.674 91.3887 840.436 90.8748C840.197 90.3609 839.847 89.9536 839.383 89.6528C838.919 89.352 838.393 89.2016 837.804 89.2016C837.215 89.2016 836.676 89.352 836.187 89.6528C835.698 89.9536 835.316 90.386 835.04 90.95C834.777 91.5015 834.67 92.1595 834.72 92.924C834.67 93.6635 834.783 94.3152 835.059 94.8792C835.347 95.4307 835.748 95.8631 836.262 96.1764C836.788 96.4772 837.359 96.6276 837.973 96.6276C838.65 96.6276 839.22 96.4709 839.684 96.1576C840.147 95.8443 840.523 95.4432 840.812 94.9544L842.278 95.7064C842.077 96.1701 841.764 96.5963 841.338 96.9848C840.924 97.3608 840.429 97.6616 839.853 97.8872C839.289 98.1128 838.656 98.2256 837.954 98.2256ZM845.028 98V87.8668H846.738V89.8408L846.456 89.6716C846.707 89.0324 847.108 88.5373 847.66 88.1864C848.224 87.8229 848.882 87.6412 849.634 87.6412C850.361 87.6412 851.006 87.8041 851.57 88.13C852.147 88.4559 852.598 88.9071 852.924 89.4836C853.262 90.0601 853.431 90.7119 853.431 91.4388V98H851.664V92.0028C851.664 91.4388 851.564 90.9625 851.363 90.574C851.163 90.1855 850.874 89.8847 850.498 89.6716C850.135 89.446 849.715 89.3332 849.239 89.3332C848.763 89.3332 848.336 89.446 847.96 89.6716C847.597 89.8847 847.309 90.1917 847.096 90.5928C846.883 90.9813 846.776 91.4513 846.776 92.0028V98H845.028ZM860.953 102.136C860.238 102.136 859.574 102.023 858.96 101.798C858.358 101.572 857.838 101.259 857.4 100.858C856.973 100.469 856.648 100.012 856.422 99.4852L858.058 98.7332C858.233 99.2095 858.565 99.6105 859.054 99.9364C859.555 100.275 860.182 100.444 860.934 100.444C861.51 100.444 862.031 100.331 862.494 100.106C862.971 99.8925 863.347 99.5667 863.622 99.128C863.898 98.7019 864.036 98.1817 864.036 97.5676V95.2928L864.356 95.6312C864.005 96.3205 863.497 96.8469 862.833 97.2104C862.181 97.5739 861.46 97.7556 860.671 97.7556C859.718 97.7556 858.866 97.5363 858.114 97.0976C857.362 96.6464 856.773 96.0385 856.347 95.274C855.921 94.4969 855.708 93.6384 855.708 92.6984C855.708 91.7459 855.921 90.8873 856.347 90.1228C856.773 89.3583 857.356 88.7567 858.095 88.318C858.847 87.8668 859.699 87.6412 860.652 87.6412C861.442 87.6412 862.156 87.8229 862.795 88.1864C863.447 88.5373 863.967 89.0261 864.356 89.6528L864.092 90.1228V87.8668H865.803V97.5676C865.803 98.4449 865.596 99.2283 865.183 99.9176C864.769 100.607 864.193 101.146 863.453 101.534C862.726 101.935 861.893 102.136 860.953 102.136ZM860.821 96.0636C861.423 96.0636 861.962 95.9132 862.438 95.6124C862.927 95.3116 863.315 94.9105 863.604 94.4092C863.892 93.8953 864.036 93.3251 864.036 92.6984C864.036 92.0843 863.892 91.5203 863.604 91.0064C863.315 90.4925 862.927 90.0852 862.438 89.7844C861.962 89.4836 861.423 89.3332 860.821 89.3332C860.207 89.3332 859.649 89.4836 859.148 89.7844C858.647 90.0852 858.252 90.4925 857.964 91.0064C857.688 91.5077 857.55 92.0717 857.55 92.6984C857.55 93.3251 857.688 93.8953 857.964 94.4092C858.252 94.9105 858.64 95.3116 859.129 95.6124C859.63 95.9132 860.194 96.0636 860.821 96.0636ZM871.672 98.2256C871.008 98.2256 870.419 98.1065 869.905 97.8684C869.404 97.6177 869.009 97.2793 868.72 96.8532C868.432 96.4145 868.288 95.9132 868.288 95.3492C868.288 94.8103 868.401 94.3277 868.626 93.9016C868.865 93.4629 869.228 93.0932 869.717 92.7924C870.218 92.4916 870.845 92.2785 871.597 92.1532L875.357 91.5328V92.9992L871.992 93.5632C871.34 93.676 870.864 93.8828 870.563 94.1836C870.275 94.4844 870.13 94.8541 870.13 95.2928C870.13 95.7064 870.293 96.0511 870.619 96.3268C870.958 96.6025 871.378 96.7404 871.879 96.7404C872.518 96.7404 873.07 96.6088 873.533 96.3456C874.01 96.0699 874.379 95.7001 874.642 95.2364C874.918 94.7727 875.056 94.2588 875.056 93.6948V91.1192C875.056 90.5677 874.849 90.1228 874.436 89.7844C874.035 89.4335 873.502 89.258 872.838 89.258C872.261 89.258 871.747 89.4084 871.296 89.7092C870.857 89.9975 870.532 90.386 870.318 90.8748L868.796 90.0852C868.984 89.6215 869.284 89.2079 869.698 88.8444C870.112 88.4684 870.594 88.1739 871.146 87.9608C871.697 87.7477 872.274 87.6412 872.875 87.6412C873.652 87.6412 874.335 87.7916 874.924 88.0924C875.514 88.3807 875.971 88.788 876.297 89.3144C876.635 89.8283 876.804 90.4299 876.804 91.1192V98H875.094V96.0824L875.413 96.1952C875.2 96.5963 874.912 96.9472 874.548 97.248C874.185 97.5488 873.759 97.7869 873.27 97.9624C872.781 98.1379 872.249 98.2256 871.672 98.2256ZM877.974 102.136C877.861 102.136 877.723 102.13 877.56 102.117C877.397 102.105 877.266 102.086 877.165 102.061V100.482C877.416 100.519 877.667 100.538 877.917 100.538C878.431 100.538 878.857 100.394 879.196 100.106C879.534 99.8173 879.703 99.3787 879.703 98.7896V87.8668H881.452V98.7896C881.452 99.5165 881.301 100.124 881.001 100.613C880.7 101.115 880.286 101.491 879.76 101.741C879.233 102.004 878.638 102.136 877.974 102.136ZM879.703 86.25V83.994H881.452V86.25H879.703ZM887.943 98.2256C887.217 98.2256 886.559 98.0564 885.969 97.718C885.393 97.3796 884.942 96.9096 884.616 96.308C884.303 95.6939 884.146 94.992 884.146 94.2024V87.8668H885.894V94.0144C885.894 94.5157 885.995 94.9544 886.195 95.3304C886.408 95.7064 886.696 96.0009 887.06 96.214C887.436 96.4271 887.862 96.5336 888.338 96.5336C888.815 96.5336 889.234 96.4271 889.598 96.214C889.974 96.0009 890.262 95.6939 890.463 95.2928C890.676 94.8917 890.782 94.4155 890.782 93.864V87.8668H892.549V98H890.839V96.026L891.121 96.1952C890.883 96.8344 890.475 97.3357 889.899 97.6992C889.335 98.0501 888.683 98.2256 887.943 98.2256ZM898.417 98.2256C897.752 98.2256 897.163 98.1065 896.649 97.8684C896.148 97.6177 895.753 97.2793 895.465 96.8532C895.177 96.4145 895.033 95.9132 895.033 95.3492C895.033 94.8103 895.145 94.3277 895.371 93.9016C895.609 93.4629 895.973 93.0932 896.461 92.7924C896.963 92.4916 897.589 92.2785 898.341 92.1532L902.101 91.5328V92.9992L898.736 93.5632C898.084 93.676 897.608 93.8828 897.307 94.1836C897.019 94.4844 896.875 94.8541 896.875 95.2928C896.875 95.7064 897.038 96.0511 897.364 96.3268C897.702 96.6025 898.122 96.7404 898.623 96.7404C899.263 96.7404 899.814 96.6088 900.278 96.3456C900.754 96.0699 901.124 95.7001 901.387 95.2364C901.663 94.7727 901.801 94.2588 901.801 93.6948V91.1192C901.801 90.5677 901.594 90.1228 901.18 89.7844C900.779 89.4335 900.246 89.258 899.582 89.258C899.006 89.258 898.492 89.4084 898.041 89.7092C897.602 89.9975 897.276 90.386 897.063 90.8748L895.54 90.0852C895.728 89.6215 896.029 89.2079 896.443 88.8444C896.856 88.4684 897.339 88.1739 897.89 87.9608C898.442 87.7477 899.018 87.6412 899.62 87.6412C900.397 87.6412 901.08 87.7916 901.669 88.0924C902.258 88.3807 902.715 88.788 903.041 89.3144C903.38 89.8283 903.549 90.4299 903.549 91.1192V98H901.838V96.0824L902.158 96.1952C901.945 96.5963 901.656 96.9472 901.293 97.248C900.929 97.5488 900.503 97.7869 900.015 97.9624C899.526 98.1379 898.993 98.2256 898.417 98.2256ZM906.448 98V87.8668H908.159V89.8408L907.877 89.6716C908.127 89.0324 908.528 88.5373 909.08 88.1864C909.644 87.8229 910.302 87.6412 911.054 87.6412C911.781 87.6412 912.426 87.8041 912.99 88.13C913.567 88.4559 914.018 88.9071 914.344 89.4836C914.682 90.0601 914.851 90.7119 914.851 91.4388V98H913.084V92.0028C913.084 91.4388 912.984 90.9625 912.783 90.574C912.583 90.1855 912.295 89.8847 911.919 89.6716C911.555 89.446 911.135 89.3332 910.659 89.3332C910.183 89.3332 909.757 89.446 909.381 89.6716C909.017 89.8847 908.729 90.1917 908.516 90.5928C908.303 90.9813 908.196 91.4513 908.196 92.0028V98H906.448ZM821.56 132V117.994H826.148C827.564 117.994 828.798 118.282 829.851 118.859C830.904 119.435 831.719 120.25 832.295 121.303C832.872 122.343 833.16 123.571 833.16 124.988C833.16 126.391 832.872 127.62 832.295 128.672C831.719 129.725 830.904 130.546 829.851 131.135C828.798 131.712 827.564 132 826.148 132H821.56ZM823.403 130.308H826.166C827.207 130.308 828.103 130.089 828.855 129.65C829.619 129.211 830.208 128.597 830.622 127.808C831.036 127.005 831.242 126.065 831.242 124.988C831.242 123.897 831.029 122.957 830.603 122.168C830.19 121.378 829.601 120.77 828.836 120.344C828.084 119.905 827.194 119.686 826.166 119.686H823.403V130.308ZM835.476 132V121.867H837.225V132H835.476ZM835.476 120.25V117.994H837.225V120.25H835.476ZM840.126 135.76V121.867H841.836V124.048L841.611 123.615C841.987 123.014 842.501 122.537 843.152 122.186C843.804 121.823 844.55 121.641 845.39 121.641C846.342 121.641 847.194 121.873 847.946 122.337C848.711 122.801 849.313 123.433 849.751 124.236C850.19 125.025 850.409 125.928 850.409 126.943C850.409 127.933 850.19 128.829 849.751 129.631C849.313 130.433 848.711 131.066 847.946 131.53C847.194 131.994 846.336 132.226 845.371 132.226C844.556 132.226 843.81 132.044 843.134 131.68C842.469 131.317 841.956 130.803 841.592 130.139L841.874 129.838V135.76H840.126ZM845.239 130.534C845.878 130.534 846.449 130.377 846.95 130.064C847.451 129.75 847.84 129.324 848.116 128.785C848.404 128.234 848.548 127.62 848.548 126.943C848.548 126.241 848.404 125.627 848.116 125.1C847.84 124.561 847.451 124.135 846.95 123.822C846.449 123.496 845.878 123.333 845.239 123.333C844.6 123.333 844.024 123.49 843.51 123.803C843.008 124.117 842.607 124.549 842.306 125.1C842.018 125.639 841.874 126.253 841.874 126.943C841.874 127.62 842.018 128.234 842.306 128.785C842.607 129.324 843.008 129.75 843.51 130.064C844.024 130.377 844.6 130.534 845.239 130.534ZM852.89 132V121.867H854.601V123.728L854.413 123.465C854.651 122.888 855.014 122.462 855.503 122.186C855.992 121.898 856.587 121.754 857.289 121.754H857.909V123.408H857.026C856.311 123.408 855.735 123.634 855.296 124.085C854.858 124.524 854.638 125.151 854.638 125.965V132H852.89ZM864.463 132.226C863.486 132.226 862.602 132 861.813 131.549C861.023 131.085 860.396 130.452 859.933 129.65C859.469 128.848 859.237 127.939 859.237 126.924C859.237 125.909 859.463 125.006 859.914 124.217C860.377 123.427 861.004 122.801 861.794 122.337C862.583 121.873 863.473 121.641 864.463 121.641C865.441 121.641 866.325 121.873 867.114 122.337C867.904 122.788 868.524 123.408 868.975 124.198C869.439 124.988 869.671 125.896 869.671 126.924C869.671 127.952 869.433 128.867 868.957 129.669C868.48 130.458 867.847 131.085 867.058 131.549C866.281 132 865.416 132.226 864.463 132.226ZM864.463 130.534C865.09 130.534 865.654 130.377 866.155 130.064C866.669 129.75 867.07 129.318 867.359 128.766C867.659 128.215 867.81 127.601 867.81 126.924C867.81 126.235 867.659 125.627 867.359 125.1C867.07 124.561 866.669 124.135 866.155 123.822C865.654 123.496 865.09 123.333 864.463 123.333C863.824 123.333 863.248 123.496 862.734 123.822C862.232 124.135 861.831 124.561 861.531 125.1C861.23 125.627 861.079 126.235 861.079 126.924C861.079 127.601 861.23 128.215 861.531 128.766C861.831 129.318 862.232 129.75 862.734 130.064C863.248 130.377 863.824 130.534 864.463 130.534ZM875.768 132.226C874.753 132.226 873.869 131.975 873.117 131.474C872.365 130.972 871.832 130.295 871.519 129.443L872.91 128.766C873.198 129.368 873.593 129.844 874.095 130.195C874.596 130.546 875.154 130.722 875.768 130.722C876.319 130.722 876.777 130.59 877.14 130.327C877.504 130.064 877.685 129.719 877.685 129.293C877.685 128.992 877.598 128.754 877.422 128.578C877.259 128.39 877.059 128.246 876.821 128.146C876.582 128.033 876.363 127.952 876.163 127.902L874.64 127.469C873.725 127.206 873.054 126.83 872.628 126.341C872.215 125.852 872.008 125.282 872.008 124.63C872.008 124.029 872.158 123.509 872.459 123.07C872.772 122.619 873.192 122.268 873.719 122.017C874.257 121.767 874.859 121.641 875.523 121.641C876.413 121.641 877.209 121.867 877.911 122.318C878.625 122.769 879.133 123.402 879.434 124.217L878.005 124.875C877.779 124.348 877.441 123.935 876.99 123.634C876.539 123.321 876.031 123.164 875.467 123.164C874.953 123.164 874.546 123.296 874.245 123.559C873.944 123.809 873.794 124.129 873.794 124.518C873.794 124.806 873.869 125.044 874.019 125.232C874.17 125.407 874.351 125.545 874.565 125.646C874.778 125.733 874.984 125.809 875.185 125.871L876.839 126.36C877.667 126.598 878.306 126.968 878.757 127.469C879.221 127.971 879.453 128.572 879.453 129.274C879.453 129.838 879.296 130.346 878.983 130.797C878.669 131.248 878.237 131.599 877.685 131.85C877.134 132.1 876.495 132.226 875.768 132.226ZM886.592 132.226C885.614 132.226 884.743 131.994 883.978 131.53C883.214 131.066 882.612 130.433 882.174 129.631C881.735 128.817 881.516 127.908 881.516 126.905C881.516 125.89 881.729 124.988 882.155 124.198C882.594 123.408 883.183 122.788 883.922 122.337C884.674 121.873 885.514 121.641 886.441 121.641C887.193 121.641 887.858 121.779 888.434 122.055C889.023 122.318 889.518 122.681 889.919 123.145C890.333 123.596 890.646 124.117 890.859 124.706C891.085 125.282 891.198 125.884 891.198 126.51C891.198 126.648 891.185 126.805 891.16 126.98C891.148 127.143 891.129 127.3 891.104 127.45H882.794V125.946H890.088L889.261 126.623C889.374 125.971 889.311 125.389 889.073 124.875C888.835 124.361 888.484 123.954 888.02 123.653C887.557 123.352 887.03 123.202 886.441 123.202C885.852 123.202 885.313 123.352 884.824 123.653C884.336 123.954 883.953 124.386 883.678 124.95C883.414 125.501 883.308 126.159 883.358 126.924C883.308 127.663 883.421 128.315 883.696 128.879C883.985 129.431 884.386 129.863 884.9 130.176C885.426 130.477 885.996 130.628 886.61 130.628C887.287 130.628 887.858 130.471 888.321 130.158C888.785 129.844 889.161 129.443 889.449 128.954L890.916 129.706C890.715 130.17 890.402 130.596 889.976 130.985C889.562 131.361 889.067 131.662 888.49 131.887C887.926 132.113 887.294 132.226 886.592 132.226ZM897.294 132.226C896.278 132.226 895.395 131.975 894.643 131.474C893.891 130.972 893.358 130.295 893.045 129.443L894.436 128.766C894.724 129.368 895.119 129.844 895.62 130.195C896.122 130.546 896.68 130.722 897.294 130.722C897.845 130.722 898.303 130.59 898.666 130.327C899.03 130.064 899.211 129.719 899.211 129.293C899.211 128.992 899.124 128.754 898.948 128.578C898.785 128.39 898.585 128.246 898.346 128.146C898.108 128.033 897.889 127.952 897.688 127.902L896.166 127.469C895.251 127.206 894.58 126.83 894.154 126.341C893.74 125.852 893.534 125.282 893.534 124.63C893.534 124.029 893.684 123.509 893.985 123.07C894.298 122.619 894.718 122.268 895.244 122.017C895.783 121.767 896.385 121.641 897.049 121.641C897.939 121.641 898.735 121.867 899.437 122.318C900.151 122.769 900.659 123.402 900.96 124.217L899.531 124.875C899.305 124.348 898.967 123.935 898.516 123.634C898.064 123.321 897.557 123.164 896.993 123.164C896.479 123.164 896.072 123.296 895.771 123.559C895.47 123.809 895.32 124.129 895.32 124.518C895.32 124.806 895.395 125.044 895.545 125.232C895.696 125.407 895.877 125.545 896.09 125.646C896.304 125.733 896.51 125.809 896.711 125.871L898.365 126.36C899.192 126.598 899.832 126.968 900.283 127.469C900.747 127.971 900.978 128.572 900.978 129.274C900.978 129.838 900.822 130.346 900.508 130.797C900.195 131.248 899.763 131.599 899.211 131.85C898.66 132.1 898.021 132.226 897.294 132.226Z" fill="#2C3E51"/>
<rect x="48" y="25" width="227" height="5" fill="#797979" fill-opacity="0.06"/>
<rect x="324" y="25" width="227" height="5" fill="#797979" fill-opacity="0.06"/>
<rect x="601" y="25" width="219" height="5" fill="#797979" fill-opacity="0.06"/>
<rect x="870" y="25" width="121" height="5" fill="#797979" fill-opacity="0.06"/>
<path d="M1026.97 12.76L1027.35 13.52C1027.53 13.8933 1028 14.24 1028.41 14.32L1028.92 14.4C1030.44 14.6533 1030.8 15.7733 1029.71 16.88L1029.24 17.3467C1028.93 17.6667 1028.76 18.28 1028.85 18.7067L1028.92 18.9867C1029.33 20.8267 1028.36 21.5333 1026.76 20.5733L1026.41 20.3733C1026 20.1333 1025.33 20.1333 1024.92 20.3733L1024.57 20.5733C1022.96 21.5467 1021.99 20.8267 1022.41 18.9867L1022.48 18.7067C1022.57 18.28 1022.4 17.6667 1022.09 17.3467L1021.63 16.8667C1020.53 15.76 1020.89 14.64 1022.41 14.3867L1022.92 14.3067C1023.32 14.24 1023.8 13.88 1023.99 13.5067L1024.36 12.7467C1025.08 11.3067 1026.25 11.3067 1026.97 12.76Z" fill="#5DB075"/>
<path d="M1029.76 22.4534C1029.28 22.8 1027.93 23.44 1026.01 22.4534C1025.8 22.3467 1025.53 22.3334 1025.32 22.4534C1024.56 22.84 1023.87 23 1023.32 23C1022.47 23 1021.87 22.6667 1021.57 22.4534C1021.08 22.0934 1020.04 21.0667 1020.4 18.8934C1020.44 18.6667 1020.37 18.44 1020.23 18.2667C1019.31 17.2134 1018.8 15.8 1019.16 14.6934C1019.29 14.2534 1019.01 13.6667 1018.56 13.6667H1010.33C1006.33 13.6667 1003.67 15.6667 1003.67 20.3334V29.6667C1003.67 34.3334 1006.33 36.3334 1010.33 36.3334H1023.67C1027.67 36.3334 1030.33 34.3334 1030.33 29.6667V22.6934C1030.33 22.44 1029.97 22.3067 1029.76 22.4534ZM1020.12 25.12C1019.24 25.8267 1018.12 26.1734 1017 26.1734C1015.88 26.1734 1014.75 25.8267 1013.88 25.12L1009.71 21.7867C1009.28 21.44 1009.21 20.8 1009.55 20.3734C1009.89 19.9467 1010.52 19.8667 1010.95 20.2134L1015.12 23.5467C1016.13 24.36 1017.85 24.36 1018.87 23.5467C1019.29 23.2 1019.92 23.2667 1020.27 23.7067C1020.63 24.1334 1020.56 24.7734 1020.12 25.12Z" fill="#5DB075"/>
</svg>
