<svg width="147" height="28" viewBox="0 0 147 28" fill="none" xmlns="http://www.w3.org/2000/svg">
<path d="M33.584 23V6.61H39.678C40.7927 6.61 41.7753 6.81533 42.626 7.226C43.4913 7.622 44.166 8.20867 44.65 8.986C45.134 9.74867 45.376 10.68 45.376 11.78C45.376 12.9093 45.1047 13.87 44.562 14.662C44.034 15.454 43.3153 16.0407 42.406 16.422L46.168 23H42.78L38.754 15.806L40.69 16.95H36.576V23H33.584ZM36.576 14.31H39.722C40.2647 14.31 40.734 14.2073 41.13 14.002C41.526 13.782 41.834 13.4813 42.054 13.1C42.274 12.7187 42.384 12.2787 42.384 11.78C42.384 11.2667 42.274 10.8267 42.054 10.46C41.834 10.0787 41.526 9.78533 41.13 9.58C40.734 9.36 40.2647 9.25 39.722 9.25H36.576V14.31ZM48.1289 23V6.61H50.9889L57.1269 14.948H55.7629L61.7689 6.61H64.6289V23H61.6149V10.02L62.7809 10.306L56.5549 18.6H56.2029L50.1309 10.306L51.1209 10.02V23H48.1289ZM66.4236 23L72.0776 6.61H75.9496L81.6036 23H78.3476L77.1816 19.48H70.8456L69.6576 23H66.4236ZM71.7036 16.84H76.3236L73.5956 8.678H74.4316L71.7036 16.84ZM90.2419 23V9.25H85.9959V6.61H97.4359V9.25H93.2559V23H90.2419ZM106.67 23.264C105.467 23.264 104.345 23.0513 103.304 22.626C102.262 22.2007 101.353 21.6067 100.576 20.844C99.7984 20.0813 99.1897 19.1867 98.7497 18.16C98.3244 17.1187 98.1117 15.9967 98.1117 14.794C98.1117 13.5767 98.3244 12.4547 98.7497 11.428C99.1751 10.4013 99.7764 9.50667 100.554 8.744C101.331 7.98133 102.24 7.39467 103.282 6.984C104.323 6.55867 105.452 6.346 106.67 6.346C107.887 6.346 109.016 6.55867 110.058 6.984C111.099 7.40933 112.008 8.00333 112.786 8.766C113.563 9.514 114.164 10.4013 114.59 11.428C115.03 12.4547 115.25 13.5767 115.25 14.794C115.25 15.9967 115.03 17.1187 114.59 18.16C114.15 19.1867 113.541 20.0813 112.764 20.844C111.986 21.6067 111.077 22.2007 110.036 22.626C109.009 23.0513 107.887 23.264 106.67 23.264ZM106.67 20.536C107.476 20.536 108.217 20.3967 108.892 20.118C109.566 19.8247 110.153 19.4213 110.652 18.908C111.165 18.3947 111.554 17.786 111.818 17.082C112.096 16.378 112.236 15.6153 112.236 14.794C112.236 13.9727 112.096 13.2173 111.818 12.528C111.554 11.824 111.165 11.2153 110.652 10.702C110.153 10.174 109.566 9.77067 108.892 9.492C108.217 9.21333 107.476 9.074 106.67 9.074C105.878 9.074 105.144 9.21333 104.47 9.492C103.795 9.77067 103.201 10.174 102.688 10.702C102.189 11.2153 101.8 11.824 101.522 12.528C101.243 13.2173 101.104 13.9727 101.104 14.794C101.104 15.6153 101.243 16.378 101.522 17.082C101.8 17.786 102.189 18.3947 102.688 18.908C103.201 19.4213 103.795 19.8247 104.47 20.118C105.144 20.3967 105.878 20.536 106.67 20.536ZM124.224 23.264C122.963 23.264 121.841 23 120.858 22.472C119.89 21.944 119.128 21.218 118.57 20.294C118.013 19.37 117.734 18.3213 117.734 17.148V6.61H120.726V16.994C120.726 17.6687 120.873 18.2773 121.166 18.82C121.474 19.3627 121.892 19.788 122.42 20.096C122.948 20.3893 123.55 20.536 124.224 20.536C124.914 20.536 125.515 20.3893 126.028 20.096C126.556 19.788 126.967 19.3627 127.26 18.82C127.568 18.2773 127.722 17.6687 127.722 16.994V6.61H130.714V17.148C130.714 18.3213 130.436 19.37 129.878 20.294C129.321 21.218 128.551 21.944 127.568 22.472C126.6 23 125.486 23.264 124.224 23.264ZM133.701 23V6.61H139.795C140.91 6.61 141.893 6.81533 142.743 7.226C143.609 7.622 144.283 8.20867 144.767 8.986C145.251 9.74867 145.493 10.68 145.493 11.78C145.493 12.9093 145.222 13.87 144.679 14.662C144.151 15.454 143.433 16.0407 142.523 16.422L146.285 23H142.897L138.871 15.806L140.807 16.95H136.693V23H133.701ZM136.693 14.31H139.839C140.382 14.31 140.851 14.2073 141.247 14.002C141.643 13.782 141.951 13.4813 142.171 13.1C142.391 12.7187 142.501 12.2787 142.501 11.78C142.501 11.2667 142.391 10.8267 142.171 10.46C141.951 10.0787 141.643 9.78533 141.247 9.58C140.851 9.36 140.382 9.25 139.839 9.25H136.693V14.31Z" fill="#FFB74A"/>
<path d="M16.19 5H7.81C4.17 5 2 7.17 2 10.81V19.18C2 22.83 4.17 25 7.81 25H16.18C19.82 25 21.99 22.83 21.99 19.19V10.81C22 7.17 19.83 5 16.19 5ZM18.51 16.19C18.51 16.79 18.05 17.09 17.5 16.85L14.15 15.41C13.76 15.25 13.45 15.45 13.45 15.87V17.72C13.45 17.88 13.54 18.11 13.66 18.23L15.3 19.88C15.47 20.05 15.55 20.39 15.47 20.62L15.15 21.58C15.01 22 14.53 22.2 14.14 22L12.47 20.58C12.21 20.37 11.79 20.37 11.54 20.58L9.86 22C9.46 22.2 8.99 22 8.85 21.57L8.53 20.61C8.45 20.38 8.53 20.04 8.7 19.87L10.37 18.23C10.48 18.12 10.58 17.89 10.58 17.72V15.87C10.58 15.45 10.26 15.24 9.88 15.41L6.53 16.85C5.97 17.09 5.52 16.79 5.52 16.19V15.26C5.52 14.78 5.89 14.22 6.33 14.03L10.27 12.33C10.43 12.26 10.57 12.05 10.57 11.87V9.8C10.57 9.12 11.06 8.31 11.67 8.01C11.89 7.9 12.14 7.9 12.36 8.01C12.96 8.32 13.46 9.12 13.46 9.8V11.87C13.46 12.05 13.59 12.26 13.76 12.33L17.7 14.03C18.15 14.22 18.51 14.78 18.51 15.26V16.19Z" fill="#FFB74A"/>
</svg>
