<svg width="175" height="23" viewBox="0 0 175 23" fill="none" xmlns="http://www.w3.org/2000/svg">
<g clip-path="url(#clip0_176_2580)">
<path d="M21.9998 11.0673C21.9998 4.95404 17.0746 -0.00146484 10.9998 -0.00146484C4.92232 -8.98436e-05 -0.00292969 4.95404 -0.00292969 11.0687C-0.00292969 16.592 4.02032 21.1708 9.27832 22.0013V14.2669H6.48707V11.0687H9.28107V8.62804C9.28107 5.85466 10.9242 4.32291 13.4363 4.32291C14.6408 4.32291 15.8989 4.53878 15.8989 4.53878V7.26129H14.5116C13.1462 7.26129 12.7199 8.11516 12.7199 8.99104V11.0673H15.7697L15.2829 14.2655H12.7186V21.9999C17.9766 21.1694 21.9998 16.5907 21.9998 11.0673Z" fill="white"/>
</g>
<path d="M41.604 16.5L39.364 12.608H38.146V16.5H36.55V6.77H39.91C40.6567 6.77 41.2867 6.90067 41.8 7.162C42.3227 7.42333 42.71 7.77333 42.962 8.212C43.2233 8.65067 43.354 9.14067 43.354 9.682C43.354 10.3167 43.1673 10.8953 42.794 11.418C42.43 11.9313 41.8653 12.2813 41.1 12.468L43.508 16.5H41.604ZM38.146 11.334H39.91C40.5073 11.334 40.9553 11.1847 41.254 10.886C41.562 10.5873 41.716 10.186 41.716 9.682C41.716 9.178 41.5667 8.786 41.268 8.506C40.9693 8.21667 40.5167 8.072 39.91 8.072H38.146V11.334ZM55.6437 6.77V16.5H54.0477V9.836L51.0797 16.5H49.9737L46.9917 9.836V16.5H45.3957V6.77H47.1177L50.5337 14.4L53.9357 6.77H55.6437ZM63.6074 14.512H59.5334L58.8334 16.5H57.1674L60.6534 6.756H62.5014L65.9874 16.5H64.3074L63.6074 14.512ZM63.1594 13.21L61.5774 8.688L59.9814 13.21H63.1594ZM77.4258 6.77V8.072H74.8358V16.5H73.2398V8.072H70.6358V6.77H77.4258ZM82.3882 16.626C81.6602 16.626 81.0022 16.4627 80.4142 16.136C79.8262 15.8 79.3642 15.3333 79.0282 14.736C78.6922 14.1293 78.5242 13.4293 78.5242 12.636C78.5242 11.852 78.6969 11.1567 79.0422 10.55C79.3875 9.94333 79.8589 9.47667 80.4562 9.15C81.0535 8.82333 81.7209 8.66 82.4582 8.66C83.1955 8.66 83.8629 8.82333 84.4602 9.15C85.0575 9.47667 85.5289 9.94333 85.8742 10.55C86.2195 11.1567 86.3922 11.852 86.3922 12.636C86.3922 13.42 86.2149 14.1153 85.8602 14.722C85.5055 15.3287 85.0202 15.8 84.4042 16.136C83.7975 16.4627 83.1255 16.626 82.3882 16.626ZM82.3882 15.24C82.7989 15.24 83.1815 15.142 83.5362 14.946C83.9002 14.75 84.1942 14.456 84.4182 14.064C84.6422 13.672 84.7542 13.196 84.7542 12.636C84.7542 12.076 84.6469 11.6047 84.4322 11.222C84.2175 10.83 83.9329 10.536 83.5782 10.34C83.2235 10.144 82.8409 10.046 82.4302 10.046C82.0195 10.046 81.6369 10.144 81.2822 10.34C80.9369 10.536 80.6615 10.83 80.4562 11.222C80.2509 11.6047 80.1482 12.076 80.1482 12.636C80.1482 13.4667 80.3582 14.1107 80.7782 14.568C81.2075 15.016 81.7442 15.24 82.3882 15.24ZM94.9559 8.786V16.5H93.3599V15.59C93.1079 15.9073 92.7766 16.1593 92.3659 16.346C91.9646 16.5233 91.5353 16.612 91.0779 16.612C90.4713 16.612 89.9253 16.486 89.4399 16.234C88.9639 15.982 88.5859 15.6087 88.3059 15.114C88.0353 14.6193 87.8999 14.022 87.8999 13.322V8.786H89.4819V13.084C89.4819 13.7747 89.6546 14.3067 89.9999 14.68C90.3453 15.044 90.8166 15.226 91.4139 15.226C92.0113 15.226 92.4826 15.044 92.8279 14.68C93.1826 14.3067 93.3599 13.7747 93.3599 13.084V8.786H94.9559ZM98.6577 9.906C98.8911 9.514 99.1991 9.21067 99.5817 8.996C99.9737 8.772 100.436 8.66 100.968 8.66V10.312H100.562C99.9364 10.312 99.4604 10.4707 99.1337 10.788C98.8164 11.1053 98.6577 11.656 98.6577 12.44V16.5H97.0617V8.786H98.6577V9.906ZM110.509 16.598C109.604 16.598 108.769 16.388 108.003 15.968C107.247 15.5387 106.645 14.946 106.197 14.19C105.759 13.4247 105.539 12.566 105.539 11.614C105.539 10.662 105.759 9.808 106.197 9.052C106.645 8.296 107.247 7.708 108.003 7.288C108.769 6.85867 109.604 6.644 110.509 6.644C111.424 6.644 112.259 6.85867 113.015 7.288C113.781 7.708 114.383 8.296 114.821 9.052C115.26 9.808 115.479 10.662 115.479 11.614C115.479 12.566 115.26 13.4247 114.821 14.19C114.383 14.946 113.781 15.5387 113.015 15.968C112.259 16.388 111.424 16.598 110.509 16.598ZM110.509 15.212C111.153 15.212 111.727 15.0673 112.231 14.778C112.735 14.4793 113.127 14.0593 113.407 13.518C113.697 12.9673 113.841 12.3327 113.841 11.614C113.841 10.8953 113.697 10.2653 113.407 9.724C113.127 9.18267 112.735 8.76733 112.231 8.478C111.727 8.18867 111.153 8.044 110.509 8.044C109.865 8.044 109.291 8.18867 108.787 8.478C108.283 8.76733 107.887 9.18267 107.597 9.724C107.317 10.2653 107.177 10.8953 107.177 11.614C107.177 12.3327 107.317 12.9673 107.597 13.518C107.887 14.0593 108.283 14.4793 108.787 14.778C109.291 15.0673 109.865 15.212 110.509 15.212ZM118.646 9.906C118.879 9.514 119.187 9.21067 119.57 8.996C119.962 8.772 120.424 8.66 120.956 8.66V10.312H120.55C119.925 10.312 119.449 10.4707 119.122 10.788C118.805 11.1053 118.646 11.656 118.646 12.44V16.5H117.05V8.786H118.646V9.906ZM125.531 8.66C126.128 8.66 126.656 8.78133 127.113 9.024C127.58 9.25733 127.944 9.55133 128.205 9.906V8.786H129.815V16.626C129.815 17.3353 129.666 17.9653 129.367 18.516C129.068 19.076 128.634 19.5147 128.065 19.832C127.505 20.1493 126.833 20.308 126.049 20.308C125.004 20.308 124.136 20.0607 123.445 19.566C122.754 19.0807 122.362 18.418 122.269 17.578H123.851C123.972 17.9793 124.229 18.3013 124.621 18.544C125.022 18.796 125.498 18.922 126.049 18.922C126.693 18.922 127.211 18.726 127.603 18.334C128.004 17.942 128.205 17.3727 128.205 16.626V15.338C127.934 15.702 127.566 16.01 127.099 16.262C126.642 16.5047 126.119 16.626 125.531 16.626C124.859 16.626 124.243 16.458 123.683 16.122C123.132 15.7767 122.694 15.3007 122.367 14.694C122.05 14.078 121.891 13.3827 121.891 12.608C121.891 11.8333 122.05 11.1473 122.367 10.55C122.694 9.95267 123.132 9.49067 123.683 9.164C124.243 8.828 124.859 8.66 125.531 8.66ZM128.205 12.636C128.205 12.104 128.093 11.642 127.869 11.25C127.654 10.858 127.37 10.5593 127.015 10.354C126.66 10.1487 126.278 10.046 125.867 10.046C125.456 10.046 125.074 10.1487 124.719 10.354C124.364 10.55 124.075 10.844 123.851 11.236C123.636 11.6187 123.529 12.076 123.529 12.608C123.529 13.14 123.636 13.6067 123.851 14.008C124.075 14.4093 124.364 14.7173 124.719 14.932C125.083 15.1373 125.466 15.24 125.867 15.24C126.278 15.24 126.66 15.1373 127.015 14.932C127.37 14.7267 127.654 14.428 127.869 14.036C128.093 13.6347 128.205 13.168 128.205 12.636ZM131.379 12.608C131.379 11.8333 131.538 11.1473 131.855 10.55C132.182 9.95267 132.621 9.49067 133.171 9.164C133.731 8.828 134.347 8.66 135.019 8.66C135.626 8.66 136.153 8.78133 136.601 9.024C137.059 9.25733 137.423 9.55133 137.693 9.906V8.786H139.303V16.5H137.693V15.352C137.423 15.716 137.054 16.0193 136.587 16.262C136.121 16.5047 135.589 16.626 134.991 16.626C134.329 16.626 133.722 16.458 133.171 16.122C132.621 15.7767 132.182 15.3007 131.855 14.694C131.538 14.078 131.379 13.3827 131.379 12.608ZM137.693 12.636C137.693 12.104 137.581 11.642 137.357 11.25C137.143 10.858 136.858 10.5593 136.503 10.354C136.149 10.1487 135.766 10.046 135.355 10.046C134.945 10.046 134.562 10.1487 134.207 10.354C133.853 10.55 133.563 10.844 133.339 11.236C133.125 11.6187 133.017 12.076 133.017 12.608C133.017 13.14 133.125 13.6067 133.339 14.008C133.563 14.4093 133.853 14.7173 134.207 14.932C134.571 15.1373 134.954 15.24 135.355 15.24C135.766 15.24 136.149 15.1373 136.503 14.932C136.858 14.7267 137.143 14.428 137.357 14.036C137.581 13.6347 137.693 13.168 137.693 12.636ZM145.292 8.66C145.898 8.66 146.44 8.786 146.916 9.038C147.401 9.29 147.779 9.66333 148.05 10.158C148.32 10.6527 148.456 11.25 148.456 11.95V16.5H146.874V12.188C146.874 11.4973 146.701 10.97 146.356 10.606C146.01 10.2327 145.539 10.046 144.942 10.046C144.344 10.046 143.868 10.2327 143.514 10.606C143.168 10.97 142.996 11.4973 142.996 12.188V16.5H141.4V8.786H142.996V9.668C143.257 9.35067 143.588 9.10333 143.99 8.926C144.4 8.74867 144.834 8.66 145.292 8.66ZM151.303 7.764C151.014 7.764 150.771 7.666 150.575 7.47C150.379 7.274 150.281 7.03133 150.281 6.742C150.281 6.45267 150.379 6.21 150.575 6.014C150.771 5.818 151.014 5.72 151.303 5.72C151.583 5.72 151.821 5.818 152.017 6.014C152.213 6.21 152.311 6.45267 152.311 6.742C152.311 7.03133 152.213 7.274 152.017 7.47C151.821 7.666 151.583 7.764 151.303 7.764ZM152.087 8.786V16.5H150.491V8.786H152.087ZM155.597 15.198H159.097V16.5H153.749V15.198L157.263 10.088H153.749V8.786H159.097V10.088L155.597 15.198ZM167.843 12.454C167.843 12.7433 167.824 13.0047 167.787 13.238H161.893C161.939 13.854 162.168 14.3487 162.579 14.722C162.989 15.0953 163.493 15.282 164.091 15.282C164.949 15.282 165.556 14.9227 165.911 14.204H167.633C167.399 14.9133 166.975 15.4967 166.359 15.954C165.752 16.402 164.996 16.626 164.091 16.626C163.353 16.626 162.691 16.4627 162.103 16.136C161.524 15.8 161.067 15.3333 160.731 14.736C160.404 14.1293 160.241 13.4293 160.241 12.636C160.241 11.8427 160.399 11.1473 160.717 10.55C161.043 9.94333 161.496 9.47667 162.075 9.15C162.663 8.82333 163.335 8.66 164.091 8.66C164.819 8.66 165.467 8.81867 166.037 9.136C166.606 9.45333 167.049 9.90133 167.367 10.48C167.684 11.0493 167.843 11.7073 167.843 12.454ZM166.177 11.95C166.167 11.362 165.957 10.8907 165.547 10.536C165.136 10.1813 164.627 10.004 164.021 10.004C163.47 10.004 162.999 10.1813 162.607 10.536C162.215 10.8813 161.981 11.3527 161.907 11.95H166.177ZM171.009 9.906C171.243 9.514 171.551 9.21067 171.933 8.996C172.325 8.772 172.787 8.66 173.319 8.66V10.312H172.913C172.288 10.312 171.812 10.4707 171.485 10.788C171.168 11.1053 171.009 11.656 171.009 12.44V16.5H169.413V8.786H171.009V9.906Z" fill="white"/>
<defs>
<clipPath id="clip0_176_2580">
<rect width="22" height="22" fill="white"/>
</clipPath>
</defs>
</svg>
