<svg width="348" height="391" viewBox="0 0 348 391" fill="none" xmlns="http://www.w3.org/2000/svg">
<g filter="url(#filter0_d_317_3924)">
<rect x="4" y="4" width="340.035" height="383" rx="18.4135" fill="white"/>
</g>
<path d="M36.6253 175.308V157.932H42.3163C44.0734 157.932 45.605 158.289 46.9111 159.004C48.2172 159.72 49.2279 160.73 49.9432 162.036C50.6584 163.327 51.0161 164.851 51.0161 166.608C51.0161 168.349 50.6584 169.873 49.9432 171.179C49.2279 172.486 48.2172 173.504 46.9111 174.235C45.605 174.95 44.0734 175.308 42.3163 175.308H36.6253ZM38.911 173.209H42.3396C43.6302 173.209 44.742 172.936 45.6749 172.392C46.6234 171.848 47.3542 171.086 47.8674 170.106C48.3805 169.111 48.637 167.945 48.637 166.608C48.637 165.255 48.3727 164.089 47.844 163.109C47.3309 162.13 46.6001 161.376 45.6516 160.847C44.7187 160.303 43.6147 160.031 42.3396 160.031H38.911V173.209ZM59.6274 175.588C58.4146 175.588 57.3184 175.308 56.3388 174.748C55.3592 174.173 54.5817 173.387 54.0064 172.392C53.4311 171.397 53.1434 170.27 53.1434 169.01C53.1434 167.751 53.4233 166.631 53.9831 165.652C54.5584 164.672 55.3359 163.895 56.3155 163.319C57.2951 162.744 58.399 162.456 59.6274 162.456C60.8403 162.456 61.9365 162.744 62.9161 163.319C63.8957 163.879 64.6654 164.649 65.2251 165.628C65.8004 166.608 66.0881 167.735 66.0881 169.01C66.0881 170.285 65.7927 171.42 65.2018 172.416C64.6109 173.395 63.8257 174.173 62.8461 174.748C61.8821 175.308 60.8092 175.588 59.6274 175.588ZM59.6274 173.488C60.4049 173.488 61.1046 173.294 61.7266 172.905C62.3641 172.517 62.8617 171.98 63.2193 171.296C63.5925 170.612 63.7791 169.85 63.7791 169.01C63.7791 168.155 63.5925 167.401 63.2193 166.748C62.8617 166.079 62.3641 165.551 61.7266 165.162C61.1046 164.758 60.4049 164.555 59.6274 164.555C58.8344 164.555 58.1192 164.758 57.4816 165.162C56.8597 165.551 56.3621 166.079 55.9889 166.748C55.6157 167.401 55.4292 168.155 55.4292 169.01C55.4292 169.85 55.6157 170.612 55.9889 171.296C56.3621 171.98 56.8597 172.517 57.4816 172.905C58.1192 173.294 58.8344 173.488 59.6274 173.488ZM68.9172 175.308V157.652H71.0863V169.757L70.2 169.547L76.8706 162.736H79.6461L74.8181 167.797L79.9726 175.308H77.407L72.6956 168.497L74.0484 168.427L70.3866 172.252L71.0863 170.666V175.308H68.9172ZM86.3777 175.588C85.4759 175.588 84.6595 175.378 83.9287 174.958C83.2135 174.538 82.6537 173.955 82.2494 173.209C81.8607 172.447 81.6663 171.576 81.6663 170.596V162.736H83.8354V170.363C83.8354 170.985 83.9598 171.529 84.2086 171.996C84.473 172.462 84.8306 172.828 85.2815 173.092C85.748 173.356 86.2767 173.488 86.8675 173.488C87.4584 173.488 87.9793 173.356 88.4302 173.092C88.8967 172.828 89.2543 172.447 89.5031 171.949C89.7674 171.451 89.8996 170.861 89.8996 170.176V162.736H92.092V175.308H89.9696V172.859L90.3194 173.069C90.024 173.862 89.5187 174.484 88.8034 174.934C88.1037 175.37 87.2951 175.588 86.3777 175.588ZM95.4525 175.308V162.736H97.5749V165.302L97.2717 164.905C97.5827 164.112 98.0803 163.506 98.7644 163.086C99.4486 162.666 100.218 162.456 101.073 162.456C102.053 162.456 102.932 162.728 103.709 163.273C104.502 163.817 105.046 164.532 105.342 165.418L104.735 165.442C105.062 164.462 105.614 163.724 106.391 163.226C107.169 162.713 108.032 162.456 108.98 162.456C109.851 162.456 110.636 162.658 111.336 163.063C112.051 163.467 112.619 164.027 113.039 164.742C113.458 165.457 113.668 166.266 113.668 167.168V175.308H111.476V167.867C111.476 167.168 111.351 166.577 111.103 166.095C110.854 165.613 110.512 165.24 110.076 164.975C109.657 164.695 109.159 164.555 108.584 164.555C108.024 164.555 107.519 164.695 107.068 164.975C106.632 165.24 106.282 165.621 106.018 166.118C105.769 166.6 105.645 167.183 105.645 167.867V175.308H103.453V167.867C103.453 167.168 103.328 166.577 103.079 166.095C102.831 165.613 102.488 165.24 102.053 164.975C101.633 164.695 101.136 164.555 100.56 164.555C100.001 164.555 99.4953 164.695 99.0443 164.975C98.609 165.24 98.2591 165.621 97.9948 166.118C97.746 166.6 97.6216 167.183 97.6216 167.867V175.308H95.4525ZM122.533 175.588C121.32 175.588 120.24 175.3 119.291 174.725C118.343 174.149 117.596 173.364 117.052 172.369C116.508 171.358 116.236 170.231 116.236 168.987C116.236 167.727 116.5 166.608 117.029 165.628C117.573 164.649 118.304 163.879 119.221 163.319C120.154 162.744 121.196 162.456 122.347 162.456C123.28 162.456 124.104 162.627 124.819 162.969C125.55 163.296 126.164 163.747 126.662 164.322C127.175 164.882 127.563 165.527 127.828 166.258C128.108 166.973 128.248 167.72 128.248 168.497C128.248 168.668 128.232 168.863 128.201 169.08C128.185 169.282 128.162 169.477 128.131 169.663H117.822V167.797H126.872L125.845 168.637C125.985 167.829 125.907 167.106 125.612 166.468C125.317 165.83 124.881 165.325 124.306 164.952C123.731 164.579 123.078 164.392 122.347 164.392C121.616 164.392 120.947 164.579 120.341 164.952C119.734 165.325 119.26 165.862 118.918 166.561C118.592 167.245 118.459 168.062 118.522 169.01C118.459 169.928 118.599 170.736 118.941 171.436C119.299 172.12 119.797 172.657 120.434 173.045C121.087 173.418 121.795 173.605 122.557 173.605C123.396 173.605 124.104 173.411 124.679 173.022C125.254 172.633 125.721 172.136 126.079 171.529L127.898 172.462C127.649 173.038 127.26 173.566 126.732 174.048C126.218 174.515 125.604 174.888 124.889 175.168C124.189 175.448 123.404 175.588 122.533 175.588ZM131.076 175.308V162.736H133.198V165.185L132.848 164.975C133.159 164.182 133.657 163.568 134.341 163.133C135.041 162.682 135.857 162.456 136.79 162.456C137.692 162.456 138.493 162.658 139.192 163.063C139.908 163.467 140.467 164.027 140.872 164.742C141.292 165.457 141.502 166.266 141.502 167.168V175.308H139.309V167.867C139.309 167.168 139.185 166.577 138.936 166.095C138.687 165.613 138.329 165.24 137.863 164.975C137.412 164.695 136.891 164.555 136.3 164.555C135.709 164.555 135.181 164.695 134.714 164.975C134.263 165.24 133.906 165.621 133.641 166.118C133.377 166.6 133.245 167.183 133.245 167.867V175.308H131.076ZM153.488 175.308L147.214 157.932H149.663L154.981 173.209H154.491L159.809 157.932H162.258L156.007 175.308H153.488ZM164.194 175.308V162.736H166.363V175.308H164.194ZM164.194 160.73V157.932H166.363V160.73H164.194ZM174.23 175.588C172.97 175.588 171.874 175.277 170.941 174.655C170.008 174.033 169.348 173.193 168.959 172.136L170.685 171.296C171.042 172.042 171.532 172.633 172.154 173.069C172.776 173.504 173.468 173.722 174.23 173.722C174.914 173.722 175.482 173.558 175.933 173.232C176.384 172.905 176.609 172.478 176.609 171.949C176.609 171.576 176.5 171.28 176.282 171.063C176.08 170.83 175.832 170.651 175.536 170.526C175.241 170.386 174.969 170.285 174.72 170.223L172.831 169.687C171.695 169.36 170.864 168.894 170.335 168.287C169.822 167.681 169.565 166.973 169.565 166.165C169.565 165.418 169.752 164.773 170.125 164.229C170.514 163.669 171.035 163.234 171.688 162.923C172.356 162.612 173.103 162.456 173.927 162.456C175.031 162.456 176.018 162.736 176.889 163.296C177.775 163.856 178.405 164.641 178.778 165.652L177.006 166.468C176.726 165.815 176.306 165.302 175.746 164.929C175.186 164.54 174.557 164.346 173.857 164.346C173.219 164.346 172.714 164.509 172.341 164.835C171.968 165.146 171.781 165.543 171.781 166.025C171.781 166.382 171.874 166.678 172.061 166.911C172.247 167.129 172.473 167.3 172.737 167.424C173.002 167.533 173.258 167.626 173.507 167.704L175.559 168.311C176.586 168.606 177.379 169.065 177.938 169.687C178.514 170.309 178.801 171.055 178.801 171.926C178.801 172.625 178.607 173.255 178.218 173.815C177.83 174.375 177.293 174.81 176.609 175.121C175.925 175.432 175.132 175.588 174.23 175.588ZM185.326 175.588C184.502 175.588 183.771 175.44 183.134 175.144C182.512 174.833 182.022 174.414 181.664 173.885C181.307 173.341 181.128 172.719 181.128 172.019C181.128 171.35 181.268 170.752 181.548 170.223C181.843 169.679 182.294 169.22 182.9 168.847C183.522 168.474 184.3 168.209 185.233 168.054L189.898 167.284V169.104L185.723 169.803C184.914 169.943 184.323 170.2 183.95 170.573C183.592 170.946 183.414 171.405 183.414 171.949C183.414 172.462 183.616 172.89 184.02 173.232C184.44 173.574 184.961 173.745 185.583 173.745C186.376 173.745 187.06 173.582 187.635 173.255C188.226 172.913 188.685 172.454 189.011 171.879C189.353 171.304 189.524 170.666 189.524 169.967V166.771C189.524 166.087 189.268 165.535 188.755 165.115C188.257 164.68 187.596 164.462 186.772 164.462C186.057 164.462 185.419 164.649 184.86 165.022C184.315 165.38 183.911 165.862 183.647 166.468L181.758 165.488C181.991 164.913 182.364 164.4 182.877 163.949C183.39 163.483 183.989 163.117 184.673 162.853C185.357 162.588 186.072 162.456 186.819 162.456C187.783 162.456 188.63 162.643 189.361 163.016C190.092 163.374 190.659 163.879 191.064 164.532C191.484 165.17 191.693 165.916 191.693 166.771V175.308H189.571V172.929L189.967 173.069C189.703 173.566 189.346 174.002 188.895 174.375C188.444 174.748 187.915 175.043 187.309 175.261C186.702 175.479 186.041 175.588 185.326 175.588Z" fill="#313041"/>
<path fill-rule="evenodd" clip-rule="evenodd" d="M46.3224 54.868H85.6287V44.2047C85.6287 42.5291 84.4235 41.4749 82.8031 41.857L46.025 50.5187C44.2684 50.9321 42.7852 52.8554 42.7852 54.7197V56.2122C43.7288 55.3771 44.9662 54.868 46.3224 54.868ZM72.6407 84.8083C72.1915 87.6154 71.4144 90.138 70.3243 91.8348C74.123 90.8709 77.2726 88.2589 78.9621 84.8083H72.6407ZM63.3171 84.8083H70.8279C70.0343 89.5138 68.3651 92.2409 67.0725 92.2409C65.7799 92.2409 64.1107 89.5138 63.3171 84.8083ZM63.8207 91.8348C62.7306 90.138 61.9536 87.6154 61.5043 84.8083H55.1811C56.8724 88.2599 60.022 90.8709 63.8207 91.8348ZM72.8783 75.0123C73.1572 77.639 73.1572 80.3771 72.8783 83.0047H79.6867C80.5116 80.4065 80.5116 77.6114 79.6867 75.0123H72.8783ZM63.0703 75.0123C62.7905 77.5828 62.7905 80.4332 63.0703 83.0047H71.0756C71.3546 80.4443 71.3536 77.5727 71.0756 75.0123H63.0703ZM61.0568 79.0089C61.0568 77.6758 61.1268 76.3261 61.2658 75.0132H54.4593C53.6334 77.6095 53.6334 80.4093 54.4593 83.0056H61.2667C61.1268 81.6909 61.0568 80.3421 61.0568 79.0089ZM70.3243 66.1821C71.4144 67.8789 72.1915 70.4016 72.6407 73.2087H78.963C77.2726 69.758 74.123 67.1461 70.3243 66.1821ZM67.0725 65.777C68.3651 65.777 70.0334 68.505 70.8279 73.2096H63.3171C64.1107 68.5041 65.7799 65.777 67.0725 65.777ZM61.5043 73.2087C61.9536 70.4016 62.7306 67.8789 63.8207 66.1821C60.022 67.1461 56.8724 69.7571 55.182 73.2087H61.5043ZM87.8236 56.6716C89.7726 56.6716 91.3599 58.2579 91.3599 60.2088V117.607C91.3599 119.557 89.7726 121.144 87.8236 121.144H46.3224C44.3724 121.144 42.7852 119.557 42.7852 117.607V60.2088C42.7852 58.2579 44.3724 56.6716 46.3224 56.6716H87.8236ZM52.0361 79.0089C52.0361 70.7183 58.7828 63.9734 67.0725 63.9734C75.3623 63.9734 82.108 70.7183 82.108 79.0089C82.108 87.2996 75.3623 94.0454 67.0725 94.0454C58.7828 94.0454 52.0361 87.2996 52.0361 79.0089ZM54.6407 106.948C53.4539 106.948 53.4539 108.751 54.6407 108.751H79.5034C80.6902 108.751 80.6902 106.948 79.5034 106.948H54.6407ZM79.5044 112.238H54.6407C53.4539 112.238 53.453 114.041 54.6407 114.041H79.5034C80.6911 114.041 80.6911 112.238 79.5044 112.238ZM59.1501 101.657C59.1501 102.155 59.5543 102.559 60.0515 102.559H74.0926C75.2794 102.559 75.2794 100.755 74.0926 100.755H60.0524C59.5543 100.754 59.1501 101.158 59.1501 101.657Z" fill="#E8604C"/>
<path d="M35.1314 192.546V191.368H42.3495L37.4146 201.68H36.1036L40.4786 192.546H35.1314ZM46.9189 198.733V197.629H49.865V198.733H46.9189ZM55.5329 193.401V192.105L59.0683 191.221V201.68H57.8162V192.723L55.5329 193.401ZM61.2808 199.617L66.9963 191.368H67.5119V201.68H66.2598V199.087V198.925V194.152L63.3431 198.512H66.7754H67.0258H69.1323V199.617H61.2808ZM75.8615 196.671V195.493H82.9323V196.671H75.8615ZM82.0926 191.368H83.3447V201.68H82.0926V191.368ZM75.1692 191.368H76.4213V201.68H75.1692V191.368ZM86.6863 198.586L87.1282 197.408H91.6948L92.1367 198.586H86.6863ZM89.382 193.695L87.6438 197.791L87.526 198.056L85.994 201.68H84.5945L89.382 190.852L94.1695 201.68H92.7701L91.2676 198.144L91.1497 197.85L89.382 193.695ZM97.2653 196.597H98.6647L102.347 201.68H100.801L97.2653 196.597ZM95.424 191.368H96.6761V201.68H95.424V191.368ZM96.1163 192.473V191.368H98.2228C98.8906 191.368 99.4847 191.496 100.005 191.751C100.536 191.997 100.953 192.35 101.257 192.812C101.572 193.273 101.729 193.823 101.729 194.461C101.729 195.09 101.572 195.64 101.257 196.111C100.953 196.573 100.536 196.931 100.005 197.187C99.4847 197.432 98.8906 197.555 98.2228 197.555H96.1163V196.45H98.2228C98.6647 196.45 99.0526 196.372 99.3865 196.214C99.7303 196.057 99.9954 195.831 100.182 195.537C100.378 195.242 100.477 194.884 100.477 194.461C100.477 194.039 100.378 193.681 100.182 193.386C99.9954 193.092 99.7303 192.866 99.3865 192.709C99.0526 192.551 98.6647 192.473 98.2228 192.473H96.1163ZM103.667 191.368H104.919V201.68H103.667V191.368ZM111.694 191.368H112.946V201.68H111.694V191.368ZM116.997 191.368H118.544L114.08 196.2L118.765 201.68H117.218L112.563 196.229L116.997 191.368ZM120.716 201.68V200.501H125.916V201.68H120.716ZM120.716 192.546V191.368H125.916V192.546H120.716ZM120.716 196.671V195.493H125.621V196.671H120.716ZM120.023 191.368H121.275V201.68H120.023V191.368ZM129.964 196.597H131.363L135.046 201.68H133.499L129.964 196.597ZM128.122 191.368H129.374V201.68H128.122V191.368ZM128.815 192.473V191.368H130.921C131.589 191.368 132.183 191.496 132.704 191.751C133.234 191.997 133.651 192.35 133.956 192.812C134.27 193.273 134.427 193.823 134.427 194.461C134.427 195.09 134.27 195.64 133.956 196.111C133.651 196.573 133.234 196.931 132.704 197.187C132.183 197.432 131.589 197.555 130.921 197.555H128.815V196.45H130.921C131.363 196.45 131.751 196.372 132.085 196.214C132.429 196.057 132.694 195.831 132.88 195.537C133.077 195.242 133.175 194.884 133.175 194.461C133.175 194.039 133.077 193.681 132.88 193.386C132.694 193.092 132.429 192.866 132.085 192.709C131.751 192.551 131.363 192.473 130.921 192.473H128.815ZM134.2 203.212C134.308 203.379 134.465 203.506 134.671 203.595C134.868 203.693 135.098 203.742 135.363 203.742C135.589 203.742 135.81 203.639 136.026 203.433C136.252 203.236 136.365 202.897 136.365 202.416V191.368H137.544V202.563C137.544 202.966 137.49 203.315 137.382 203.609C137.283 203.904 137.136 204.149 136.94 204.346C136.743 204.542 136.503 204.685 136.218 204.773C135.943 204.871 135.634 204.92 135.29 204.92C135.034 204.92 134.789 204.876 134.553 204.788C134.308 204.709 134.102 204.611 133.935 204.493C133.758 204.385 133.63 204.282 133.552 204.184L134.2 203.212ZM140.891 198.586L141.333 197.408H145.899L146.341 198.586H140.891ZM143.587 193.695L141.848 197.791L141.731 198.056L140.199 201.68H138.799L143.587 190.852L148.374 201.68H146.975L145.472 198.144L145.354 197.85L143.587 193.695Z" fill="#666666"/>
<path d="M35.9868 239.296H37.5352L41.176 248.189H41.3016L44.9424 239.296H46.4908V250.01H45.2772V241.87H45.1726L41.8247 250.01H40.6529L37.305 241.87H37.2004V250.01H35.9868V239.296ZM53.9883 246.725V241.975H55.2228V250.01H53.9883V248.65H53.9046C53.7163 249.058 53.4233 249.405 53.0258 249.691C52.6282 249.973 52.126 250.114 51.5192 250.114C51.017 250.114 50.5706 250.004 50.18 249.785C49.7895 249.562 49.4826 249.227 49.2594 248.78C49.0362 248.33 48.9246 247.764 48.9246 247.08V241.975H50.1591V246.997C50.1591 247.582 50.323 248.05 50.6508 248.398C50.9821 248.747 51.4041 248.922 51.9168 248.922C52.2237 248.922 52.5358 248.843 52.8531 248.686C53.174 248.529 53.4425 248.289 53.6587 247.964C53.8784 247.64 53.9883 247.227 53.9883 246.725ZM58.7185 239.296V250.01H57.484V239.296H58.7185ZM63.3441 250.198C62.8349 250.198 62.3729 250.102 61.9579 249.91C61.5429 249.715 61.2133 249.434 60.9692 249.068C60.7251 248.698 60.603 248.252 60.603 247.729C60.603 247.269 60.6937 246.895 60.875 246.609C61.0564 246.32 61.2987 246.093 61.6021 245.929C61.9055 245.765 62.2403 245.643 62.6065 245.563C62.9762 245.48 63.3476 245.413 63.7207 245.364C64.209 245.302 64.6048 245.255 64.9082 245.223C65.2151 245.188 65.4383 245.131 65.5778 245.051C65.7208 244.97 65.7923 244.831 65.7923 244.632V244.59C65.7923 244.074 65.651 243.673 65.3685 243.387C65.0895 243.101 64.6658 242.958 64.0974 242.958C63.508 242.958 63.0459 243.087 62.7111 243.345C62.3763 243.603 62.1409 243.879 62.0049 244.172L60.8332 243.753C61.0424 243.265 61.3214 242.885 61.6701 242.613C62.0224 242.337 62.406 242.146 62.821 242.037C63.2395 241.926 63.651 241.87 64.0555 241.87C64.3136 241.87 64.61 241.901 64.9448 241.964C65.2831 242.024 65.6092 242.147 65.923 242.336C66.2404 242.524 66.5037 242.808 66.7129 243.188C66.9222 243.568 67.0268 244.078 67.0268 244.716V250.01H65.7923V248.922H65.7295C65.6458 249.096 65.5063 249.283 65.311 249.481C65.1157 249.68 64.8559 249.849 64.5316 249.989C64.2072 250.128 63.8114 250.198 63.3441 250.198ZM63.5324 249.089C64.0207 249.089 64.4322 248.993 64.767 248.801C65.1052 248.609 65.3598 248.362 65.5307 248.058C65.7051 247.755 65.7923 247.436 65.7923 247.101V245.971C65.7399 246.034 65.6249 246.092 65.447 246.144C65.2726 246.193 65.0704 246.236 64.8402 246.275C64.6135 246.31 64.3921 246.341 64.1758 246.369C63.9631 246.393 63.7905 246.414 63.658 246.432C63.3371 246.473 63.0372 246.541 62.7582 246.636C62.4827 246.726 62.2595 246.864 62.0886 247.049C61.9212 247.23 61.8375 247.478 61.8375 247.792C61.8375 248.221 61.9962 248.545 62.3136 248.765C62.6344 248.981 63.0407 249.089 63.5324 249.089ZM69.2801 250.01V241.975H70.5146V250.01H69.2801ZM69.9078 240.636C69.6672 240.636 69.4597 240.554 69.2853 240.39C69.1144 240.226 69.029 240.029 69.029 239.799C69.029 239.568 69.1144 239.371 69.2853 239.207C69.4597 239.044 69.6672 238.962 69.9078 238.962C70.1484 238.962 70.3542 239.044 70.5251 239.207C70.6995 239.371 70.7866 239.568 70.7866 239.799C70.7866 240.029 70.6995 240.226 70.5251 240.39C70.3542 240.554 70.1484 240.636 69.9078 240.636ZM79.9528 250.177C79.2833 250.177 78.6921 250.008 78.1795 249.67C77.6668 249.328 77.2658 248.847 76.9763 248.226C76.6869 247.602 76.5422 246.864 76.5422 246.013C76.5422 245.169 76.6869 244.437 76.9763 243.816C77.2658 243.195 77.6686 242.716 78.1847 242.377C78.7009 242.039 79.2972 241.87 79.9738 241.87C80.4969 241.87 80.9101 241.957 81.2135 242.132C81.5204 242.302 81.7541 242.498 81.9145 242.717C82.0784 242.934 82.2057 243.112 82.2964 243.251H82.401V239.296H83.6355V250.01H82.4428V248.775H82.2964C82.2057 248.922 82.0767 249.106 81.9093 249.33C81.7419 249.549 81.503 249.746 81.1926 249.921C80.8822 250.092 80.469 250.177 79.9528 250.177ZM80.1202 249.068C80.6154 249.068 81.0339 248.939 81.3757 248.681C81.7175 248.419 81.9773 248.058 82.1551 247.598C82.333 247.134 82.4219 246.599 82.4219 245.992C82.4219 245.392 82.3347 244.867 82.1604 244.418C81.986 243.964 81.7279 243.612 81.3862 243.361C81.0444 243.106 80.6224 242.979 80.1202 242.979C79.5971 242.979 79.1612 243.113 78.8125 243.382C78.4672 243.647 78.2074 244.008 78.033 244.465C77.8621 244.918 77.7767 245.427 77.7767 245.992C77.7767 246.564 77.8639 247.084 78.0383 247.551C78.2161 248.015 78.4777 248.385 78.8229 248.66C79.1717 248.932 79.6041 249.068 80.1202 249.068ZM88.4324 250.198C87.9233 250.198 87.4612 250.102 87.0462 249.91C86.6312 249.715 86.3016 249.434 86.0575 249.068C85.8134 248.698 85.6913 248.252 85.6913 247.729C85.6913 247.269 85.782 246.895 85.9634 246.609C86.1447 246.32 86.3871 246.093 86.6905 245.929C86.9939 245.765 87.3287 245.643 87.6949 245.563C88.0645 245.48 88.4359 245.413 88.8091 245.364C89.2973 245.302 89.6931 245.255 89.9965 245.223C90.3034 245.188 90.5266 245.131 90.6661 245.051C90.8091 244.97 90.8806 244.831 90.8806 244.632V244.59C90.8806 244.074 90.7394 243.673 90.4569 243.387C90.1779 243.101 89.7542 242.958 89.1857 242.958C88.5963 242.958 88.1343 243.087 87.7995 243.345C87.4647 243.603 87.2293 243.879 87.0933 244.172L85.9215 243.753C86.1308 243.265 86.4097 242.885 86.7585 242.613C87.1107 242.337 87.4943 242.146 87.9093 242.037C88.3278 241.926 88.7393 241.87 89.1439 241.87C89.4019 241.87 89.6984 241.901 90.0332 241.964C90.3714 242.024 90.6975 242.147 91.0114 242.336C91.3287 242.524 91.592 242.808 91.8013 243.188C92.0105 243.568 92.1151 244.078 92.1151 244.716V250.01H90.8806V248.922H90.8178C90.7341 249.096 90.5946 249.283 90.3993 249.481C90.204 249.68 89.9442 249.849 89.6199 249.989C89.2956 250.128 88.8997 250.198 88.4324 250.198ZM88.6208 249.089C89.109 249.089 89.5205 248.993 89.8553 248.801C90.1936 248.609 90.4482 248.362 90.619 248.058C90.7934 247.755 90.8806 247.436 90.8806 247.101V245.971C90.8283 246.034 90.7132 246.092 90.5353 246.144C90.361 246.193 90.1587 246.236 89.9285 246.275C89.7019 246.31 89.4804 246.341 89.2642 246.369C89.0515 246.393 88.8788 246.414 88.7463 246.432C88.4255 246.473 88.1255 246.541 87.8466 246.636C87.5711 246.726 87.3479 246.864 87.177 247.049C87.0096 247.23 86.9259 247.478 86.9259 247.792C86.9259 248.221 87.0846 248.545 87.4019 248.765C87.7228 248.981 88.129 249.089 88.6208 249.089ZM94.3684 250.01V241.975H95.5611V243.188H95.6448C95.7913 242.791 96.0563 242.468 96.4399 242.221C96.8236 241.973 97.256 241.849 97.7373 241.849C97.8279 241.849 97.9413 241.851 98.0773 241.854C98.2133 241.858 98.3162 241.863 98.3859 241.87V243.126C98.3441 243.115 98.2482 243.099 98.0982 243.078C97.9517 243.054 97.7965 243.042 97.6326 243.042C97.242 243.042 96.8933 243.124 96.5864 243.288C96.283 243.448 96.0424 243.671 95.8645 243.957C95.6902 244.24 95.603 244.562 95.603 244.925V250.01H94.3684ZM99.8493 250.01V241.975H101.084V250.01H99.8493ZM100.477 240.636C100.236 240.636 100.029 240.554 99.8545 240.39C99.6837 240.226 99.5982 240.029 99.5982 239.799C99.5982 239.568 99.6837 239.371 99.8545 239.207C100.029 239.044 100.236 238.962 100.477 238.962C100.718 238.962 100.923 239.044 101.094 239.207C101.269 239.371 101.356 239.568 101.356 239.799C101.356 240.029 101.269 240.226 101.094 240.39C100.923 240.554 100.718 240.636 100.477 240.636Z" fill="#666666"/>
<path d="M36.1036 275.01V260.377H38.7748V275.01H36.1036ZM41.5893 275.01V260.377H46.3621C47.9071 260.377 49.2493 260.691 50.3885 261.32C51.5407 261.935 52.4311 262.793 53.0596 263.893C53.6882 264.98 54.0024 266.243 54.0024 267.684C54.0024 269.111 53.6882 270.381 53.0596 271.494C52.4311 272.594 51.5407 273.458 50.3885 274.087C49.2493 274.702 47.9071 275.01 46.3621 275.01H41.5893ZM44.2605 272.653H46.421C47.4161 272.653 48.2738 272.45 48.994 272.044C49.7272 271.625 50.2968 271.049 50.7027 270.315C51.1086 269.569 51.3116 268.692 51.3116 267.684C51.3116 266.662 51.1086 265.785 50.7027 265.052C50.2968 264.318 49.7272 263.749 48.994 263.343C48.2738 262.937 47.4161 262.734 46.421 262.734H44.2605V272.653ZM56.1282 275.01V260.377H61.5688C62.564 260.377 63.4413 260.56 64.2007 260.927C64.9733 261.281 65.5756 261.804 66.0077 262.498C66.4398 263.179 66.6558 264.011 66.6558 264.993C66.6558 266.001 66.4136 266.859 65.9291 267.566C65.4577 268.273 64.8161 268.797 64.0043 269.137L67.3629 275.01H64.3382L60.7439 268.587L62.4723 269.608H58.7994V275.01H56.1282ZM58.7994 267.251H61.6081C62.0926 267.251 62.5116 267.16 62.8651 266.976C63.2187 266.78 63.4936 266.512 63.69 266.171C63.8865 265.831 63.9847 265.438 63.9847 264.993C63.9847 264.534 63.8865 264.142 63.69 263.814C63.4936 263.474 63.2187 263.212 62.8651 263.029C62.5116 262.832 62.0926 262.734 61.6081 262.734H58.7994V267.251ZM76.9451 275.245C76.1464 275.245 75.3869 275.101 74.6668 274.813C73.9597 274.512 73.3508 274.093 72.8402 273.556C72.3426 273.006 72.0021 272.358 71.8188 271.612L74.1561 270.787C74.3918 271.455 74.7519 271.965 75.2364 272.319C75.7208 272.659 76.2904 272.829 76.9451 272.829C77.4689 272.829 77.9206 272.731 78.3004 272.535C78.6932 272.338 79.0009 272.057 79.2235 271.69C79.4461 271.311 79.5574 270.865 79.5574 270.355C79.5574 269.844 79.4461 269.412 79.2235 269.058C79.014 268.692 78.7128 268.41 78.32 268.214C77.9272 268.017 77.4623 267.919 76.9255 267.919C76.6767 267.919 76.4148 267.945 76.1398 267.998C75.878 268.05 75.6423 268.129 75.4328 268.233L74.8239 266.957L78.6146 262.636H72.6437V260.377H81.6197V262.479L77.8093 266.937L77.8486 265.935C78.7259 265.949 79.4919 266.138 80.1466 266.505C80.8013 266.872 81.312 267.376 81.6786 268.017C82.0452 268.659 82.2286 269.412 82.2286 270.276C82.2286 271.219 81.9994 272.07 81.5411 272.829C81.0828 273.576 80.4543 274.165 79.6556 274.597C78.8569 275.029 77.9534 275.245 76.9451 275.245ZM85.2204 278.074V276.797C85.6525 276.692 85.9995 276.489 86.2614 276.188C86.5364 275.9 86.7066 275.507 86.7721 275.01H85.6133V272.26H88.2059V273.949C88.2059 275.101 87.9505 276.024 87.4399 276.718C86.9423 277.412 86.2025 277.864 85.2204 278.074ZM97.1705 275.245C96.0051 275.245 94.9838 274.931 94.1065 274.303C93.2292 273.674 92.5417 272.79 92.0442 271.651C91.5597 270.512 91.3174 269.189 91.3174 267.684C91.3174 266.165 91.5597 264.842 92.0442 263.716C92.5286 262.59 93.2095 261.713 94.0868 261.084C94.9641 260.456 95.9855 260.141 97.1508 260.141C98.3424 260.141 99.3703 260.456 100.234 261.084C101.112 261.713 101.799 262.597 102.297 263.736C102.794 264.862 103.043 266.178 103.043 267.684C103.043 269.189 102.794 270.512 102.297 271.651C101.812 272.777 101.131 273.661 100.254 274.303C99.3768 274.931 98.3489 275.245 97.1705 275.245ZM97.1901 272.81C97.8579 272.81 98.4275 272.607 98.8989 272.201C99.3703 271.782 99.7304 271.193 99.9791 270.433C100.241 269.661 100.372 268.744 100.372 267.684C100.372 266.623 100.241 265.713 99.9791 264.953C99.7304 264.181 99.3637 263.592 98.8792 263.186C98.4079 262.78 97.8317 262.577 97.1508 262.577C96.4961 262.577 95.9331 262.78 95.4617 263.186C94.9903 263.592 94.6237 264.181 94.3618 264.953C94.113 265.713 93.9886 266.623 93.9886 267.684C93.9886 268.731 94.113 269.641 94.3618 270.414C94.6237 271.173 94.9903 271.762 95.4617 272.181C95.9462 272.6 96.5223 272.81 97.1901 272.81ZM111.076 275.245C109.911 275.245 108.89 274.931 108.012 274.303C107.135 273.674 106.448 272.79 105.95 271.651C105.466 270.512 105.223 269.189 105.223 267.684C105.223 266.165 105.466 264.842 105.95 263.716C106.435 262.59 107.116 261.713 107.993 261.084C108.87 260.456 109.891 260.141 111.057 260.141C112.248 260.141 113.276 260.456 114.14 261.084C115.018 261.713 115.705 262.597 116.203 263.736C116.7 264.862 116.949 266.178 116.949 267.684C116.949 269.189 116.7 270.512 116.203 271.651C115.718 272.777 115.037 273.661 114.16 274.303C113.283 274.931 112.255 275.245 111.076 275.245ZM111.096 272.81C111.764 272.81 112.334 272.607 112.805 272.201C113.276 271.782 113.636 271.193 113.885 270.433C114.147 269.661 114.278 268.744 114.278 267.684C114.278 266.623 114.147 265.713 113.885 264.953C113.636 264.181 113.27 263.592 112.785 263.186C112.314 262.78 111.738 262.577 111.057 262.577C110.402 262.577 109.839 262.78 109.368 263.186C108.896 263.592 108.53 264.181 108.268 264.953C108.019 265.713 107.895 266.623 107.895 267.684C107.895 268.731 108.019 269.641 108.268 270.414C108.53 271.173 108.896 271.762 109.368 272.181C109.852 272.6 110.428 272.81 111.096 272.81ZM124.982 275.245C123.817 275.245 122.796 274.931 121.918 274.303C121.041 273.674 120.354 272.79 119.856 271.651C119.372 270.512 119.129 269.189 119.129 267.684C119.129 266.165 119.372 264.842 119.856 263.716C120.341 262.59 121.022 261.713 121.899 261.084C122.776 260.456 123.797 260.141 124.963 260.141C126.154 260.141 127.182 260.456 128.046 261.084C128.924 261.713 129.611 262.597 130.109 263.736C130.606 264.862 130.855 266.178 130.855 267.684C130.855 269.189 130.606 270.512 130.109 271.651C129.624 272.777 128.943 273.661 128.066 274.303C127.189 274.931 126.161 275.245 124.982 275.245ZM125.002 272.81C125.67 272.81 126.24 272.607 126.711 272.201C127.182 271.782 127.542 271.193 127.791 270.433C128.053 269.661 128.184 268.744 128.184 267.684C128.184 266.623 128.053 265.713 127.791 264.953C127.542 264.181 127.176 263.592 126.691 263.186C126.22 262.78 125.644 262.577 124.963 262.577C124.308 262.577 123.745 262.78 123.274 263.186C122.802 263.592 122.436 264.181 122.174 264.953C121.925 265.713 121.801 266.623 121.801 267.684C121.801 268.731 121.925 269.641 122.174 270.414C122.436 271.173 122.802 271.762 123.274 272.181C123.758 272.6 124.334 272.81 125.002 272.81ZM133.959 278.074V276.797C134.391 276.692 134.738 276.489 135 276.188C135.275 275.9 135.445 275.507 135.51 275.01H134.351V272.26H136.944V273.949C136.944 275.101 136.689 276.024 136.178 276.718C135.68 277.412 134.941 277.864 133.959 278.074ZM145.909 275.245C144.743 275.245 143.722 274.931 142.845 274.303C141.967 273.674 141.28 272.79 140.782 271.651C140.298 270.512 140.056 269.189 140.056 267.684C140.056 266.165 140.298 264.842 140.782 263.716C141.267 262.59 141.948 261.713 142.825 261.084C143.702 260.456 144.724 260.141 145.889 260.141C147.081 260.141 148.108 260.456 148.973 261.084C149.85 261.713 150.537 262.597 151.035 263.736C151.532 264.862 151.781 266.178 151.781 267.684C151.781 269.189 151.532 270.512 151.035 271.651C150.55 272.777 149.87 273.661 148.992 274.303C148.115 274.931 147.087 275.245 145.909 275.245ZM145.928 272.81C146.596 272.81 147.166 272.607 147.637 272.201C148.108 271.782 148.468 271.193 148.717 270.433C148.979 269.661 149.11 268.744 149.11 267.684C149.11 266.623 148.979 265.713 148.717 264.953C148.468 264.181 148.102 263.592 147.617 263.186C147.146 262.78 146.57 262.577 145.889 262.577C145.234 262.577 144.671 262.78 144.2 263.186C143.728 263.592 143.362 264.181 143.1 264.953C142.851 265.713 142.727 266.623 142.727 267.684C142.727 268.731 142.851 269.641 143.1 270.414C143.362 271.173 143.728 271.762 144.2 272.181C144.684 272.6 145.26 272.81 145.928 272.81ZM159.815 275.245C158.649 275.245 157.628 274.931 156.751 274.303C155.873 273.674 155.186 272.79 154.688 271.651C154.204 270.512 153.962 269.189 153.962 267.684C153.962 266.165 154.204 264.842 154.688 263.716C155.173 262.59 155.854 261.713 156.731 261.084C157.608 260.456 158.63 260.141 159.795 260.141C160.987 260.141 162.014 260.456 162.879 261.084C163.756 261.713 164.443 262.597 164.941 263.736C165.438 264.862 165.687 266.178 165.687 267.684C165.687 269.189 165.438 270.512 164.941 271.651C164.456 272.777 163.776 273.661 162.898 274.303C162.021 274.931 160.993 275.245 159.815 275.245ZM159.834 272.81C160.502 272.81 161.072 272.607 161.543 272.201C162.014 271.782 162.374 271.193 162.623 270.433C162.885 269.661 163.016 268.744 163.016 267.684C163.016 266.623 162.885 265.713 162.623 264.953C162.374 264.181 162.008 263.592 161.523 263.186C161.052 262.78 160.476 262.577 159.795 262.577C159.14 262.577 158.577 262.78 158.106 263.186C157.634 263.592 157.268 264.181 157.006 264.953C156.757 265.713 156.633 266.623 156.633 267.684C156.633 268.731 156.757 269.641 157.006 270.414C157.268 271.173 157.634 271.762 158.106 272.181C158.59 272.6 159.166 272.81 159.834 272.81ZM173.721 275.245C172.555 275.245 171.534 274.931 170.657 274.303C169.779 273.674 169.092 272.79 168.594 271.651C168.11 270.512 167.868 269.189 167.868 267.684C167.868 266.165 168.11 264.842 168.594 263.716C169.079 262.59 169.76 261.713 170.637 261.084C171.514 260.456 172.536 260.141 173.701 260.141C174.893 260.141 175.92 260.456 176.785 261.084C177.662 261.713 178.349 262.597 178.847 263.736C179.344 264.862 179.593 266.178 179.593 267.684C179.593 269.189 179.344 270.512 178.847 271.651C178.362 272.777 177.682 273.661 176.804 274.303C175.927 274.931 174.899 275.245 173.721 275.245ZM173.74 272.81C174.408 272.81 174.978 272.607 175.449 272.201C175.92 271.782 176.28 271.193 176.529 270.433C176.791 269.661 176.922 268.744 176.922 267.684C176.922 266.623 176.791 265.713 176.529 264.953C176.28 264.181 175.914 263.592 175.429 263.186C174.958 262.78 174.382 262.577 173.701 262.577C173.046 262.577 172.483 262.78 172.012 263.186C171.54 263.592 171.174 264.181 170.912 264.953C170.663 265.713 170.539 266.623 170.539 267.684C170.539 268.731 170.663 269.641 170.912 270.414C171.174 271.173 171.54 271.762 172.012 272.181C172.496 272.6 173.072 272.81 173.74 272.81Z" fill="#E8604C"/>
<rect x="70" y="316" width="209" height="48" rx="24" fill="#E8604C"/>
<path d="M245.73 329.918C240.648 329.918 236.523 334.043 236.523 339.125C236.523 344.207 240.648 348.332 245.73 348.332C250.812 348.332 254.937 344.207 254.937 339.125C254.937 334.043 250.812 329.918 245.73 329.918ZM250.564 339.429C250.564 339.806 250.251 340.119 249.873 340.119C249.496 340.119 249.183 339.806 249.183 339.429V336.648L242.075 343.756C241.937 343.894 241.762 343.958 241.587 343.958C241.412 343.958 241.237 343.894 241.099 343.756C240.832 343.489 240.832 343.047 241.099 342.78L248.207 335.672H245.426C245.049 335.672 244.736 335.359 244.736 334.982C244.736 334.604 245.049 334.291 245.426 334.291H249.873C250.251 334.291 250.564 334.604 250.564 334.982V339.429Z" fill="white"/>
<path d="M110.85 336.977C110.85 337.527 110.718 338.042 110.453 338.523C110.197 339.005 109.79 339.393 109.23 339.687C108.68 339.982 107.983 340.129 107.138 340.129H105.415V344.077H103.352V333.795H107.138C107.934 333.795 108.611 333.932 109.171 334.207C109.731 334.482 110.148 334.86 110.423 335.342C110.708 335.823 110.85 336.368 110.85 336.977ZM107.05 338.464C107.619 338.464 108.042 338.337 108.317 338.081C108.592 337.816 108.729 337.448 108.729 336.977C108.729 335.975 108.169 335.474 107.05 335.474H105.415V338.464H107.05ZM119.901 339.82C119.901 340.114 119.881 340.379 119.842 340.615H113.876C113.925 341.204 114.131 341.666 114.495 342C114.858 342.334 115.305 342.501 115.835 342.501C116.601 342.501 117.146 342.172 117.47 341.514H119.695C119.459 342.299 119.007 342.948 118.339 343.458C117.672 343.959 116.852 344.209 115.879 344.209C115.094 344.209 114.387 344.038 113.758 343.694C113.139 343.34 112.653 342.844 112.3 342.206C111.956 341.568 111.784 340.831 111.784 339.996C111.784 339.152 111.956 338.41 112.3 337.772C112.644 337.134 113.125 336.643 113.743 336.299C114.362 335.955 115.074 335.783 115.879 335.783C116.655 335.783 117.348 335.95 117.956 336.284C118.575 336.618 119.051 337.095 119.385 337.713C119.729 338.322 119.901 339.024 119.901 339.82ZM117.765 339.23C117.755 338.7 117.564 338.278 117.19 337.964C116.817 337.64 116.361 337.478 115.82 337.478C115.31 337.478 114.878 337.635 114.524 337.949C114.18 338.253 113.969 338.681 113.891 339.23H117.765ZM124.529 344.209C123.861 344.209 123.262 344.092 122.732 343.856C122.202 343.61 121.779 343.281 121.465 342.869C121.161 342.457 120.994 342 120.964 341.499H123.041C123.081 341.813 123.233 342.074 123.498 342.28C123.773 342.486 124.112 342.589 124.514 342.589C124.907 342.589 125.212 342.511 125.428 342.353C125.654 342.196 125.766 341.995 125.766 341.749C125.766 341.484 125.629 341.288 125.354 341.16C125.089 341.023 124.662 340.875 124.072 340.718C123.464 340.571 122.963 340.419 122.57 340.262C122.187 340.105 121.853 339.864 121.568 339.54C121.293 339.216 121.156 338.779 121.156 338.229C121.156 337.777 121.283 337.365 121.539 336.991C121.804 336.618 122.177 336.324 122.658 336.108C123.149 335.892 123.724 335.783 124.382 335.783C125.354 335.783 126.13 336.029 126.709 336.52C127.289 337.001 127.608 337.654 127.667 338.479H125.693C125.663 338.155 125.526 337.9 125.28 337.713C125.045 337.517 124.726 337.419 124.323 337.419C123.95 337.419 123.66 337.487 123.454 337.625C123.257 337.762 123.159 337.954 123.159 338.199C123.159 338.474 123.297 338.685 123.572 338.833C123.847 338.97 124.274 339.113 124.853 339.26C125.442 339.407 125.929 339.559 126.312 339.717C126.695 339.874 127.024 340.119 127.298 340.453C127.583 340.777 127.731 341.209 127.74 341.749C127.74 342.221 127.608 342.643 127.343 343.016C127.087 343.389 126.714 343.684 126.223 343.9C125.742 344.106 125.177 344.209 124.529 344.209ZM128.903 339.967C128.903 339.142 129.065 338.41 129.389 337.772C129.723 337.134 130.17 336.643 130.73 336.299C131.299 335.955 131.933 335.783 132.63 335.783C133.239 335.783 133.769 335.906 134.221 336.152C134.682 336.397 135.051 336.707 135.326 337.08V335.916H137.403V344.077H135.326V342.884C135.06 343.267 134.692 343.586 134.221 343.841C133.759 344.087 133.224 344.209 132.615 344.209C131.928 344.209 131.299 344.033 130.73 343.679C130.17 343.326 129.723 342.83 129.389 342.191C129.065 341.543 128.903 340.802 128.903 339.967ZM135.326 339.996C135.326 339.496 135.227 339.068 135.031 338.715C134.835 338.352 134.569 338.077 134.236 337.89C133.902 337.694 133.543 337.595 133.16 337.595C132.777 337.595 132.424 337.689 132.1 337.875C131.775 338.062 131.51 338.337 131.304 338.7C131.108 339.054 131.009 339.476 131.009 339.967C131.009 340.458 131.108 340.89 131.304 341.263C131.51 341.627 131.775 341.907 132.1 342.103C132.433 342.299 132.787 342.398 133.16 342.398C133.543 342.398 133.902 342.304 134.236 342.118C134.569 341.921 134.835 341.646 135.031 341.293C135.227 340.929 135.326 340.497 135.326 339.996ZM143.939 335.798C144.911 335.798 145.697 336.108 146.296 336.726C146.895 337.335 147.195 338.19 147.195 339.289V344.077H145.132V339.569C145.132 338.921 144.97 338.425 144.646 338.081C144.322 337.728 143.88 337.551 143.321 337.551C142.751 337.551 142.299 337.728 141.965 338.081C141.641 338.425 141.479 338.921 141.479 339.569V344.077H139.417V335.916H141.479V336.932C141.754 336.579 142.103 336.304 142.525 336.108C142.957 335.901 143.429 335.798 143.939 335.798ZM156.216 344.18C155.499 344.18 154.851 344.057 154.272 343.812C153.702 343.566 153.25 343.213 152.916 342.751C152.582 342.29 152.411 341.745 152.401 341.116H154.61C154.64 341.538 154.787 341.872 155.052 342.118C155.327 342.363 155.7 342.486 156.172 342.486C156.653 342.486 157.031 342.373 157.306 342.147C157.581 341.911 157.719 341.607 157.719 341.234C157.719 340.929 157.625 340.679 157.439 340.483C157.252 340.286 157.016 340.134 156.732 340.026C156.457 339.908 156.074 339.78 155.583 339.643C154.915 339.447 154.37 339.255 153.947 339.068C153.535 338.872 153.177 338.582 152.872 338.199C152.578 337.807 152.43 337.286 152.43 336.638C152.43 336.029 152.582 335.499 152.887 335.047C153.191 334.595 153.619 334.251 154.168 334.016C154.718 333.77 155.347 333.648 156.054 333.648C157.115 333.648 157.974 333.908 158.632 334.428C159.3 334.939 159.668 335.656 159.737 336.579H157.468C157.449 336.225 157.296 335.936 157.011 335.71C156.737 335.474 156.368 335.356 155.907 335.356C155.504 335.356 155.18 335.459 154.934 335.666C154.699 335.872 154.581 336.171 154.581 336.564C154.581 336.839 154.669 337.07 154.846 337.257C155.033 337.433 155.259 337.581 155.524 337.698C155.799 337.807 156.182 337.934 156.673 338.081C157.34 338.278 157.886 338.474 158.308 338.671C158.73 338.867 159.093 339.162 159.398 339.555C159.702 339.947 159.855 340.463 159.855 341.101C159.855 341.651 159.712 342.162 159.427 342.633C159.143 343.105 158.725 343.483 158.175 343.768C157.625 344.043 156.972 344.18 156.216 344.18ZM169.229 339.82C169.229 340.114 169.209 340.379 169.17 340.615H163.204C163.253 341.204 163.459 341.666 163.823 342C164.186 342.334 164.633 342.501 165.163 342.501C165.929 342.501 166.474 342.172 166.798 341.514H169.023C168.787 342.299 168.335 342.948 167.667 343.458C167 343.959 166.18 344.209 165.207 344.209C164.422 344.209 163.715 344.038 163.086 343.694C162.467 343.34 161.981 342.844 161.628 342.206C161.284 341.568 161.112 340.831 161.112 339.996C161.112 339.152 161.284 338.41 161.628 337.772C161.971 337.134 162.453 336.643 163.071 336.299C163.69 335.955 164.402 335.783 165.207 335.783C165.983 335.783 166.675 335.95 167.284 336.284C167.903 336.618 168.379 337.095 168.713 337.713C169.057 338.322 169.229 339.024 169.229 339.82ZM167.093 339.23C167.083 338.7 166.892 338.278 166.518 337.964C166.145 337.64 165.689 337.478 165.148 337.478C164.638 337.478 164.206 337.635 163.852 337.949C163.508 338.253 163.297 338.681 163.219 339.23H167.093ZM175.566 344.077L172.796 340.6V344.077H170.734V333.176H172.796V339.378L175.536 335.916H178.217L174.623 340.011L178.247 344.077H175.566ZM178.806 339.967C178.806 339.142 178.968 338.41 179.292 337.772C179.626 337.134 180.073 336.643 180.633 336.299C181.203 335.955 181.836 335.783 182.533 335.783C183.142 335.783 183.672 335.906 184.124 336.152C184.586 336.397 184.954 336.707 185.229 337.08V335.916H187.306V344.077H185.229V342.884C184.964 343.267 184.596 343.586 184.124 343.841C183.663 344.087 183.127 344.209 182.519 344.209C181.831 344.209 181.203 344.033 180.633 343.679C180.073 343.326 179.626 342.83 179.292 342.191C178.968 341.543 178.806 340.802 178.806 339.967ZM185.229 339.996C185.229 339.496 185.131 339.068 184.934 338.715C184.738 338.352 184.473 338.077 184.139 337.89C183.805 337.694 183.447 337.595 183.064 337.595C182.681 337.595 182.327 337.689 182.003 337.875C181.679 338.062 181.414 338.337 181.207 338.7C181.011 339.054 180.913 339.476 180.913 339.967C180.913 340.458 181.011 340.89 181.207 341.263C181.414 341.627 181.679 341.907 182.003 342.103C182.337 342.299 182.69 342.398 183.064 342.398C183.447 342.398 183.805 342.304 184.139 342.118C184.473 341.921 184.738 341.646 184.934 341.293C185.131 340.929 185.229 340.497 185.229 339.996ZM191.383 337.183C191.648 336.751 191.991 336.412 192.414 336.166C192.846 335.921 193.337 335.798 193.887 335.798V337.964H193.342C192.694 337.964 192.203 338.116 191.869 338.42C191.545 338.725 191.383 339.255 191.383 340.011V344.077H189.32V335.916H191.383V337.183ZM194.746 339.967C194.746 339.142 194.908 338.41 195.232 337.772C195.566 337.134 196.012 336.643 196.572 336.299C197.142 335.955 197.775 335.783 198.472 335.783C199.081 335.783 199.612 335.906 200.063 336.152C200.525 336.397 200.893 336.707 201.168 337.08V335.916H203.245V344.077H201.168V342.884C200.903 343.267 200.535 343.586 200.063 343.841C199.602 344.087 199.067 344.209 198.458 344.209C197.77 344.209 197.142 344.033 196.572 343.679C196.012 343.326 195.566 342.83 195.232 342.191C194.908 341.543 194.746 340.802 194.746 339.967ZM201.168 339.996C201.168 339.496 201.07 339.068 200.874 338.715C200.677 338.352 200.412 338.077 200.078 337.89C199.744 337.694 199.386 337.595 199.003 337.595C198.62 337.595 198.266 337.689 197.942 337.875C197.618 338.062 197.353 338.337 197.147 338.7C196.95 339.054 196.852 339.476 196.852 339.967C196.852 340.458 196.95 340.89 197.147 341.263C197.353 341.627 197.618 341.907 197.942 342.103C198.276 342.299 198.63 342.398 199.003 342.398C199.386 342.398 199.744 342.304 200.078 342.118C200.412 341.921 200.677 341.646 200.874 341.293C201.07 340.929 201.168 340.497 201.168 339.996ZM209.782 335.798C210.754 335.798 211.54 336.108 212.139 336.726C212.738 337.335 213.037 338.19 213.037 339.289V344.077H210.975V339.569C210.975 338.921 210.813 338.425 210.489 338.081C210.165 337.728 209.723 337.551 209.163 337.551C208.593 337.551 208.142 337.728 207.808 338.081C207.484 338.425 207.322 338.921 207.322 339.569V344.077H205.259V335.916H207.322V336.932C207.597 336.579 207.945 336.304 208.368 336.108C208.8 335.901 209.271 335.798 209.782 335.798ZM218.195 335.783C218.804 335.783 219.339 335.906 219.801 336.152C220.262 336.387 220.626 336.697 220.891 337.08V335.916H222.968V344.136C222.968 344.892 222.815 345.565 222.511 346.154C222.207 346.753 221.75 347.224 221.141 347.568C220.532 347.922 219.796 348.098 218.931 348.098C217.773 348.098 216.82 347.828 216.074 347.288C215.337 346.748 214.92 346.012 214.822 345.079H216.869C216.977 345.452 217.208 345.746 217.562 345.962C217.925 346.188 218.362 346.301 218.873 346.301C219.472 346.301 219.958 346.12 220.331 345.756C220.704 345.403 220.891 344.863 220.891 344.136V342.869C220.626 343.252 220.257 343.571 219.786 343.826C219.324 344.082 218.794 344.209 218.195 344.209C217.508 344.209 216.879 344.033 216.309 343.679C215.74 343.326 215.288 342.83 214.954 342.191C214.63 341.543 214.468 340.802 214.468 339.967C214.468 339.142 214.63 338.41 214.954 337.772C215.288 337.134 215.735 336.643 216.295 336.299C216.864 335.955 217.498 335.783 218.195 335.783ZM220.891 339.996C220.891 339.496 220.792 339.068 220.596 338.715C220.4 338.352 220.134 338.077 219.801 337.89C219.467 337.694 219.108 337.595 218.725 337.595C218.342 337.595 217.989 337.689 217.665 337.875C217.341 338.062 217.075 338.337 216.869 338.7C216.673 339.054 216.575 339.476 216.575 339.967C216.575 340.458 216.673 340.89 216.869 341.263C217.075 341.627 217.341 341.907 217.665 342.103C217.999 342.299 218.352 342.398 218.725 342.398C219.108 342.398 219.467 342.304 219.801 342.118C220.134 341.921 220.4 341.646 220.596 341.293C220.792 340.929 220.891 340.497 220.891 339.996Z" fill="white"/>
<defs>
<filter id="filter0_d_317_3924" x="0.317307" y="0.317307" width="347.401" height="390.365" filterUnits="userSpaceOnUse" color-interpolation-filters="sRGB">
<feFlood flood-opacity="0" result="BackgroundImageFix"/>
<feColorMatrix in="SourceAlpha" type="matrix" values="0 0 0 0 0 0 0 0 0 0 0 0 0 0 0 0 0 0 127 0" result="hardAlpha"/>
<feOffset/>
<feGaussianBlur stdDeviation="1.84135"/>
<feComposite in2="hardAlpha" operator="out"/>
<feColorMatrix type="matrix" values="0 0 0 0 0.909804 0 0 0 0 0.376471 0 0 0 0 0.298039 0 0 0 0.34 0"/>
<feBlend mode="normal" in2="BackgroundImageFix" result="effect1_dropShadow_317_3924"/>
<feBlend mode="normal" in="SourceGraphic" in2="effect1_dropShadow_317_3924" result="shape"/>
</filter>
</defs>
</svg>
