<svg width="348" height="325" viewBox="0 0 348 325" fill="none" xmlns="http://www.w3.org/2000/svg">
<g filter="url(#filter0_d_251_1450)">
<rect x="4" y="4" width="340" height="317" rx="18.4135" fill="white"/>
</g>
<path d="M41.2201 175.308L34.946 157.931H37.395L42.7128 173.208H42.223L47.5408 157.931H49.9898L43.7391 175.308H41.2201ZM51.9255 175.308V162.736H54.0946V175.308H51.9255ZM51.9255 160.73V157.931H54.0946V160.73H51.9255ZM61.9618 175.588C60.7023 175.588 59.6061 175.277 58.6732 174.655C57.7402 174.033 57.0794 173.193 56.6906 172.136L58.4166 171.296C58.7742 172.042 59.264 172.633 59.886 173.069C60.508 173.504 61.1999 173.722 61.9618 173.722C62.646 173.722 63.2135 173.558 63.6644 173.232C64.1154 172.905 64.3408 172.478 64.3408 171.949C64.3408 171.576 64.232 171.28 64.0143 171.063C63.8122 170.829 63.5634 170.651 63.2679 170.526C62.9725 170.386 62.7004 170.285 62.4516 170.223L60.5624 169.687C59.4273 169.36 58.5954 168.894 58.0667 168.287C57.5536 167.681 57.2971 166.973 57.2971 166.165C57.2971 165.418 57.4837 164.773 57.8568 164.229C58.2456 163.669 58.7665 163.234 59.4195 162.923C60.0881 162.612 60.8345 162.456 61.6586 162.456C62.7626 162.456 63.75 162.736 64.6207 163.296C65.507 163.856 66.1368 164.641 66.5099 165.652L64.7373 166.468C64.4574 165.815 64.0376 165.302 63.4778 164.929C62.9181 164.54 62.2883 164.345 61.5886 164.345C60.9511 164.345 60.4458 164.509 60.0726 164.835C59.6994 165.146 59.5128 165.543 59.5128 166.025C59.5128 166.382 59.6061 166.678 59.7927 166.911C59.9793 167.129 60.2048 167.3 60.4691 167.424C60.7334 167.533 60.99 167.626 61.2388 167.704L63.2913 168.311C64.3175 168.606 65.1105 169.065 65.6703 169.687C66.2456 170.309 66.5333 171.055 66.5333 171.926C66.5333 172.625 66.3389 173.255 65.9502 173.815C65.5614 174.375 65.025 174.81 64.3408 175.121C63.6567 175.432 62.8637 175.588 61.9618 175.588ZM73.0579 175.588C72.2338 175.588 71.503 175.44 70.8655 175.144C70.2435 174.833 69.7537 174.414 69.3961 173.885C69.0384 173.341 68.8596 172.719 68.8596 172.019C68.8596 171.35 68.9996 170.752 69.2794 170.223C69.5749 169.679 70.0258 169.22 70.6322 168.847C71.2542 168.474 72.0316 168.209 72.9646 168.054L77.6293 167.284V169.104L73.4544 169.803C72.6458 169.943 72.055 170.2 71.6818 170.573C71.3241 170.946 71.1453 171.405 71.1453 171.949C71.1453 172.462 71.3475 172.89 71.7518 173.232C72.1716 173.574 72.6925 173.745 73.3144 173.745C74.1074 173.745 74.7916 173.582 75.3669 173.255C75.9578 172.913 76.4165 172.454 76.743 171.879C77.0851 171.304 77.2561 170.666 77.2561 169.966V166.771C77.2561 166.087 76.9996 165.535 76.4865 165.115C75.9889 164.68 75.3281 164.462 74.504 164.462C73.7887 164.462 73.1512 164.649 72.5914 165.022C72.0472 165.379 71.6429 165.862 71.3786 166.468L69.4894 165.488C69.7226 164.913 70.0958 164.4 70.6089 163.949C71.122 163.482 71.7207 163.117 72.4048 162.853C73.089 162.588 73.8042 162.456 74.5506 162.456C75.5146 162.456 76.3621 162.643 77.0929 163.016C77.8237 163.374 78.3912 163.879 78.7955 164.532C79.2153 165.17 79.4253 165.916 79.4253 166.771V175.308H77.3028V172.929L77.6993 173.069C77.435 173.566 77.0773 174.001 76.6264 174.375C76.1755 174.748 75.6468 175.043 75.0404 175.261C74.434 175.479 73.7731 175.588 73.0579 175.588ZM85.3972 175.308L91.6247 157.931H94.3302L100.558 175.308H98.1087L96.6859 171.226H89.269L87.8462 175.308H85.3972ZM89.992 169.127H95.9629L92.6509 159.587H93.304L89.992 169.127ZM102.491 175.308V162.736H104.613V165.302L104.31 164.905C104.621 164.112 105.118 163.506 105.803 163.086C106.487 162.666 107.256 162.456 108.112 162.456C109.091 162.456 109.97 162.728 110.747 163.273C111.54 163.817 112.084 164.532 112.38 165.418L111.773 165.442C112.1 164.462 112.652 163.724 113.429 163.226C114.207 162.713 115.07 162.456 116.018 162.456C116.889 162.456 117.674 162.658 118.374 163.063C119.089 163.467 119.657 164.027 120.077 164.742C120.497 165.457 120.706 166.266 120.706 167.168V175.308H118.514V167.867C118.514 167.168 118.39 166.577 118.141 166.095C117.892 165.613 117.55 165.24 117.115 164.975C116.695 164.695 116.197 164.555 115.622 164.555C115.062 164.555 114.557 164.695 114.106 164.975C113.67 165.24 113.321 165.62 113.056 166.118C112.807 166.6 112.683 167.183 112.683 167.867V175.308H110.491V167.867C110.491 167.168 110.366 166.577 110.117 166.095C109.869 165.613 109.527 165.24 109.091 164.975C108.671 164.695 108.174 164.555 107.598 164.555C107.039 164.555 106.533 164.695 106.082 164.975C105.647 165.24 105.297 165.62 105.033 166.118C104.784 166.6 104.66 167.183 104.66 167.867V175.308H102.491ZM129.571 175.588C128.359 175.588 127.278 175.3 126.329 174.725C125.381 174.149 124.635 173.364 124.09 172.369C123.546 171.358 123.274 170.231 123.274 168.987C123.274 167.727 123.538 166.608 124.067 165.628C124.611 164.649 125.342 163.879 126.259 163.319C127.192 162.744 128.234 162.456 129.385 162.456C130.318 162.456 131.142 162.627 131.857 162.969C132.588 163.296 133.202 163.747 133.7 164.322C134.213 164.882 134.602 165.527 134.866 166.258C135.146 166.973 135.286 167.72 135.286 168.497C135.286 168.668 135.27 168.862 135.239 169.08C135.224 169.282 135.2 169.477 135.169 169.663H124.86V167.797H133.91L132.883 168.637C133.023 167.828 132.946 167.105 132.65 166.468C132.355 165.83 131.919 165.325 131.344 164.952C130.769 164.579 130.116 164.392 129.385 164.392C128.654 164.392 127.985 164.579 127.379 164.952C126.773 165.325 126.298 165.862 125.956 166.561C125.63 167.245 125.498 168.062 125.56 169.01C125.498 169.928 125.638 170.736 125.98 171.436C126.337 172.12 126.835 172.656 127.472 173.045C128.125 173.418 128.833 173.605 129.595 173.605C130.434 173.605 131.142 173.411 131.717 173.022C132.293 172.633 132.759 172.136 133.117 171.529L134.936 172.462C134.687 173.037 134.298 173.566 133.77 174.048C133.257 174.515 132.642 174.888 131.927 175.168C131.227 175.448 130.442 175.588 129.571 175.588ZM138.114 175.308V162.736H140.236V165.045L140.003 164.719C140.299 164.003 140.75 163.475 141.356 163.133C141.962 162.775 142.701 162.596 143.572 162.596H144.341V164.649H143.245C142.359 164.649 141.644 164.929 141.099 165.488C140.555 166.033 140.283 166.81 140.283 167.821V175.308H138.114ZM146.268 175.308V162.736H148.437V175.308H146.268ZM146.268 160.73V157.931H148.437V160.73H146.268ZM157.634 175.588C156.405 175.588 155.309 175.3 154.345 174.725C153.397 174.149 152.65 173.364 152.106 172.369C151.562 171.374 151.29 170.254 151.29 169.01C151.29 167.751 151.562 166.631 152.106 165.652C152.65 164.672 153.397 163.895 154.345 163.319C155.309 162.744 156.405 162.456 157.634 162.456C158.458 162.456 159.228 162.604 159.943 162.899C160.658 163.195 161.288 163.591 161.832 164.089C162.376 164.586 162.773 165.17 163.022 165.838L161.086 166.771C160.79 166.118 160.339 165.589 159.733 165.185C159.127 164.765 158.427 164.555 157.634 164.555C156.872 164.555 156.18 164.75 155.558 165.138C154.952 165.527 154.47 166.056 154.112 166.724C153.754 167.393 153.576 168.163 153.576 169.034C153.576 169.873 153.754 170.635 154.112 171.319C154.47 171.988 154.952 172.517 155.558 172.905C156.18 173.294 156.872 173.488 157.634 173.488C158.427 173.488 159.127 173.286 159.733 172.882C160.339 172.462 160.79 171.91 161.086 171.226L163.022 172.206C162.773 172.859 162.376 173.442 161.832 173.955C161.288 174.452 160.658 174.849 159.943 175.144C159.228 175.44 158.458 175.588 157.634 175.588ZM169.382 175.588C168.558 175.588 167.827 175.44 167.19 175.144C166.568 174.833 166.078 174.414 165.72 173.885C165.363 173.341 165.184 172.719 165.184 172.019C165.184 171.35 165.324 170.752 165.604 170.223C165.899 169.679 166.35 169.22 166.956 168.847C167.578 168.474 168.356 168.209 169.289 168.054L173.954 167.284V169.104L169.779 169.803C168.97 169.943 168.379 170.2 168.006 170.573C167.648 170.946 167.47 171.405 167.47 171.949C167.47 172.462 167.672 172.89 168.076 173.232C168.496 173.574 169.017 173.745 169.639 173.745C170.432 173.745 171.116 173.582 171.691 173.255C172.282 172.913 172.741 172.454 173.067 171.879C173.409 171.304 173.58 170.666 173.58 169.966V166.771C173.58 166.087 173.324 165.535 172.811 165.115C172.313 164.68 171.652 164.462 170.828 164.462C170.113 164.462 169.475 164.649 168.916 165.022C168.371 165.379 167.967 165.862 167.703 166.468L165.814 165.488C166.047 164.913 166.42 164.4 166.933 163.949C167.446 163.482 168.045 163.117 168.729 162.853C169.413 162.588 170.128 162.456 170.875 162.456C171.839 162.456 172.686 162.643 173.417 163.016C174.148 163.374 174.715 163.879 175.12 164.532C175.54 165.17 175.749 165.916 175.749 166.771V175.308H173.627V172.929L174.024 173.069C173.759 173.566 173.402 174.001 172.951 174.375C172.5 174.748 171.971 175.043 171.365 175.261C170.758 175.479 170.097 175.588 169.382 175.588Z" fill="#313041"/>
<path fill-rule="evenodd" clip-rule="evenodd" d="M46.3224 54.868H85.6287V44.2048C85.6287 42.5292 84.4235 41.475 82.8031 41.8571L46.025 50.5188C44.2684 50.9322 42.7852 52.8554 42.7852 54.7198V56.2122C43.7288 55.3772 44.9662 54.868 46.3224 54.868ZM72.6407 84.8083C72.1915 87.6155 71.4144 90.1381 70.3243 91.8349C74.123 90.871 77.2726 88.259 78.9621 84.8083H72.6407ZM63.3171 84.8083H70.8279C70.0343 89.5139 68.3651 92.2409 67.0725 92.2409C65.7799 92.2409 64.1107 89.5139 63.3171 84.8083ZM63.8207 91.8349C62.7306 90.1381 61.9536 87.6155 61.5043 84.8083H55.1811C56.8724 88.2599 60.022 90.871 63.8207 91.8349ZM72.8783 75.0124C73.1572 77.639 73.1572 80.3771 72.8783 83.0047H79.6867C80.5116 80.4066 80.5116 77.6114 79.6867 75.0124H72.8783ZM63.0703 75.0124C62.7905 77.5829 62.7905 80.4333 63.0703 83.0047H71.0756C71.3546 80.4443 71.3536 77.5727 71.0756 75.0124H63.0703ZM61.0568 79.009C61.0568 77.6759 61.1268 76.3262 61.2658 75.0133H54.4593C53.6334 77.6096 53.6334 80.4093 54.4593 83.0056H61.2667C61.1268 81.6909 61.0568 80.3421 61.0568 79.009ZM70.3243 66.1822C71.4144 67.879 72.1915 70.4016 72.6407 73.2088H78.963C77.2726 69.7581 74.123 67.1461 70.3243 66.1822ZM67.0725 65.7771C68.3651 65.7771 70.0334 68.505 70.8279 73.2097H63.3171C64.1107 68.5041 65.7799 65.7771 67.0725 65.7771ZM61.5043 73.2088C61.9536 70.4016 62.7306 67.879 63.8207 66.1822C60.022 67.1461 56.8724 69.7572 55.182 73.2088H61.5043ZM87.8236 56.6716C89.7726 56.6716 91.3599 58.2579 91.3599 60.2089V117.607C91.3599 119.557 89.7726 121.145 87.8236 121.145H46.3224C44.3724 121.145 42.7852 119.557 42.7852 117.607V60.2089C42.7852 58.2579 44.3724 56.6716 46.3224 56.6716H87.8236ZM52.0361 79.009C52.0361 70.7183 58.7828 63.9735 67.0725 63.9735C75.3623 63.9735 82.108 70.7183 82.108 79.009C82.108 87.2997 75.3623 94.0454 67.0725 94.0454C58.7828 94.0454 52.0361 87.2997 52.0361 79.009ZM54.6407 106.948C53.4539 106.948 53.4539 108.751 54.6407 108.751H79.5034C80.6902 108.751 80.6902 106.948 79.5034 106.948H54.6407ZM79.5044 112.238H54.6407C53.4539 112.238 53.453 114.042 54.6407 114.042H79.5034C80.6911 114.042 80.6911 112.238 79.5044 112.238ZM59.1501 101.657C59.1501 102.155 59.5543 102.559 60.0515 102.559H74.0926C75.2794 102.559 75.2794 100.755 74.0926 100.755H60.0524C59.5543 100.754 59.1501 101.159 59.1501 101.657Z" fill="#E8604C"/>
<path d="M34.8368 192.546V191.368H41.392V192.546H38.7404V201.679H37.4883V192.546H34.8368ZM42.7183 196.524C42.7183 197.299 42.8852 197.992 43.2191 198.601C43.5629 199.21 44.0293 199.691 44.6186 200.044C45.2078 200.398 45.8756 200.575 46.622 200.575C47.3781 200.575 48.0459 200.398 48.6253 200.044C49.2146 199.691 49.6761 199.21 50.01 198.601C50.3537 197.992 50.5256 197.299 50.5256 196.524C50.5256 195.748 50.3537 195.056 50.01 194.447C49.6761 193.838 49.2146 193.357 48.6253 193.003C48.0459 192.649 47.3781 192.473 46.622 192.473C45.8756 192.473 45.2078 192.649 44.6186 193.003C44.0293 193.357 43.5629 193.838 43.2191 194.447C42.8852 195.056 42.7183 195.748 42.7183 196.524ZM41.3925 196.524C41.3925 195.767 41.5202 195.07 41.7755 194.432C42.0407 193.784 42.409 193.224 42.8803 192.753C43.3517 192.271 43.9066 191.898 44.5449 191.633C45.1832 191.358 45.8756 191.221 46.622 191.221C47.3781 191.221 48.0705 191.358 48.699 191.633C49.3373 191.898 49.8922 192.271 50.3636 192.753C50.835 193.224 51.1983 193.784 51.4536 194.432C51.7188 195.07 51.8514 195.767 51.8514 196.524C51.8514 197.27 51.7188 197.967 51.4536 198.615C51.1983 199.264 50.835 199.828 50.3636 200.309C49.8922 200.781 49.3373 201.154 48.699 201.429C48.0705 201.694 47.3781 201.827 46.622 201.827C45.8756 201.827 45.1832 201.694 44.5449 201.429C43.9066 201.154 43.3517 200.781 42.8803 200.309C42.409 199.828 42.0407 199.264 41.7755 198.615C41.5202 197.967 41.3925 197.27 41.3925 196.524ZM53.546 191.368H54.7981V198.291C54.7981 198.998 54.9896 199.568 55.3726 200C55.7556 200.432 56.3154 200.648 57.0519 200.648C57.7885 200.648 58.3482 200.432 58.7312 200C59.1142 199.568 59.3057 198.998 59.3057 198.291V191.368H60.5578V198.291C60.5578 198.802 60.4744 199.273 60.3074 199.706C60.1503 200.138 59.9146 200.511 59.6003 200.825C59.2959 201.139 58.9276 201.385 58.4955 201.562C58.0634 201.738 57.5822 201.827 57.0519 201.827C56.5216 201.827 56.0404 201.738 55.6083 201.562C55.1762 201.385 54.803 201.139 54.4888 200.825C54.1843 200.511 53.9486 200.138 53.7817 199.706C53.6246 199.273 53.546 198.802 53.546 198.291V191.368ZM64.6821 196.597H66.0815L69.7642 201.679H68.2175L64.6821 196.597ZM62.8408 191.368H64.0929V201.679H62.8408V191.368ZM63.5331 192.473V191.368H65.6396C66.3074 191.368 66.9015 191.496 67.422 191.751C67.9523 191.996 68.3697 192.35 68.6741 192.812C68.9884 193.273 69.1455 193.823 69.1455 194.461C69.1455 195.09 68.9884 195.64 68.6741 196.111C68.3697 196.573 67.9523 196.931 67.422 197.187C66.9015 197.432 66.3074 197.555 65.6396 197.555H63.5331V196.45H65.6396C66.0815 196.45 66.4694 196.371 66.8033 196.214C67.1471 196.057 67.4122 195.831 67.5988 195.537C67.7952 195.242 67.8934 194.884 67.8934 194.461C67.8934 194.039 67.7952 193.681 67.5988 193.386C67.4122 193.091 67.1471 192.866 66.8033 192.708C66.4694 192.551 66.0815 192.473 65.6396 192.473H63.5331ZM71.0837 191.368H72.3358V201.679H71.0837V191.368ZM75.0774 198.557C75.3131 198.969 75.5586 199.332 75.814 199.647C76.0791 199.961 76.3737 200.206 76.6978 200.383C77.0219 200.56 77.3902 200.648 77.8026 200.648C78.3526 200.648 78.7945 200.496 79.1284 200.192C79.4623 199.887 79.6292 199.499 79.6292 199.028C79.6292 198.566 79.5212 198.198 79.3052 197.923C79.0891 197.648 78.8043 197.427 78.4508 197.26C78.1071 197.083 77.7388 196.926 77.346 196.789C77.0906 196.7 76.8058 196.588 76.4916 196.45C76.1773 196.303 75.8778 196.121 75.593 195.905C75.3082 195.679 75.0725 195.404 74.8859 195.08C74.7092 194.756 74.6208 194.358 74.6208 193.887C74.6208 193.376 74.7484 192.92 75.0038 192.517C75.2591 192.114 75.6126 191.8 76.0644 191.574C76.5161 191.338 77.0317 191.221 77.6111 191.221C78.1709 191.221 78.657 191.329 79.0695 191.545C79.4917 191.751 79.8502 192.021 80.1448 192.355C80.4394 192.679 80.6702 193.023 80.8372 193.386L79.7618 194.005C79.6341 193.749 79.4721 193.499 79.2757 193.253C79.0793 193.008 78.8387 192.807 78.5539 192.649C78.2789 192.492 77.9401 192.414 77.5375 192.414C76.9777 192.414 76.5701 192.551 76.3148 192.826C76.0595 193.091 75.9318 193.391 75.9318 193.725C75.9318 194.01 76.0055 194.275 76.1528 194.52C76.3001 194.756 76.5456 194.982 76.8893 195.198C77.2428 195.404 77.7191 195.61 78.3182 195.817C78.5932 195.915 78.8829 196.042 79.1873 196.2C79.4917 196.357 79.7716 196.558 80.027 196.804C80.2921 197.039 80.5082 197.329 80.6751 197.673C80.8421 198.007 80.9255 198.409 80.9255 198.881C80.9255 199.332 80.8372 199.74 80.6604 200.103C80.4934 200.467 80.2577 200.776 79.9533 201.031C79.6587 201.287 79.3199 201.483 78.9369 201.621C78.5637 201.758 78.1709 201.827 77.7584 201.827C77.1987 201.827 76.6782 201.709 76.197 201.473C75.7256 201.228 75.3082 200.909 74.9448 200.516C74.5913 200.113 74.3016 199.686 74.0757 199.234L75.0774 198.557ZM81.7336 192.546V191.368H88.2887V192.546H85.6372V201.679H84.3851V192.546H81.7336ZM93.1533 191.368H94.3318L88.3658 203.889H87.1874L93.1533 191.368ZM96.713 196.229V195.537H98.3776C98.7213 195.537 99.0307 195.478 99.3056 195.36C99.5806 195.242 99.7967 195.07 99.9538 194.844C100.111 194.618 100.189 194.344 100.189 194.019C100.189 193.528 100.018 193.15 99.6739 192.885C99.3302 192.61 98.8981 192.473 98.3776 192.473H96.9782V200.575H98.5249C98.9668 200.575 99.3547 200.496 99.6886 200.339C100.032 200.182 100.298 199.956 100.484 199.661C100.681 199.367 100.779 199.008 100.779 198.586C100.779 198.272 100.725 197.992 100.617 197.746C100.509 197.501 100.352 197.295 100.145 197.128C99.9489 196.961 99.7132 196.838 99.4382 196.759C99.1632 196.671 98.8588 196.627 98.5249 196.627H96.713V195.934H98.5249C99.0257 195.934 99.4873 195.988 99.9096 196.096C100.332 196.205 100.7 196.371 101.014 196.597C101.338 196.813 101.589 197.093 101.766 197.437C101.942 197.781 102.031 198.188 102.031 198.66C102.031 199.337 101.874 199.902 101.559 200.354C101.255 200.796 100.838 201.129 100.307 201.355C99.7868 201.571 99.1927 201.679 98.5249 201.679H95.7261V191.368H98.3776C98.9963 191.368 99.5315 191.461 99.9832 191.648C100.445 191.834 100.803 192.119 101.059 192.502C101.314 192.875 101.442 193.357 101.442 193.946C101.442 194.427 101.314 194.839 101.059 195.183C100.803 195.527 100.445 195.787 99.9832 195.964C99.5315 196.141 98.9963 196.229 98.3776 196.229H96.713ZM103.867 191.368H105.119V198.291C105.119 198.998 105.31 199.568 105.693 200C106.076 200.432 106.636 200.648 107.372 200.648C108.109 200.648 108.669 200.432 109.052 200C109.435 199.568 109.626 198.998 109.626 198.291V191.368H110.878V198.291C110.878 198.802 110.795 199.273 110.628 199.706C110.471 200.138 110.235 200.511 109.921 200.825C109.616 201.139 109.248 201.385 108.816 201.562C108.384 201.738 107.903 201.827 107.372 201.827C106.842 201.827 106.361 201.738 105.929 201.562C105.497 201.385 105.124 201.139 104.809 200.825C104.505 200.511 104.269 200.138 104.102 199.706C103.945 199.273 103.867 198.802 103.867 198.291V191.368ZM113.544 198.557C113.78 198.969 114.026 199.332 114.281 199.647C114.546 199.961 114.841 200.206 115.165 200.383C115.489 200.56 115.857 200.648 116.269 200.648C116.819 200.648 117.261 200.496 117.595 200.192C117.929 199.887 118.096 199.499 118.096 199.028C118.096 198.566 117.988 198.198 117.772 197.923C117.556 197.648 117.271 197.427 116.918 197.26C116.574 197.083 116.206 196.926 115.813 196.789C115.558 196.7 115.273 196.588 114.958 196.45C114.644 196.303 114.345 196.121 114.06 195.905C113.775 195.679 113.539 195.404 113.353 195.08C113.176 194.756 113.088 194.358 113.088 193.887C113.088 193.376 113.215 192.92 113.471 192.517C113.726 192.114 114.08 191.8 114.531 191.574C114.983 191.338 115.499 191.221 116.078 191.221C116.638 191.221 117.124 191.329 117.536 191.545C117.959 191.751 118.317 192.021 118.612 192.355C118.906 192.679 119.137 193.023 119.304 193.386L118.229 194.005C118.101 193.749 117.939 193.499 117.743 193.253C117.546 193.008 117.306 192.807 117.021 192.649C116.746 192.492 116.407 192.414 116.004 192.414C115.445 192.414 115.037 192.551 114.782 192.826C114.526 193.091 114.399 193.391 114.399 193.725C114.399 194.01 114.472 194.275 114.62 194.52C114.767 194.756 115.012 194.982 115.356 195.198C115.71 195.404 116.186 195.61 116.785 195.817C117.06 195.915 117.35 196.042 117.654 196.2C117.959 196.357 118.239 196.558 118.494 196.804C118.759 197.039 118.975 197.329 119.142 197.673C119.309 198.007 119.392 198.409 119.392 198.881C119.392 199.332 119.304 199.74 119.127 200.103C118.96 200.467 118.725 200.776 118.42 201.031C118.126 201.287 117.787 201.483 117.404 201.621C117.031 201.758 116.638 201.827 116.225 201.827C115.666 201.827 115.145 201.709 114.664 201.473C114.192 201.228 113.775 200.909 113.412 200.516C113.058 200.113 112.768 199.686 112.543 199.234L113.544 198.557ZM121.232 191.368H122.484V201.679H121.232V191.368ZM132.65 191.368H133.902V202.195L126.094 194.005V201.679H124.842V190.852L132.65 199.043V191.368ZM136.957 201.679V200.501H142.157V201.679H136.957ZM136.957 192.546V191.368H142.157V192.546H136.957ZM136.957 196.671V195.493H141.862V196.671H136.957ZM136.264 191.368H137.517V201.679H136.264V191.368ZM144.746 198.557C144.982 198.969 145.228 199.332 145.483 199.647C145.748 199.961 146.043 200.206 146.367 200.383C146.691 200.56 147.059 200.648 147.472 200.648C148.022 200.648 148.464 200.496 148.797 200.192C149.131 199.887 149.298 199.499 149.298 199.028C149.298 198.566 149.19 198.198 148.974 197.923C148.758 197.648 148.473 197.427 148.12 197.26C147.776 197.083 147.408 196.926 147.015 196.789C146.76 196.7 146.475 196.588 146.161 196.45C145.846 196.303 145.547 196.121 145.262 195.905C144.977 195.679 144.742 195.404 144.555 195.08C144.378 194.756 144.29 194.358 144.29 193.887C144.29 193.376 144.418 192.92 144.673 192.517C144.928 192.114 145.282 191.8 145.733 191.574C146.185 191.338 146.701 191.221 147.28 191.221C147.84 191.221 148.326 191.329 148.739 191.545C149.161 191.751 149.519 192.021 149.814 192.355C150.108 192.679 150.339 193.023 150.506 193.386L149.431 194.005C149.303 193.749 149.141 193.499 148.945 193.253C148.748 193.008 148.508 192.807 148.223 192.649C147.948 192.492 147.609 192.414 147.207 192.414C146.647 192.414 146.239 192.551 145.984 192.826C145.729 193.091 145.601 193.391 145.601 193.725C145.601 194.01 145.675 194.275 145.822 194.52C145.969 194.756 146.215 194.982 146.558 195.198C146.912 195.404 147.388 195.61 147.987 195.817C148.262 195.915 148.552 196.042 148.856 196.2C149.161 196.357 149.441 196.558 149.696 196.804C149.961 197.039 150.177 197.329 150.344 197.673C150.511 198.007 150.595 198.409 150.595 198.881C150.595 199.332 150.506 199.74 150.329 200.103C150.163 200.467 149.927 200.776 149.622 201.031C149.328 201.287 148.989 201.483 148.606 201.621C148.233 201.758 147.84 201.827 147.427 201.827C146.868 201.827 146.347 201.709 145.866 201.473C145.395 201.228 144.977 200.909 144.614 200.516C144.26 200.113 143.971 199.686 143.745 199.234L144.746 198.557ZM152.817 198.557C153.052 198.969 153.298 199.332 153.553 199.647C153.818 199.961 154.113 200.206 154.437 200.383C154.761 200.56 155.129 200.648 155.542 200.648C156.092 200.648 156.534 200.496 156.868 200.192C157.202 199.887 157.369 199.499 157.369 199.028C157.369 198.566 157.261 198.198 157.044 197.923C156.828 197.648 156.544 197.427 156.19 197.26C155.846 197.083 155.478 196.926 155.085 196.789C154.83 196.7 154.545 196.588 154.231 196.45C153.917 196.303 153.617 196.121 153.332 195.905C153.048 195.679 152.812 195.404 152.625 195.08C152.448 194.756 152.36 194.358 152.36 193.887C152.36 193.376 152.488 192.92 152.743 192.517C152.998 192.114 153.352 191.8 153.804 191.574C154.255 191.338 154.771 191.221 155.35 191.221C155.91 191.221 156.396 191.329 156.809 191.545C157.231 191.751 157.59 192.021 157.884 192.355C158.179 192.679 158.41 193.023 158.576 193.386L157.501 194.005C157.373 193.749 157.211 193.499 157.015 193.253C156.819 193.008 156.578 192.807 156.293 192.649C156.018 192.492 155.679 192.414 155.277 192.414C154.717 192.414 154.309 192.551 154.054 192.826C153.799 193.091 153.671 193.391 153.671 193.725C153.671 194.01 153.745 194.275 153.892 194.52C154.039 194.756 154.285 194.982 154.629 195.198C154.982 195.404 155.458 195.61 156.058 195.817C156.333 195.915 156.622 196.042 156.927 196.2C157.231 196.357 157.511 196.558 157.766 196.804C158.031 197.039 158.248 197.329 158.414 197.673C158.581 198.007 158.665 198.409 158.665 198.881C158.665 199.332 158.576 199.74 158.4 200.103C158.233 200.467 157.997 200.776 157.693 201.031C157.398 201.287 157.059 201.483 156.676 201.621C156.303 201.758 155.91 201.827 155.498 201.827C154.938 201.827 154.418 201.709 153.936 201.473C153.465 201.228 153.048 200.909 152.684 200.516C152.331 200.113 152.041 199.686 151.815 199.234L152.817 198.557ZM163.816 198.733V197.628H166.762V198.733H163.816ZM178.97 198.291C178.97 198.881 178.877 199.396 178.69 199.838C178.504 200.28 178.243 200.648 177.909 200.943C177.576 201.238 177.193 201.458 176.76 201.606C176.328 201.753 175.862 201.827 175.361 201.827C174.733 201.827 174.183 201.729 173.711 201.532C173.25 201.336 172.852 201.075 172.518 200.751C172.194 200.418 171.919 200.054 171.693 199.661L172.754 198.94C172.911 199.234 173.117 199.514 173.372 199.779C173.638 200.035 173.942 200.246 174.286 200.413C174.629 200.57 174.988 200.648 175.361 200.648C175.852 200.648 176.269 200.55 176.613 200.354C176.957 200.157 177.217 199.882 177.394 199.529C177.58 199.175 177.674 198.763 177.674 198.291C177.674 197.82 177.571 197.408 177.364 197.054C177.168 196.7 176.893 196.425 176.54 196.229C176.196 196.033 175.803 195.934 175.361 195.934C175.037 195.934 174.737 195.964 174.462 196.023C174.197 196.072 173.927 196.165 173.652 196.303C173.387 196.43 173.078 196.617 172.724 196.862L174.079 191.368H178.941V192.473H175.052L174.359 195.198C174.605 195.07 174.855 194.977 175.111 194.918C175.376 194.849 175.636 194.815 175.891 194.815C176.481 194.815 177.006 194.962 177.468 195.257C177.939 195.551 178.307 195.959 178.572 196.479C178.838 197 178.97 197.604 178.97 198.291ZM185.161 191.368H186.413V201.679H185.161V191.368ZM188.254 201.679H185.853V200.427H188.254C188.834 200.427 189.364 200.339 189.845 200.162C190.326 199.976 190.739 199.715 191.083 199.381C191.426 199.038 191.691 198.625 191.878 198.144C192.065 197.663 192.158 197.123 192.158 196.524C192.158 195.925 192.065 195.384 191.878 194.903C191.691 194.422 191.426 194.015 191.083 193.681C190.739 193.337 190.326 193.077 189.845 192.9C189.364 192.713 188.834 192.62 188.254 192.62H185.853V191.368H188.254C189.256 191.368 190.145 191.584 190.921 192.016C191.696 192.448 192.305 193.052 192.747 193.828C193.189 194.594 193.41 195.493 193.41 196.524C193.41 197.555 193.189 198.458 192.747 199.234C192.305 200 191.696 200.599 190.921 201.031C190.145 201.463 189.256 201.679 188.254 201.679ZM195.714 198.586L196.156 197.408H200.723L201.165 198.586H195.714ZM198.41 193.695L196.672 197.791L196.554 198.056L195.022 201.679H193.622L198.41 190.852L203.197 201.679H201.798L200.295 198.144L200.178 197.849L198.41 193.695ZM209.028 191.368H210.428L206.996 197.231V201.679H205.744V197.245L202.311 191.368H203.711L206.362 196.141L209.028 191.368ZM212.056 198.557C212.292 198.969 212.538 199.332 212.793 199.647C213.058 199.961 213.353 200.206 213.677 200.383C214.001 200.56 214.369 200.648 214.782 200.648C215.331 200.648 215.773 200.496 216.107 200.192C216.441 199.887 216.608 199.499 216.608 199.028C216.608 198.566 216.5 198.198 216.284 197.923C216.068 197.648 215.783 197.427 215.43 197.26C215.086 197.083 214.718 196.926 214.325 196.789C214.07 196.7 213.785 196.588 213.47 196.45C213.156 196.303 212.857 196.121 212.572 195.905C212.287 195.679 212.051 195.404 211.865 195.08C211.688 194.756 211.6 194.358 211.6 193.887C211.6 193.376 211.727 192.92 211.983 192.517C212.238 192.114 212.592 191.8 213.043 191.574C213.495 191.338 214.011 191.221 214.59 191.221C215.15 191.221 215.636 191.329 216.048 191.545C216.471 191.751 216.829 192.021 217.124 192.355C217.418 192.679 217.649 193.023 217.816 193.386L216.741 194.005C216.613 193.749 216.451 193.499 216.255 193.253C216.058 193.008 215.818 192.807 215.533 192.649C215.258 192.492 214.919 192.414 214.516 192.414C213.957 192.414 213.549 192.551 213.294 192.826C213.038 193.091 212.911 193.391 212.911 193.725C212.911 194.01 212.984 194.275 213.132 194.52C213.279 194.756 213.524 194.982 213.868 195.198C214.222 195.404 214.698 195.61 215.297 195.817C215.572 195.915 215.862 196.042 216.166 196.2C216.471 196.357 216.751 196.558 217.006 196.804C217.271 197.039 217.487 197.329 217.654 197.673C217.821 198.007 217.904 198.409 217.904 198.881C217.904 199.332 217.816 199.74 217.639 200.103C217.472 200.467 217.237 200.776 216.932 201.031C216.638 201.287 216.299 201.483 215.916 201.621C215.543 201.758 215.15 201.827 214.737 201.827C214.178 201.827 213.657 201.709 213.176 201.473C212.704 201.228 212.287 200.909 211.924 200.516C211.57 200.113 211.28 199.686 211.055 199.234L212.056 198.557Z" fill="#666666"/>
<path d="M41.8456 241.975C41.7828 241.445 41.5282 241.033 41.0819 240.74C40.6355 240.447 40.0879 240.301 39.4393 240.301C38.965 240.301 38.55 240.378 38.1943 240.531C37.8421 240.684 37.5666 240.895 37.3678 241.164C37.1725 241.433 37.0748 241.738 37.0748 242.079C37.0748 242.365 37.1428 242.611 37.2788 242.817C37.4183 243.019 37.5962 243.188 37.8124 243.324C38.0286 243.457 38.2553 243.567 38.4925 243.654C38.7296 243.738 38.9476 243.806 39.1463 243.858L40.2344 244.151C40.5134 244.224 40.8238 244.325 41.1656 244.454C41.5108 244.583 41.8404 244.759 42.1542 244.983C42.4716 245.202 42.7331 245.485 42.9389 245.83C43.1447 246.175 43.2475 246.599 43.2475 247.101C43.2475 247.68 43.0958 248.203 42.7924 248.671C42.4925 249.138 42.0531 249.509 41.4742 249.785C40.8988 250.06 40.1995 250.198 39.3765 250.198C38.6093 250.198 37.9449 250.074 37.3835 249.827C36.8255 249.579 36.3861 249.234 36.0652 248.791C35.7479 248.348 35.5683 247.834 35.5264 247.248H36.8656C36.9005 247.652 37.0365 247.987 37.2736 248.252C37.5142 248.514 37.8176 248.709 38.1838 248.838C38.5535 248.964 38.9511 249.026 39.3765 249.026C39.8717 249.026 40.3164 248.946 40.7104 248.786C41.1045 248.622 41.4166 248.395 41.6468 248.106C41.877 247.813 41.9921 247.471 41.9921 247.08C41.9921 246.725 41.8927 246.435 41.6939 246.212C41.4951 245.989 41.2336 245.807 40.9092 245.668C40.5849 245.528 40.2344 245.406 39.8578 245.302L38.5395 244.925C37.7026 244.685 37.04 244.341 36.5517 243.895C36.0635 243.448 35.8194 242.864 35.8194 242.142C35.8194 241.542 35.9815 241.019 36.3059 240.573C36.6337 240.123 37.0731 239.774 37.6241 239.527C38.1786 239.276 38.7976 239.15 39.4811 239.15C40.1716 239.15 40.7854 239.274 41.3225 239.521C41.8595 239.766 42.285 240.1 42.5989 240.526C42.9162 240.951 43.0836 241.434 43.1011 241.975H41.8456ZM48.7075 241.975V243.021H44.5435V241.975H48.7075ZM45.7571 240.05H46.9917V247.708C46.9917 248.057 47.0423 248.318 47.1434 248.493C47.248 248.664 47.3805 248.779 47.541 248.838C47.7049 248.894 47.8775 248.922 48.0588 248.922C48.1948 248.922 48.3064 248.915 48.3936 248.901C48.4808 248.883 48.5506 248.869 48.6029 248.859L48.854 249.968C48.7703 249.999 48.6534 250.031 48.5035 250.062C48.3535 250.097 48.1635 250.114 47.9333 250.114C47.5845 250.114 47.2428 250.039 46.908 249.889C46.5767 249.739 46.3012 249.511 46.0815 249.204C45.8653 248.897 45.7571 248.51 45.7571 248.043V240.05ZM52.929 250.198C52.4198 250.198 51.9577 250.102 51.5427 249.91C51.1277 249.715 50.7982 249.434 50.5541 249.068C50.3099 248.699 50.1879 248.252 50.1879 247.729C50.1879 247.269 50.2786 246.896 50.4599 246.61C50.6412 246.32 50.8836 246.093 51.187 245.93C51.4904 245.766 51.8252 245.644 52.1914 245.563C52.5611 245.48 52.9325 245.413 53.3056 245.365C53.7939 245.302 54.1897 245.255 54.4931 245.223C54.8 245.188 55.0232 245.131 55.1627 245.051C55.3056 244.97 55.3771 244.831 55.3771 244.632V244.59C55.3771 244.074 55.2359 243.673 54.9534 243.387C54.6744 243.101 54.2507 242.958 53.6823 242.958C53.0929 242.958 52.6308 243.087 52.296 243.345C51.9612 243.603 51.7258 243.879 51.5898 244.172L50.4181 243.753C50.6273 243.265 50.9063 242.885 51.255 242.613C51.6073 242.337 51.9909 242.146 52.4059 242.038C52.8244 241.926 53.2359 241.87 53.6404 241.87C53.8985 241.87 54.1949 241.902 54.5297 241.964C54.868 242.024 55.194 242.147 55.5079 242.336C55.8253 242.524 56.0886 242.808 56.2978 243.188C56.5071 243.569 56.6117 244.078 56.6117 244.716V250.01H55.3771V248.922H55.3144C55.2307 249.096 55.0912 249.283 54.8959 249.481C54.7006 249.68 54.4408 249.849 54.1164 249.989C53.7921 250.128 53.3963 250.198 52.929 250.198ZM53.1173 249.089C53.6055 249.089 54.0171 248.993 54.3518 248.801C54.6901 248.61 54.9447 248.362 55.1156 248.059C55.29 247.755 55.3771 247.436 55.3771 247.101V245.971C55.3248 246.034 55.2097 246.092 55.0319 246.144C54.8575 246.193 54.6552 246.236 54.4251 246.275C54.1984 246.31 53.9769 246.341 53.7607 246.369C53.548 246.393 53.3754 246.414 53.2428 246.432C52.922 246.474 52.6221 246.542 52.3431 246.636C52.0676 246.726 51.8444 246.864 51.6735 247.049C51.5061 247.23 51.4224 247.478 51.4224 247.792C51.4224 248.221 51.5811 248.545 51.8985 248.765C52.2193 248.981 52.6256 249.089 53.1173 249.089ZM58.865 250.01V241.975H60.0577V243.188H60.1414C60.2878 242.791 60.5529 242.468 60.9365 242.221C61.3201 241.973 61.7525 241.849 62.2338 241.849C62.3245 241.849 62.4378 241.851 62.5738 241.854C62.7098 241.858 62.8127 241.863 62.8825 241.87V243.126C62.8406 243.115 62.7447 243.099 62.5947 243.079C62.4483 243.054 62.2931 243.042 62.1292 243.042C61.7386 243.042 61.3898 243.124 61.083 243.288C60.7796 243.448 60.5389 243.671 60.3611 243.957C60.1867 244.24 60.0995 244.562 60.0995 244.925V250.01H58.865ZM68.3437 241.975V243.021H64.1798V241.975H68.3437ZM65.3934 240.05H66.6279V247.708C66.6279 248.057 66.6785 248.318 66.7796 248.493C66.8842 248.664 67.0168 248.779 67.1772 248.838C67.3411 248.894 67.5137 248.922 67.6951 248.922C67.8311 248.922 67.9427 248.915 68.0299 248.901C68.117 248.883 68.1868 248.869 68.2391 248.859L68.4902 249.968C68.4065 249.999 68.2897 250.031 68.1397 250.062C67.9897 250.097 67.7997 250.114 67.5695 250.114C67.2208 250.114 66.879 250.039 66.5442 249.889C66.2129 249.739 65.9374 249.511 65.7177 249.204C65.5015 248.897 65.3934 248.51 65.3934 248.043V240.05ZM77.9219 241.975V243.021H73.5905V241.975H77.9219ZM74.8878 250.01V240.866C74.8878 240.405 74.9959 240.022 75.2122 239.715C75.4284 239.408 75.7091 239.178 76.0544 239.024C76.3996 238.871 76.764 238.794 77.1477 238.794C77.4511 238.794 77.6987 238.819 77.8905 238.868C78.0823 238.916 78.2253 238.962 78.3194 239.004L77.9637 240.071C77.9009 240.05 77.8137 240.024 77.7022 239.992C77.594 239.961 77.4511 239.945 77.2732 239.945C76.8652 239.945 76.5705 240.048 76.3891 240.254C76.2113 240.46 76.1224 240.761 76.1224 241.159V250.01H74.8878ZM79.652 250.01V241.975H80.8447V243.188H80.9284C81.0749 242.791 81.3399 242.468 81.7236 242.221C82.1072 241.973 82.5396 241.849 83.0209 241.849C83.1115 241.849 83.2249 241.851 83.3609 241.854C83.4969 241.858 83.5998 241.863 83.6695 241.87V243.126C83.6277 243.115 83.5318 243.099 83.3818 243.079C83.2353 243.054 83.0802 243.042 82.9162 243.042C82.5257 243.042 82.1769 243.124 81.87 243.288C81.5666 243.448 81.326 243.671 81.1481 243.957C80.9738 244.24 80.8866 244.562 80.8866 244.925V250.01H79.652ZM88.1526 250.177C87.4272 250.177 86.7907 250.005 86.2432 249.659C85.6992 249.314 85.2737 248.831 84.9668 248.21C84.6634 247.59 84.5117 246.864 84.5117 246.034C84.5117 245.197 84.6634 244.467 84.9668 243.842C85.2737 243.218 85.6992 242.733 86.2432 242.388C86.7907 242.043 87.4272 241.87 88.1526 241.87C88.878 241.87 89.5127 242.043 90.0567 242.388C90.6042 242.733 91.0297 243.218 91.3331 243.842C91.64 244.467 91.7934 245.197 91.7934 246.034C91.7934 246.864 91.64 247.59 91.3331 248.21C91.0297 248.831 90.6042 249.314 90.0567 249.659C89.5127 250.005 88.878 250.177 88.1526 250.177ZM88.1526 249.068C88.7036 249.068 89.1569 248.927 89.5127 248.644C89.8684 248.362 90.1317 247.991 90.3026 247.53C90.4734 247.07 90.5589 246.571 90.5589 246.034C90.5589 245.497 90.4734 244.997 90.3026 244.533C90.1317 244.069 89.8684 243.694 89.5127 243.408C89.1569 243.122 88.7036 242.979 88.1526 242.979C87.6016 242.979 87.1482 243.122 86.7925 243.408C86.4368 243.694 86.1735 244.069 86.0026 244.533C85.8317 244.997 85.7463 245.497 85.7463 246.034C85.7463 246.571 85.8317 247.07 86.0026 247.53C86.1735 247.991 86.4368 248.362 86.7925 248.644C87.1482 248.927 87.6016 249.068 88.1526 249.068ZM93.6779 250.01V241.975H94.8706V243.23H94.9752C95.1426 242.801 95.4129 242.468 95.7861 242.231C96.1592 241.99 96.6073 241.87 97.1304 241.87C97.6605 241.87 98.1017 241.99 98.4539 242.231C98.8096 242.468 99.0869 242.801 99.2857 243.23H99.3694C99.5751 242.815 99.8838 242.486 100.295 242.242C100.707 241.994 101.2 241.87 101.776 241.87C102.494 241.87 103.082 242.095 103.539 242.545C103.995 242.991 104.224 243.687 104.224 244.632V250.01H102.989V244.632C102.989 244.039 102.827 243.616 102.503 243.361C102.178 243.106 101.797 242.979 101.357 242.979C100.792 242.979 100.355 243.15 100.044 243.492C99.7338 243.83 99.5786 244.259 99.5786 244.779V250.01H98.3231V244.507C98.3231 244.05 98.1749 243.682 97.8785 243.403C97.5821 243.12 97.2002 242.979 96.7329 242.979C96.412 242.979 96.1121 243.065 95.8331 243.235C95.5576 243.406 95.3344 243.644 95.1636 243.947C94.9962 244.247 94.9125 244.594 94.9125 244.988V250.01H93.6779Z" fill="#666666"/>
<path d="M36.1036 275.01V260.377H38.7748V275.01H36.1036ZM41.5893 275.01V260.377H46.3621C47.9071 260.377 49.2493 260.691 50.3885 261.32C51.5407 261.935 52.4311 262.793 53.0596 263.893C53.6882 264.98 54.0024 266.243 54.0024 267.684C54.0024 269.111 53.6882 270.381 53.0596 271.494C52.4311 272.594 51.5407 273.458 50.3885 274.087C49.2493 274.702 47.9071 275.01 46.3621 275.01H41.5893ZM44.2605 272.653H46.421C47.4161 272.653 48.2738 272.45 48.994 272.044C49.7272 271.625 50.2968 271.049 50.7027 270.316C51.1086 269.569 51.3116 268.692 51.3116 267.684C51.3116 266.662 51.1086 265.785 50.7027 265.052C50.2968 264.318 49.7272 263.749 48.994 263.343C48.2738 262.937 47.4161 262.734 46.421 262.734H44.2605V272.653ZM56.1282 275.01V260.377H61.5688C62.564 260.377 63.4413 260.561 64.2007 260.927C64.9733 261.281 65.5756 261.804 66.0077 262.498C66.4398 263.179 66.6558 264.011 66.6558 264.993C66.6558 266.001 66.4136 266.859 65.9291 267.566C65.4577 268.273 64.8161 268.797 64.0043 269.137L67.3629 275.01H64.3382L60.7439 268.587L62.4723 269.608H58.7994V275.01H56.1282ZM58.7994 267.252H61.6081C62.0926 267.252 62.5116 267.16 62.8651 266.977C63.2187 266.78 63.4936 266.512 63.69 266.171C63.8865 265.831 63.9847 265.438 63.9847 264.993C63.9847 264.535 63.8865 264.142 63.69 263.814C63.4936 263.474 63.2187 263.212 62.8651 263.029C62.5116 262.832 62.0926 262.734 61.6081 262.734H58.7994V267.252ZM76.9451 275.245C76.1464 275.245 75.3869 275.101 74.6668 274.813C73.9597 274.512 73.3508 274.093 72.8402 273.556C72.3426 273.006 72.0021 272.358 71.8188 271.612L74.1561 270.787C74.3918 271.455 74.7519 271.965 75.2364 272.319C75.7208 272.659 76.2904 272.83 76.9451 272.83C77.4689 272.83 77.9206 272.731 78.3004 272.535C78.6932 272.339 79.0009 272.057 79.2235 271.69C79.4461 271.311 79.5574 270.866 79.5574 270.355C79.5574 269.844 79.4461 269.412 79.2235 269.059C79.014 268.692 78.7128 268.41 78.32 268.214C77.9272 268.018 77.4623 267.919 76.9255 267.919C76.6767 267.919 76.4148 267.946 76.1398 267.998C75.878 268.05 75.6423 268.129 75.4328 268.234L74.8239 266.957L78.6146 262.636H72.6437V260.377H81.6197V262.479L77.8093 266.937L77.8486 265.936C78.7259 265.949 79.4919 266.139 80.1466 266.505C80.8013 266.872 81.312 267.376 81.6786 268.018C82.0452 268.659 82.2286 269.412 82.2286 270.276C82.2286 271.219 81.9994 272.07 81.5411 272.83C81.0828 273.576 80.4543 274.165 79.6556 274.597C78.8569 275.029 77.9534 275.245 76.9451 275.245ZM85.2204 278.074V276.797C85.6525 276.692 85.9995 276.489 86.2614 276.188C86.5364 275.9 86.7066 275.507 86.7721 275.01H85.6133V272.26H88.2059V273.949C88.2059 275.101 87.9505 276.025 87.4399 276.719C86.9423 277.413 86.2025 277.864 85.2204 278.074ZM91.6317 275.01L97.7204 262.636H90.8264V260.377H100.529V262.636L94.5779 275.01H91.6317ZM106.639 275.245C105.866 275.245 105.126 275.101 104.419 274.813C103.725 274.525 103.123 274.119 102.612 273.596C102.115 273.059 101.774 272.424 101.591 271.69L103.909 270.866C104.131 271.533 104.491 272.031 104.989 272.358C105.486 272.672 106.036 272.83 106.639 272.83C107.136 272.83 107.575 272.725 107.955 272.515C108.347 272.293 108.649 271.992 108.858 271.612C109.068 271.219 109.172 270.767 109.172 270.257C109.172 269.746 109.061 269.301 108.838 268.921C108.629 268.541 108.334 268.247 107.955 268.037C107.575 267.815 107.136 267.703 106.639 267.703C106.128 267.703 105.663 267.815 105.244 268.037C104.838 268.26 104.544 268.581 104.36 269L102.18 268.509L103.339 260.377H111.313V262.636H104.4L105.401 261.477L104.576 267.605L103.81 266.977C104.177 266.44 104.622 266.047 105.146 265.798C105.683 265.549 106.331 265.425 107.09 265.425C108.059 265.425 108.897 265.634 109.604 266.053C110.325 266.472 110.881 267.042 111.274 267.762C111.667 268.482 111.863 269.314 111.863 270.257C111.863 271.199 111.634 272.051 111.176 272.81C110.717 273.569 110.096 274.165 109.31 274.597C108.524 275.029 107.634 275.245 106.639 275.245ZM119.842 275.245C118.677 275.245 117.655 274.931 116.778 274.303C115.901 273.674 115.213 272.79 114.716 271.651C114.231 270.512 113.989 269.189 113.989 267.684C113.989 266.165 114.231 264.842 114.716 263.716C115.2 262.59 115.881 261.713 116.758 261.084C117.636 260.456 118.657 260.142 119.822 260.142C121.014 260.142 122.042 260.456 122.906 261.084C123.783 261.713 124.471 262.597 124.968 263.736C125.466 264.862 125.715 266.178 125.715 267.684C125.715 269.189 125.466 270.512 124.968 271.651C124.484 272.777 123.803 273.661 122.926 274.303C122.048 274.931 121.021 275.245 119.842 275.245ZM119.862 272.81C120.529 272.81 121.099 272.607 121.57 272.201C122.042 271.782 122.402 271.193 122.651 270.433C122.913 269.661 123.044 268.744 123.044 267.684C123.044 266.623 122.913 265.713 122.651 264.954C122.402 264.181 122.035 263.592 121.551 263.186C121.079 262.78 120.503 262.577 119.822 262.577C119.168 262.577 118.605 262.78 118.133 263.186C117.662 263.592 117.295 264.181 117.033 264.954C116.785 265.713 116.66 266.623 116.66 267.684C116.66 268.731 116.785 269.641 117.033 270.414C117.295 271.173 117.662 271.762 118.133 272.181C118.618 272.6 119.194 272.81 119.862 272.81ZM128.818 278.074V276.797C129.25 276.692 129.597 276.489 129.859 276.188C130.134 275.9 130.304 275.507 130.37 275.01H129.211V272.26H131.804V273.949C131.804 275.101 131.548 276.025 131.038 276.719C130.54 277.413 129.8 277.864 128.818 278.074ZM140.768 275.245C139.603 275.245 138.581 274.931 137.704 274.303C136.827 273.674 136.139 272.79 135.642 271.651C135.157 270.512 134.915 269.189 134.915 267.684C134.915 266.165 135.157 264.842 135.642 263.716C136.126 262.59 136.807 261.713 137.685 261.084C138.562 260.456 139.583 260.142 140.749 260.142C141.94 260.142 142.968 260.456 143.832 261.084C144.709 261.713 145.397 262.597 145.894 263.736C146.392 264.862 146.641 266.178 146.641 267.684C146.641 269.189 146.392 270.512 145.894 271.651C145.41 272.777 144.729 273.661 143.852 274.303C142.975 274.931 141.947 275.245 140.768 275.245ZM140.788 272.81C141.456 272.81 142.025 272.607 142.497 272.201C142.968 271.782 143.328 271.193 143.577 270.433C143.839 269.661 143.97 268.744 143.97 267.684C143.97 266.623 143.839 265.713 143.577 264.954C143.328 264.181 142.961 263.592 142.477 263.186C142.006 262.78 141.429 262.577 140.749 262.577C140.094 262.577 139.531 262.78 139.059 263.186C138.588 263.592 138.221 264.181 137.96 264.954C137.711 265.713 137.586 266.623 137.586 267.684C137.586 268.731 137.711 269.641 137.96 270.414C138.221 271.173 138.588 271.762 139.059 272.181C139.544 272.6 140.12 272.81 140.788 272.81ZM154.674 275.245C153.509 275.245 152.487 274.931 151.61 274.303C150.733 273.674 150.045 272.79 149.548 271.651C149.063 270.512 148.821 269.189 148.821 267.684C148.821 266.165 149.063 264.842 149.548 263.716C150.032 262.59 150.713 261.713 151.591 261.084C152.468 260.456 153.489 260.142 154.655 260.142C155.846 260.142 156.874 260.456 157.738 261.084C158.615 261.713 159.303 262.597 159.8 263.736C160.298 264.862 160.547 266.178 160.547 267.684C160.547 269.189 160.298 270.512 159.8 271.651C159.316 272.777 158.635 273.661 157.758 274.303C156.881 274.931 155.853 275.245 154.674 275.245ZM154.694 272.81C155.362 272.81 155.931 272.607 156.403 272.201C156.874 271.782 157.234 271.193 157.483 270.433C157.745 269.661 157.876 268.744 157.876 267.684C157.876 266.623 157.745 265.713 157.483 264.954C157.234 264.181 156.867 263.592 156.383 263.186C155.912 262.78 155.335 262.577 154.655 262.577C154 262.577 153.437 262.78 152.965 263.186C152.494 263.592 152.127 264.181 151.866 264.954C151.617 265.713 151.492 266.623 151.492 267.684C151.492 268.731 151.617 269.641 151.866 270.414C152.127 271.173 152.494 271.762 152.965 272.181C153.45 272.6 154.026 272.81 154.694 272.81ZM168.58 275.245C167.415 275.245 166.393 274.931 165.516 274.303C164.639 273.674 163.951 272.79 163.454 271.651C162.969 270.512 162.727 269.189 162.727 267.684C162.727 266.165 162.969 264.842 163.454 263.716C163.938 262.59 164.619 261.713 165.497 261.084C166.374 260.456 167.395 260.142 168.561 260.142C169.752 260.142 170.78 260.456 171.644 261.084C172.521 261.713 173.209 262.597 173.706 263.736C174.204 264.862 174.453 266.178 174.453 267.684C174.453 269.189 174.204 270.512 173.706 271.651C173.222 272.777 172.541 273.661 171.664 274.303C170.787 274.931 169.759 275.245 168.58 275.245ZM168.6 272.81C169.268 272.81 169.837 272.607 170.309 272.201C170.78 271.782 171.14 271.193 171.389 270.433C171.651 269.661 171.782 268.744 171.782 267.684C171.782 266.623 171.651 265.713 171.389 264.954C171.14 264.181 170.773 263.592 170.289 263.186C169.818 262.78 169.241 262.577 168.561 262.577C167.906 262.577 167.343 262.78 166.871 263.186C166.4 263.592 166.033 264.181 165.772 264.954C165.523 265.713 165.398 266.623 165.398 267.684C165.398 268.731 165.523 269.641 165.772 270.414C166.033 271.173 166.4 271.762 166.871 272.181C167.356 272.6 167.932 272.81 168.6 272.81Z" fill="#E8604C"/>
<defs>
<filter id="filter0_d_251_1450" x="0.317307" y="0.317307" width="347.365" height="324.365" filterUnits="userSpaceOnUse" color-interpolation-filters="sRGB">
<feFlood flood-opacity="0" result="BackgroundImageFix"/>
<feColorMatrix in="SourceAlpha" type="matrix" values="0 0 0 0 0 0 0 0 0 0 0 0 0 0 0 0 0 0 127 0" result="hardAlpha"/>
<feOffset/>
<feGaussianBlur stdDeviation="1.84135"/>
<feComposite in2="hardAlpha" operator="out"/>
<feColorMatrix type="matrix" values="0 0 0 0 0.909804 0 0 0 0 0.376471 0 0 0 0 0.298039 0 0 0 0.34 0"/>
<feBlend mode="normal" in2="BackgroundImageFix" result="effect1_dropShadow_251_1450"/>
<feBlend mode="normal" in="SourceGraphic" in2="effect1_dropShadow_251_1450" result="shape"/>
</filter>
</defs>
</svg>
