<svg width="348" height="391" viewBox="0 0 348 391" fill="none" xmlns="http://www.w3.org/2000/svg">
<g filter="url(#filter0_d_317_3962)">
<rect x="4" y="4" width="340.035" height="383" rx="18.4135" fill="white"/>
</g>
<path d="M41.2196 175.308L34.9455 157.932H37.3945L42.7123 173.209H42.2225L47.5403 157.932H49.9893L43.7386 175.308H41.2196ZM51.925 175.308V162.736H54.0941V175.308H51.925ZM51.925 160.73V157.932H54.0941V160.73H51.925ZM61.9613 175.588C60.7018 175.588 59.6056 175.277 58.6727 174.655C57.7397 174.033 57.0789 173.193 56.6902 172.136L58.4161 171.296C58.7737 172.042 59.2635 172.633 59.8855 173.069C60.5075 173.504 61.1994 173.722 61.9613 173.722C62.6455 173.722 63.213 173.558 63.6639 173.232C64.1149 172.905 64.3403 172.478 64.3403 171.949C64.3403 171.576 64.2315 171.28 64.0138 171.063C63.8117 170.83 63.5629 170.651 63.2674 170.526C62.972 170.386 62.6999 170.285 62.4511 170.223L60.5619 169.687C59.4268 169.36 58.5949 168.894 58.0663 168.287C57.5531 167.681 57.2966 166.973 57.2966 166.165C57.2966 165.418 57.4832 164.773 57.8563 164.229C58.2451 163.669 58.766 163.234 59.419 162.923C60.0876 162.612 60.834 162.456 61.6581 162.456C62.7621 162.456 63.7495 162.736 64.6202 163.296C65.5065 163.856 66.1363 164.641 66.5094 165.652L64.7368 166.468C64.457 165.815 64.0371 165.302 63.4774 164.929C62.9176 164.54 62.2878 164.346 61.5881 164.346C60.9506 164.346 60.4453 164.509 60.0721 164.835C59.6989 165.146 59.5123 165.543 59.5123 166.025C59.5123 166.382 59.6056 166.678 59.7922 166.911C59.9788 167.129 60.2043 167.3 60.4686 167.424C60.7329 167.533 60.9895 167.626 61.2383 167.704L63.2908 168.311C64.317 168.606 65.11 169.065 65.6698 169.687C66.2451 170.309 66.5328 171.055 66.5328 171.926C66.5328 172.625 66.3384 173.255 65.9497 173.815C65.5609 174.375 65.0245 174.81 64.3403 175.121C63.6562 175.432 62.8632 175.588 61.9613 175.588ZM73.0574 175.588C72.2333 175.588 71.5025 175.44 70.865 175.144C70.243 174.833 69.7532 174.414 69.3956 173.885C69.0379 173.341 68.8591 172.719 68.8591 172.019C68.8591 171.35 68.9991 170.752 69.2789 170.223C69.5744 169.679 70.0253 169.22 70.6317 168.847C71.2537 168.474 72.0311 168.209 72.9641 168.054L77.6288 167.284V169.104L73.4539 169.803C72.6453 169.943 72.0545 170.2 71.6813 170.573C71.3237 170.946 71.1448 171.405 71.1448 171.949C71.1448 172.462 71.347 172.89 71.7513 173.232C72.1711 173.574 72.692 173.745 73.314 173.745C74.107 173.745 74.7911 173.582 75.3664 173.255C75.9573 172.913 76.416 172.454 76.7425 171.879C77.0846 171.304 77.2557 170.666 77.2557 169.967V166.771C77.2557 166.087 76.9991 165.535 76.486 165.115C75.9884 164.68 75.3276 164.462 74.5035 164.462C73.7882 164.462 73.1507 164.649 72.5909 165.022C72.0467 165.38 71.6424 165.862 71.3781 166.468L69.4889 165.488C69.7221 164.913 70.0953 164.4 70.6084 163.949C71.1215 163.483 71.7202 163.117 72.4043 162.853C73.0885 162.588 73.8038 162.456 74.5501 162.456C75.5142 162.456 76.3616 162.643 77.0924 163.016C77.8232 163.374 78.3907 163.879 78.795 164.532C79.2149 165.17 79.4248 165.916 79.4248 166.771V175.308H77.3023V172.929L77.6988 173.069C77.4345 173.566 77.0768 174.002 76.6259 174.375C76.175 174.748 75.6463 175.043 75.0399 175.261C74.4335 175.479 73.7727 175.588 73.0574 175.588ZM87.076 175.308V157.932H92.767C94.5241 157.932 96.0557 158.289 97.3618 159.004C98.6679 159.72 99.6786 160.73 100.394 162.036C101.109 163.327 101.467 164.851 101.467 166.608C101.467 168.349 101.109 169.873 100.394 171.179C99.6786 172.486 98.6679 173.504 97.3618 174.235C96.0557 174.95 94.5241 175.308 92.767 175.308H87.076ZM89.3618 173.209H92.7904C94.0809 173.209 95.1927 172.936 96.1256 172.392C97.0741 171.848 97.805 171.086 98.3181 170.106C98.8312 169.111 99.0878 167.945 99.0878 166.608C99.0878 165.255 98.8234 164.089 98.2948 163.109C97.7816 162.13 97.0508 161.376 96.1023 160.847C95.1694 160.303 94.0654 160.031 92.7904 160.031H89.3618V173.209ZM110.078 175.588C108.865 175.588 107.769 175.308 106.79 174.748C105.81 174.173 105.032 173.387 104.457 172.392C103.882 171.397 103.594 170.27 103.594 169.01C103.594 167.751 103.874 166.631 104.434 165.652C105.009 164.672 105.787 163.895 106.766 163.319C107.746 162.744 108.85 162.456 110.078 162.456C111.291 162.456 112.387 162.744 113.367 163.319C114.346 163.879 115.116 164.649 115.676 165.628C116.251 166.608 116.539 167.735 116.539 169.01C116.539 170.285 116.243 171.42 115.653 172.416C115.062 173.395 114.276 174.173 113.297 174.748C112.333 175.308 111.26 175.588 110.078 175.588ZM110.078 173.488C110.856 173.488 111.555 173.294 112.177 172.905C112.815 172.517 113.312 171.98 113.67 171.296C114.043 170.612 114.23 169.85 114.23 169.01C114.23 168.155 114.043 167.401 113.67 166.748C113.312 166.079 112.815 165.551 112.177 165.162C111.555 164.758 110.856 164.555 110.078 164.555C109.285 164.555 108.57 164.758 107.932 165.162C107.31 165.551 106.813 166.079 106.44 166.748C106.066 167.401 105.88 168.155 105.88 169.01C105.88 169.85 106.066 170.612 106.44 171.296C106.813 171.98 107.31 172.517 107.932 172.905C108.57 173.294 109.285 173.488 110.078 173.488ZM125.199 175.588C123.97 175.588 122.874 175.3 121.91 174.725C120.962 174.149 120.215 173.364 119.671 172.369C119.127 171.374 118.855 170.254 118.855 169.01C118.855 167.751 119.127 166.631 119.671 165.652C120.215 164.672 120.962 163.895 121.91 163.319C122.874 162.744 123.97 162.456 125.199 162.456C126.023 162.456 126.793 162.604 127.508 162.899C128.223 163.195 128.853 163.591 129.397 164.089C129.941 164.587 130.338 165.17 130.587 165.838L128.651 166.771C128.355 166.118 127.904 165.589 127.298 165.185C126.692 164.765 125.992 164.555 125.199 164.555C124.437 164.555 123.745 164.75 123.123 165.139C122.517 165.527 122.035 166.056 121.677 166.725C121.319 167.393 121.141 168.163 121.141 169.034C121.141 169.873 121.319 170.635 121.677 171.319C122.035 171.988 122.517 172.517 123.123 172.905C123.745 173.294 124.437 173.488 125.199 173.488C125.992 173.488 126.692 173.286 127.298 172.882C127.904 172.462 128.355 171.91 128.651 171.226L130.587 172.206C130.338 172.859 129.941 173.442 129.397 173.955C128.853 174.452 128.223 174.849 127.508 175.144C126.793 175.44 126.023 175.588 125.199 175.588ZM137.876 175.588C136.974 175.588 136.158 175.378 135.427 174.958C134.712 174.538 134.152 173.955 133.748 173.209C133.359 172.447 133.165 171.576 133.165 170.596V162.736H135.334V170.363C135.334 170.985 135.458 171.529 135.707 171.996C135.971 172.462 136.329 172.828 136.78 173.092C137.246 173.356 137.775 173.488 138.366 173.488C138.957 173.488 139.478 173.356 139.929 173.092C140.395 172.828 140.753 172.447 141.002 171.949C141.266 171.451 141.398 170.861 141.398 170.176V162.736H143.591V175.308H141.468V172.859L141.818 173.069C141.522 173.862 141.017 174.484 140.302 174.934C139.602 175.37 138.794 175.588 137.876 175.588ZM146.951 175.308V162.736H149.073V165.302L148.77 164.905C149.081 164.112 149.579 163.506 150.263 163.086C150.947 162.666 151.717 162.456 152.572 162.456C153.552 162.456 154.43 162.728 155.208 163.273C156.001 163.817 156.545 164.532 156.84 165.418L156.234 165.442C156.56 164.462 157.112 163.724 157.89 163.226C158.667 162.713 159.53 162.456 160.479 162.456C161.349 162.456 162.135 162.658 162.834 163.063C163.55 163.467 164.117 164.027 164.537 164.742C164.957 165.457 165.167 166.266 165.167 167.168V175.308H162.974V167.867C162.974 167.168 162.85 166.577 162.601 166.095C162.352 165.613 162.01 165.24 161.575 164.975C161.155 164.695 160.658 164.555 160.082 164.555C159.522 164.555 159.017 164.695 158.566 164.975C158.131 165.24 157.781 165.621 157.517 166.118C157.268 166.6 157.143 167.183 157.143 167.867V175.308H154.951V167.867C154.951 167.168 154.827 166.577 154.578 166.095C154.329 165.613 153.987 165.24 153.552 164.975C153.132 164.695 152.634 164.555 152.059 164.555C151.499 164.555 150.994 164.695 150.543 164.975C150.107 165.24 149.758 165.621 149.493 166.118C149.244 166.6 149.12 167.183 149.12 167.867V175.308H146.951ZM174.032 175.588C172.819 175.588 171.738 175.3 170.79 174.725C169.841 174.149 169.095 173.364 168.551 172.369C168.006 171.358 167.734 170.231 167.734 168.987C167.734 167.727 167.999 166.608 168.527 165.628C169.072 164.649 169.802 163.879 170.72 163.319C171.653 162.744 172.695 162.456 173.845 162.456C174.778 162.456 175.602 162.627 176.318 162.969C177.048 163.296 177.663 163.747 178.16 164.322C178.673 164.882 179.062 165.527 179.326 166.258C179.606 166.973 179.746 167.72 179.746 168.497C179.746 168.668 179.731 168.863 179.699 169.08C179.684 169.282 179.661 169.477 179.629 169.663H169.32V167.797H178.37L177.344 168.637C177.484 167.829 177.406 167.106 177.111 166.468C176.815 165.83 176.38 165.325 175.804 164.952C175.229 164.579 174.576 164.392 173.845 164.392C173.114 164.392 172.446 164.579 171.839 164.952C171.233 165.325 170.759 165.862 170.417 166.561C170.09 167.245 169.958 168.062 170.02 169.01C169.958 169.928 170.098 170.736 170.44 171.436C170.798 172.12 171.295 172.657 171.933 173.045C172.586 173.418 173.293 173.605 174.055 173.605C174.895 173.605 175.602 173.411 176.178 173.022C176.753 172.633 177.219 172.136 177.577 171.529L179.396 172.462C179.147 173.038 178.759 173.566 178.23 174.048C177.717 174.515 177.103 174.888 176.387 175.168C175.688 175.448 174.903 175.588 174.032 175.588ZM182.574 175.308V162.736H184.697V165.185L184.347 164.975C184.658 164.182 185.155 163.568 185.84 163.133C186.539 162.682 187.356 162.456 188.289 162.456C189.19 162.456 189.991 162.658 190.691 163.063C191.406 163.467 191.966 164.027 192.37 164.742C192.79 165.457 193 166.266 193 167.168V175.308H190.808V167.867C190.808 167.168 190.683 166.577 190.434 166.095C190.186 165.613 189.828 165.24 189.361 164.975C188.911 164.695 188.39 164.555 187.799 164.555C187.208 164.555 186.679 164.695 186.213 164.975C185.762 165.24 185.404 165.621 185.14 166.118C184.876 166.6 184.743 167.183 184.743 167.867V175.308H182.574ZM201.212 175.448C199.983 175.448 199.035 175.098 198.366 174.398C197.713 173.698 197.387 172.711 197.387 171.436V164.812H195.101V162.736H195.567C196.127 162.736 196.57 162.565 196.897 162.223C197.223 161.881 197.387 161.43 197.387 160.87V159.844H199.556V162.736H202.378V164.812H199.556V171.366C199.556 171.786 199.618 172.151 199.742 172.462C199.882 172.773 200.108 173.022 200.419 173.209C200.73 173.38 201.142 173.465 201.655 173.465C201.764 173.465 201.896 173.457 202.051 173.442C202.222 173.426 202.378 173.411 202.518 173.395V175.308C202.316 175.354 202.09 175.385 201.841 175.401C201.593 175.432 201.383 175.448 201.212 175.448ZM209.853 175.588C208.593 175.588 207.497 175.277 206.564 174.655C205.631 174.033 204.97 173.193 204.582 172.136L206.308 171.296C206.665 172.042 207.155 172.633 207.777 173.069C208.399 173.504 209.091 173.722 209.853 173.722C210.537 173.722 211.105 173.558 211.555 173.232C212.006 172.905 212.232 172.478 212.232 171.949C212.232 171.576 212.123 171.28 211.905 171.063C211.703 170.83 211.454 170.651 211.159 170.526C210.864 170.386 210.591 170.285 210.343 170.223L208.453 169.687C207.318 169.36 206.486 168.894 205.958 168.287C205.445 167.681 205.188 166.973 205.188 166.165C205.188 165.418 205.375 164.773 205.748 164.229C206.137 163.669 206.657 163.234 207.311 162.923C207.979 162.612 208.726 162.456 209.55 162.456C210.654 162.456 211.641 162.736 212.512 163.296C213.398 163.856 214.028 164.641 214.401 165.652L212.628 166.468C212.348 165.815 211.929 165.302 211.369 164.929C210.809 164.54 210.179 164.346 209.48 164.346C208.842 164.346 208.337 164.509 207.964 164.835C207.59 165.146 207.404 165.543 207.404 166.025C207.404 166.382 207.497 166.678 207.684 166.911C207.87 167.129 208.096 167.3 208.36 167.424C208.624 167.533 208.881 167.626 209.13 167.704L211.182 168.311C212.209 168.606 213.002 169.065 213.561 169.687C214.137 170.309 214.424 171.055 214.424 171.926C214.424 172.625 214.23 173.255 213.841 173.815C213.452 174.375 212.916 174.81 212.232 175.121C211.548 175.432 210.755 175.588 209.853 175.588Z" fill="#313041"/>
<path fill-rule="evenodd" clip-rule="evenodd" d="M46.3224 54.868H85.6287V44.2047C85.6287 42.5291 84.4235 41.4749 82.8031 41.857L46.025 50.5187C44.2684 50.9321 42.7852 52.8554 42.7852 54.7197V56.2122C43.7288 55.3771 44.9662 54.868 46.3224 54.868ZM72.6407 84.8083C72.1915 87.6154 71.4144 90.138 70.3243 91.8348C74.123 90.8709 77.2726 88.2589 78.9621 84.8083H72.6407ZM63.3171 84.8083H70.8279C70.0343 89.5138 68.3651 92.2409 67.0725 92.2409C65.7799 92.2409 64.1107 89.5138 63.3171 84.8083ZM63.8207 91.8348C62.7306 90.138 61.9536 87.6154 61.5043 84.8083H55.1811C56.8724 88.2599 60.022 90.8709 63.8207 91.8348ZM72.8783 75.0123C73.1572 77.639 73.1572 80.3771 72.8783 83.0047H79.6867C80.5116 80.4065 80.5116 77.6114 79.6867 75.0123H72.8783ZM63.0703 75.0123C62.7905 77.5828 62.7905 80.4332 63.0703 83.0047H71.0756C71.3546 80.4443 71.3536 77.5727 71.0756 75.0123H63.0703ZM61.0568 79.0089C61.0568 77.6758 61.1268 76.3261 61.2658 75.0132H54.4593C53.6334 77.6095 53.6334 80.4093 54.4593 83.0056H61.2667C61.1268 81.6909 61.0568 80.3421 61.0568 79.0089ZM70.3243 66.1821C71.4144 67.8789 72.1915 70.4016 72.6407 73.2087H78.963C77.2726 69.758 74.123 67.1461 70.3243 66.1821ZM67.0725 65.777C68.3651 65.777 70.0334 68.505 70.8279 73.2096H63.3171C64.1107 68.5041 65.7799 65.777 67.0725 65.777ZM61.5043 73.2087C61.9536 70.4016 62.7306 67.8789 63.8207 66.1821C60.022 67.1461 56.8724 69.7571 55.182 73.2087H61.5043ZM87.8236 56.6716C89.7726 56.6716 91.3599 58.2579 91.3599 60.2088V117.607C91.3599 119.557 89.7726 121.144 87.8236 121.144H46.3224C44.3724 121.144 42.7852 119.557 42.7852 117.607V60.2088C42.7852 58.2579 44.3724 56.6716 46.3224 56.6716H87.8236ZM52.0361 79.0089C52.0361 70.7183 58.7828 63.9734 67.0725 63.9734C75.3623 63.9734 82.108 70.7183 82.108 79.0089C82.108 87.2996 75.3623 94.0454 67.0725 94.0454C58.7828 94.0454 52.0361 87.2996 52.0361 79.0089ZM54.6407 106.948C53.4539 106.948 53.4539 108.751 54.6407 108.751H79.5034C80.6902 108.751 80.6902 106.948 79.5034 106.948H54.6407ZM79.5044 112.238H54.6407C53.4539 112.238 53.453 114.041 54.6407 114.041H79.5034C80.6911 114.041 80.6911 112.238 79.5044 112.238ZM59.1501 101.657C59.1501 102.155 59.5543 102.559 60.0515 102.559H74.0926C75.2794 102.559 75.2794 100.755 74.0926 100.755H60.0524C59.5543 100.754 59.1501 101.158 59.1501 101.657Z" fill="#E8604C"/>
<path d="M35.1309 192.546V191.368H42.349L37.4142 201.68H36.1031L40.4782 192.546H35.1309ZM46.9184 198.733V197.629H49.8645V198.733H46.9184ZM55.5324 193.401V192.105L59.0678 191.221V201.68H57.8157V192.723L55.5324 193.401ZM61.2803 199.617L66.9958 191.368H67.5114V201.68H66.2593V199.087V198.925V194.152L63.3426 198.512H66.7749H67.0253H69.1318V199.617H61.2803ZM84.3459 198.954L87.0269 191.368H88.4264L84.3754 202.195L81.2819 194.182L78.1885 202.195L74.1375 191.368H75.5369L78.2769 198.954L81.2819 190.852L84.3459 198.954ZM90.2763 196.524C90.2763 197.3 90.4433 197.992 90.7772 198.601C91.1209 199.21 91.5874 199.691 92.1766 200.044C92.7658 200.398 93.4336 200.575 94.18 200.575C94.9362 200.575 95.604 200.398 96.1834 200.044C96.7726 199.691 97.2342 199.21 97.5681 198.601C97.9118 197.992 98.0836 197.3 98.0836 196.524C98.0836 195.748 97.9118 195.056 97.5681 194.447C97.2342 193.838 96.7726 193.357 96.1834 193.003C95.604 192.65 94.9362 192.473 94.18 192.473C93.4336 192.473 92.7658 192.65 92.1766 193.003C91.5874 193.357 91.1209 193.838 90.7772 194.447C90.4433 195.056 90.2763 195.748 90.2763 196.524ZM88.9506 196.524C88.9506 195.768 89.0782 195.07 89.3336 194.432C89.5987 193.784 89.967 193.224 90.4384 192.753C90.9098 192.272 91.4646 191.898 92.1029 191.633C92.7413 191.358 93.4336 191.221 94.18 191.221C94.9362 191.221 95.6285 191.358 96.257 191.633C96.8954 191.898 97.4502 192.272 97.9216 192.753C98.393 193.224 98.7563 193.784 99.0117 194.432C99.2768 195.07 99.4094 195.768 99.4094 196.524C99.4094 197.27 99.2768 197.967 99.0117 198.616C98.7563 199.264 98.393 199.828 97.9216 200.31C97.4502 200.781 96.8954 201.154 96.257 201.429C95.6285 201.694 94.9362 201.827 94.18 201.827C93.4336 201.827 92.7413 201.694 92.1029 201.429C91.4646 201.154 90.9098 200.781 90.4384 200.31C89.967 199.828 89.5987 199.264 89.3336 198.616C89.0782 197.967 88.9506 197.27 88.9506 196.524ZM103.019 196.597H104.418L108.101 201.68H106.554L103.019 196.597ZM101.178 191.368H102.43V201.68H101.178V191.368ZM101.87 192.473V191.368H103.977C104.644 191.368 105.238 191.496 105.759 191.751C106.289 191.997 106.707 192.35 107.011 192.812C107.325 193.273 107.482 193.823 107.482 194.461C107.482 195.09 107.325 195.64 107.011 196.111C106.707 196.573 106.289 196.931 105.759 197.187C105.238 197.432 104.644 197.555 103.977 197.555H101.87V196.45H103.977C104.418 196.45 104.806 196.372 105.14 196.214C105.484 196.057 105.749 195.831 105.936 195.537C106.132 195.242 106.23 194.884 106.23 194.461C106.23 194.039 106.132 193.681 105.936 193.386C105.749 193.092 105.484 192.866 105.14 192.709C104.806 192.551 104.418 192.473 103.977 192.473H101.87ZM109.421 191.368H110.673V201.68H109.421V191.368ZM114.724 191.368H116.27L111.807 196.2L116.491 201.68H114.945L110.29 196.229L114.724 191.368ZM117.75 191.368H119.002V201.68H117.75V191.368ZM129.168 191.368H130.42V202.195L122.613 194.005V201.68H121.361V190.852L129.168 199.043V191.368ZM137.57 197.629V196.45H142.358C142.358 197.167 142.25 197.85 142.034 198.498C141.818 199.136 141.498 199.706 141.076 200.206C140.654 200.707 140.133 201.105 139.515 201.4C138.906 201.684 138.208 201.827 137.423 201.827C136.676 201.827 135.984 201.699 135.346 201.444C134.707 201.179 134.153 200.81 133.681 200.339C133.21 199.858 132.842 199.293 132.576 198.645C132.321 197.997 132.193 197.29 132.193 196.524C132.193 195.758 132.321 195.051 132.576 194.403C132.842 193.754 133.21 193.195 133.681 192.723C134.153 192.242 134.707 191.874 135.346 191.618C135.984 191.353 136.676 191.221 137.423 191.221C138.061 191.221 138.646 191.304 139.176 191.471C139.716 191.638 140.197 191.884 140.619 192.208C141.052 192.532 141.415 192.934 141.71 193.416L140.826 194.226C140.502 193.676 140.05 193.249 139.47 192.944C138.891 192.63 138.208 192.473 137.423 192.473C136.696 192.473 136.038 192.645 135.449 192.988C134.86 193.332 134.388 193.808 134.035 194.417C133.691 195.016 133.519 195.719 133.519 196.524C133.519 197.319 133.691 198.021 134.035 198.63C134.388 199.239 134.86 199.715 135.449 200.059C136.038 200.403 136.696 200.575 137.423 200.575C137.934 200.575 138.39 200.501 138.793 200.354C139.205 200.197 139.559 199.981 139.853 199.706C140.148 199.431 140.389 199.116 140.575 198.763C140.772 198.409 140.914 198.031 141.002 197.629H137.57ZM148.621 191.368H149.873V201.68H148.621V191.368ZM151.715 201.68H149.313V200.427H151.715C152.294 200.427 152.824 200.339 153.305 200.162C153.787 199.976 154.199 199.715 154.543 199.382C154.887 199.038 155.152 198.625 155.338 198.144C155.525 197.663 155.618 197.123 155.618 196.524C155.618 195.925 155.525 195.385 155.338 194.903C155.152 194.422 154.887 194.015 154.543 193.681C154.199 193.337 153.787 193.077 153.305 192.9C152.824 192.713 152.294 192.62 151.715 192.62H149.313V191.368H151.715C152.716 191.368 153.605 191.584 154.381 192.016C155.157 192.448 155.766 193.052 156.207 193.828C156.649 194.594 156.87 195.493 156.87 196.524C156.87 197.555 156.649 198.458 156.207 199.234C155.766 200 155.157 200.599 154.381 201.031C153.605 201.464 152.716 201.68 151.715 201.68ZM159.174 198.586L159.616 197.408H164.183L164.625 198.586H159.174ZM161.87 193.695L160.132 197.791L160.014 198.056L158.482 201.68H157.083L161.87 190.852L166.658 201.68H165.258L163.756 198.144L163.638 197.85L161.87 193.695ZM172.489 191.368H173.888L170.456 197.231V201.68H169.204V197.246L165.772 191.368H167.171L169.822 196.141L172.489 191.368ZM175.517 198.557C175.752 198.969 175.998 199.332 176.253 199.647C176.518 199.961 176.813 200.206 177.137 200.383C177.461 200.56 177.829 200.648 178.242 200.648C178.792 200.648 179.234 200.496 179.568 200.192C179.901 199.887 180.068 199.499 180.068 199.028C180.068 198.566 179.96 198.198 179.744 197.923C179.528 197.648 179.244 197.427 178.89 197.26C178.546 197.084 178.178 196.926 177.785 196.789C177.53 196.701 177.245 196.588 176.931 196.45C176.617 196.303 176.317 196.121 176.032 195.905C175.747 195.679 175.512 195.404 175.325 195.08C175.148 194.756 175.06 194.358 175.06 193.887C175.06 193.376 175.188 192.92 175.443 192.517C175.698 192.114 176.052 191.8 176.504 191.574C176.955 191.339 177.471 191.221 178.05 191.221C178.61 191.221 179.096 191.329 179.509 191.545C179.931 191.751 180.289 192.021 180.584 192.355C180.879 192.679 181.109 193.023 181.276 193.386L180.201 194.005C180.073 193.75 179.911 193.499 179.715 193.254C179.518 193.008 179.278 192.807 178.993 192.65C178.718 192.492 178.379 192.414 177.977 192.414C177.417 192.414 177.009 192.551 176.754 192.826C176.499 193.092 176.371 193.391 176.371 193.725C176.371 194.01 176.445 194.275 176.592 194.52C176.739 194.756 176.985 194.982 177.329 195.198C177.682 195.404 178.158 195.61 178.757 195.817C179.032 195.915 179.322 196.043 179.627 196.2C179.931 196.357 180.211 196.558 180.466 196.804C180.731 197.039 180.947 197.329 181.114 197.673C181.281 198.007 181.365 198.409 181.365 198.881C181.365 199.332 181.276 199.74 181.1 200.103C180.933 200.467 180.697 200.776 180.393 201.031C180.098 201.287 179.759 201.483 179.376 201.621C179.003 201.758 178.61 201.827 178.198 201.827C177.638 201.827 177.117 201.709 176.636 201.473C176.165 201.228 175.747 200.909 175.384 200.516C175.031 200.113 174.741 199.686 174.515 199.234L175.517 198.557Z" fill="#666666"/>
<path d="M41.8451 241.975C41.7823 241.445 41.5278 241.033 41.0814 240.74C40.635 240.447 40.0875 240.301 39.4388 240.301C38.9645 240.301 38.5495 240.377 38.1938 240.531C37.8416 240.684 37.5661 240.895 37.3673 241.164C37.172 241.432 37.0743 241.738 37.0743 242.079C37.0743 242.365 37.1423 242.611 37.2784 242.817C37.4179 243.019 37.5957 243.188 37.8119 243.324C38.0281 243.457 38.2548 243.567 38.492 243.654C38.7291 243.738 38.9471 243.806 39.1459 243.858L40.2339 244.151C40.5129 244.224 40.8233 244.325 41.1651 244.454C41.5103 244.583 41.8399 244.759 42.1537 244.983C42.4711 245.202 42.7326 245.485 42.9384 245.83C43.1442 246.175 43.247 246.599 43.247 247.101C43.247 247.68 43.0953 248.203 42.7919 248.67C42.492 249.138 42.0526 249.509 41.4737 249.785C40.8983 250.06 40.1991 250.198 39.376 250.198C38.6088 250.198 37.9445 250.074 37.383 249.827C36.825 249.579 36.3856 249.234 36.0647 248.791C35.7474 248.348 35.5678 247.834 35.5259 247.248H36.8651C36.9 247.652 37.036 247.987 37.2731 248.252C37.5138 248.514 37.8172 248.709 38.1833 248.838C38.553 248.963 38.9506 249.026 39.376 249.026C39.8712 249.026 40.3159 248.946 40.71 248.786C41.104 248.622 41.4162 248.395 41.6463 248.106C41.8765 247.813 41.9916 247.471 41.9916 247.08C41.9916 246.725 41.8922 246.435 41.6934 246.212C41.4946 245.989 41.2331 245.807 40.9087 245.668C40.5844 245.528 40.2339 245.406 39.8573 245.302L38.5391 244.925C37.7021 244.684 37.0395 244.341 36.5512 243.894C36.063 243.448 35.8189 242.864 35.8189 242.142C35.8189 241.542 35.981 241.019 36.3054 240.573C36.6332 240.123 37.0726 239.774 37.6236 239.527C38.1781 239.275 38.7971 239.15 39.4807 239.15C40.1712 239.15 40.7849 239.274 41.322 239.521C41.8591 239.765 42.2845 240.1 42.5984 240.526C42.9157 240.951 43.0831 241.434 43.1006 241.975H41.8451ZM48.707 241.975V243.021H44.543V241.975H48.707ZM45.7567 240.05H46.9912V247.708C46.9912 248.057 47.0418 248.318 47.1429 248.493C47.2475 248.664 47.38 248.779 47.5405 248.838C47.7044 248.894 47.877 248.922 48.0583 248.922C48.1944 248.922 48.3059 248.915 48.3931 248.901C48.4803 248.883 48.5501 248.869 48.6024 248.859L48.8535 249.968C48.7698 249.999 48.6529 250.031 48.503 250.062C48.353 250.097 48.163 250.114 47.9328 250.114C47.5841 250.114 47.2423 250.039 46.9075 249.889C46.5762 249.739 46.3007 249.511 46.081 249.204C45.8648 248.897 45.7567 248.51 45.7567 248.043V240.05ZM52.9285 250.198C52.4193 250.198 51.9573 250.102 51.5423 249.91C51.1273 249.715 50.7977 249.434 50.5536 249.068C50.3095 248.698 50.1874 248.252 50.1874 247.729C50.1874 247.269 50.2781 246.895 50.4594 246.609C50.6408 246.32 50.8831 246.093 51.1865 245.929C51.4899 245.765 51.8247 245.643 52.1909 245.563C52.5606 245.48 52.932 245.413 53.3051 245.364C53.7934 245.302 54.1892 245.255 54.4926 245.223C54.7995 245.188 55.0227 245.131 55.1622 245.051C55.3052 244.97 55.3766 244.831 55.3766 244.632V244.59C55.3766 244.074 55.2354 243.673 54.9529 243.387C54.6739 243.101 54.2502 242.958 53.6818 242.958C53.0924 242.958 52.6303 243.087 52.2955 243.345C51.9607 243.603 51.7253 243.879 51.5893 244.172L50.4176 243.753C50.6268 243.265 50.9058 242.885 51.2545 242.613C51.6068 242.337 51.9904 242.146 52.4054 242.037C52.8239 241.926 53.2354 241.87 53.6399 241.87C53.898 241.87 54.1944 241.901 54.5292 241.964C54.8675 242.024 55.1936 242.147 55.5074 242.336C55.8248 242.524 56.0881 242.808 56.2973 243.188C56.5066 243.568 56.6112 244.078 56.6112 244.716V250.01H55.3766V248.922H55.3139C55.2302 249.096 55.0907 249.283 54.8954 249.481C54.7001 249.68 54.4403 249.849 54.116 249.989C53.7916 250.128 53.3958 250.198 52.9285 250.198ZM53.1168 249.089C53.605 249.089 54.0166 248.993 54.3514 248.801C54.6896 248.609 54.9442 248.362 55.1151 248.058C55.2895 247.755 55.3766 247.436 55.3766 247.101V245.971C55.3243 246.034 55.2093 246.092 55.0314 246.144C54.857 246.193 54.6548 246.236 54.4246 246.275C54.1979 246.31 53.9765 246.341 53.7602 246.369C53.5475 246.393 53.3749 246.414 53.2424 246.432C52.9215 246.473 52.6216 246.541 52.3426 246.636C52.0671 246.726 51.8439 246.864 51.673 247.049C51.5056 247.23 51.4219 247.478 51.4219 247.792C51.4219 248.221 51.5806 248.545 51.898 248.765C52.2188 248.981 52.6251 249.089 53.1168 249.089ZM58.8645 250.01V241.975H60.0572V243.188H60.1409C60.2873 242.791 60.5524 242.468 60.936 242.221C61.3196 241.973 61.752 241.849 62.2333 241.849C62.324 241.849 62.4373 241.851 62.5733 241.854C62.7093 241.858 62.8122 241.863 62.882 241.87V243.126C62.8401 243.115 62.7442 243.099 62.5943 243.078C62.4478 243.054 62.2926 243.042 62.1287 243.042C61.7381 243.042 61.3894 243.124 61.0825 243.288C60.7791 243.448 60.5384 243.671 60.3606 243.957C60.1862 244.24 60.099 244.562 60.099 244.925V250.01H58.8645ZM68.3432 241.975V243.021H64.1793V241.975H68.3432ZM65.3929 240.05H66.6274V247.708C66.6274 248.057 66.678 248.318 66.7791 248.493C66.8838 248.664 67.0163 248.779 67.1767 248.838C67.3406 248.894 67.5132 248.922 67.6946 248.922C67.8306 248.922 67.9422 248.915 68.0294 248.901C68.1166 248.883 68.1863 248.869 68.2386 248.859L68.4897 249.968C68.406 249.999 68.2892 250.031 68.1392 250.062C67.9893 250.097 67.7992 250.114 67.569 250.114C67.2203 250.114 66.8785 250.039 66.5437 249.889C66.2124 249.739 65.9369 249.511 65.7172 249.204C65.501 248.897 65.3929 248.51 65.3929 248.043V240.05ZM77.9214 241.975V243.021H73.59V241.975H77.9214ZM74.8873 250.01V240.866C74.8873 240.405 74.9954 240.022 75.2117 239.715C75.4279 239.408 75.7086 239.178 76.0539 239.024C76.3991 238.871 76.7636 238.794 77.1472 238.794C77.4506 238.794 77.6982 238.819 77.89 238.867C78.0818 238.916 78.2248 238.962 78.3189 239.003L77.9632 240.071C77.9004 240.05 77.8133 240.023 77.7017 239.992C77.5936 239.961 77.4506 239.945 77.2727 239.945C76.8647 239.945 76.57 240.048 76.3887 240.254C76.2108 240.459 76.1219 240.761 76.1219 241.159V250.01H74.8873ZM79.6516 250.01V241.975H80.8442V243.188H80.9279C81.0744 242.791 81.3395 242.468 81.7231 242.221C82.1067 241.973 82.5391 241.849 83.0204 241.849C83.1111 241.849 83.2244 241.851 83.3604 241.854C83.4964 241.858 83.5993 241.863 83.669 241.87V243.126C83.6272 243.115 83.5313 243.099 83.3813 243.078C83.2349 243.054 83.0797 243.042 82.9158 243.042C82.5252 243.042 82.1764 243.124 81.8695 243.288C81.5661 243.448 81.3255 243.671 81.1476 243.957C80.9733 244.24 80.8861 244.562 80.8861 244.925V250.01H79.6516ZM88.1521 250.177C87.4267 250.177 86.7903 250.004 86.2427 249.659C85.6987 249.314 85.2732 248.831 84.9663 248.21C84.6629 247.589 84.5112 246.864 84.5112 246.034C84.5112 245.197 84.6629 244.466 84.9663 243.842C85.2732 243.218 85.6987 242.733 86.2427 242.388C86.7903 242.043 87.4267 241.87 88.1521 241.87C88.8775 241.87 89.5122 242.043 90.0562 242.388C90.6037 242.733 91.0292 243.218 91.3326 243.842C91.6395 244.466 91.7929 245.197 91.7929 246.034C91.7929 246.864 91.6395 247.589 91.3326 248.21C91.0292 248.831 90.6037 249.314 90.0562 249.659C89.5122 250.004 88.8775 250.177 88.1521 250.177ZM88.1521 249.068C88.7031 249.068 89.1565 248.927 89.5122 248.644C89.8679 248.362 90.1312 247.99 90.3021 247.53C90.473 247.07 90.5584 246.571 90.5584 246.034C90.5584 245.497 90.473 244.997 90.3021 244.533C90.1312 244.069 89.8679 243.694 89.5122 243.408C89.1565 243.122 88.7031 242.979 88.1521 242.979C87.6011 242.979 87.1477 243.122 86.792 243.408C86.4363 243.694 86.173 244.069 86.0021 244.533C85.8312 244.997 85.7458 245.497 85.7458 246.034C85.7458 246.571 85.8312 247.07 86.0021 247.53C86.173 247.99 86.4363 248.362 86.792 248.644C87.1477 248.927 87.6011 249.068 88.1521 249.068ZM93.6774 250.01V241.975H94.8701V243.23H94.9747C95.1421 242.801 95.4124 242.468 95.7856 242.231C96.1587 241.99 96.6069 241.87 97.13 241.87C97.66 241.87 98.1012 241.99 98.4534 242.231C98.8091 242.468 99.0864 242.801 99.2852 243.23H99.3689C99.5746 242.815 99.8833 242.486 100.295 242.241C100.706 241.994 101.2 241.87 101.775 241.87C102.494 241.87 103.081 242.095 103.538 242.545C103.995 242.991 104.223 243.687 104.223 244.632V250.01H102.989V244.632C102.989 244.039 102.827 243.615 102.502 243.361C102.178 243.106 101.796 242.979 101.357 242.979C100.792 242.979 100.354 243.15 100.044 243.492C99.7333 243.83 99.5781 244.259 99.5781 244.779V250.01H98.3227V244.507C98.3227 244.05 98.1744 243.682 97.878 243.403C97.5816 243.12 97.1997 242.979 96.7324 242.979C96.4116 242.979 96.1116 243.064 95.8326 243.235C95.5571 243.406 95.334 243.643 95.1631 243.947C94.9957 244.247 94.912 244.594 94.912 244.988V250.01H93.6774Z" fill="#666666"/>
<path d="M36.1031 275.01V260.377H38.7743V275.01H36.1031ZM41.5888 275.01V260.377H46.3616C47.9067 260.377 49.2488 260.691 50.388 261.32C51.5403 261.935 52.4306 262.793 53.0592 263.893C53.6877 264.98 54.0019 266.243 54.0019 267.684C54.0019 269.111 53.6877 270.381 53.0592 271.494C52.4306 272.594 51.5403 273.458 50.388 274.087C49.2488 274.702 47.9067 275.01 46.3616 275.01H41.5888ZM44.26 272.653H46.4205C47.4156 272.653 48.2733 272.45 48.9935 272.044C49.7267 271.625 50.2963 271.049 50.7022 270.315C51.1081 269.569 51.3111 268.692 51.3111 267.684C51.3111 266.662 51.1081 265.785 50.7022 265.052C50.2963 264.318 49.7267 263.749 48.9935 263.343C48.2733 262.937 47.4156 262.734 46.4205 262.734H44.26V272.653ZM56.1278 275.01V260.377H61.5683C62.5635 260.377 63.4408 260.56 64.2002 260.927C64.9728 261.281 65.5751 261.804 66.0072 262.498C66.4393 263.179 66.6554 264.011 66.6554 264.993C66.6554 266.001 66.4131 266.859 65.9286 267.566C65.4572 268.273 64.8156 268.797 64.0038 269.137L67.3624 275.01H64.3377L60.7434 268.587L62.4718 269.608H58.7989V275.01H56.1278ZM58.7989 267.251H61.6076C62.0921 267.251 62.5111 267.16 62.8646 266.976C63.2182 266.78 63.4931 266.512 63.6896 266.171C63.886 265.831 63.9842 265.438 63.9842 264.993C63.9842 264.534 63.886 264.142 63.6896 263.814C63.4931 263.474 63.2182 263.212 62.8646 263.029C62.5111 262.832 62.0921 262.734 61.6076 262.734H58.7989V267.251ZM74.5877 275.01V262.655H71.7594V260.377H77.2589V275.01H74.5877ZM81.5273 275.01V272.26H84.1199V275.01H81.5273ZM92.2892 275.245C91.4905 275.245 90.731 275.101 90.0108 274.813C89.3038 274.512 88.6949 274.093 88.1842 273.556C87.6866 273.006 87.3462 272.358 87.1629 271.612L89.5002 270.787C89.7359 271.455 90.0959 271.965 90.5804 272.319C91.0649 272.659 91.6345 272.829 92.2892 272.829C92.813 272.829 93.2647 272.731 93.6444 272.535C94.0372 272.338 94.345 272.057 94.5676 271.69C94.7901 271.311 94.9014 270.865 94.9014 270.355C94.9014 269.844 94.7901 269.412 94.5676 269.058C94.358 268.692 94.0569 268.41 93.6641 268.214C93.2712 268.017 92.8064 267.919 92.2696 267.919C92.0208 267.919 91.7589 267.945 91.4839 267.998C91.222 268.05 90.9863 268.129 90.7768 268.233L90.168 266.957L93.9587 262.636H87.9878V260.377H96.9638V262.479L93.1534 266.937L93.1927 265.935C94.07 265.949 94.836 266.138 95.4907 266.505C96.1454 266.872 96.656 267.376 97.0227 268.017C97.3893 268.659 97.5726 269.412 97.5726 270.276C97.5726 271.219 97.3435 272.07 96.8852 272.829C96.4269 273.576 95.7984 274.165 94.9997 274.597C94.2009 275.029 93.2974 275.245 92.2892 275.245ZM105.494 275.245C104.329 275.245 103.308 274.931 102.43 274.303C101.553 273.674 100.866 272.79 100.368 271.651C99.8836 270.512 99.6414 269.189 99.6414 267.684C99.6414 266.165 99.8836 264.842 100.368 263.716C100.853 262.59 101.533 261.713 102.411 261.084C103.288 260.456 104.309 260.141 105.475 260.141C106.666 260.141 107.694 260.456 108.558 261.084C109.436 261.713 110.123 262.597 110.621 263.736C111.118 264.862 111.367 266.178 111.367 267.684C111.367 269.189 111.118 270.512 110.621 271.651C110.136 272.777 109.455 273.661 108.578 274.303C107.701 274.931 106.673 275.245 105.494 275.245ZM105.514 272.81C106.182 272.81 106.751 272.607 107.223 272.201C107.694 271.782 108.054 271.193 108.303 270.433C108.565 269.661 108.696 268.744 108.696 267.684C108.696 266.623 108.565 265.713 108.303 264.953C108.054 264.181 107.688 263.592 107.203 263.186C106.732 262.78 106.156 262.577 105.475 262.577C104.82 262.577 104.257 262.78 103.786 263.186C103.314 263.592 102.948 264.181 102.686 264.953C102.437 265.713 102.313 266.623 102.313 267.684C102.313 268.731 102.437 269.641 102.686 270.414C102.948 271.173 103.314 271.762 103.786 272.181C104.27 272.6 104.846 272.81 105.514 272.81ZM119.4 275.245C118.235 275.245 117.214 274.931 116.336 274.303C115.459 273.674 114.772 272.79 114.274 271.651C113.79 270.512 113.547 269.189 113.547 267.684C113.547 266.165 113.79 264.842 114.274 263.716C114.759 262.59 115.439 261.713 116.317 261.084C117.194 260.456 118.215 260.141 119.381 260.141C120.572 260.141 121.6 260.456 122.464 261.084C123.342 261.713 124.029 262.597 124.527 263.736C125.024 264.862 125.273 266.178 125.273 267.684C125.273 269.189 125.024 270.512 124.527 271.651C124.042 272.777 123.361 273.661 122.484 274.303C121.607 274.931 120.579 275.245 119.4 275.245ZM119.42 272.81C120.088 272.81 120.657 272.607 121.129 272.201C121.6 271.782 121.96 271.193 122.209 270.433C122.471 269.661 122.602 268.744 122.602 267.684C122.602 266.623 122.471 265.713 122.209 264.953C121.96 264.181 121.594 263.592 121.109 263.186C120.638 262.78 120.062 262.577 119.381 262.577C118.726 262.577 118.163 262.78 117.692 263.186C117.22 263.592 116.854 264.181 116.592 264.953C116.343 265.713 116.219 266.623 116.219 267.684C116.219 268.731 116.343 269.641 116.592 270.414C116.854 271.173 117.22 271.762 117.692 272.181C118.176 272.6 118.752 272.81 119.42 272.81ZM128.377 278.074V276.797C128.809 276.692 129.156 276.489 129.417 276.188C129.692 275.9 129.863 275.507 129.928 275.01H128.769V272.26H131.362V273.949C131.362 275.101 131.107 276.024 130.596 276.718C130.098 277.412 129.359 277.864 128.377 278.074ZM140.327 275.245C139.161 275.245 138.14 274.931 137.263 274.303C136.385 273.674 135.698 272.79 135.2 271.651C134.716 270.512 134.474 269.189 134.474 267.684C134.474 266.165 134.716 264.842 135.2 263.716C135.685 262.59 136.366 261.713 137.243 261.084C138.12 260.456 139.142 260.141 140.307 260.141C141.498 260.141 142.526 260.456 143.391 261.084C144.268 261.713 144.955 262.597 145.453 263.736C145.95 264.862 146.199 266.178 146.199 267.684C146.199 269.189 145.95 270.512 145.453 271.651C144.968 272.777 144.287 273.661 143.41 274.303C142.533 274.931 141.505 275.245 140.327 275.245ZM140.346 272.81C141.014 272.81 141.584 272.607 142.055 272.201C142.526 271.782 142.886 271.193 143.135 270.433C143.397 269.661 143.528 268.744 143.528 267.684C143.528 266.623 143.397 265.713 143.135 264.953C142.886 264.181 142.52 263.592 142.035 263.186C141.564 262.78 140.988 262.577 140.307 262.577C139.652 262.577 139.089 262.78 138.618 263.186C138.146 263.592 137.78 264.181 137.518 264.953C137.269 265.713 137.145 266.623 137.145 267.684C137.145 268.731 137.269 269.641 137.518 270.414C137.78 271.173 138.146 271.762 138.618 272.181C139.102 272.6 139.678 272.81 140.346 272.81ZM154.233 275.245C153.067 275.245 152.046 274.931 151.169 274.303C150.291 273.674 149.604 272.79 149.106 271.651C148.622 270.512 148.38 269.189 148.38 267.684C148.38 266.165 148.622 264.842 149.106 263.716C149.591 262.59 150.272 261.713 151.149 261.084C152.026 260.456 153.048 260.141 154.213 260.141C155.404 260.141 156.432 260.456 157.297 261.084C158.174 261.713 158.861 262.597 159.359 263.736C159.856 264.862 160.105 266.178 160.105 267.684C160.105 269.189 159.856 270.512 159.359 271.651C158.874 272.777 158.193 273.661 157.316 274.303C156.439 274.931 155.411 275.245 154.233 275.245ZM154.252 272.81C154.92 272.81 155.49 272.607 155.961 272.201C156.432 271.782 156.792 271.193 157.041 270.433C157.303 269.661 157.434 268.744 157.434 267.684C157.434 266.623 157.303 265.713 157.041 264.953C156.792 264.181 156.426 263.592 155.941 263.186C155.47 262.78 154.894 262.577 154.213 262.577C153.558 262.577 152.995 262.78 152.524 263.186C152.052 263.592 151.686 264.181 151.424 264.953C151.175 265.713 151.051 266.623 151.051 267.684C151.051 268.731 151.175 269.641 151.424 270.414C151.686 271.173 152.052 271.762 152.524 272.181C153.008 272.6 153.584 272.81 154.252 272.81ZM168.139 275.245C166.973 275.245 165.952 274.931 165.075 274.303C164.197 273.674 163.51 272.79 163.012 271.651C162.528 270.512 162.286 269.189 162.286 267.684C162.286 266.165 162.528 264.842 163.012 263.716C163.497 262.59 164.178 261.713 165.055 261.084C165.932 260.456 166.954 260.141 168.119 260.141C169.31 260.141 170.338 260.456 171.203 261.084C172.08 261.713 172.767 262.597 173.265 263.736C173.762 264.862 174.011 266.178 174.011 267.684C174.011 269.189 173.762 270.512 173.265 271.651C172.78 272.777 172.099 273.661 171.222 274.303C170.345 274.931 169.317 275.245 168.139 275.245ZM168.158 272.81C168.826 272.81 169.396 272.607 169.867 272.201C170.338 271.782 170.698 271.193 170.947 270.433C171.209 269.661 171.34 268.744 171.34 267.684C171.34 266.623 171.209 265.713 170.947 264.953C170.698 264.181 170.332 263.592 169.847 263.186C169.376 262.78 168.8 262.577 168.119 262.577C167.464 262.577 166.901 262.78 166.43 263.186C165.958 263.592 165.592 264.181 165.33 264.953C165.081 265.713 164.957 266.623 164.957 267.684C164.957 268.731 165.081 269.641 165.33 270.414C165.592 271.173 165.958 271.762 166.43 272.181C166.914 272.6 167.49 272.81 168.158 272.81Z" fill="#E8604C"/>
<rect x="49.4199" y="315.801" width="249.196" height="47.875" rx="23.9375" fill="#E8604C"/>
<path d="M254.73 329.918C249.648 329.918 245.523 334.043 245.523 339.125C245.523 344.207 249.648 348.332 254.73 348.332C259.812 348.332 263.937 344.207 263.937 339.125C263.937 334.043 259.812 329.918 254.73 329.918ZM259.564 339.429C259.564 339.806 259.251 340.119 258.873 340.119C258.496 340.119 258.183 339.806 258.183 339.429V336.648L251.075 343.756C250.937 343.894 250.762 343.958 250.587 343.958C250.412 343.958 250.237 343.894 250.099 343.756C249.832 343.489 249.832 343.047 250.099 342.78L257.207 335.672H254.426C254.049 335.672 253.736 335.359 253.736 334.982C253.736 334.604 254.049 334.291 254.426 334.291H258.873C259.251 334.291 259.564 334.604 259.564 334.982V339.429Z" fill="white"/>
<path d="M87.6559 344.077L85.3874 340.07H84.4152V344.077H82.3528V333.795H86.2123C87.0078 333.795 87.6854 333.937 88.2452 334.222C88.8049 334.497 89.2223 334.875 89.4973 335.356C89.7821 335.828 89.9245 336.358 89.9245 336.947C89.9245 337.625 89.7281 338.239 89.3352 338.789C88.9424 339.329 88.3581 339.702 87.5823 339.908L90.0423 344.077H87.6559ZM84.4152 338.523H86.1387C86.6984 338.523 87.1158 338.391 87.3908 338.126C87.6657 337.851 87.8032 337.473 87.8032 336.991C87.8032 336.52 87.6657 336.157 87.3908 335.901C87.1158 335.636 86.6984 335.504 86.1387 335.504H84.4152V338.523ZM99.3761 339.82C99.3761 340.114 99.3565 340.379 99.3172 340.615H93.3512C93.4003 341.204 93.6065 341.666 93.9699 342C94.3333 342.334 94.7801 342.501 95.3104 342.501C96.0764 342.501 96.6214 342.172 96.9455 341.514H99.1699C98.9342 342.299 98.4824 342.948 97.8146 343.458C97.1468 343.959 96.3268 344.209 95.3546 344.209C94.569 344.209 93.8619 344.038 93.2334 343.694C92.6147 343.34 92.1286 342.844 91.775 342.206C91.4313 341.568 91.2594 340.831 91.2594 339.996C91.2594 339.152 91.4313 338.41 91.775 337.772C92.1187 337.134 92.5999 336.643 93.2186 336.299C93.8373 335.955 94.5493 335.783 95.3546 335.783C96.1304 335.783 96.8228 335.95 97.4316 336.284C98.0503 336.618 98.5266 337.095 98.8605 337.713C99.2042 338.322 99.3761 339.024 99.3761 339.82ZM97.2401 339.23C97.2303 338.7 97.0388 338.278 96.6656 337.964C96.2925 337.64 95.8358 337.478 95.2957 337.478C94.785 337.478 94.3529 337.635 93.9994 337.949C93.6556 338.253 93.4445 338.681 93.3659 339.23H97.2401ZM100.351 339.982C100.351 339.167 100.518 338.445 100.852 337.816C101.196 337.178 101.657 336.682 102.237 336.329C102.816 335.975 103.454 335.798 104.152 335.798C104.731 335.798 105.242 335.911 105.684 336.137C106.135 336.353 106.499 336.633 106.774 336.977V335.916H108.851V347.966H106.774V342.957C106.499 343.311 106.13 343.606 105.669 343.841C105.207 344.077 104.687 344.195 104.107 344.195C103.42 344.195 102.787 344.018 102.207 343.664C101.638 343.301 101.186 342.8 100.852 342.162C100.518 341.524 100.351 340.797 100.351 339.982ZM106.774 339.996C106.774 339.496 106.671 339.064 106.464 338.7C106.258 338.337 105.988 338.062 105.654 337.875C105.33 337.689 104.981 337.595 104.608 337.595C104.245 337.595 103.896 337.689 103.562 337.875C103.238 338.062 102.973 338.337 102.767 338.7C102.561 339.054 102.458 339.481 102.458 339.982C102.458 340.483 102.561 340.92 102.767 341.293C102.973 341.656 103.238 341.931 103.562 342.118C103.896 342.304 104.245 342.398 104.608 342.398C104.981 342.398 105.33 342.304 105.654 342.118C105.988 341.931 106.258 341.656 106.464 341.293C106.671 340.929 106.774 340.497 106.774 339.996ZM118.569 335.916V344.077H116.492V343.046C116.227 343.399 115.878 343.679 115.446 343.885C115.024 344.082 114.562 344.18 114.062 344.18C113.423 344.18 112.859 344.047 112.367 343.782C111.876 343.507 111.489 343.11 111.204 342.589C110.929 342.059 110.791 341.43 110.791 340.704V335.916H112.854V340.409C112.854 341.057 113.016 341.558 113.34 341.911C113.664 342.255 114.106 342.427 114.665 342.427C115.235 342.427 115.682 342.255 116.006 341.911C116.33 341.558 116.492 341.057 116.492 340.409V335.916H118.569ZM128.19 339.82C128.19 340.114 128.171 340.379 128.131 340.615H122.165C122.215 341.204 122.421 341.666 122.784 342C123.147 342.334 123.594 342.501 124.125 342.501C124.891 342.501 125.436 342.172 125.76 341.514H127.984C127.748 342.299 127.297 342.948 126.629 343.458C125.961 343.959 125.141 344.209 124.169 344.209C123.383 344.209 122.676 344.038 122.048 343.694C121.429 343.34 120.943 342.844 120.589 342.206C120.245 341.568 120.074 340.831 120.074 339.996C120.074 339.152 120.245 338.41 120.589 337.772C120.933 337.134 121.414 336.643 122.033 336.299C122.652 335.955 123.364 335.783 124.169 335.783C124.945 335.783 125.637 335.95 126.246 336.284C126.865 336.618 127.341 337.095 127.675 337.713C128.018 338.322 128.19 339.024 128.19 339.82ZM126.054 339.23C126.045 338.7 125.853 338.278 125.48 337.964C125.107 337.64 124.65 337.478 124.11 337.478C123.599 337.478 123.167 337.635 122.814 337.949C122.47 338.253 122.259 338.681 122.18 339.23H126.054ZM132.819 344.209C132.151 344.209 131.552 344.092 131.021 343.856C130.491 343.61 130.069 343.281 129.755 342.869C129.45 342.457 129.283 342 129.254 341.499H131.331C131.37 341.813 131.522 342.074 131.787 342.28C132.062 342.486 132.401 342.589 132.804 342.589C133.197 342.589 133.501 342.511 133.717 342.353C133.943 342.196 134.056 341.995 134.056 341.749C134.056 341.484 133.918 341.288 133.643 341.16C133.378 341.023 132.951 340.875 132.362 340.718C131.753 340.571 131.252 340.419 130.859 340.262C130.476 340.105 130.142 339.864 129.858 339.54C129.583 339.216 129.445 338.779 129.445 338.229C129.445 337.777 129.573 337.365 129.828 336.991C130.093 336.618 130.466 336.324 130.948 336.108C131.439 335.892 132.013 335.783 132.671 335.783C133.643 335.783 134.419 336.029 134.999 336.52C135.578 337.001 135.897 337.654 135.956 338.479H133.982C133.953 338.155 133.815 337.9 133.57 337.713C133.334 337.517 133.015 337.419 132.612 337.419C132.239 337.419 131.949 337.487 131.743 337.625C131.547 337.762 131.449 337.954 131.449 338.199C131.449 338.474 131.586 338.685 131.861 338.833C132.136 338.97 132.563 339.113 133.143 339.26C133.732 339.407 134.218 339.559 134.601 339.717C134.984 339.874 135.313 340.119 135.588 340.453C135.873 340.777 136.02 341.209 136.03 341.749C136.03 342.221 135.897 342.643 135.632 343.016C135.377 343.389 135.004 343.684 134.513 343.9C134.031 344.106 133.467 344.209 132.819 344.209ZM140.124 337.61V341.558C140.124 341.833 140.188 342.034 140.315 342.162C140.453 342.28 140.679 342.339 140.993 342.339H141.95V344.077H140.654C138.916 344.077 138.047 343.232 138.047 341.543V337.61H137.075V335.916H138.047V333.898H140.124V335.916H141.95V337.61H140.124ZM153.249 342.118H149.153L148.476 344.077H146.31L150.008 333.78H152.409L156.106 344.077H153.926L153.249 342.118ZM152.689 340.468L151.201 336.166L149.713 340.468H152.689ZM159.551 337.095C159.816 336.721 160.179 336.412 160.641 336.166C161.112 335.911 161.647 335.783 162.246 335.783C162.944 335.783 163.572 335.955 164.132 336.299C164.702 336.643 165.148 337.134 165.472 337.772C165.806 338.401 165.973 339.132 165.973 339.967C165.973 340.802 165.806 341.543 165.472 342.191C165.148 342.83 164.702 343.326 164.132 343.679C163.572 344.033 162.944 344.209 162.246 344.209C161.647 344.209 161.117 344.087 160.656 343.841C160.204 343.596 159.836 343.286 159.551 342.913V347.966H157.488V335.916H159.551V337.095ZM163.867 339.967C163.867 339.476 163.764 339.054 163.557 338.7C163.361 338.337 163.096 338.062 162.762 337.875C162.438 337.689 162.084 337.595 161.701 337.595C161.328 337.595 160.975 337.694 160.641 337.89C160.317 338.077 160.052 338.352 159.845 338.715C159.649 339.078 159.551 339.505 159.551 339.996C159.551 340.488 159.649 340.915 159.845 341.278C160.052 341.641 160.317 341.921 160.641 342.118C160.975 342.304 161.328 342.398 161.701 342.398C162.084 342.398 162.438 342.299 162.762 342.103C163.096 341.907 163.361 341.627 163.557 341.263C163.764 340.9 163.867 340.468 163.867 339.967ZM169.534 337.095C169.799 336.721 170.163 336.412 170.624 336.166C171.096 335.911 171.631 335.783 172.23 335.783C172.927 335.783 173.556 335.955 174.116 336.299C174.685 336.643 175.132 337.134 175.456 337.772C175.79 338.401 175.957 339.132 175.957 339.967C175.957 340.802 175.79 341.543 175.456 342.191C175.132 342.83 174.685 343.326 174.116 343.679C173.556 344.033 172.927 344.209 172.23 344.209C171.631 344.209 171.101 344.087 170.639 343.841C170.187 343.596 169.819 343.286 169.534 342.913V347.966H167.472V335.916H169.534V337.095ZM173.85 339.967C173.85 339.476 173.747 339.054 173.541 338.7C173.345 338.337 173.079 338.062 172.746 337.875C172.421 337.689 172.068 337.595 171.685 337.595C171.312 337.595 170.958 337.694 170.624 337.89C170.3 338.077 170.035 338.352 169.829 338.715C169.632 339.078 169.534 339.505 169.534 339.996C169.534 340.488 169.632 340.915 169.829 341.278C170.035 341.641 170.3 341.921 170.624 342.118C170.958 342.304 171.312 342.398 171.685 342.398C172.068 342.398 172.421 342.299 172.746 342.103C173.079 341.907 173.345 341.627 173.541 341.263C173.747 340.9 173.85 340.468 173.85 339.967ZM179.518 333.176V344.077H177.456V333.176H179.518ZM182.601 334.944C182.238 334.944 181.933 334.831 181.688 334.605C181.452 334.369 181.334 334.08 181.334 333.736C181.334 333.392 181.452 333.107 181.688 332.882C181.933 332.646 182.238 332.528 182.601 332.528C182.965 332.528 183.264 332.646 183.5 332.882C183.745 333.107 183.868 333.392 183.868 333.736C183.868 334.08 183.745 334.369 183.5 334.605C183.264 334.831 182.965 334.944 182.601 334.944ZM183.618 335.916V344.077H181.555V335.916H183.618ZM185.125 339.996C185.125 339.152 185.297 338.415 185.641 337.787C185.984 337.149 186.461 336.658 187.069 336.314C187.678 335.96 188.376 335.783 189.161 335.783C190.173 335.783 191.007 336.039 191.665 336.549C192.333 337.05 192.78 337.757 193.006 338.671H190.782C190.664 338.317 190.462 338.042 190.178 337.846C189.903 337.64 189.559 337.536 189.146 337.536C188.557 337.536 188.091 337.752 187.747 338.185C187.403 338.607 187.231 339.211 187.231 339.996C187.231 340.772 187.403 341.376 187.747 341.808C188.091 342.231 188.557 342.442 189.146 342.442C189.981 342.442 190.526 342.069 190.782 341.322H193.006C192.78 342.206 192.333 342.908 191.665 343.429C190.998 343.949 190.163 344.209 189.161 344.209C188.376 344.209 187.678 344.038 187.069 343.694C186.461 343.34 185.984 342.849 185.641 342.221C185.297 341.582 185.125 340.841 185.125 339.996ZM193.986 339.967C193.986 339.142 194.148 338.41 194.473 337.772C194.806 337.134 195.253 336.643 195.813 336.299C196.383 335.955 197.016 335.783 197.713 335.783C198.322 335.783 198.852 335.906 199.304 336.152C199.766 336.397 200.134 336.707 200.409 337.08V335.916H202.486V344.077H200.409V342.884C200.144 343.267 199.776 343.586 199.304 343.841C198.843 344.087 198.307 344.209 197.699 344.209C197.011 344.209 196.383 344.033 195.813 343.679C195.253 343.326 194.806 342.83 194.473 342.191C194.148 341.543 193.986 340.802 193.986 339.967ZM200.409 339.996C200.409 339.496 200.311 339.068 200.114 338.715C199.918 338.352 199.653 338.077 199.319 337.89C198.985 337.694 198.627 337.595 198.244 337.595C197.861 337.595 197.507 337.689 197.183 337.875C196.859 338.062 196.594 338.337 196.388 338.7C196.191 339.054 196.093 339.476 196.093 339.967C196.093 340.458 196.191 340.89 196.388 341.263C196.594 341.627 196.859 341.907 197.183 342.103C197.517 342.299 197.87 342.398 198.244 342.398C198.627 342.398 198.985 342.304 199.319 342.118C199.653 341.921 199.918 341.646 200.114 341.293C200.311 340.929 200.409 340.497 200.409 339.996ZM206.901 337.61V341.558C206.901 341.833 206.965 342.034 207.093 342.162C207.23 342.28 207.456 342.339 207.771 342.339H208.728V344.077H207.432C205.693 344.077 204.824 343.232 204.824 341.543V337.61H203.852V335.916H204.824V333.898H206.901V335.916H208.728V337.61H206.901ZM211.257 334.944C210.894 334.944 210.589 334.831 210.344 334.605C210.108 334.369 209.99 334.08 209.99 333.736C209.99 333.392 210.108 333.107 210.344 332.882C210.589 332.646 210.894 332.528 211.257 332.528C211.621 332.528 211.92 332.646 212.156 332.882C212.401 333.107 212.524 333.392 212.524 333.736C212.524 334.08 212.401 334.369 212.156 334.605C211.92 334.831 211.621 334.944 211.257 334.944ZM212.274 335.916V344.077H210.211V335.916H212.274ZM217.935 344.209C217.149 344.209 216.442 344.038 215.814 343.694C215.185 343.34 214.689 342.844 214.326 342.206C213.972 341.568 213.796 340.831 213.796 339.996C213.796 339.162 213.977 338.425 214.341 337.787C214.714 337.149 215.22 336.658 215.858 336.314C216.496 335.96 217.208 335.783 217.994 335.783C218.78 335.783 219.492 335.96 220.13 336.314C220.768 336.658 221.269 337.149 221.632 337.787C222.006 338.425 222.192 339.162 222.192 339.996C222.192 340.831 222.001 341.568 221.618 342.206C221.244 342.844 220.734 343.34 220.086 343.694C219.447 344.038 218.73 344.209 217.935 344.209ZM217.935 342.412C218.308 342.412 218.657 342.324 218.981 342.147C219.315 341.961 219.58 341.686 219.776 341.322C219.973 340.959 220.071 340.517 220.071 339.996C220.071 339.221 219.865 338.627 219.452 338.214C219.05 337.792 218.554 337.581 217.964 337.581C217.375 337.581 216.879 337.792 216.477 338.214C216.084 338.627 215.887 339.221 215.887 339.996C215.887 340.772 216.079 341.371 216.462 341.794C216.855 342.206 217.346 342.412 217.935 342.412ZM228.227 335.798C229.2 335.798 229.985 336.108 230.584 336.726C231.183 337.335 231.483 338.19 231.483 339.289V344.077H229.42V339.569C229.42 338.921 229.258 338.425 228.934 338.081C228.61 337.728 228.168 337.551 227.609 337.551C227.039 337.551 226.587 337.728 226.253 338.081C225.929 338.425 225.767 338.921 225.767 339.569V344.077H223.705V335.916H225.767V336.932C226.042 336.579 226.391 336.304 226.813 336.108C227.245 335.901 227.717 335.798 228.227 335.798Z" fill="white"/>
<defs>
<filter id="filter0_d_317_3962" x="0.317307" y="0.317307" width="347.401" height="390.365" filterUnits="userSpaceOnUse" color-interpolation-filters="sRGB">
<feFlood flood-opacity="0" result="BackgroundImageFix"/>
<feColorMatrix in="SourceAlpha" type="matrix" values="0 0 0 0 0 0 0 0 0 0 0 0 0 0 0 0 0 0 127 0" result="hardAlpha"/>
<feOffset/>
<feGaussianBlur stdDeviation="1.84135"/>
<feComposite in2="hardAlpha" operator="out"/>
<feColorMatrix type="matrix" values="0 0 0 0 0.909804 0 0 0 0 0.376471 0 0 0 0 0.298039 0 0 0 0.34 0"/>
<feBlend mode="normal" in2="BackgroundImageFix" result="effect1_dropShadow_317_3962"/>
<feBlend mode="normal" in="SourceGraphic" in2="effect1_dropShadow_317_3962" result="shape"/>
</filter>
</defs>
</svg>
